<svg width="49" height="49" viewBox="0 0 49 49" fill="none" xmlns="http://www.w3.org/2000/svg">
<path d="M0.725586 16.7742C0.725586 10.9027 0.725586 7.96693 1.86826 5.7243C2.87339 3.75163 4.47722 2.1478 6.44989 1.14268C8.69251 0 11.6283 0 17.4998 0H32.1772C38.0488 0 40.9845 0 43.2272 1.14268C45.1998 2.1478 46.8037 3.75163 47.8088 5.7243C48.9515 7.96693 48.9515 10.9027 48.9515 16.7742V31.4516C48.9515 37.3232 48.9515 40.2589 47.8088 42.5016C46.8037 44.4742 45.1998 46.0781 43.2272 47.0832C40.9845 48.2259 38.0488 48.2259 32.1772 48.2259H17.4998C11.6283 48.2259 8.69251 48.2259 6.44989 47.0832C4.47722 46.0781 2.87339 44.4742 1.86826 42.5016C0.725586 40.2589 0.725586 37.3232 0.725586 31.4517V16.7742Z" fill="#952AFF"/>
<path fill-rule="evenodd" clip-rule="evenodd" d="M11.6405 23.8573C18.6699 20.7947 23.3573 18.7756 25.7027 17.8001C32.3991 15.0149 33.7905 14.531 34.6975 14.5151C34.8969 14.5115 35.3429 14.561 35.6318 14.7954C35.8758 14.9934 35.9429 15.2607 35.975 15.4484C36.0071 15.6361 36.0471 16.0636 36.0153 16.3977C35.6525 20.2105 34.0823 29.4632 33.2835 33.7336C32.9454 35.5406 32.2799 36.1465 31.6356 36.2058C30.2353 36.3346 29.172 35.2804 27.8157 34.3913C25.6935 33.0002 24.4945 32.1342 22.4345 30.7767C20.0538 29.2078 21.5971 28.3455 22.9539 26.9364C23.309 26.5676 29.4786 20.9558 29.598 20.4467C29.613 20.383 29.6268 20.1457 29.4858 20.0204C29.3449 19.8951 29.1368 19.9379 28.9866 19.972C28.7737 20.0203 25.3834 22.2612 18.8156 26.6946C17.8533 27.3554 16.9816 27.6774 16.2007 27.6605C15.3397 27.6419 13.6836 27.1737 12.4524 26.7735C10.9423 26.2827 9.74217 26.0232 9.84668 25.1895C9.90111 24.7553 10.4991 24.3112 11.6405 23.8573Z" fill="#F2F2F2"/>
</svg>
