<svg width="50" height="49" viewBox="0 0 50 49" fill="none" xmlns="http://www.w3.org/2000/svg">
<path d="M0.95166 16.82C0.95166 10.9485 0.95166 8.0127 2.09434 5.77008C3.09946 3.79741 4.70329 2.19358 6.67596 1.18845C8.91859 0.0457764 11.8544 0.0457764 17.7259 0.0457764H32.3117C38.1833 0.0457764 41.119 0.0457764 43.3616 1.18845C45.3343 2.19358 46.9381 3.79741 47.9433 5.77008C49.0859 8.0127 49.0859 10.9485 49.0859 16.82V31.4058C49.0859 37.2774 49.0859 40.2131 47.9433 42.4558C46.9381 44.4284 45.3343 46.0323 43.3616 47.0374C41.119 48.1801 38.1833 48.1801 32.3117 48.1801H17.7259C11.8544 48.1801 8.91859 48.1801 6.67596 47.0374C4.70329 46.0323 3.09946 44.4284 2.09434 42.4558C0.95166 40.2131 0.95166 37.2774 0.95166 31.4058V16.82Z" fill="#952AFF"/>
<path d="M26.3182 32.1067C17.6771 32.1067 12.4344 26.1002 12.229 16.1191H16.6055C16.742 23.451 20.0715 26.5579 22.6238 27.1968V16.1191H26.818V22.4466C29.2799 22.1732 31.8567 19.2952 32.7228 16.1191H36.851C36.1903 20.0247 33.3851 22.9027 31.403 24.0899C33.3866 25.0498 36.5782 27.5623 37.8091 32.1067H33.2716C32.3135 29.0689 29.9666 26.7161 26.8195 26.3966V32.1067H26.3182Z" fill="#F2F2F2"/>
</svg>
