<svg width="425" height="277" viewBox="0 0 425 277" fill="none" xmlns="http://www.w3.org/2000/svg">
<g clip-path="url(#clip0_3294_3723)">
<rect x="0.748047" y="0.314697" width="424" height="276" rx="15" fill="white"/>
<path d="M293.882 128.679C314.363 162.927 350.167 179.874 374.477 188.725C380.679 190.983 387.481 187.579 389.244 181.219C401.3 137.721 394.011 101.167 383.043 79.2178C381.329 75.7886 377.876 73.5973 374.049 73.3907C327.064 70.8545 303.97 98.2817 293.556 118.239C291.834 121.538 291.972 125.485 293.882 128.679Z" fill="#FF7DC5"/>
<path d="M293.752 128.865C305.354 148.268 321.875 162.118 338.437 172.089C313.523 155.229 277.63 113.23 333.371 80.1139C312.519 89.0733 300.256 105.347 293.433 118.42C291.711 121.719 291.842 125.671 293.752 128.865Z" fill="#F2F2F2"/>
<path d="M369.253 186.396C371.12 187.124 372.936 187.806 374.693 188.445C380.894 190.704 387.71 187.305 389.473 180.945C401.608 137.161 394.143 100.413 383.055 78.5132C399.225 114.075 395.921 186.255 369.253 186.396Z" fill="#FFA3D6"/>
<path fill-rule="evenodd" clip-rule="evenodd" d="M329.618 128.126C329.806 128.524 330.019 128.921 330.258 129.316C331.343 131.112 332.719 132.459 334.386 133.358C336.037 134.232 337.84 134.623 339.793 134.532C341.732 134.416 343.673 133.77 345.618 132.595C347.563 131.419 349.038 130.001 350.042 128.338C351.031 126.651 351.522 124.874 351.516 123.005C351.495 121.111 350.942 119.267 349.857 117.471C349.618 117.076 349.366 116.702 349.1 116.351L346.34 118.02C346.622 118.354 346.885 118.721 347.127 119.121C347.88 120.368 348.264 121.651 348.278 122.97C348.252 124.279 347.882 125.525 347.166 126.706C346.425 127.903 345.344 128.931 343.923 129.79C342.477 130.664 341.064 131.143 339.685 131.227C338.307 131.312 337.044 131.053 335.898 130.452C334.712 129.842 333.742 128.913 332.988 127.666C332.746 127.266 332.545 126.862 332.383 126.455L329.618 128.126Z" fill="white"/>
<path fill-rule="evenodd" clip-rule="evenodd" d="M358.45 111.815C358.276 111.411 358.077 111.007 357.852 110.603C356.83 108.771 355.502 107.376 353.867 106.42C352.247 105.488 350.459 105.034 348.504 105.057C346.563 105.106 344.6 105.684 342.615 106.79C340.63 107.897 339.107 109.264 338.046 110.89C336.999 112.541 336.446 114.301 336.386 116.169C336.341 118.062 336.83 119.925 337.851 121.757C338.077 122.161 338.316 122.543 338.569 122.903L341.386 121.332C341.115 120.988 340.866 120.612 340.638 120.203C339.928 118.931 339.589 117.635 339.621 116.316C339.693 115.009 340.107 113.777 340.863 112.621C341.645 111.451 342.761 110.462 344.212 109.653C345.687 108.83 347.116 108.4 348.497 108.364C349.878 108.328 351.13 108.63 352.255 109.271C353.419 109.922 354.356 110.884 355.065 112.157C355.293 112.566 355.481 112.976 355.629 113.389L358.45 111.815Z" fill="white"/>
<path fill-rule="evenodd" clip-rule="evenodd" d="M330.485 156.932C330.956 156.923 331.422 156.78 331.882 156.502C332.231 156.291 332.509 156.044 332.714 155.76C332.922 155.467 333.06 155.141 333.128 154.782C333.192 154.417 333.179 154.036 333.089 153.638L332.283 153.862L332.182 153.923C332.234 154.176 332.239 154.42 332.197 154.654C332.161 154.885 332.078 155.095 331.948 155.282C331.818 155.469 331.646 155.627 331.432 155.757C331.119 155.946 330.804 156.04 330.485 156.04C330.173 156.036 329.877 155.948 329.596 155.774C329.312 155.594 329.07 155.339 328.869 155.008C328.669 154.677 328.558 154.347 328.535 154.017C328.511 153.688 328.571 153.385 328.712 153.106C328.86 152.825 329.09 152.589 329.403 152.4C329.71 152.215 330.035 152.144 330.379 152.187C330.726 152.22 331.046 152.362 331.339 152.611L331.44 152.55L332.004 151.946C331.706 151.674 331.387 151.486 331.047 151.381C330.71 151.267 330.364 151.234 330.008 151.281C329.654 151.319 329.302 151.444 328.953 151.655C328.493 151.933 328.149 152.279 327.922 152.692C327.695 153.106 327.594 153.556 327.621 154.042C327.643 154.523 327.799 155.002 328.088 155.48C328.38 155.965 328.734 156.328 329.149 156.572C329.564 156.815 330.009 156.935 330.485 156.932ZM340.374 144.916L343.159 149.523L343.941 149.051L342.462 146.605C342.258 146.267 342.155 145.944 342.153 145.636C342.157 145.324 342.233 145.048 342.381 144.808C342.531 144.558 342.723 144.363 342.956 144.222C343.17 144.092 343.385 144.017 343.598 143.997C343.818 143.973 344.036 144.029 344.253 144.166C344.466 144.297 344.673 144.528 344.873 144.859L346.479 147.517L347.261 147.044L345.538 144.193C345.286 143.776 345.003 143.474 344.689 143.287C344.375 143.1 344.044 143.016 343.695 143.034C343.352 143.049 343.015 143.156 342.684 143.356C342.402 143.527 342.167 143.74 341.978 143.996C341.796 144.249 341.67 144.526 341.601 144.827C341.576 144.938 341.56 145.051 341.554 145.164L341.128 144.46L340.374 144.916ZM345.682 141.708L348.467 146.315L349.249 145.843L347.77 143.396C347.566 143.059 347.463 142.736 347.461 142.428C347.465 142.116 347.541 141.84 347.689 141.6C347.839 141.35 348.031 141.155 348.264 141.014C348.478 140.884 348.693 140.809 348.906 140.789C349.126 140.765 349.344 140.821 349.561 140.958C349.774 141.089 349.981 141.32 350.181 141.651L351.787 144.309L352.569 143.836L350.846 140.985C350.594 140.568 350.311 140.266 349.997 140.079C349.683 139.892 349.352 139.808 349.003 139.826C348.66 139.841 348.323 139.948 347.992 140.148C347.71 140.319 347.475 140.532 347.286 140.788C347.104 141.041 346.978 141.318 346.909 141.619C346.884 141.73 346.868 141.843 346.862 141.956L346.436 141.252L345.682 141.708ZM354.492 142.423C354.957 142.418 355.414 142.28 355.861 142.01C356.315 141.735 356.649 141.387 356.863 140.965C357.079 140.533 357.158 140.075 357.1 139.591L356.283 139.695L356.173 139.762C356.201 140.072 356.154 140.36 356.03 140.627C355.903 140.888 355.699 141.103 355.417 141.274C355.129 141.448 354.829 141.533 354.516 141.529C354.204 141.525 353.912 141.443 353.638 141.281C353.43 141.155 353.247 140.989 353.09 140.784L356.601 138.662L356.661 138.45L356.594 138.34C356.294 137.843 355.939 137.463 355.529 137.201C355.119 136.938 354.687 136.805 354.234 136.803C353.783 136.791 353.34 136.916 352.905 137.179C352.463 137.446 352.132 137.785 351.911 138.194C351.696 138.601 351.605 139.045 351.637 139.528C351.665 140.004 351.824 140.482 352.113 140.96C352.406 141.444 352.757 141.81 353.165 142.057C353.58 142.3 354.022 142.422 354.492 142.423ZM352.664 140.05C352.583 139.848 352.537 139.645 352.527 139.442C352.511 139.125 352.578 138.834 352.727 138.568C352.872 138.296 353.08 138.078 353.349 137.915C353.601 137.763 353.863 137.684 354.135 137.679C354.405 137.667 354.666 137.726 354.921 137.857C355.132 137.965 355.323 138.126 355.494 138.339L352.664 140.05ZM359.665 139.296C360.137 139.287 360.603 139.144 361.063 138.866C361.412 138.655 361.69 138.408 361.895 138.124C362.103 137.831 362.241 137.505 362.309 137.146C362.373 136.781 362.36 136.4 362.27 136.002L361.464 136.226L361.362 136.287C361.415 136.54 361.42 136.784 361.378 137.018C361.341 137.25 361.259 137.459 361.129 137.646C360.999 137.833 360.827 137.991 360.613 138.121C360.3 138.31 359.984 138.405 359.666 138.404C359.354 138.4 359.058 138.312 358.777 138.138C358.493 137.958 358.25 137.703 358.05 137.372C357.85 137.041 357.739 136.711 357.715 136.381C357.692 136.052 357.751 135.749 357.893 135.47C358.041 135.189 358.271 134.953 358.584 134.764C358.89 134.579 359.216 134.508 359.56 134.551C359.906 134.584 360.226 134.726 360.52 134.975L360.621 134.914L361.185 134.31C360.886 134.038 360.568 133.85 360.228 133.745C359.891 133.631 359.545 133.598 359.188 133.645C358.835 133.683 358.483 133.808 358.134 134.019C357.674 134.297 357.33 134.643 357.103 135.056C356.876 135.47 356.775 135.92 356.801 136.406C356.824 136.887 356.98 137.366 357.269 137.844C357.561 138.329 357.915 138.692 358.33 138.936C358.745 139.179 359.19 139.299 359.665 139.296ZM364.433 136.151C364.836 136.251 365.237 136.18 365.635 135.939L366.399 135.478L366.01 134.834L365.903 134.761L365.351 135.094C365.093 135.25 364.873 135.308 364.69 135.268C364.503 135.222 364.33 135.067 364.17 134.803L362.725 132.412L364.059 131.606L363.614 130.87L362.28 131.676L361.53 130.435L360.748 130.907L361.499 132.149L360.708 132.627L361.152 133.362L361.943 132.884L363.428 135.34C363.691 135.775 364.026 136.046 364.433 136.151ZM367.964 134.281C368.43 134.276 368.886 134.138 369.334 133.867C369.787 133.593 370.121 133.245 370.335 132.823C370.551 132.391 370.63 131.933 370.572 131.449L369.756 131.553L369.645 131.62C369.673 131.929 369.626 132.218 369.503 132.485C369.376 132.746 369.171 132.961 368.889 133.132C368.601 133.306 368.301 133.391 367.989 133.387C367.677 133.383 367.384 133.301 367.111 133.139C366.902 133.013 366.719 132.847 366.562 132.642L370.073 130.52L370.133 130.308L370.067 130.198C369.766 129.701 369.411 129.321 369.001 129.058C368.591 128.796 368.16 128.663 367.706 128.661C367.255 128.649 366.812 128.774 366.377 129.037C365.935 129.304 365.604 129.642 365.383 130.052C365.168 130.458 365.077 130.903 365.109 131.386C365.138 131.862 365.296 132.34 365.585 132.818C365.878 133.302 366.229 133.668 366.638 133.915C367.052 134.158 367.495 134.28 367.964 134.281ZM366.136 131.907C366.055 131.706 366.009 131.503 365.999 131.3C365.983 130.983 366.05 130.691 366.199 130.426C366.344 130.154 366.552 129.936 366.822 129.773C367.073 129.621 367.335 129.542 367.608 129.536C367.877 129.525 368.139 129.584 368.393 129.715C368.605 129.823 368.796 129.984 368.967 130.197L366.136 131.907ZM372.962 131.424C373.287 131.394 373.609 131.283 373.928 131.091C374.229 130.909 374.471 130.687 374.656 130.425C374.843 130.153 374.969 129.863 375.034 129.556C375.05 129.484 375.061 129.413 375.069 129.343L375.465 129.998L376.201 129.554L374.634 126.96C374.222 126.28 373.732 125.856 373.163 125.69C372.599 125.519 372.005 125.623 371.38 126.001C370.901 126.29 370.562 126.65 370.362 127.081C370.162 127.511 370.118 127.973 370.232 128.465L371.046 128.275L371.147 128.214C371.072 127.924 371.095 127.65 371.216 127.393C371.333 127.13 371.533 126.913 371.815 126.743C372.177 126.524 372.533 126.463 372.885 126.56C373.22 126.648 373.49 126.847 373.696 127.158L372.194 128.221C371.705 128.575 371.389 128.967 371.247 129.396C371.11 129.822 371.165 130.237 371.409 130.642C371.58 130.924 371.802 131.133 372.076 131.268C372.347 131.397 372.642 131.449 372.962 131.424ZM374.121 127.857L374.189 127.97C374.348 128.233 374.425 128.513 374.42 128.809C374.421 129.102 374.347 129.381 374.198 129.647C374.049 129.913 373.837 130.129 373.561 130.296C373.291 130.459 373.029 130.525 372.776 130.494C372.523 130.463 372.335 130.346 372.213 130.143C372.083 129.929 372.063 129.715 372.152 129.502C372.243 129.28 372.45 129.054 372.773 128.826L374.121 127.857ZM374.63 124.213L377.414 128.821L378.196 128.348L376.718 125.902C376.51 125.558 376.41 125.234 376.418 124.928C376.422 124.616 376.494 124.341 376.636 124.105C376.78 123.859 376.957 123.673 377.165 123.547C377.361 123.428 377.563 123.361 377.771 123.344C377.985 123.324 378.198 123.379 378.411 123.51C378.624 123.64 378.83 123.871 379.031 124.202L380.643 126.87L381.424 126.397L379.946 123.951C379.735 123.601 379.633 123.273 379.64 122.967C379.644 122.655 379.717 122.381 379.859 122.145C380.001 121.908 380.176 121.727 380.384 121.601C380.587 121.479 380.792 121.41 380.999 121.393C381.207 121.376 381.417 121.433 381.63 121.564C381.843 121.695 382.049 121.926 382.25 122.257L383.861 124.924L384.643 124.452L382.92 121.601C382.668 121.184 382.385 120.882 382.071 120.695C381.757 120.508 381.432 120.42 381.096 120.431C380.759 120.441 380.434 120.541 380.122 120.73C379.815 120.916 379.563 121.143 379.366 121.413C379.169 121.683 379.035 121.973 378.964 122.284C378.935 122.418 378.92 122.553 378.919 122.688C378.676 122.523 378.415 122.425 378.138 122.394C377.707 122.345 377.292 122.441 376.893 122.681C376.63 122.841 376.41 123.045 376.234 123.294C376.054 123.536 375.931 123.803 375.864 124.095C375.834 124.216 375.816 124.339 375.811 124.464L375.384 123.757L374.63 124.213ZM340.209 147.908C339.976 147.574 339.693 147.314 339.361 147.126C338.959 146.904 338.518 146.799 338.037 146.812C337.56 146.831 337.08 146.981 336.596 147.261C336.112 147.54 335.743 147.882 335.488 148.286C335.237 148.696 335.108 149.131 335.1 149.59C335.097 149.971 335.182 150.346 335.355 150.715L336.038 150.319C335.942 150.088 335.894 149.853 335.896 149.614C335.909 149.292 336.006 148.988 336.187 148.701C336.375 148.41 336.646 148.163 336.999 147.958C337.359 147.75 337.709 147.639 338.048 147.625C338.387 147.611 338.697 147.68 338.975 147.833C339.188 147.948 339.371 148.105 339.525 148.303L340.209 147.908ZM333.351 151.609C333.572 151.95 333.846 152.221 334.171 152.42C334.565 152.656 335.002 152.776 335.483 152.78C335.961 152.777 336.446 152.645 336.939 152.382C337.432 152.119 337.813 151.791 338.082 151.396C338.347 150.995 338.492 150.565 338.515 150.106C338.531 149.725 338.46 149.347 338.3 148.973L337.603 149.344C337.692 149.579 337.731 149.815 337.72 150.054C337.697 150.375 337.589 150.676 337.398 150.957C337.2 151.241 336.921 151.479 336.56 151.671C336.193 151.866 335.84 151.965 335.501 151.967C335.161 151.969 334.854 151.889 334.581 151.726C334.372 151.604 334.195 151.441 334.048 151.237L333.351 151.609Z" fill="white"/>
<path d="M190.311 115.631C202.48 77.626 191.537 39.5553 182.115 15.4612C179.711 9.31469 172.661 6.45889 166.723 9.33885C126.11 29.0359 103.493 58.6638 94.2676 81.4006C92.8263 84.9528 93.4635 88.9923 95.8381 92.0018C124.984 128.94 160.831 128.147 182.691 122.775C186.305 121.886 189.176 119.175 190.311 115.631Z" fill="#952AFF"/>
<path d="M190.537 115.606C197.432 94.0752 196.909 72.5236 193.447 53.5038C197.258 83.3442 189.457 138.038 127.766 118.088C148.27 127.817 168.588 126.266 182.908 122.748C186.522 121.86 189.402 119.15 190.537 115.606Z" fill="#B66DFF"/>
<path d="M184.186 20.7644C183.499 18.8827 182.81 17.0686 182.129 15.3274C179.726 9.18082 172.671 6.31199 166.733 9.19193C125.853 29.0182 103.206 58.9059 94.0972 81.7002C110.101 46.0637 166.457 0.842857 184.186 20.7644Z" fill="#D4C5FF"/>
<path fill-rule="evenodd" clip-rule="evenodd" d="M164.199 99.2855C164.83 98.7893 165.44 98.2275 166.028 97.6002C167.889 95.6148 169.089 93.4235 169.626 91.0262C170.138 88.6566 169.994 86.2679 169.195 83.8604C168.369 81.4804 166.881 79.2822 164.73 77.2659C162.579 75.2495 160.289 73.9062 157.861 73.2359C155.407 72.5931 153.014 72.6035 150.682 73.2671C148.325 73.9582 146.215 75.2965 144.354 77.2819C143.766 77.9092 143.245 78.5538 142.79 79.2157L145.881 82.1134C146.277 81.4182 146.775 80.7512 147.374 80.1125C148.666 78.7338 150.134 77.8039 151.776 77.3231C153.42 76.8956 155.106 76.9214 156.832 77.4005C158.587 77.9054 160.25 78.8946 161.822 80.3681C163.421 81.8674 164.515 83.4632 165.105 85.1556C165.694 86.848 165.815 88.5153 165.467 90.1578C165.121 91.8536 164.301 93.3909 163.009 94.7696C162.41 95.4083 161.773 95.9449 161.099 96.3795L164.199 99.2855Z" fill="#D4C5FF"/>
<path fill-rule="evenodd" clip-rule="evenodd" d="M133.724 69.0214C133.075 69.4955 132.446 70.0358 131.836 70.6425C129.907 72.5618 128.632 74.7099 128.011 77.087C127.417 79.4374 127.477 81.8296 128.192 84.2636C128.934 86.6709 130.345 88.9197 132.424 91.0098C134.503 93.0999 136.745 94.5223 139.148 95.2769C141.578 96.0049 143.97 96.078 146.324 95.4962C148.704 94.8877 150.859 93.6238 152.788 91.7046C153.398 91.0979 153.942 90.4716 154.419 89.8256L151.431 86.8218C151.011 87.5031 150.49 88.1526 149.869 88.7703C148.529 90.1032 147.03 90.9812 145.372 91.4045C143.714 91.7743 142.031 91.6897 140.322 91.1507C138.586 90.5849 136.958 89.5383 135.439 88.0109C133.893 86.4567 132.855 84.8237 132.325 83.1118C131.795 81.3999 131.732 79.7293 132.137 78.1C132.543 76.4173 133.415 74.9095 134.755 73.5767C135.376 72.959 136.031 72.4447 136.72 72.0339L133.724 69.0214Z" fill="#D4C5FF"/>
<path d="M303.36 -47.0663C266.443 -31.9143 244.353 0.966212 231.98 23.6865C228.823 29.4825 231.176 36.7159 237.202 39.4063C278.419 57.8072 315.651 56.0433 338.989 48.4669C342.636 47.2832 345.317 44.1953 346.091 40.4409C355.597 -5.64173 331.916 -32.5632 313.732 -45.8334C310.726 -48.0274 306.803 -48.4794 303.36 -47.0663Z" fill="#F64704"/>
<path d="M303.195 -47.2233C282.28 -38.6401 266.124 -24.3669 253.798 -9.47418C274.18 -31.5992 321.057 -60.8364 345.501 -0.784446C339.748 -22.7386 325.482 -37.2886 313.572 -45.9826C310.565 -48.177 306.638 -48.6363 303.195 -47.2233Z" fill="#FF7733"/>
<path d="M234.647 18.6211C233.649 20.3584 232.704 22.0532 231.81 23.695C228.653 29.4908 230.999 36.7364 237.025 39.4269C278.513 57.9486 315.963 56.0401 339.27 48.3378C301.697 59.0301 230.814 45.0122 234.647 18.6211Z" fill="#FFA558"/>
</g>
<defs>
<clipPath id="clip0_3294_3723">
<rect x="0.748047" y="0.314697" width="424" height="276" rx="15" fill="white"/>
</clipPath>
</defs>
</svg>
