<svg width="654" height="276" viewBox="0 0 654 276" fill="none" xmlns="http://www.w3.org/2000/svg">
<rect width="654" height="276" rx="15" fill="white"/>
<path d="M366.774 109.206C350.527 119.489 350.235 99.0943 352.121 87.6113C359.576 58.0471 377.314 53.9338 381.428 54.448C385.541 54.9623 390.425 73.4764 390.425 66.0166C390.425 60.6721 385.679 49.2236 378.81 43.2973C380.179 44.653 380.13 45.8582 380.13 46.4786C380.13 48.2782 379.114 55.2069 352.121 52.122C325.528 49.0831 324.368 41.851 324.368 39.2802C324.531 38.8578 324.603 38.2042 325.07 37.7751C316.365 43.9451 310.802 53.2482 309.121 57.0187C312.048 50.8171 317.47 46.2857 326.927 48.7923C341.066 52.5401 347.236 77.928 346.722 89.668C346.808 98.1517 342.691 116.157 328.469 110.749C346.722 117.69 361.461 113.148 366.774 109.206Z" fill="#952AFF"/>
<path d="M366.786 109.001C350.539 119.284 350.247 98.8889 352.132 87.406C359.588 57.8417 377.326 53.7285 381.44 54.2427C385.553 54.757 390.18 58.356 390.437 65.8113C390.694 73.2666 387.095 96.1467 366.786 109.001Z" fill="#B66DFF"/>
<path d="M328.481 110.543C342.702 115.951 346.819 97.9464 346.734 89.4627C347.248 77.7227 341.078 52.3348 326.939 48.587C317.482 46.0804 312.059 50.6118 309.133 56.8134C306.777 61.8061 306.553 70.4522 306.629 74.8092C306.832 86.3776 313.313 104.775 328.481 110.543Z" fill="#B66DFF"/>
<path d="M352.132 52.1861C379.126 55.2709 380.411 48.0728 380.411 46.2733C380.411 45.6529 380.106 44.5438 378.737 43.1882C376.134 40.6111 372.258 38.1713 356.76 35.4759C340.23 32.6012 328.28 34.8236 325.056 37.7895C324.589 38.2186 324.273 38.6525 324.111 39.0749C324.111 41.6457 325.54 49.1471 352.132 52.1861Z" fill="#B66DFF"/>
<ellipse cx="365.97" cy="75.0165" rx="4.11328" ry="6.94116" transform="rotate(21.7677 365.97 75.0165)" fill="#D4C5FF"/>
<ellipse cx="363.15" cy="45.8217" rx="2.21774" ry="6.34112" transform="rotate(101.69 363.15 45.8217)" fill="#D4C5FF"/>
<ellipse cx="345.154" cy="38.6235" rx="2.21774" ry="6.34112" transform="rotate(101.69 345.154 38.6235)" fill="#D4C5FF"/>
<ellipse cx="335.567" cy="72.0063" rx="4.37036" ry="6.427" transform="rotate(-8.7655 335.567 72.0063)" fill="#D4C5FF"/>
<ellipse cx="334.025" cy="85.3744" rx="4.37036" ry="6.427" transform="rotate(-8.7655 334.025 85.3744)" fill="#D4C5FF"/>
<ellipse cx="331.968" cy="98.2285" rx="4.37036" ry="6.427" transform="rotate(-8.7655 331.968 98.2285)" fill="#D4C5FF"/>
<ellipse cx="315.515" cy="86.9168" rx="4.37036" ry="6.427" transform="rotate(-8.7655 315.515 86.9168)" fill="#D4C5FF"/>
<ellipse cx="317.057" cy="73.5489" rx="4.37036" ry="6.427" transform="rotate(-8.7655 317.057 73.5489)" fill="#D4C5FF"/>
<ellipse cx="318.6" cy="60.1807" rx="4.37036" ry="6.427" transform="rotate(-8.7655 318.6 60.1807)" fill="#D4C5FF"/>
<ellipse cx="382.423" cy="67.8182" rx="4.11328" ry="6.94116" transform="rotate(21.7677 382.423 67.8182)" fill="#D4C5FF"/>
<ellipse cx="378.736" cy="89.0692" rx="3.65365" ry="6.94116" transform="rotate(21.7677 378.736 89.0692)" fill="#D4C5FF"/>
<ellipse cx="362.458" cy="99.0116" rx="3.65365" ry="6.94116" transform="rotate(21.7677 362.458 99.0116)" fill="#D4C5FF"/>
<path d="M450.867 46.8213C472.551 53.9491 510.306 8.8914 488.877 0.999939C509.49 6.29487 518.303 17.9708 520 23.1469C518.711 20.2773 516.901 17.7871 514.4 16.0191C504.604 9.09503 496.033 21.7892 492.971 29.0019C481.339 60.975 494.077 73.3807 501.9 75.5869C504.959 75.9117 507.686 74.8447 510.063 73.0242C503.982 78.9074 495.923 81.2393 491.09 81.8329C490.49 81.9576 489.765 82.0194 488.881 81.9945C489.5 81.9872 490.246 81.9366 491.09 81.8329C492.884 81.4596 493.549 80.5225 493.967 79.66C494.987 76.7749 492.92 69.0439 474.349 59.065C455.777 49.0861 448.073 49.3793 446.542 50.9066C445.786 51.7734 445.089 53.3122 445.553 55.3056C444.633 52.5902 442.835 45.0855 443.012 37.9578C443.198 41.818 445.398 45.0237 450.867 46.8213Z" fill="#4200FF"/>
<path d="M488.857 0.729282C510.439 8.69425 472.413 54.1716 450.574 46.9775C445.066 45.1631 442.829 41.8809 442.642 37.9847C442.233 29.4665 451.619 18.0135 458.025 12.5483C471.18 -0.401229 484.061 -0.726679 488.857 0.729282Z" fill="#2253FF"/>
<path d="M492.711 28.992C480.995 61.263 493.824 73.7842 501.703 76.011C504.784 76.3388 507.531 75.2618 509.925 73.4244C516.918 68.0595 520.913 56.2113 521.487 53.9147C522.101 51.4612 524.992 34.3657 519.933 23.0825C518.635 20.1862 516.812 17.6728 514.293 15.8884C504.427 8.89977 495.794 21.7122 492.711 28.992Z" fill="#2253FF"/>
<path d="M473.955 58.7964C492.659 68.8682 495.28 77.21 494.252 80.122C493.69 81.2832 491.9 82.392 488.343 82.2918C483.767 82.1629 476.269 80.0334 464.705 73.4417C450.923 65.586 446.151 59.2935 445.199 55.1993C444.732 53.1874 445.187 51.7063 445.949 50.8315C447.49 49.2898 455.25 48.7246 473.955 58.7964Z" fill="#2253FF"/>
<ellipse cx="508.754" cy="26.6805" rx="4.11095" ry="6.93723" transform="rotate(3.2528 508.754 26.6805)" fill="#B9C9FF"/>
<ellipse cx="467.635" cy="22.1591" rx="4.11095" ry="6.93723" transform="rotate(45 467.635 22.1591)" fill="#B9C9FF"/>
<ellipse cx="471.869" cy="61.8862" rx="2.22437" ry="6.18546" transform="rotate(120 471.869 61.8862)" fill="#B9C9FF"/>
<ellipse cx="469.375" cy="67.1558" rx="2.22437" ry="6.18546" transform="rotate(120 469.375 67.1558)" fill="#B9C9FF"/>
<ellipse cx="467.32" cy="71.7805" rx="2.22437" ry="6.18546" transform="rotate(120 467.32 71.7805)" fill="#B9C9FF"/>
<ellipse cx="483.249" cy="75.3777" rx="2.22437" ry="6.18546" transform="rotate(120 483.249 75.3777)" fill="#B9C9FF"/>
<ellipse cx="454.473" cy="58.9338" rx="2.22437" ry="6.18546" transform="rotate(120 454.473 58.9338)" fill="#B9C9FF"/>
<ellipse cx="508.24" cy="45.658" rx="4.11095" ry="6.93723" transform="rotate(3.2528 508.24 45.658)" fill="#B9C9FF"/>
<ellipse cx="507.727" cy="64.6712" rx="4.11095" ry="6.93723" transform="rotate(3.2528 507.727 64.6712)" fill="#B9C9FF"/>
<path d="M523.861 138.968C524.145 158.839 513.074 164.517 509.951 162.529C509.597 162.304 509.213 161.979 508.816 161.551C505.714 158.205 501.79 148.506 504.558 129.884C505.575 123.043 507.378 118.856 509.384 116.409C512.304 112.846 515.652 112.977 517.616 113.987C519.603 115.69 523.634 123.071 523.861 138.968Z" fill="#FF7733"/>
<path d="M543.732 124.49C561.616 130.736 568.429 127.14 568.713 123.639C568.713 122.266 568.098 120.717 565.941 118.813C563.193 116.389 557.943 113.389 548.274 109.445C532.748 103.112 522.873 104.957 520.219 107.458C519.923 107.737 519.717 108.025 519.603 108.31C518.467 111.148 519.197 115.923 543.732 124.49Z" fill="#FF7733"/>
<path d="M562.468 132.155C545.435 127.613 532.472 140.86 528.119 148.052C520.455 160.826 523.009 177.007 542.881 177.291C558.777 177.518 568.997 165.274 572.119 159.123C573.047 157.425 573.954 155.257 574.563 152.878C576.499 145.31 575.426 135.611 562.468 132.155Z" fill="#FF7733"/>
<ellipse cx="544.151" cy="115.793" rx="1.99751" ry="5.5546" transform="rotate(110.819 544.151 115.793)" fill="#FFA558"/>
<ellipse cx="559.48" cy="121.47" rx="1.99751" ry="5.5546" transform="rotate(110.819 559.48 121.47)" fill="#FFA558"/>
<ellipse cx="563.875" cy="145.914" rx="5.40144" ry="4.0746" transform="rotate(122.103 563.875 145.914)" fill="#FFA558"/>
<ellipse cx="549.681" cy="155.028" rx="5.40144" ry="4.0746" transform="rotate(122.103 549.681 155.028)" fill="#FFA558"/>
<ellipse cx="536.055" cy="165.248" rx="5.40144" ry="4.0746" transform="rotate(122.103 536.055 165.248)" fill="#FFA558"/>
<ellipse cx="557.062" cy="165.247" rx="5.40144" ry="4.0746" transform="rotate(122.103 557.062 165.247)" fill="#FFA558"/>
<ellipse cx="542.3" cy="144.809" rx="5.40144" ry="4.0746" transform="rotate(122.103 542.3 144.809)" fill="#FFA558"/>
<ellipse cx="512.168" cy="137.855" rx="5.40144" ry="2.13968" transform="rotate(88.2356 512.168 137.855)" fill="#FFA558"/>
<ellipse cx="529.39" cy="109.548" rx="1.99751" ry="5.5546" transform="rotate(110.819 529.39 109.548)" fill="#FFA558"/>
<path d="M509.862 162.481C512.985 164.468 524.056 159.06 523.772 139.189C523.545 123.292 519.514 115.911 517.527 114.208C515.797 112.991 512.422 113.02 509.559 116.252C509.453 116.373 509.358 116.485 509.274 116.587C509.368 116.472 509.463 116.36 509.559 116.252C511.271 114.291 515.704 109.94 520.587 107.159C520.291 107.438 519.893 108.086 519.779 108.371C518.644 111.21 519.243 115.874 543.778 124.442C561.662 130.687 568.34 127.091 568.624 123.59C568.624 122.217 568.009 120.668 565.852 118.764C578.168 128.53 576.855 145.532 574.597 152.818C576.534 145.25 575.337 135.831 562.379 132.376C545.346 127.834 532.383 141.081 528.03 148.273C520.365 161.047 522.92 176.958 542.791 177.242C525.759 177.242 512.985 166.749 508.727 161.502C509.124 161.931 509.508 162.255 509.862 162.481Z" fill="#F64704"/>
</svg>
