<svg width="918" height="386" viewBox="0 0 918 386" fill="none" xmlns="http://www.w3.org/2000/svg">
<rect y="0.191406" width="300" height="225" rx="14.6958" fill="#F2F2F2"/>
<rect x="211" y="108.313" width="9.99388" height="28.3294" rx="4.99694" transform="rotate(90 211 108.313)" fill="#9F9F9F"/>
<rect x="204.043" y="142.051" width="9.99388" height="28.3294" rx="4.99694" transform="rotate(122.678 204.043 142.051)" fill="#CDCDCD"/>
<rect x="179.904" y="166.725" width="9.99388" height="28.3294" rx="4.99694" transform="rotate(155.365 179.904 166.725)" fill="#DFDFDF"/>
<rect x="146.07" y="174.391" width="9.99388" height="28.3294" rx="4.99694" transform="rotate(-171.835 146.07 174.391)" fill="#100F0F"/>
<rect x="113.652" y="162.578" width="9.99388" height="28.3294" rx="4.99694" transform="rotate(-138.957 113.652 162.578)" fill="#100F0F"/>
<rect x="92.7969" y="135.175" width="9.99388" height="28.3294" rx="4.99694" transform="rotate(-106.248 92.7969 135.175)" fill="#100F0F"/>
<rect x="90.0938" y="100.589" width="9.99388" height="28.3294" rx="4.99694" transform="rotate(-73.3182 90.0938 100.589)" fill="#100F0F"/>
<rect x="106.418" y="70.3057" width="9.99388" height="28.3294" rx="4.99694" transform="rotate(-40.6266 106.418 70.3057)" fill="#100F0F"/>
<rect x="136.719" y="53.5352" width="9.99388" height="28.3294" rx="4.99694" transform="rotate(-7.72568 136.719 53.5352)" fill="#100F0F"/>
<rect x="171.148" y="55.8433" width="9.99388" height="28.3294" rx="4.99694" transform="rotate(25.0617 171.148 55.8433)" fill="#383838"/>
<rect x="198.91" y="76.5" width="9.99388" height="28.3294" rx="4.99694" transform="rotate(57.743 198.91 76.5)" fill="#6A6A6A"/>
<rect x="309" y="0.191406" width="300" height="225" rx="14.6958" fill="#100F0F"/>
<rect x="519.508" y="108.086" width="9.95325" height="28.2143" rx="4.97663" transform="rotate(90 519.508 108.086)" fill="#454545"/>
<rect x="512.58" y="141.684" width="9.95325" height="28.2143" rx="4.97663" transform="rotate(122.678 512.58 141.684)" fill="#2E2E2E"/>
<rect x="488.537" y="166.26" width="9.95325" height="28.2143" rx="4.97663" transform="rotate(155.365 488.537 166.26)" fill="#1B1B1B"/>
<rect x="454.844" y="173.894" width="9.95325" height="28.2143" rx="4.97663" transform="rotate(-171.835 454.844 173.894)" fill="white"/>
<rect x="422.559" y="162.125" width="9.95325" height="28.2143" rx="4.97663" transform="rotate(-138.957 422.559 162.125)" fill="white"/>
<rect x="401.785" y="134.835" width="9.95325" height="28.2143" rx="4.97663" transform="rotate(-106.248 401.785 134.835)" fill="white"/>
<rect x="399.094" y="100.391" width="9.95325" height="28.2143" rx="4.97663" transform="rotate(-73.3182 399.094 100.391)" fill="white"/>
<rect x="415.352" y="70.2285" width="9.95325" height="28.2143" rx="4.97663" transform="rotate(-40.6266 415.352 70.2285)" fill="white"/>
<rect x="445.531" y="53.5298" width="9.95325" height="28.2143" rx="4.97663" transform="rotate(-7.72568 445.531 53.5298)" fill="white"/>
<rect x="479.818" y="55.8267" width="9.95325" height="28.2143" rx="4.97663" transform="rotate(25.0617 479.818 55.8267)" fill="#A7A7A7"/>
<rect x="507.467" y="76.4009" width="9.95325" height="28.2143" rx="4.97663" transform="rotate(57.743 507.467 76.4009)" fill="#797979"/>
<rect x="618" y="0.191406" width="300" height="225" rx="14.6958" fill="#4200FF"/>
<rect x="828.506" y="108.086" width="9.95325" height="28.2143" rx="4.97663" transform="rotate(90 828.506 108.086)" fill="#6C38FF"/>
<rect x="821.58" y="141.684" width="9.95325" height="28.2143" rx="4.97663" transform="rotate(122.678 821.58 141.684)" fill="#5F27FF"/>
<rect x="797.537" y="166.26" width="9.95325" height="28.2143" rx="4.97663" transform="rotate(155.365 797.537 166.26)" fill="#5114FF"/>
<rect x="763.844" y="173.894" width="9.95325" height="28.2143" rx="4.97663" transform="rotate(-171.835 763.844 173.894)" fill="white"/>
<rect x="731.559" y="162.125" width="9.95325" height="28.2143" rx="4.97663" transform="rotate(-138.957 731.559 162.125)" fill="white"/>
<rect x="710.783" y="134.835" width="9.95325" height="28.2143" rx="4.97663" transform="rotate(-106.248 710.783 134.835)" fill="white"/>
<rect x="708.092" y="100.391" width="9.95325" height="28.2143" rx="4.97663" transform="rotate(-73.3182 708.092 100.391)" fill="white"/>
<rect x="724.352" y="70.2285" width="9.95325" height="28.2143" rx="4.97663" transform="rotate(-40.6266 724.352 70.2285)" fill="white"/>
<rect x="754.531" y="53.5298" width="9.95325" height="28.2143" rx="4.97663" transform="rotate(-7.72568 754.531 53.5298)" fill="white"/>
<rect x="788.818" y="55.8267" width="9.95325" height="28.2143" rx="4.97663" transform="rotate(25.0617 788.818 55.8267)" fill="#BBA2FF"/>
<rect x="816.467" y="76.4009" width="9.95325" height="28.2143" rx="4.97663" transform="rotate(57.743 816.467 76.4009)" fill="#8F68FF"/>
<rect y="234.191" width="300" height="151" rx="14.6958" fill="#F2F2F2"/>
<path d="M41.7123 322.713C39.7068 322.713 37.9419 322.272 36.4177 321.389C34.8935 320.48 33.7035 319.237 32.8479 317.659C31.9922 316.081 31.5643 314.236 31.5643 312.124C31.5643 310.038 31.9922 308.206 32.8479 306.628C33.7035 305.024 34.8935 303.781 36.4177 302.898C37.9419 302.016 39.7068 301.575 41.7123 301.575C43.2365 301.575 44.6003 301.855 45.8036 302.417C47.0336 302.952 48.0765 303.727 48.9322 304.743C49.8146 305.733 50.4698 306.949 50.8976 308.393L47.9294 309.236H47.4882C47.0336 307.872 46.2849 306.802 45.242 306.027C44.2259 305.225 43.0493 304.824 41.7123 304.824C40.3485 304.824 39.1586 305.131 38.1425 305.746C37.1531 306.361 36.3776 307.217 35.816 308.313C35.2545 309.409 34.9737 310.68 34.9737 312.124C34.9737 313.568 35.2545 314.851 35.816 315.974C36.3776 317.071 37.1531 317.926 38.1425 318.541C39.1586 319.156 40.3485 319.464 41.7123 319.464C42.6482 319.464 43.5039 319.29 44.2794 318.942C45.0548 318.595 45.7234 318.087 46.2849 317.418C46.8732 316.75 47.3278 315.961 47.6487 315.052H48.0899L51.0982 315.894C50.6169 317.338 49.9216 318.581 49.0124 319.624C48.1033 320.64 47.0336 321.416 45.8036 321.951C44.6003 322.459 43.2365 322.713 41.7123 322.713Z" fill="#100F0F"/>
<path d="M89.3428 322.191V302.096H92.6318V307.752L91.6692 307.15C92.0435 306 92.6318 305.011 93.434 304.182C94.2362 303.353 95.1722 302.711 96.2418 302.256C97.3381 301.802 98.5013 301.575 99.7314 301.575C101.175 301.575 102.459 301.882 103.582 302.497C104.732 303.112 105.628 304.021 106.269 305.225C106.911 306.428 107.232 307.939 107.232 309.757V322.191H103.823V310.599C103.823 309.155 103.609 308.019 103.181 307.19C102.753 306.334 102.165 305.733 101.416 305.385C100.694 305.037 99.8651 304.864 98.9292 304.864C97.9131 304.864 96.9237 305.118 95.961 305.626C95.0251 306.107 94.2496 306.842 93.6346 307.832C93.0463 308.821 92.7522 310.051 92.7522 311.522V322.191H89.3428ZM112.493 322.191V302.096H115.782V307.752L114.819 307.15C115.193 306 115.782 305.011 116.584 304.182C117.386 303.353 118.322 302.711 119.392 302.256C120.488 301.802 121.651 301.575 122.881 301.575C124.325 301.575 125.609 301.882 126.732 302.497C127.882 303.112 128.777 304.021 129.419 305.225C130.061 306.428 130.382 307.939 130.382 309.757V322.191H126.972V310.599C126.972 309.155 126.759 308.019 126.331 307.19C125.903 306.334 125.315 305.733 124.566 305.385C123.844 305.037 123.015 304.864 122.079 304.864C121.063 304.864 120.073 305.118 119.111 305.626C118.175 306.107 117.399 306.842 116.784 307.832C116.196 308.821 115.902 310.051 115.902 311.522V322.191H112.493ZM144.427 322.713C142.474 322.713 140.75 322.272 139.252 321.389C137.755 320.48 136.578 319.237 135.723 317.659C134.894 316.081 134.479 314.236 134.479 312.124C134.479 310.038 134.894 308.206 135.723 306.628C136.551 305.024 137.701 303.781 139.172 302.898C140.67 302.016 142.381 301.575 144.306 301.575C146.205 301.575 147.863 302.029 149.28 302.938C150.724 303.821 151.847 305.078 152.649 306.709C153.451 308.34 153.853 310.238 153.853 312.404V312.886L153.251 313.447H136.364V310.279H152.007L150.403 310.92C150.323 309.637 150.002 308.54 149.44 307.631C148.879 306.722 148.157 306.027 147.274 305.546C146.392 305.037 145.403 304.783 144.306 304.783C143.13 304.783 142.047 305.078 141.057 305.666C140.068 306.227 139.292 307.03 138.731 308.072C138.169 309.115 137.888 310.319 137.888 311.682V312.485C137.888 313.822 138.169 315.025 138.731 316.095C139.292 317.137 140.068 317.966 141.057 318.581C142.047 319.196 143.17 319.504 144.427 319.504C145.657 319.504 146.726 319.21 147.635 318.622C148.545 318.007 149.253 317.178 149.761 316.135H150.243L153.05 317.378C152.302 319.036 151.165 320.346 149.641 321.309C148.143 322.245 146.405 322.713 144.427 322.713ZM167.111 322.713C165.105 322.713 163.341 322.272 161.816 321.389C160.292 320.48 159.102 319.237 158.247 317.659C157.391 316.081 156.963 314.236 156.963 312.124C156.963 310.038 157.391 308.206 158.247 306.628C159.102 305.024 160.292 303.781 161.816 302.898C163.341 302.016 165.105 301.575 167.111 301.575C168.635 301.575 169.999 301.855 171.202 302.417C172.432 302.952 173.475 303.727 174.331 304.743C175.213 305.733 175.868 306.949 176.296 308.393L173.328 309.236H172.887C172.432 307.872 171.684 306.802 170.641 306.027C169.625 305.225 168.448 304.824 167.111 304.824C165.747 304.824 164.557 305.131 163.541 305.746C162.552 306.361 161.776 307.217 161.215 308.313C160.653 309.409 160.372 310.68 160.372 312.124C160.372 313.568 160.653 314.851 161.215 315.974C161.776 317.071 162.552 317.926 163.541 318.541C164.557 319.156 165.747 319.464 167.111 319.464C168.047 319.464 168.903 319.29 169.678 318.942C170.454 318.595 171.122 318.087 171.684 317.418C172.272 316.75 172.726 315.961 173.047 315.052H173.489L176.497 315.894C176.016 317.338 175.32 318.581 174.411 319.624C173.502 320.64 172.432 321.416 171.202 321.951C169.999 322.459 168.635 322.713 167.111 322.713ZM187.368 322.191C185.63 322.191 184.213 321.643 183.117 320.547C182.02 319.424 181.472 317.913 181.472 316.014V296.681H184.882V315.734C184.882 316.883 185.136 317.712 185.644 318.22C186.152 318.702 186.967 318.942 188.09 318.942H190.497L190.698 319.384V322.191H187.368ZM178.023 305.305V302.096H190.698V305.305H178.023ZM203.182 322.713C201.23 322.713 199.505 322.272 198.008 321.389C196.511 320.48 195.334 319.237 194.478 317.659C193.649 316.081 193.235 314.236 193.235 312.124C193.235 310.038 193.649 308.206 194.478 306.628C195.307 305.024 196.457 303.781 197.928 302.898C199.425 302.016 201.137 301.575 203.062 301.575C204.961 301.575 206.618 302.029 208.036 302.938C209.48 303.821 210.603 305.078 211.405 306.709C212.207 308.34 212.608 310.238 212.608 312.404V312.886L212.007 313.447H195.12V310.279H210.763L209.159 310.92C209.079 309.637 208.758 308.54 208.196 307.631C207.635 306.722 206.913 306.027 206.03 305.546C205.148 305.037 204.158 304.783 203.062 304.783C201.885 304.783 200.802 305.078 199.813 305.666C198.824 306.227 198.048 307.03 197.487 308.072C196.925 309.115 196.644 310.319 196.644 311.682V312.485C196.644 313.822 196.925 315.025 197.487 316.095C198.048 317.137 198.824 317.966 199.813 318.581C200.802 319.196 201.926 319.504 203.182 319.504C204.412 319.504 205.482 319.21 206.391 318.622C207.3 318.007 208.009 317.178 208.517 316.135H208.998L211.806 317.378C211.057 319.036 209.921 320.346 208.397 321.309C206.899 322.245 205.161 322.713 203.182 322.713ZM223.219 322.713C221.829 322.713 220.586 322.445 219.489 321.911C218.42 321.376 217.577 320.64 216.962 319.705C216.347 318.742 216.04 317.646 216.04 316.415C216.04 314.651 216.668 313.22 217.925 312.124C219.208 311.027 220.973 310.386 223.219 310.198L230.961 309.637V312.685L223.901 313.247C222.431 313.354 221.334 313.675 220.612 314.209C219.917 314.717 219.569 315.439 219.569 316.375C219.569 317.258 219.944 317.993 220.692 318.581C221.441 319.17 222.404 319.464 223.58 319.464C224.784 319.464 225.88 319.183 226.869 318.622C227.859 318.06 228.634 317.311 229.196 316.375C229.784 315.439 230.078 314.397 230.078 313.247V309.998C230.078 308.474 229.597 307.217 228.634 306.227C227.698 305.238 226.442 304.743 224.864 304.743C223.634 304.743 222.578 305.051 221.695 305.666C220.813 306.254 220.211 307.083 219.89 308.153H219.449L216.481 307.19C217.069 305.398 218.099 304.008 219.569 303.019C221.04 302.029 222.818 301.534 224.904 301.534C227.632 301.534 229.731 302.35 231.201 303.981C232.699 305.612 233.448 307.912 233.448 310.88V322.191H230.239V316.335L231.442 316.977C231.121 318.073 230.546 319.063 229.717 319.945C228.915 320.801 227.952 321.483 226.829 321.991C225.733 322.472 224.53 322.713 223.219 322.713ZM238.739 322.191V302.096H242.028V307.671L241.186 306.909C241.56 305.813 242.135 304.877 242.911 304.102C243.686 303.299 244.595 302.684 245.638 302.256C246.681 301.802 247.777 301.575 248.927 301.575C250.665 301.575 252.176 302.069 253.46 303.059C254.743 304.048 255.586 305.479 255.987 307.35L254.583 307.31C254.93 306.161 255.505 305.158 256.308 304.302C257.137 303.446 258.126 302.778 259.276 302.297C260.426 301.815 261.669 301.575 263.006 301.575C264.37 301.575 265.6 301.882 266.696 302.497C267.793 303.112 268.662 304.021 269.303 305.225C269.945 306.428 270.266 307.939 270.266 309.757V322.191H266.857V310.559C266.857 309.115 266.643 307.979 266.215 307.15C265.787 306.321 265.225 305.733 264.53 305.385C263.835 305.037 263.046 304.864 262.164 304.864C261.255 304.864 260.345 305.104 259.436 305.586C258.527 306.067 257.765 306.802 257.15 307.792C256.535 308.754 256.227 309.998 256.227 311.522V322.191H252.818V310.559C252.818 309.115 252.604 307.979 252.176 307.15C251.748 306.321 251.173 305.733 250.451 305.385C249.756 305.037 248.981 304.864 248.125 304.864C247.216 304.864 246.293 305.118 245.357 305.626C244.448 306.107 243.686 306.842 243.071 307.832C242.456 308.794 242.149 310.025 242.149 311.522V322.191H238.739Z" fill="#100F0F"/>
<rect x="84.9805" y="309.888" width="2.5445" height="7.21285" rx="1.27225" transform="rotate(90 84.9805 309.888)" fill="#9F9F9F"/>
<rect x="83.2109" y="318.478" width="2.5445" height="7.21285" rx="1.27225" transform="rotate(122.678 83.2109 318.478)" fill="#CDCDCD"/>
<rect x="77.0625" y="324.76" width="2.5445" height="7.21285" rx="1.27225" transform="rotate(155.365 77.0625 324.76)" fill="#DFDFDF"/>
<rect x="68.4492" y="326.712" width="2.54451" height="7.21285" rx="1.27225" transform="rotate(-171.835 68.4492 326.712)" fill="#100F0F"/>
<rect x="60.1973" y="323.704" width="2.5445" height="7.21285" rx="1.27225" transform="rotate(-138.957 60.1973 323.704)" fill="#100F0F"/>
<rect x="54.8867" y="316.727" width="2.5445" height="7.21285" rx="1.27225" transform="rotate(-106.248 54.8867 316.727)" fill="#100F0F"/>
<rect x="54.1973" y="307.921" width="2.5445" height="7.21285" rx="1.27225" transform="rotate(-73.3182 54.1973 307.921)" fill="#100F0F"/>
<rect x="58.3535" y="300.211" width="2.5445" height="7.21285" rx="1.27225" transform="rotate(-40.6266 58.3535 300.211)" fill="#100F0F"/>
<rect x="66.0684" y="295.94" width="2.54451" height="7.21285" rx="1.27225" transform="rotate(-7.72568 66.0684 295.94)" fill="#100F0F"/>
<rect x="74.8359" y="296.528" width="2.5445" height="7.21285" rx="1.27225" transform="rotate(25.0617 74.8359 296.528)" fill="#383838"/>
<rect x="81.9023" y="301.788" width="2.54451" height="7.21285" rx="1.27225" transform="rotate(57.743 81.9023 301.788)" fill="#6A6A6A"/>
<rect x="309" y="234.191" width="300" height="151" rx="14.6958" fill="#100F0F"/>
<path d="M348.712 321.713C346.707 321.713 344.942 321.272 343.418 320.389C341.893 319.48 340.704 318.237 339.848 316.659C338.992 315.081 338.564 313.236 338.564 311.124C338.564 309.038 338.992 307.206 339.848 305.628C340.704 304.024 341.893 302.781 343.418 301.898C344.942 301.016 346.707 300.575 348.712 300.575C350.237 300.575 351.6 300.855 352.804 301.417C354.034 301.952 355.077 302.727 355.932 303.743C356.815 304.733 357.47 305.949 357.898 307.393L354.929 308.236H354.488C354.034 306.872 353.285 305.802 352.242 305.027C351.226 304.225 350.049 303.824 348.712 303.824C347.349 303.824 346.159 304.131 345.142 304.746C344.153 305.361 343.378 306.217 342.816 307.313C342.254 308.409 341.974 309.68 341.974 311.124C341.974 312.568 342.254 313.851 342.816 314.974C343.378 316.071 344.153 316.926 345.142 317.541C346.159 318.156 347.349 318.464 348.712 318.464C349.648 318.464 350.504 318.29 351.279 317.942C352.055 317.595 352.723 317.087 353.285 316.418C353.873 315.75 354.328 314.961 354.649 314.052H355.09L358.098 314.894C357.617 316.338 356.922 317.581 356.012 318.624C355.103 319.64 354.034 320.416 352.804 320.951C351.6 321.459 350.237 321.713 348.712 321.713Z" fill="white"/>
<path d="M396.343 321.191V301.096H399.632V306.752L398.669 306.15C399.044 305 399.632 304.011 400.434 303.182C401.236 302.353 402.172 301.711 403.242 301.256C404.338 300.802 405.501 300.575 406.731 300.575C408.175 300.575 409.459 300.882 410.582 301.497C411.732 302.112 412.628 303.021 413.269 304.225C413.911 305.428 414.232 306.939 414.232 308.757V321.191H410.823V309.599C410.823 308.155 410.609 307.019 410.181 306.19C409.753 305.334 409.165 304.733 408.416 304.385C407.694 304.037 406.865 303.864 405.929 303.864C404.913 303.864 403.924 304.118 402.961 304.626C402.025 305.107 401.25 305.842 400.635 306.832C400.046 307.821 399.752 309.051 399.752 310.522V321.191H396.343ZM419.493 321.191V301.096H422.782V306.752L421.819 306.15C422.193 305 422.782 304.011 423.584 303.182C424.386 302.353 425.322 301.711 426.392 301.256C427.488 300.802 428.651 300.575 429.881 300.575C431.325 300.575 432.609 300.882 433.732 301.497C434.882 302.112 435.777 303.021 436.419 304.225C437.061 305.428 437.382 306.939 437.382 308.757V321.191H433.972V309.599C433.972 308.155 433.759 307.019 433.331 306.19C432.903 305.334 432.315 304.733 431.566 304.385C430.844 304.037 430.015 303.864 429.079 303.864C428.063 303.864 427.073 304.118 426.111 304.626C425.175 305.107 424.399 305.842 423.784 306.832C423.196 307.821 422.902 309.051 422.902 310.522V321.191H419.493ZM451.427 321.713C449.474 321.713 447.75 321.272 446.252 320.389C444.755 319.48 443.578 318.237 442.723 316.659C441.894 315.081 441.479 313.236 441.479 311.124C441.479 309.038 441.894 307.206 442.723 305.628C443.551 304.024 444.701 302.781 446.172 301.898C447.67 301.016 449.381 300.575 451.306 300.575C453.205 300.575 454.863 301.029 456.28 301.938C457.724 302.821 458.847 304.078 459.649 305.709C460.451 307.34 460.853 309.238 460.853 311.404V311.886L460.251 312.447H443.364V309.279H459.007L457.403 309.92C457.323 308.637 457.002 307.54 456.44 306.631C455.879 305.722 455.157 305.027 454.274 304.546C453.392 304.037 452.403 303.783 451.306 303.783C450.13 303.783 449.047 304.078 448.057 304.666C447.068 305.227 446.292 306.03 445.731 307.072C445.169 308.115 444.888 309.319 444.888 310.682V311.485C444.888 312.822 445.169 314.025 445.731 315.095C446.292 316.137 447.068 316.966 448.057 317.581C449.047 318.196 450.17 318.504 451.427 318.504C452.657 318.504 453.726 318.21 454.635 317.622C455.545 317.007 456.253 316.178 456.761 315.135H457.243L460.05 316.378C459.302 318.036 458.165 319.346 456.641 320.309C455.143 321.245 453.405 321.713 451.427 321.713ZM474.111 321.713C472.105 321.713 470.341 321.272 468.816 320.389C467.292 319.48 466.102 318.237 465.247 316.659C464.391 315.081 463.963 313.236 463.963 311.124C463.963 309.038 464.391 307.206 465.247 305.628C466.102 304.024 467.292 302.781 468.816 301.898C470.341 301.016 472.105 300.575 474.111 300.575C475.635 300.575 476.999 300.855 478.202 301.417C479.432 301.952 480.475 302.727 481.331 303.743C482.213 304.733 482.868 305.949 483.296 307.393L480.328 308.236H479.887C479.432 306.872 478.684 305.802 477.641 305.027C476.625 304.225 475.448 303.824 474.111 303.824C472.747 303.824 471.557 304.131 470.541 304.746C469.552 305.361 468.776 306.217 468.215 307.313C467.653 308.409 467.372 309.68 467.372 311.124C467.372 312.568 467.653 313.851 468.215 314.974C468.776 316.071 469.552 316.926 470.541 317.541C471.557 318.156 472.747 318.464 474.111 318.464C475.047 318.464 475.903 318.29 476.678 317.942C477.454 317.595 478.122 317.087 478.684 316.418C479.272 315.75 479.726 314.961 480.047 314.052H480.489L483.497 314.894C483.016 316.338 482.32 317.581 481.411 318.624C480.502 319.64 479.432 320.416 478.202 320.951C476.999 321.459 475.635 321.713 474.111 321.713ZM494.368 321.191C492.63 321.191 491.213 320.643 490.117 319.547C489.02 318.424 488.472 316.913 488.472 315.014V295.681H491.882V314.734C491.882 315.883 492.136 316.712 492.644 317.22C493.152 317.702 493.967 317.942 495.09 317.942H497.497L497.698 318.384V321.191H494.368ZM485.023 304.305V301.096H497.698V304.305H485.023ZM510.182 321.713C508.23 321.713 506.505 321.272 505.008 320.389C503.511 319.48 502.334 318.237 501.478 316.659C500.649 315.081 500.235 313.236 500.235 311.124C500.235 309.038 500.649 307.206 501.478 305.628C502.307 304.024 503.457 302.781 504.928 301.898C506.425 301.016 508.137 300.575 510.062 300.575C511.961 300.575 513.618 301.029 515.036 301.938C516.48 302.821 517.603 304.078 518.405 305.709C519.207 307.34 519.608 309.238 519.608 311.404V311.886L519.007 312.447H502.12V309.279H517.763L516.159 309.92C516.079 308.637 515.758 307.54 515.196 306.631C514.635 305.722 513.913 305.027 513.03 304.546C512.148 304.037 511.158 303.783 510.062 303.783C508.885 303.783 507.802 304.078 506.813 304.666C505.824 305.227 505.048 306.03 504.487 307.072C503.925 308.115 503.644 309.319 503.644 310.682V311.485C503.644 312.822 503.925 314.025 504.487 315.095C505.048 316.137 505.824 316.966 506.813 317.581C507.802 318.196 508.926 318.504 510.182 318.504C511.412 318.504 512.482 318.21 513.391 317.622C514.3 317.007 515.009 316.178 515.517 315.135H515.998L518.806 316.378C518.057 318.036 516.921 319.346 515.397 320.309C513.899 321.245 512.161 321.713 510.182 321.713ZM530.219 321.713C528.829 321.713 527.586 321.445 526.489 320.911C525.42 320.376 524.577 319.64 523.962 318.705C523.347 317.742 523.04 316.646 523.04 315.415C523.04 313.651 523.668 312.22 524.925 311.124C526.208 310.027 527.973 309.386 530.219 309.198L537.961 308.637V311.685L530.901 312.247C529.431 312.354 528.334 312.675 527.612 313.209C526.917 313.717 526.569 314.439 526.569 315.375C526.569 316.258 526.944 316.993 527.692 317.581C528.441 318.17 529.404 318.464 530.58 318.464C531.784 318.464 532.88 318.183 533.869 317.622C534.859 317.06 535.634 316.311 536.196 315.375C536.784 314.439 537.078 313.397 537.078 312.247V308.998C537.078 307.474 536.597 306.217 535.634 305.227C534.698 304.238 533.442 303.743 531.864 303.743C530.634 303.743 529.578 304.051 528.695 304.666C527.813 305.254 527.211 306.083 526.89 307.153H526.449L523.481 306.19C524.069 304.398 525.099 303.008 526.569 302.019C528.04 301.029 529.818 300.534 531.904 300.534C534.632 300.534 536.731 301.35 538.201 302.981C539.699 304.612 540.448 306.912 540.448 309.88V321.191H537.239V315.335L538.442 315.977C538.121 317.073 537.546 318.063 536.717 318.945C535.915 319.801 534.952 320.483 533.829 320.991C532.733 321.472 531.53 321.713 530.219 321.713ZM545.739 321.191V301.096H549.028V306.671L548.186 305.909C548.56 304.813 549.135 303.877 549.911 303.102C550.686 302.299 551.595 301.684 552.638 301.256C553.681 300.802 554.777 300.575 555.927 300.575C557.665 300.575 559.176 301.069 560.46 302.059C561.743 303.048 562.586 304.479 562.987 306.35L561.583 306.31C561.93 305.161 562.505 304.158 563.308 303.302C564.137 302.446 565.126 301.778 566.276 301.297C567.426 300.815 568.669 300.575 570.006 300.575C571.37 300.575 572.6 300.882 573.696 301.497C574.793 302.112 575.662 303.021 576.303 304.225C576.945 305.428 577.266 306.939 577.266 308.757V321.191H573.857V309.559C573.857 308.115 573.643 306.979 573.215 306.15C572.787 305.321 572.225 304.733 571.53 304.385C570.835 304.037 570.046 303.864 569.164 303.864C568.255 303.864 567.345 304.104 566.436 304.586C565.527 305.067 564.765 305.802 564.15 306.792C563.535 307.754 563.227 308.998 563.227 310.522V321.191H559.818V309.559C559.818 308.115 559.604 306.979 559.176 306.15C558.748 305.321 558.173 304.733 557.451 304.385C556.756 304.037 555.981 303.864 555.125 303.864C554.216 303.864 553.293 304.118 552.357 304.626C551.448 305.107 550.686 305.842 550.071 306.832C549.456 307.794 549.149 309.025 549.149 310.522V321.191H545.739Z" fill="white"/>
<rect x="391.98" y="308.888" width="2.5445" height="7.21285" rx="1.27225" transform="rotate(90 391.98 308.888)" fill="#454545"/>
<rect x="390.211" y="317.478" width="2.5445" height="7.21285" rx="1.27225" transform="rotate(122.678 390.211 317.478)" fill="#2E2E2E"/>
<rect x="384.062" y="323.76" width="2.5445" height="7.21285" rx="1.27225" transform="rotate(155.365 384.062 323.76)" fill="#1B1B1B"/>
<rect x="375.449" y="325.712" width="2.54451" height="7.21285" rx="1.27225" transform="rotate(-171.835 375.449 325.712)" fill="white"/>
<rect x="367.197" y="322.704" width="2.5445" height="7.21285" rx="1.27225" transform="rotate(-138.957 367.197 322.704)" fill="white"/>
<rect x="361.887" y="315.727" width="2.5445" height="7.21285" rx="1.27225" transform="rotate(-106.248 361.887 315.727)" fill="white"/>
<rect x="361.197" y="306.921" width="2.5445" height="7.21285" rx="1.27225" transform="rotate(-73.3182 361.197 306.921)" fill="white"/>
<rect x="365.354" y="299.211" width="2.5445" height="7.21285" rx="1.27225" transform="rotate(-40.6266 365.354 299.211)" fill="white"/>
<rect x="373.068" y="294.94" width="2.54451" height="7.21285" rx="1.27225" transform="rotate(-7.72568 373.068 294.94)" fill="white"/>
<rect x="381.836" y="295.528" width="2.5445" height="7.21285" rx="1.27225" transform="rotate(25.0617 381.836 295.528)" fill="#A7A7A7"/>
<rect x="388.902" y="300.788" width="2.54451" height="7.21285" rx="1.27225" transform="rotate(57.743 388.902 300.788)" fill="#797979"/>
<rect x="618" y="234.191" width="300" height="151" rx="14.6958" fill="#4200FF"/>
<path d="M657.712 321.713C655.707 321.713 653.942 321.272 652.418 320.389C650.893 319.48 649.704 318.237 648.848 316.659C647.992 315.081 647.564 313.236 647.564 311.124C647.564 309.038 647.992 307.206 648.848 305.628C649.704 304.024 650.893 302.781 652.418 301.898C653.942 301.016 655.707 300.575 657.712 300.575C659.237 300.575 660.6 300.855 661.804 301.417C663.034 301.952 664.077 302.727 664.932 303.743C665.815 304.733 666.47 305.949 666.898 307.393L663.929 308.236H663.488C663.034 306.872 662.285 305.802 661.242 305.027C660.226 304.225 659.049 303.824 657.712 303.824C656.349 303.824 655.159 304.131 654.142 304.746C653.153 305.361 652.378 306.217 651.816 307.313C651.254 308.409 650.974 309.68 650.974 311.124C650.974 312.568 651.254 313.851 651.816 314.974C652.378 316.071 653.153 316.926 654.142 317.541C655.159 318.156 656.349 318.464 657.712 318.464C658.648 318.464 659.504 318.29 660.279 317.942C661.055 317.595 661.723 317.087 662.285 316.418C662.873 315.75 663.328 314.961 663.649 314.052H664.09L667.098 314.894C666.617 316.338 665.922 317.581 665.012 318.624C664.103 319.64 663.034 320.416 661.804 320.951C660.6 321.459 659.237 321.713 657.712 321.713Z" fill="white"/>
<path d="M705.343 321.191V301.096H708.632V306.752L707.669 306.15C708.044 305 708.632 304.011 709.434 303.182C710.236 302.353 711.172 301.711 712.242 301.256C713.338 300.802 714.501 300.575 715.731 300.575C717.175 300.575 718.459 300.882 719.582 301.497C720.732 302.112 721.628 303.021 722.269 304.225C722.911 305.428 723.232 306.939 723.232 308.757V321.191H719.823V309.599C719.823 308.155 719.609 307.019 719.181 306.19C718.753 305.334 718.165 304.733 717.416 304.385C716.694 304.037 715.865 303.864 714.929 303.864C713.913 303.864 712.924 304.118 711.961 304.626C711.025 305.107 710.25 305.842 709.635 306.832C709.046 307.821 708.752 309.051 708.752 310.522V321.191H705.343ZM728.493 321.191V301.096H731.782V306.752L730.819 306.15C731.193 305 731.782 304.011 732.584 303.182C733.386 302.353 734.322 301.711 735.392 301.256C736.488 300.802 737.651 300.575 738.881 300.575C740.325 300.575 741.609 300.882 742.732 301.497C743.882 302.112 744.777 303.021 745.419 304.225C746.061 305.428 746.382 306.939 746.382 308.757V321.191H742.972V309.599C742.972 308.155 742.759 307.019 742.331 306.19C741.903 305.334 741.315 304.733 740.566 304.385C739.844 304.037 739.015 303.864 738.079 303.864C737.063 303.864 736.073 304.118 735.111 304.626C734.175 305.107 733.399 305.842 732.784 306.832C732.196 307.821 731.902 309.051 731.902 310.522V321.191H728.493ZM760.427 321.713C758.474 321.713 756.75 321.272 755.252 320.389C753.755 319.48 752.578 318.237 751.723 316.659C750.894 315.081 750.479 313.236 750.479 311.124C750.479 309.038 750.894 307.206 751.723 305.628C752.551 304.024 753.701 302.781 755.172 301.898C756.67 301.016 758.381 300.575 760.306 300.575C762.205 300.575 763.863 301.029 765.28 301.938C766.724 302.821 767.847 304.078 768.649 305.709C769.451 307.34 769.853 309.238 769.853 311.404V311.886L769.251 312.447H752.364V309.279H768.007L766.403 309.92C766.323 308.637 766.002 307.54 765.44 306.631C764.879 305.722 764.157 305.027 763.274 304.546C762.392 304.037 761.403 303.783 760.306 303.783C759.13 303.783 758.047 304.078 757.057 304.666C756.068 305.227 755.292 306.03 754.731 307.072C754.169 308.115 753.888 309.319 753.888 310.682V311.485C753.888 312.822 754.169 314.025 754.731 315.095C755.292 316.137 756.068 316.966 757.057 317.581C758.047 318.196 759.17 318.504 760.427 318.504C761.657 318.504 762.726 318.21 763.635 317.622C764.545 317.007 765.253 316.178 765.761 315.135H766.243L769.05 316.378C768.302 318.036 767.165 319.346 765.641 320.309C764.143 321.245 762.405 321.713 760.427 321.713ZM783.111 321.713C781.105 321.713 779.341 321.272 777.816 320.389C776.292 319.48 775.102 318.237 774.247 316.659C773.391 315.081 772.963 313.236 772.963 311.124C772.963 309.038 773.391 307.206 774.247 305.628C775.102 304.024 776.292 302.781 777.816 301.898C779.341 301.016 781.105 300.575 783.111 300.575C784.635 300.575 785.999 300.855 787.202 301.417C788.432 301.952 789.475 302.727 790.331 303.743C791.213 304.733 791.868 305.949 792.296 307.393L789.328 308.236H788.887C788.432 306.872 787.684 305.802 786.641 305.027C785.625 304.225 784.448 303.824 783.111 303.824C781.747 303.824 780.557 304.131 779.541 304.746C778.552 305.361 777.776 306.217 777.215 307.313C776.653 308.409 776.372 309.68 776.372 311.124C776.372 312.568 776.653 313.851 777.215 314.974C777.776 316.071 778.552 316.926 779.541 317.541C780.557 318.156 781.747 318.464 783.111 318.464C784.047 318.464 784.903 318.29 785.678 317.942C786.454 317.595 787.122 317.087 787.684 316.418C788.272 315.75 788.726 314.961 789.047 314.052H789.489L792.497 314.894C792.016 316.338 791.32 317.581 790.411 318.624C789.502 319.64 788.432 320.416 787.202 320.951C785.999 321.459 784.635 321.713 783.111 321.713ZM803.368 321.191C801.63 321.191 800.213 320.643 799.117 319.547C798.02 318.424 797.472 316.913 797.472 315.014V295.681H800.882V314.734C800.882 315.883 801.136 316.712 801.644 317.22C802.152 317.702 802.967 317.942 804.09 317.942H806.497L806.698 318.384V321.191H803.368ZM794.023 304.305V301.096H806.698V304.305H794.023ZM819.182 321.713C817.23 321.713 815.505 321.272 814.008 320.389C812.511 319.48 811.334 318.237 810.478 316.659C809.649 315.081 809.235 313.236 809.235 311.124C809.235 309.038 809.649 307.206 810.478 305.628C811.307 304.024 812.457 302.781 813.928 301.898C815.425 301.016 817.137 300.575 819.062 300.575C820.961 300.575 822.618 301.029 824.036 301.938C825.48 302.821 826.603 304.078 827.405 305.709C828.207 307.34 828.608 309.238 828.608 311.404V311.886L828.007 312.447H811.12V309.279H826.763L825.159 309.92C825.079 308.637 824.758 307.54 824.196 306.631C823.635 305.722 822.913 305.027 822.03 304.546C821.148 304.037 820.158 303.783 819.062 303.783C817.885 303.783 816.802 304.078 815.813 304.666C814.824 305.227 814.048 306.03 813.487 307.072C812.925 308.115 812.644 309.319 812.644 310.682V311.485C812.644 312.822 812.925 314.025 813.487 315.095C814.048 316.137 814.824 316.966 815.813 317.581C816.802 318.196 817.926 318.504 819.182 318.504C820.412 318.504 821.482 318.21 822.391 317.622C823.3 317.007 824.009 316.178 824.517 315.135H824.998L827.806 316.378C827.057 318.036 825.921 319.346 824.397 320.309C822.899 321.245 821.161 321.713 819.182 321.713ZM839.219 321.713C837.829 321.713 836.586 321.445 835.489 320.911C834.42 320.376 833.577 319.64 832.962 318.705C832.347 317.742 832.04 316.646 832.04 315.415C832.04 313.651 832.668 312.22 833.925 311.124C835.208 310.027 836.973 309.386 839.219 309.198L846.961 308.637V311.685L839.901 312.247C838.431 312.354 837.334 312.675 836.612 313.209C835.917 313.717 835.569 314.439 835.569 315.375C835.569 316.258 835.944 316.993 836.692 317.581C837.441 318.17 838.404 318.464 839.58 318.464C840.784 318.464 841.88 318.183 842.869 317.622C843.859 317.06 844.634 316.311 845.196 315.375C845.784 314.439 846.078 313.397 846.078 312.247V308.998C846.078 307.474 845.597 306.217 844.634 305.227C843.698 304.238 842.442 303.743 840.864 303.743C839.634 303.743 838.578 304.051 837.695 304.666C836.813 305.254 836.211 306.083 835.89 307.153H835.449L832.481 306.19C833.069 304.398 834.099 303.008 835.569 302.019C837.04 301.029 838.818 300.534 840.904 300.534C843.632 300.534 845.731 301.35 847.201 302.981C848.699 304.612 849.448 306.912 849.448 309.88V321.191H846.239V315.335L847.442 315.977C847.121 317.073 846.546 318.063 845.717 318.945C844.915 319.801 843.952 320.483 842.829 320.991C841.733 321.472 840.53 321.713 839.219 321.713ZM854.739 321.191V301.096H858.028V306.671L857.186 305.909C857.56 304.813 858.135 303.877 858.911 303.102C859.686 302.299 860.595 301.684 861.638 301.256C862.681 300.802 863.777 300.575 864.927 300.575C866.665 300.575 868.176 301.069 869.46 302.059C870.743 303.048 871.586 304.479 871.987 306.35L870.583 306.31C870.93 305.161 871.505 304.158 872.308 303.302C873.137 302.446 874.126 301.778 875.276 301.297C876.426 300.815 877.669 300.575 879.006 300.575C880.37 300.575 881.6 300.882 882.696 301.497C883.793 302.112 884.662 303.021 885.303 304.225C885.945 305.428 886.266 306.939 886.266 308.757V321.191H882.857V309.559C882.857 308.115 882.643 306.979 882.215 306.15C881.787 305.321 881.225 304.733 880.53 304.385C879.835 304.037 879.046 303.864 878.164 303.864C877.255 303.864 876.345 304.104 875.436 304.586C874.527 305.067 873.765 305.802 873.15 306.792C872.535 307.754 872.227 308.998 872.227 310.522V321.191H868.818V309.559C868.818 308.115 868.604 306.979 868.176 306.15C867.748 305.321 867.173 304.733 866.451 304.385C865.756 304.037 864.981 303.864 864.125 303.864C863.216 303.864 862.293 304.118 861.357 304.626C860.448 305.107 859.686 305.842 859.071 306.832C858.456 307.794 858.149 309.025 858.149 310.522V321.191H854.739Z" fill="white"/>
<rect x="700.98" y="308.888" width="2.5445" height="7.21285" rx="1.27225" transform="rotate(90 700.98 308.888)" fill="#6C38FF"/>
<rect x="699.211" y="317.478" width="2.5445" height="7.21285" rx="1.27225" transform="rotate(122.678 699.211 317.478)" fill="#5F27FF"/>
<rect x="693.062" y="323.76" width="2.5445" height="7.21285" rx="1.27225" transform="rotate(155.365 693.062 323.76)" fill="#5114FF"/>
<rect x="684.449" y="325.712" width="2.54451" height="7.21285" rx="1.27225" transform="rotate(-171.835 684.449 325.712)" fill="white"/>
<rect x="676.197" y="322.704" width="2.5445" height="7.21285" rx="1.27225" transform="rotate(-138.957 676.197 322.704)" fill="white"/>
<rect x="670.887" y="315.727" width="2.5445" height="7.21285" rx="1.27225" transform="rotate(-106.248 670.887 315.727)" fill="white"/>
<rect x="670.197" y="306.921" width="2.5445" height="7.21285" rx="1.27225" transform="rotate(-73.3182 670.197 306.921)" fill="white"/>
<rect x="674.354" y="299.211" width="2.5445" height="7.21285" rx="1.27225" transform="rotate(-40.6266 674.354 299.211)" fill="white"/>
<rect x="682.068" y="294.94" width="2.54451" height="7.21285" rx="1.27225" transform="rotate(-7.72568 682.068 294.94)" fill="white"/>
<rect x="690.836" y="295.528" width="2.5445" height="7.21285" rx="1.27225" transform="rotate(25.0617 690.836 295.528)" fill="#BBA2FF"/>
<rect x="697.902" y="300.788" width="2.54451" height="7.21285" rx="1.27225" transform="rotate(57.743 697.902 300.788)" fill="#8F68FF"/>
</svg>
