<svg width="919" height="201" viewBox="0 0 919 201" fill="none" xmlns="http://www.w3.org/2000/svg">
<rect width="919" height="37.1581" transform="translate(0 0.191406)" fill="#F2F2F2"/>
<path d="M191.873 25.0326C190.818 25.0326 189.91 24.7976 189.15 24.3276C188.395 23.8576 187.82 23.2001 187.425 22.3551C187.03 21.5051 186.833 20.5226 186.833 19.4076C186.833 18.2926 187.03 17.3126 187.425 16.4676C187.82 15.6176 188.395 14.9576 189.15 14.4876C189.91 14.0176 190.818 13.7826 191.873 13.7826C192.693 13.7826 193.423 13.9251 194.063 14.2101C194.703 14.4951 195.238 14.9026 195.668 15.4326C196.103 15.9576 196.423 16.5801 196.628 17.3001L195.27 17.6601C195.045 16.8351 194.645 16.1951 194.07 15.7401C193.495 15.2851 192.763 15.0576 191.873 15.0576C191.083 15.0576 190.415 15.2401 189.87 15.6051C189.325 15.9701 188.918 16.4826 188.648 17.1426C188.378 17.8026 188.243 18.5726 188.243 19.4526C188.243 20.3176 188.38 21.0726 188.655 21.7176C188.93 22.3626 189.338 22.8651 189.878 23.2251C190.423 23.5801 191.088 23.7576 191.873 23.7576C192.763 23.7576 193.495 23.5301 194.07 23.0751C194.645 22.6201 195.045 21.9801 195.27 21.1551L196.628 21.5151C196.423 22.2351 196.103 22.8601 195.668 23.3901C195.238 23.9151 194.703 24.3201 194.063 24.6051C193.423 24.8901 192.693 25.0326 191.873 25.0326ZM201.723 25.0326C200.928 25.0326 200.235 24.8526 199.645 24.4926C199.06 24.1276 198.61 23.6226 198.295 22.9776C197.98 22.3276 197.823 21.5851 197.823 20.7501C197.823 19.9101 197.983 19.1676 198.303 18.5226C198.623 17.8776 199.078 17.3776 199.668 17.0226C200.258 16.6626 200.943 16.4826 201.723 16.4826C202.518 16.4826 203.21 16.6626 203.8 17.0226C204.39 17.3826 204.843 17.8851 205.158 18.5301C205.473 19.1751 205.63 19.9151 205.63 20.7501C205.63 21.5951 205.47 22.3426 205.15 22.9926C204.835 23.6376 204.383 24.1401 203.793 24.5001C203.203 24.8551 202.513 25.0326 201.723 25.0326ZM201.723 23.7651C202.538 23.7651 203.155 23.4951 203.575 22.9551C204 22.4101 204.213 21.6751 204.213 20.7501C204.213 19.8151 204 19.0826 203.575 18.5526C203.15 18.0176 202.533 17.7501 201.723 17.7501C200.903 17.7501 200.283 18.0201 199.863 18.5601C199.448 19.1001 199.24 19.8301 199.24 20.7501C199.24 21.6851 199.453 22.4226 199.878 22.9626C200.308 23.4976 200.923 23.7651 201.723 23.7651ZM208.766 24.8076H207.431V13.7826H208.766V24.8076ZM214.467 25.0326C213.672 25.0326 212.979 24.8526 212.389 24.4926C211.804 24.1276 211.354 23.6226 211.039 22.9776C210.724 22.3276 210.567 21.5851 210.567 20.7501C210.567 19.9101 210.727 19.1676 211.047 18.5226C211.367 17.8776 211.822 17.3776 212.412 17.0226C213.002 16.6626 213.687 16.4826 214.467 16.4826C215.262 16.4826 215.954 16.6626 216.544 17.0226C217.134 17.3826 217.587 17.8851 217.902 18.5301C218.217 19.1751 218.374 19.9151 218.374 20.7501C218.374 21.5951 218.214 22.3426 217.894 22.9926C217.579 23.6376 217.127 24.1401 216.537 24.5001C215.947 24.8551 215.257 25.0326 214.467 25.0326ZM214.467 23.7651C215.282 23.7651 215.899 23.4951 216.319 22.9551C216.744 22.4101 216.957 21.6751 216.957 20.7501C216.957 19.8151 216.744 19.0826 216.319 18.5526C215.894 18.0176 215.277 17.7501 214.467 17.7501C213.647 17.7501 213.027 18.0201 212.607 18.5601C212.192 19.1001 211.984 19.8301 211.984 20.7501C211.984 21.6851 212.197 22.4226 212.622 22.9626C213.052 23.4976 213.667 23.7651 214.467 23.7651ZM221.908 17.2026C222.133 17.0226 222.398 16.8851 222.703 16.7901C223.008 16.6951 223.316 16.6476 223.626 16.6476C223.821 16.6476 224.013 16.6676 224.203 16.7076V17.9601C223.993 17.9101 223.791 17.8851 223.596 17.8851C223.111 17.8851 222.696 18.0126 222.351 18.2676C221.986 18.5276 221.731 18.8701 221.586 19.2951C221.441 19.7151 221.368 20.1976 221.368 20.7426V24.8076H220.026V16.7076H221.218V17.9901C221.408 17.6601 221.638 17.3976 221.908 17.2026ZM231.864 24.8076H230.507V15.4851L228.474 16.7151V15.2226L230.507 14.0076H231.864V24.8076Z" fill="#4200FF"/>
<path d="M386.873 25.0326C385.818 25.0326 384.91 24.7976 384.15 24.3276C383.395 23.8576 382.82 23.2001 382.425 22.3551C382.03 21.5051 381.833 20.5226 381.833 19.4076C381.833 18.2926 382.03 17.3126 382.425 16.4676C382.82 15.6176 383.395 14.9576 384.15 14.4876C384.91 14.0176 385.818 13.7826 386.873 13.7826C387.693 13.7826 388.423 13.9251 389.063 14.2101C389.703 14.4951 390.238 14.9026 390.668 15.4326C391.103 15.9576 391.423 16.5801 391.628 17.3001L390.27 17.6601C390.045 16.8351 389.645 16.1951 389.07 15.7401C388.495 15.2851 387.763 15.0576 386.873 15.0576C386.083 15.0576 385.415 15.2401 384.87 15.6051C384.325 15.9701 383.918 16.4826 383.648 17.1426C383.378 17.8026 383.243 18.5726 383.243 19.4526C383.243 20.3176 383.38 21.0726 383.655 21.7176C383.93 22.3626 384.338 22.8651 384.878 23.2251C385.423 23.5801 386.088 23.7576 386.873 23.7576C387.763 23.7576 388.495 23.5301 389.07 23.0751C389.645 22.6201 390.045 21.9801 390.27 21.1551L391.628 21.5151C391.423 22.2351 391.103 22.8601 390.668 23.3901C390.238 23.9151 389.703 24.3201 389.063 24.6051C388.423 24.8901 387.693 25.0326 386.873 25.0326ZM396.723 25.0326C395.928 25.0326 395.235 24.8526 394.645 24.4926C394.06 24.1276 393.61 23.6226 393.295 22.9776C392.98 22.3276 392.823 21.5851 392.823 20.7501C392.823 19.9101 392.983 19.1676 393.303 18.5226C393.623 17.8776 394.078 17.3776 394.668 17.0226C395.258 16.6626 395.943 16.4826 396.723 16.4826C397.518 16.4826 398.21 16.6626 398.8 17.0226C399.39 17.3826 399.843 17.8851 400.158 18.5301C400.473 19.1751 400.63 19.9151 400.63 20.7501C400.63 21.5951 400.47 22.3426 400.15 22.9926C399.835 23.6376 399.383 24.1401 398.793 24.5001C398.203 24.8551 397.513 25.0326 396.723 25.0326ZM396.723 23.7651C397.538 23.7651 398.155 23.4951 398.575 22.9551C399 22.4101 399.213 21.6751 399.213 20.7501C399.213 19.8151 399 19.0826 398.575 18.5526C398.15 18.0176 397.533 17.7501 396.723 17.7501C395.903 17.7501 395.283 18.0201 394.863 18.5601C394.448 19.1001 394.24 19.8301 394.24 20.7501C394.24 21.6851 394.453 22.4226 394.878 22.9626C395.308 23.4976 395.923 23.7651 396.723 23.7651ZM403.766 24.8076H402.431V13.7826H403.766V24.8076ZM409.467 25.0326C408.672 25.0326 407.979 24.8526 407.389 24.4926C406.804 24.1276 406.354 23.6226 406.039 22.9776C405.724 22.3276 405.567 21.5851 405.567 20.7501C405.567 19.9101 405.727 19.1676 406.047 18.5226C406.367 17.8776 406.822 17.3776 407.412 17.0226C408.002 16.6626 408.687 16.4826 409.467 16.4826C410.262 16.4826 410.954 16.6626 411.544 17.0226C412.134 17.3826 412.587 17.8851 412.902 18.5301C413.217 19.1751 413.374 19.9151 413.374 20.7501C413.374 21.5951 413.214 22.3426 412.894 22.9926C412.579 23.6376 412.127 24.1401 411.537 24.5001C410.947 24.8551 410.257 25.0326 409.467 25.0326ZM409.467 23.7651C410.282 23.7651 410.899 23.4951 411.319 22.9551C411.744 22.4101 411.957 21.6751 411.957 20.7501C411.957 19.8151 411.744 19.0826 411.319 18.5526C410.894 18.0176 410.277 17.7501 409.467 17.7501C408.647 17.7501 408.027 18.0201 407.607 18.5601C407.192 19.1001 406.984 19.8301 406.984 20.7501C406.984 21.6851 407.197 22.4226 407.622 22.9626C408.052 23.4976 408.667 23.7651 409.467 23.7651ZM416.908 17.2026C417.133 17.0226 417.398 16.8851 417.703 16.7901C418.008 16.6951 418.316 16.6476 418.626 16.6476C418.821 16.6476 419.013 16.6676 419.203 16.7076V17.9601C418.993 17.9101 418.791 17.8851 418.596 17.8851C418.111 17.8851 417.696 18.0126 417.351 18.2676C416.986 18.5276 416.731 18.8701 416.586 19.2951C416.441 19.7151 416.368 20.1976 416.368 20.7426V24.8076H415.026V16.7076H416.218V17.9901C416.408 17.6601 416.638 17.3976 416.908 17.2026ZM425.379 23.5251H430.502V24.8001H423.324L423.332 23.6001L428.124 19.2876C428.499 18.9476 428.762 18.6176 428.912 18.2976C429.062 17.9776 429.137 17.6351 429.137 17.2701C429.137 16.8601 429.042 16.4876 428.852 16.1526C428.662 15.8126 428.402 15.5451 428.072 15.3501C427.742 15.1551 427.372 15.0576 426.962 15.0576C426.542 15.0576 426.162 15.1601 425.822 15.3651C425.482 15.5651 425.214 15.8351 425.019 16.1751C424.829 16.5101 424.737 16.8726 424.742 17.2626H423.377C423.377 16.5926 423.532 15.9951 423.842 15.4701C424.157 14.9401 424.587 14.5276 425.132 14.2326C425.682 13.9326 426.299 13.7826 426.984 13.7826C427.644 13.7826 428.242 13.9376 428.777 14.2476C429.312 14.5526 429.732 14.9726 430.037 15.5076C430.347 16.0376 430.502 16.6301 430.502 17.2851C430.502 17.7451 430.442 18.1476 430.322 18.4926C430.207 18.8326 430.034 19.1476 429.804 19.4376C429.574 19.7226 429.259 20.0426 428.859 20.3976L425.379 23.5251Z" fill="#4200FF"/>
<path d="M580.805 25.0326C579.75 25.0326 578.85 24.7976 578.105 24.3276C577.36 23.8576 576.795 23.2001 576.41 22.3551C576.025 21.5051 575.833 20.5226 575.833 19.4076C575.833 18.2926 576.025 17.3126 576.41 16.4676C576.795 15.6176 577.36 14.9576 578.105 14.4876C578.85 14.0176 579.75 13.7826 580.805 13.7826C581.625 13.7826 582.353 13.9276 582.988 14.2176C583.628 14.5026 584.158 14.9101 584.578 15.4401C585.003 15.9701 585.315 16.6001 585.515 17.3301L584.39 17.6226C584.155 16.7476 583.735 16.0651 583.13 15.5751C582.525 15.0851 581.75 14.8401 580.805 14.8401C579.975 14.8401 579.275 15.0326 578.705 15.4176C578.135 15.8026 577.708 16.3426 577.423 17.0376C577.138 17.7276 576.995 18.5326 576.995 19.4526C576.995 20.3576 577.138 21.1501 577.423 21.8301C577.713 22.5051 578.143 23.0326 578.713 23.4126C579.288 23.7876 579.985 23.9751 580.805 23.9751C581.75 23.9751 582.525 23.7301 583.13 23.2401C583.735 22.7501 584.155 22.0676 584.39 21.1926L585.515 21.4851C585.315 22.2151 585.003 22.8451 584.578 23.3751C584.158 23.9051 583.628 24.3151 582.988 24.6051C582.353 24.8901 581.625 25.0326 580.805 25.0326ZM590.553 25.0326C589.763 25.0326 589.078 24.8526 588.498 24.4926C587.923 24.1276 587.483 23.6226 587.178 22.9776C586.873 22.3326 586.72 21.5901 586.72 20.7501C586.72 19.9051 586.875 19.1601 587.185 18.5151C587.495 17.8701 587.938 17.3701 588.513 17.0151C589.093 16.6601 589.773 16.4826 590.553 16.4826C591.348 16.4826 592.033 16.6626 592.608 17.0226C593.188 17.3826 593.63 17.8851 593.935 18.5301C594.24 19.1751 594.393 19.9151 594.393 20.7501C594.393 21.6001 594.238 22.3476 593.928 22.9926C593.623 23.6376 593.18 24.1401 592.6 24.5001C592.025 24.8551 591.343 25.0326 590.553 25.0326ZM590.553 23.9751C591.138 23.9751 591.63 23.8426 592.03 23.5776C592.43 23.3076 592.728 22.9326 592.923 22.4526C593.123 21.9676 593.223 21.4001 593.223 20.7501C593.223 19.7501 592.995 18.9651 592.54 18.3951C592.09 17.8251 591.428 17.5401 590.553 17.5401C589.673 17.5401 589.008 17.8301 588.558 18.4101C588.113 18.9851 587.89 19.7651 587.89 20.7501C587.89 21.4051 587.99 21.9751 588.19 22.4601C588.395 22.9451 588.695 23.3201 589.09 23.5851C589.49 23.8451 589.978 23.9751 590.553 23.9751ZM597.3 24.8076H596.197V13.7826H597.3V24.8076ZM602.931 25.0326C602.141 25.0326 601.456 24.8526 600.876 24.4926C600.301 24.1276 599.861 23.6226 599.556 22.9776C599.251 22.3326 599.098 21.5901 599.098 20.7501C599.098 19.9051 599.253 19.1601 599.563 18.5151C599.873 17.8701 600.316 17.3701 600.891 17.0151C601.471 16.6601 602.151 16.4826 602.931 16.4826C603.726 16.4826 604.411 16.6626 604.986 17.0226C605.566 17.3826 606.008 17.8851 606.313 18.5301C606.618 19.1751 606.771 19.9151 606.771 20.7501C606.771 21.6001 606.616 22.3476 606.306 22.9926C606.001 23.6376 605.558 24.1401 604.978 24.5001C604.403 24.8551 603.721 25.0326 602.931 25.0326ZM602.931 23.9751C603.516 23.9751 604.008 23.8426 604.408 23.5776C604.808 23.3076 605.106 22.9326 605.301 22.4526C605.501 21.9676 605.601 21.4001 605.601 20.7501C605.601 19.7501 605.373 18.9651 604.918 18.3951C604.468 17.8251 603.806 17.5401 602.931 17.5401C602.051 17.5401 601.386 17.8301 600.936 18.4101C600.491 18.9851 600.268 19.7651 600.268 20.7501C600.268 21.4051 600.368 21.9751 600.568 22.4601C600.773 22.9451 601.073 23.3201 601.468 23.5851C601.868 23.8451 602.356 23.9751 602.931 23.9751ZM610.045 17.2401C610.27 17.0401 610.538 16.8901 610.848 16.7901C611.163 16.6901 611.48 16.6401 611.8 16.6401C612.015 16.6401 612.218 16.6626 612.408 16.7076V17.7426C612.193 17.6926 611.985 17.6676 611.785 17.6676C611.265 17.6676 610.828 17.8151 610.473 18.1101C610.103 18.4001 609.853 18.7701 609.723 19.2201C609.593 19.6701 609.528 20.1851 609.528 20.7651V24.8076H608.425V16.7076H609.415V17.9901C609.59 17.6801 609.8 17.4301 610.045 17.2401ZM619.886 18.1026C620.531 18.0976 621.103 18.2401 621.603 18.5301C622.103 18.8151 622.491 19.2176 622.766 19.7376C623.041 20.2576 623.178 20.8501 623.178 21.5151C623.178 22.1951 623.031 22.8026 622.736 23.3376C622.441 23.8676 622.031 24.2826 621.506 24.5826C620.981 24.8776 620.391 25.0251 619.736 25.0251C619.206 25.0251 618.713 24.9301 618.258 24.7401C617.808 24.5501 617.421 24.2776 617.096 23.9226C616.771 23.5676 616.533 23.1476 616.383 22.6626L617.433 22.3476C617.608 22.8626 617.893 23.2601 618.288 23.5401C618.688 23.8201 619.146 23.9601 619.661 23.9601C620.146 23.9601 620.566 23.8601 620.921 23.6601C621.281 23.4551 621.556 23.1676 621.746 22.7976C621.941 22.4276 622.038 22.0001 622.038 21.5151C622.038 21.0301 621.941 20.6026 621.746 20.2326C621.551 19.8626 621.276 19.5776 620.921 19.3776C620.571 19.1726 620.166 19.0701 619.706 19.0701C619.516 19.0701 619.311 19.0976 619.091 19.1526C618.876 19.2076 618.676 19.2801 618.491 19.3701L617.936 18.4926L621.648 15.0651H616.811V14.0076H623.051V15.0801L619.886 18.1026Z" fill="#4200FF"/>
<path d="M776.805 25.0326C775.75 25.0326 774.85 24.7976 774.105 24.3276C773.36 23.8576 772.795 23.2001 772.41 22.3551C772.025 21.5051 771.833 20.5226 771.833 19.4076C771.833 18.2926 772.025 17.3126 772.41 16.4676C772.795 15.6176 773.36 14.9576 774.105 14.4876C774.85 14.0176 775.75 13.7826 776.805 13.7826C777.625 13.7826 778.353 13.9276 778.988 14.2176C779.628 14.5026 780.158 14.9101 780.578 15.4401C781.003 15.9701 781.315 16.6001 781.515 17.3301L780.39 17.6226C780.155 16.7476 779.735 16.0651 779.13 15.5751C778.525 15.0851 777.75 14.8401 776.805 14.8401C775.975 14.8401 775.275 15.0326 774.705 15.4176C774.135 15.8026 773.708 16.3426 773.423 17.0376C773.138 17.7276 772.995 18.5326 772.995 19.4526C772.995 20.3576 773.138 21.1501 773.423 21.8301C773.713 22.5051 774.143 23.0326 774.713 23.4126C775.288 23.7876 775.985 23.9751 776.805 23.9751C777.75 23.9751 778.525 23.7301 779.13 23.2401C779.735 22.7501 780.155 22.0676 780.39 21.1926L781.515 21.4851C781.315 22.2151 781.003 22.8451 780.578 23.3751C780.158 23.9051 779.628 24.3151 778.988 24.6051C778.353 24.8901 777.625 25.0326 776.805 25.0326ZM786.553 25.0326C785.763 25.0326 785.078 24.8526 784.498 24.4926C783.923 24.1276 783.483 23.6226 783.178 22.9776C782.873 22.3326 782.72 21.5901 782.72 20.7501C782.72 19.9051 782.875 19.1601 783.185 18.5151C783.495 17.8701 783.938 17.3701 784.513 17.0151C785.093 16.6601 785.773 16.4826 786.553 16.4826C787.348 16.4826 788.033 16.6626 788.608 17.0226C789.188 17.3826 789.63 17.8851 789.935 18.5301C790.24 19.1751 790.393 19.9151 790.393 20.7501C790.393 21.6001 790.238 22.3476 789.928 22.9926C789.623 23.6376 789.18 24.1401 788.6 24.5001C788.025 24.8551 787.343 25.0326 786.553 25.0326ZM786.553 23.9751C787.138 23.9751 787.63 23.8426 788.03 23.5776C788.43 23.3076 788.728 22.9326 788.923 22.4526C789.123 21.9676 789.223 21.4001 789.223 20.7501C789.223 19.7501 788.995 18.9651 788.54 18.3951C788.09 17.8251 787.428 17.5401 786.553 17.5401C785.673 17.5401 785.008 17.8301 784.558 18.4101C784.113 18.9851 783.89 19.7651 783.89 20.7501C783.89 21.4051 783.99 21.9751 784.19 22.4601C784.395 22.9451 784.695 23.3201 785.09 23.5851C785.49 23.8451 785.978 23.9751 786.553 23.9751ZM793.3 24.8076H792.197V13.7826H793.3V24.8076ZM798.931 25.0326C798.141 25.0326 797.456 24.8526 796.876 24.4926C796.301 24.1276 795.861 23.6226 795.556 22.9776C795.251 22.3326 795.098 21.5901 795.098 20.7501C795.098 19.9051 795.253 19.1601 795.563 18.5151C795.873 17.8701 796.316 17.3701 796.891 17.0151C797.471 16.6601 798.151 16.4826 798.931 16.4826C799.726 16.4826 800.411 16.6626 800.986 17.0226C801.566 17.3826 802.008 17.8851 802.313 18.5301C802.618 19.1751 802.771 19.9151 802.771 20.7501C802.771 21.6001 802.616 22.3476 802.306 22.9926C802.001 23.6376 801.558 24.1401 800.978 24.5001C800.403 24.8551 799.721 25.0326 798.931 25.0326ZM798.931 23.9751C799.516 23.9751 800.008 23.8426 800.408 23.5776C800.808 23.3076 801.106 22.9326 801.301 22.4526C801.501 21.9676 801.601 21.4001 801.601 20.7501C801.601 19.7501 801.373 18.9651 800.918 18.3951C800.468 17.8251 799.806 17.5401 798.931 17.5401C798.051 17.5401 797.386 17.8301 796.936 18.4101C796.491 18.9851 796.268 19.7651 796.268 20.7501C796.268 21.4051 796.368 21.9751 796.568 22.4601C796.773 22.9451 797.073 23.3201 797.468 23.5851C797.868 23.8451 798.356 23.9751 798.931 23.9751ZM806.045 17.2401C806.27 17.0401 806.538 16.8901 806.848 16.7901C807.163 16.6901 807.48 16.6401 807.8 16.6401C808.015 16.6401 808.218 16.6626 808.408 16.7076V17.7426C808.193 17.6926 807.985 17.6676 807.785 17.6676C807.265 17.6676 806.828 17.8151 806.473 18.1101C806.103 18.4001 805.853 18.7701 805.723 19.2201C805.593 19.6701 805.528 20.1851 805.528 20.7651V24.8076H804.425V16.7076H805.415V17.9901C805.59 17.6801 805.8 17.4301 806.045 17.2401ZM818.698 24.8076H817.588V22.7151H812.533V21.6651L816.148 14.0076H817.386L813.771 21.6651H817.588V18.5151H818.698V21.6651H819.876V22.7151H818.698V24.8076Z" fill="#4200FF"/>
<rect width="919" height="162.925" transform="translate(0 37.3496)" fill="#F2F2F2"/>
<path d="M13.1525 167.315H12.05V156.515H13.1525V161.383H19.1225V156.515H20.2175V167.315H19.1225V162.44H13.1525V167.315ZM23.0461 163.573C23.0911 164.503 23.3436 165.22 23.8036 165.725C24.2636 166.23 24.8961 166.483 25.7011 166.483C26.2761 166.483 26.7811 166.35 27.2161 166.085C27.6511 165.815 27.9936 165.428 28.2436 164.923L29.2711 165.32C28.9511 166.025 28.4811 166.573 27.8611 166.963C27.2411 167.348 26.5361 167.54 25.7461 167.54C24.9661 167.54 24.2836 167.365 23.6986 167.015C23.1136 166.665 22.6611 166.173 22.3411 165.538C22.0261 164.898 21.8686 164.153 21.8686 163.303C21.8686 162.428 22.0236 161.665 22.3336 161.015C22.6486 160.365 23.0936 159.865 23.6686 159.515C24.2486 159.165 24.9261 158.99 25.7011 158.99C26.4761 158.99 27.1411 159.165 27.6961 159.515C28.2561 159.86 28.6836 160.36 28.9786 161.015C29.2786 161.665 29.4286 162.44 29.4286 163.34V163.573H23.0461ZM25.7311 160.003C24.9561 160.003 24.3386 160.23 23.8786 160.685C23.4236 161.14 23.1536 161.795 23.0686 162.65H28.2736C28.1936 161.775 27.9386 161.115 27.5086 160.67C27.0786 160.225 26.4861 160.003 25.7311 160.003ZM31.2275 167.315H29.9L33.065 163.22L29.9675 159.215H31.2875L33.71 162.373L36.11 159.215H37.43L34.3325 163.22L37.505 167.315H36.1775L33.71 164.068L31.2275 167.315Z" fill="#100F0F"/>
<rect x="185.828" y="58.3496" width="139" height="95" rx="5.67161" fill="#FBFBFB"/>
<path d="M190.006 177.342H188.911L189.781 174.095H186.728L187.006 173.037H190.066L190.703 170.63H187.651L187.936 169.572H190.996L191.798 166.55H192.901L192.083 169.572H194.596L195.398 166.55H196.501L195.683 169.572H198.736L198.451 170.63H195.406L194.753 173.037H197.806L197.521 174.095H194.476L193.606 177.342H192.511L193.373 174.095H190.876L190.006 177.342ZM191.806 170.63L191.161 173.037H193.666L194.303 170.63H191.806ZM201.794 177.35H200.692V166.55H206.894V167.652H201.794V171.402H205.994V172.497H201.794V177.35ZM214.16 171.62C214.73 171.865 215.17 172.222 215.48 172.692C215.795 173.157 215.953 173.7 215.953 174.32C215.953 174.935 215.82 175.472 215.555 175.932C215.29 176.387 214.918 176.737 214.438 176.982C213.958 177.227 213.4 177.35 212.765 177.35H208.25V166.55H212.42C213.01 166.55 213.533 166.675 213.988 166.925C214.443 167.17 214.795 167.505 215.045 167.93C215.3 168.355 215.428 168.822 215.428 169.332C215.428 169.822 215.313 170.27 215.083 170.675C214.858 171.08 214.55 171.395 214.16 171.62ZM209.36 167.592V171.155H212.413C212.758 171.155 213.073 171.077 213.358 170.922C213.643 170.762 213.868 170.542 214.033 170.262C214.203 169.982 214.288 169.667 214.288 169.317C214.288 168.982 214.208 168.685 214.048 168.425C213.888 168.16 213.665 167.955 213.38 167.81C213.095 167.665 212.773 167.592 212.413 167.592H209.36ZM212.495 176.292C212.935 176.292 213.33 176.215 213.68 176.06C214.03 175.9 214.305 175.672 214.505 175.377C214.71 175.082 214.813 174.735 214.813 174.335C214.813 173.94 214.72 173.58 214.535 173.255C214.35 172.93 214.098 172.672 213.778 172.482C213.458 172.292 213.098 172.197 212.698 172.197H209.36V176.292H212.495ZM218.552 177.35H217.449V166.55H223.652V167.652H218.552V171.402H222.752V172.497H218.552V177.35ZM230.918 171.62C231.488 171.865 231.928 172.222 232.238 172.692C232.553 173.157 232.711 173.7 232.711 174.32C232.711 174.935 232.578 175.472 232.313 175.932C232.048 176.387 231.676 176.737 231.196 176.982C230.716 177.227 230.158 177.35 229.523 177.35H225.008V166.55H229.178C229.768 166.55 230.291 166.675 230.746 166.925C231.201 167.17 231.553 167.505 231.803 167.93C232.058 168.355 232.186 168.822 232.186 169.332C232.186 169.822 232.071 170.27 231.841 170.675C231.616 171.08 231.308 171.395 230.918 171.62ZM226.118 167.592V171.155H229.171C229.516 171.155 229.831 171.077 230.116 170.922C230.401 170.762 230.626 170.542 230.791 170.262C230.961 169.982 231.046 169.667 231.046 169.317C231.046 168.982 230.966 168.685 230.806 168.425C230.646 168.16 230.423 167.955 230.138 167.81C229.853 167.665 229.531 167.592 229.171 167.592H226.118ZM229.253 176.292C229.693 176.292 230.088 176.215 230.438 176.06C230.788 175.9 231.063 175.672 231.263 175.377C231.468 175.082 231.571 174.735 231.571 174.335C231.571 173.94 231.478 173.58 231.293 173.255C231.108 172.93 230.856 172.672 230.536 172.482C230.216 172.292 229.856 172.197 229.456 172.197H226.118V176.292H229.253ZM235.31 177.35H234.207V166.55H240.41V167.652H235.31V171.402H239.51V172.497H235.31V177.35ZM247.676 171.62C248.246 171.865 248.686 172.222 248.996 172.692C249.311 173.157 249.468 173.7 249.468 174.32C249.468 174.935 249.336 175.472 249.071 175.932C248.806 176.387 248.433 176.737 247.953 176.982C247.473 177.227 246.916 177.35 246.281 177.35H241.766V166.55H245.936C246.526 166.55 247.048 166.675 247.503 166.925C247.958 167.17 248.311 167.505 248.561 167.93C248.816 168.355 248.943 168.822 248.943 169.332C248.943 169.822 248.828 170.27 248.598 170.675C248.373 171.08 248.066 171.395 247.676 171.62ZM242.876 167.592V171.155H245.928C246.273 171.155 246.588 171.077 246.873 170.922C247.158 170.762 247.383 170.542 247.548 170.262C247.718 169.982 247.803 169.667 247.803 169.317C247.803 168.982 247.723 168.685 247.563 168.425C247.403 168.16 247.181 167.955 246.896 167.81C246.611 167.665 246.288 167.592 245.928 167.592H242.876ZM246.011 176.292C246.451 176.292 246.846 176.215 247.196 176.06C247.546 175.9 247.821 175.672 248.021 175.377C248.226 175.082 248.328 174.735 248.328 174.335C248.328 173.94 248.236 173.58 248.051 173.255C247.866 172.93 247.613 172.672 247.293 172.482C246.973 172.292 246.613 172.197 246.213 172.197H242.876V176.292H246.011Z" fill="#100F0F"/>
<rect x="380.719" y="58.8496" width="138" height="94" rx="5.17161" fill="#F2F2F2"/>
<rect x="380.719" y="58.8496" width="138" height="94" rx="5.17161" stroke="#D3D3D3"/>
<path d="M384.396 177.342H383.301L384.171 174.095H381.119L381.396 173.037H384.456L385.094 170.63H382.041L382.326 169.572H385.386L386.189 166.55H387.291L386.474 169.572H388.986L389.789 166.55H390.891L390.074 169.572H393.126L392.841 170.63H389.796L389.144 173.037H392.196L391.911 174.095H388.866L387.996 177.342H386.901L387.764 174.095H385.266L384.396 177.342ZM386.196 170.63L385.551 173.037H388.056L388.694 170.63H386.196ZM396.185 177.35H395.082V166.55H401.285V167.652H396.185V171.402H400.385V172.497H396.185V177.35ZM404.021 176.285H409.391V177.342H402.341L402.348 176.337L407.231 171.927C407.626 171.572 407.898 171.225 408.048 170.885C408.198 170.545 408.273 170.172 408.273 169.767C408.273 169.327 408.168 168.927 407.958 168.567C407.753 168.202 407.471 167.915 407.111 167.705C406.751 167.49 406.353 167.382 405.918 167.382C405.468 167.382 405.061 167.492 404.696 167.712C404.331 167.927 404.043 168.217 403.833 168.582C403.628 168.947 403.528 169.34 403.533 169.76H402.408C402.408 169.115 402.561 168.53 402.866 168.005C403.176 167.48 403.598 167.07 404.133 166.775C404.673 166.475 405.273 166.325 405.933 166.325C406.578 166.325 407.163 166.477 407.688 166.782C408.218 167.087 408.633 167.505 408.933 168.035C409.238 168.56 409.391 169.14 409.391 169.775C409.391 170.22 409.336 170.612 409.226 170.952C409.121 171.287 408.958 171.6 408.738 171.89C408.523 172.18 408.231 172.49 407.861 172.82L404.021 176.285ZM412.298 177.35H411.196V166.55H417.398V167.652H412.298V171.402H416.498V172.497H412.298V177.35ZM420.134 176.285H425.504V177.342H418.454L418.462 176.337L423.344 171.927C423.739 171.572 424.012 171.225 424.162 170.885C424.312 170.545 424.387 170.172 424.387 169.767C424.387 169.327 424.282 168.927 424.072 168.567C423.867 168.202 423.584 167.915 423.224 167.705C422.864 167.49 422.467 167.382 422.032 167.382C421.582 167.382 421.174 167.492 420.809 167.712C420.444 167.927 420.157 168.217 419.947 168.582C419.742 168.947 419.642 169.34 419.647 169.76H418.522C418.522 169.115 418.674 168.53 418.979 168.005C419.289 167.48 419.712 167.07 420.247 166.775C420.787 166.475 421.387 166.325 422.047 166.325C422.692 166.325 423.277 166.477 423.802 166.782C424.332 167.087 424.747 167.505 425.047 168.035C425.352 168.56 425.504 169.14 425.504 169.775C425.504 170.22 425.449 170.612 425.339 170.952C425.234 171.287 425.072 171.6 424.852 171.89C424.637 172.18 424.344 172.49 423.974 172.82L420.134 176.285ZM428.411 177.35H427.309V166.55H433.511V167.652H428.411V171.402H432.611V172.497H428.411V177.35ZM436.247 176.285H441.617V177.342H434.567L434.575 176.337L439.457 171.927C439.852 171.572 440.125 171.225 440.275 170.885C440.425 170.545 440.5 170.172 440.5 169.767C440.5 169.327 440.395 168.927 440.185 168.567C439.98 168.202 439.697 167.915 439.337 167.705C438.977 167.49 438.58 167.382 438.145 167.382C437.695 167.382 437.287 167.492 436.922 167.712C436.557 167.927 436.27 168.217 436.06 168.582C435.855 168.947 435.755 169.34 435.76 169.76H434.635C434.635 169.115 434.787 168.53 435.092 168.005C435.402 167.48 435.825 167.07 436.36 166.775C436.9 166.475 437.5 166.325 438.16 166.325C438.805 166.325 439.39 166.477 439.915 166.782C440.445 167.087 440.86 167.505 441.16 168.035C441.465 168.56 441.617 169.14 441.617 169.775C441.617 170.22 441.562 170.612 441.452 170.952C441.347 171.287 441.185 171.6 440.965 171.89C440.75 172.18 440.457 172.49 440.087 172.82L436.247 176.285Z" fill="#100F0F"/>
<rect x="574.609" y="58.3496" width="139" height="95" rx="5.67161" fill="#E2E2E2"/>
<path d="M578.787 177.342H577.692L578.562 174.095H575.509L575.787 173.037H578.847L579.484 170.63H576.432L576.717 169.572H579.777L580.579 166.55H581.682L580.864 169.572H583.377L584.179 166.55H585.282L584.464 169.572H587.517L587.232 170.63H584.187L583.534 173.037H586.587L586.302 174.095H583.257L582.387 177.342H581.292L582.154 174.095H579.657L578.787 177.342ZM580.587 170.63L579.942 173.037H582.447L583.084 170.63H580.587ZM596.223 177.35H589.473V166.55H596.223V167.607H590.575V171.342H595.323V172.4H590.575V176.292H596.223V177.35ZM599.408 176.285H604.778V177.342H597.728L597.735 176.337L602.618 171.927C603.013 171.572 603.285 171.225 603.435 170.885C603.585 170.545 603.66 170.172 603.66 169.767C603.66 169.327 603.555 168.927 603.345 168.567C603.14 168.202 602.858 167.915 602.498 167.705C602.138 167.49 601.74 167.382 601.305 167.382C600.855 167.382 600.448 167.492 600.083 167.712C599.718 167.927 599.43 168.217 599.22 168.582C599.015 168.947 598.915 169.34 598.92 169.76H597.795C597.795 169.115 597.948 168.53 598.253 168.005C598.563 167.48 598.985 167.07 599.52 166.775C600.06 166.475 600.66 166.325 601.32 166.325C601.965 166.325 602.55 166.477 603.075 166.782C603.605 167.087 604.02 167.505 604.32 168.035C604.625 168.56 604.778 169.14 604.778 169.775C604.778 170.22 604.723 170.612 604.613 170.952C604.508 171.287 604.345 171.6 604.125 171.89C603.91 172.18 603.618 172.49 603.248 172.82L599.408 176.285ZM613.332 177.35H606.582V166.55H613.332V167.607H607.685V171.342H612.432V172.4H607.685V176.292H613.332V177.35ZM616.517 176.285H621.887V177.342H614.837L614.844 176.337L619.727 171.927C620.122 171.572 620.394 171.225 620.544 170.885C620.694 170.545 620.769 170.172 620.769 169.767C620.769 169.327 620.664 168.927 620.454 168.567C620.249 168.202 619.967 167.915 619.607 167.705C619.247 167.49 618.849 167.382 618.414 167.382C617.964 167.382 617.557 167.492 617.192 167.712C616.827 167.927 616.539 168.217 616.329 168.582C616.124 168.947 616.024 169.34 616.029 169.76H614.904C614.904 169.115 615.057 168.53 615.362 168.005C615.672 167.48 616.094 167.07 616.629 166.775C617.169 166.475 617.769 166.325 618.429 166.325C619.074 166.325 619.659 166.477 620.184 166.782C620.714 167.087 621.129 167.505 621.429 168.035C621.734 168.56 621.887 169.14 621.887 169.775C621.887 170.22 621.832 170.612 621.722 170.952C621.617 171.287 621.454 171.6 621.234 171.89C621.019 172.18 620.727 172.49 620.357 172.82L616.517 176.285ZM630.442 177.35H623.692V166.55H630.442V167.607H624.794V171.342H629.542V172.4H624.794V176.292H630.442V177.35ZM633.626 176.285H638.996V177.342H631.946L631.954 176.337L636.836 171.927C637.231 171.572 637.504 171.225 637.654 170.885C637.804 170.545 637.879 170.172 637.879 169.767C637.879 169.327 637.774 168.927 637.564 168.567C637.359 168.202 637.076 167.915 636.716 167.705C636.356 167.49 635.959 167.382 635.524 167.382C635.074 167.382 634.666 167.492 634.301 167.712C633.936 167.927 633.649 168.217 633.439 168.582C633.234 168.947 633.134 169.34 633.139 169.76H632.014C632.014 169.115 632.166 168.53 632.471 168.005C632.781 167.48 633.204 167.07 633.739 166.775C634.279 166.475 634.879 166.325 635.539 166.325C636.184 166.325 636.769 166.477 637.294 166.782C637.824 167.087 638.239 167.505 638.539 168.035C638.844 168.56 638.996 169.14 638.996 169.775C638.996 170.22 638.941 170.612 638.831 170.952C638.726 171.287 638.564 171.6 638.344 171.89C638.129 172.18 637.836 172.49 637.466 172.82L633.626 176.285Z" fill="#100F0F"/>
<rect x="769" y="58.3496" width="139" height="95" rx="5.67161" fill="#100F0F"/>
<path d="M773.178 177.342H772.083L772.953 174.095H769.9L770.178 173.037H773.237L773.875 170.63H770.823L771.108 169.572H774.168L774.97 166.55H776.073L775.255 169.572H777.768L778.57 166.55H779.673L778.855 169.572H781.908L781.623 170.63H778.578L777.925 173.037H780.978L780.693 174.095H777.647L776.778 177.342H775.683L776.545 174.095H774.048L773.178 177.342ZM774.978 170.63L774.333 173.037H776.838L777.475 170.63H774.978ZM786.863 177.35H785.746V167.78L783.713 169.002V167.765L785.746 166.55H786.863V177.35ZM793.233 177.575C792.573 177.575 791.973 177.422 791.433 177.117C790.898 176.807 790.476 176.385 790.166 175.85C789.861 175.31 789.708 174.71 789.708 174.05V169.85C789.708 169.19 789.861 168.592 790.166 168.057C790.476 167.517 790.898 167.095 791.433 166.79C791.973 166.48 792.573 166.325 793.233 166.325C793.893 166.325 794.491 166.48 795.026 166.79C795.566 167.095 795.988 167.517 796.293 168.057C796.603 168.592 796.758 169.19 796.758 169.85V174.05C796.758 174.71 796.603 175.31 796.293 175.85C795.988 176.385 795.566 176.807 795.026 177.117C794.491 177.422 793.893 177.575 793.233 177.575ZM793.233 176.51C793.668 176.51 794.071 176.402 794.441 176.187C794.811 175.972 795.103 175.68 795.318 175.31C795.533 174.94 795.641 174.537 795.641 174.102V169.797C795.641 169.357 795.533 168.955 795.318 168.59C795.103 168.22 794.811 167.927 794.441 167.712C794.071 167.492 793.668 167.382 793.233 167.382C792.798 167.382 792.396 167.492 792.026 167.712C791.656 167.927 791.363 168.22 791.148 168.59C790.933 168.955 790.826 169.357 790.826 169.797V174.102C790.826 174.537 790.933 174.94 791.148 175.31C791.363 175.68 791.656 175.972 792.026 176.187C792.396 176.402 792.798 176.51 793.233 176.51ZM802.388 177.575C801.728 177.575 801.128 177.422 800.588 177.117C800.053 176.807 799.631 176.385 799.321 175.85C799.016 175.31 798.863 174.71 798.863 174.05V169.85C798.863 169.19 799.016 168.592 799.321 168.057C799.631 167.517 800.053 167.095 800.588 166.79C801.128 166.48 801.728 166.325 802.388 166.325C803.048 166.325 803.646 166.48 804.181 166.79C804.721 167.095 805.143 167.517 805.448 168.057C805.758 168.592 805.913 169.19 805.913 169.85V174.05C805.913 174.71 805.758 175.31 805.448 175.85C805.143 176.385 804.721 176.807 804.181 177.117C803.646 177.422 803.048 177.575 802.388 177.575ZM802.388 176.51C802.823 176.51 803.226 176.402 803.596 176.187C803.966 175.972 804.258 175.68 804.473 175.31C804.688 174.94 804.796 174.537 804.796 174.102V169.797C804.796 169.357 804.688 168.955 804.473 168.59C804.258 168.22 803.966 167.927 803.596 167.712C803.226 167.492 802.823 167.382 802.388 167.382C801.953 167.382 801.551 167.492 801.181 167.712C800.811 167.927 800.518 168.22 800.303 168.59C800.088 168.955 799.981 169.357 799.981 169.797V174.102C799.981 174.537 800.088 174.94 800.303 175.31C800.518 175.68 800.811 175.972 801.181 176.187C801.551 176.402 801.953 176.51 802.388 176.51ZM809.121 177.35H808.019V166.55H814.221V167.652H809.121V171.402H813.321V172.497H809.121V177.35ZM819.102 177.575C818.442 177.575 817.842 177.422 817.302 177.117C816.767 176.807 816.345 176.385 816.035 175.85C815.73 175.31 815.577 174.71 815.577 174.05V169.85C815.577 169.19 815.73 168.592 816.035 168.057C816.345 167.517 816.767 167.095 817.302 166.79C817.842 166.48 818.442 166.325 819.102 166.325C819.762 166.325 820.36 166.48 820.895 166.79C821.435 167.095 821.857 167.517 822.162 168.057C822.472 168.592 822.627 169.19 822.627 169.85V174.05C822.627 174.71 822.472 175.31 822.162 175.85C821.857 176.385 821.435 176.807 820.895 177.117C820.36 177.422 819.762 177.575 819.102 177.575ZM819.102 176.51C819.537 176.51 819.94 176.402 820.31 176.187C820.68 175.972 820.972 175.68 821.187 175.31C821.402 174.94 821.51 174.537 821.51 174.102V169.797C821.51 169.357 821.402 168.955 821.187 168.59C820.972 168.22 820.68 167.927 820.31 167.712C819.94 167.492 819.537 167.382 819.102 167.382C818.667 167.382 818.265 167.492 817.895 167.712C817.525 167.927 817.232 168.22 817.017 168.59C816.802 168.955 816.695 169.357 816.695 169.797V174.102C816.695 174.537 816.802 174.94 817.017 175.31C817.232 175.68 817.525 175.972 817.895 176.187C818.265 176.402 818.667 176.51 819.102 176.51ZM825.835 177.35H824.733V166.55H830.935V167.652H825.835V171.402H830.035V172.497H825.835V177.35Z" fill="#100F0F"/>
<path d="M0 37.3486H919" stroke="#100F0F"/>
</svg>
