<svg width="609" height="226" viewBox="0 0 609 226" fill="none" xmlns="http://www.w3.org/2000/svg">
<g clip-path="url(#clip0_689_1572)">
<rect y="0.191406" width="300" height="225" rx="14.6958" fill="#F2F2F2"/>
<rect x="141.252" y="173.306" width="9.99388" height="28.3294" rx="4.99694" transform="rotate(-167.055 141.252 173.306)" fill="#9F9F9F"/>
<rect x="109.932" y="158.969" width="9.99388" height="28.3294" rx="4.99694" transform="rotate(-134.378 109.932 158.969)" fill="#CDCDCD"/>
<rect x="91.293" y="129.915" width="9.99388" height="28.3294" rx="4.99694" transform="rotate(-101.691 91.293 129.915)" fill="#DFDFDF"/>
<rect x="91.4004" y="95.2236" width="9.99388" height="28.3294" rx="4.99694" transform="rotate(-68.8897 91.4004 95.2236)" fill="#100F0F"/>
<rect x="110.174" y="66.2764" width="9.99388" height="28.3294" rx="4.99694" transform="rotate(-36.0118 110.174 66.2764)" fill="#100F0F"/>
<rect x="141.553" y="52.0879" width="9.99388" height="28.3294" rx="4.99694" transform="rotate(-3.30343 141.553 52.0879)" fill="#100F0F"/>
<rect x="175.865" y="57.2021" width="9.99388" height="28.3294" rx="4.99694" transform="rotate(29.6266 175.865 57.2021)" fill="#100F0F"/>
<rect x="201.723" y="79.8945" width="9.99388" height="28.3294" rx="4.99694" transform="rotate(62.3182 201.723 79.8945)" fill="#100F0F"/>
<rect x="211.279" y="113.184" width="9.99388" height="28.3294" rx="4.99694" transform="rotate(95.2191 211.279 113.184)" fill="#100F0F"/>
<rect x="201.318" y="146.221" width="9.99388" height="28.3294" rx="4.99694" transform="rotate(128.006 201.318 146.221)" fill="#383838"/>
<rect x="174.967" y="168.649" width="9.99388" height="28.3294" rx="4.99694" transform="rotate(160.688 174.967 168.649)" fill="#6A6A6A"/>
<path fill-rule="evenodd" clip-rule="evenodd" d="M281.539 185.23C282.006 184.764 282.006 184.008 281.539 183.541C281.073 183.075 280.316 183.075 279.85 183.541L269.944 193.447L260.039 183.541C259.573 183.075 258.816 183.075 258.35 183.541C257.883 184.008 257.883 184.764 258.35 185.23L268.255 195.136L258.35 205.041C257.883 205.508 257.883 206.264 258.35 206.73C258.816 207.197 259.573 207.197 260.039 206.73L269.944 196.825L279.85 206.73C280.316 207.197 281.073 207.197 281.539 206.73C282.006 206.264 282.006 205.508 281.539 205.041L271.634 195.136L281.539 185.23Z" fill="#FF0000"/>
</g>
<g clip-path="url(#clip1_689_1572)">
<rect x="309" y="0.191406" width="300" height="225" rx="14.6958" fill="#100F0F"/>
<path d="M368.325 176.404C366.563 177.362 364.802 177.817 363.041 177.77C361.268 177.699 359.629 177.175 358.123 176.197C356.618 175.22 355.361 173.803 354.352 171.947C353.356 170.115 352.857 168.301 352.855 166.507C352.84 164.688 353.292 163.027 354.209 161.524C355.127 160.021 356.467 158.79 358.229 157.832C359.568 157.104 360.9 156.7 362.226 156.618C363.562 156.501 364.848 156.684 366.085 157.168C367.333 157.616 368.49 158.372 369.556 159.436L367.35 161.594L366.963 161.804C365.912 160.823 364.743 160.241 363.456 160.058C362.181 159.839 360.955 160.048 359.781 160.687C358.583 161.338 357.684 162.177 357.085 163.202C356.51 164.215 356.237 165.337 356.267 166.569C356.298 167.8 356.658 169.05 357.347 170.319C358.037 171.588 358.897 172.581 359.926 173.3C360.943 173.995 362.033 174.376 363.196 174.444C364.383 174.499 365.575 174.201 366.773 173.549C367.596 173.102 368.264 172.541 368.78 171.865C369.295 171.189 369.64 170.424 369.814 169.568C370.011 168.7 370.034 167.79 369.881 166.837L370.269 166.627L373.314 165.93C373.581 167.428 373.564 168.853 373.264 170.203C372.95 171.53 372.381 172.723 371.556 173.78C370.741 174.801 369.664 175.676 368.325 176.404Z" fill="white"/>
<path d="M409.923 153.196L400.324 135.541L403.214 133.97L405.915 138.939L404.782 138.87C404.562 137.681 404.606 136.531 404.915 135.419C405.224 134.308 405.74 133.297 406.462 132.387C407.208 131.464 408.122 130.708 409.202 130.121C410.471 129.431 411.746 129.088 413.026 129.092C414.33 129.083 415.551 129.454 416.69 130.205C417.828 130.956 418.832 132.13 419.701 133.727L425.64 144.651L422.644 146.28L417.107 136.096C416.418 134.827 415.687 133.931 414.915 133.407C414.131 132.859 413.326 132.612 412.503 132.664C411.702 132.703 410.891 132.947 410.069 133.394C409.176 133.879 408.428 134.575 407.825 135.481C407.233 136.351 406.903 137.367 406.835 138.53C406.79 139.68 407.12 140.902 407.822 142.194L412.918 151.567L409.923 153.196ZM430.261 142.139L420.663 124.484L423.553 122.913L426.254 127.882L425.121 127.813C424.9 126.624 424.945 125.474 425.254 124.362C425.562 123.251 426.078 122.24 426.801 121.33C427.547 120.407 428.46 119.651 429.541 119.064C430.81 118.374 432.084 118.031 433.365 118.035C434.669 118.026 435.89 118.397 437.028 119.148C438.167 119.898 439.171 121.073 440.039 122.67L445.978 133.594L442.983 135.223L437.446 125.039C436.756 123.77 436.026 122.874 435.254 122.35C434.469 121.802 433.665 121.555 432.841 121.607C432.041 121.646 431.229 121.89 430.407 122.337C429.514 122.822 428.766 123.518 428.163 124.424C427.571 125.294 427.241 126.31 427.173 127.473C427.129 128.623 427.458 129.845 428.16 131.137L433.257 140.51L430.261 142.139ZM458.566 127.344C456.851 128.277 455.125 128.713 453.388 128.653C451.638 128.569 450.011 128.039 448.505 127.061C447.023 126.071 445.778 124.648 444.769 122.792C443.773 120.96 443.262 119.153 443.237 117.371C443.199 115.565 443.615 113.923 444.486 112.446C445.38 110.955 446.673 109.75 448.364 108.83C450.032 107.924 451.706 107.531 453.385 107.653C455.075 107.739 456.662 108.306 458.146 109.356C459.63 110.406 460.889 111.883 461.924 113.786L462.154 114.208L461.893 114.989L447.057 123.055L445.544 120.271L459.287 112.799L458.184 114.129C457.501 113.04 456.695 112.23 455.768 111.699C454.84 111.169 453.874 110.903 452.868 110.902C451.851 110.877 450.86 111.126 449.897 111.65C448.863 112.212 448.052 112.987 447.464 113.977C446.863 114.943 446.565 116.018 446.569 117.202C446.574 118.387 446.902 119.578 447.554 120.776L447.937 121.481C448.575 122.656 449.397 123.579 450.401 124.25C451.393 124.898 452.47 125.256 453.633 125.324C454.796 125.392 455.929 125.125 457.034 124.525C458.114 123.938 458.913 123.168 459.431 122.217C459.936 121.243 460.163 120.176 460.111 119.017L460.534 118.787L463.595 118.538C463.729 120.353 463.356 122.047 462.477 123.62C461.608 125.158 460.305 126.399 458.566 127.344ZM478.496 116.509C476.734 117.467 474.973 117.923 473.212 117.875C471.439 117.805 469.799 117.281 468.294 116.303C466.789 115.326 465.531 113.909 464.522 112.053C463.526 110.221 463.027 108.407 463.025 106.612C463.011 104.794 463.462 103.133 464.38 101.63C465.298 100.127 466.637 98.8961 468.399 97.9382C469.739 97.2102 471.071 96.8055 472.396 96.7241C473.732 96.6065 475.019 96.7896 476.256 97.2737C477.504 97.7214 478.661 98.4775 479.726 99.5417L477.521 101.699L477.133 101.91C476.082 100.929 474.914 100.347 473.627 100.164C472.351 99.9444 471.126 100.154 469.951 100.793C468.753 101.444 467.855 102.283 467.256 103.308C466.68 104.321 466.408 105.443 466.438 106.675C466.468 107.906 466.828 109.156 467.518 110.425C468.207 111.693 469.067 112.687 470.097 113.405C471.114 114.1 472.204 114.482 473.367 114.55C474.554 114.605 475.746 114.306 476.944 113.655C477.766 113.208 478.435 112.647 478.95 111.971C479.466 111.295 479.81 110.529 479.984 109.674C480.182 108.806 480.204 107.895 480.052 106.943L480.44 106.733L483.485 106.036C483.752 107.534 483.735 108.959 483.434 110.309C483.121 111.636 482.551 112.828 481.726 113.886C480.912 114.907 479.835 115.781 478.496 116.509ZM496.044 106.376C494.517 107.206 493.01 107.401 491.523 106.962C490.024 106.499 488.82 105.433 487.914 103.765L478.679 86.7796L481.675 85.1512L490.775 101.89C491.324 102.9 491.943 103.507 492.632 103.711C493.308 103.891 494.14 103.713 495.127 103.177L497.241 102.027L497.628 102.319L498.969 104.786L496.044 106.376ZM479.768 96.0037L478.235 93.1846L489.371 87.1306L490.903 89.9498L479.768 96.0037ZM510.187 99.2806C508.472 100.213 506.746 100.649 505.009 100.589C503.259 100.506 501.631 99.9751 500.126 98.9978C498.644 98.0076 497.398 96.5846 496.389 94.7286C495.393 92.8961 494.883 91.0889 494.857 89.3069C494.819 87.5014 495.235 85.8597 496.106 84.382C497 82.8915 498.293 81.6864 499.985 80.7669C501.653 79.86 503.326 79.4676 505.006 79.5894C506.696 79.675 508.283 80.2427 509.767 81.2926C511.251 82.3425 512.51 83.819 513.544 85.7219L513.774 86.1448L513.514 86.9255L498.678 94.9911L497.164 92.2071L510.908 84.7355L509.805 86.0656C509.121 84.9763 508.316 84.1663 507.388 83.6358C506.461 83.1052 505.494 82.8393 504.489 82.8379C503.471 82.813 502.48 83.0624 501.517 83.586C500.484 84.148 499.673 84.9237 499.084 85.9131C498.483 86.879 498.185 87.9542 498.19 89.1386C498.195 90.3231 498.523 91.5144 499.174 92.7125L499.557 93.4173C500.196 94.592 501.017 95.5151 502.022 96.1866C503.013 96.8346 504.09 97.1925 505.253 97.2602C506.416 97.328 507.55 97.0618 508.654 96.4615C509.735 95.874 510.534 95.1046 511.052 94.1536C511.557 93.179 511.783 92.1122 511.732 90.9533L512.154 90.7234L515.215 90.4748C515.349 92.289 514.977 93.9829 514.097 95.5567C513.229 97.0942 511.925 98.3355 510.187 99.2806ZM527.79 89.7103C526.569 90.3744 525.349 90.7334 524.13 90.7872C522.935 90.8282 521.844 90.5845 520.856 90.056C519.856 89.504 519.062 88.6876 518.475 87.607C517.632 86.0564 517.501 84.4994 518.081 82.9359C518.685 81.3596 519.929 79.9528 521.813 78.7155L528.346 74.5246L529.802 77.2029L523.868 81.068C522.627 81.8645 521.817 82.67 521.438 83.4847C521.07 84.2632 521.11 85.0635 521.557 85.8858C521.978 86.6611 522.658 87.1283 523.597 87.2875C524.536 87.4468 525.522 87.2454 526.556 86.6834C527.613 86.1087 528.442 85.3384 529.043 84.3724C529.644 83.4065 529.968 82.3783 530.014 81.2879C530.084 80.1846 529.844 79.1279 529.295 78.1177L527.743 75.2633C527.015 73.9242 525.992 73.0499 524.674 72.6405C523.379 72.2182 522.039 72.3839 520.652 73.1374C519.572 73.725 518.791 74.4996 518.309 75.4614C517.815 76.3998 517.682 77.4154 517.911 78.5084L517.524 78.7192L514.456 79.2911C514.117 77.4361 514.357 75.7227 515.177 74.151C515.997 72.5793 517.323 71.2953 519.155 70.2991C521.551 68.9964 523.785 68.7103 525.856 69.4409C527.951 70.1588 529.707 71.8215 531.125 74.4293L536.527 84.3668L533.708 85.8995L530.911 80.7545L532.275 80.7436C532.517 81.8601 532.484 83.0039 532.177 84.1751C531.881 85.3101 531.361 86.3689 530.617 87.3517C529.884 88.2982 528.942 89.0844 527.79 89.7103ZM541.176 81.8395L531.578 64.1844L534.468 62.6135L537.131 67.5118L536.027 67.2445C535.832 66.1025 535.89 65.0057 536.201 63.954C536.499 62.8788 537.004 61.9042 537.716 61.0302C538.415 60.1327 539.27 59.4094 540.28 58.8602C541.807 58.03 543.371 57.743 544.971 57.9992C546.571 58.2553 547.994 59.1099 549.241 60.5628L547.988 61.1981C547.745 60.0219 547.771 58.8663 548.067 57.7314C548.386 56.5836 548.936 55.5237 549.717 54.5517C550.497 53.5796 551.474 52.7743 552.649 52.1357C553.847 51.4843 555.075 51.1669 556.332 51.1836C557.589 51.2003 558.786 51.584 559.925 52.3346C561.064 53.0853 562.067 54.2594 562.936 55.8569L568.875 66.7812L565.879 68.4096L560.323 58.1901C559.634 56.9215 558.903 56.0252 558.131 55.5013C557.359 54.9774 556.585 54.7287 555.808 54.7554C555.031 54.7821 554.255 55.0061 553.48 55.4276C552.681 55.8619 551.997 56.5076 551.429 57.3647C550.86 58.2218 550.541 59.2319 550.474 60.3949C550.393 61.5344 550.717 62.7737 551.445 64.1128L556.541 73.4865L553.545 75.115L547.99 64.8955C547.3 63.6269 546.569 62.7306 545.797 62.2066C545.026 61.6827 544.239 61.4405 543.439 61.4799C542.662 61.5066 541.898 61.7243 541.146 62.133C540.347 62.5672 539.658 63.231 539.079 64.1244C538.51 64.9815 538.191 65.9916 538.124 67.1546C538.043 68.2941 538.36 69.5217 539.076 70.8373L544.172 80.211L541.176 81.8395Z" fill="white"/>
<rect x="400.213" y="144.471" width="2.5445" height="7.21285" rx="1.27225" transform="rotate(61.4691 400.213 144.471)" fill="#454545"/>
<rect x="402.76" y="152.862" width="2.5445" height="7.21285" rx="1.27225" transform="rotate(94.1467 402.76 152.862)" fill="#2E2E2E"/>
<rect x="400.361" y="161.317" width="2.5445" height="7.21285" rx="1.27225" transform="rotate(126.834 400.361 161.317)" fill="#1B1B1B"/>
<rect x="393.725" y="167.146" width="2.5445" height="7.21285" rx="1.27225" transform="rotate(159.635 393.725 167.146)" fill="white"/>
<rect x="385.037" y="168.446" width="2.5445" height="7.21285" rx="1.27225" transform="rotate(-167.487 385.037 168.446)" fill="white"/>
<rect x="377.039" y="164.854" width="2.5445" height="7.21285" rx="1.27225" transform="rotate(-134.779 377.039 164.854)" fill="white"/>
<rect x="372.229" y="157.445" width="2.5445" height="7.21285" rx="1.27225" transform="rotate(-101.849 372.229 157.445)" fill="white"/>
<rect x="372.197" y="148.687" width="2.5445" height="7.21285" rx="1.27225" transform="rotate(-69.1575 372.197 148.687)" fill="white"/>
<rect x="376.936" y="141.25" width="2.54451" height="7.21285" rx="1.27225" transform="rotate(-36.2565 376.936 141.25)" fill="white"/>
<rect x="384.918" y="137.579" width="2.5445" height="7.21285" rx="1.27225" transform="rotate(-3.46915 384.918 137.579)" fill="#A7A7A7"/>
<rect x="393.641" y="138.824" width="2.54451" height="7.21285" rx="1.27225" transform="rotate(29.2122 393.641 138.824)" fill="#797979"/>
<path fill-rule="evenodd" clip-rule="evenodd" d="M590.539 185.23C591.006 184.764 591.006 184.008 590.539 183.541C590.073 183.075 589.316 183.075 588.85 183.541L578.944 193.447L569.039 183.541C568.573 183.075 567.816 183.075 567.35 183.541C566.883 184.008 566.883 184.764 567.35 185.23L577.255 195.136L567.35 205.041C566.883 205.508 566.883 206.264 567.35 206.73C567.816 207.197 568.573 207.197 569.039 206.73L578.944 196.825L588.85 206.73C589.316 207.197 590.073 207.197 590.539 206.73C591.006 206.264 591.006 205.508 590.539 205.041L580.634 195.136L590.539 185.23Z" fill="#FF0000"/>
</g>
<defs>
<clipPath id="clip0_689_1572">
<rect y="0.191406" width="300" height="225" rx="14.6958" fill="white"/>
</clipPath>
<clipPath id="clip1_689_1572">
<rect x="309" y="0.191406" width="300" height="225" rx="14.6958" fill="white"/>
</clipPath>
</defs>
</svg>
