<svg width="922" height="207" viewBox="0 0 922 207" fill="none" xmlns="http://www.w3.org/2000/svg">
<mask id="path-1-outside-1_689_1984" maskUnits="userSpaceOnUse" x="0" y="57.1914" width="918" height="76" fill="black">
<rect fill="white" y="57.1914" width="918" height="76"/>
<path d="M0 57.1914H918V132.191H0V57.1914Z"/>
</mask>
<path d="M918 131.191H0V133.191H918V131.191Z" fill="#4A4A4A" mask="url(#path-1-outside-1_689_1984)"/>
<g filter="url(#filter0_d_689_1984)">
<mask id="path-3-inside-2_689_1984" fill="white">
<path d="M0 57.1914H918V132.191H0V57.1914Z"/>
</mask>
<path d="M0 57.1914H918V132.191H0V57.1914Z" fill="#F2F2F2"/>
<path d="M0 58.1914H918V56.1914H0V58.1914Z" fill="#4A4A4A" mask="url(#path-3-inside-2_689_1984)"/>
<path d="M18.3025 87.1914H17.2V79.0914H18.3025V87.1914ZM17.7475 77.6964C17.5325 77.6964 17.35 77.6239 17.2 77.4789C17.055 77.3339 16.9825 77.1539 16.9825 76.9389C16.9825 76.7189 17.055 76.5364 17.2 76.3914C17.35 76.2464 17.5325 76.1739 17.7475 76.1739C17.9675 76.1739 18.15 76.2489 18.295 76.3989C18.445 76.5439 18.52 76.7239 18.52 76.9389C18.52 77.1539 18.445 77.3339 18.295 77.4789C18.15 77.6239 17.9675 77.6964 17.7475 77.6964ZM23.5735 87.4089C22.9435 87.4089 22.3835 87.3164 21.8935 87.1314C21.4035 86.9464 21.0035 86.6814 20.6935 86.3364C20.3885 85.9864 20.191 85.5689 20.101 85.0839L21.226 84.8964C21.341 85.3614 21.6135 85.7289 22.0435 85.9989C22.4735 86.2689 23.0035 86.4039 23.6335 86.4039C24.2485 86.4039 24.7335 86.2764 25.0885 86.0214C25.4435 85.7614 25.621 85.4089 25.621 84.9639C25.621 84.7039 25.561 84.4989 25.441 84.3489C25.326 84.1939 25.106 84.0514 24.781 83.9214C24.456 83.7914 23.936 83.6289 23.221 83.4339C22.476 83.2339 21.8985 83.0339 21.4885 82.8339C21.0785 82.6289 20.786 82.3989 20.611 82.1439C20.436 81.8839 20.3485 81.5614 20.3485 81.1764C20.3485 80.7214 20.476 80.3189 20.731 79.9689C20.991 79.6189 21.3535 79.3489 21.8185 79.1589C22.2835 78.9639 22.8185 78.8664 23.4235 78.8664C24.0285 78.8664 24.5735 78.9664 25.0585 79.1664C25.5435 79.3614 25.9335 79.6389 26.2285 79.9989C26.5235 80.3539 26.6985 80.7639 26.7535 81.2289L25.6285 81.4314C25.5485 80.9464 25.3035 80.5664 24.8935 80.2914C24.4835 80.0114 23.9635 79.8714 23.3335 79.8714C22.9685 79.8714 22.6435 79.9239 22.3585 80.0289C22.0785 80.1339 21.8585 80.2814 21.6985 80.4714C21.5435 80.6614 21.466 80.8789 21.466 81.1239C21.466 81.3489 21.531 81.5364 21.661 81.6864C21.796 81.8314 22.0285 81.9714 22.3585 82.1064C22.6935 82.2364 23.186 82.3839 23.836 82.5489C24.596 82.7439 25.1835 82.9464 25.5985 83.1564C26.0185 83.3614 26.3185 83.6064 26.4985 83.8914C26.6785 84.1714 26.7685 84.5239 26.7685 84.9489C26.7685 85.4539 26.641 85.8914 26.386 86.2614C26.131 86.6314 25.7635 86.9164 25.2835 87.1164C24.8035 87.3114 24.2335 87.4089 23.5735 87.4089ZM32.7818 82.9389H28.2818V81.9939H32.7818V82.9389ZM36.6582 80.0364V84.2139V84.6564C36.6582 84.9064 36.6682 85.1089 36.6882 85.2639C36.7082 85.4139 36.7532 85.5489 36.8232 85.6689C36.9432 85.8989 37.1157 86.0639 37.3407 86.1639C37.5657 86.2639 37.8482 86.3139 38.1882 86.3139C38.4732 86.3139 38.7907 86.2839 39.1407 86.2239V87.1914C38.7407 87.2714 38.3682 87.3114 38.0232 87.3114C37.5082 87.3114 37.0582 87.2239 36.6732 87.0489C36.2882 86.8739 36.0032 86.5989 35.8182 86.2239C35.7132 86.0089 35.6432 85.7889 35.6082 85.5639C35.5782 85.3389 35.5632 85.0589 35.5632 84.7239V84.2589V80.0364H33.8307V79.0914H35.5632V76.8414H36.6582V79.0914H39.1407V80.0364H36.6582ZM41.164 87.1914H39.8365L43.0015 83.0964L39.904 79.0914H41.224L43.6465 82.2489L46.0465 79.0914H47.3665L44.269 83.0964L47.4415 87.1914H46.114L43.6465 83.9439L41.164 87.1914ZM50.5742 80.0364V84.2139V84.6564C50.5742 84.9064 50.5842 85.1089 50.6042 85.2639C50.6242 85.4139 50.6692 85.5489 50.7392 85.6689C50.8592 85.8989 51.0317 86.0639 51.2567 86.1639C51.4817 86.2639 51.7642 86.3139 52.1042 86.3139C52.3892 86.3139 52.7067 86.2839 53.0567 86.2239V87.1914C52.6567 87.2714 52.2842 87.3114 51.9392 87.3114C51.4242 87.3114 50.9742 87.2239 50.5892 87.0489C50.2042 86.8739 49.9192 86.5989 49.7342 86.2239C49.6292 86.0089 49.5592 85.7889 49.5242 85.5639C49.4942 85.3389 49.4792 85.0589 49.4792 84.7239V84.2589V80.0364H47.7467V79.0914H49.4792V76.8414H50.5742V79.0914H53.0567V80.0364H50.5742ZM59.0025 82.9389H54.5025V81.9939H59.0025V82.9389ZM62.2039 87.1914H61.1014V76.1664H62.2039V87.1914ZM70.5948 80.4864C70.7548 80.8764 70.8348 81.4339 70.8348 82.1589V87.1914H69.8523V85.8489C69.5373 86.3639 69.1173 86.7539 68.5923 87.0189C68.0673 87.2839 67.4598 87.4164 66.7698 87.4164C66.1798 87.4164 65.6748 87.3089 65.2548 87.0939C64.8398 86.8789 64.5273 86.5889 64.3173 86.2239C64.1073 85.8589 64.0023 85.4564 64.0023 85.0164C64.0023 84.3864 64.1848 83.8789 64.5498 83.4939C64.9148 83.1089 65.4198 82.8314 66.0648 82.6614C66.4598 82.5664 66.8998 82.4814 67.3848 82.4064C67.8748 82.3314 68.4398 82.2514 69.0798 82.1664L69.7548 82.0764C69.7448 81.3314 69.5698 80.7839 69.2298 80.4339C68.8948 80.0839 68.3498 79.9089 67.5948 79.9089C67.0248 79.9089 66.5498 80.0364 66.1698 80.2914C65.7948 80.5464 65.5323 80.9389 65.3823 81.4689L64.3098 81.1539C64.4998 80.4239 64.8748 79.8614 65.4348 79.4664C65.9998 79.0664 66.7248 78.8664 67.6098 78.8664C68.3498 78.8664 68.9773 79.0064 69.4923 79.2864C70.0123 79.5664 70.3798 79.9664 70.5948 80.4864ZM66.8973 86.4639C67.3973 86.4639 67.8423 86.3739 68.2323 86.1939C68.6223 86.0089 68.9348 85.7564 69.1698 85.4364C69.4098 85.1114 69.5648 84.7439 69.6348 84.3339C69.7048 84.0239 69.7398 83.5939 69.7398 83.0439C69.5448 83.0639 69.4048 83.0814 69.3198 83.0964C68.6398 83.1764 68.0873 83.2489 67.6623 83.3139C67.2373 83.3739 66.8523 83.4514 66.5073 83.5464C65.5723 83.8214 65.1048 84.3114 65.1048 85.0164C65.1048 85.2664 65.1648 85.5014 65.2848 85.7214C65.4098 85.9414 65.6073 86.1214 65.8773 86.2614C66.1473 86.3964 66.4873 86.4639 66.8973 86.4639ZM74.4073 79.6239C74.6323 79.4239 74.8998 79.2739 75.2098 79.1739C75.5248 79.0739 75.8423 79.0239 76.1623 79.0239C76.3773 79.0239 76.5798 79.0464 76.7698 79.0914V80.1264C76.5548 80.0764 76.3473 80.0514 76.1473 80.0514C75.6273 80.0514 75.1898 80.1989 74.8348 80.4939C74.4648 80.7839 74.2148 81.1539 74.0848 81.6039C73.9548 82.0539 73.8898 82.5689 73.8898 83.1489V87.1914H72.7873V79.0914H73.7773V80.3739C73.9523 80.0639 74.1623 79.8139 74.4073 79.6239ZM83.6971 79.0914H84.6796V87.0789C84.6796 87.5739 84.6496 88.0039 84.5896 88.3689C84.3046 90.1339 83.1471 91.0164 81.1171 91.0164C80.4521 91.0164 79.8346 90.8689 79.2646 90.5739C78.6996 90.2789 78.2521 89.8314 77.9221 89.2314L78.9196 88.6764C79.1296 89.1014 79.4321 89.4189 79.8271 89.6289C80.2271 89.8389 80.6571 89.9439 81.1171 89.9439C81.9771 89.9439 82.6021 89.7064 82.9921 89.2314C83.3821 88.7564 83.5746 88.0339 83.5696 87.0639V86.2314C83.2696 86.6114 82.9071 86.9039 82.4821 87.1089C82.0571 87.3139 81.5771 87.4164 81.0421 87.4164C80.3021 87.4164 79.6596 87.2314 79.1146 86.8614C78.5746 86.4914 78.1621 85.9814 77.8771 85.3314C77.5921 84.6814 77.4496 83.9489 77.4496 83.1339C77.4496 82.3239 77.5921 81.5964 77.8771 80.9514C78.1621 80.3014 78.5721 79.7914 79.1071 79.4214C79.6471 79.0514 80.2771 78.8664 80.9971 78.8664C81.5821 78.8664 82.1021 78.9839 82.5571 79.2189C83.0121 79.4489 83.3921 79.7789 83.6971 80.2089V79.0914ZM81.1546 86.3889C81.7146 86.3889 82.1846 86.2514 82.5646 85.9764C82.9446 85.6964 83.2271 85.3139 83.4121 84.8289C83.6021 84.3389 83.6971 83.7739 83.6971 83.1339C83.6971 82.4889 83.6021 81.9239 83.4121 81.4389C83.2271 80.9489 82.9446 80.5689 82.5646 80.2989C82.1896 80.0289 81.7271 79.8939 81.1771 79.8939C80.6171 79.8939 80.1446 80.0339 79.7596 80.3139C79.3746 80.5939 79.0871 80.9789 78.8971 81.4689C78.7121 81.9539 78.6196 82.5089 78.6196 83.1339C78.6196 83.7589 78.7146 84.3189 78.9046 84.8139C79.0996 85.3039 79.3871 85.6889 79.7671 85.9689C80.1471 86.2489 80.6096 86.3889 81.1546 86.3889ZM87.5041 83.4489C87.5491 84.3789 87.8016 85.0964 88.2616 85.6014C88.7216 86.1064 89.3541 86.3589 90.1591 86.3589C90.7341 86.3589 91.2391 86.2264 91.6741 85.9614C92.1091 85.6914 92.4516 85.3039 92.7016 84.7989L93.7291 85.1964C93.4091 85.9014 92.9391 86.4489 92.3191 86.8389C91.6991 87.2239 90.9941 87.4164 90.2041 87.4164C89.4241 87.4164 88.7416 87.2414 88.1566 86.8914C87.5716 86.5414 87.1191 86.0489 86.7991 85.4139C86.4841 84.7739 86.3266 84.0289 86.3266 83.1789C86.3266 82.3039 86.4816 81.5414 86.7916 80.8914C87.1066 80.2414 87.5516 79.7414 88.1266 79.3914C88.7066 79.0414 89.3841 78.8664 90.1591 78.8664C90.9341 78.8664 91.5991 79.0414 92.1541 79.3914C92.7141 79.7364 93.1416 80.2364 93.4366 80.8914C93.7366 81.5414 93.8866 82.3164 93.8866 83.2164V83.4489H87.5041ZM90.1891 79.8789C89.4141 79.8789 88.7966 80.1064 88.3366 80.5614C87.8816 81.0164 87.6116 81.6714 87.5266 82.5264H92.7316C92.6516 81.6514 92.3966 80.9914 91.9666 80.5464C91.5366 80.1014 90.9441 79.8789 90.1891 79.8789Z" fill="#100F0F"/>
<path d="M192.05 87.1914H190.933V77.6214L188.9 78.8439V77.6064L190.933 76.3914H192.05V87.1914ZM200.13 81.4164C200.625 81.7064 201.002 82.0889 201.262 82.5639C201.522 83.0389 201.652 83.5714 201.652 84.1614C201.652 84.8114 201.505 85.3814 201.21 85.8714C200.92 86.3614 200.512 86.7414 199.987 87.0114C199.462 87.2814 198.862 87.4164 198.187 87.4164C197.517 87.4164 196.92 87.2814 196.395 87.0114C195.875 86.7414 195.47 86.3614 195.18 85.8714C194.89 85.3814 194.745 84.8114 194.745 84.1614C194.745 83.5614 194.87 83.0239 195.12 82.5489C195.375 82.0739 195.755 81.6939 196.26 81.4089C195.85 81.1639 195.537 80.8364 195.322 80.4264C195.107 80.0164 195 79.5639 195 79.0689C195 78.4789 195.135 77.9664 195.405 77.5314C195.675 77.0914 196.05 76.7539 196.53 76.5189C197.015 76.2839 197.567 76.1664 198.187 76.1664C198.807 76.1664 199.357 76.2839 199.837 76.5189C200.322 76.7539 200.7 77.0914 200.97 77.5314C201.245 77.9664 201.382 78.4789 201.382 79.0689C201.382 79.5689 201.275 80.0264 201.06 80.4414C200.85 80.8514 200.54 81.1764 200.13 81.4164ZM198.187 77.2539C197.567 77.2539 197.075 77.4089 196.71 77.7189C196.35 78.0289 196.17 78.4789 196.17 79.0689C196.17 79.6589 196.352 80.1114 196.717 80.4264C197.082 80.7414 197.572 80.8989 198.187 80.8989C198.807 80.8989 199.3 80.7414 199.665 80.4264C200.03 80.1114 200.212 79.6589 200.212 79.0689C200.212 78.4789 200.03 78.0289 199.665 77.7189C199.3 77.4089 198.807 77.2539 198.187 77.2539ZM198.187 86.3589C198.647 86.3589 199.05 86.2739 199.395 86.1039C199.74 85.9339 200.007 85.6839 200.197 85.3539C200.387 85.0239 200.482 84.6264 200.482 84.1614C200.482 83.4564 200.275 82.9139 199.86 82.5339C199.45 82.1539 198.892 81.9639 198.187 81.9639C197.482 81.9639 196.925 82.1539 196.515 82.5339C196.11 82.9139 195.907 83.4564 195.907 84.1614C195.907 84.6264 196.002 85.0239 196.192 85.3539C196.382 85.6839 196.647 85.9339 196.987 86.1039C197.332 86.2739 197.732 86.3589 198.187 86.3589ZM207.278 78.8664C207.998 78.8664 208.626 79.0514 209.161 79.4214C209.701 79.7914 210.113 80.3014 210.398 80.9514C210.683 81.5964 210.826 82.3239 210.826 83.1339C210.826 83.9489 210.683 84.6814 210.398 85.3314C210.113 85.9814 209.698 86.4914 209.153 86.8614C208.613 87.2314 207.973 87.4164 207.233 87.4164C206.698 87.4164 206.216 87.3139 205.786 87.1089C205.361 86.8989 204.998 86.6039 204.698 86.2239V90.7914H203.588V79.0914H204.578V80.2089C204.883 79.7789 205.263 79.4489 205.718 79.2189C206.173 78.9839 206.693 78.8664 207.278 78.8664ZM207.121 86.3889C207.666 86.3889 208.128 86.2489 208.508 85.9689C208.888 85.6889 209.173 85.3039 209.363 84.8139C209.558 84.3189 209.656 83.7589 209.656 83.1339C209.656 82.5089 209.561 81.9539 209.371 81.4689C209.186 80.9789 208.901 80.5939 208.516 80.3139C208.131 80.0339 207.658 79.8939 207.098 79.8939C206.548 79.8939 206.083 80.0289 205.703 80.2989C205.328 80.5689 205.046 80.9489 204.856 81.4389C204.671 81.9239 204.578 82.4889 204.578 83.1339C204.578 83.7739 204.671 84.3389 204.856 84.8289C205.046 85.3139 205.331 85.6964 205.711 85.9764C206.091 86.2514 206.561 86.3889 207.121 86.3889ZM212.754 87.1914H211.426L214.591 83.0964L211.494 79.0914H212.814L215.236 82.2489L217.636 79.0914H218.956L215.859 83.0964L219.031 87.1914H217.704L215.236 83.9439L212.754 87.1914Z" fill="#100F0F"/>
<path d="M322.05 87.1914H320.933V77.6214L318.9 78.8439V77.6064L320.933 76.3914H322.05V87.1914ZM326.275 86.1264H331.645V87.1839H324.595L324.602 86.1789L329.485 81.7689C329.88 81.4139 330.152 81.0664 330.302 80.7264C330.452 80.3864 330.527 80.0139 330.527 79.6089C330.527 79.1689 330.422 78.7689 330.212 78.4089C330.007 78.0439 329.725 77.7564 329.365 77.5464C329.005 77.3314 328.607 77.2239 328.172 77.2239C327.722 77.2239 327.315 77.3339 326.95 77.5539C326.585 77.7689 326.297 78.0589 326.087 78.4239C325.882 78.7889 325.782 79.1814 325.787 79.6014H324.662C324.662 78.9564 324.815 78.3714 325.12 77.8464C325.43 77.3214 325.852 76.9114 326.387 76.6164C326.927 76.3164 327.527 76.1664 328.187 76.1664C328.832 76.1664 329.417 76.3189 329.942 76.6239C330.472 76.9289 330.887 77.3464 331.187 77.8764C331.492 78.4014 331.645 78.9814 331.645 79.6164C331.645 80.0614 331.59 80.4539 331.48 80.7939C331.375 81.1289 331.212 81.4414 330.992 81.7314C330.777 82.0214 330.485 82.3314 330.115 82.6614L326.275 86.1264ZM336.974 87.4164C336.314 87.4164 335.714 87.2639 335.174 86.9589C334.639 86.6489 334.217 86.2264 333.907 85.6914C333.602 85.1514 333.449 84.5514 333.449 83.8914V79.6914C333.449 79.0314 333.602 78.4339 333.907 77.8989C334.217 77.3589 334.639 76.9364 335.174 76.6314C335.714 76.3214 336.314 76.1664 336.974 76.1664C337.634 76.1664 338.232 76.3214 338.767 76.6314C339.307 76.9364 339.729 77.3589 340.034 77.8989C340.344 78.4339 340.499 79.0314 340.499 79.6914V83.8914C340.499 84.5514 340.344 85.1514 340.034 85.6914C339.729 86.2264 339.307 86.6489 338.767 86.9589C338.232 87.2639 337.634 87.4164 336.974 87.4164ZM336.974 86.3514C337.409 86.3514 337.812 86.2439 338.182 86.0289C338.552 85.8139 338.844 85.5214 339.059 85.1514C339.274 84.7814 339.382 84.3789 339.382 83.9439V79.6389C339.382 79.1989 339.274 78.7964 339.059 78.4314C338.844 78.0614 338.552 77.7689 338.182 77.5539C337.812 77.3339 337.409 77.2239 336.974 77.2239C336.539 77.2239 336.137 77.3339 335.767 77.5539C335.397 77.7689 335.104 78.0614 334.889 78.4314C334.674 78.7964 334.567 79.1989 334.567 79.6389V83.9439C334.567 84.3789 334.674 84.7814 334.889 85.1514C335.104 85.5214 335.397 85.8139 335.767 86.0289C336.137 86.2439 336.539 86.3514 336.974 86.3514ZM345.155 81.5664C344.665 81.5664 344.212 81.4464 343.797 81.2064C343.387 80.9664 343.06 80.6389 342.815 80.2239C342.575 79.8089 342.455 79.3564 342.455 78.8664C342.455 78.3864 342.577 77.9389 342.822 77.5239C343.072 77.1089 343.405 76.7789 343.82 76.5339C344.235 76.2889 344.68 76.1664 345.155 76.1664C345.645 76.1664 346.095 76.2864 346.505 76.5264C346.92 76.7664 347.247 77.0939 347.487 77.5089C347.732 77.9239 347.855 78.3764 347.855 78.8664C347.855 79.3564 347.732 79.8089 347.487 80.2239C347.247 80.6389 346.92 80.9664 346.505 81.2064C346.095 81.4464 345.645 81.5664 345.155 81.5664ZM353.727 77.1339L343.655 87.1914L342.905 86.4414L352.977 76.3914L353.727 77.1339ZM345.155 80.5689C345.455 80.5689 345.735 80.4914 345.995 80.3364C346.26 80.1814 346.47 79.9739 346.625 79.7139C346.78 79.4489 346.857 79.1664 346.857 78.8664C346.857 78.5664 346.78 78.2864 346.625 78.0264C346.47 77.7614 346.26 77.5514 345.995 77.3964C345.735 77.2414 345.455 77.1639 345.155 77.1639C344.855 77.1639 344.572 77.2414 344.307 77.3964C344.047 77.5514 343.84 77.7614 343.685 78.0264C343.53 78.2864 343.452 78.5664 343.452 78.8664C343.452 79.1664 343.53 79.4489 343.685 79.7139C343.84 79.9739 344.047 80.1814 344.307 80.3364C344.572 80.4914 344.855 80.5689 345.155 80.5689ZM351.477 87.4164C350.987 87.4164 350.535 87.2964 350.12 87.0564C349.71 86.8164 349.382 86.4889 349.137 86.0739C348.897 85.6589 348.777 85.2064 348.777 84.7164C348.777 84.2364 348.9 83.7889 349.145 83.3739C349.395 82.9589 349.727 82.6289 350.142 82.3839C350.557 82.1389 351.002 82.0164 351.477 82.0164C351.967 82.0164 352.417 82.1364 352.827 82.3764C353.242 82.6164 353.57 82.9439 353.81 83.3589C354.055 83.7739 354.177 84.2264 354.177 84.7164C354.177 85.2064 354.055 85.6589 353.81 86.0739C353.57 86.4889 353.242 86.8164 352.827 87.0564C352.417 87.2964 351.967 87.4164 351.477 87.4164ZM351.477 86.4189C351.777 86.4189 352.057 86.3414 352.317 86.1864C352.582 86.0314 352.792 85.8239 352.947 85.5639C353.102 85.2989 353.18 85.0164 353.18 84.7164C353.18 84.4164 353.102 84.1364 352.947 83.8764C352.792 83.6114 352.582 83.4014 352.317 83.2464C352.057 83.0914 351.777 83.0139 351.477 83.0139C351.172 83.0139 350.887 83.0914 350.622 83.2464C350.362 83.4014 350.155 83.6114 350 83.8764C349.845 84.1364 349.767 84.4164 349.767 84.7164C349.767 85.0164 349.845 85.2989 350 85.5639C350.155 85.8239 350.362 86.0314 350.622 86.1864C350.887 86.3414 351.172 86.4189 351.477 86.4189Z" fill="#100F0F"/>
<path d="M448.108 87.1914H447.05V76.3914H448.063L452.308 85.4739L456.53 76.3914H457.558V87.1839H456.508V78.8514L452.66 87.1914H451.948L448.108 78.8514V87.1914ZM460.39 83.4489C460.435 84.3789 460.687 85.0964 461.147 85.6014C461.607 86.1064 462.24 86.3589 463.045 86.3589C463.62 86.3589 464.125 86.2264 464.56 85.9614C464.995 85.6914 465.337 85.3039 465.587 84.7989L466.615 85.1964C466.295 85.9014 465.825 86.4489 465.205 86.8389C464.585 87.2239 463.88 87.4164 463.09 87.4164C462.31 87.4164 461.627 87.2414 461.042 86.8914C460.457 86.5414 460.005 86.0489 459.685 85.4139C459.37 84.7739 459.212 84.0289 459.212 83.1789C459.212 82.3039 459.367 81.5414 459.677 80.8914C459.992 80.2414 460.437 79.7414 461.012 79.3914C461.592 79.0414 462.27 78.8664 463.045 78.8664C463.82 78.8664 464.485 79.0414 465.04 79.3914C465.6 79.7364 466.027 80.2364 466.322 80.8914C466.622 81.5414 466.772 82.3164 466.772 83.2164V83.4489H460.39ZM463.075 79.8789C462.3 79.8789 461.682 80.1064 461.222 80.5614C460.767 81.0164 460.497 81.6714 460.412 82.5264H465.617C465.537 81.6514 465.282 80.9914 464.852 80.5464C464.422 80.1014 463.83 79.8789 463.075 79.8789ZM474.114 76.3914H475.224V87.1914H474.234V86.0589C473.934 86.4889 473.559 86.8239 473.109 87.0639C472.664 87.2989 472.154 87.4164 471.579 87.4164C470.839 87.4164 470.197 87.2314 469.652 86.8614C469.112 86.4914 468.699 85.9814 468.414 85.3314C468.129 84.6814 467.987 83.9489 467.987 83.1339C467.987 82.3239 468.129 81.5964 468.414 80.9514C468.699 80.3014 469.109 79.7914 469.644 79.4214C470.184 79.0514 470.814 78.8664 471.534 78.8664C472.084 78.8664 472.574 78.9689 473.004 79.1739C473.439 79.3789 473.809 79.6689 474.114 80.0439V76.3914ZM471.692 86.3889C472.252 86.3889 472.722 86.2514 473.102 85.9764C473.482 85.6964 473.764 85.3139 473.949 84.8289C474.139 84.3389 474.234 83.7739 474.234 83.1339C474.234 82.4889 474.139 81.9239 473.949 81.4389C473.764 80.9489 473.482 80.5689 473.102 80.2989C472.727 80.0289 472.264 79.8939 471.714 79.8939C471.154 79.8939 470.682 80.0339 470.297 80.3139C469.912 80.5939 469.624 80.9789 469.434 81.4689C469.249 81.9539 469.157 82.5089 469.157 83.1339C469.157 83.7589 469.252 84.3189 469.442 84.8139C469.637 85.3039 469.924 85.6889 470.304 85.9689C470.684 86.2489 471.147 86.3889 471.692 86.3889ZM478.581 87.1914H477.478V79.0914H478.581V87.1914ZM478.026 77.6964C477.811 77.6964 477.628 77.6239 477.478 77.4789C477.333 77.3339 477.261 77.1539 477.261 76.9389C477.261 76.7189 477.333 76.5364 477.478 76.3914C477.628 76.2464 477.811 76.1739 478.026 76.1739C478.246 76.1739 478.428 76.2489 478.573 76.3989C478.723 76.5439 478.798 76.7239 478.798 76.9389C478.798 77.1539 478.723 77.3339 478.573 77.4789C478.428 77.6239 478.246 77.6964 478.026 77.6964ZM486.537 79.0914H487.639V87.1914H486.649V86.0664C486.349 86.5014 485.967 86.8314 485.502 87.0564C485.037 87.2814 484.512 87.3939 483.927 87.3939C483.162 87.3939 482.537 87.2089 482.052 86.8389C481.567 86.4689 481.217 85.9939 481.002 85.4139C480.787 84.8289 480.679 84.2064 480.679 83.5464V79.0914H481.789V83.2239C481.789 84.1789 481.979 84.9389 482.359 85.5039C482.739 86.0639 483.332 86.3439 484.137 86.3439C484.907 86.3439 485.499 86.0864 485.914 85.5714C486.329 85.0564 486.537 84.3364 486.537 83.4114V79.0914ZM497.813 78.8739C498.353 78.8739 498.826 78.9889 499.231 79.2189C499.641 79.4439 499.956 79.7664 500.176 80.1864C500.396 80.6064 500.506 81.0989 500.506 81.6639L500.498 87.1914H499.396L499.403 81.8739C499.403 81.4639 499.323 81.1089 499.163 80.8089C499.008 80.5039 498.791 80.2714 498.511 80.1114C498.231 79.9464 497.913 79.8639 497.558 79.8639C497.228 79.8639 496.921 79.9389 496.636 80.0889C496.351 80.2339 496.118 80.4639 495.938 80.7789C495.758 81.0939 495.668 81.4889 495.668 81.9639L495.661 87.1914H494.573L494.581 81.9489C494.581 81.5239 494.503 81.1539 494.348 80.8389C494.193 80.5239 493.973 80.2839 493.688 80.1189C493.408 79.9489 493.083 79.8639 492.713 79.8639C492.343 79.8639 492.016 79.9514 491.731 80.1264C491.446 80.2964 491.226 80.5414 491.071 80.8614C490.916 81.1764 490.838 81.5439 490.838 81.9639V87.1914H489.728V79.0914H490.718V79.9464C490.973 79.6114 491.298 79.3489 491.693 79.1589C492.088 78.9689 492.523 78.8739 492.998 78.8739C493.533 78.8739 494.006 78.9914 494.416 79.2264C494.831 79.4614 495.146 79.7989 495.361 80.2389C495.596 79.8089 495.928 79.4739 496.358 79.2339C496.788 78.9939 497.273 78.8739 497.813 78.8739Z" fill="#100F0F"/>
<path d="M583.054 88.1914H575.44V75.2314H577.042V86.6704H583.054V88.1914ZM588.716 88.4614C587.762 88.4614 586.931 88.2454 586.223 87.8134C585.521 87.3754 584.981 86.7694 584.603 85.9954C584.225 85.2154 584.036 84.3244 584.036 83.3224C584.036 82.3144 584.228 81.4234 584.612 80.6494C584.996 79.8754 585.542 79.2754 586.25 78.8494C586.958 78.4174 587.78 78.2014 588.716 78.2014C589.67 78.2014 590.501 78.4174 591.209 78.8494C591.917 79.2814 592.46 79.8844 592.838 80.6584C593.216 81.4324 593.405 82.3204 593.405 83.3224C593.405 84.3364 593.213 85.2334 592.829 86.0134C592.451 86.7874 591.908 87.3904 591.2 87.8224C590.492 88.2484 589.664 88.4614 588.716 88.4614ZM588.716 86.9404C589.694 86.9404 590.435 86.6164 590.939 85.9684C591.449 85.3144 591.704 84.4324 591.704 83.3224C591.704 82.2004 591.449 81.3214 590.939 80.6854C590.429 80.0434 589.688 79.7224 588.716 79.7224C587.732 79.7224 586.988 80.0464 586.484 80.6944C585.986 81.3424 585.737 82.2184 585.737 83.3224C585.737 84.4444 585.992 85.3294 586.502 85.9774C587.018 86.6194 587.756 86.9404 588.716 86.9404ZM597.646 79.0654C597.916 78.8494 598.234 78.6844 598.6 78.5704C598.966 78.4564 599.335 78.3994 599.707 78.3994C599.941 78.3994 600.172 78.4234 600.4 78.4714V79.9744C600.148 79.9144 599.905 79.8844 599.671 79.8844C599.089 79.8844 598.591 80.0374 598.177 80.3434C597.739 80.6554 597.433 81.0664 597.259 81.5764C597.085 82.0804 596.998 82.6594 596.998 83.3134V88.1914H595.387V78.4714H596.818V80.0104C597.046 79.6144 597.322 79.2994 597.646 79.0654ZM603.105 83.7814C603.171 84.7954 603.456 85.5754 603.96 86.1214C604.47 86.6674 605.172 86.9404 606.066 86.9404C606.702 86.9404 607.257 86.7934 607.731 86.4994C608.211 86.2054 608.586 85.7824 608.856 85.2304L610.395 85.7614C610.017 86.6134 609.45 87.2764 608.694 87.7504C607.938 88.2244 607.086 88.4614 606.138 88.4614C605.19 88.4614 604.356 88.2514 603.636 87.8314C602.922 87.4114 602.367 86.8174 601.971 86.0494C601.581 85.2814 601.386 84.3964 601.386 83.3944C601.386 82.3444 601.578 81.4294 601.962 80.6494C602.352 79.8634 602.898 79.2604 603.6 78.8404C604.308 78.4144 605.13 78.2014 606.066 78.2014C606.996 78.2014 607.797 78.4114 608.469 78.8314C609.147 79.2454 609.666 79.8424 610.026 80.6224C610.386 81.3964 610.566 82.3174 610.566 83.3854C610.566 83.5594 610.563 83.6914 610.557 83.7814H603.105ZM606.12 79.6414C605.25 79.6414 604.563 79.8844 604.059 80.3704C603.555 80.8564 603.246 81.5644 603.132 82.4944H608.892C608.694 80.5924 607.77 79.6414 606.12 79.6414ZM622.26 78.2194C622.926 78.2194 623.505 78.3604 623.997 78.6424C624.489 78.9184 624.867 79.3144 625.131 79.8304C625.395 80.3404 625.527 80.9374 625.527 81.6214L625.518 88.1914H623.916L623.925 81.9724C623.925 81.4984 623.835 81.0874 623.655 80.7394C623.481 80.3854 623.235 80.1154 622.917 79.9294C622.605 79.7434 622.245 79.6504 621.837 79.6504C621.459 79.6504 621.108 79.7374 620.784 79.9114C620.46 80.0854 620.199 80.3494 620.001 80.7034C619.809 81.0574 619.713 81.4954 619.713 82.0174L619.704 88.1914H618.111L618.12 82.0354C618.12 81.5494 618.033 81.1264 617.859 80.7664C617.685 80.4064 617.439 80.1304 617.121 79.9384C616.803 79.7464 616.434 79.6504 616.014 79.6504C615.594 79.6504 615.225 79.7494 614.907 79.9474C614.589 80.1454 614.34 80.4244 614.16 80.7844C613.986 81.1384 613.899 81.5494 613.899 82.0174V88.1914H612.288V78.4714H613.719V79.5064C614.031 79.1044 614.427 78.7894 614.907 78.5614C615.387 78.3334 615.912 78.2194 616.482 78.2194C617.136 78.2194 617.706 78.3604 618.192 78.6424C618.678 78.9184 619.053 79.3114 619.317 79.8214C619.605 79.3174 620.007 78.9244 620.523 78.6424C621.045 78.3604 621.624 78.2194 622.26 78.2194ZM633.257 88.1914H631.655V75.2314H633.257V88.1914ZM640.43 78.2014C641.312 78.2014 642.08 78.4234 642.734 78.8674C643.394 79.3114 643.898 79.9234 644.246 80.7034C644.6 81.4774 644.777 82.3504 644.777 83.3224C644.777 84.3004 644.6 85.1794 644.246 85.9594C643.898 86.7334 643.394 87.3454 642.734 87.7954C642.08 88.2394 641.309 88.4614 640.421 88.4614C639.827 88.4614 639.29 88.3624 638.81 88.1644C638.33 87.9604 637.913 87.6694 637.559 87.2914V92.5114H635.948V78.4714H637.379V79.5604C637.745 79.1224 638.183 78.7864 638.693 78.5524C639.203 78.3184 639.782 78.2014 640.43 78.2014ZM640.223 86.9944C640.841 86.9944 641.363 86.8354 641.789 86.5174C642.221 86.1994 642.542 85.7644 642.752 85.2124C642.968 84.6604 643.076 84.0304 643.076 83.3224C643.076 82.6204 642.968 81.9964 642.752 81.4504C642.542 80.8984 642.218 80.4634 641.78 80.1454C641.348 79.8274 640.814 79.6684 640.178 79.6684C639.26 79.6684 638.564 79.9984 638.09 80.6584C637.616 81.3184 637.379 82.2064 637.379 83.3224C637.379 84.4384 637.616 85.3294 638.09 85.9954C638.57 86.6614 639.281 86.9944 640.223 86.9944ZM650.282 88.4524C649.514 88.4524 648.833 88.3384 648.239 88.1104C647.645 87.8824 647.162 87.5524 646.79 87.1204C646.418 86.6884 646.178 86.1694 646.07 85.5634L647.708 85.3024C647.84 85.8364 648.143 86.2564 648.617 86.5624C649.091 86.8684 649.679 87.0214 650.381 87.0214C651.041 87.0214 651.56 86.8864 651.938 86.6164C652.322 86.3404 652.514 85.9624 652.514 85.4824C652.514 85.1944 652.448 84.9694 652.316 84.8074C652.19 84.6454 651.941 84.4924 651.569 84.3484C651.197 84.1984 650.597 84.0124 649.769 83.7904C648.899 83.5564 648.221 83.3194 647.735 83.0794C647.249 82.8334 646.901 82.5514 646.691 82.2334C646.481 81.9154 646.376 81.5194 646.376 81.0454C646.376 80.4814 646.532 79.9864 646.844 79.5604C647.156 79.1284 647.594 78.7954 648.158 78.5614C648.722 78.3214 649.373 78.2014 650.111 78.2014C650.843 78.2014 651.5 78.3214 652.082 78.5614C652.67 78.7954 653.141 79.1284 653.495 79.5604C653.855 79.9864 654.068 80.4814 654.134 81.0454L652.496 81.3424C652.418 80.8144 652.154 80.3974 651.704 80.0914C651.26 79.7854 650.69 79.6324 649.994 79.6324C649.598 79.6324 649.247 79.6894 648.941 79.8034C648.641 79.9114 648.407 80.0674 648.239 80.2714C648.071 80.4694 647.987 80.7004 647.987 80.9644C647.987 81.2104 648.059 81.4144 648.203 81.5764C648.353 81.7384 648.623 81.8944 649.013 82.0444C649.403 82.1884 649.988 82.3594 650.768 82.5574C651.638 82.7794 652.316 83.0164 652.802 83.2684C653.288 83.5204 653.636 83.8174 653.846 84.1594C654.062 84.5014 654.17 84.9274 654.17 85.4374C654.17 86.0614 654.014 86.6014 653.702 87.0574C653.39 87.5074 652.943 87.8524 652.361 88.0924C651.779 88.3324 651.086 88.4524 650.282 88.4524ZM662.905 78.4714H664.516V88.1914H663.085V86.9404C662.719 87.4264 662.26 87.7984 661.708 88.0564C661.162 88.3144 660.541 88.4434 659.845 88.4434C658.873 88.4434 658.099 88.2034 657.523 87.7234C656.947 87.2434 656.545 86.6584 656.317 85.9684C656.089 85.2724 655.975 84.5644 655.975 83.8444V78.4714H657.595V83.3404C657.595 84.3844 657.796 85.2424 658.198 85.9144C658.606 86.5864 659.284 86.9224 660.232 86.9224C661.06 86.9224 661.711 86.6434 662.185 86.0854C662.665 85.5214 662.905 84.6904 662.905 83.5924V78.4714ZM676.998 78.2194C677.664 78.2194 678.243 78.3604 678.735 78.6424C679.227 78.9184 679.605 79.3144 679.869 79.8304C680.133 80.3404 680.265 80.9374 680.265 81.6214L680.256 88.1914H678.654L678.663 81.9724C678.663 81.4984 678.573 81.0874 678.393 80.7394C678.219 80.3854 677.973 80.1154 677.655 79.9294C677.343 79.7434 676.983 79.6504 676.575 79.6504C676.197 79.6504 675.846 79.7374 675.522 79.9114C675.198 80.0854 674.937 80.3494 674.739 80.7034C674.547 81.0574 674.451 81.4954 674.451 82.0174L674.442 88.1914H672.849L672.858 82.0354C672.858 81.5494 672.771 81.1264 672.597 80.7664C672.423 80.4064 672.177 80.1304 671.859 79.9384C671.541 79.7464 671.172 79.6504 670.752 79.6504C670.332 79.6504 669.963 79.7494 669.645 79.9474C669.327 80.1454 669.078 80.4244 668.898 80.7844C668.724 81.1384 668.637 81.5494 668.637 82.0174V88.1914H667.026V78.4714H668.457V79.5064C668.769 79.1044 669.165 78.7894 669.645 78.5614C670.125 78.3334 670.65 78.2194 671.22 78.2194C671.874 78.2194 672.444 78.3604 672.93 78.6424C673.416 78.9184 673.791 79.3114 674.055 79.8214C674.343 79.3174 674.745 78.9244 675.261 78.6424C675.783 78.3604 676.362 78.2194 676.998 78.2194Z" fill="#100F0F"/>
</g>
<rect width="918" height="56" transform="translate(0 0.191406)" fill="#F2F2F2"/>
<path d="M21.49 34.4164C20.435 34.4164 19.5275 34.1814 18.7675 33.7114C18.0125 33.2414 17.4375 32.5839 17.0425 31.7389C16.6475 30.8889 16.45 29.9064 16.45 28.7914C16.45 27.6764 16.6475 26.6964 17.0425 25.8514C17.4375 25.0014 18.0125 24.3414 18.7675 23.8714C19.5275 23.4014 20.435 23.1664 21.49 23.1664C22.31 23.1664 23.04 23.3089 23.68 23.5939C24.32 23.8789 24.855 24.2839 25.285 24.8089C25.72 25.3339 26.04 25.9589 26.245 26.6839L24.8875 27.0439C24.6625 26.2189 24.2625 25.5789 23.6875 25.1239C23.1125 24.6689 22.38 24.4414 21.49 24.4414C20.705 24.4414 20.04 24.6214 19.495 24.9814C18.955 25.3414 18.5475 25.8464 18.2725 26.4964C18.0025 27.1464 17.865 27.9114 17.86 28.7914C17.855 29.6614 17.99 30.4239 18.265 31.0789C18.54 31.7289 18.9475 32.2364 19.4875 32.6014C20.0325 32.9614 20.7 33.1414 21.49 33.1414C22.38 33.1414 23.1125 32.9139 23.6875 32.4589C24.2625 31.9989 24.6625 31.3589 24.8875 30.5389L26.245 30.8989C26.04 31.6189 25.72 32.2439 25.285 32.7739C24.855 33.2989 24.32 33.7039 23.68 33.9889C23.04 34.2739 22.31 34.4164 21.49 34.4164ZM28.0398 34.1914V23.1664H29.3748V34.1914H28.0398ZM33.9277 34.4164C33.3477 34.4164 32.8502 34.3089 32.4352 34.0939C32.0202 33.8739 31.7052 33.5814 31.4902 33.2164C31.2802 32.8514 31.1752 32.4464 31.1752 32.0014C31.1752 31.3764 31.3452 30.8689 31.6852 30.4789C32.0302 30.0889 32.5227 29.8039 33.1627 29.6239C33.5677 29.5089 34.0177 29.4139 34.5127 29.3389C35.0077 29.2589 35.6902 29.1614 36.5602 29.0464C36.6902 29.0264 36.8152 29.0089 36.9352 28.9939C37.0602 28.9789 37.1752 28.9639 37.2802 28.9489L36.8002 29.2264C36.8102 28.7364 36.7502 28.3364 36.6202 28.0264C36.4902 27.7164 36.2777 27.4864 35.9827 27.3364C35.6877 27.1864 35.2952 27.1114 34.8052 27.1114C34.2952 27.1114 33.8577 27.2264 33.4927 27.4564C33.1327 27.6864 32.8827 28.0439 32.7427 28.5289L31.4752 28.1464C31.6702 27.4214 32.0502 26.8614 32.6152 26.4664C33.1852 26.0664 33.9202 25.8664 34.8202 25.8664C35.5702 25.8664 36.2052 26.0014 36.7252 26.2714C37.2502 26.5364 37.6252 26.9289 37.8502 27.4489C37.9552 27.6789 38.0252 27.9339 38.0602 28.2139C38.0952 28.4939 38.1127 28.8164 38.1127 29.1814V34.1914H36.9277V32.2489L37.2052 32.4289C37.0002 32.8639 36.7402 33.2314 36.4252 33.5314C36.1152 33.8264 35.7502 34.0464 35.3302 34.1914C34.9152 34.3414 34.4477 34.4164 33.9277 34.4164ZM34.1302 33.2989C34.5952 33.2989 35.0052 33.2164 35.3602 33.0514C35.7152 32.8814 36.0002 32.6564 36.2152 32.3764C36.4352 32.0914 36.5802 31.7764 36.6502 31.4314C36.7102 31.2414 36.7477 31.0339 36.7627 30.8089C36.7777 30.5789 36.7852 30.3189 36.7852 30.0289V29.8864L37.2502 30.0889L36.6952 30.1639C35.9852 30.2539 35.4052 30.3339 34.9552 30.4039C34.5052 30.4739 34.1077 30.5589 33.7627 30.6589C33.3827 30.7739 33.0777 30.9364 32.8477 31.1464C32.6177 31.3564 32.5027 31.6389 32.5027 31.9939C32.5027 32.2289 32.5602 32.4464 32.6752 32.6464C32.7902 32.8414 32.9702 32.9989 33.2152 33.1189C33.4602 33.2389 33.7652 33.2989 34.1302 33.2989ZM43.1227 34.4089C42.4827 34.4089 41.9152 34.3139 41.4202 34.1239C40.9252 33.9339 40.5227 33.6589 40.2127 33.2989C39.9077 32.9389 39.7077 32.5064 39.6127 32.0014L40.9777 31.7839C41.0527 32.0789 41.1902 32.3339 41.3902 32.5489C41.5952 32.7639 41.8527 32.9289 42.1627 33.0439C42.4727 33.1589 42.8202 33.2164 43.2052 33.2164C43.5702 33.2164 43.8852 33.1639 44.1502 33.0589C44.4202 32.9539 44.6252 32.8064 44.7652 32.6164C44.9102 32.4214 44.9827 32.1939 44.9827 31.9339C44.9827 31.6939 44.9277 31.5064 44.8177 31.3714C44.7127 31.2314 44.5052 31.1014 44.1952 30.9814C43.8902 30.8614 43.3902 30.7089 42.6952 30.5239C41.9702 30.3289 41.4052 30.1314 41.0002 29.9314C40.5952 29.7264 40.3052 29.4914 40.1302 29.2264C39.9552 28.9614 39.8677 28.6314 39.8677 28.2364C39.8677 27.7664 39.9977 27.3514 40.2577 26.9914C40.5177 26.6314 40.8827 26.3539 41.3527 26.1589C41.8227 25.9639 42.3652 25.8664 42.9802 25.8664C43.5902 25.8664 44.1377 25.9639 44.6227 26.1589C45.1127 26.3539 45.5052 26.6314 45.8002 26.9914C46.1002 27.3514 46.2777 27.7664 46.3327 28.2364L44.9677 28.4839C44.9227 28.1989 44.8127 27.9514 44.6377 27.7414C44.4627 27.5264 44.2327 27.3614 43.9477 27.2464C43.6677 27.1314 43.3452 27.0689 42.9802 27.0589C42.6352 27.0489 42.3277 27.0889 42.0577 27.1789C41.7927 27.2689 41.5852 27.3989 41.4352 27.5689C41.2852 27.7389 41.2102 27.9389 41.2102 28.1689C41.2102 28.3689 41.2727 28.5389 41.3977 28.6789C41.5227 28.8139 41.7452 28.9439 42.0652 29.0689C42.3852 29.1889 42.8727 29.3314 43.5277 29.4964C44.2527 29.6814 44.8177 29.8789 45.2227 30.0889C45.6277 30.2989 45.9177 30.5464 46.0927 30.8314C46.2727 31.1164 46.3627 31.4714 46.3627 31.8964C46.3627 32.4114 46.2327 32.8589 45.9727 33.2389C45.7177 33.6189 45.3452 33.9089 44.8552 34.1089C44.3702 34.3089 43.7927 34.4089 43.1227 34.4089ZM51.0768 34.4089C50.4368 34.4089 49.8693 34.3139 49.3743 34.1239C48.8793 33.9339 48.4768 33.6589 48.1668 33.2989C47.8618 32.9389 47.6618 32.5064 47.5668 32.0014L48.9318 31.7839C49.0068 32.0789 49.1443 32.3339 49.3443 32.5489C49.5493 32.7639 49.8068 32.9289 50.1168 33.0439C50.4268 33.1589 50.7743 33.2164 51.1593 33.2164C51.5243 33.2164 51.8393 33.1639 52.1043 33.0589C52.3743 32.9539 52.5793 32.8064 52.7193 32.6164C52.8643 32.4214 52.9368 32.1939 52.9368 31.9339C52.9368 31.6939 52.8818 31.5064 52.7718 31.3714C52.6668 31.2314 52.4593 31.1014 52.1493 30.9814C51.8443 30.8614 51.3443 30.7089 50.6493 30.5239C49.9243 30.3289 49.3593 30.1314 48.9543 29.9314C48.5493 29.7264 48.2593 29.4914 48.0843 29.2264C47.9093 28.9614 47.8218 28.6314 47.8218 28.2364C47.8218 27.7664 47.9518 27.3514 48.2118 26.9914C48.4718 26.6314 48.8368 26.3539 49.3068 26.1589C49.7768 25.9639 50.3193 25.8664 50.9343 25.8664C51.5443 25.8664 52.0918 25.9639 52.5768 26.1589C53.0668 26.3539 53.4593 26.6314 53.7543 26.9914C54.0543 27.3514 54.2318 27.7664 54.2868 28.2364L52.9218 28.4839C52.8768 28.1989 52.7668 27.9514 52.5918 27.7414C52.4168 27.5264 52.1868 27.3614 51.9018 27.2464C51.6218 27.1314 51.2993 27.0689 50.9343 27.0589C50.5893 27.0489 50.2818 27.0889 50.0118 27.1789C49.7468 27.2689 49.5393 27.3989 49.3893 27.5689C49.2393 27.7389 49.1643 27.9389 49.1643 28.1689C49.1643 28.3689 49.2268 28.5389 49.3518 28.6789C49.4768 28.8139 49.6993 28.9439 50.0193 29.0689C50.3393 29.1889 50.8268 29.3314 51.4818 29.4964C52.2068 29.6814 52.7718 29.8789 53.1768 30.0889C53.5818 30.2989 53.8718 30.5464 54.0468 30.8314C54.2268 31.1164 54.3168 31.4714 54.3168 31.8964C54.3168 32.4114 54.1868 32.8589 53.9268 33.2389C53.6718 33.6189 53.2993 33.9089 52.8093 34.1089C52.3243 34.3089 51.7468 34.4089 51.0768 34.4089Z" fill="#4200FF"/>
<path d="M189.05 34.1914V23.3914H193.318C193.603 23.3914 193.868 23.4114 194.113 23.4514C194.683 23.5364 195.168 23.7339 195.568 24.0439C195.968 24.3539 196.27 24.7464 196.475 25.2214C196.68 25.6914 196.783 26.2164 196.783 26.7964C196.783 27.3764 196.68 27.9014 196.475 28.3714C196.27 28.8414 195.968 29.2314 195.568 29.5414C195.168 29.8514 194.683 30.0514 194.113 30.1414C193.868 30.1814 193.603 30.2014 193.318 30.2014H190.385V34.1914H189.05ZM193.273 28.9339C193.528 28.9339 193.753 28.9114 193.948 28.8664C194.278 28.7914 194.553 28.6489 194.773 28.4389C194.993 28.2289 195.155 27.9814 195.26 27.6964C195.365 27.4114 195.418 27.1114 195.418 26.7964C195.418 26.4814 195.365 26.1814 195.26 25.8964C195.155 25.6064 194.993 25.3589 194.773 25.1539C194.553 24.9439 194.278 24.8014 193.948 24.7264C193.753 24.6814 193.528 24.6589 193.273 24.6589H190.385V28.9339H193.273ZM200.581 34.4164C200.001 34.4164 199.504 34.3089 199.089 34.0939C198.674 33.8739 198.359 33.5814 198.144 33.2164C197.934 32.8514 197.829 32.4464 197.829 32.0014C197.829 31.3764 197.999 30.8689 198.339 30.4789C198.684 30.0889 199.176 29.8039 199.816 29.6239C200.221 29.5089 200.671 29.4139 201.166 29.3389C201.661 29.2589 202.344 29.1614 203.214 29.0464C203.344 29.0264 203.469 29.0089 203.589 28.9939C203.714 28.9789 203.829 28.9639 203.934 28.9489L203.454 29.2264C203.464 28.7364 203.404 28.3364 203.274 28.0264C203.144 27.7164 202.931 27.4864 202.636 27.3364C202.341 27.1864 201.949 27.1114 201.459 27.1114C200.949 27.1114 200.511 27.2264 200.146 27.4564C199.786 27.6864 199.536 28.0439 199.396 28.5289L198.129 28.1464C198.324 27.4214 198.704 26.8614 199.269 26.4664C199.839 26.0664 200.574 25.8664 201.474 25.8664C202.224 25.8664 202.859 26.0014 203.379 26.2714C203.904 26.5364 204.279 26.9289 204.504 27.4489C204.609 27.6789 204.679 27.9339 204.714 28.2139C204.749 28.4939 204.766 28.8164 204.766 29.1814V34.1914H203.581V32.2489L203.859 32.4289C203.654 32.8639 203.394 33.2314 203.079 33.5314C202.769 33.8264 202.404 34.0464 201.984 34.1914C201.569 34.3414 201.101 34.4164 200.581 34.4164ZM200.784 33.2989C201.249 33.2989 201.659 33.2164 202.014 33.0514C202.369 32.8814 202.654 32.6564 202.869 32.3764C203.089 32.0914 203.234 31.7764 203.304 31.4314C203.364 31.2414 203.401 31.0339 203.416 30.8089C203.431 30.5789 203.439 30.3189 203.439 30.0289V29.8864L203.904 30.0889L203.349 30.1639C202.639 30.2539 202.059 30.3339 201.609 30.4039C201.159 30.4739 200.761 30.5589 200.416 30.6589C200.036 30.7739 199.731 30.9364 199.501 31.1464C199.271 31.3564 199.156 31.6389 199.156 31.9939C199.156 32.2289 199.214 32.4464 199.329 32.6464C199.444 32.8414 199.624 32.9989 199.869 33.1189C200.114 33.2389 200.419 33.2989 200.784 33.2989ZM209.619 34.4164C208.824 34.4164 208.116 34.2464 207.496 33.9064C206.881 33.5614 206.396 33.0789 206.041 32.4589L207.106 31.7689C207.406 32.2189 207.761 32.5614 208.171 32.7964C208.581 33.0314 209.046 33.1489 209.566 33.1489C209.931 33.1489 210.249 33.0939 210.519 32.9839C210.789 32.8689 210.996 32.7064 211.141 32.4964C211.291 32.2814 211.366 32.0314 211.366 31.7464C211.366 31.4614 211.304 31.2364 211.179 31.0714C211.054 30.9064 210.874 30.7864 210.639 30.7114C210.409 30.6314 210.104 30.5839 209.724 30.5689C209.669 30.5639 209.609 30.5614 209.544 30.5614C209.484 30.5614 209.424 30.5614 209.364 30.5614H208.524V29.4589H209.356C209.736 29.4589 210.054 29.4214 210.309 29.3464C210.569 29.2714 210.771 29.1514 210.916 28.9864C211.061 28.8164 211.134 28.5989 211.134 28.3339C211.134 28.0639 211.064 27.8389 210.924 27.6589C210.789 27.4789 210.604 27.3464 210.369 27.2614C210.134 27.1714 209.869 27.1264 209.574 27.1264C209.144 27.1264 208.721 27.2164 208.306 27.3964C207.896 27.5764 207.536 27.8164 207.226 28.1164L206.416 27.2089C206.841 26.7739 207.326 26.4414 207.871 26.2114C208.421 25.9814 209.016 25.8664 209.656 25.8664C210.186 25.8664 210.666 25.9589 211.096 26.1439C211.531 26.3289 211.874 26.6014 212.124 26.9614C212.379 27.3164 212.506 27.7389 212.506 28.2289C212.506 28.6589 212.406 29.0439 212.206 29.3839C212.006 29.7189 211.711 30.0089 211.321 30.2539L211.269 29.7814C211.589 29.8614 211.856 30.0064 212.071 30.2164C212.291 30.4264 212.456 30.6764 212.566 30.9664C212.676 31.2564 212.731 31.5614 212.731 31.8814C212.731 32.3964 212.594 32.8464 212.319 33.2314C212.049 33.6114 211.676 33.9039 211.201 34.1089C210.731 34.3139 210.204 34.4164 209.619 34.4164ZM214.37 34.1914V26.0914H215.517L218.592 32.3764L221.667 26.0914H222.815V34.1914H221.525V28.8739L218.945 34.1914H218.24L215.66 28.8739V34.1914H214.37ZM228.419 34.4164C227.629 34.4164 226.934 34.2414 226.334 33.8914C225.739 33.5414 225.277 33.0464 224.947 32.4064C224.622 31.7664 224.459 31.0289 224.459 30.1939C224.459 29.3189 224.619 28.5564 224.939 27.9064C225.264 27.2514 225.719 26.7489 226.304 26.3989C226.894 26.0439 227.579 25.8664 228.359 25.8664C229.164 25.8664 229.854 26.0539 230.429 26.4289C231.009 26.7989 231.442 27.3339 231.727 28.0339C232.017 28.7339 232.142 29.5614 232.102 30.5164H230.752V30.0364C230.742 29.3714 230.649 28.8214 230.474 28.3864C230.299 27.9464 230.039 27.6164 229.694 27.3964C229.349 27.1764 228.919 27.0664 228.404 27.0664C227.859 27.0664 227.397 27.1864 227.017 27.4264C226.642 27.6614 226.357 28.0089 226.162 28.4689C225.972 28.9239 225.877 29.4814 225.877 30.1414C225.877 30.7764 225.972 31.3189 226.162 31.7689C226.357 32.2139 226.639 32.5564 227.009 32.7964C227.384 33.0314 227.834 33.1489 228.359 33.1489C228.889 33.1489 229.352 33.0264 229.747 32.7814C230.147 32.5364 230.459 32.1839 230.684 31.7239L231.967 32.1664C231.757 32.6364 231.474 33.0414 231.119 33.3814C230.764 33.7164 230.357 33.9739 229.897 34.1539C229.437 34.3289 228.944 34.4164 228.419 34.4164ZM225.427 30.5164V29.4439H231.412V30.5164H225.427ZM237.492 34.4164C236.757 34.4164 236.124 34.2314 235.594 33.8614C235.069 33.4864 234.669 32.9764 234.394 32.3314C234.124 31.6864 233.989 30.9539 233.989 30.1339C233.989 29.3089 234.124 28.5739 234.394 27.9289C234.664 27.2839 235.064 26.7789 235.594 26.4139C236.124 26.0489 236.759 25.8664 237.499 25.8664C238.234 25.8664 238.874 26.0514 239.419 26.4214C239.969 26.7864 240.389 27.2939 240.679 27.9439C240.974 28.5889 241.122 29.3189 241.122 30.1339C241.122 30.9439 240.974 31.6739 240.679 32.3239C240.389 32.9739 239.969 33.4864 239.419 33.8614C238.874 34.2314 238.232 34.4164 237.492 34.4164ZM233.764 37.7914V26.0914H234.957V32.0539H235.107V37.7914H233.764ZM237.327 33.1939C237.847 33.1939 238.284 33.0614 238.639 32.7964C238.994 32.5314 239.259 32.1689 239.434 31.7089C239.614 31.2439 239.704 30.7189 239.704 30.1339C239.704 29.5489 239.614 29.0264 239.434 28.5664C239.259 28.1064 238.992 27.7464 238.632 27.4864C238.272 27.2214 237.824 27.0889 237.289 27.0889C236.774 27.0889 236.342 27.2164 235.992 27.4714C235.647 27.7264 235.387 28.0814 235.212 28.5364C235.042 28.9914 234.957 29.5239 234.957 30.1339C234.957 30.7389 235.042 31.2714 235.212 31.7314C235.387 32.1914 235.652 32.5514 236.007 32.8114C236.362 33.0664 236.802 33.1939 237.327 33.1939Z" fill="#4200FF"/>
<path d="M320.2 34.1914V23.3914H321.535V32.9239H326.545V34.1914H320.2ZM327.964 34.1914V26.0914H329.299V34.1914H327.964ZM328.631 24.8389C328.466 24.8389 328.316 24.8014 328.181 24.7264C328.051 24.6464 327.949 24.5414 327.874 24.4114C327.799 24.2764 327.761 24.1289 327.761 23.9689C327.761 23.8089 327.799 23.6639 327.874 23.5339C327.949 23.3989 328.051 23.2939 328.181 23.2189C328.316 23.1389 328.466 23.0989 328.631 23.0989C328.796 23.0989 328.944 23.1389 329.074 23.2189C329.209 23.2939 329.314 23.3989 329.389 23.5339C329.469 23.6639 329.509 23.8089 329.509 23.9689C329.509 24.1289 329.469 24.2764 329.389 24.4114C329.314 24.5414 329.209 24.6464 329.074 24.7264C328.944 24.8014 328.796 24.8389 328.631 24.8389ZM337.317 30.1339C337.317 29.5489 337.249 29.0414 337.114 28.6114C336.984 28.1814 336.754 27.8314 336.424 27.5614C336.099 27.2864 335.664 27.1489 335.119 27.1489C334.659 27.1489 334.264 27.2514 333.934 27.4564C333.604 27.6564 333.347 27.9639 333.162 28.3789C332.982 28.7939 332.892 29.3089 332.892 29.9239L332.014 29.6539C332.014 28.8789 332.154 28.2089 332.434 27.6439C332.714 27.0739 333.112 26.6389 333.627 26.3389C334.142 26.0339 334.747 25.8814 335.442 25.8814C336.257 25.8814 336.904 26.0814 337.384 26.4814C337.864 26.8764 338.197 27.3539 338.382 27.9139C338.572 28.4739 338.667 29.0739 338.667 29.7139V34.1914H337.317V30.1339ZM331.542 34.1914V26.0914H332.742V28.2589H332.892V34.1914H331.542ZM344.053 34.4164C343.263 34.4164 342.568 34.2414 341.968 33.8914C341.373 33.5414 340.911 33.0464 340.581 32.4064C340.256 31.7664 340.093 31.0289 340.093 30.1939C340.093 29.3189 340.253 28.5564 340.573 27.9064C340.898 27.2514 341.353 26.7489 341.938 26.3989C342.528 26.0439 343.213 25.8664 343.993 25.8664C344.798 25.8664 345.488 26.0539 346.063 26.4289C346.643 26.7989 347.076 27.3339 347.361 28.0339C347.651 28.7339 347.776 29.5614 347.736 30.5164H346.386V30.0364C346.376 29.3714 346.283 28.8214 346.108 28.3864C345.933 27.9464 345.673 27.6164 345.328 27.3964C344.983 27.1764 344.553 27.0664 344.038 27.0664C343.493 27.0664 343.031 27.1864 342.651 27.4264C342.276 27.6614 341.991 28.0089 341.796 28.4689C341.606 28.9239 341.511 29.4814 341.511 30.1414C341.511 30.7764 341.606 31.3189 341.796 31.7689C341.991 32.2139 342.273 32.5564 342.643 32.7964C343.018 33.0314 343.468 33.1489 343.993 33.1489C344.523 33.1489 344.986 33.0264 345.381 32.7814C345.781 32.5364 346.093 32.1839 346.318 31.7239L347.601 32.1664C347.391 32.6364 347.108 33.0414 346.753 33.3814C346.398 33.7164 345.991 33.9739 345.531 34.1539C345.071 34.3289 344.578 34.4164 344.053 34.4164ZM341.061 30.5164V29.4439H347.046V30.5164H341.061ZM352.408 34.1914V23.3914H353.743V28.1539H359.428V23.3914H360.763V34.1914H359.428V29.4214H353.743V34.1914H352.408ZM366.377 34.4164C365.587 34.4164 364.892 34.2414 364.292 33.8914C363.697 33.5414 363.235 33.0464 362.905 32.4064C362.58 31.7664 362.417 31.0289 362.417 30.1939C362.417 29.3189 362.577 28.5564 362.897 27.9064C363.222 27.2514 363.677 26.7489 364.262 26.3989C364.852 26.0439 365.537 25.8664 366.317 25.8664C367.122 25.8664 367.812 26.0539 368.387 26.4289C368.967 26.7989 369.4 27.3339 369.685 28.0339C369.975 28.7339 370.1 29.5614 370.06 30.5164H368.71V30.0364C368.7 29.3714 368.607 28.8214 368.432 28.3864C368.257 27.9464 367.997 27.6164 367.652 27.3964C367.307 27.1764 366.877 27.0664 366.362 27.0664C365.817 27.0664 365.355 27.1864 364.975 27.4264C364.6 27.6614 364.315 28.0089 364.12 28.4689C363.93 28.9239 363.835 29.4814 363.835 30.1414C363.835 30.7764 363.93 31.3189 364.12 31.7689C364.315 32.2139 364.597 32.5564 364.967 32.7964C365.342 33.0314 365.792 33.1489 366.317 33.1489C366.847 33.1489 367.31 33.0264 367.705 32.7814C368.105 32.5364 368.417 32.1839 368.642 31.7239L369.925 32.1664C369.715 32.6364 369.432 33.0414 369.077 33.3814C368.722 33.7164 368.315 33.9739 367.855 34.1539C367.395 34.3289 366.902 34.4164 366.377 34.4164ZM363.385 30.5164V29.4439H369.37V30.5164H363.385ZM371.88 34.1914V26.0914H373.215V34.1914H371.88ZM372.547 24.8389C372.382 24.8389 372.232 24.8014 372.097 24.7264C371.967 24.6464 371.865 24.5414 371.79 24.4114C371.715 24.2764 371.677 24.1289 371.677 23.9689C371.677 23.8089 371.715 23.6639 371.79 23.5339C371.865 23.3989 371.967 23.2939 372.097 23.2189C372.232 23.1389 372.382 23.0989 372.547 23.0989C372.712 23.0989 372.86 23.1389 372.99 23.2189C373.125 23.2939 373.23 23.3989 373.305 23.5339C373.385 23.6639 373.425 23.8089 373.425 23.9689C373.425 24.1289 373.385 24.2764 373.305 24.4114C373.23 24.5414 373.125 24.6464 372.99 24.7264C372.86 24.8014 372.712 24.8389 372.547 24.8389ZM378.743 38.0164C378.078 38.0164 377.458 37.8639 376.883 37.5589C376.313 37.2589 375.865 36.8189 375.54 36.2389L376.763 35.5939C376.953 35.9689 377.225 36.2514 377.58 36.4414C377.94 36.6314 378.33 36.7264 378.75 36.7264C379.265 36.7264 379.69 36.6314 380.025 36.4414C380.365 36.2564 380.618 35.9814 380.783 35.6164C380.948 35.2514 381.028 34.7889 381.023 34.2289V32.0164H381.18V26.0914H382.365V34.2439C382.365 34.7339 382.333 35.1489 382.268 35.4889C382.113 36.3389 381.733 36.9714 381.128 37.3864C380.528 37.8064 379.733 38.0164 378.743 38.0164ZM378.645 34.4164C377.91 34.4164 377.268 34.2314 376.718 33.8614C376.168 33.4864 375.745 32.9739 375.45 32.3239C375.16 31.6739 375.015 30.9439 375.015 30.1339C375.015 29.3189 375.163 28.5889 375.458 27.9439C375.753 27.2939 376.173 26.7864 376.718 26.4214C377.268 26.0514 377.908 25.8664 378.638 25.8664C379.383 25.8664 380.018 26.0489 380.543 26.4139C381.073 26.7789 381.473 27.2839 381.743 27.9289C382.013 28.5739 382.148 29.3089 382.148 30.1339C382.148 30.9539 382.013 31.6864 381.743 32.3314C381.473 32.9764 381.073 33.4864 380.543 33.8614C380.018 34.2314 379.385 34.4164 378.645 34.4164ZM378.81 33.1939C379.34 33.1939 379.78 33.0664 380.13 32.8114C380.485 32.5514 380.748 32.1914 380.918 31.7314C381.093 31.2714 381.18 30.7389 381.18 30.1339C381.18 29.5239 381.095 28.9914 380.925 28.5364C380.755 28.0814 380.495 27.7264 380.145 27.4714C379.795 27.2164 379.363 27.0889 378.848 27.0889C378.318 27.0889 377.87 27.2214 377.505 27.4864C377.145 27.7464 376.875 28.1064 376.695 28.5664C376.52 29.0264 376.433 29.5489 376.433 30.1339C376.433 30.7189 376.52 31.2439 376.695 31.7089C376.875 32.1689 377.143 32.5314 377.498 32.7964C377.858 33.0614 378.295 33.1939 378.81 33.1939ZM390.227 30.1339C390.227 29.5489 390.159 29.0414 390.024 28.6114C389.894 28.1814 389.664 27.8314 389.334 27.5614C389.009 27.2864 388.574 27.1489 388.029 27.1489C387.569 27.1489 387.174 27.2514 386.844 27.4564C386.514 27.6564 386.257 27.9639 386.072 28.3789C385.892 28.7939 385.802 29.3089 385.802 29.9239L384.924 29.6539C384.924 28.8789 385.064 28.2089 385.344 27.6439C385.624 27.0739 386.022 26.6389 386.537 26.3389C387.052 26.0339 387.657 25.8814 388.352 25.8814C389.167 25.8814 389.814 26.0814 390.294 26.4814C390.774 26.8764 391.107 27.3539 391.292 27.9139C391.482 28.4739 391.577 29.0739 391.577 29.7139V34.1914H390.227V30.1339ZM384.452 34.1914V23.3914H385.652V29.3539H385.802V34.1914H384.452ZM398.049 34.1914C397.254 34.3514 396.537 34.3564 395.897 34.2064C395.262 34.0614 394.812 33.7314 394.547 33.2164C394.422 32.9614 394.342 32.7039 394.307 32.4439C394.277 32.1789 394.264 31.8264 394.269 31.3864V31.1314V23.8414H395.604V31.0714V31.3039C395.599 31.6289 395.604 31.8814 395.619 32.0614C395.639 32.2364 395.689 32.3914 395.769 32.5264C395.939 32.8314 396.209 33.0189 396.579 33.0889C396.949 33.1539 397.439 33.1389 398.049 33.0439V34.1914ZM392.627 27.1939V26.0914H398.049V27.1939H392.627Z" fill="#4200FF"/>
<path d="M447.05 34.1914V23.3914H448.385V28.1539H454.07V23.3914H455.405V34.1914H454.07V29.4214H448.385V34.1914H447.05ZM459.811 34.4164C459.231 34.4164 458.734 34.3089 458.319 34.0939C457.904 33.8739 457.589 33.5814 457.374 33.2164C457.164 32.8514 457.059 32.4464 457.059 32.0014C457.059 31.3764 457.229 30.8689 457.569 30.4789C457.914 30.0889 458.406 29.8039 459.046 29.6239C459.451 29.5089 459.901 29.4139 460.396 29.3389C460.891 29.2589 461.574 29.1614 462.444 29.0464C462.574 29.0264 462.699 29.0089 462.819 28.9939C462.944 28.9789 463.059 28.9639 463.164 28.9489L462.684 29.2264C462.694 28.7364 462.634 28.3364 462.504 28.0264C462.374 27.7164 462.161 27.4864 461.866 27.3364C461.571 27.1864 461.179 27.1114 460.689 27.1114C460.179 27.1114 459.741 27.2264 459.376 27.4564C459.016 27.6864 458.766 28.0439 458.626 28.5289L457.359 28.1464C457.554 27.4214 457.934 26.8614 458.499 26.4664C459.069 26.0664 459.804 25.8664 460.704 25.8664C461.454 25.8664 462.089 26.0014 462.609 26.2714C463.134 26.5364 463.509 26.9289 463.734 27.4489C463.839 27.6789 463.909 27.9339 463.944 28.2139C463.979 28.4939 463.996 28.8164 463.996 29.1814V34.1914H462.811V32.2489L463.089 32.4289C462.884 32.8639 462.624 33.2314 462.309 33.5314C461.999 33.8264 461.634 34.0464 461.214 34.1914C460.799 34.3414 460.331 34.4164 459.811 34.4164ZM460.014 33.2989C460.479 33.2989 460.889 33.2164 461.244 33.0514C461.599 32.8814 461.884 32.6564 462.099 32.3764C462.319 32.0914 462.464 31.7764 462.534 31.4314C462.594 31.2414 462.631 31.0339 462.646 30.8089C462.661 30.5789 462.669 30.3189 462.669 30.0289V29.8864L463.134 30.0889L462.579 30.1639C461.869 30.2539 461.289 30.3339 460.839 30.4039C460.389 30.4739 459.991 30.5589 459.646 30.6589C459.266 30.7739 458.961 30.9364 458.731 31.1464C458.501 31.3564 458.386 31.6389 458.386 31.9939C458.386 32.2289 458.444 32.4464 458.559 32.6464C458.674 32.8414 458.854 32.9989 459.099 33.1189C459.344 33.2389 459.649 33.2989 460.014 33.2989ZM470.821 31.2739C470.531 31.4189 470.194 31.5364 469.809 31.6264C469.429 31.7164 469.031 31.7614 468.616 31.7614C467.796 31.7614 467.131 31.5789 466.621 31.2139C466.111 30.8439 465.781 30.3089 465.631 29.6089C465.541 29.1939 465.496 28.6364 465.496 27.9364V26.0914H466.846V27.9364C466.846 28.4064 466.876 28.7914 466.936 29.0914C467.036 29.5914 467.246 29.9664 467.566 30.2164C467.886 30.4614 468.334 30.5839 468.909 30.5839C469.289 30.5839 469.644 30.5364 469.974 30.4414C470.304 30.3414 470.586 30.2064 470.821 30.0364V26.0914H472.164V34.1914H470.821V31.2739ZM477.777 34.4164C476.987 34.4164 476.292 34.2414 475.692 33.8914C475.097 33.5414 474.634 33.0464 474.304 32.4064C473.979 31.7664 473.817 31.0289 473.817 30.1939C473.817 29.3189 473.977 28.5564 474.297 27.9064C474.622 27.2514 475.077 26.7489 475.662 26.3989C476.252 26.0439 476.937 25.8664 477.717 25.8664C478.522 25.8664 479.212 26.0539 479.787 26.4289C480.367 26.7989 480.799 27.3339 481.084 28.0339C481.374 28.7339 481.499 29.5614 481.459 30.5164H480.109V30.0364C480.099 29.3714 480.007 28.8214 479.832 28.3864C479.657 27.9464 479.397 27.6164 479.052 27.3964C478.707 27.1764 478.277 27.0664 477.762 27.0664C477.217 27.0664 476.754 27.1864 476.374 27.4264C475.999 27.6614 475.714 28.0089 475.519 28.4689C475.329 28.9239 475.234 29.4814 475.234 30.1414C475.234 30.7764 475.329 31.3189 475.519 31.7689C475.714 32.2139 475.997 32.5564 476.367 32.7964C476.742 33.0314 477.192 33.1489 477.717 33.1489C478.247 33.1489 478.709 33.0264 479.104 32.7814C479.504 32.5364 479.817 32.1839 480.042 31.7239L481.324 32.1664C481.114 32.6364 480.832 33.0414 480.477 33.3814C480.122 33.7164 479.714 33.9739 479.254 34.1539C478.794 34.3289 478.302 34.4164 477.777 34.4164ZM474.784 30.5164V29.4439H480.769V30.5164H474.784ZM486.849 34.4164C486.114 34.4164 485.482 34.2314 484.952 33.8614C484.427 33.4864 484.027 32.9764 483.752 32.3314C483.482 31.6864 483.347 30.9539 483.347 30.1339C483.347 29.3089 483.482 28.5739 483.752 27.9289C484.022 27.2839 484.422 26.7789 484.952 26.4139C485.482 26.0489 486.117 25.8664 486.857 25.8664C487.592 25.8664 488.232 26.0514 488.777 26.4214C489.327 26.7864 489.747 27.2939 490.037 27.9439C490.332 28.5889 490.479 29.3189 490.479 30.1339C490.479 30.9439 490.332 31.6739 490.037 32.3239C489.747 32.9739 489.327 33.4864 488.777 33.8614C488.232 34.2314 487.589 34.4164 486.849 34.4164ZM483.122 37.7914V26.0914H484.314V32.0539H484.464V37.7914H483.122ZM486.684 33.1939C487.204 33.1939 487.642 33.0614 487.997 32.7964C488.352 32.5314 488.617 32.1689 488.792 31.7089C488.972 31.2439 489.062 30.7189 489.062 30.1339C489.062 29.5489 488.972 29.0264 488.792 28.5664C488.617 28.1064 488.349 27.7464 487.989 27.4864C487.629 27.2214 487.182 27.0889 486.647 27.0889C486.132 27.0889 485.699 27.2164 485.349 27.4714C485.004 27.7264 484.744 28.0814 484.569 28.5364C484.399 28.9914 484.314 29.5239 484.314 30.1339C484.314 30.7389 484.399 31.2714 484.569 31.7314C484.744 32.1914 485.009 32.5514 485.364 32.8114C485.719 33.0664 486.159 33.1939 486.684 33.1939ZM494.268 34.1914V27.3064H491.448V26.0914H498.423V27.3064H495.603V34.1914H494.268ZM501.882 34.4164C501.302 34.4164 500.804 34.3089 500.389 34.0939C499.974 33.8739 499.659 33.5814 499.444 33.2164C499.234 32.8514 499.129 32.4464 499.129 32.0014C499.129 31.3764 499.299 30.8689 499.639 30.4789C499.984 30.0889 500.477 29.8039 501.117 29.6239C501.522 29.5089 501.972 29.4139 502.467 29.3389C502.962 29.2589 503.644 29.1614 504.514 29.0464C504.644 29.0264 504.769 29.0089 504.889 28.9939C505.014 28.9789 505.129 28.9639 505.234 28.9489L504.754 29.2264C504.764 28.7364 504.704 28.3364 504.574 28.0264C504.444 27.7164 504.232 27.4864 503.937 27.3364C503.642 27.1864 503.249 27.1114 502.759 27.1114C502.249 27.1114 501.812 27.2264 501.447 27.4564C501.087 27.6864 500.837 28.0439 500.697 28.5289L499.429 28.1464C499.624 27.4214 500.004 26.8614 500.569 26.4664C501.139 26.0664 501.874 25.8664 502.774 25.8664C503.524 25.8664 504.159 26.0014 504.679 26.2714C505.204 26.5364 505.579 26.9289 505.804 27.4489C505.909 27.6789 505.979 27.9339 506.014 28.2139C506.049 28.4939 506.067 28.8164 506.067 29.1814V34.1914H504.882V32.2489L505.159 32.4289C504.954 32.8639 504.694 33.2314 504.379 33.5314C504.069 33.8264 503.704 34.0464 503.284 34.1914C502.869 34.3414 502.402 34.4164 501.882 34.4164ZM502.084 33.2989C502.549 33.2989 502.959 33.2164 503.314 33.0514C503.669 32.8814 503.954 32.6564 504.169 32.3764C504.389 32.0914 504.534 31.7764 504.604 31.4314C504.664 31.2414 504.702 31.0339 504.717 30.8089C504.732 30.5789 504.739 30.3189 504.739 30.0289V29.8864L505.204 30.0889L504.649 30.1639C503.939 30.2539 503.359 30.3339 502.909 30.4039C502.459 30.4739 502.062 30.5589 501.717 30.6589C501.337 30.7739 501.032 30.9364 500.802 31.1464C500.572 31.3564 500.457 31.6389 500.457 31.9939C500.457 32.2289 500.514 32.4464 500.629 32.6464C500.744 32.8414 500.924 32.9989 501.169 33.1189C501.414 33.2389 501.719 33.2989 502.084 33.2989ZM508.009 34.1914V26.0914H509.344V29.5039H513.604V26.0914H514.939V34.1914H513.604V30.7714H509.344V34.1914H508.009ZM523.67 26.0914V34.1914H522.38V28.2214L518.135 34.1914H517.033V26.0914H518.323V31.9789L522.575 26.0914H523.67ZM529.281 34.4164C528.491 34.4164 527.796 34.2414 527.196 33.8914C526.601 33.5414 526.138 33.0464 525.808 32.4064C525.483 31.7664 525.321 31.0289 525.321 30.1939C525.321 29.3189 525.481 28.5564 525.801 27.9064C526.126 27.2514 526.581 26.7489 527.166 26.3989C527.756 26.0439 528.441 25.8664 529.221 25.8664C530.026 25.8664 530.716 26.0539 531.291 26.4289C531.871 26.7989 532.303 27.3339 532.588 28.0339C532.878 28.7339 533.003 29.5614 532.963 30.5164H531.613V30.0364C531.603 29.3714 531.511 28.8214 531.336 28.3864C531.161 27.9464 530.901 27.6164 530.556 27.3964C530.211 27.1764 529.781 27.0664 529.266 27.0664C528.721 27.0664 528.258 27.1864 527.878 27.4264C527.503 27.6614 527.218 28.0089 527.023 28.4689C526.833 28.9239 526.738 29.4814 526.738 30.1414C526.738 30.7764 526.833 31.3189 527.023 31.7689C527.218 32.2139 527.501 32.5564 527.871 32.7964C528.246 33.0314 528.696 33.1489 529.221 33.1489C529.751 33.1489 530.213 33.0264 530.608 32.7814C531.008 32.5364 531.321 32.1839 531.546 31.7239L532.828 32.1664C532.618 32.6364 532.336 33.0414 531.981 33.3814C531.626 33.7164 531.218 33.9739 530.758 34.1539C530.298 34.3289 529.806 34.4164 529.281 34.4164ZM526.288 30.5164V29.4439H532.273V30.5164H526.288Z" fill="#4200FF"/>
<path d="M577.05 34.1914V23.3914H585.48V34.1914H584.145V24.6589H578.385V34.1914H577.05ZM591.302 34.4164C590.567 34.4164 589.935 34.2314 589.405 33.8614C588.88 33.4864 588.48 32.9764 588.205 32.3314C587.935 31.6864 587.8 30.9539 587.8 30.1339C587.8 29.3089 587.935 28.5739 588.205 27.9289C588.475 27.2839 588.875 26.7789 589.405 26.4139C589.935 26.0489 590.57 25.8664 591.31 25.8664C592.045 25.8664 592.685 26.0514 593.23 26.4214C593.78 26.7864 594.2 27.2939 594.49 27.9439C594.785 28.5889 594.932 29.3189 594.932 30.1339C594.932 30.9439 594.785 31.6739 594.49 32.3239C594.2 32.9739 593.78 33.4864 593.23 33.8614C592.685 34.2314 592.042 34.4164 591.302 34.4164ZM587.575 37.7914V26.0914H588.767V32.0539H588.917V37.7914H587.575ZM591.137 33.1939C591.657 33.1939 592.095 33.0614 592.45 32.7964C592.805 32.5314 593.07 32.1689 593.245 31.7089C593.425 31.2439 593.515 30.7189 593.515 30.1339C593.515 29.5489 593.425 29.0264 593.245 28.5664C593.07 28.1064 592.802 27.7464 592.442 27.4864C592.082 27.2214 591.635 27.0889 591.1 27.0889C590.585 27.0889 590.152 27.2164 589.802 27.4714C589.457 27.7264 589.197 28.0814 589.022 28.5364C588.852 28.9914 588.767 29.5239 588.767 30.1339C588.767 30.7389 588.852 31.2714 589.022 31.7314C589.197 32.1914 589.462 32.5514 589.817 32.8114C590.172 33.0664 590.612 33.1939 591.137 33.1939ZM603.206 26.0914V34.1914H601.916V28.2214L597.671 34.1914H596.569V26.0914H597.859V31.9789L602.111 26.0914H603.206ZM605.299 34.1914V26.0914H606.447L609.522 32.3764L612.597 26.0914H613.744V34.1914H612.454V28.8739L609.874 34.1914H609.169L606.589 28.8739V34.1914H605.299ZM619.349 34.4164C618.559 34.4164 617.864 34.2414 617.264 33.8914C616.669 33.5414 616.207 33.0464 615.877 32.4064C615.552 31.7664 615.389 31.0289 615.389 30.1939C615.389 29.3189 615.549 28.5564 615.869 27.9064C616.194 27.2514 616.649 26.7489 617.234 26.3989C617.824 26.0439 618.509 25.8664 619.289 25.8664C620.094 25.8664 620.784 26.0539 621.359 26.4289C621.939 26.7989 622.372 27.3339 622.657 28.0339C622.947 28.7339 623.072 29.5614 623.032 30.5164H621.682V30.0364C621.672 29.3714 621.579 28.8214 621.404 28.3864C621.229 27.9464 620.969 27.6164 620.624 27.3964C620.279 27.1764 619.849 27.0664 619.334 27.0664C618.789 27.0664 618.327 27.1864 617.947 27.4264C617.572 27.6614 617.287 28.0089 617.092 28.4689C616.902 28.9239 616.807 29.4814 616.807 30.1414C616.807 30.7764 616.902 31.3189 617.092 31.7689C617.287 32.2139 617.569 32.5564 617.939 32.7964C618.314 33.0314 618.764 33.1489 619.289 33.1489C619.819 33.1489 620.282 33.0264 620.677 32.7814C621.077 32.5364 621.389 32.1839 621.614 31.7239L622.897 32.1664C622.687 32.6364 622.404 33.0414 622.049 33.3814C621.694 33.7164 621.287 33.9739 620.827 34.1539C620.367 34.3289 619.874 34.4164 619.349 34.4164ZM616.357 30.5164V29.4439H622.342V30.5164H616.357ZM628.421 34.4164C627.686 34.4164 627.054 34.2314 626.524 33.8614C625.999 33.4864 625.599 32.9764 625.324 32.3314C625.054 31.6864 624.919 30.9539 624.919 30.1339C624.919 29.3089 625.054 28.5739 625.324 27.9289C625.594 27.2839 625.994 26.7789 626.524 26.4139C627.054 26.0489 627.689 25.8664 628.429 25.8664C629.164 25.8664 629.804 26.0514 630.349 26.4214C630.899 26.7864 631.319 27.2939 631.609 27.9439C631.904 28.5889 632.051 29.3189 632.051 30.1339C632.051 30.9439 631.904 31.6739 631.609 32.3239C631.319 32.9739 630.899 33.4864 630.349 33.8614C629.804 34.2314 629.161 34.4164 628.421 34.4164ZM624.694 37.7914V26.0914H625.886V32.0539H626.036V37.7914H624.694ZM628.256 33.1939C628.776 33.1939 629.214 33.0614 629.569 32.7964C629.924 32.5314 630.189 32.1689 630.364 31.7089C630.544 31.2439 630.634 30.7189 630.634 30.1339C630.634 29.5489 630.544 29.0264 630.364 28.5664C630.189 28.1064 629.921 27.7464 629.561 27.4864C629.201 27.2214 628.754 27.0889 628.219 27.0889C627.704 27.0889 627.271 27.2164 626.921 27.4714C626.576 27.7264 626.316 28.0814 626.141 28.5364C625.971 28.9914 625.886 29.5239 625.886 30.1339C625.886 30.7389 625.971 31.2714 626.141 31.7314C626.316 32.1914 626.581 32.5514 626.936 32.8114C627.291 33.0664 627.731 33.1939 628.256 33.1939Z" fill="#4200FF"/>
<mask id="path-15-inside-3_689_1984" fill="white">
<path d="M0 131.191H922V206.191H0V131.191Z"/>
</mask>
<path d="M0 131.191H922V206.191H0V131.191Z" fill="#F2F2F2"/>
<path d="M0 132.191H922V130.191H0V132.191Z" fill="#4A4A4A" mask="url(#path-15-inside-3_689_1984)"/>
<path d="M18.3025 161.191H17.2V153.091H18.3025V161.191ZM17.7475 151.696C17.5325 151.696 17.35 151.624 17.2 151.479C17.055 151.334 16.9825 151.154 16.9825 150.939C16.9825 150.719 17.055 150.536 17.2 150.391C17.35 150.246 17.5325 150.174 17.7475 150.174C17.9675 150.174 18.15 150.249 18.295 150.399C18.445 150.544 18.52 150.724 18.52 150.939C18.52 151.154 18.445 151.334 18.295 151.479C18.15 151.624 17.9675 151.696 17.7475 151.696ZM23.5735 161.409C22.9435 161.409 22.3835 161.316 21.8935 161.131C21.4035 160.946 21.0035 160.681 20.6935 160.336C20.3885 159.986 20.191 159.569 20.101 159.084L21.226 158.896C21.341 159.361 21.6135 159.729 22.0435 159.999C22.4735 160.269 23.0035 160.404 23.6335 160.404C24.2485 160.404 24.7335 160.276 25.0885 160.021C25.4435 159.761 25.621 159.409 25.621 158.964C25.621 158.704 25.561 158.499 25.441 158.349C25.326 158.194 25.106 158.051 24.781 157.921C24.456 157.791 23.936 157.629 23.221 157.434C22.476 157.234 21.8985 157.034 21.4885 156.834C21.0785 156.629 20.786 156.399 20.611 156.144C20.436 155.884 20.3485 155.561 20.3485 155.176C20.3485 154.721 20.476 154.319 20.731 153.969C20.991 153.619 21.3535 153.349 21.8185 153.159C22.2835 152.964 22.8185 152.866 23.4235 152.866C24.0285 152.866 24.5735 152.966 25.0585 153.166C25.5435 153.361 25.9335 153.639 26.2285 153.999C26.5235 154.354 26.6985 154.764 26.7535 155.229L25.6285 155.431C25.5485 154.946 25.3035 154.566 24.8935 154.291C24.4835 154.011 23.9635 153.871 23.3335 153.871C22.9685 153.871 22.6435 153.924 22.3585 154.029C22.0785 154.134 21.8585 154.281 21.6985 154.471C21.5435 154.661 21.466 154.879 21.466 155.124C21.466 155.349 21.531 155.536 21.661 155.686C21.796 155.831 22.0285 155.971 22.3585 156.106C22.6935 156.236 23.186 156.384 23.836 156.549C24.596 156.744 25.1835 156.946 25.5985 157.156C26.0185 157.361 26.3185 157.606 26.4985 157.891C26.6785 158.171 26.7685 158.524 26.7685 158.949C26.7685 159.454 26.641 159.891 26.386 160.261C26.131 160.631 25.7635 160.916 25.2835 161.116C24.8035 161.311 24.2335 161.409 23.5735 161.409ZM32.7818 156.939H28.2818V155.994H32.7818V156.939ZM36.6582 154.036V158.214V158.656C36.6582 158.906 36.6682 159.109 36.6882 159.264C36.7082 159.414 36.7532 159.549 36.8232 159.669C36.9432 159.899 37.1157 160.064 37.3407 160.164C37.5657 160.264 37.8482 160.314 38.1882 160.314C38.4732 160.314 38.7907 160.284 39.1407 160.224V161.191C38.7407 161.271 38.3682 161.311 38.0232 161.311C37.5082 161.311 37.0582 161.224 36.6732 161.049C36.2882 160.874 36.0032 160.599 35.8182 160.224C35.7132 160.009 35.6432 159.789 35.6082 159.564C35.5782 159.339 35.5632 159.059 35.5632 158.724V158.259V154.036H33.8307V153.091H35.5632V150.841H36.6582V153.091H39.1407V154.036H36.6582ZM41.164 161.191H39.8365L43.0015 157.096L39.904 153.091H41.224L43.6465 156.249L46.0465 153.091H47.3665L44.269 157.096L47.4415 161.191H46.114L43.6465 157.944L41.164 161.191ZM50.5742 154.036V158.214V158.656C50.5742 158.906 50.5842 159.109 50.6042 159.264C50.6242 159.414 50.6692 159.549 50.7392 159.669C50.8592 159.899 51.0317 160.064 51.2567 160.164C51.4817 160.264 51.7642 160.314 52.1042 160.314C52.3892 160.314 52.7067 160.284 53.0567 160.224V161.191C52.6567 161.271 52.2842 161.311 51.9392 161.311C51.4242 161.311 50.9742 161.224 50.5892 161.049C50.2042 160.874 49.9192 160.599 49.7342 160.224C49.6292 160.009 49.5592 159.789 49.5242 159.564C49.4942 159.339 49.4792 159.059 49.4792 158.724V158.259V154.036H47.7467V153.091H49.4792V150.841H50.5742V153.091H53.0567V154.036H50.5742ZM59.0025 156.939H54.5025V155.994H59.0025V156.939ZM69.0289 152.874C69.5689 152.874 70.0414 152.989 70.4464 153.219C70.8564 153.444 71.1714 153.766 71.3914 154.186C71.6114 154.606 71.7214 155.099 71.7214 155.664L71.7139 161.191H70.6114L70.6189 155.874C70.6189 155.464 70.5389 155.109 70.3789 154.809C70.2239 154.504 70.0064 154.271 69.7264 154.111C69.4464 153.946 69.1289 153.864 68.7739 153.864C68.4439 153.864 68.1364 153.939 67.8514 154.089C67.5664 154.234 67.3339 154.464 67.1539 154.779C66.9739 155.094 66.8839 155.489 66.8839 155.964L66.8764 161.191H65.7889L65.7964 155.949C65.7964 155.524 65.7189 155.154 65.5639 154.839C65.4089 154.524 65.1889 154.284 64.9039 154.119C64.6239 153.949 64.2989 153.864 63.9289 153.864C63.5589 153.864 63.2314 153.951 62.9464 154.126C62.6614 154.296 62.4414 154.541 62.2864 154.861C62.1314 155.176 62.0539 155.544 62.0539 155.964V161.191H60.9439V153.091H61.9339V153.946C62.1889 153.611 62.5139 153.349 62.9089 153.159C63.3039 152.969 63.7389 152.874 64.2139 152.874C64.7489 152.874 65.2214 152.991 65.6314 153.226C66.0464 153.461 66.3614 153.799 66.5764 154.239C66.8114 153.809 67.1439 153.474 67.5739 153.234C68.0039 152.994 68.4889 152.874 69.0289 152.874ZM74.3351 157.449C74.3801 158.379 74.6326 159.096 75.0926 159.601C75.5526 160.106 76.1851 160.359 76.9901 160.359C77.5651 160.359 78.0701 160.226 78.5051 159.961C78.9401 159.691 79.2826 159.304 79.5326 158.799L80.5601 159.196C80.2401 159.901 79.7701 160.449 79.1501 160.839C78.5301 161.224 77.8251 161.416 77.0351 161.416C76.2551 161.416 75.5726 161.241 74.9876 160.891C74.4026 160.541 73.9501 160.049 73.6301 159.414C73.3151 158.774 73.1576 158.029 73.1576 157.179C73.1576 156.304 73.3126 155.541 73.6226 154.891C73.9376 154.241 74.3826 153.741 74.9576 153.391C75.5376 153.041 76.2151 152.866 76.9901 152.866C77.7651 152.866 78.4301 153.041 78.9851 153.391C79.5451 153.736 79.9726 154.236 80.2676 154.891C80.5676 155.541 80.7176 156.316 80.7176 157.216V157.449H74.3351ZM77.0201 153.879C76.2451 153.879 75.6276 154.106 75.1676 154.561C74.7126 155.016 74.4426 155.671 74.3576 156.526H79.5626C79.4826 155.651 79.2276 154.991 78.7976 154.546C78.3676 154.101 77.7751 153.879 77.0201 153.879ZM88.0595 150.391H89.1695V161.191H88.1795V160.059C87.8795 160.489 87.5045 160.824 87.0545 161.064C86.6095 161.299 86.0995 161.416 85.5245 161.416C84.7845 161.416 84.142 161.231 83.597 160.861C83.057 160.491 82.6445 159.981 82.3595 159.331C82.0745 158.681 81.932 157.949 81.932 157.134C81.932 156.324 82.0745 155.596 82.3595 154.951C82.6445 154.301 83.0545 153.791 83.5895 153.421C84.1295 153.051 84.7595 152.866 85.4795 152.866C86.0295 152.866 86.5195 152.969 86.9495 153.174C87.3845 153.379 87.7545 153.669 88.0595 154.044V150.391ZM85.637 160.389C86.197 160.389 86.667 160.251 87.047 159.976C87.427 159.696 87.7095 159.314 87.8945 158.829C88.0845 158.339 88.1795 157.774 88.1795 157.134C88.1795 156.489 88.0845 155.924 87.8945 155.439C87.7095 154.949 87.427 154.569 87.047 154.299C86.672 154.029 86.2095 153.894 85.6595 153.894C85.0995 153.894 84.627 154.034 84.242 154.314C83.857 154.594 83.5695 154.979 83.3795 155.469C83.1945 155.954 83.102 156.509 83.102 157.134C83.102 157.759 83.197 158.319 83.387 158.814C83.582 159.304 83.8695 159.689 84.2495 159.969C84.6295 160.249 85.092 160.389 85.637 160.389ZM92.5261 161.191H91.4236V153.091H92.5261V161.191ZM91.9711 151.696C91.7561 151.696 91.5736 151.624 91.4236 151.479C91.2786 151.334 91.2061 151.154 91.2061 150.939C91.2061 150.719 91.2786 150.536 91.4236 150.391C91.5736 150.246 91.7561 150.174 91.9711 150.174C92.1911 150.174 92.3736 150.249 92.5186 150.399C92.6686 150.544 92.7436 150.724 92.7436 150.939C92.7436 151.154 92.6686 151.334 92.5186 151.479C92.3736 151.624 92.1911 151.696 91.9711 151.696ZM100.482 153.091H101.585V161.191H100.595V160.066C100.295 160.501 99.9121 160.831 99.4471 161.056C98.9821 161.281 98.4571 161.394 97.8721 161.394C97.1071 161.394 96.4821 161.209 95.9971 160.839C95.5121 160.469 95.1621 159.994 94.9471 159.414C94.7321 158.829 94.6246 158.206 94.6246 157.546V153.091H95.7346V157.224C95.7346 158.179 95.9246 158.939 96.3046 159.504C96.6846 160.064 97.2771 160.344 98.0821 160.344C98.8521 160.344 99.4446 160.086 99.8596 159.571C100.275 159.056 100.482 158.336 100.482 157.411V153.091ZM111.758 152.874C112.298 152.874 112.771 152.989 113.176 153.219C113.586 153.444 113.901 153.766 114.121 154.186C114.341 154.606 114.451 155.099 114.451 155.664L114.443 161.191H113.341L113.348 155.874C113.348 155.464 113.268 155.109 113.108 154.809C112.953 154.504 112.736 154.271 112.456 154.111C112.176 153.946 111.858 153.864 111.503 153.864C111.173 153.864 110.866 153.939 110.581 154.089C110.296 154.234 110.063 154.464 109.883 154.779C109.703 155.094 109.613 155.489 109.613 155.964L109.606 161.191H108.518L108.526 155.949C108.526 155.524 108.448 155.154 108.293 154.839C108.138 154.524 107.918 154.284 107.633 154.119C107.353 153.949 107.028 153.864 106.658 153.864C106.288 153.864 105.961 153.951 105.676 154.126C105.391 154.296 105.171 154.541 105.016 154.861C104.861 155.176 104.783 155.544 104.783 155.964V161.191H103.673V153.091H104.663V153.946C104.918 153.611 105.243 153.349 105.638 153.159C106.033 152.969 106.468 152.874 106.943 152.874C107.478 152.874 107.951 152.991 108.361 153.226C108.776 153.461 109.091 153.799 109.306 154.239C109.541 153.809 109.873 153.474 110.303 153.234C110.733 152.994 111.218 152.874 111.758 152.874Z" fill="#100F0F"/>
<path d="M192.05 161.191H190.933V151.621L188.9 152.844V151.606L190.933 150.391H192.05V161.191ZM198.21 154.224C198.86 154.224 199.455 154.384 199.995 154.704C200.54 155.019 200.97 155.449 201.285 155.994C201.6 156.539 201.757 157.139 201.757 157.794C201.757 158.444 201.59 159.046 201.255 159.601C200.925 160.156 200.477 160.599 199.912 160.929C199.347 161.254 198.737 161.416 198.082 161.416C197.532 161.416 197.017 161.304 196.537 161.079C196.057 160.849 195.647 160.531 195.307 160.126C194.972 159.716 194.735 159.249 194.595 158.724L195.652 158.439C195.747 158.819 195.917 159.154 196.162 159.444C196.412 159.729 196.707 159.949 197.047 160.104C197.387 160.259 197.742 160.336 198.112 160.336C198.582 160.336 199.01 160.221 199.395 159.991C199.785 159.761 200.092 159.451 200.317 159.061C200.542 158.671 200.655 158.249 200.655 157.794C200.655 157.329 200.537 156.904 200.302 156.519C200.072 156.129 199.762 155.821 199.372 155.596C198.982 155.371 198.562 155.259 198.112 155.259C197.622 155.259 197.19 155.364 196.815 155.574C196.445 155.784 196.142 156.069 195.907 156.429L194.902 156.009L195.232 150.391H201V151.449H196.237L196.02 155.041C196.32 154.781 196.657 154.581 197.032 154.441C197.412 154.296 197.805 154.224 198.21 154.224ZM207.234 152.866C207.954 152.866 208.582 153.051 209.117 153.421C209.657 153.791 210.069 154.301 210.354 154.951C210.639 155.596 210.782 156.324 210.782 157.134C210.782 157.949 210.639 158.681 210.354 159.331C210.069 159.981 209.654 160.491 209.109 160.861C208.569 161.231 207.929 161.416 207.189 161.416C206.654 161.416 206.172 161.314 205.742 161.109C205.317 160.899 204.954 160.604 204.654 160.224V164.791H203.544V153.091H204.534V154.209C204.839 153.779 205.219 153.449 205.674 153.219C206.129 152.984 206.649 152.866 207.234 152.866ZM207.077 160.389C207.622 160.389 208.084 160.249 208.464 159.969C208.844 159.689 209.129 159.304 209.319 158.814C209.514 158.319 209.612 157.759 209.612 157.134C209.612 156.509 209.517 155.954 209.327 155.469C209.142 154.979 208.857 154.594 208.472 154.314C208.087 154.034 207.614 153.894 207.054 153.894C206.504 153.894 206.039 154.029 205.659 154.299C205.284 154.569 205.002 154.949 204.812 155.439C204.627 155.924 204.534 156.489 204.534 157.134C204.534 157.774 204.627 158.339 204.812 158.829C205.002 159.314 205.287 159.696 205.667 159.976C206.047 160.251 206.517 160.389 207.077 160.389ZM212.71 161.191H211.382L214.547 157.096L211.45 153.091H212.77L215.192 156.249L217.592 153.091H218.912L215.815 157.096L218.987 161.191H217.66L215.192 157.944L212.71 161.191Z" fill="#100F0F"/>
<path d="M322.05 161.191H320.933V151.621L318.9 152.844V151.606L320.933 150.391H322.05V161.191ZM326.275 160.126H331.645V161.184H324.595L324.602 160.179L329.485 155.769C329.88 155.414 330.152 155.066 330.302 154.726C330.452 154.386 330.527 154.014 330.527 153.609C330.527 153.169 330.422 152.769 330.212 152.409C330.007 152.044 329.725 151.756 329.365 151.546C329.005 151.331 328.607 151.224 328.172 151.224C327.722 151.224 327.315 151.334 326.95 151.554C326.585 151.769 326.297 152.059 326.087 152.424C325.882 152.789 325.782 153.181 325.787 153.601H324.662C324.662 152.956 324.815 152.371 325.12 151.846C325.43 151.321 325.852 150.911 326.387 150.616C326.927 150.316 327.527 150.166 328.187 150.166C328.832 150.166 329.417 150.319 329.942 150.624C330.472 150.929 330.887 151.346 331.187 151.876C331.492 152.401 331.645 152.981 331.645 153.616C331.645 154.061 331.59 154.454 331.48 154.794C331.375 155.129 331.212 155.441 330.992 155.731C330.777 156.021 330.485 156.331 330.115 156.661L326.275 160.126ZM336.974 161.416C336.314 161.416 335.714 161.264 335.174 160.959C334.639 160.649 334.217 160.226 333.907 159.691C333.602 159.151 333.449 158.551 333.449 157.891V153.691C333.449 153.031 333.602 152.434 333.907 151.899C334.217 151.359 334.639 150.936 335.174 150.631C335.714 150.321 336.314 150.166 336.974 150.166C337.634 150.166 338.232 150.321 338.767 150.631C339.307 150.936 339.729 151.359 340.034 151.899C340.344 152.434 340.499 153.031 340.499 153.691V157.891C340.499 158.551 340.344 159.151 340.034 159.691C339.729 160.226 339.307 160.649 338.767 160.959C338.232 161.264 337.634 161.416 336.974 161.416ZM336.974 160.351C337.409 160.351 337.812 160.244 338.182 160.029C338.552 159.814 338.844 159.521 339.059 159.151C339.274 158.781 339.382 158.379 339.382 157.944V153.639C339.382 153.199 339.274 152.796 339.059 152.431C338.844 152.061 338.552 151.769 338.182 151.554C337.812 151.334 337.409 151.224 336.974 151.224C336.539 151.224 336.137 151.334 335.767 151.554C335.397 151.769 335.104 152.061 334.889 152.431C334.674 152.796 334.567 153.199 334.567 153.639V157.944C334.567 158.379 334.674 158.781 334.889 159.151C335.104 159.521 335.397 159.814 335.767 160.029C336.137 160.244 336.539 160.351 336.974 160.351ZM345.155 155.566C344.665 155.566 344.212 155.446 343.797 155.206C343.387 154.966 343.06 154.639 342.815 154.224C342.575 153.809 342.455 153.356 342.455 152.866C342.455 152.386 342.577 151.939 342.822 151.524C343.072 151.109 343.405 150.779 343.82 150.534C344.235 150.289 344.68 150.166 345.155 150.166C345.645 150.166 346.095 150.286 346.505 150.526C346.92 150.766 347.247 151.094 347.487 151.509C347.732 151.924 347.855 152.376 347.855 152.866C347.855 153.356 347.732 153.809 347.487 154.224C347.247 154.639 346.92 154.966 346.505 155.206C346.095 155.446 345.645 155.566 345.155 155.566ZM353.727 151.134L343.655 161.191L342.905 160.441L352.977 150.391L353.727 151.134ZM345.155 154.569C345.455 154.569 345.735 154.491 345.995 154.336C346.26 154.181 346.47 153.974 346.625 153.714C346.78 153.449 346.857 153.166 346.857 152.866C346.857 152.566 346.78 152.286 346.625 152.026C346.47 151.761 346.26 151.551 345.995 151.396C345.735 151.241 345.455 151.164 345.155 151.164C344.855 151.164 344.572 151.241 344.307 151.396C344.047 151.551 343.84 151.761 343.685 152.026C343.53 152.286 343.452 152.566 343.452 152.866C343.452 153.166 343.53 153.449 343.685 153.714C343.84 153.974 344.047 154.181 344.307 154.336C344.572 154.491 344.855 154.569 345.155 154.569ZM351.477 161.416C350.987 161.416 350.535 161.296 350.12 161.056C349.71 160.816 349.382 160.489 349.137 160.074C348.897 159.659 348.777 159.206 348.777 158.716C348.777 158.236 348.9 157.789 349.145 157.374C349.395 156.959 349.727 156.629 350.142 156.384C350.557 156.139 351.002 156.016 351.477 156.016C351.967 156.016 352.417 156.136 352.827 156.376C353.242 156.616 353.57 156.944 353.81 157.359C354.055 157.774 354.177 158.226 354.177 158.716C354.177 159.206 354.055 159.659 353.81 160.074C353.57 160.489 353.242 160.816 352.827 161.056C352.417 161.296 351.967 161.416 351.477 161.416ZM351.477 160.419C351.777 160.419 352.057 160.341 352.317 160.186C352.582 160.031 352.792 159.824 352.947 159.564C353.102 159.299 353.18 159.016 353.18 158.716C353.18 158.416 353.102 158.136 352.947 157.876C352.792 157.611 352.582 157.401 352.317 157.246C352.057 157.091 351.777 157.014 351.477 157.014C351.172 157.014 350.887 157.091 350.622 157.246C350.362 157.401 350.155 157.611 350 157.876C349.845 158.136 349.767 158.416 349.767 158.716C349.767 159.016 349.845 159.299 350 159.564C350.155 159.824 350.362 160.031 350.622 160.186C350.887 160.341 351.172 160.419 351.477 160.419Z" fill="#100F0F"/>
<path d="M448.108 161.191H447.05V150.391H448.063L452.308 159.474L456.53 150.391H457.558V161.184H456.508V152.851L452.66 161.191H451.948L448.108 152.851V161.191ZM460.39 157.449C460.435 158.379 460.687 159.096 461.147 159.601C461.607 160.106 462.24 160.359 463.045 160.359C463.62 160.359 464.125 160.226 464.56 159.961C464.995 159.691 465.337 159.304 465.587 158.799L466.615 159.196C466.295 159.901 465.825 160.449 465.205 160.839C464.585 161.224 463.88 161.416 463.09 161.416C462.31 161.416 461.627 161.241 461.042 160.891C460.457 160.541 460.005 160.049 459.685 159.414C459.37 158.774 459.212 158.029 459.212 157.179C459.212 156.304 459.367 155.541 459.677 154.891C459.992 154.241 460.437 153.741 461.012 153.391C461.592 153.041 462.27 152.866 463.045 152.866C463.82 152.866 464.485 153.041 465.04 153.391C465.6 153.736 466.027 154.236 466.322 154.891C466.622 155.541 466.772 156.316 466.772 157.216V157.449H460.39ZM463.075 153.879C462.3 153.879 461.682 154.106 461.222 154.561C460.767 155.016 460.497 155.671 460.412 156.526H465.617C465.537 155.651 465.282 154.991 464.852 154.546C464.422 154.101 463.83 153.879 463.075 153.879ZM474.114 150.391H475.224V161.191H474.234V160.059C473.934 160.489 473.559 160.824 473.109 161.064C472.664 161.299 472.154 161.416 471.579 161.416C470.839 161.416 470.197 161.231 469.652 160.861C469.112 160.491 468.699 159.981 468.414 159.331C468.129 158.681 467.987 157.949 467.987 157.134C467.987 156.324 468.129 155.596 468.414 154.951C468.699 154.301 469.109 153.791 469.644 153.421C470.184 153.051 470.814 152.866 471.534 152.866C472.084 152.866 472.574 152.969 473.004 153.174C473.439 153.379 473.809 153.669 474.114 154.044V150.391ZM471.692 160.389C472.252 160.389 472.722 160.251 473.102 159.976C473.482 159.696 473.764 159.314 473.949 158.829C474.139 158.339 474.234 157.774 474.234 157.134C474.234 156.489 474.139 155.924 473.949 155.439C473.764 154.949 473.482 154.569 473.102 154.299C472.727 154.029 472.264 153.894 471.714 153.894C471.154 153.894 470.682 154.034 470.297 154.314C469.912 154.594 469.624 154.979 469.434 155.469C469.249 155.954 469.157 156.509 469.157 157.134C469.157 157.759 469.252 158.319 469.442 158.814C469.637 159.304 469.924 159.689 470.304 159.969C470.684 160.249 471.147 160.389 471.692 160.389ZM478.581 161.191H477.478V153.091H478.581V161.191ZM478.026 151.696C477.811 151.696 477.628 151.624 477.478 151.479C477.333 151.334 477.261 151.154 477.261 150.939C477.261 150.719 477.333 150.536 477.478 150.391C477.628 150.246 477.811 150.174 478.026 150.174C478.246 150.174 478.428 150.249 478.573 150.399C478.723 150.544 478.798 150.724 478.798 150.939C478.798 151.154 478.723 151.334 478.573 151.479C478.428 151.624 478.246 151.696 478.026 151.696ZM486.537 153.091H487.639V161.191H486.649V160.066C486.349 160.501 485.967 160.831 485.502 161.056C485.037 161.281 484.512 161.394 483.927 161.394C483.162 161.394 482.537 161.209 482.052 160.839C481.567 160.469 481.217 159.994 481.002 159.414C480.787 158.829 480.679 158.206 480.679 157.546V153.091H481.789V157.224C481.789 158.179 481.979 158.939 482.359 159.504C482.739 160.064 483.332 160.344 484.137 160.344C484.907 160.344 485.499 160.086 485.914 159.571C486.329 159.056 486.537 158.336 486.537 157.411V153.091ZM497.813 152.874C498.353 152.874 498.826 152.989 499.231 153.219C499.641 153.444 499.956 153.766 500.176 154.186C500.396 154.606 500.506 155.099 500.506 155.664L500.498 161.191H499.396L499.403 155.874C499.403 155.464 499.323 155.109 499.163 154.809C499.008 154.504 498.791 154.271 498.511 154.111C498.231 153.946 497.913 153.864 497.558 153.864C497.228 153.864 496.921 153.939 496.636 154.089C496.351 154.234 496.118 154.464 495.938 154.779C495.758 155.094 495.668 155.489 495.668 155.964L495.661 161.191H494.573L494.581 155.949C494.581 155.524 494.503 155.154 494.348 154.839C494.193 154.524 493.973 154.284 493.688 154.119C493.408 153.949 493.083 153.864 492.713 153.864C492.343 153.864 492.016 153.951 491.731 154.126C491.446 154.296 491.226 154.541 491.071 154.861C490.916 155.176 490.838 155.544 490.838 155.964V161.191H489.728V153.091H490.718V153.946C490.973 153.611 491.298 153.349 491.693 153.159C492.088 152.969 492.523 152.874 492.998 152.874C493.533 152.874 494.006 152.991 494.416 153.226C494.831 153.461 495.146 153.799 495.361 154.239C495.596 153.809 495.928 153.474 496.358 153.234C496.788 152.994 497.273 152.874 497.813 152.874Z" fill="#100F0F"/>
<path d="M581.545 161.191H575.2V150.391H576.535V159.924H581.545V161.191ZM586.264 161.416C585.469 161.416 584.776 161.236 584.186 160.876C583.601 160.511 583.151 160.006 582.836 159.361C582.521 158.711 582.364 157.969 582.364 157.134C582.364 156.294 582.524 155.551 582.844 154.906C583.164 154.261 583.619 153.761 584.209 153.406C584.799 153.046 585.484 152.866 586.264 152.866C587.059 152.866 587.751 153.046 588.341 153.406C588.931 153.766 589.384 154.269 589.699 154.914C590.014 155.559 590.171 156.299 590.171 157.134C590.171 157.979 590.011 158.726 589.691 159.376C589.376 160.021 588.924 160.524 588.334 160.884C587.744 161.239 587.054 161.416 586.264 161.416ZM586.264 160.149C587.079 160.149 587.696 159.879 588.116 159.339C588.541 158.794 588.754 158.059 588.754 157.134C588.754 156.199 588.541 155.466 588.116 154.936C587.691 154.401 587.074 154.134 586.264 154.134C585.444 154.134 584.824 154.404 584.404 154.944C583.989 155.484 583.781 156.214 583.781 157.134C583.781 158.069 583.994 158.806 584.419 159.346C584.849 159.881 585.464 160.149 586.264 160.149ZM593.705 153.586C593.93 153.406 594.195 153.269 594.5 153.174C594.805 153.079 595.112 153.031 595.422 153.031C595.617 153.031 595.81 153.051 596 153.091V154.344C595.79 154.294 595.587 154.269 595.392 154.269C594.907 154.269 594.492 154.396 594.147 154.651C593.782 154.911 593.527 155.254 593.382 155.679C593.237 156.099 593.165 156.581 593.165 157.126V161.191H591.822V153.091H593.015V154.374C593.205 154.044 593.435 153.781 593.705 153.586ZM598.254 157.516C598.309 158.361 598.547 159.011 598.967 159.466C599.392 159.921 599.977 160.149 600.722 160.149C601.252 160.149 601.714 160.026 602.109 159.781C602.509 159.536 602.822 159.184 603.047 158.724L604.329 159.166C604.014 159.876 603.542 160.429 602.912 160.824C602.282 161.219 601.572 161.416 600.782 161.416C599.992 161.416 599.297 161.241 598.697 160.891C598.102 160.541 597.639 160.046 597.309 159.406C596.984 158.766 596.822 158.029 596.822 157.194C596.822 156.319 596.982 155.556 597.302 154.906C597.627 154.251 598.082 153.749 598.667 153.399C599.257 153.044 599.942 152.866 600.722 152.866C601.497 152.866 602.164 153.041 602.724 153.391C603.289 153.736 603.722 154.234 604.022 154.884C604.322 155.529 604.472 156.296 604.472 157.186C604.472 157.331 604.469 157.441 604.464 157.516H598.254ZM600.767 154.066C600.042 154.066 599.469 154.269 599.049 154.674C598.629 155.079 598.372 155.669 598.277 156.444H603.077C602.912 154.859 602.142 154.066 600.767 154.066ZM614.217 152.881C614.772 152.881 615.254 152.999 615.664 153.234C616.074 153.464 616.389 153.794 616.609 154.224C616.829 154.649 616.939 155.146 616.939 155.716L616.932 161.191H615.597L615.604 156.009C615.604 155.614 615.529 155.271 615.379 154.981C615.234 154.686 615.029 154.461 614.764 154.306C614.504 154.151 614.204 154.074 613.864 154.074C613.549 154.074 613.257 154.146 612.987 154.291C612.717 154.436 612.499 154.656 612.334 154.951C612.174 155.246 612.094 155.611 612.094 156.046L612.087 161.191H610.759L610.767 156.061C610.767 155.656 610.694 155.304 610.549 155.004C610.404 154.704 610.199 154.474 609.934 154.314C609.669 154.154 609.362 154.074 609.012 154.074C608.662 154.074 608.354 154.156 608.089 154.321C607.824 154.486 607.617 154.719 607.467 155.019C607.322 155.314 607.249 155.656 607.249 156.046V161.191H605.907V153.091H607.099V153.954C607.359 153.619 607.689 153.356 608.089 153.166C608.489 152.976 608.927 152.881 609.402 152.881C609.947 152.881 610.422 152.999 610.827 153.234C611.232 153.464 611.544 153.791 611.764 154.216C612.004 153.796 612.339 153.469 612.769 153.234C613.204 152.999 613.687 152.881 614.217 152.881ZM623.381 161.191H622.046V150.391H623.381V161.191ZM629.359 152.866C630.094 152.866 630.734 153.051 631.279 153.421C631.829 153.791 632.249 154.301 632.539 154.951C632.834 155.596 632.981 156.324 632.981 157.134C632.981 157.949 632.834 158.681 632.539 159.331C632.249 159.976 631.829 160.486 631.279 160.861C630.734 161.231 630.091 161.416 629.351 161.416C628.856 161.416 628.409 161.334 628.009 161.169C627.609 160.999 627.261 160.756 626.966 160.441V164.791H625.624V153.091H626.816V153.999C627.121 153.634 627.486 153.354 627.911 153.159C628.336 152.964 628.819 152.866 629.359 152.866ZM629.186 160.194C629.701 160.194 630.136 160.061 630.491 159.796C630.851 159.531 631.119 159.169 631.294 158.709C631.474 158.249 631.564 157.724 631.564 157.134C631.564 156.549 631.474 156.029 631.294 155.574C631.119 155.114 630.849 154.751 630.484 154.486C630.124 154.221 629.679 154.089 629.149 154.089C628.384 154.089 627.804 154.364 627.409 154.914C627.014 155.464 626.816 156.204 626.816 157.134C626.816 158.064 627.014 158.806 627.409 159.361C627.809 159.916 628.401 160.194 629.186 160.194ZM637.568 161.409C636.928 161.409 636.361 161.314 635.866 161.124C635.371 160.934 634.968 160.659 634.658 160.299C634.348 159.939 634.148 159.506 634.058 159.001L635.423 158.784C635.533 159.229 635.786 159.579 636.181 159.834C636.576 160.089 637.066 160.216 637.651 160.216C638.201 160.216 638.633 160.104 638.948 159.879C639.268 159.649 639.428 159.334 639.428 158.934C639.428 158.694 639.373 158.506 639.263 158.371C639.158 158.236 638.951 158.109 638.641 157.989C638.331 157.864 637.831 157.709 637.141 157.524C636.416 157.329 635.851 157.131 635.446 156.931C635.041 156.726 634.751 156.491 634.576 156.226C634.401 155.961 634.313 155.631 634.313 155.236C634.313 154.766 634.443 154.354 634.703 153.999C634.963 153.639 635.328 153.361 635.798 153.166C636.268 152.966 636.811 152.866 637.426 152.866C638.036 152.866 638.583 152.966 639.068 153.166C639.558 153.361 639.951 153.639 640.246 153.999C640.546 154.354 640.723 154.766 640.778 155.236L639.413 155.484C639.348 155.044 639.128 154.696 638.753 154.441C638.383 154.186 637.908 154.059 637.328 154.059C636.998 154.059 636.706 154.106 636.451 154.201C636.201 154.291 636.006 154.421 635.866 154.591C635.726 154.756 635.656 154.949 635.656 155.169C635.656 155.374 635.716 155.544 635.836 155.679C635.961 155.814 636.186 155.944 636.511 156.069C636.836 156.189 637.323 156.331 637.973 156.496C638.698 156.681 639.263 156.879 639.668 157.089C640.073 157.299 640.363 157.546 640.538 157.831C640.718 158.116 640.808 158.471 640.808 158.896C640.808 159.416 640.678 159.866 640.418 160.246C640.158 160.621 639.786 160.909 639.301 161.109C638.816 161.309 638.238 161.409 637.568 161.409ZM648.087 153.091H649.43V161.191H648.237V160.149C647.932 160.554 647.55 160.864 647.09 161.079C646.635 161.294 646.117 161.401 645.537 161.401C644.727 161.401 644.082 161.201 643.602 160.801C643.122 160.401 642.787 159.914 642.597 159.339C642.407 158.759 642.312 158.169 642.312 157.569V153.091H643.662V157.149C643.662 158.019 643.83 158.734 644.165 159.294C644.505 159.854 645.07 160.134 645.86 160.134C646.55 160.134 647.092 159.901 647.487 159.436C647.887 158.966 648.087 158.274 648.087 157.359V153.091ZM659.832 152.881C660.387 152.881 660.869 152.999 661.279 153.234C661.689 153.464 662.004 153.794 662.224 154.224C662.444 154.649 662.554 155.146 662.554 155.716L662.547 161.191H661.212L661.219 156.009C661.219 155.614 661.144 155.271 660.994 154.981C660.849 154.686 660.644 154.461 660.379 154.306C660.119 154.151 659.819 154.074 659.479 154.074C659.164 154.074 658.872 154.146 658.602 154.291C658.332 154.436 658.114 154.656 657.949 154.951C657.789 155.246 657.709 155.611 657.709 156.046L657.702 161.191H656.374L656.382 156.061C656.382 155.656 656.309 155.304 656.164 155.004C656.019 154.704 655.814 154.474 655.549 154.314C655.284 154.154 654.977 154.074 654.627 154.074C654.277 154.074 653.969 154.156 653.704 154.321C653.439 154.486 653.232 154.719 653.082 155.019C652.937 155.314 652.864 155.656 652.864 156.046V161.191H651.522V153.091H652.714V153.954C652.974 153.619 653.304 153.356 653.704 153.166C654.104 152.976 654.542 152.881 655.017 152.881C655.562 152.881 656.037 152.999 656.442 153.234C656.847 153.464 657.159 153.791 657.379 154.216C657.619 153.796 657.954 153.469 658.384 153.234C658.819 152.999 659.302 152.881 659.832 152.881Z" fill="#100F0F"/>
<defs>
<filter id="filter0_d_689_1984" x="0" y="56.1914" width="918" height="76" filterUnits="userSpaceOnUse" color-interpolation-filters="sRGB">
<feFlood flood-opacity="0" result="BackgroundImageFix"/>
<feColorMatrix in="SourceAlpha" type="matrix" values="0 0 0 0 0 0 0 0 0 0 0 0 0 0 0 0 0 0 127 0" result="hardAlpha"/>
<feOffset dy="-1"/>
<feColorMatrix type="matrix" values="0 0 0 0 0 0 0 0 0 0 0 0 0 0 0 0 0 0 0.25 0"/>
<feBlend mode="normal" in2="BackgroundImageFix" result="effect1_dropShadow_689_1984"/>
<feBlend mode="normal" in="SourceGraphic" in2="effect1_dropShadow_689_1984" result="shape"/>
</filter>
</defs>
</svg>
