<svg width="576" height="181" viewBox="0 0 576 181" fill="none" xmlns="http://www.w3.org/2000/svg">
<rect y="0.191406" width="576" height="180" rx="10" fill="#F2F2F2"/>
<path d="M77.4606 113.691C73.6146 113.691 70.2301 112.845 67.3072 111.153C64.3842 109.409 62.1023 107.025 60.4613 103.999C58.8204 100.974 57.9999 97.4356 57.9999 93.3845C57.9999 89.3847 58.8204 85.872 60.4613 82.8465C62.1023 79.7697 64.3842 77.3852 67.3072 75.6929C70.2301 74.0007 73.6146 73.1546 77.4606 73.1546C80.3836 73.1546 82.9988 73.693 85.3064 74.7699C87.6653 75.7955 89.6652 77.2826 91.3062 79.2313C92.9984 81.1286 94.2548 83.4618 95.0753 86.231L89.3832 87.8463H88.5371C87.6653 85.231 86.2295 83.1798 84.2296 81.6927C82.2809 80.1543 80.0246 79.3851 77.4606 79.3851C74.8453 79.3851 72.5634 79.9748 70.6147 81.1542C68.7174 82.3337 67.2303 83.9746 66.1534 86.0771C65.0765 88.1796 64.5381 90.6154 64.5381 93.3845C64.5381 96.1536 65.0765 98.6151 66.1534 100.769C67.2303 102.871 68.7174 104.512 70.6147 105.692C72.5634 106.871 74.8453 107.461 77.4606 107.461C79.2554 107.461 80.8964 107.128 82.3835 106.461C83.8706 105.794 85.1526 104.82 86.2295 103.538C87.3576 102.256 88.2294 100.743 88.8448 98.9997H89.6909L95.4599 100.615C94.5368 103.384 93.2035 105.769 91.46 107.769C89.7165 109.717 87.6653 111.204 85.3064 112.23C82.9988 113.204 80.3836 113.691 77.4606 113.691Z" fill="#100F0F"/>
<path d="M168.801 112.691V74.1545H175.108V85.0002L173.262 83.8464C173.98 81.6414 175.108 79.7441 176.647 78.1544C178.185 76.5647 179.98 75.334 182.031 74.4622C184.134 73.5905 186.364 73.1546 188.723 73.1546C191.492 73.1546 193.954 73.7443 196.107 74.9237C198.312 76.1032 200.03 77.8467 201.261 80.1543C202.492 82.4619 203.107 85.3592 203.107 88.8462V112.691H196.569V90.4616C196.569 87.6924 196.159 85.513 195.338 83.9234C194.518 82.2824 193.39 81.1286 191.954 80.462C190.569 79.7953 188.98 79.462 187.185 79.462C185.236 79.462 183.339 79.9492 181.493 80.9235C179.698 81.8465 178.211 83.2567 177.031 85.1541C175.903 87.0514 175.339 89.4103 175.339 92.2307V112.691H168.801ZM213.195 112.691V74.1545H219.502V85.0002L217.656 83.8464C218.374 81.6414 219.502 79.7441 221.041 78.1544C222.579 76.5647 224.374 75.334 226.425 74.4622C228.528 73.5905 230.758 73.1546 233.117 73.1546C235.886 73.1546 238.348 73.7443 240.502 74.9237C242.707 76.1032 244.425 77.8467 245.655 80.1543C246.886 82.4619 247.501 85.3592 247.501 88.8462V112.691H240.963V90.4616C240.963 87.6924 240.553 85.513 239.732 83.9234C238.912 82.2824 237.784 81.1286 236.348 80.462C234.963 79.7953 233.374 79.462 231.579 79.462C229.63 79.462 227.733 79.9492 225.887 80.9235C224.092 81.8465 222.605 83.2567 221.425 85.1541C220.297 87.0514 219.733 89.4103 219.733 92.2307V112.691H213.195ZM274.435 113.691C270.691 113.691 267.384 112.845 264.512 111.153C261.64 109.409 259.384 107.025 257.743 103.999C256.153 100.974 255.359 97.4356 255.359 93.3845C255.359 89.3847 256.153 85.872 257.743 82.8465C259.333 79.7697 261.538 77.3852 264.358 75.6929C267.23 74.0007 270.512 73.1546 274.204 73.1546C277.845 73.1546 281.024 74.0263 283.742 75.7699C286.511 77.4621 288.665 79.8723 290.203 83.0003C291.742 86.1284 292.511 89.7693 292.511 93.923V94.846L291.357 95.9229H258.974V89.8462H288.973L285.896 91.0769C285.742 88.6155 285.127 86.513 284.05 84.7695C282.973 83.026 281.588 81.6927 279.896 80.7696C278.204 79.7953 276.306 79.3082 274.204 79.3082C271.948 79.3082 269.871 79.8723 267.973 81.0004C266.076 82.0773 264.589 83.6157 263.512 85.6156C262.435 87.6155 261.897 89.9231 261.897 92.5384V94.0768C261.897 96.6408 262.435 98.9484 263.512 101C264.589 102.999 266.076 104.589 267.973 105.769C269.871 106.948 272.025 107.538 274.435 107.538C276.794 107.538 278.845 106.974 280.588 105.846C282.332 104.666 283.691 103.076 284.665 101.077H285.588L290.972 103.461C289.537 106.64 287.357 109.153 284.434 110.999C281.563 112.794 278.229 113.691 274.435 113.691ZM317.937 113.691C314.091 113.691 310.706 112.845 307.783 111.153C304.86 109.409 302.578 107.025 300.937 103.999C299.296 100.974 298.476 97.4356 298.476 93.3845C298.476 89.3847 299.296 85.872 300.937 82.8465C302.578 79.7697 304.86 77.3852 307.783 75.6929C310.706 74.0007 314.091 73.1546 317.937 73.1546C320.859 73.1546 323.475 73.693 325.782 74.7699C328.141 75.7955 330.141 77.2826 331.782 79.2313C333.474 81.1286 334.731 83.4618 335.551 86.231L329.859 87.8463H329.013C328.141 85.231 326.705 83.1798 324.705 81.6927C322.757 80.1543 320.501 79.3851 317.937 79.3851C315.321 79.3851 313.039 79.9748 311.091 81.1542C309.193 82.3337 307.706 83.9746 306.629 86.0771C305.552 88.1796 305.014 90.6154 305.014 93.3845C305.014 96.1536 305.552 98.6151 306.629 100.769C307.706 102.871 309.193 104.512 311.091 105.692C313.039 106.871 315.321 107.461 317.937 107.461C319.731 107.461 321.372 107.128 322.859 106.461C324.347 105.794 325.629 104.82 326.705 103.538C327.834 102.256 328.705 100.743 329.321 98.9997H330.167L335.936 100.615C335.013 103.384 333.679 105.769 331.936 107.769C330.192 109.717 328.141 111.204 325.782 112.23C323.475 113.204 320.859 113.691 317.937 113.691ZM356.784 112.691C353.451 112.691 350.733 111.64 348.631 109.538C346.528 107.384 345.477 104.487 345.477 100.846V63.7704H352.015V100.307C352.015 102.512 352.502 104.102 353.477 105.076C354.451 105.999 356.015 106.461 358.169 106.461H362.784L363.168 107.307V112.691H356.784ZM338.862 80.3081V74.1545H363.168V80.3081H338.862ZM387.11 113.691C383.367 113.691 380.059 112.845 377.188 111.153C374.316 109.409 372.06 107.025 370.419 103.999C368.829 100.974 368.034 97.4356 368.034 93.3845C368.034 89.3847 368.829 85.872 370.419 82.8465C372.008 79.7697 374.213 77.3852 377.034 75.6929C379.906 74.0007 383.187 73.1546 386.88 73.1546C390.52 73.1546 393.7 74.0263 396.418 75.7699C399.187 77.4621 401.341 79.8723 402.879 83.0003C404.417 86.1284 405.187 89.7693 405.187 93.923V94.846L404.033 95.9229H371.649V89.8462H401.648L398.571 91.0769C398.418 88.6155 397.802 86.513 396.725 84.7695C395.648 83.026 394.264 81.6927 392.572 80.7696C390.879 79.7953 388.982 79.3082 386.88 79.3082C384.623 79.3082 382.546 79.8723 380.649 81.0004C378.752 82.0773 377.265 83.6157 376.188 85.6156C375.111 87.6155 374.572 89.9231 374.572 92.5384V94.0768C374.572 96.6408 375.111 98.9484 376.188 101C377.265 102.999 378.752 104.589 380.649 105.769C382.546 106.948 384.7 107.538 387.11 107.538C389.469 107.538 391.52 106.974 393.264 105.846C395.007 104.666 396.366 103.076 397.341 101.077H398.264L403.648 103.461C402.212 106.64 400.033 109.153 397.11 110.999C394.238 112.794 390.905 113.691 387.11 113.691ZM425.535 113.691C422.869 113.691 420.484 113.179 418.382 112.153C416.331 111.127 414.715 109.717 413.536 107.922C412.356 106.076 411.767 103.974 411.767 101.615C411.767 98.2305 412.972 95.487 415.382 93.3845C417.843 91.282 421.228 90.0513 425.535 89.6924L440.381 88.6155V94.4614L426.843 95.5383C424.023 95.7434 421.92 96.3587 420.536 97.3843C419.202 98.3587 418.536 99.7432 418.536 101.538C418.536 103.23 419.254 104.64 420.689 105.769C422.125 106.897 423.971 107.461 426.228 107.461C428.535 107.461 430.638 106.922 432.535 105.846C434.432 104.769 435.92 103.333 436.996 101.538C438.125 99.7432 438.689 97.7433 438.689 95.5383V89.3078C438.689 86.3848 437.766 83.9746 435.92 82.0773C434.125 80.1799 431.715 79.2313 428.689 79.2313C426.33 79.2313 424.305 79.821 422.612 81.0004C420.92 82.1286 419.766 83.7182 419.151 85.7694H418.305L412.613 83.9234C413.741 80.4876 415.715 77.8211 418.536 75.9237C421.356 74.0263 424.766 73.0777 428.766 73.0777C433.997 73.0777 438.022 74.6417 440.842 77.7698C443.714 80.8979 445.15 85.3079 445.15 91V112.691H438.996V101.461L441.304 102.692C440.689 104.794 439.586 106.692 437.996 108.384C436.458 110.025 434.612 111.332 432.458 112.307C430.356 113.23 428.048 113.691 425.535 113.691ZM455.297 112.691V74.1545H461.605V84.8464L459.99 83.3849C460.707 81.2824 461.81 79.4877 463.297 78.0005C464.784 76.4621 466.528 75.2827 468.528 74.4622C470.528 73.5905 472.63 73.1546 474.835 73.1546C478.168 73.1546 481.066 74.1033 483.527 76.0006C485.988 77.898 487.604 80.6414 488.373 84.231L485.681 84.1541C486.347 81.9491 487.45 80.0261 488.988 78.3851C490.578 76.7442 492.475 75.4622 494.68 74.5391C496.885 73.6161 499.27 73.1546 501.834 73.1546C504.449 73.1546 506.808 73.7443 508.911 74.9237C511.013 76.1032 512.68 77.8467 513.91 80.1543C515.141 82.4619 515.756 85.3592 515.756 88.8462V112.691H509.218V90.3846C509.218 87.6155 508.808 85.4361 507.988 83.8464C507.167 82.2568 506.09 81.1286 504.757 80.462C503.424 79.7953 501.911 79.462 500.219 79.462C498.475 79.462 496.732 79.9235 494.988 80.8466C493.245 81.7696 491.783 83.1798 490.604 85.0772C489.424 86.9232 488.834 89.3078 488.834 92.2307V112.691H482.296V90.3846C482.296 87.6155 481.886 85.4361 481.066 83.8464C480.245 82.2568 479.143 81.1286 477.758 80.462C476.425 79.7953 474.938 79.462 473.297 79.462C471.553 79.462 469.784 79.9492 467.989 80.9235C466.246 81.8465 464.784 83.2567 463.605 85.1541C462.425 87.0002 461.836 89.359 461.836 92.2307V112.691H455.297Z" fill="#100F0F"/>
<rect x="160.434" y="89.4634" width="4.87958" height="13.832" rx="2.43979" transform="rotate(90 160.434 89.4634)" fill="#9F9F9F"/>
<rect x="157.037" y="105.936" width="4.87958" height="13.832" rx="2.43979" transform="rotate(122.678 157.037 105.936)" fill="#CDCDCD"/>
<rect x="145.252" y="117.982" width="4.87958" height="13.832" rx="2.43979" transform="rotate(155.365 145.252 117.982)" fill="#DFDFDF"/>
<rect x="128.732" y="121.726" width="4.87958" height="13.832" rx="2.43979" transform="rotate(-171.835 128.732 121.726)" fill="#100F0F"/>
<rect x="112.904" y="115.958" width="4.87958" height="13.832" rx="2.43979" transform="rotate(-138.957 112.904 115.958)" fill="#100F0F"/>
<rect x="102.721" y="102.578" width="4.87958" height="13.832" rx="2.43979" transform="rotate(-106.248 102.721 102.578)" fill="#100F0F"/>
<rect x="101.4" y="85.6914" width="4.87958" height="13.832" rx="2.43979" transform="rotate(-73.3182 101.4 85.6914)" fill="#100F0F"/>
<rect x="109.371" y="70.9048" width="4.87958" height="13.832" rx="2.43979" transform="rotate(-40.6266 109.371 70.9048)" fill="#100F0F"/>
<rect x="124.168" y="62.7163" width="4.87958" height="13.832" rx="2.43979" transform="rotate(-7.72568 124.168 62.7163)" fill="#100F0F"/>
<rect x="140.977" y="63.8438" width="4.87958" height="13.832" rx="2.43979" transform="rotate(25.0617 140.977 63.8438)" fill="#383838"/>
<rect x="154.531" y="73.9297" width="4.87958" height="13.832" rx="2.43979" transform="rotate(57.743 154.531 73.9297)" fill="#6A6A6A"/>
</svg>
