<svg width="515" height="290" viewBox="0 0 515 290" fill="none" xmlns="http://www.w3.org/2000/svg">
<path d="M194.956 21C194.956 19.9738 194.956 19.4606 194.937 19.0269C194.487 8.72124 186.235 0.468892 175.929 0.0189354C175.495 0 174.982 0 173.956 0H35.8311C29.4388 0 26.2426 0 23.6105 0.659313C15.7361 2.63173 9.58778 8.78008 7.61537 16.6544C6.95605 19.2866 6.95605 22.4827 6.95605 28.875C6.95605 31.7806 6.95605 33.2334 7.25574 34.4298C8.1523 38.0091 10.947 40.8038 14.5262 41.7003C15.7227 42 17.1755 42 20.0811 42H173.956C174.982 42 175.495 42 175.929 41.9811C186.235 41.5311 194.487 33.2788 194.937 22.9731C194.956 22.5394 194.956 22.0262 194.956 21Z" fill="#D4C5FF"/>
<path d="M146.259 22.3531V31.8076H145.114V23.5534H145.058L142.75 25.086V23.9227L145.114 22.3531H146.259ZM151.746 31.9369C151.112 31.9369 150.552 31.8245 150.066 31.5999C149.583 31.3721 149.206 31.0597 148.935 30.6627C148.664 30.2626 148.53 29.8071 148.533 29.2963C148.53 28.8962 148.608 28.5268 148.768 28.1883C148.929 27.8467 149.147 27.562 149.424 27.3343C149.704 27.1034 150.016 26.9572 150.361 26.8957V26.8403C149.909 26.7233 149.549 26.4694 149.281 26.0786C149.013 25.6846 148.881 25.2368 148.884 24.7352C148.881 24.2551 149.002 23.8257 149.249 23.4472C149.495 23.0686 149.833 22.7701 150.264 22.5516C150.698 22.3331 151.192 22.2238 151.746 22.2238C152.294 22.2238 152.783 22.3331 153.214 22.5516C153.645 22.7701 153.984 23.0686 154.23 23.4472C154.479 23.8257 154.605 24.2551 154.608 24.7352C154.605 25.2368 154.468 25.6846 154.197 26.0786C153.93 26.4694 153.574 26.7233 153.131 26.8403V26.8957C153.473 26.9572 153.78 27.1034 154.054 27.3343C154.328 27.562 154.547 27.8467 154.71 28.1883C154.873 28.5268 154.956 28.8962 154.959 29.2963C154.956 29.8071 154.818 30.2626 154.544 30.6627C154.273 31.0597 153.896 31.3721 153.413 31.5999C152.933 31.8245 152.377 31.9369 151.746 31.9369ZM151.746 30.9213C152.174 30.9213 152.543 30.852 152.854 30.7135C153.165 30.575 153.405 30.3796 153.574 30.1272C153.744 29.8749 153.83 29.5794 153.833 29.2409C153.83 28.8838 153.737 28.5684 153.556 28.2945C153.374 28.0206 153.126 27.8051 152.813 27.6482C152.502 27.4912 152.146 27.4127 151.746 27.4127C151.343 27.4127 150.983 27.4912 150.666 27.6482C150.352 27.8051 150.104 28.0206 149.923 28.2945C149.744 28.5684 149.656 28.8838 149.659 29.2409C149.656 29.5794 149.738 29.8749 149.904 30.1272C150.073 30.3796 150.315 30.575 150.629 30.7135C150.943 30.852 151.315 30.9213 151.746 30.9213ZM151.746 26.434C152.085 26.434 152.385 26.3663 152.646 26.2309C152.911 26.0955 153.119 25.9062 153.27 25.6631C153.42 25.42 153.497 25.1353 153.5 24.809C153.497 24.489 153.422 24.2104 153.274 23.9735C153.126 23.7334 152.922 23.5487 152.66 23.4195C152.399 23.2871 152.094 23.221 151.746 23.221C151.392 23.221 151.083 23.2871 150.818 23.4195C150.554 23.5487 150.349 23.7334 150.204 23.9735C150.06 24.2104 149.989 24.489 149.992 24.809C149.989 25.1353 150.061 25.42 150.209 25.6631C150.36 25.9062 150.567 26.0955 150.832 26.2309C151.097 26.3663 151.401 26.434 151.746 26.434ZM157.281 30.5981C157.053 30.5981 156.858 30.5165 156.695 30.3534C156.532 30.1903 156.45 29.9949 156.45 29.7671C156.45 29.5394 156.532 29.344 156.695 29.1808C156.858 29.0177 157.053 28.9362 157.281 28.9362C157.509 28.9362 157.704 29.0177 157.867 29.1808C158.03 29.344 158.112 29.5394 158.112 29.7671C158.112 29.9179 158.073 30.0564 157.997 30.1826C157.923 30.3088 157.823 30.4104 157.696 30.4873C157.573 30.5612 157.435 30.5981 157.281 30.5981ZM157.281 25.8154C157.053 25.8154 156.858 25.7339 156.695 25.5708C156.532 25.4076 156.45 25.2122 156.45 24.9845C156.45 24.7567 156.532 24.5613 156.695 24.3982C156.858 24.2351 157.053 24.1535 157.281 24.1535C157.509 24.1535 157.704 24.2351 157.867 24.3982C158.03 24.5613 158.112 24.7567 158.112 24.9845C158.112 25.1353 158.073 25.2738 157.997 25.3999C157.923 25.5261 157.823 25.6277 157.696 25.7046C157.573 25.7785 157.435 25.8154 157.281 25.8154ZM162.743 31.9369C162.201 31.9369 161.714 31.8292 161.28 31.6137C160.846 31.3983 160.498 31.1028 160.236 30.7274C159.975 30.3519 159.832 29.9241 159.807 29.444H160.915C160.958 29.8718 161.152 30.2257 161.497 30.5058C161.844 30.7828 162.26 30.9213 162.743 30.9213C163.131 30.9213 163.476 30.8305 163.777 30.6489C164.082 30.4673 164.32 30.218 164.493 29.901C164.668 29.5809 164.756 29.2193 164.756 28.8161C164.756 28.4037 164.665 28.036 164.483 27.7128C164.305 27.3866 164.059 27.1296 163.745 26.9419C163.431 26.7541 163.072 26.6587 162.669 26.6556C162.38 26.6526 162.083 26.6972 161.778 26.7895C161.474 26.8788 161.223 26.9942 161.026 27.1357L159.955 27.0065L160.527 22.3531H165.439V23.3687H161.487L161.155 26.157H161.21C161.404 26.0032 161.647 25.8754 161.94 25.7739C162.232 25.6723 162.537 25.6215 162.854 25.6215C163.432 25.6215 163.948 25.76 164.4 26.037C164.856 26.3109 165.213 26.6864 165.471 27.1634C165.733 27.6405 165.864 28.1852 165.864 28.7977C165.864 29.4009 165.728 29.9395 165.458 30.4134C165.19 30.8843 164.82 31.2567 164.35 31.5306C163.879 31.8015 163.343 31.9369 162.743 31.9369ZM170.577 31.9369C170.189 31.9307 169.801 31.8569 169.414 31.7153C169.026 31.5737 168.672 31.3352 168.352 30.9997C168.032 30.6612 167.775 30.2042 167.581 29.6286C167.387 29.05 167.29 28.3237 167.29 27.4497C167.29 26.6125 167.368 25.8708 167.525 25.2245C167.682 24.5751 167.91 24.0289 168.209 23.5857C168.507 23.1394 168.867 22.8009 169.289 22.57C169.714 22.3392 170.192 22.2238 170.725 22.2238C171.254 22.2238 171.725 22.33 172.137 22.5423C172.553 22.7516 172.891 23.044 173.153 23.4195C173.415 23.795 173.584 24.2274 173.661 24.7167H172.534C172.43 24.292 172.227 23.9396 171.925 23.6595C171.623 23.3795 171.223 23.2394 170.725 23.2394C169.992 23.2394 169.415 23.558 168.993 24.195C168.575 24.8321 168.364 25.7262 168.361 26.8772H168.435C168.607 26.6156 168.812 26.3925 169.049 26.2078C169.289 26.0201 169.554 25.8754 169.843 25.7739C170.132 25.6723 170.438 25.6215 170.762 25.6215C171.303 25.6215 171.799 25.757 172.248 26.0278C172.697 26.2955 173.058 26.6664 173.328 27.1404C173.599 27.6112 173.735 28.1514 173.735 28.7607C173.735 29.3455 173.604 29.881 173.342 30.3673C173.081 30.8505 172.713 31.2352 172.239 31.5214C171.768 31.8045 171.214 31.943 170.577 31.9369ZM170.577 30.9213C170.965 30.9213 171.312 30.8243 171.62 30.6304C171.931 30.4365 172.176 30.1765 172.354 29.8502C172.536 29.524 172.627 29.1608 172.627 28.7607C172.627 28.3699 172.539 28.0144 172.363 27.6943C172.191 27.3712 171.953 27.1142 171.648 26.9234C171.346 26.7326 171.002 26.6372 170.614 26.6372C170.321 26.6372 170.049 26.6956 169.797 26.8126C169.544 26.9265 169.323 27.0834 169.132 27.2835C168.944 27.4835 168.796 27.7128 168.689 27.9713C168.581 28.2268 168.527 28.4961 168.527 28.7792C168.527 29.1547 168.615 29.5055 168.79 29.8318C168.969 30.158 169.212 30.4211 169.52 30.6212C169.831 30.8212 170.183 30.9213 170.577 30.9213Z" fill="#4200FF"/>
<path d="M37.5981 13.4545V28H35.8367V15.017H28.5072V28H26.7458V13.4545H37.5981ZM40.9237 32.0909V17.0909H42.5431V18.8239H42.7419C42.865 18.6345 43.0355 18.393 43.2533 18.0994C43.4758 17.8011 43.7931 17.536 44.205 17.304C44.6217 17.0672 45.1851 16.9489 45.8953 16.9489C46.8139 16.9489 47.6236 17.1785 48.3243 17.6378C49.0251 18.0971 49.5719 18.7481 49.9649 19.5909C50.3579 20.4337 50.5544 21.428 50.5544 22.5739C50.5544 23.7292 50.3579 24.7306 49.9649 25.5781C49.5719 26.4209 49.0274 27.0743 48.3314 27.5384C47.6354 27.9976 46.8328 28.2273 45.9237 28.2273C45.223 28.2273 44.6619 28.1113 44.2405 27.8793C43.8191 27.6425 43.4948 27.375 43.2675 27.0767C43.0402 26.7737 42.865 26.5227 42.7419 26.3239H42.5999V32.0909H40.9237ZM42.5715 22.5455C42.5715 23.3693 42.6922 24.0961 42.9337 24.7259C43.1752 25.3509 43.5279 25.8409 43.9919 26.196C44.4559 26.5464 45.0241 26.7216 45.6965 26.7216C46.3972 26.7216 46.982 26.5369 47.4507 26.1676C47.9242 25.7936 48.2793 25.2917 48.5161 24.6619C48.7575 24.0275 48.8783 23.322 48.8783 22.5455C48.8783 21.7784 48.7599 21.0871 48.5232 20.4716C48.2912 19.8513 47.9384 19.3613 47.4649 19.0014C46.9962 18.6368 46.4067 18.4545 45.6965 18.4545C45.0146 18.4545 44.4417 18.6274 43.9777 18.973C43.5137 19.3139 43.1633 19.7921 42.9266 20.4077C42.6898 21.0185 42.5715 21.7311 42.5715 22.5455ZM54.7874 25.5284L60.0431 17.0909H61.9749V28H60.2987V19.5625L55.0715 28H53.1112V17.0909H54.7874V25.5284ZM65.0448 28V17.0909H66.721V21.8352H67.8289L71.7494 17.0909H73.9085L69.5051 22.3466L73.9653 28H71.8062L68.2267 23.3977H66.721V28H65.0448ZM79.7696 28.2273C78.7848 28.2273 77.9207 27.9929 77.1773 27.5241C76.4387 27.0554 75.861 26.3996 75.4443 25.5568C75.0324 24.714 74.8264 23.7292 74.8264 22.6023C74.8264 21.4659 75.0324 20.474 75.4443 19.6264C75.861 18.7789 76.4387 18.1207 77.1773 17.652C77.9207 17.1832 78.7848 16.9489 79.7696 16.9489C80.7545 16.9489 81.6162 17.1832 82.3548 17.652C83.0982 18.1207 83.6759 18.7789 84.0878 19.6264C84.5045 20.474 84.7128 21.4659 84.7128 22.6023C84.7128 23.7292 84.5045 24.714 84.0878 25.5568C83.6759 26.3996 83.0982 27.0554 82.3548 27.5241C81.6162 27.9929 80.7545 28.2273 79.7696 28.2273ZM79.7696 26.7216C80.5177 26.7216 81.1333 26.5298 81.6162 26.1463C82.0992 25.7628 82.4566 25.2585 82.6887 24.6335C82.9207 24.0085 83.0367 23.3314 83.0367 22.6023C83.0367 21.8731 82.9207 21.1937 82.6887 20.5639C82.4566 19.9342 82.0992 19.4252 81.6162 19.0369C81.1333 18.6487 80.5177 18.4545 79.7696 18.4545C79.0215 18.4545 78.406 18.6487 77.923 19.0369C77.4401 19.4252 77.0826 19.9342 76.8506 20.5639C76.6186 21.1937 76.5026 21.8731 76.5026 22.6023C76.5026 23.3314 76.6186 24.0085 76.8506 24.6335C77.0826 25.2585 77.4401 25.7628 77.923 26.1463C78.406 26.5298 79.0215 26.7216 79.7696 26.7216ZM86.3055 28V26.4375H86.7032C87.0299 26.4375 87.3022 26.3736 87.52 26.2457C87.7378 26.1132 87.913 25.8835 88.0455 25.5568C88.1829 25.2254 88.287 24.7661 88.358 24.179C88.4338 23.5871 88.4883 22.8343 88.5214 21.9205L88.7203 17.0909H95.993V28H94.3169V18.6534H90.3112L90.1407 22.5455C90.1028 23.4403 90.0223 24.2287 89.8992 24.9105C89.7809 25.5876 89.5986 26.1558 89.3524 26.6151C89.1109 27.0743 88.7889 27.42 88.3865 27.652C87.984 27.884 87.4797 28 86.8737 28H86.3055ZM100.517 21.0398H103.642C104.921 21.0398 105.898 21.3641 106.575 22.0128C107.252 22.6615 107.591 23.483 107.591 24.4773C107.591 25.1307 107.439 25.7249 107.136 26.2599C106.833 26.7902 106.388 27.214 105.801 27.5312C105.214 27.8438 104.494 28 103.642 28H99.0683V17.0909H100.744V26.4375H103.642C104.305 26.4375 104.85 26.2623 105.276 25.9119C105.702 25.5616 105.915 25.1117 105.915 24.5625C105.915 23.9848 105.702 23.5137 105.276 23.1491C104.85 22.7846 104.305 22.6023 103.642 22.6023H100.517V21.0398ZM117.444 21.7784V23.3409H111.421V21.7784H117.444ZM111.819 17.0909V28H110.142V17.0909H111.819ZM118.722 17.0909V28H117.046V17.0909H118.722ZM126.215 28.2273C125.23 28.2273 124.366 27.9929 123.623 27.5241C122.884 27.0554 122.306 26.3996 121.89 25.5568C121.478 24.714 121.272 23.7292 121.272 22.6023C121.272 21.4659 121.478 20.474 121.89 19.6264C122.306 18.7789 122.884 18.1207 123.623 17.652C124.366 17.1832 125.23 16.9489 126.215 16.9489C127.2 16.9489 128.062 17.1832 128.8 17.652C129.544 18.1207 130.121 18.7789 130.533 19.6264C130.95 20.474 131.158 21.4659 131.158 22.6023C131.158 23.7292 130.95 24.714 130.533 25.5568C130.121 26.3996 129.544 27.0554 128.8 27.5241C128.062 27.9929 127.2 28.2273 126.215 28.2273ZM126.215 26.7216C126.963 26.7216 127.579 26.5298 128.062 26.1463C128.544 25.7628 128.902 25.2585 129.134 24.6335C129.366 24.0085 129.482 23.3314 129.482 22.6023C129.482 21.8731 129.366 21.1937 129.134 20.5639C128.902 19.9342 128.544 19.4252 128.062 19.0369C127.579 18.6487 126.963 18.4545 126.215 18.4545C125.467 18.4545 124.851 18.6487 124.368 19.0369C123.885 19.4252 123.528 19.9342 123.296 20.5639C123.064 21.1937 122.948 21.8731 122.948 22.6023C122.948 23.3314 123.064 24.0085 123.296 24.6335C123.528 25.2585 123.885 25.7628 124.368 26.1463C124.851 26.5298 125.467 26.7216 126.215 26.7216Z" fill="black"/>
<path fill-rule="evenodd" clip-rule="evenodd" d="M284.889 57.8627C287.058 62.1184 287.058 67.6895 287.058 78.8316V80.1684C287.058 91.3105 287.058 96.8816 284.889 101.137C282.982 104.881 279.938 107.924 276.195 109.832C271.939 112 266.368 112 255.226 112H39.8892C28.7471 112 23.1761 112 18.9203 109.832C18.3905 109.562 17.8746 109.269 17.3741 108.955C16.4909 109.522 15.4775 110.084 14.4133 110.503C10.3835 112.09 0.00012207 111.999 0.00012207 111.999C0.00012207 111.999 5.66653 110.503 7.77225 103.686C8.18002 102.366 8.45343 99.1869 8.63425 95.8839C8.05762 92.1947 8.05762 87.3335 8.05762 80.1684V73.5263C8.05762 64.2412 8.05762 59.5987 9.86462 56.0523C11.4541 52.9327 13.9904 50.3965 17.1099 48.807C20.6563 47 25.2989 47 34.5839 47H255.226C266.368 47 271.939 47 276.195 49.1684C279.938 51.0758 282.982 54.1193 284.889 57.8627Z" fill="#D4C5FF"/>
<path d="M27.358 75H25.5114L30.8523 60.4545H32.6705L38.0114 75H36.1648L31.8182 62.7557H31.7045L27.358 75ZM28.0398 69.3182H35.483V70.8807H28.0398V69.3182ZM54.0838 64.0909V75H52.4077V64.0909H54.0838ZM53.4304 69.2898V70.8523C53.0516 70.9943 52.6752 71.1198 52.3011 71.2287C51.9271 71.3329 51.5341 71.4157 51.1222 71.4773C50.7102 71.5341 50.258 71.5625 49.7656 71.5625C48.5298 71.5625 47.5379 71.2287 46.7898 70.5611C46.0464 69.8935 45.6747 68.892 45.6747 67.5568V64.0625H47.3509V67.5568C47.3509 68.1155 47.4574 68.5748 47.6705 68.9347C47.8835 69.2945 48.1723 69.562 48.5369 69.7372C48.9015 69.9124 49.3111 70 49.7656 70C50.4759 70 51.1174 69.9361 51.6903 69.8082C52.268 69.6757 52.848 69.5028 53.4304 69.2898ZM55.6747 65.6534V64.0909H64.5384V65.6534H60.9588V75H59.2827V65.6534H55.6747ZM70.8487 75.2273C69.8639 75.2273 68.9998 74.9929 68.2564 74.5241C67.5178 74.0554 66.9401 73.3996 66.5234 72.5568C66.1115 71.714 65.9055 70.7292 65.9055 69.6023C65.9055 68.4659 66.1115 67.474 66.5234 66.6264C66.9401 65.7789 67.5178 65.1207 68.2564 64.652C68.9998 64.1832 69.8639 63.9489 70.8487 63.9489C71.8336 63.9489 72.6953 64.1832 73.4339 64.652C74.1773 65.1207 74.755 65.7789 75.1669 66.6264C75.5836 67.474 75.7919 68.4659 75.7919 69.6023C75.7919 70.7292 75.5836 71.714 75.1669 72.5568C74.755 73.3996 74.1773 74.0554 73.4339 74.5241C72.6953 74.9929 71.8336 75.2273 70.8487 75.2273ZM70.8487 73.7216C71.5968 73.7216 72.2124 73.5298 72.6953 73.1463C73.1783 72.7628 73.5357 72.2585 73.7678 71.6335C73.9998 71.0085 74.1158 70.3314 74.1158 69.6023C74.1158 68.8731 73.9998 68.1937 73.7678 67.5639C73.5357 66.9342 73.1783 66.4252 72.6953 66.0369C72.2124 65.6487 71.5968 65.4545 70.8487 65.4545C70.1006 65.4545 69.4851 65.6487 69.0021 66.0369C68.5192 66.4252 68.1617 66.9342 67.9297 67.5639C67.6977 68.1937 67.5817 68.8731 67.5817 69.6023C67.5817 70.3314 67.6977 71.0085 67.9297 71.6335C68.1617 72.2585 68.5192 72.7628 69.0021 73.1463C69.4851 73.5298 70.1006 73.7216 70.8487 73.7216ZM83.9755 75V64.0909H85.6516V68.8352H86.7596L90.68 64.0909H92.8391L88.4357 69.3466L92.896 75H90.7369L87.1573 70.3977H85.6516V75H83.9755ZM98.8423 75.2273C97.7912 75.2273 96.8845 74.9953 96.1222 74.5312C95.3646 74.0625 94.7798 73.4091 94.3679 72.571C93.9607 71.7282 93.7571 70.7481 93.7571 69.6307C93.7571 68.5133 93.9607 67.5284 94.3679 66.6761C94.7798 65.8191 95.3527 65.1515 96.0866 64.6733C96.8253 64.1903 97.687 63.9489 98.6719 63.9489C99.2401 63.9489 99.8011 64.0436 100.355 64.233C100.909 64.4223 101.413 64.7301 101.868 65.1562C102.322 65.5777 102.685 66.1364 102.955 66.8324C103.224 67.5284 103.359 68.3854 103.359 69.4034V70.1136H94.9503V68.6648H101.655C101.655 68.0492 101.532 67.5 101.286 67.017C101.044 66.5341 100.698 66.1529 100.249 65.8736C99.8035 65.5942 99.2779 65.4545 98.6719 65.4545C98.0043 65.4545 97.4266 65.6203 96.9389 65.9517C96.456 66.2784 96.0843 66.7045 95.8239 67.2301C95.5634 67.7557 95.4332 68.3191 95.4332 68.9205V69.8864C95.4332 70.7102 95.5753 71.4086 95.8594 71.9815C96.1482 72.5497 96.5483 72.983 97.0597 73.2812C97.571 73.5748 98.1652 73.7216 98.8423 73.7216C99.2827 73.7216 99.6804 73.66 100.036 73.5369C100.395 73.4091 100.705 73.2197 100.966 72.9688C101.226 72.7131 101.428 72.3958 101.57 72.017L103.189 72.4716C103.018 73.0208 102.732 73.5038 102.33 73.9205C101.927 74.3324 101.43 74.6544 100.838 74.8864C100.246 75.1136 99.581 75.2273 98.8423 75.2273ZM107.585 72.5284L112.841 64.0909H114.773V75H113.097V66.5625L107.869 75H105.909V64.0909H107.585V72.5284ZM111.733 60.4545H113.295C113.295 61.2216 113.03 61.849 112.5 62.3366C111.97 62.8243 111.25 63.0682 110.341 63.0682C109.446 63.0682 108.733 62.8243 108.203 62.3366C107.678 61.849 107.415 61.2216 107.415 60.4545H108.977C108.977 60.8239 109.079 61.1482 109.283 61.4276C109.491 61.7069 109.844 61.8466 110.341 61.8466C110.838 61.8466 111.193 61.7069 111.406 61.4276C111.624 61.1482 111.733 60.8239 111.733 60.4545ZM122.275 75.2273C121.252 75.2273 120.371 74.9858 119.632 74.5028C118.894 74.0199 118.326 73.3546 117.928 72.5071C117.53 71.6596 117.331 70.6913 117.331 69.6023C117.331 68.4943 117.535 67.5166 117.942 66.669C118.354 65.8168 118.927 65.1515 119.661 64.6733C120.4 64.1903 121.261 63.9489 122.246 63.9489C123.013 63.9489 123.704 64.0909 124.32 64.375C124.935 64.6591 125.44 65.0568 125.833 65.5682C126.226 66.0795 126.47 66.6761 126.564 67.358H124.888C124.76 66.8608 124.476 66.4205 124.036 66.0369C123.6 65.6487 123.013 65.4545 122.275 65.4545C121.621 65.4545 121.048 65.625 120.556 65.9659C120.068 66.3021 119.687 66.7779 119.412 67.3935C119.142 68.0043 119.007 68.7216 119.007 69.5455C119.007 70.3883 119.14 71.1222 119.405 71.7472C119.675 72.3722 120.054 72.8575 120.542 73.2031C121.034 73.5488 121.612 73.7216 122.275 73.7216C122.71 73.7216 123.105 73.6458 123.461 73.4943C123.816 73.3428 124.116 73.125 124.363 72.8409C124.609 72.5568 124.784 72.2159 124.888 71.8182H126.564C126.47 72.4621 126.235 73.0421 125.861 73.5582C125.492 74.0696 125.002 74.4768 124.391 74.7798C123.785 75.0781 123.079 75.2273 122.275 75.2273ZM130.463 68.0398H133.588C134.867 68.0398 135.845 68.3641 136.522 69.0128C137.199 69.6615 137.537 70.483 137.537 71.4773C137.537 72.1307 137.386 72.7249 137.083 73.2599C136.78 73.7902 136.335 74.214 135.748 74.5312C135.16 74.8438 134.441 75 133.588 75H129.015V64.0909H130.691V73.4375H133.588C134.251 73.4375 134.796 73.2623 135.222 72.9119C135.648 72.5616 135.861 72.1117 135.861 71.5625C135.861 70.9848 135.648 70.5137 135.222 70.1491C134.796 69.7846 134.251 69.6023 133.588 69.6023H130.463V68.0398ZM139.27 75V64.0909H140.946V75H139.27ZM150.265 67.983V69.5455H143.901V67.983H150.265ZM152.022 65.6534V64.0909H160.886V65.6534H157.306V75H155.63V65.6534H152.022ZM167.196 75.2273C166.212 75.2273 165.347 74.9929 164.604 74.5241C163.865 74.0554 163.288 73.3996 162.871 72.5568C162.459 71.714 162.253 70.7292 162.253 69.6023C162.253 68.4659 162.459 67.474 162.871 66.6264C163.288 65.7789 163.865 65.1207 164.604 64.652C165.347 64.1832 166.212 63.9489 167.196 63.9489C168.181 63.9489 169.043 64.1832 169.782 64.652C170.525 65.1207 171.103 65.7789 171.515 66.6264C171.931 67.474 172.14 68.4659 172.14 69.6023C172.14 70.7292 171.931 71.714 171.515 72.5568C171.103 73.3996 170.525 74.0554 169.782 74.5241C169.043 74.9929 168.181 75.2273 167.196 75.2273ZM167.196 73.7216C167.944 73.7216 168.56 73.5298 169.043 73.1463C169.526 72.7628 169.883 72.2585 170.115 71.6335C170.347 71.0085 170.463 70.3314 170.463 69.6023C170.463 68.8731 170.347 68.1937 170.115 67.5639C169.883 66.9342 169.526 66.4252 169.043 66.0369C168.56 65.6487 167.944 65.4545 167.196 65.4545C166.448 65.4545 165.833 65.6487 165.35 66.0369C164.867 66.4252 164.509 66.9342 164.277 67.5639C164.045 68.1937 163.929 68.8731 163.929 69.6023C163.929 70.3314 164.045 71.0085 164.277 71.6335C164.509 72.2585 164.867 72.7628 165.35 73.1463C165.833 73.5298 166.448 73.7216 167.196 73.7216ZM184.897 75.2273C183.846 75.2273 182.939 74.9953 182.177 74.5312C181.419 74.0625 180.835 73.4091 180.423 72.571C180.015 71.7282 179.812 70.7481 179.812 69.6307C179.812 68.5133 180.015 67.5284 180.423 66.6761C180.835 65.8191 181.407 65.1515 182.141 64.6733C182.88 64.1903 183.742 63.9489 184.727 63.9489C185.295 63.9489 185.856 64.0436 186.41 64.233C186.964 64.4223 187.468 64.7301 187.923 65.1562C188.377 65.5777 188.739 66.1364 189.009 66.8324C189.279 67.5284 189.414 68.3854 189.414 69.4034V70.1136H181.005V68.6648H187.71C187.71 68.0492 187.586 67.5 187.34 67.017C187.099 66.5341 186.753 66.1529 186.303 65.8736C185.858 65.5942 185.333 65.4545 184.727 65.4545C184.059 65.4545 183.481 65.6203 182.994 65.9517C182.511 66.2784 182.139 66.7045 181.879 67.2301C181.618 67.7557 181.488 68.3191 181.488 68.9205V69.8864C181.488 70.7102 181.63 71.4086 181.914 71.9815C182.203 72.5497 182.603 72.983 183.114 73.2812C183.626 73.5748 184.22 73.7216 184.897 73.7216C185.337 73.7216 185.735 73.66 186.09 73.5369C186.45 73.4091 186.76 73.2197 187.021 72.9688C187.281 72.7131 187.482 72.3958 187.624 72.017L189.244 72.4716C189.073 73.0208 188.787 73.5038 188.384 73.9205C187.982 74.3324 187.485 74.6544 186.893 74.8864C186.301 75.1136 185.636 75.2273 184.897 75.2273ZM196.396 75.2273C195.373 75.2273 194.492 74.9858 193.754 74.5028C193.015 74.0199 192.447 73.3546 192.049 72.5071C191.651 71.6596 191.452 70.6913 191.452 69.6023C191.452 68.4943 191.656 67.5166 192.063 66.669C192.475 65.8168 193.048 65.1515 193.782 64.6733C194.521 64.1903 195.382 63.9489 196.367 63.9489C197.134 63.9489 197.826 64.0909 198.441 64.375C199.057 64.6591 199.561 65.0568 199.954 65.5682C200.347 66.0795 200.591 66.6761 200.685 67.358H199.009C198.881 66.8608 198.597 66.4205 198.157 66.0369C197.721 65.6487 197.134 65.4545 196.396 65.4545C195.742 65.4545 195.169 65.625 194.677 65.9659C194.189 66.3021 193.808 66.7779 193.533 67.3935C193.263 68.0043 193.129 68.7216 193.129 69.5455C193.129 70.3883 193.261 71.1222 193.526 71.7472C193.796 72.3722 194.175 72.8575 194.663 73.2031C195.155 73.5488 195.733 73.7216 196.396 73.7216C196.831 73.7216 197.227 73.6458 197.582 73.4943C197.937 73.3428 198.237 73.125 198.484 72.8409C198.73 72.5568 198.905 72.2159 199.009 71.8182H200.685C200.591 72.4621 200.356 73.0421 199.982 73.5582C199.613 74.0696 199.123 74.4768 198.512 74.7798C197.906 75.0781 197.201 75.2273 196.396 75.2273ZM202.276 65.6534V64.0909H211.14V65.6534H207.56V75H205.884V65.6534H202.276ZM215.034 68.0398H218.159C219.437 68.0398 220.415 68.3641 221.092 69.0128C221.769 69.6615 222.108 70.483 222.108 71.4773C222.108 72.1307 221.956 72.7249 221.653 73.2599C221.35 73.7902 220.905 74.214 220.318 74.5312C219.731 74.8438 219.011 75 218.159 75H213.585V64.0909H215.261V73.4375H218.159C218.822 73.4375 219.366 73.2623 219.792 72.9119C220.218 72.5616 220.431 72.1117 220.431 71.5625C220.431 70.9848 220.218 70.5137 219.792 70.1491C219.366 69.7846 218.822 69.6023 218.159 69.6023H215.034V68.0398ZM30.9659 99.2273C29.9432 99.2273 29.0625 98.9858 28.3239 98.5028C27.5852 98.0199 27.017 97.3546 26.6193 96.5071C26.2216 95.6596 26.0227 94.6913 26.0227 93.6023C26.0227 92.4943 26.2263 91.5166 26.6335 90.669C27.0455 89.8168 27.6184 89.1515 28.3523 88.6733C29.0909 88.1903 29.9527 87.9489 30.9375 87.9489C31.7045 87.9489 32.3958 88.0909 33.0114 88.375C33.6269 88.6591 34.1312 89.0568 34.5241 89.5682C34.9171 90.0795 35.161 90.6761 35.2557 91.358H33.5795C33.4517 90.8608 33.1676 90.4205 32.7273 90.0369C32.2917 89.6487 31.7045 89.4545 30.9659 89.4545C30.3125 89.4545 29.7396 89.625 29.2472 89.9659C28.7595 90.3021 28.3783 90.7779 28.1037 91.3935C27.8338 92.0043 27.6989 92.7216 27.6989 93.5455C27.6989 94.3883 27.8314 95.1222 28.0966 95.7472C28.3665 96.3722 28.7453 96.8575 29.233 97.2031C29.7254 97.5488 30.303 97.7216 30.9659 97.7216C31.4015 97.7216 31.7969 97.6458 32.152 97.4943C32.5071 97.3428 32.8078 97.125 33.054 96.8409C33.3002 96.5568 33.4754 96.2159 33.5795 95.8182H35.2557C35.161 96.4621 34.9266 97.0421 34.5526 97.5582C34.1832 98.0696 33.6932 98.4768 33.0824 98.7798C32.4763 99.0781 31.7708 99.2273 30.9659 99.2273ZM43.331 103.091V88.0909H44.9503V89.8239H45.1491C45.2723 89.6345 45.4427 89.393 45.6605 89.0994C45.883 88.8011 46.2003 88.536 46.6122 88.304C47.0289 88.0672 47.5923 87.9489 48.3026 87.9489C49.2211 87.9489 50.0308 88.1785 50.7315 88.6378C51.4323 89.0971 51.9792 89.7481 52.3722 90.5909C52.7652 91.4337 52.9616 92.428 52.9616 93.5739C52.9616 94.7292 52.7652 95.7306 52.3722 96.5781C51.9792 97.4209 51.4347 98.0743 50.7386 98.5384C50.0426 98.9976 49.2401 99.2273 48.331 99.2273C47.6302 99.2273 47.0691 99.1113 46.6477 98.8793C46.2263 98.6425 45.902 98.375 45.6747 98.0767C45.4474 97.7737 45.2723 97.5227 45.1491 97.3239H45.0071V103.091H43.331ZM44.9787 93.5455C44.9787 94.3693 45.0994 95.0961 45.3409 95.7259C45.5824 96.3509 45.9351 96.8409 46.3991 97.196C46.8632 97.5464 47.4313 97.7216 48.1037 97.7216C48.8045 97.7216 49.3892 97.5369 49.858 97.1676C50.3314 96.7936 50.6866 96.2917 50.9233 95.6619C51.1648 95.0275 51.2855 94.322 51.2855 93.5455C51.2855 92.7784 51.1671 92.0871 50.9304 91.4716C50.6984 90.8513 50.3456 90.3613 49.8722 90.0014C49.4034 89.6368 48.8139 89.4545 48.1037 89.4545C47.4219 89.4545 46.849 89.6274 46.3849 89.973C45.9209 90.3139 45.5705 90.7921 45.3338 91.4077C45.0971 92.0185 44.9787 92.7311 44.9787 93.5455ZM58.7287 99.2557C58.0374 99.2557 57.41 99.1255 56.8466 98.8651C56.2831 98.5999 55.8357 98.2188 55.5043 97.7216C55.1728 97.2197 55.0071 96.6136 55.0071 95.9034C55.0071 95.2784 55.1302 94.7718 55.3764 94.3835C55.6226 93.9905 55.9517 93.6828 56.3636 93.4602C56.7756 93.2377 57.2301 93.072 57.7273 92.9631C58.2292 92.8494 58.7334 92.7595 59.2401 92.6932C59.9029 92.608 60.4403 92.544 60.8523 92.5014C61.2689 92.4541 61.572 92.3759 61.7614 92.267C61.9555 92.1581 62.0526 91.9687 62.0526 91.6989V91.642C62.0526 90.9413 61.8608 90.3968 61.4773 90.0085C61.0985 89.6203 60.5232 89.4261 59.7514 89.4261C58.9512 89.4261 58.3239 89.6013 57.8693 89.9517C57.4148 90.3021 57.0952 90.6761 56.9105 91.0739L55.3196 90.5057C55.6037 89.8428 55.9825 89.3267 56.456 88.9574C56.9342 88.5833 57.455 88.3229 58.0185 88.1761C58.5866 88.0246 59.1454 87.9489 59.6946 87.9489C60.045 87.9489 60.4474 87.9915 60.902 88.0767C61.3613 88.1572 61.804 88.3253 62.2301 88.581C62.661 88.8366 63.0185 89.2225 63.3026 89.7386C63.5866 90.2547 63.7287 90.946 63.7287 91.8125V99H62.0526V97.5227H61.9673C61.8537 97.7595 61.6643 98.0128 61.3991 98.2827C61.134 98.5526 60.7813 98.7822 60.3409 98.9716C59.9006 99.161 59.3632 99.2557 58.7287 99.2557ZM58.9844 97.75C59.6473 97.75 60.206 97.6198 60.6605 97.3594C61.1198 97.099 61.4654 96.7628 61.6974 96.3509C61.9342 95.9389 62.0526 95.5057 62.0526 95.0511V93.517C61.9815 93.6023 61.8253 93.6804 61.5838 93.7514C61.3471 93.8177 61.0724 93.8769 60.7599 93.929C60.4522 93.9763 60.1515 94.0189 59.858 94.0568C59.5691 94.09 59.3348 94.1184 59.1548 94.142C58.7192 94.1989 58.312 94.2912 57.9332 94.419C57.5592 94.5421 57.2562 94.7292 57.0241 94.9801C56.7969 95.2263 56.6832 95.5625 56.6832 95.9886C56.6832 96.571 56.8987 97.0114 57.3295 97.3097C57.7652 97.6032 58.3168 97.75 58.9844 97.75ZM66.1062 96.2159H67.896C67.9338 96.7083 68.1564 97.0824 68.5636 97.3381C68.9755 97.5938 69.5105 97.7216 70.1687 97.7216C70.841 97.7216 71.4163 97.5843 71.8945 97.3097C72.3728 97.0303 72.6119 96.5805 72.6119 95.9602C72.6119 95.5956 72.5219 95.2784 72.342 95.0085C72.1621 94.7339 71.9087 94.5208 71.582 94.3693C71.2553 94.2178 70.8694 94.142 70.4244 94.142H68.5494V92.6364H70.4244C71.092 92.6364 71.5844 92.4848 71.9016 92.1818C72.2236 91.8788 72.3846 91.5 72.3846 91.0455C72.3846 90.5578 72.2118 90.1671 71.8661 89.8736C71.5205 89.5753 71.0304 89.4261 70.396 89.4261C69.7567 89.4261 69.2241 89.5705 68.7979 89.8594C68.3718 90.1435 68.1469 90.5104 68.1232 90.9602H66.3619C66.3808 90.3731 66.5607 89.8546 66.9016 89.4048C67.2425 88.9503 67.7066 88.5952 68.2937 88.3395C68.8808 88.0791 69.5531 87.9489 70.3107 87.9489C71.0778 87.9489 71.743 88.0838 72.3065 88.3537C72.8746 88.6188 73.3126 88.9811 73.6204 89.4403C73.9329 89.8949 74.0891 90.411 74.0891 90.9886C74.0891 91.6042 73.9163 92.1013 73.5707 92.4801C73.225 92.8589 72.7918 93.1288 72.271 93.2898V93.4034C72.6829 93.4318 73.0404 93.5644 73.3434 93.8011C73.6512 94.0331 73.8903 94.3385 74.0607 94.7173C74.2312 95.0914 74.3164 95.5057 74.3164 95.9602C74.3164 96.6231 74.1388 97.2008 73.7837 97.6932C73.4286 98.1809 72.9409 98.5597 72.3207 98.8295C71.7004 99.0947 70.9925 99.2273 70.1971 99.2273C69.4253 99.2273 68.734 99.1018 68.1232 98.8509C67.5124 98.5952 67.0271 98.2424 66.6673 97.7926C66.3121 97.3381 66.1251 96.8125 66.1062 96.2159ZM84.7674 84L85.6197 85.0227C85.2882 85.3447 84.9047 85.5696 84.4691 85.6974C84.0335 85.8253 83.5411 85.9034 82.9918 85.9318C82.4426 85.9602 81.8318 85.9886 81.1594 86.017C80.4019 86.0455 79.7745 86.2301 79.2773 86.571C78.7802 86.9119 78.3967 87.4044 78.1268 88.0483C77.8569 88.6922 77.6841 89.483 77.6083 90.4205H77.7504C78.1197 89.7386 78.631 89.2367 79.2844 88.9148C79.9379 88.5928 80.6386 88.4318 81.3867 88.4318C82.239 88.4318 83.006 88.6307 83.6879 89.0284C84.3697 89.4261 84.9094 90.0156 85.3072 90.7969C85.7049 91.5781 85.9038 92.5417 85.9038 93.6875C85.9038 94.8286 85.7002 95.8134 85.293 96.642C84.8905 97.4706 84.3247 98.1098 83.5955 98.5597C82.8711 99.0047 82.0212 99.2273 81.0458 99.2273C80.0704 99.2273 79.2158 98.9976 78.4819 98.5384C77.748 98.0743 77.1774 97.3878 76.7702 96.4787C76.363 95.5649 76.1594 94.4356 76.1594 93.0909V91.9261C76.1594 89.4972 76.5714 87.6553 77.3952 86.4006C78.2238 85.1458 79.4691 84.4972 81.131 84.4545C81.7182 84.4356 82.2414 84.4309 82.7006 84.4403C83.1599 84.4498 83.56 84.4285 83.9009 84.3764C84.2418 84.3243 84.5307 84.1989 84.7674 84ZM81.0458 97.7216C81.704 97.7216 82.2698 97.5559 82.7433 97.2244C83.2215 96.893 83.5884 96.4266 83.8441 95.8253C84.0998 95.2192 84.2276 94.5066 84.2276 93.6875C84.2276 92.892 84.0974 92.215 83.837 91.6562C83.5813 91.0975 83.2144 90.6714 82.7362 90.3778C82.2579 90.0843 81.685 89.9375 81.0174 89.9375C80.5297 89.9375 80.0917 90.0204 79.7035 90.1861C79.3152 90.3518 78.9838 90.5956 78.7092 90.9176C78.4345 91.2396 78.2215 91.6326 78.07 92.0966C77.9232 92.5606 77.8451 93.0909 77.8356 93.6875C77.8356 94.9091 78.122 95.8868 78.695 96.6207C79.2679 97.3546 80.0515 97.7216 81.0458 97.7216ZM92.8995 99.2273C91.9147 99.2273 91.0505 98.9929 90.3072 98.5241C89.5685 98.0554 88.9909 97.3996 88.5742 96.5568C88.1623 95.714 87.9563 94.7292 87.9563 93.6023C87.9563 92.4659 88.1623 91.474 88.5742 90.6264C88.9909 89.7789 89.5685 89.1207 90.3072 88.652C91.0505 88.1832 91.9147 87.9489 92.8995 87.9489C93.8844 87.9489 94.7461 88.1832 95.4847 88.652C96.2281 89.1207 96.8058 89.7789 97.2177 90.6264C97.6344 91.474 97.8427 92.4659 97.8427 93.6023C97.8427 94.7292 97.6344 95.714 97.2177 96.5568C96.8058 97.3996 96.2281 98.0554 95.4847 98.5241C94.7461 98.9929 93.8844 99.2273 92.8995 99.2273ZM92.8995 97.7216C93.6476 97.7216 94.2631 97.5298 94.7461 97.1463C95.229 96.7628 95.5865 96.2585 95.8185 95.6335C96.0505 95.0085 96.1665 94.3314 96.1665 93.6023C96.1665 92.8731 96.0505 92.1937 95.8185 91.5639C95.5865 90.9342 95.229 90.4252 94.7461 90.0369C94.2631 89.6487 93.6476 89.4545 92.8995 89.4545C92.1514 89.4545 91.5359 89.6487 91.0529 90.0369C90.57 90.4252 90.2125 90.9342 89.9805 91.5639C89.7485 92.1937 89.6325 92.8731 89.6325 93.6023C89.6325 94.3314 89.7485 95.0085 89.9805 95.6335C90.2125 96.2585 90.57 96.7628 91.0529 97.1463C91.5359 97.5298 92.1514 97.7216 92.8995 97.7216ZM100.401 103.091V88.0909H102.021V89.8239H102.219C102.343 89.6345 102.513 89.393 102.731 89.0994C102.953 88.8011 103.271 88.536 103.683 88.304C104.099 88.0672 104.663 87.9489 105.373 87.9489C106.291 87.9489 107.101 88.1785 107.802 88.6378C108.503 89.0971 109.049 89.7481 109.442 90.5909C109.835 91.4337 110.032 92.428 110.032 93.5739C110.032 94.7292 109.835 95.7306 109.442 96.5781C109.049 97.4209 108.505 98.0743 107.809 98.5384C107.113 98.9976 106.31 99.2273 105.401 99.2273C104.701 99.2273 104.139 99.1113 103.718 98.8793C103.297 98.6425 102.972 98.375 102.745 98.0767C102.518 97.7737 102.343 97.5227 102.219 97.3239H102.077V103.091H100.401ZM102.049 93.5455C102.049 94.3693 102.17 95.0961 102.411 95.7259C102.653 96.3509 103.005 96.8409 103.469 97.196C103.933 97.5464 104.502 97.7216 105.174 97.7216C105.875 97.7216 106.46 97.5369 106.928 97.1676C107.402 96.7936 107.757 96.2917 107.994 95.6619C108.235 95.0275 108.356 94.322 108.356 93.5455C108.356 92.7784 108.237 92.0871 108.001 91.4716C107.769 90.8513 107.416 90.3613 106.942 90.0014C106.474 89.6368 105.884 89.4545 105.174 89.4545C104.492 89.4545 103.919 89.6274 103.455 89.973C102.991 90.3139 102.641 90.7921 102.404 91.4077C102.167 92.0185 102.049 92.7311 102.049 93.5455ZM115.799 99.2557C115.108 99.2557 114.48 99.1255 113.917 98.8651C113.353 98.5999 112.906 98.2188 112.575 97.7216C112.243 97.2197 112.077 96.6136 112.077 95.9034C112.077 95.2784 112.201 94.7718 112.447 94.3835C112.693 93.9905 113.022 93.6828 113.434 93.4602C113.846 93.2377 114.3 93.072 114.798 92.9631C115.299 92.8494 115.804 92.7595 116.31 92.6932C116.973 92.608 117.511 92.544 117.923 92.5014C118.339 92.4541 118.642 92.3759 118.832 92.267C119.026 92.1581 119.123 91.9687 119.123 91.6989V91.642C119.123 90.9413 118.931 90.3968 118.548 90.0085C118.169 89.6203 117.594 89.4261 116.822 89.4261C116.022 89.4261 115.394 89.6013 114.94 89.9517C114.485 90.3021 114.165 90.6761 113.981 91.0739L112.39 90.5057C112.674 89.8428 113.053 89.3267 113.526 88.9574C114.004 88.5833 114.525 88.3229 115.089 88.1761C115.657 88.0246 116.216 87.9489 116.765 87.9489C117.115 87.9489 117.518 87.9915 117.972 88.0767C118.432 88.1572 118.874 88.3253 119.3 88.581C119.731 88.8366 120.089 89.2225 120.373 89.7386C120.657 90.2547 120.799 90.946 120.799 91.8125V99H119.123V97.5227H119.038C118.924 97.7595 118.735 98.0128 118.469 98.2827C118.204 98.5526 117.852 98.7822 117.411 98.9716C116.971 99.161 116.433 99.2557 115.799 99.2557ZM116.055 97.75C116.718 97.75 117.276 97.6198 117.731 97.3594C118.19 97.099 118.536 96.7628 118.768 96.3509C119.004 95.9389 119.123 95.5057 119.123 95.0511V93.517C119.052 93.6023 118.896 93.6804 118.654 93.7514C118.417 93.8177 118.143 93.8769 117.83 93.929C117.522 93.9763 117.222 94.0189 116.928 94.0568C116.639 94.09 116.405 94.1184 116.225 94.142C115.79 94.1989 115.382 94.2912 115.004 94.419C114.629 94.5421 114.326 94.7292 114.094 94.9801C113.867 95.2263 113.754 95.5625 113.754 95.9886C113.754 96.571 113.969 97.0114 114.4 97.3097C114.835 97.6032 115.387 97.75 116.055 97.75ZM129.824 96.7273L133.631 88.0909H135.222L130.506 99H129.142L124.512 88.0909H126.074L129.824 96.7273ZM125.534 88.0909V99H123.858V88.0909H125.534ZM134.114 99V88.0909H135.79V99H134.114ZM140.534 96.5284L145.79 88.0909H147.722V99H146.046V90.5625L140.819 99H138.858V88.0909H140.534V96.5284ZM152.979 94.9091V94.8239C152.989 93.9195 153.084 93.1998 153.263 92.6648C153.443 92.1297 153.699 91.6965 154.031 91.3651C154.362 91.0336 154.76 90.7282 155.224 90.4489C155.503 90.2784 155.754 90.0772 155.977 89.8452C156.199 89.6084 156.374 89.3362 156.502 89.0284C156.635 88.7206 156.701 88.3797 156.701 88.0057C156.701 87.5417 156.592 87.1392 156.374 86.7983C156.156 86.4574 155.865 86.1946 155.501 86.0099C155.136 85.8253 154.731 85.733 154.286 85.733C153.898 85.733 153.524 85.8134 153.164 85.9744C152.804 86.1354 152.504 86.3887 152.262 86.7344C152.021 87.08 151.881 87.5322 151.843 88.0909H150.053C150.091 87.286 150.299 86.5971 150.678 86.0241C151.062 85.4512 151.566 85.0133 152.191 84.7102C152.821 84.4072 153.519 84.2557 154.286 84.2557C155.12 84.2557 155.844 84.4214 156.46 84.7528C157.08 85.0843 157.558 85.5388 157.894 86.1165C158.235 86.6941 158.406 87.3523 158.406 88.0909C158.406 88.6117 158.325 89.0829 158.164 89.5043C158.008 89.9257 157.781 90.3021 157.482 90.6335C157.189 90.965 156.834 91.2585 156.417 91.5142C156 91.7746 155.666 92.0492 155.415 92.3381C155.165 92.6222 154.982 92.9607 154.869 93.3537C154.755 93.7467 154.693 94.2367 154.684 94.8239V94.9091H152.979ZM153.888 99.1136C153.538 99.1136 153.237 98.9882 152.987 98.7372C152.736 98.4863 152.61 98.1856 152.61 97.8352C152.61 97.4848 152.736 97.1842 152.987 96.9332C153.237 96.6823 153.538 96.5568 153.888 96.5568C154.239 96.5568 154.54 96.6823 154.79 96.9332C155.041 97.1842 155.167 97.4848 155.167 97.8352C155.167 98.0672 155.108 98.2803 154.989 98.4744C154.876 98.6686 154.722 98.8248 154.528 98.9432C154.338 99.0568 154.125 99.1136 153.888 99.1136Z" fill="black"/>
<path d="M239.303 89.5455V99H238.158V90.7457H238.102L235.794 92.2784V91.1151L238.158 89.5455H239.303ZM244.79 99.1293C244.156 99.1293 243.596 99.0169 243.11 98.7923C242.626 98.5645 242.249 98.2521 241.979 97.8551C241.708 97.455 241.574 96.9995 241.577 96.4886C241.574 96.0885 241.652 95.7192 241.812 95.3807C241.972 95.0391 242.191 94.7544 242.468 94.5266C242.748 94.2958 243.06 94.1496 243.405 94.0881V94.0327C242.953 93.9157 242.593 93.6618 242.325 93.271C242.057 92.877 241.925 92.4292 241.928 91.9276C241.925 91.4474 242.046 91.0181 242.293 90.6396C242.539 90.261 242.877 89.9625 243.308 89.744C243.742 89.5254 244.236 89.4162 244.79 89.4162C245.338 89.4162 245.827 89.5254 246.258 89.744C246.689 89.9625 247.028 90.261 247.274 90.6396C247.523 91.0181 247.649 91.4474 247.652 91.9276C247.649 92.4292 247.512 92.877 247.241 93.271C246.974 93.6618 246.618 93.9157 246.175 94.0327V94.0881C246.517 94.1496 246.824 94.2958 247.098 94.5266C247.372 94.7544 247.591 95.0391 247.754 95.3807C247.917 95.7192 248 96.0885 248.003 96.4886C248 96.9995 247.862 97.455 247.588 97.8551C247.317 98.2521 246.94 98.5645 246.457 98.7923C245.977 99.0169 245.421 99.1293 244.79 99.1293ZM244.79 98.1136C245.218 98.1136 245.587 98.0444 245.898 97.9059C246.209 97.7674 246.449 97.572 246.618 97.3196C246.787 97.0672 246.874 96.7718 246.877 96.4332C246.874 96.0762 246.781 95.7608 246.6 95.4869C246.418 95.2129 246.17 94.9975 245.856 94.8406C245.546 94.6836 245.19 94.6051 244.79 94.6051C244.387 94.6051 244.027 94.6836 243.71 94.8406C243.396 94.9975 243.148 95.2129 242.967 95.4869C242.788 95.7608 242.7 96.0762 242.703 96.4332C242.7 96.7718 242.782 97.0672 242.948 97.3196C243.117 97.572 243.359 97.7674 243.673 97.9059C243.987 98.0444 244.359 98.1136 244.79 98.1136ZM244.79 93.6264C245.129 93.6264 245.429 93.5587 245.69 93.4233C245.955 93.2879 246.163 93.0986 246.314 92.8555C246.464 92.6123 246.541 92.3277 246.544 92.0014C246.541 91.6813 246.466 91.4028 246.318 91.1658C246.17 90.9258 245.966 90.7411 245.704 90.6119C245.443 90.4795 245.138 90.4134 244.79 90.4134C244.436 90.4134 244.127 90.4795 243.862 90.6119C243.597 90.7411 243.393 90.9258 243.248 91.1658C243.104 91.4028 243.033 91.6813 243.036 92.0014C243.033 92.3277 243.105 92.6123 243.253 92.8555C243.404 93.0986 243.611 93.2879 243.876 93.4233C244.141 93.5587 244.445 93.6264 244.79 93.6264ZM250.325 97.7905C250.097 97.7905 249.902 97.7089 249.739 97.5458C249.575 97.3827 249.494 97.1873 249.494 96.9595C249.494 96.7318 249.575 96.5363 249.739 96.3732C249.902 96.2101 250.097 96.1286 250.325 96.1286C250.553 96.1286 250.748 96.2101 250.911 96.3732C251.074 96.5363 251.156 96.7318 251.156 96.9595C251.156 97.1103 251.117 97.2488 251.04 97.375C250.967 97.5012 250.867 97.6027 250.74 97.6797C250.617 97.7536 250.479 97.7905 250.325 97.7905ZM250.325 93.0078C250.097 93.0078 249.902 92.9263 249.739 92.7631C249.575 92.6 249.494 92.4046 249.494 92.1768C249.494 91.9491 249.575 91.7537 249.739 91.5906C249.902 91.4274 250.097 91.3459 250.325 91.3459C250.553 91.3459 250.748 91.4274 250.911 91.5906C251.074 91.7537 251.156 91.9491 251.156 92.1768C251.156 92.3277 251.117 92.4661 251.04 92.5923C250.967 92.7185 250.867 92.8201 250.74 92.897C250.617 92.9709 250.479 93.0078 250.325 93.0078ZM255.787 99.1293C255.245 99.1293 254.758 99.0215 254.324 98.8061C253.89 98.5907 253.542 98.2952 253.28 97.9197C253.019 97.5443 252.876 97.1165 252.851 96.6364H253.959C254.002 97.0642 254.196 97.4181 254.541 97.6982C254.888 97.9751 255.304 98.1136 255.787 98.1136C256.175 98.1136 256.52 98.0228 256.821 97.8413C257.126 97.6597 257.364 97.4104 257.537 97.0934C257.712 96.7733 257.8 96.4117 257.8 96.0085C257.8 95.5961 257.709 95.2283 257.527 94.9052C257.349 94.579 257.103 94.322 256.789 94.1342C256.475 93.9465 256.116 93.8511 255.713 93.848C255.424 93.8449 255.127 93.8896 254.822 93.9819C254.517 94.0711 254.267 94.1866 254.07 94.3281L252.999 94.1989L253.571 89.5455H258.483V90.5611H254.531L254.199 93.3494H254.254C254.448 93.1955 254.691 93.0678 254.984 92.9663C255.276 92.8647 255.581 92.8139 255.898 92.8139C256.476 92.8139 256.992 92.9524 257.444 93.2294C257.9 93.5033 258.257 93.8788 258.515 94.3558C258.777 94.8329 258.908 95.3776 258.908 95.9901C258.908 96.5933 258.772 97.1319 258.502 97.6058C258.234 98.0767 257.864 98.4491 257.394 98.723C256.923 98.9938 256.387 99.1293 255.787 99.1293ZM263.621 99.1293C263.233 99.1231 262.845 99.0492 262.458 98.9077C262.07 98.7661 261.716 98.5276 261.396 98.1921C261.076 97.8536 260.819 97.3965 260.625 96.821C260.431 96.2424 260.334 95.5161 260.334 94.642C260.334 93.8049 260.412 93.0632 260.569 92.4169C260.726 91.7675 260.954 91.2212 261.253 90.7781C261.551 90.3318 261.911 89.9933 262.333 89.7624C262.758 89.5316 263.236 89.4162 263.769 89.4162C264.298 89.4162 264.769 89.5224 265.181 89.7347C265.597 89.944 265.935 90.2364 266.197 90.6119C266.458 90.9873 266.628 91.4197 266.705 91.9091H265.578C265.474 91.4844 265.27 91.132 264.969 90.8519C264.667 90.5719 264.267 90.4318 263.769 90.4318C263.036 90.4318 262.459 90.7504 262.037 91.3874C261.619 92.0245 261.408 92.9186 261.405 94.0696H261.479C261.651 93.808 261.856 93.5849 262.093 93.4002C262.333 93.2125 262.598 93.0678 262.887 92.9663C263.176 92.8647 263.482 92.8139 263.806 92.8139C264.347 92.8139 264.843 92.9493 265.292 93.2202C265.741 93.4879 266.101 93.8588 266.372 94.3327C266.643 94.8036 266.779 95.3438 266.779 95.9531C266.779 96.5379 266.648 97.0734 266.386 97.5597C266.125 98.0429 265.757 98.4276 265.283 98.7138C264.812 98.9969 264.258 99.1354 263.621 99.1293ZM263.621 98.1136C264.009 98.1136 264.356 98.0167 264.664 97.8228C264.975 97.6289 265.22 97.3688 265.398 97.0426C265.58 96.7164 265.671 96.3532 265.671 95.9531C265.671 95.5623 265.583 95.2068 265.407 94.8867C265.235 94.5636 264.997 94.3066 264.692 94.1158C264.39 93.925 264.046 93.8295 263.658 93.8295C263.365 93.8295 263.093 93.888 262.841 94.005C262.588 94.1188 262.367 94.2758 262.176 94.4759C261.988 94.6759 261.84 94.9052 261.733 95.1637C261.625 95.4192 261.571 95.6884 261.571 95.9716C261.571 96.3471 261.659 96.6979 261.834 97.0241C262.013 97.3504 262.256 97.6135 262.564 97.8136C262.875 98.0136 263.227 98.1136 263.621 98.1136Z" fill="#4200FF"/>
<path fill-rule="evenodd" clip-rule="evenodd" d="M154.517 267.027C154.536 267.461 154.536 267.974 154.536 269C154.536 270.026 154.536 270.539 154.517 270.973C154.067 281.279 145.815 289.531 135.509 289.981C135.076 290 134.562 290 133.536 290H28.4452C25.6456 290 24.2457 290 23.069 289.859C19.3335 289.413 15.922 287.942 13.1212 285.735C12.3481 286.607 11.1788 287.772 9.90347 288.503C7.13464 290.09 0.000274658 289.999 0.000274658 289.999C0.000274658 289.999 3.89362 288.503 5.34044 281.686C5.61642 280.386 5.80283 277.282 5.92708 274.032C5.82372 273.518 5.74002 272.996 5.67683 272.467C5.53613 271.29 5.53613 269.891 5.53613 267.091C5.53613 264.758 5.53613 263.591 5.65338 262.611C6.56166 255.014 12.5502 249.026 20.1469 248.117C21.1275 248 22.294 248 24.627 248H133.536C134.562 248 135.076 248 135.509 248.019C145.815 248.469 154.067 256.721 154.517 267.027Z" fill="#D4C5FF"/>
<path d="M110.303 270.353V279.808H109.158V271.553H109.102L106.794 273.086V271.923L109.158 270.353H110.303ZM115.772 270.224C116.159 270.227 116.547 270.301 116.935 270.445C117.323 270.59 117.677 270.83 117.997 271.166C118.317 271.498 118.574 271.952 118.768 272.527C118.962 273.103 119.059 273.825 119.059 274.693C119.059 275.533 118.979 276.279 118.818 276.932C118.662 277.581 118.434 278.129 118.135 278.575C117.84 279.021 117.48 279.36 117.055 279.591C116.633 279.821 116.156 279.937 115.624 279.937C115.095 279.937 114.622 279.832 114.207 279.623C113.794 279.411 113.456 279.117 113.191 278.741C112.929 278.363 112.762 277.924 112.688 277.426H113.814C113.916 277.859 114.117 278.218 114.419 278.501C114.724 278.781 115.125 278.921 115.624 278.921C116.353 278.921 116.929 278.603 117.35 277.966C117.775 277.329 117.988 276.428 117.988 275.265H117.914C117.741 275.524 117.537 275.747 117.3 275.934C117.063 276.122 116.8 276.267 116.51 276.368C116.221 276.47 115.913 276.521 115.587 276.521C115.045 276.521 114.548 276.387 114.096 276.119C113.646 275.848 113.286 275.477 113.016 275.006C112.748 274.533 112.614 273.991 112.614 273.381C112.614 272.803 112.743 272.274 113.002 271.793C113.263 271.31 113.63 270.926 114.1 270.639C114.574 270.353 115.131 270.215 115.772 270.224ZM115.772 271.239C115.384 271.239 115.035 271.336 114.724 271.53C114.416 271.721 114.171 271.98 113.99 272.306C113.811 272.629 113.722 272.988 113.722 273.381C113.722 273.775 113.808 274.134 113.98 274.457C114.156 274.777 114.394 275.033 114.696 275.223C115.001 275.411 115.347 275.505 115.735 275.505C116.027 275.505 116.299 275.448 116.552 275.334C116.804 275.217 117.024 275.059 117.212 274.859C117.403 274.656 117.552 274.426 117.66 274.171C117.767 273.912 117.821 273.643 117.821 273.363C117.821 272.994 117.732 272.647 117.554 272.324C117.378 272.001 117.135 271.74 116.824 271.54C116.516 271.339 116.166 271.239 115.772 271.239ZM121.426 278.598C121.199 278.598 121.003 278.517 120.84 278.353C120.677 278.19 120.596 277.995 120.596 277.767C120.596 277.539 120.677 277.344 120.84 277.181C121.003 277.018 121.199 276.936 121.426 276.936C121.654 276.936 121.85 277.018 122.013 277.181C122.176 277.344 122.257 277.539 122.257 277.767C122.257 277.918 122.219 278.056 122.142 278.183C122.068 278.309 121.968 278.41 121.842 278.487C121.719 278.561 121.58 278.598 121.426 278.598ZM121.426 273.815C121.199 273.815 121.003 273.734 120.84 273.571C120.677 273.408 120.596 273.212 120.596 272.984C120.596 272.757 120.677 272.561 120.84 272.398C121.003 272.235 121.199 272.153 121.426 272.153C121.654 272.153 121.85 272.235 122.013 272.398C122.176 272.561 122.257 272.757 122.257 272.984C122.257 273.135 122.219 273.274 122.142 273.4C122.068 273.526 121.968 273.628 121.842 273.705C121.719 273.778 121.58 273.815 121.426 273.815ZM127.018 279.937C126.322 279.937 125.73 279.748 125.241 279.369C124.751 278.987 124.377 278.435 124.119 277.712C123.86 276.985 123.731 276.108 123.731 275.08C123.731 274.059 123.86 273.186 124.119 272.463C124.38 271.736 124.756 271.182 125.245 270.801C125.738 270.416 126.328 270.224 127.018 270.224C127.707 270.224 128.297 270.416 128.786 270.801C129.278 271.182 129.654 271.736 129.912 272.463C130.174 273.186 130.305 274.059 130.305 275.08C130.305 276.108 130.176 276.985 129.917 277.712C129.658 278.435 129.285 278.987 128.795 279.369C128.306 279.748 127.713 279.937 127.018 279.937ZM127.018 278.921C127.707 278.921 128.243 278.589 128.624 277.924C129.006 277.259 129.197 276.311 129.197 275.08C129.197 274.262 129.109 273.565 128.934 272.989C128.761 272.414 128.512 271.975 128.186 271.673C127.863 271.372 127.473 271.221 127.018 271.221C126.335 271.221 125.801 271.558 125.416 272.232C125.031 272.903 124.839 273.852 124.839 275.08C124.839 275.899 124.925 276.595 125.097 277.167C125.27 277.739 125.517 278.175 125.841 278.473C126.167 278.772 126.559 278.921 127.018 278.921ZM134.827 279.937C134.193 279.937 133.633 279.825 133.147 279.6C132.664 279.372 132.287 279.06 132.016 278.663C131.745 278.263 131.611 277.807 131.614 277.296C131.611 276.896 131.69 276.527 131.85 276.188C132.01 275.847 132.228 275.562 132.505 275.334C132.785 275.103 133.098 274.957 133.443 274.896V274.84C132.99 274.723 132.63 274.469 132.362 274.079C132.094 273.685 131.962 273.237 131.965 272.735C131.962 272.255 132.084 271.826 132.33 271.447C132.576 271.069 132.915 270.77 133.346 270.552C133.78 270.333 134.273 270.224 134.827 270.224C135.375 270.224 135.865 270.333 136.295 270.552C136.726 270.77 137.065 271.069 137.311 271.447C137.56 271.826 137.687 272.255 137.69 272.735C137.687 273.237 137.55 273.685 137.279 274.079C137.011 274.469 136.656 274.723 136.212 274.84V274.896C136.554 274.957 136.862 275.103 137.136 275.334C137.41 275.562 137.628 275.847 137.791 276.188C137.954 276.527 138.037 276.896 138.041 277.296C138.037 277.807 137.899 278.263 137.625 278.663C137.354 279.06 136.977 279.372 136.494 279.6C136.014 279.825 135.458 279.937 134.827 279.937ZM134.827 278.921C135.255 278.921 135.625 278.852 135.935 278.714C136.246 278.575 136.486 278.38 136.656 278.127C136.825 277.875 136.911 277.579 136.914 277.241C136.911 276.884 136.819 276.568 136.637 276.294C136.456 276.021 136.208 275.805 135.894 275.648C135.583 275.491 135.228 275.413 134.827 275.413C134.424 275.413 134.064 275.491 133.747 275.648C133.433 275.805 133.186 276.021 133.004 276.294C132.825 276.568 132.738 276.884 132.741 277.241C132.738 277.579 132.819 277.875 132.985 278.127C133.155 278.38 133.396 278.575 133.71 278.714C134.024 278.852 134.397 278.921 134.827 278.921ZM134.827 274.434C135.166 274.434 135.466 274.366 135.728 274.231C135.992 274.095 136.2 273.906 136.351 273.663C136.502 273.42 136.579 273.135 136.582 272.809C136.579 272.489 136.503 272.21 136.356 271.973C136.208 271.733 136.003 271.549 135.742 271.419C135.48 271.287 135.175 271.221 134.827 271.221C134.474 271.221 134.164 271.287 133.9 271.419C133.635 271.549 133.43 271.733 133.286 271.973C133.141 272.21 133.07 272.489 133.073 272.809C133.07 273.135 133.142 273.42 133.29 273.663C133.441 273.906 133.649 274.095 133.913 274.231C134.178 274.366 134.483 274.434 134.827 274.434Z" fill="#4200FF"/>
<path d="M35.2686 276L30.2686 269.324H28.4788V276H26.7174V261.455H28.4788V267.761H29.2458L35.0697 261.455H37.172L31.2913 267.847L37.3708 276H35.2686ZM42.6301 276.256C41.9388 276.256 41.3114 276.125 40.748 275.865C40.1845 275.6 39.7371 275.219 39.4056 274.722C39.0742 274.22 38.9085 273.614 38.9085 272.903C38.9085 272.278 39.0316 271.772 39.2778 271.384C39.524 270.991 39.8531 270.683 40.265 270.46C40.6769 270.238 41.1315 270.072 41.6286 269.963C42.1305 269.849 42.6348 269.759 43.1414 269.693C43.8043 269.608 44.3417 269.544 44.7536 269.501C45.1703 269.454 45.4733 269.376 45.6627 269.267C45.8569 269.158 45.9539 268.969 45.9539 268.699V268.642C45.9539 267.941 45.7622 267.397 45.3786 267.009C44.9999 266.62 44.4246 266.426 43.6528 266.426C42.8526 266.426 42.2252 266.601 41.7707 266.952C41.3161 267.302 40.9965 267.676 40.8119 268.074L39.221 267.506C39.5051 266.843 39.8838 266.327 40.3573 265.957C40.8356 265.583 41.3564 265.323 41.9198 265.176C42.488 265.025 43.0467 264.949 43.596 264.949C43.9463 264.949 44.3488 264.991 44.8034 265.077C45.2626 265.157 45.7053 265.325 46.1315 265.581C46.5624 265.837 46.9198 266.223 47.2039 266.739C47.488 267.255 47.6301 267.946 47.6301 268.812V276H45.9539V274.523H45.8687C45.7551 274.759 45.5657 275.013 45.3005 275.283C45.0354 275.553 44.6826 275.782 44.2423 275.972C43.8019 276.161 43.2645 276.256 42.6301 276.256ZM42.8857 274.75C43.5486 274.75 44.1073 274.62 44.5619 274.359C45.0212 274.099 45.3668 273.763 45.5988 273.351C45.8356 272.939 45.9539 272.506 45.9539 272.051V270.517C45.8829 270.602 45.7267 270.68 45.4852 270.751C45.2484 270.818 44.9738 270.877 44.6613 270.929C44.3535 270.976 44.0529 271.019 43.7593 271.057C43.4705 271.09 43.2361 271.118 43.0562 271.142C42.6206 271.199 42.2134 271.291 41.8346 271.419C41.4606 271.542 41.1575 271.729 40.9255 271.98C40.6982 272.226 40.5846 272.562 40.5846 272.989C40.5846 273.571 40.8 274.011 41.2309 274.31C41.6665 274.603 42.2181 274.75 42.8857 274.75ZM53.8996 276.256C53.2083 276.256 52.5809 276.125 52.0175 275.865C51.454 275.6 51.0066 275.219 50.6752 274.722C50.3437 274.22 50.178 273.614 50.178 272.903C50.178 272.278 50.3011 271.772 50.5473 271.384C50.7935 270.991 51.1226 270.683 51.5345 270.46C51.9465 270.238 52.401 270.072 52.8982 269.963C53.4001 269.849 53.9043 269.759 54.411 269.693C55.0738 269.608 55.6112 269.544 56.0232 269.501C56.4398 269.454 56.7429 269.376 56.9323 269.267C57.1264 269.158 57.2235 268.969 57.2235 268.699V268.642C57.2235 267.941 57.0317 267.397 56.6482 267.009C56.2694 266.62 55.6941 266.426 54.9223 266.426C54.1221 266.426 53.4948 266.601 53.0402 266.952C52.5857 267.302 52.2661 267.676 52.0814 268.074L50.4905 267.506C50.7746 266.843 51.1534 266.327 51.6269 265.957C52.1051 265.583 52.6259 265.323 53.1894 265.176C53.7575 265.025 54.3163 264.949 54.8655 264.949C55.2159 264.949 55.6183 264.991 56.0729 265.077C56.5322 265.157 56.9749 265.325 57.401 265.581C57.8319 265.837 58.1894 266.223 58.4735 266.739C58.7575 267.255 58.8996 267.946 58.8996 268.812V276H57.2235V274.523H57.1382C57.0246 274.759 56.8352 275.013 56.57 275.283C56.3049 275.553 55.9521 275.782 55.5118 275.972C55.0715 276.161 54.5341 276.256 53.8996 276.256ZM54.1553 274.75C54.8182 274.75 55.3769 274.62 55.8314 274.359C56.2907 274.099 56.6363 273.763 56.8683 273.351C57.1051 272.939 57.2235 272.506 57.2235 272.051V270.517C57.1524 270.602 56.9962 270.68 56.7547 270.751C56.518 270.818 56.2433 270.877 55.9308 270.929C55.6231 270.976 55.3224 271.019 55.0289 271.057C54.74 271.09 54.5057 271.118 54.3257 271.142C53.8901 271.199 53.4829 271.291 53.1041 271.419C52.7301 271.542 52.4271 271.729 52.195 271.98C51.9678 272.226 51.8541 272.562 51.8541 272.989C51.8541 273.571 52.0696 274.011 52.5004 274.31C52.9361 274.603 53.4877 274.75 54.1553 274.75ZM65.1691 276.256C64.4778 276.256 63.8505 276.125 63.287 275.865C62.7236 275.6 62.2761 275.219 61.9447 274.722C61.6133 274.22 61.4475 273.614 61.4475 272.903C61.4475 272.278 61.5706 271.772 61.8169 271.384C62.0631 270.991 62.3921 270.683 62.8041 270.46C63.216 270.238 63.6705 270.072 64.1677 269.963C64.6696 269.849 65.1739 269.759 65.6805 269.693C66.3434 269.608 66.8808 269.544 67.2927 269.501C67.7094 269.454 68.0124 269.376 68.2018 269.267C68.3959 269.158 68.493 268.969 68.493 268.699V268.642C68.493 267.941 68.3012 267.397 67.9177 267.009C67.5389 266.62 66.9636 266.426 66.1919 266.426C65.3917 266.426 64.7643 266.601 64.3097 266.952C63.8552 267.302 63.5356 267.676 63.3509 268.074L61.76 267.506C62.0441 266.843 62.4229 266.327 62.8964 265.957C63.3746 265.583 63.8954 265.323 64.4589 265.176C65.0271 265.025 65.5858 264.949 66.135 264.949C66.4854 264.949 66.8879 264.991 67.3424 265.077C67.8017 265.157 68.2444 265.325 68.6705 265.581C69.1014 265.837 69.4589 266.223 69.743 266.739C70.0271 267.255 70.1691 267.946 70.1691 268.812V276H68.493V274.523H68.4078C68.2941 274.759 68.1047 275.013 67.8396 275.283C67.5744 275.553 67.2217 275.782 66.7813 275.972C66.341 276.161 65.8036 276.256 65.1691 276.256ZM65.4248 274.75C66.0877 274.75 66.6464 274.62 67.1009 274.359C67.5602 274.099 67.9059 273.763 68.1379 273.351C68.3746 272.939 68.493 272.506 68.493 272.051V270.517C68.422 270.602 68.2657 270.68 68.0242 270.751C67.7875 270.818 67.5129 270.877 67.2004 270.929C66.8926 270.976 66.5919 271.019 66.2984 271.057C66.0096 271.09 65.7752 271.118 65.5953 271.142C65.1597 271.199 64.7525 271.291 64.3737 271.419C63.9996 271.542 63.6966 271.729 63.4646 271.98C63.2373 272.226 63.1237 272.562 63.1237 272.989C63.1237 273.571 63.3391 274.011 63.77 274.31C64.2056 274.603 64.7572 274.75 65.4248 274.75ZM74.9046 273.528L80.1602 265.091H82.0921V276H80.4159V267.562L75.1887 276H73.2284V265.091H74.9046V273.528ZM79.0523 261.455H80.6148C80.6148 262.222 80.3496 262.849 79.8193 263.337C79.289 263.824 78.5693 264.068 77.6602 264.068C76.7654 264.068 76.0528 263.824 75.5225 263.337C74.9969 262.849 74.7341 262.222 74.7341 261.455H76.2966C76.2966 261.824 76.3984 262.148 76.602 262.428C76.8103 262.707 77.1631 262.847 77.6602 262.847C78.1574 262.847 78.5125 262.707 78.7256 262.428C78.9434 262.148 79.0523 261.824 79.0523 261.455ZM89.5938 279.722V261.455H91.27V279.722H89.5938ZM89.5938 276.227C88.8552 276.227 88.1829 276.095 87.5768 275.83C86.9707 275.56 86.4499 275.179 86.0143 274.686C85.5787 274.189 85.2425 273.595 85.0058 272.903C84.769 272.212 84.6507 271.445 84.6507 270.602C84.6507 269.75 84.769 268.978 85.0058 268.287C85.2425 267.591 85.5787 266.994 86.0143 266.497C86.4499 266 86.9707 265.619 87.5768 265.354C88.1829 265.084 88.8552 264.949 89.5938 264.949H90.1052V276.227H89.5938ZM89.5938 274.722H89.8779V266.455H89.5938C89.0351 266.455 88.5498 266.568 88.1379 266.795C87.7259 267.018 87.385 267.323 87.1151 267.712C86.85 268.095 86.6511 268.536 86.5186 269.033C86.3907 269.53 86.3268 270.053 86.3268 270.602C86.3268 271.331 86.4428 272.009 86.6748 272.634C86.9068 273.259 87.2643 273.763 87.7472 274.146C88.2302 274.53 88.8457 274.722 89.5938 274.722ZM91.27 276.227H90.7586V264.949H91.27C92.0086 264.949 92.681 265.084 93.287 265.354C93.8931 265.619 94.4139 266 94.8495 266.497C95.2851 266.994 95.6213 267.591 95.858 268.287C96.0948 268.978 96.2132 269.75 96.2132 270.602C96.2132 271.445 96.0948 272.212 95.858 272.903C95.6213 273.595 95.2851 274.189 94.8495 274.686C94.4139 275.179 93.8931 275.56 93.287 275.83C92.681 276.095 92.0086 276.227 91.27 276.227ZM91.27 274.722C91.8334 274.722 92.3187 274.613 92.7259 274.395C93.1379 274.172 93.4764 273.869 93.7416 273.486C94.0115 273.098 94.2103 272.657 94.3382 272.165C94.4707 271.668 94.537 271.147 94.537 270.602C94.537 269.873 94.421 269.194 94.189 268.564C93.957 267.934 93.5995 267.425 93.1166 267.037C92.6336 266.649 92.0181 266.455 91.27 266.455H90.9859V274.722H91.27Z" fill="black"/>
<path d="M370.956 150C370.956 137.85 380.806 128 392.956 128H475.623C483.748 128 487.811 128 491.081 129.13C497.061 131.196 501.76 135.895 503.826 141.875C504.956 145.145 504.956 149.208 504.956 157.333C504.956 161.396 504.956 163.427 504.391 165.062C503.358 168.052 501.008 170.402 498.018 171.435C496.383 172 494.352 172 490.289 172H392.956C380.806 172 370.956 162.15 370.956 150Z" fill="#F5F1FF"/>
<path d="M394.754 157H392.836L398.384 141.89H400.273L405.821 157H403.903L399.388 144.28H399.27L394.754 157ZM395.463 151.098H403.195V152.721H395.463V151.098ZM414.933 145.667V147.291H409.68V157H407.939V145.667H414.933ZM420.221 157.266C419.503 157.266 418.852 157.13 418.266 156.86C417.681 156.584 417.216 156.188 416.872 155.672C416.528 155.151 416.355 154.521 416.355 153.783C416.355 153.134 416.483 152.608 416.739 152.204C416.995 151.796 417.337 151.476 417.765 151.245C418.193 151.014 418.665 150.842 419.181 150.729C419.703 150.611 420.226 150.517 420.753 150.448C421.441 150.36 422 150.293 422.427 150.249C422.86 150.2 423.175 150.119 423.372 150.006C423.574 149.893 423.674 149.696 423.674 149.415V149.356C423.674 148.628 423.475 148.063 423.077 147.659C422.683 147.256 422.086 147.054 421.284 147.054C420.453 147.054 419.801 147.236 419.329 147.6C418.857 147.964 418.525 148.353 418.333 148.766L416.68 148.176C416.975 147.487 417.369 146.951 417.861 146.568C418.357 146.179 418.898 145.908 419.484 145.756C420.074 145.599 420.654 145.52 421.225 145.52C421.589 145.52 422.007 145.564 422.479 145.653C422.956 145.736 423.416 145.911 423.859 146.176C424.306 146.442 424.678 146.843 424.973 147.379C425.268 147.915 425.416 148.633 425.416 149.533V157H423.674V155.465H423.586C423.468 155.711 423.271 155.974 422.996 156.255C422.72 156.535 422.354 156.774 421.896 156.97C421.439 157.167 420.881 157.266 420.221 157.266ZM420.487 155.701C421.176 155.701 421.756 155.566 422.228 155.296C422.705 155.025 423.064 154.676 423.305 154.248C423.551 153.82 423.674 153.37 423.674 152.898V151.304C423.601 151.393 423.438 151.474 423.187 151.548C422.941 151.617 422.656 151.678 422.332 151.732C422.012 151.781 421.7 151.826 421.395 151.865C421.095 151.899 420.851 151.929 420.664 151.953C420.212 152.012 419.789 152.108 419.395 152.241C419.007 152.369 418.692 152.563 418.451 152.824C418.215 153.08 418.097 153.429 418.097 153.872C418.097 154.477 418.32 154.934 418.768 155.244C419.221 155.549 419.794 155.701 420.487 155.701Z" fill="black"/>
<path d="M442.237 150.545V160.504H441.031V151.809H440.973L438.541 153.424V152.198L441.031 150.545H442.237ZM447.998 150.409C448.407 150.412 448.815 150.49 449.224 150.642C449.632 150.794 450.005 151.047 450.342 151.401C450.679 151.751 450.95 152.229 451.154 152.835C451.359 153.441 451.461 154.202 451.461 155.116C451.461 156.001 451.376 156.787 451.208 157.474C451.042 158.158 450.803 158.735 450.488 159.206C450.177 159.676 449.798 160.032 449.35 160.275C448.906 160.518 448.404 160.64 447.843 160.64C447.285 160.64 446.787 160.53 446.35 160.309C445.915 160.086 445.559 159.776 445.28 159.381C445.004 158.982 444.828 158.52 444.75 157.995H445.936C446.043 158.452 446.256 158.829 446.573 159.128C446.894 159.423 447.317 159.57 447.843 159.57C448.611 159.57 449.217 159.235 449.661 158.564C450.109 157.893 450.332 156.944 450.332 155.719H450.255C450.073 155.991 449.858 156.226 449.608 156.424C449.358 156.622 449.081 156.774 448.776 156.881C448.472 156.988 448.147 157.042 447.804 157.042C447.233 157.042 446.71 156.9 446.233 156.618C445.76 156.333 445.38 155.943 445.095 155.446C444.813 154.947 444.672 154.377 444.672 153.735C444.672 153.125 444.808 152.568 445.081 152.062C445.356 151.553 445.742 151.148 446.238 150.846C446.737 150.545 447.324 150.399 447.998 150.409ZM447.998 151.478C447.59 151.478 447.222 151.58 446.894 151.785C446.57 151.986 446.312 152.258 446.121 152.602C445.933 152.942 445.839 153.32 445.839 153.735C445.839 154.15 445.93 154.527 446.111 154.868C446.296 155.205 446.548 155.474 446.865 155.675C447.186 155.873 447.551 155.972 447.959 155.972C448.267 155.972 448.554 155.912 448.82 155.792C449.086 155.669 449.318 155.502 449.516 155.291C449.717 155.077 449.874 154.835 449.987 154.566C450.101 154.294 450.157 154.01 450.157 153.715C450.157 153.326 450.063 152.962 449.875 152.621C449.691 152.281 449.434 152.005 449.107 151.794C448.783 151.584 448.413 151.478 447.998 151.478ZM453.955 159.23C453.715 159.23 453.509 159.144 453.337 158.972C453.166 158.8 453.08 158.594 453.08 158.355C453.08 158.115 453.166 157.909 453.337 157.737C453.509 157.565 453.715 157.479 453.955 157.479C454.195 157.479 454.401 157.565 454.573 157.737C454.744 157.909 454.83 158.115 454.83 158.355C454.83 158.513 454.79 158.659 454.709 158.792C454.631 158.925 454.526 159.032 454.393 159.113C454.263 159.191 454.117 159.23 453.955 159.23ZM453.955 154.192C453.715 154.192 453.509 154.106 453.337 153.934C453.166 153.762 453.08 153.556 453.08 153.317C453.08 153.077 453.166 152.871 453.337 152.699C453.509 152.527 453.715 152.441 453.955 152.441C454.195 152.441 454.401 152.527 454.573 152.699C454.744 152.871 454.83 153.077 454.83 153.317C454.83 153.475 454.79 153.621 454.709 153.754C454.631 153.887 454.526 153.994 454.393 154.075C454.263 154.153 454.117 154.192 453.955 154.192ZM459.845 160.64C459.112 160.64 458.488 160.441 457.973 160.042C457.457 159.64 457.063 159.058 456.791 158.296C456.519 157.531 456.382 156.607 456.382 155.524C456.382 154.448 456.519 153.529 456.791 152.767C457.067 152.002 457.462 151.418 457.977 151.016C458.496 150.611 459.119 150.409 459.845 150.409C460.571 150.409 461.192 150.611 461.707 151.016C462.226 151.418 462.622 152.002 462.894 152.767C463.169 153.529 463.307 154.448 463.307 155.524C463.307 156.607 463.171 157.531 462.899 158.296C462.626 159.058 462.233 159.64 461.717 160.042C461.202 160.441 460.578 160.64 459.845 160.64ZM459.845 159.57C460.571 159.57 461.135 159.22 461.537 158.52C461.939 157.82 462.14 156.821 462.14 155.524C462.14 154.662 462.048 153.928 461.863 153.321C461.681 152.715 461.419 152.253 461.075 151.935C460.735 151.618 460.325 151.459 459.845 151.459C459.125 151.459 458.563 151.814 458.157 152.524C457.752 153.231 457.55 154.231 457.55 155.524C457.55 156.387 457.64 157.119 457.822 157.722C458.003 158.325 458.264 158.784 458.605 159.099C458.948 159.413 459.362 159.57 459.845 159.57ZM464.925 160.504L469.379 151.692V151.615H464.244V150.545H470.624V151.673L466.189 160.504H464.925Z" fill="#4200FF"/>
<path fill-rule="evenodd" clip-rule="evenodd" d="M491.447 150.972C491.674 151.192 491.681 151.554 491.461 151.781L482.553 161.008C482.442 161.122 482.289 161.185 482.13 161.182C481.971 161.179 481.82 161.11 481.714 160.991L477.737 156.537C477.527 156.301 477.547 155.94 477.783 155.729C478.019 155.519 478.381 155.539 478.591 155.775L482.157 159.769L490.637 150.986C490.857 150.759 491.219 150.753 491.447 150.972Z" fill="#4200FF"/>
<path fill-rule="evenodd" clip-rule="evenodd" d="M494.811 151.161C495.038 151.38 495.045 151.743 494.825 151.97L485.917 161.196C485.807 161.311 485.653 161.374 485.494 161.371C485.335 161.368 485.184 161.299 485.078 161.18L481.101 156.726C480.891 156.49 480.911 156.128 481.147 155.918C481.383 155.707 481.745 155.728 481.955 155.963L485.522 159.958L494.002 151.175C494.221 150.947 494.584 150.941 494.811 151.161Z" fill="#4200FF"/>
<path fill-rule="evenodd" clip-rule="evenodd" d="M168.126 188.226C165.88 192.633 165.88 198.403 165.88 209.943V211.008C165.88 222.547 165.88 228.317 168.126 232.725C170.101 236.602 173.253 239.754 177.13 241.73C181.538 243.975 187.308 243.975 198.848 243.975H470.081C482.261 243.975 488.352 243.975 493.004 241.605C493.884 241.157 494.728 240.651 495.531 240.094C496.629 240.876 498.034 241.745 499.537 242.338C503.704 243.982 514.44 243.887 514.44 243.887C514.44 243.887 508.581 242.338 506.404 235.278C505.37 231.924 505.171 211.969 505.171 211.969L504.878 212.617C504.88 211.527 504.88 210.381 504.88 209.176V193.459C504.88 187.689 504.88 184.804 503.757 182.601C502.769 180.662 501.193 179.086 499.255 178.098C497.051 176.975 494.166 176.975 488.396 176.975H198.848C187.308 176.975 181.538 176.975 177.13 179.221C173.253 181.197 170.101 184.349 168.126 188.226Z" fill="#F5F1FF"/>
<path d="M190.701 189.89V191.513H183.412V205H181.582V189.89H190.701ZM192.293 205V203.377H192.706C193.046 203.377 193.328 203.31 193.555 203.178C193.781 203.04 193.963 202.801 194.101 202.462C194.243 202.118 194.351 201.641 194.425 201.031C194.504 200.416 194.56 199.634 194.595 198.684L194.801 193.667H202.357V205H200.615V195.291H196.454L196.277 199.334C196.238 200.263 196.154 201.082 196.026 201.791C195.903 202.494 195.714 203.084 195.458 203.561C195.207 204.038 194.873 204.397 194.455 204.638C194.037 204.879 193.513 205 192.883 205H192.293ZM212.369 205V195.261H209.358C208.68 195.261 208.146 195.418 207.757 195.733C207.369 196.048 207.174 196.481 207.174 197.032C207.174 197.573 207.349 197.998 207.698 198.308C208.052 198.618 208.537 198.773 209.152 198.773H212.811V200.396H209.152C208.384 200.396 207.723 200.261 207.167 199.99C206.611 199.72 206.183 199.334 205.883 198.832C205.583 198.325 205.433 197.725 205.433 197.032C205.433 196.333 205.591 195.733 205.905 195.232C206.22 194.73 206.67 194.344 207.256 194.073C207.846 193.803 208.547 193.667 209.358 193.667H214.021V205H212.369ZM204.813 205L208.03 199.363H209.919L206.702 205H204.813ZM224.802 198.537V200.16H218.546V198.537H224.802ZM218.959 193.667V205H217.218V193.667H218.959ZM226.13 193.667V205H224.389V193.667H226.13ZM230.815 197.77H234.062C235.39 197.77 236.405 198.106 237.109 198.78C237.812 199.454 238.164 200.308 238.164 201.341C238.164 202.019 238.006 202.637 237.692 203.192C237.377 203.743 236.914 204.184 236.305 204.513C235.695 204.838 234.947 205 234.062 205H229.31V193.667H231.051V203.377H234.062C234.75 203.377 235.316 203.195 235.759 202.831C236.201 202.467 236.423 202 236.423 201.429C236.423 200.829 236.201 200.34 235.759 199.961C235.316 199.582 234.75 199.393 234.062 199.393H230.815V197.77ZM248.399 202.432L253.859 193.667H255.865V205H254.124V196.235L248.694 205H246.658V193.667H248.399V202.432ZM266.639 198.537V200.16H260.383V198.537H266.639ZM260.796 193.667V205H259.055V193.667H260.796ZM267.967 193.667V205H266.226V193.667H267.967ZM269.605 195.291V193.667H278.813V195.291H275.094V205H273.353V195.291H269.605ZM285.516 205.236C284.424 205.236 283.482 204.995 282.69 204.513C281.903 204.026 281.296 203.347 280.868 202.477C280.445 201.601 280.233 200.583 280.233 199.422C280.233 198.261 280.445 197.238 280.868 196.353C281.296 195.463 281.891 194.769 282.653 194.272C283.42 193.771 284.316 193.52 285.339 193.52C285.929 193.52 286.512 193.618 287.087 193.815C287.663 194.012 288.187 194.331 288.659 194.774C289.131 195.212 289.507 195.792 289.788 196.515C290.068 197.238 290.208 198.129 290.208 199.186V199.924H281.473V198.419H288.438C288.438 197.779 288.31 197.209 288.054 196.707C287.803 196.205 287.444 195.809 286.977 195.519C286.514 195.229 285.968 195.084 285.339 195.084C284.645 195.084 284.045 195.256 283.539 195.6C283.037 195.94 282.651 196.382 282.38 196.928C282.11 197.474 281.974 198.06 281.974 198.684V199.688C281.974 200.544 282.122 201.269 282.417 201.864C282.717 202.455 283.133 202.905 283.664 203.215C284.195 203.519 284.812 203.672 285.516 203.672C285.973 203.672 286.386 203.608 286.755 203.48C287.129 203.347 287.451 203.151 287.722 202.89C287.992 202.624 288.201 202.295 288.349 201.901L290.031 202.373C289.854 202.944 289.557 203.446 289.138 203.879C288.72 204.306 288.204 204.641 287.589 204.882C286.974 205.118 286.283 205.236 285.516 205.236ZM292.857 209.25V193.667H294.539V195.468H294.746C294.874 195.271 295.051 195.02 295.277 194.715C295.508 194.405 295.838 194.13 296.266 193.889C296.698 193.643 297.284 193.52 298.022 193.52C298.976 193.52 299.817 193.758 300.545 194.236C301.273 194.713 301.841 195.389 302.249 196.264C302.657 197.14 302.861 198.173 302.861 199.363C302.861 200.563 302.657 201.604 302.249 202.484C301.841 203.36 301.275 204.038 300.552 204.52C299.829 204.998 298.995 205.236 298.051 205.236C297.323 205.236 296.74 205.116 296.302 204.875C295.865 204.629 295.528 204.351 295.292 204.041C295.056 203.726 294.874 203.465 294.746 203.259H294.598V209.25H292.857ZM294.569 199.334C294.569 200.19 294.694 200.945 294.945 201.599C295.196 202.248 295.562 202.757 296.044 203.126C296.526 203.49 297.116 203.672 297.815 203.672C298.543 203.672 299.15 203.48 299.637 203.096C300.129 202.708 300.498 202.187 300.744 201.532C300.995 200.873 301.12 200.14 301.12 199.334C301.12 198.537 300.997 197.819 300.751 197.179C300.51 196.535 300.144 196.026 299.652 195.652C299.165 195.273 298.553 195.084 297.815 195.084C297.107 195.084 296.511 195.264 296.029 195.623C295.547 195.977 295.183 196.473 294.938 197.113C294.692 197.747 294.569 198.488 294.569 199.334ZM308.852 205.266C308.134 205.266 307.483 205.13 306.897 204.86C306.312 204.584 305.847 204.188 305.503 203.672C305.159 203.151 304.986 202.521 304.986 201.783C304.986 201.134 305.114 200.608 305.37 200.204C305.626 199.796 305.968 199.476 306.396 199.245C306.823 199.014 307.296 198.842 307.812 198.729C308.334 198.611 308.857 198.517 309.384 198.448C310.072 198.36 310.631 198.293 311.058 198.249C311.491 198.2 311.806 198.119 312.003 198.006C312.205 197.893 312.305 197.696 312.305 197.415V197.356C312.305 196.628 312.106 196.063 311.708 195.659C311.314 195.256 310.717 195.054 309.915 195.054C309.084 195.054 308.432 195.236 307.96 195.6C307.488 195.964 307.155 196.353 306.964 196.766L305.311 196.176C305.606 195.487 306 194.951 306.491 194.568C306.988 194.179 307.529 193.908 308.115 193.756C308.705 193.599 309.285 193.52 309.856 193.52C310.22 193.52 310.638 193.564 311.11 193.653C311.587 193.736 312.047 193.911 312.49 194.176C312.937 194.442 313.309 194.843 313.604 195.379C313.899 195.915 314.047 196.633 314.047 197.533V205H312.305V203.465H312.217C312.099 203.711 311.902 203.974 311.627 204.255C311.351 204.535 310.985 204.774 310.527 204.97C310.07 205.167 309.512 205.266 308.852 205.266ZM309.118 203.701C309.807 203.701 310.387 203.566 310.859 203.296C311.336 203.025 311.695 202.676 311.936 202.248C312.182 201.82 312.305 201.37 312.305 200.898V199.304C312.232 199.393 312.069 199.474 311.818 199.548C311.572 199.617 311.287 199.678 310.963 199.732C310.643 199.781 310.33 199.826 310.026 199.865C309.725 199.899 309.482 199.929 309.295 199.953C308.843 200.012 308.42 200.108 308.026 200.241C307.638 200.369 307.323 200.563 307.082 200.824C306.846 201.08 306.728 201.429 306.728 201.872C306.728 202.477 306.951 202.934 307.399 203.244C307.851 203.549 308.425 203.701 309.118 203.701ZM317.225 205V193.667H318.966V198.596H320.117L324.189 193.667H326.432L321.858 199.127L326.491 205H324.248L320.53 200.219H318.966V205H317.225ZM327.735 195.291V193.667H336.942V195.291H333.224V205H331.483V195.291H327.735ZM341.223 202.432L346.683 193.667H348.69V205H346.949V196.235L341.519 205H339.482V193.667H341.223V202.432ZM351.879 205V193.667H356.512C357.732 193.667 358.701 193.943 359.419 194.494C360.138 195.045 360.497 195.773 360.497 196.678C360.497 197.366 360.292 197.9 359.884 198.279C359.476 198.652 358.952 198.906 358.313 199.039C358.731 199.098 359.137 199.245 359.53 199.481C359.928 199.717 360.258 200.042 360.519 200.455C360.779 200.863 360.91 201.365 360.91 201.96C360.91 202.541 360.762 203.06 360.467 203.517C360.172 203.974 359.749 204.336 359.198 204.602C358.647 204.867 357.988 205 357.221 205H351.879ZM353.532 203.406H357.221C357.821 203.406 358.291 203.264 358.63 202.978C358.969 202.693 359.139 202.305 359.139 201.813C359.139 201.227 358.969 200.767 358.63 200.433C358.291 200.094 357.821 199.924 357.221 199.924H353.532V203.406ZM353.532 198.419H356.512C356.98 198.419 357.381 198.355 357.715 198.227C358.05 198.094 358.305 197.907 358.482 197.666C358.664 197.42 358.755 197.13 358.755 196.796C358.755 196.319 358.556 195.945 358.158 195.674C357.759 195.399 357.211 195.261 356.512 195.261H353.532V198.419ZM365.051 197.77H368.297C369.625 197.77 370.641 198.106 371.344 198.78C372.047 199.454 372.399 200.308 372.399 201.341C372.399 202.019 372.242 202.637 371.927 203.192C371.612 203.743 371.15 204.184 370.54 204.513C369.93 204.838 369.182 205 368.297 205H363.546V193.667H365.287V203.377H368.297C368.986 203.377 369.551 203.195 369.994 202.831C370.437 202.467 370.658 202 370.658 201.429C370.658 200.829 370.437 200.34 369.994 199.961C369.551 199.582 368.986 199.393 368.297 199.393H365.051V197.77ZM374.199 205V193.667H375.941V205H374.199ZM381.725 202.934L381.607 203.731C381.523 204.292 381.395 204.892 381.223 205.531C381.056 206.171 380.881 206.773 380.699 207.339C380.517 207.904 380.367 208.355 380.249 208.689H378.921C378.985 208.374 379.069 207.959 379.172 207.442C379.275 206.926 379.379 206.348 379.482 205.708C379.59 205.074 379.679 204.425 379.748 203.76L379.836 202.934H381.725ZM390.145 195.291V193.667H399.353V195.291H395.634V205H393.893V195.291H390.145ZM404.639 205.266C403.921 205.266 403.269 205.13 402.684 204.86C402.099 204.584 401.634 204.188 401.29 203.672C400.945 203.151 400.773 202.521 400.773 201.783C400.773 201.134 400.901 200.608 401.157 200.204C401.412 199.796 401.754 199.476 402.182 199.245C402.61 199.014 403.082 198.842 403.599 198.729C404.12 198.611 404.644 198.517 405.17 198.448C405.859 198.36 406.417 198.293 406.845 198.249C407.278 198.2 407.593 198.119 407.79 198.006C407.991 197.893 408.092 197.696 408.092 197.415V197.356C408.092 196.628 407.893 196.063 407.494 195.659C407.101 195.256 406.503 195.054 405.702 195.054C404.87 195.054 404.219 195.236 403.746 195.6C403.274 195.964 402.942 196.353 402.75 196.766L401.098 196.176C401.393 195.487 401.786 194.951 402.278 194.568C402.775 194.179 403.316 193.908 403.901 193.756C404.492 193.599 405.072 193.52 405.643 193.52C406.007 193.52 406.425 193.564 406.897 193.653C407.374 193.736 407.834 193.911 408.276 194.176C408.724 194.442 409.095 194.843 409.391 195.379C409.686 195.915 409.833 196.633 409.833 197.533V205H408.092V203.465H408.004C407.885 203.711 407.689 203.974 407.413 204.255C407.138 204.535 406.771 204.774 406.314 204.97C405.857 205.167 405.298 205.266 404.639 205.266ZM404.905 203.701C405.593 203.701 406.174 203.566 406.646 203.296C407.123 203.025 407.482 202.676 407.723 202.248C407.969 201.82 408.092 201.37 408.092 200.898V199.304C408.018 199.393 407.856 199.474 407.605 199.548C407.359 199.617 407.074 199.678 406.749 199.732C406.43 199.781 406.117 199.826 405.812 199.865C405.512 199.899 405.269 199.929 405.082 199.953C404.629 200.012 404.206 200.108 403.813 200.241C403.424 200.369 403.109 200.563 402.868 200.824C402.632 201.08 402.514 201.429 402.514 201.872C402.514 202.477 402.738 202.934 403.186 203.244C403.638 203.549 404.211 203.701 404.905 203.701ZM419.209 202.639L423.163 193.667H424.816L419.917 205H418.501L413.69 193.667H415.313L419.209 202.639ZM414.753 193.667V205H413.011V193.667H414.753ZM423.665 205V193.667H425.406V205H423.665ZM223.819 233.246V228.377H224.764C224.995 228.136 225.194 227.875 225.361 227.595C225.528 227.314 225.674 226.982 225.796 226.599C225.924 226.21 226.033 225.738 226.121 225.182C226.21 224.621 226.288 223.945 226.357 223.153L226.741 218.667H233.942V228.377H235.683V233.246H233.942V230H225.56V233.246H223.819ZM226.741 228.377H232.201V220.291H228.364L228.069 223.153C227.946 224.339 227.793 225.374 227.611 226.259C227.429 227.145 227.139 227.851 226.741 228.377ZM241.329 230.266C240.611 230.266 239.959 230.13 239.374 229.86C238.789 229.584 238.324 229.188 237.979 228.672C237.635 228.151 237.463 227.521 237.463 226.783C237.463 226.134 237.591 225.608 237.847 225.204C238.102 224.796 238.444 224.476 238.872 224.245C239.3 224.014 239.772 223.842 240.289 223.729C240.81 223.611 241.334 223.517 241.86 223.448C242.549 223.36 243.107 223.293 243.535 223.249C243.968 223.2 244.283 223.119 244.479 223.006C244.681 222.893 244.782 222.696 244.782 222.415V222.356C244.782 221.628 244.583 221.063 244.184 220.659C243.791 220.256 243.193 220.054 242.391 220.054C241.56 220.054 240.908 220.236 240.436 220.6C239.964 220.964 239.632 221.353 239.44 221.766L237.788 221.176C238.083 220.487 238.476 219.951 238.968 219.568C239.465 219.179 240.006 218.908 240.591 218.756C241.181 218.599 241.762 218.52 242.332 218.52C242.696 218.52 243.114 218.564 243.587 218.653C244.064 218.736 244.524 218.911 244.966 219.176C245.414 219.442 245.785 219.843 246.08 220.379C246.376 220.915 246.523 221.633 246.523 222.533V230H244.782V228.465H244.693C244.575 228.711 244.379 228.974 244.103 229.255C243.828 229.535 243.461 229.774 243.004 229.97C242.546 230.167 241.988 230.266 241.329 230.266ZM241.595 228.701C242.283 228.701 242.864 228.566 243.336 228.296C243.813 228.025 244.172 227.676 244.413 227.248C244.659 226.82 244.782 226.37 244.782 225.898V224.304C244.708 224.393 244.546 224.474 244.295 224.548C244.049 224.617 243.764 224.678 243.439 224.732C243.119 224.781 242.807 224.826 242.502 224.865C242.202 224.899 241.959 224.929 241.772 224.953C241.319 225.012 240.896 225.108 240.503 225.241C240.114 225.369 239.799 225.563 239.558 225.824C239.322 226.08 239.204 226.429 239.204 226.872C239.204 227.477 239.428 227.934 239.876 228.244C240.328 228.549 240.901 228.701 241.595 228.701ZM248.993 230L253.597 224.245L249.052 218.667H251.118L254.895 223.507H255.84V218.667H257.581V223.507H258.496L262.273 218.667H264.339L259.824 224.245L264.398 230H262.303L258.466 225.131H257.581V230H255.84V225.131H254.954L251.088 230H248.993ZM271.171 230.236C270.079 230.236 269.137 229.995 268.345 229.513C267.558 229.026 266.951 228.347 266.523 227.477C266.1 226.601 265.889 225.583 265.889 224.422C265.889 223.261 266.1 222.238 266.523 221.353C266.951 220.463 267.546 219.769 268.308 219.272C269.076 218.771 269.971 218.52 270.994 218.52C271.584 218.52 272.167 218.618 272.743 218.815C273.318 219.012 273.842 219.331 274.314 219.774C274.786 220.212 275.163 220.792 275.443 221.515C275.723 222.238 275.864 223.129 275.864 224.186V224.924H267.128V223.419H274.093C274.093 222.779 273.965 222.209 273.709 221.707C273.458 221.205 273.099 220.809 272.632 220.519C272.17 220.229 271.624 220.084 270.994 220.084C270.301 220.084 269.7 220.256 269.194 220.6C268.692 220.94 268.306 221.382 268.036 221.928C267.765 222.474 267.63 223.06 267.63 223.684V224.688C267.63 225.544 267.777 226.269 268.072 226.864C268.372 227.455 268.788 227.905 269.319 228.215C269.85 228.519 270.468 228.672 271.171 228.672C271.629 228.672 272.042 228.608 272.411 228.48C272.784 228.347 273.107 228.151 273.377 227.89C273.648 227.624 273.857 227.295 274.004 226.901L275.686 227.373C275.509 227.944 275.212 228.446 274.794 228.879C274.376 229.306 273.859 229.641 273.244 229.882C272.63 230.118 271.938 230.236 271.171 230.236ZM286.421 214.89V230H284.592V214.89H286.421ZM289.264 216.513V214.89H300.596V216.513H295.845V230H294.015V216.513H289.264ZM308.135 221.633V223.257H301.524V221.633H308.135ZM317.396 227.639L321.351 218.667H323.003L318.104 230H316.688L311.877 218.667H313.501L317.396 227.639ZM312.94 218.667V230H311.199V218.667H312.94ZM321.852 230V218.667H323.594V230H321.852ZM330.116 230.266C329.398 230.266 328.746 230.13 328.161 229.86C327.575 229.584 327.111 229.188 326.766 228.672C326.422 228.151 326.25 227.521 326.25 226.783C326.25 226.134 326.378 225.608 326.633 225.204C326.889 224.796 327.231 224.476 327.659 224.245C328.087 224.014 328.559 223.842 329.076 223.729C329.597 223.611 330.121 223.517 330.647 223.448C331.336 223.36 331.894 223.293 332.322 223.249C332.755 223.2 333.069 223.119 333.266 223.006C333.468 222.893 333.569 222.696 333.569 222.415V222.356C333.569 221.628 333.37 221.063 332.971 220.659C332.578 220.256 331.98 220.054 331.178 220.054C330.347 220.054 329.695 220.236 329.223 220.6C328.751 220.964 328.419 221.353 328.227 221.766L326.574 221.176C326.87 220.487 327.263 219.951 327.755 219.568C328.252 219.179 328.793 218.908 329.378 218.756C329.968 218.599 330.549 218.52 331.119 218.52C331.483 218.52 331.901 218.564 332.373 218.653C332.851 218.736 333.31 218.911 333.753 219.176C334.201 219.442 334.572 219.843 334.867 220.379C335.162 220.915 335.31 221.633 335.31 222.533V230H333.569V228.465H333.48C333.362 228.711 333.165 228.974 332.89 229.255C332.615 229.535 332.248 229.774 331.791 229.97C331.333 230.167 330.775 230.266 330.116 230.266ZM330.381 228.701C331.07 228.701 331.65 228.566 332.123 228.296C332.6 228.025 332.959 227.676 333.2 227.248C333.446 226.82 333.569 226.37 333.569 225.898V224.304C333.495 224.393 333.333 224.474 333.082 224.548C332.836 224.617 332.551 224.678 332.226 224.732C331.906 224.781 331.594 224.826 331.289 224.865C330.989 224.899 330.745 224.929 330.558 224.953C330.106 225.012 329.683 225.108 329.289 225.241C328.901 225.369 328.586 225.563 328.345 225.824C328.109 226.08 327.991 226.429 327.991 226.872C327.991 227.477 328.215 227.934 328.662 228.244C329.115 228.549 329.688 228.701 330.381 228.701ZM343.092 233.866V214.89H344.833V233.866H343.092ZM343.092 230.236C342.325 230.236 341.626 230.098 340.997 229.823C340.367 229.543 339.826 229.147 339.373 228.635C338.921 228.119 338.572 227.501 338.326 226.783C338.08 226.065 337.957 225.268 337.957 224.393C337.957 223.507 338.08 222.706 338.326 221.987C338.572 221.264 338.921 220.645 339.373 220.128C339.826 219.612 340.367 219.216 340.997 218.94C341.626 218.66 342.325 218.52 343.092 218.52H343.623V230.236H343.092ZM343.092 228.672H343.387V220.084H343.092C342.511 220.084 342.007 220.202 341.579 220.438C341.151 220.669 340.797 220.987 340.517 221.39C340.242 221.788 340.035 222.246 339.897 222.762C339.764 223.279 339.698 223.822 339.698 224.393C339.698 225.15 339.819 225.854 340.06 226.503C340.301 227.152 340.672 227.676 341.174 228.074C341.675 228.473 342.315 228.672 343.092 228.672ZM344.833 230.236H344.302V218.52H344.833C345.6 218.52 346.299 218.66 346.928 218.94C347.558 219.216 348.099 219.612 348.552 220.128C349.004 220.645 349.353 221.264 349.599 221.987C349.845 222.706 349.968 223.507 349.968 224.393C349.968 225.268 349.845 226.065 349.599 226.783C349.353 227.501 349.004 228.119 348.552 228.635C348.099 229.147 347.558 229.543 346.928 229.823C346.299 230.098 345.6 230.236 344.833 230.236ZM344.833 228.672C345.418 228.672 345.923 228.559 346.346 228.333C346.774 228.101 347.125 227.787 347.401 227.388C347.681 226.985 347.888 226.527 348.02 226.016C348.158 225.499 348.227 224.958 348.227 224.393C348.227 223.635 348.106 222.929 347.865 222.275C347.624 221.621 347.253 221.092 346.751 220.689C346.25 220.286 345.61 220.084 344.833 220.084H344.538V228.672H344.833ZM354.371 227.432L359.831 218.667H361.838V230H360.096V221.235L354.666 230H352.63V218.667H354.371V227.432ZM371.844 230V220.261H368.834C368.155 220.261 367.621 220.418 367.233 220.733C366.844 221.048 366.65 221.481 366.65 222.032C366.65 222.573 366.824 222.998 367.174 223.308C367.528 223.618 368.012 223.773 368.627 223.773H372.287V225.396H368.627C367.86 225.396 367.198 225.261 366.642 224.99C366.087 224.72 365.659 224.334 365.359 223.832C365.059 223.325 364.909 222.725 364.909 222.032C364.909 221.333 365.066 220.733 365.381 220.232C365.696 219.73 366.146 219.344 366.731 219.073C367.321 218.803 368.022 218.667 368.834 218.667H373.497V230H371.844ZM364.289 230L367.506 224.363H369.394L366.178 230H364.289ZM387.288 230.236C386.196 230.236 385.254 229.995 384.462 229.513C383.675 229.026 383.068 228.347 382.64 227.477C382.217 226.601 382.005 225.583 382.005 224.422C382.005 223.261 382.217 222.238 382.64 221.353C383.068 220.463 383.663 219.769 384.425 219.272C385.193 218.771 386.088 218.52 387.111 218.52C387.701 218.52 388.284 218.618 388.859 218.815C389.435 219.012 389.959 219.331 390.431 219.774C390.903 220.212 391.279 220.792 391.56 221.515C391.84 222.238 391.98 223.129 391.98 224.186V224.924H383.245V223.419H390.21C390.21 222.779 390.082 222.209 389.826 221.707C389.575 221.205 389.216 220.809 388.749 220.519C388.286 220.229 387.74 220.084 387.111 220.084C386.417 220.084 385.817 220.256 385.311 220.6C384.809 220.94 384.423 221.382 384.152 221.928C383.882 222.474 383.746 223.06 383.746 223.684V224.688C383.746 225.544 383.894 226.269 384.189 226.864C384.489 227.455 384.905 227.905 385.436 228.215C385.967 228.519 386.585 228.672 387.288 228.672C387.745 228.672 388.159 228.608 388.527 228.48C388.901 228.347 389.223 228.151 389.494 227.89C389.764 227.624 389.974 227.295 390.121 226.901L391.803 227.373C391.626 227.944 391.329 228.446 390.911 228.879C390.492 229.306 389.976 229.641 389.361 229.882C388.746 230.118 388.055 230.236 387.288 230.236ZM399.233 230.236C398.17 230.236 397.256 229.985 396.488 229.484C395.721 228.982 395.131 228.291 394.718 227.41C394.304 226.53 394.098 225.524 394.098 224.393C394.098 223.242 394.309 222.226 394.732 221.346C395.16 220.46 395.755 219.769 396.518 219.272C397.285 218.771 398.18 218.52 399.203 218.52C400 218.52 400.718 218.667 401.358 218.963C401.997 219.258 402.521 219.671 402.929 220.202C403.338 220.733 403.591 221.353 403.689 222.061H401.948C401.815 221.545 401.52 221.087 401.063 220.689C400.61 220.286 400 220.084 399.233 220.084C398.554 220.084 397.959 220.261 397.447 220.615C396.941 220.964 396.545 221.459 396.26 222.098C395.979 222.733 395.839 223.478 395.839 224.334C395.839 225.209 395.977 225.972 396.252 226.621C396.533 227.27 396.926 227.774 397.433 228.133C397.944 228.492 398.544 228.672 399.233 228.672C399.685 228.672 400.096 228.593 400.465 228.436C400.834 228.278 401.146 228.052 401.402 227.757C401.658 227.462 401.84 227.108 401.948 226.695H403.689C403.591 227.364 403.347 227.966 402.959 228.502C402.575 229.033 402.066 229.456 401.432 229.771C400.802 230.081 400.069 230.236 399.233 230.236ZM405.342 220.291V218.667H414.55V220.291H410.831V230H409.09V220.291H405.342ZM418.595 222.77H421.841C423.169 222.77 424.185 223.106 424.888 223.78C425.591 224.454 425.943 225.308 425.943 226.341C425.943 227.019 425.786 227.637 425.471 228.192C425.156 228.743 424.694 229.184 424.084 229.513C423.474 229.838 422.726 230 421.841 230H417.09V218.667H418.831V228.377H421.841C422.53 228.377 423.095 228.195 423.538 227.831C423.981 227.467 424.202 227 424.202 226.429C424.202 225.829 423.981 225.34 423.538 224.961C423.095 224.582 422.53 224.393 421.841 224.393H418.595V222.77Z" fill="black"/>
<path d="M444.488 220.041V230H443.282V221.305H443.224L440.792 222.92V221.694L443.282 220.041H444.488ZM450.249 219.905C450.658 219.908 451.066 219.986 451.475 220.138C451.883 220.29 452.256 220.543 452.593 220.897C452.93 221.247 453.201 221.725 453.405 222.331C453.61 222.937 453.712 223.698 453.712 224.612C453.712 225.497 453.627 226.283 453.459 226.97C453.293 227.654 453.054 228.232 452.739 228.702C452.428 229.172 452.049 229.528 451.601 229.771C451.157 230.015 450.654 230.136 450.094 230.136C449.536 230.136 449.038 230.026 448.601 229.805C448.166 229.582 447.81 229.272 447.531 228.877C447.255 228.478 447.079 228.016 447.001 227.491H448.187C448.294 227.948 448.507 228.326 448.824 228.624C449.145 228.919 449.568 229.066 450.094 229.066C450.862 229.066 451.468 228.731 451.912 228.06C452.36 227.389 452.583 226.44 452.583 225.215H452.506C452.324 225.487 452.109 225.722 451.859 225.92C451.609 226.118 451.332 226.27 451.027 226.377C450.723 226.484 450.398 226.538 450.055 226.538C449.484 226.538 448.961 226.397 448.484 226.115C448.011 225.829 447.631 225.439 447.346 224.943C447.064 224.443 446.923 223.873 446.923 223.231C446.923 222.621 447.059 222.064 447.332 221.558C447.607 221.049 447.993 220.644 448.489 220.342C448.988 220.041 449.575 219.895 450.249 219.905ZM450.249 220.974C449.841 220.974 449.473 221.077 449.145 221.281C448.821 221.482 448.563 221.754 448.372 222.098C448.184 222.438 448.09 222.816 448.09 223.231C448.09 223.646 448.181 224.023 448.362 224.364C448.547 224.701 448.798 224.97 449.116 225.171C449.437 225.369 449.802 225.468 450.21 225.468C450.518 225.468 450.805 225.408 451.071 225.288C451.337 225.165 451.569 224.998 451.766 224.787C451.967 224.573 452.125 224.331 452.238 224.062C452.352 223.79 452.408 223.506 452.408 223.211C452.408 222.822 452.314 222.458 452.126 222.117C451.942 221.777 451.685 221.501 451.358 221.291C451.034 221.08 450.664 220.974 450.249 220.974ZM456.206 228.726C455.966 228.726 455.76 228.64 455.588 228.468C455.417 228.296 455.331 228.091 455.331 227.851C455.331 227.611 455.417 227.405 455.588 227.233C455.76 227.061 455.966 226.975 456.206 226.975C456.446 226.975 456.652 227.061 456.824 227.233C456.995 227.405 457.081 227.611 457.081 227.851C457.081 228.009 457.041 228.155 456.96 228.288C456.882 228.421 456.777 228.528 456.644 228.609C456.514 228.687 456.368 228.726 456.206 228.726ZM456.206 223.688C455.966 223.688 455.76 223.602 455.588 223.43C455.417 223.258 455.331 223.053 455.331 222.813C455.331 222.573 455.417 222.367 455.588 222.195C455.76 222.023 455.966 221.937 456.206 221.937C456.446 221.937 456.652 222.023 456.824 222.195C456.995 222.367 457.081 222.573 457.081 222.813C457.081 222.971 457.041 223.117 456.96 223.25C456.882 223.383 456.777 223.49 456.644 223.571C456.514 223.649 456.368 223.688 456.206 223.688ZM462.096 230.136C461.363 230.136 460.739 229.937 460.224 229.538C459.708 229.136 459.314 228.554 459.042 227.792C458.77 227.027 458.633 226.103 458.633 225.02C458.633 223.944 458.77 223.025 459.042 222.263C459.317 221.498 459.713 220.914 460.228 220.512C460.747 220.107 461.37 219.905 462.096 219.905C462.822 219.905 463.443 220.107 463.958 220.512C464.477 220.914 464.873 221.498 465.145 222.263C465.42 223.025 465.558 223.944 465.558 225.02C465.558 226.103 465.422 227.027 465.15 227.792C464.877 228.554 464.483 229.136 463.968 229.538C463.453 229.937 462.828 230.136 462.096 230.136ZM462.096 229.066C462.822 229.066 463.386 228.716 463.788 228.016C464.19 227.316 464.391 226.317 464.391 225.02C464.391 224.158 464.299 223.424 464.114 222.817C463.932 222.211 463.67 221.749 463.326 221.432C462.986 221.114 462.576 220.955 462.096 220.955C461.376 220.955 460.814 221.31 460.408 222.02C460.003 222.727 459.801 223.727 459.801 225.02C459.801 225.883 459.891 226.615 460.073 227.218C460.254 227.821 460.515 228.28 460.856 228.595C461.199 228.909 461.613 229.066 462.096 229.066ZM467.176 230L471.63 221.188V221.111H466.495V220.041H472.875V221.169L468.44 230H467.176Z" fill="#4200FF"/>
<path fill-rule="evenodd" clip-rule="evenodd" d="M492.933 221.104C493.161 221.324 493.167 221.686 492.947 221.913L484.039 231.14C483.929 231.254 483.775 231.317 483.616 231.314C483.457 231.311 483.306 231.242 483.2 231.123L479.224 226.669C479.013 226.433 479.033 226.071 479.269 225.861C479.505 225.65 479.867 225.671 480.077 225.907L483.644 229.901L492.124 221.118C492.343 220.891 492.706 220.884 492.933 221.104Z" fill="#4200FF"/>
<path fill-rule="evenodd" clip-rule="evenodd" d="M495.811 221.161C496.038 221.38 496.045 221.743 495.825 221.97L486.917 231.196C486.807 231.311 486.653 231.374 486.494 231.371C486.335 231.368 486.184 231.299 486.078 231.18L482.101 226.726C481.891 226.49 481.911 226.128 482.147 225.918C482.383 225.707 482.745 225.728 482.955 225.963L486.522 229.958L495.002 221.175C495.221 220.947 495.584 220.941 495.811 221.161Z" fill="#4200FF"/>
</svg>
