<svg width="44" height="33" viewBox="0 0 44 33" fill="none" xmlns="http://www.w3.org/2000/svg">
<path fill-rule="evenodd" clip-rule="evenodd" d="M0.205178 15.9611C0.0683927 16.7887 0 17.6537 0 18.5559C0 21.2093 0.608074 23.5679 1.82422 25.6317C3.04037 27.6586 4.73561 29.2617 6.90993 30.441C9.08426 31.5834 11.6087 32.1547 14.4832 32.1547C17.3578 32.1547 19.8822 31.5834 22.0565 30.441C24.2308 29.2617 25.9261 27.6586 27.1422 25.6317C28.3584 23.5679 28.9664 21.2093 28.9664 18.5559C28.9664 17.6537 28.8981 16.7887 28.7613 15.9611H24.6141C24.8254 16.7709 24.931 17.6358 24.931 18.5559C24.931 20.3986 24.5072 22.0385 23.6596 23.4758C22.7751 24.8762 21.559 25.9818 20.0112 26.7925C18.4265 27.6033 16.5838 28.0087 14.4832 28.0087C12.3458 28.0087 10.5031 27.6033 8.95528 26.7925C7.40745 25.9818 6.20973 24.8762 5.36211 23.4758C4.47764 22.0385 4.0354 20.3986 4.0354 18.5559C4.0354 17.6358 4.14566 16.7709 4.36617 15.9611H0.205178Z" fill="white"/>
<path fill-rule="evenodd" clip-rule="evenodd" d="M43.1611 17.1867C43.3266 16.3645 43.4251 15.5025 43.4566 14.6009C43.5492 11.9491 43.0237 9.57076 41.8803 7.46583C40.7356 5.39772 39.0973 3.73646 36.9655 2.48203C34.8323 1.26443 32.3293 0.605498 29.4566 0.505224C26.5838 0.40495 24.041 0.887762 21.8281 1.95366C19.614 3.05639 17.8638 4.59938 16.5777 6.58264C15.2903 8.60273 14.6003 10.9387 14.5078 13.5905C14.4763 14.4921 14.5145 15.3588 14.6223 16.1906L18.7669 16.3353C18.584 15.5186 18.5086 14.6506 18.5407 13.7312C18.605 11.8897 19.0858 10.2655 19.983 8.85871C20.9158 7.49001 22.1698 6.42751 23.7449 5.67124C25.3569 4.91624 27.2126 4.57538 29.3119 4.64866C31.4481 4.72322 33.2755 5.19264 34.7941 6.05691C36.3127 6.92117 37.4711 8.06787 38.2694 9.497C39.1032 10.9642 39.4879 12.6186 39.4236 14.4602C39.3916 15.3796 39.2512 16.24 39.0026 17.0416L43.1611 17.1867Z" fill="white"/>
</svg>
