<svg width="30" height="25" viewBox="0 0 30 25" fill="none" xmlns="http://www.w3.org/2000/svg">
<path fill-rule="evenodd" clip-rule="evenodd" d="M0.506714 1.75672C0.506714 1.06637 1.06636 0.506721 1.75671 0.506721H28.2432C28.9336 0.506721 29.4932 1.06637 29.4932 1.75672C29.4932 2.44708 28.9336 3.00672 28.2432 3.00672H1.75671C1.06636 3.00672 0.506714 2.44708 0.506714 1.75672ZM0.506793 22.9463C0.506793 22.2559 1.06644 21.6963 1.75679 21.6963H28.2433C28.9336 21.6963 29.4933 22.2559 29.4933 22.9463C29.4933 23.6366 28.9336 24.1963 28.2433 24.1963H1.75679C1.06644 24.1963 0.506793 23.6366 0.506793 22.9463ZM1.75679 11.1016C1.06644 11.1016 0.506793 11.6612 0.506793 12.3516C0.506793 13.0419 1.06644 13.6016 1.75679 13.6016H28.2433C28.9336 13.6016 29.4933 13.0419 29.4933 12.3516C29.4933 11.6612 28.9336 11.1016 28.2433 11.1016H1.75679Z" fill="white"/>
</svg>
