<svg width="28" height="24" viewBox="0 0 28 24" fill="none" xmlns="http://www.w3.org/2000/svg">
<path fill-rule="evenodd" clip-rule="evenodd" d="M0 1.40715C0 0.989202 0.338812 0.650391 0.756757 0.650391H27.2432C27.6612 0.650391 28 0.989202 28 1.40715C28 1.82509 27.6612 2.1639 27.2432 2.1639H0.756757C0.338812 2.1639 0 1.82509 0 1.40715ZM0 22.5963C0 22.1784 0.338812 21.8396 0.756757 21.8396H27.2432C27.6612 21.8396 28 22.1784 28 22.5963C28 23.0143 27.6612 23.3531 27.2432 23.3531H0.756757C0.338812 23.3531 0 23.0143 0 22.5963ZM0.756757 11.245C0.338812 11.245 0 11.5838 0 12.0017C0 12.4197 0.338812 12.7585 0.756757 12.7585H27.2432C27.6612 12.7585 28 12.4197 28 12.0017C28 11.5838 27.6612 11.245 27.2432 11.245H0.756757Z" fill="black"/>
</svg>
