<svg width="38" height="38" viewBox="0 0 38 38" fill="none" xmlns="http://www.w3.org/2000/svg">
<g clip-path="url(#clip0_402_188)">
<path d="M38 18.6231C38 18.4331 37.8457 18.2759 37.6557 18.267C30.8386 18.0087 26.6896 17.1392 23.7871 14.2366C20.8786 11.3282 20.012 7.1762 19.7538 0.344267C19.7479 0.154327 19.5906 0 19.3977 0H18.6023C18.4124 0 18.2551 0.154327 18.2462 0.344267C17.988 7.17323 17.1214 11.3282 14.2129 14.2366C11.3074 17.1421 7.16136 18.0087 0.344267 18.267C0.154327 18.2729 0 18.4302 0 18.6231V19.4185C0 19.6084 0.154327 19.7657 0.344267 19.7746C7.16136 20.0328 11.3104 20.9024 14.2129 23.8049C17.1154 26.7074 17.982 30.8475 18.2432 37.6528C18.2491 37.8427 18.4064 37.997 18.5993 37.997H19.3977C19.5876 37.997 19.7449 37.8427 19.7538 37.6528C20.015 30.8475 20.8816 26.7074 23.7841 23.8049C26.6896 20.8994 30.8357 20.0328 37.6528 19.7746C37.8427 19.7687 37.997 19.6114 37.997 19.4185V18.6231H38Z" fill="url(#paint0_linear_402_188)"/>
</g>
<defs>
<linearGradient id="paint0_linear_402_188" x1="37.3702" y1="0.253315" x2="12.4219" y2="22.7465" gradientUnits="userSpaceOnUse">
<stop stop-color="#475361"/>
<stop offset="1" stop-color="#1D1D1D"/>
</linearGradient>
<clipPath id="clip0_402_188">
<rect width="38" height="38" fill="white"/>
</clipPath>
</defs>
</svg>
