<svg width="50" height="50" viewBox="0 0 50 50" fill="none" xmlns="http://www.w3.org/2000/svg">
<circle cx="25" cy="25" r="25" fill="#4200FF"/>
<path fill-rule="evenodd" clip-rule="evenodd" d="M41.5305 25.8164C41.5815 25.408 41.6112 24.9875 41.6196 24.5547C41.657 22.6174 41.2464 20.8868 40.3875 19.3628C39.5282 17.8657 38.3131 16.6714 36.7422 15.7796C35.1708 14.9148 33.3357 14.4621 31.237 14.4216C29.1382 14.381 27.287 14.7624 25.6834 15.5658C24.0792 16.3962 22.8188 17.5427 21.9023 19.0055C20.9852 20.4951 20.5079 22.2086 20.4705 24.1459C20.4621 24.5786 20.4755 25 20.5107 25.41L23.4909 25.4677C23.433 25.0625 23.4084 24.6409 23.4168 24.2029C23.4428 22.8575 23.7754 21.6661 24.4146 20.6287C25.0801 19.6187 25.9837 18.8286 27.1252 18.2585C28.2937 17.6889 29.6447 17.419 31.1785 17.4486C32.7391 17.4788 34.0787 17.8008 35.1974 18.4146C36.316 19.0284 37.1749 19.8525 37.774 20.8869C38.3995 21.9488 38.6992 23.1524 38.6732 24.4978C38.6648 24.9359 38.6224 25.3562 38.5461 25.7587L41.5305 25.8164Z" fill="white"/>
<path fill-rule="evenodd" clip-rule="evenodd" d="M9.68582 24.297C9.62061 24.7033 9.57628 25.1225 9.55282 25.5547C9.44781 27.4895 9.79787 29.2334 10.603 30.7864C11.4096 32.3126 12.5823 33.5486 14.1211 34.4946C15.6614 35.4137 17.4796 35.9301 19.5756 36.0439C21.6717 36.1576 23.5351 35.841 25.1658 35.094C26.798 34.3201 28.0975 33.2183 29.0646 31.7884C30.033 30.3316 30.5698 28.6359 30.6748 26.701C30.6982 26.2689 30.6995 25.8473 30.6787 25.4363L27.7024 25.2748C27.746 25.6816 27.756 26.1038 27.7322 26.5413C27.6593 27.885 27.2854 29.064 26.6104 30.0785C25.91 31.0647 24.9795 31.8227 23.8187 32.3527C22.6311 32.8812 21.2714 33.1038 19.7397 33.0207C18.1811 32.9361 16.8535 32.5676 15.7569 31.9151C14.6604 31.2627 13.8307 30.4091 13.2681 29.3544C12.68 28.2713 12.4225 27.058 12.4954 25.7144C12.5191 25.2769 12.5761 24.8583 12.6664 24.4587L9.68582 24.297Z" fill="white"/>
</svg>
