<svg width="32" height="32" viewBox="0 0 32 32" fill="none" xmlns="http://www.w3.org/2000/svg">
<rect width="32" height="32" rx="5" fill="#4200FF"/>
<rect x="27.3594" y="15.3706" width="1.8468" height="5.23508" rx="0.9234" transform="rotate(90 27.3594 15.3706)" fill="#6C38FF"/>
<rect x="26.0742" y="21.605" width="1.8468" height="5.23508" rx="0.9234" transform="rotate(122.678 26.0742 21.605)" fill="#5F27FF"/>
<rect x="21.6133" y="26.1648" width="1.8468" height="5.23508" rx="0.9234" transform="rotate(155.365 21.6133 26.1648)" fill="#5114FF"/>
<rect x="15.3633" y="27.5813" width="1.8468" height="5.23508" rx="0.9234" transform="rotate(-171.835 15.3633 27.5813)" fill="white"/>
<rect x="9.37109" y="25.3982" width="1.8468" height="5.23508" rx="0.9234" transform="rotate(-138.957 9.37109 25.3982)" fill="white"/>
<rect x="5.51758" y="20.3342" width="1.8468" height="5.23508" rx="0.9234" transform="rotate(-106.248 5.51758 20.3342)" fill="white"/>
<rect x="5.01758" y="13.9431" width="1.8468" height="5.23508" rx="0.9234" transform="rotate(-73.3182 5.01758 13.9431)" fill="white"/>
<rect x="8.03516" y="8.34668" width="1.8468" height="5.23508" rx="0.9234" transform="rotate(-40.6266 8.03516 8.34668)" fill="white"/>
<rect x="13.6348" y="5.24829" width="1.8468" height="5.23508" rx="0.9234" transform="rotate(-7.72568 13.6348 5.24829)" fill="white"/>
<rect x="19.9961" y="5.67432" width="1.8468" height="5.23508" rx="0.9234" transform="rotate(25.0617 19.9961 5.67432)" fill="#BBA2FF"/>
<rect x="25.127" y="9.4917" width="1.8468" height="5.23508" rx="0.9234" transform="rotate(57.743 25.127 9.4917)" fill="#8F68FF"/>
</svg>
