<svg width="783" height="129" viewBox="0 0 783 129" fill="none" xmlns="http://www.w3.org/2000/svg">
<path d="M37.7396 103.68C31.2773 103.68 25.5905 102.258 20.6792 99.4151C15.7679 96.4855 11.9336 92.4789 9.17641 87.3953C6.41918 82.3117 5.04056 76.3664 5.04056 69.5595C5.04056 62.8387 6.41918 56.9365 9.17641 51.8529C11.9336 46.6831 15.7679 42.6765 20.6792 39.8331C25.5905 36.9897 31.2773 35.568 37.7396 35.568C42.6509 35.568 47.0452 36.4727 50.9226 38.2821C54.8861 40.0054 58.2465 42.5041 61.0037 45.7783C63.8471 48.9664 65.9581 52.8868 67.3367 57.5397L57.7726 60.2538H56.3509C54.8861 55.8595 52.4735 52.4129 49.1132 49.9142C45.839 47.3293 42.0478 46.0368 37.7396 46.0368C33.3453 46.0368 29.511 47.0277 26.2368 49.0095C23.0487 50.9912 20.55 53.7485 18.7406 57.2812C16.9311 60.8139 16.0264 64.9066 16.0264 69.5595C16.0264 74.2123 16.9311 78.3481 18.7406 81.967C20.55 85.4997 23.0487 88.2569 26.2368 90.2387C29.511 92.2204 33.3453 93.2113 37.7396 93.2113C40.7553 93.2113 43.5125 92.6513 46.0113 91.5311C48.51 90.411 50.6641 88.7739 52.4735 86.6198C54.3691 84.4657 55.8339 81.9239 56.8679 78.9944H58.2896L67.983 81.7085C66.432 86.3613 64.1918 90.3679 61.2622 93.7283C58.3327 97.0025 54.8861 99.5013 50.9226 101.225C47.0452 102.862 42.6509 103.68 37.7396 103.68Z" fill="white"/>
<path d="M191.215 102V37.2484H201.814V55.472L198.712 53.5333C199.918 49.8283 201.814 46.6402 204.398 43.9692C206.983 41.2981 209.999 39.2302 213.446 37.7654C216.978 36.3006 220.726 35.5682 224.69 35.5682C229.343 35.5682 233.479 36.5591 237.097 38.5409C240.802 40.5226 243.689 43.4522 245.757 47.3295C247.825 51.2069 248.859 56.0751 248.859 61.9342V102H237.873V64.6484C237.873 59.9956 237.184 56.3336 235.805 53.6626C234.426 50.9053 232.531 48.9666 230.118 47.8465C227.792 46.7264 225.121 46.1663 222.105 46.1663C218.831 46.1663 215.643 46.9849 212.541 48.622C209.525 50.1729 207.026 52.5424 205.045 55.7305C203.149 58.9185 202.201 62.882 202.201 67.621V102H191.215ZM265.809 102V37.2484H276.407V55.472L273.305 53.5333C274.512 49.8283 276.407 46.6402 278.992 43.9692C281.577 41.2981 284.593 39.2302 288.039 37.7654C291.572 36.3006 295.32 35.5682 299.284 35.5682C303.936 35.5682 308.072 36.5591 311.691 38.5409C315.396 40.5226 318.283 43.4522 320.351 47.3295C322.418 51.2069 323.452 56.0751 323.452 61.9342V102H312.467V64.6484C312.467 59.9956 311.777 56.3336 310.399 53.6626C309.02 50.9053 307.124 48.9666 304.712 47.8465C302.385 46.7264 299.714 46.1663 296.699 46.1663C293.424 46.1663 290.236 46.9849 287.135 48.622C284.119 50.1729 281.62 52.5424 279.638 55.7305C277.743 58.9185 276.795 62.882 276.795 67.621V102H265.809ZM368.707 103.68C362.417 103.68 356.86 102.259 352.035 99.4153C347.21 96.4858 343.418 92.4792 340.661 87.3955C337.99 82.3119 336.655 76.3666 336.655 69.5597C336.655 62.839 337.99 56.9368 340.661 51.8531C343.332 46.6833 347.037 42.6767 351.776 39.8333C356.601 36.9899 362.116 35.5682 368.32 35.5682C374.437 35.5682 379.779 37.033 384.346 39.9626C388.999 42.806 392.618 46.8556 395.203 52.1116C397.788 57.3676 399.08 63.4852 399.08 70.4644V72.0154L397.141 73.8248H342.729V63.6144H393.135L387.965 65.6824C387.706 61.5465 386.672 58.0138 384.863 55.0842C383.054 52.1547 380.727 49.9144 377.884 48.3635C375.04 46.7264 371.852 45.9078 368.32 45.9078C364.528 45.9078 361.039 46.8556 357.851 48.7512C354.663 50.5607 352.164 53.1456 350.355 56.5059C348.545 59.8663 347.64 63.7437 347.64 68.138V70.7229C347.64 75.0311 348.545 78.9084 350.355 82.355C352.164 85.7154 354.663 88.3864 357.851 90.3682C361.039 92.3499 364.658 93.3408 368.707 93.3408C372.671 93.3408 376.117 92.393 379.047 90.4974C381.977 88.5157 384.26 85.8446 385.897 82.4842H387.448L396.495 86.4908C394.083 91.833 390.421 96.055 385.509 99.1569C380.684 102.173 375.084 103.68 368.707 103.68ZM441.802 103.68C435.339 103.68 429.653 102.259 424.741 99.4153C419.83 96.4858 415.996 92.4792 413.238 87.3955C410.481 82.3119 409.103 76.3666 409.103 69.5597C409.103 62.839 410.481 56.9368 413.238 51.8531C415.996 46.6833 419.83 42.6767 424.741 39.8333C429.653 36.9899 435.339 35.5682 441.802 35.5682C446.713 35.5682 451.107 36.4729 454.985 38.2824C458.948 40.0056 462.309 42.5044 465.066 45.7786C467.909 48.9666 470.02 52.8871 471.399 57.5399L461.835 60.2541H460.413C458.948 55.8597 456.536 52.4132 453.175 49.9144C449.901 47.3295 446.11 46.0371 441.802 46.0371C437.407 46.0371 433.573 47.028 430.299 49.0097C427.111 50.9915 424.612 53.7487 422.803 57.2814C420.993 60.8141 420.088 64.9069 420.088 69.5597C420.088 74.2125 420.993 78.3484 422.803 81.9672C424.612 85.4999 427.111 88.2572 430.299 90.2389C433.573 92.2207 437.407 93.2116 441.802 93.2116C444.817 93.2116 447.575 92.6515 450.073 91.5314C452.572 90.4113 454.726 88.7742 456.536 86.6201C458.431 84.466 459.896 81.9242 460.93 78.9946H462.352L472.045 81.7088C470.494 86.3616 468.254 90.3682 465.324 93.7286C462.395 97.0028 458.948 99.5015 454.985 101.225C451.107 102.862 446.713 103.68 441.802 103.68ZM507.075 102C501.475 102 496.908 100.234 493.375 96.7012C489.843 93.0823 488.076 88.2141 488.076 82.0965V19.8003H499.062V81.1918C499.062 84.8968 499.881 87.5679 501.518 89.205C503.155 90.7559 505.783 91.5314 509.402 91.5314H517.157L517.803 92.9531V102H507.075ZM476.961 47.588V37.2484H517.803V47.588H476.961ZM558.031 103.68C551.741 103.68 546.184 102.259 541.359 99.4153C536.534 96.4858 532.742 92.4792 529.985 87.3955C527.314 82.3119 525.979 76.3666 525.979 69.5597C525.979 62.839 527.314 56.9368 529.985 51.8531C532.656 46.6833 536.361 42.6767 541.1 39.8333C545.925 36.9899 551.44 35.5682 557.644 35.5682C563.761 35.5682 569.103 37.033 573.67 39.9626C578.323 42.806 581.942 46.8556 584.527 52.1116C587.112 57.3676 588.404 63.4852 588.404 70.4644V72.0154L586.465 73.8248H532.053V63.6144H582.459L577.289 65.6824C577.03 61.5465 575.996 58.0138 574.187 55.0842C572.378 52.1547 570.051 49.9144 567.208 48.3635C564.364 46.7264 561.176 45.9078 557.644 45.9078C553.852 45.9078 550.363 46.8556 547.175 48.7512C543.987 50.5607 541.488 53.1456 539.679 56.5059C537.869 59.8663 536.964 63.7437 536.964 68.138V70.7229C536.964 75.0311 537.869 78.9084 539.679 82.355C541.488 85.7154 543.987 88.3864 547.175 90.3682C550.363 92.3499 553.982 93.3408 558.031 93.3408C561.995 93.3408 565.441 92.393 568.371 90.4974C571.301 88.5157 573.584 85.8446 575.221 82.4842H576.772L585.819 86.4908C583.407 91.833 579.745 96.055 574.833 99.1569C570.008 102.173 564.407 103.68 558.031 103.68ZM622.595 103.68C618.115 103.68 614.108 102.819 610.576 101.096C607.129 99.3723 604.415 97.0028 602.433 93.987C600.451 90.8852 599.461 87.3525 599.461 83.3889C599.461 77.7022 601.485 73.0924 605.535 69.5597C609.671 66.027 615.358 63.9591 622.595 63.3559L647.54 61.5465V71.3691L624.793 73.1786C620.054 73.5232 616.521 74.5572 614.194 76.2805C611.954 77.9176 610.834 80.244 610.834 83.2597C610.834 86.1031 612.04 88.4726 614.453 90.3682C616.866 92.2638 619.967 93.2116 623.759 93.2116C627.636 93.2116 631.169 92.3069 634.357 90.4974C637.545 88.688 640.043 86.2754 641.853 83.2597C643.749 80.244 644.696 76.8836 644.696 73.1786V62.7097C644.696 57.7984 643.145 53.7487 640.043 50.5607C637.028 47.3726 632.978 45.7786 627.894 45.7786C623.931 45.7786 620.527 46.7695 617.684 48.7512C614.841 50.6468 612.902 53.3179 611.868 56.7644H610.446L600.882 53.6626C602.778 47.8896 606.095 43.4091 610.834 40.2211C615.573 37.033 621.303 35.439 628.024 35.439C636.812 35.439 643.576 38.067 648.315 43.3229C653.14 48.5789 655.553 55.989 655.553 65.5531V102H645.213V83.1304L649.091 85.1984C648.057 88.7311 646.204 91.9191 643.533 94.7625C640.948 97.5197 637.846 99.7169 634.227 101.354C630.695 102.905 626.817 103.68 622.595 103.68ZM672.603 102V37.2484H683.201V55.2135L680.487 52.7578C681.693 49.2251 683.546 46.2094 686.045 43.7107C688.543 41.1258 691.473 39.144 694.833 37.7654C698.194 36.3006 701.726 35.5682 705.431 35.5682C711.032 35.5682 715.9 37.1623 720.036 40.3503C724.172 43.5383 726.886 48.1481 728.179 54.1795L723.655 54.0503C724.775 50.3453 726.628 47.1141 729.213 44.3569C731.884 41.5997 735.072 39.4456 738.777 37.8946C742.482 36.3437 746.488 35.5682 750.797 35.5682C755.191 35.5682 759.154 36.5591 762.687 38.5409C766.22 40.5226 769.02 43.4522 771.088 47.3295C773.156 51.2069 774.19 56.0751 774.19 61.9342V102H763.204V64.5191C763.204 59.8663 762.515 56.2044 761.136 53.5333C759.758 50.8622 757.948 48.9666 755.708 47.8465C753.468 46.7264 750.926 46.1663 748.082 46.1663C745.153 46.1663 742.223 46.9418 739.294 48.4927C736.364 50.0437 733.908 52.4132 731.927 55.6012C729.945 58.7031 728.954 62.7097 728.954 67.621V102H717.968V64.5191C717.968 59.8663 717.279 56.2044 715.9 53.5333C714.522 50.8622 712.669 48.9666 710.343 47.8465C708.103 46.7264 705.604 46.1663 702.847 46.1663C699.917 46.1663 696.944 46.9849 693.929 48.622C690.999 50.1729 688.543 52.5424 686.562 55.7305C684.58 58.8324 683.589 62.7959 683.589 67.621V102H672.603Z" fill="white"/>
<rect x="177.156" y="63.4658" width="8.19895" height="23.2414" rx="4.09948" transform="rotate(90 177.156 63.4658)" fill="#6C38FF"/>
<rect x="171.451" y="91.1426" width="8.19895" height="23.2414" rx="4.09948" transform="rotate(122.678 171.451 91.1426)" fill="#5F27FF"/>
<rect x="151.646" y="111.387" width="8.19895" height="23.2414" rx="4.09948" transform="rotate(155.365 151.646 111.387)" fill="#5114FF"/>
<rect x="123.891" y="117.676" width="8.19895" height="23.2414" rx="4.09948" transform="rotate(-171.835 123.891 117.676)" fill="white"/>
<rect x="97.2959" y="107.981" width="8.19895" height="23.2414" rx="4.09948" transform="rotate(-138.957 97.2959 107.981)" fill="white"/>
<rect x="80.1836" y="85.5012" width="8.19895" height="23.2414" rx="4.09948" transform="rotate(-106.248 80.1836 85.5012)" fill="white"/>
<rect x="77.9678" y="57.1277" width="8.19895" height="23.2414" rx="4.09948" transform="rotate(-73.3182 77.9678 57.1277)" fill="white"/>
<rect x="91.3574" y="32.2817" width="8.19895" height="23.2414" rx="4.09948" transform="rotate(-40.6266 91.3574 32.2817)" fill="white"/>
<rect x="116.219" y="18.5259" width="8.19895" height="23.2414" rx="4.09948" transform="rotate(-7.72568 116.219 18.5259)" fill="white"/>
<rect x="144.464" y="20.418" width="8.19895" height="23.2414" rx="4.09948" transform="rotate(25.0617 144.464 20.418)" fill="#BBA2FF"/>
<rect x="167.237" y="37.3657" width="8.19895" height="23.2414" rx="4.09948" transform="rotate(57.743 167.237 37.3657)" fill="#8F68FF"/>
</svg>
