<svg width="211" height="77" viewBox="0 0 211 77" fill="none" xmlns="http://www.w3.org/2000/svg">
<path d="M32.76 46.3455C31.4312 46.3455 30.2619 46.0532 29.252 45.4685C28.2422 44.8661 27.4538 44.0423 26.8868 42.997C26.3199 41.9517 26.0364 40.7292 26.0364 39.3296C26.0364 37.9477 26.3199 36.7341 26.8868 35.6888C27.4538 34.6258 28.2422 33.8019 29.252 33.2173C30.2619 32.6326 31.4312 32.3403 32.76 32.3403C33.7698 32.3403 34.6734 32.5263 35.4707 32.8984C36.2856 33.2527 36.9766 33.7665 37.5435 34.4397C38.1282 35.0953 38.5623 35.9014 38.8457 36.8581L36.8792 37.4162H36.5868C36.2856 36.5126 35.7896 35.8039 35.0986 35.2902C34.4254 34.7586 33.6458 34.4929 32.76 34.4929C31.8564 34.4929 31.068 34.6966 30.3948 35.1041C29.7393 35.5116 29.2255 36.0786 28.8534 36.8049C28.4814 37.5313 28.2953 38.3729 28.2953 39.3296C28.2953 40.2863 28.4814 41.1367 28.8534 41.8808C29.2255 42.6072 29.7393 43.1742 30.3948 43.5816C31.068 43.9891 31.8564 44.1929 32.76 44.1929C33.3801 44.1929 33.947 44.0777 34.4608 43.8474C34.9746 43.6171 35.4175 43.2805 35.7896 42.8375C36.1793 42.3946 36.4805 41.872 36.6931 41.2696H36.9855L38.9786 41.8277C38.6597 42.7844 38.1991 43.6082 37.5967 44.2992C36.9943 44.9724 36.2856 45.4862 35.4707 45.8405C34.6734 46.1772 33.7698 46.3455 32.76 46.3455Z" fill="black"/>
<rect x="61.373" y="37.6602" width="1.68586" height="4.77888" rx="0.842931" transform="rotate(90 61.373 37.6602)" fill="#9F9F9F"/>
<rect x="60.2002" y="43.3516" width="1.68586" height="4.77888" rx="0.842931" transform="rotate(122.678 60.2002 43.3516)" fill="#CDCDCD"/>
<rect x="56.1279" y="47.5137" width="1.68586" height="4.77888" rx="0.842931" transform="rotate(155.365 56.1279 47.5137)" fill="#DFDFDF"/>
<rect x="50.4209" y="48.8076" width="1.68586" height="4.77888" rx="0.842931" transform="rotate(-171.835 50.4209 48.8076)" fill="black"/>
<rect x="44.9521" y="46.8135" width="1.68586" height="4.77888" rx="0.842931" transform="rotate(-138.957 44.9521 46.8135)" fill="black"/>
<rect x="41.4336" y="42.1914" width="1.68586" height="4.77888" rx="0.842931" transform="rotate(-106.248 41.4336 42.1914)" fill="black"/>
<rect x="40.9775" y="36.3574" width="1.68586" height="4.77888" rx="0.842931" transform="rotate(-73.3182 40.9775 36.3574)" fill="black"/>
<rect x="43.7314" y="31.249" width="1.68586" height="4.77888" rx="0.842931" transform="rotate(-40.6266 43.7314 31.249)" fill="black"/>
<rect x="48.8428" y="28.4199" width="1.68586" height="4.77888" rx="0.842931" transform="rotate(-7.72568 48.8428 28.4199)" fill="black"/>
<rect x="54.6504" y="28.8096" width="1.68586" height="4.77888" rx="0.842931" transform="rotate(25.0617 54.6504 28.8096)" fill="#383838"/>
<rect x="59.334" y="32.2939" width="1.68586" height="4.77888" rx="0.842931" transform="rotate(57.743 59.334 32.2939)" fill="#6A6A6A"/>
<path d="M64.1802 46V32.6858H66.3593V36.4329L65.7215 36.0343C65.9696 35.2724 66.3593 34.6169 66.8908 34.0677C67.4224 33.5185 68.0424 33.0933 68.7511 32.7921C69.4775 32.4909 70.2482 32.3403 71.0632 32.3403C72.0199 32.3403 72.8703 32.544 73.6144 32.9515C74.3762 33.359 74.9697 33.9614 75.3949 34.7586C75.8201 35.5559 76.0328 36.5569 76.0328 37.7617V46H73.7739V38.3197C73.7739 37.363 73.6321 36.6101 73.3486 36.0608C73.0652 35.4939 72.6754 35.0953 72.1793 34.8649C71.701 34.6346 71.1518 34.5195 70.5317 34.5195C69.8584 34.5195 69.2029 34.6878 68.5651 35.0244C67.945 35.3433 67.4312 35.8305 67.0237 36.486C66.634 37.1416 66.4391 37.9565 66.4391 38.931V46H64.1802ZM79.5181 46V32.6858H81.6972V36.4329L81.0594 36.0343C81.3075 35.2724 81.6972 34.6169 82.2287 34.0677C82.7602 33.5185 83.3803 33.0933 84.089 32.7921C84.8154 32.4909 85.5861 32.3403 86.4011 32.3403C87.3578 32.3403 88.2082 32.544 88.9523 32.9515C89.7141 33.359 90.3076 33.9614 90.7328 34.7586C91.158 35.5559 91.3706 36.5569 91.3706 37.7617V46H89.1117V38.3197C89.1117 37.363 88.97 36.6101 88.6865 36.0608C88.4031 35.4939 88.0133 35.0953 87.5172 34.8649C87.0389 34.6346 86.4896 34.5195 85.8696 34.5195C85.1963 34.5195 84.5408 34.6878 83.903 35.0244C83.2829 35.3433 82.7691 35.8305 82.3616 36.486C81.9718 37.1416 81.777 37.9565 81.777 38.931V46H79.5181ZM100.676 46.3455C99.3826 46.3455 98.2399 46.0532 97.2477 45.4685C96.2556 44.8661 95.476 44.0423 94.9091 42.997C94.3599 41.9517 94.0853 40.7292 94.0853 39.3296C94.0853 37.9477 94.3599 36.7341 94.9091 35.6888C95.4583 34.6258 96.2201 33.8019 97.1946 33.2173C98.1867 32.6326 99.3206 32.3403 100.596 32.3403C101.854 32.3403 102.953 32.6415 103.892 33.2439C104.848 33.8285 105.592 34.6612 106.124 35.7419C106.655 36.8227 106.921 38.0806 106.921 39.5156V39.8345L106.523 40.2066H95.3343V38.1071H105.699L104.636 38.5323C104.583 37.6819 104.37 36.9555 103.998 36.3532C103.626 35.7508 103.147 35.2902 102.563 34.9713C101.978 34.6346 101.323 34.4663 100.596 34.4663C99.8167 34.4663 99.0991 34.6612 98.4436 35.051C97.7881 35.423 97.2743 35.9545 96.9022 36.6455C96.5302 37.3365 96.3442 38.1337 96.3442 39.0373V39.5688C96.3442 40.4546 96.5302 41.2519 96.9022 41.9606C97.2743 42.6515 97.7881 43.2007 98.4436 43.6082C99.0991 44.0157 99.8432 44.2195 100.676 44.2195C101.491 44.2195 102.2 44.0246 102.802 43.6348C103.404 43.2273 103.874 42.6781 104.21 41.9871H104.529L106.39 42.811C105.894 43.9094 105.141 44.7775 104.131 45.4153C103.139 46.0354 101.987 46.3455 100.676 46.3455ZM115.706 46.3455C114.377 46.3455 113.207 46.0532 112.198 45.4685C111.188 44.8661 110.399 44.0423 109.832 42.997C109.265 41.9517 108.982 40.7292 108.982 39.3296C108.982 37.9477 109.265 36.7341 109.832 35.6888C110.399 34.6258 111.188 33.8019 112.198 33.2173C113.207 32.6326 114.377 32.3403 115.706 32.3403C116.715 32.3403 117.619 32.5263 118.416 32.8984C119.231 33.2527 119.922 33.7665 120.489 34.4397C121.074 35.0953 121.508 35.9014 121.791 36.8581L119.825 37.4162H119.532C119.231 36.5126 118.735 35.8039 118.044 35.2902C117.371 34.7586 116.591 34.4929 115.706 34.4929C114.802 34.4929 114.014 34.6966 113.34 35.1041C112.685 35.5116 112.171 36.0786 111.799 36.8049C111.427 37.5313 111.241 38.3729 111.241 39.3296C111.241 40.2863 111.427 41.1367 111.799 41.8808C112.171 42.6072 112.685 43.1742 113.34 43.5816C114.014 43.9891 114.802 44.1929 115.706 44.1929C116.326 44.1929 116.893 44.0777 117.406 43.8474C117.92 43.6171 118.363 43.2805 118.735 42.8375C119.125 42.3946 119.426 41.872 119.639 41.2696H119.931L121.924 41.8277C121.605 42.7844 121.145 43.6082 120.542 44.2992C119.94 44.9724 119.231 45.4862 118.416 45.8405C117.619 46.1772 116.715 46.3455 115.706 46.3455ZM129.127 46C127.975 46 127.036 45.6368 126.31 44.9104C125.584 44.1663 125.221 43.1653 125.221 41.9074V29.0981H127.479V41.7214C127.479 42.4832 127.648 43.0324 127.984 43.369C128.321 43.6879 128.861 43.8474 129.605 43.8474H131.2L131.333 44.1397V46H129.127ZM122.935 34.8118V32.6858H131.333V34.8118H122.935ZM139.605 46.3455C138.311 46.3455 137.169 46.0532 136.176 45.4685C135.184 44.8661 134.405 44.0423 133.838 42.997C133.289 41.9517 133.014 40.7292 133.014 39.3296C133.014 37.9477 133.289 36.7341 133.838 35.6888C134.387 34.6258 135.149 33.8019 136.123 33.2173C137.115 32.6326 138.249 32.3403 139.525 32.3403C140.783 32.3403 141.881 32.6415 142.82 33.2439C143.777 33.8285 144.521 34.6612 145.053 35.7419C145.584 36.8227 145.85 38.0806 145.85 39.5156V39.8345L145.451 40.2066H134.263V38.1071H144.627L143.564 38.5323C143.511 37.6819 143.299 36.9555 142.927 36.3532C142.554 35.7508 142.076 35.2902 141.491 34.9713C140.907 34.6346 140.251 34.4663 139.525 34.4663C138.745 34.4663 138.028 34.6612 137.372 35.051C136.717 35.423 136.203 35.9545 135.831 36.6455C135.459 37.3365 135.273 38.1337 135.273 39.0373V39.5688C135.273 40.4546 135.459 41.2519 135.831 41.9606C136.203 42.6515 136.717 43.2007 137.372 43.6082C138.028 44.0157 138.772 44.2195 139.605 44.2195C140.42 44.2195 141.128 44.0246 141.731 43.6348C142.333 43.2273 142.802 42.6781 143.139 41.9871H143.458L145.318 42.811C144.822 43.9094 144.069 44.7775 143.059 45.4153C142.067 46.0354 140.916 46.3455 139.605 46.3455ZM152.88 46.3455C151.959 46.3455 151.135 46.1683 150.409 45.814C149.7 45.4596 149.142 44.9724 148.734 44.3523C148.327 43.7145 148.123 42.9881 148.123 42.1732C148.123 41.0038 148.54 40.056 149.372 39.3296C150.223 38.6032 151.392 38.178 152.88 38.054L158.009 37.6819V39.7017L153.332 40.0737C152.358 40.1446 151.631 40.3572 151.153 40.7115C150.692 41.0481 150.462 41.5265 150.462 42.1466C150.462 42.7312 150.71 43.2185 151.206 43.6082C151.702 43.998 152.34 44.1929 153.119 44.1929C153.917 44.1929 154.643 44.0069 155.299 43.6348C155.954 43.2627 156.468 42.7667 156.84 42.1466C157.23 41.5265 157.425 40.8355 157.425 40.0737V37.9211C157.425 36.9112 157.106 36.0786 156.468 35.423C155.848 34.7675 155.015 34.4397 153.97 34.4397C153.155 34.4397 152.455 34.6435 151.87 35.051C151.286 35.4407 150.887 35.99 150.674 36.6986H150.382L148.416 36.0608C148.805 34.8738 149.487 33.9525 150.462 33.297C151.436 32.6415 152.614 32.3137 153.996 32.3137C155.803 32.3137 157.194 32.8541 158.169 33.9348C159.161 35.0155 159.657 36.5392 159.657 38.5058V46H157.531V42.12L158.328 42.5452C158.116 43.2716 157.735 43.9271 157.185 44.5118C156.654 45.0787 156.016 45.5305 155.272 45.8671C154.546 46.186 153.748 46.3455 152.88 46.3455ZM163.163 46V32.6858H165.342V36.3797L164.784 35.8748C165.032 35.1484 165.413 34.5283 165.927 34.0145C166.44 33.483 167.043 33.0755 167.734 32.7921C168.425 32.4909 169.151 32.3403 169.913 32.3403C171.064 32.3403 172.065 32.6681 172.916 33.3236C173.766 33.9791 174.324 34.927 174.59 36.1671L173.66 36.1406C173.89 35.3787 174.271 34.7144 174.803 34.1474C175.352 33.5805 176.008 33.1376 176.769 32.8187C177.531 32.4997 178.355 32.3403 179.241 32.3403C180.144 32.3403 180.959 32.544 181.686 32.9515C182.412 33.359 182.988 33.9614 183.413 34.7586C183.838 35.5559 184.051 36.5569 184.051 37.7617V46H181.792V38.2932C181.792 37.3365 181.65 36.5835 181.367 36.0343C181.083 35.485 180.711 35.0953 180.251 34.8649C179.79 34.6346 179.267 34.5195 178.683 34.5195C178.08 34.5195 177.478 34.6789 176.876 34.9978C176.273 35.3167 175.768 35.8039 175.361 36.4595C174.953 37.0973 174.75 37.9211 174.75 38.931V46H172.491V38.2932C172.491 37.3365 172.349 36.5835 172.065 36.0343C171.782 35.485 171.401 35.0953 170.923 34.8649C170.462 34.6346 169.948 34.5195 169.381 34.5195C168.779 34.5195 168.168 34.6878 167.548 35.0244C166.945 35.3433 166.44 35.8305 166.033 36.486C165.625 37.1238 165.422 37.9388 165.422 38.931V46H163.163Z" fill="black"/>
</svg>
