<svg width="200" height="23" viewBox="0 0 200 23" fill="none" xmlns="http://www.w3.org/2000/svg">
<path fill-rule="evenodd" clip-rule="evenodd" d="M4.5172 20.7982C5.77804 21.5281 7.23795 21.8931 8.89694 21.8931C10.1578 21.8931 11.2859 21.683 12.2813 21.2627C13.2988 20.8203 14.1836 20.1788 14.9357 19.3382C15.6878 18.4756 16.2629 17.447 16.661 16.2525L14.1725 15.5557H13.8076C13.5421 16.3078 13.1661 16.9604 12.6794 17.5134C12.2149 18.0664 11.6619 18.4866 11.0205 18.7742C10.379 19.0618 9.67114 19.2055 8.89694 19.2055C7.76883 19.2055 6.78449 18.9512 5.94394 18.4424C5.1255 17.9336 4.48402 17.2258 4.01951 16.3189C3.55499 15.3898 3.32273 14.3281 3.32273 13.1336C3.32273 11.9391 3.55499 10.8884 4.01951 9.98153C4.48402 9.07462 5.1255 8.36678 5.94394 7.85802C6.78449 7.34926 7.76883 7.09488 8.89694 7.09488C10.0029 7.09488 10.9762 7.42668 11.8168 8.09028C12.6794 8.73176 13.2988 9.61655 13.6748 10.7447H14.0398L16.4951 10.0479C16.1412 8.85342 15.5993 7.84696 14.8693 7.02852C14.1615 6.18797 13.2988 5.54649 12.2813 5.10409C11.2859 4.63958 10.1578 4.40732 8.89694 4.40732C7.23795 4.40732 5.77804 4.7723 4.5172 5.50225C3.25637 6.23221 2.27203 7.26078 1.5642 8.58798C0.85636 9.89305 0.502441 11.4083 0.502441 13.1336C0.502441 14.8811 0.85636 16.4074 1.5642 17.7124C2.27203 19.0175 3.25637 20.0461 4.5172 20.7982ZM49.8411 4.83865V21.4618H52.6614V12.6359C52.6614 11.4193 52.9047 10.4018 53.3914 9.58337C53.9001 8.76494 54.5416 8.15664 55.3158 7.75848C56.1121 7.3382 56.9306 7.12807 57.7711 7.12807C58.5453 7.12807 59.231 7.27184 59.8283 7.5594C60.4476 7.84696 60.9343 8.34466 61.2882 9.0525C61.6421 9.73821 61.8191 10.6783 61.8191 11.8728V21.4618H64.6393V11.176C64.6393 9.67185 64.3739 8.42208 63.843 7.42668C63.3122 6.43129 62.5711 5.67921 61.62 5.17045C60.6909 4.6617 59.6292 4.40732 58.4347 4.40732C57.4172 4.40732 56.455 4.59534 55.5481 4.97137C54.6633 5.34741 53.8891 5.87829 53.2255 6.56401C52.9801 6.81759 52.7589 7.08931 52.5619 7.37919V4.83865H49.8411ZM68.9908 4.83865V21.4618H71.8111V12.6359C71.8111 11.4193 72.0544 10.4018 72.5411 9.58337C73.0498 8.76494 73.6913 8.15664 74.4655 7.75848C75.2618 7.3382 76.0803 7.12807 76.9208 7.12807C77.695 7.12807 78.3807 7.27184 78.978 7.5594C79.5973 7.84696 80.084 8.34466 80.4379 9.0525C80.7918 9.73821 80.9688 10.6783 80.9688 11.8728V21.4618H83.789V11.176C83.789 9.67185 83.5236 8.42208 82.9927 7.42668C82.4618 6.43129 81.7208 5.67921 80.7697 5.17045C79.8406 4.6617 78.7789 4.40732 77.5844 4.40732C76.5669 4.40732 75.6047 4.59534 74.6978 4.97137C73.813 5.34741 73.0388 5.87829 72.3752 6.56401C72.1298 6.81759 71.9086 7.08932 71.7116 7.37919V4.83865H68.9908ZM91.1267 20.7982C92.3654 21.5281 93.7922 21.8931 95.4069 21.8931C97.0438 21.8931 98.4816 21.506 99.7203 20.7318C100.981 19.9355 101.921 18.8516 102.541 17.4802L100.218 16.4516H99.8198C99.3996 17.3143 98.8134 18 98.0613 18.5088C97.3092 18.9954 96.4244 19.2387 95.4069 19.2387C94.3673 19.2387 93.4382 18.9843 92.6198 18.4756C91.8014 17.9668 91.1599 17.2811 90.6954 16.4184C90.3452 15.7513 90.127 15.0214 90.0408 14.2286H102.706L103.204 13.764V13.3659C103.204 11.5742 102.872 10.0037 102.209 8.65434C101.545 7.30502 100.616 6.26539 99.4217 5.53543C98.2493 4.78336 96.8779 4.40732 95.3074 4.40732C93.7147 4.40732 92.2991 4.7723 91.0604 5.50225C89.8438 6.23221 88.8926 7.26078 88.2069 8.58798C87.5212 9.89305 87.1783 11.4083 87.1783 13.1336C87.1783 14.8811 87.5212 16.4074 88.2069 17.7124C88.9147 19.0175 89.888 20.0461 91.1267 20.7982ZM90.088 11.6073C90.1948 10.9444 90.3973 10.3361 90.6954 9.78245C91.1599 8.91978 91.8014 8.25618 92.6198 7.79166C93.4382 7.30502 94.3341 7.06171 95.3074 7.06171C96.2143 7.06171 97.0327 7.27184 97.7627 7.69212C98.4926 8.09028 99.0899 8.6654 99.5544 9.41747C99.9395 10.041 100.188 10.771 100.299 11.6073H90.088ZM109.792 20.7982C111.053 21.5281 112.513 21.8931 114.172 21.8931C115.433 21.8931 116.561 21.683 117.556 21.2627C118.574 20.8203 119.458 20.1788 120.21 19.3382C120.962 18.4756 121.538 17.447 121.936 16.2525L119.447 15.5557H119.082C118.817 16.3078 118.441 16.9604 117.954 17.5134C117.49 18.0664 116.937 18.4866 116.295 18.7742C115.654 19.0618 114.946 19.2055 114.172 19.2055C113.044 19.2055 112.059 18.9512 111.219 18.4424C110.4 17.9336 109.759 17.2258 109.294 16.3189C108.83 15.3898 108.597 14.3281 108.597 13.1336C108.597 11.9391 108.83 10.8884 109.294 9.98153C109.759 9.07462 110.4 8.36678 111.219 7.85802C112.059 7.34926 113.044 7.09488 114.172 7.09488C115.278 7.09488 116.251 7.42668 117.091 8.09028C117.954 8.73176 118.574 9.61655 118.95 10.7447H119.315L121.77 10.0479C121.416 8.85342 120.874 7.84696 120.144 7.02852C119.436 6.18797 118.574 5.54649 117.556 5.10409C116.561 4.63958 115.433 4.40732 114.172 4.40732C112.513 4.40732 111.053 4.7723 109.792 5.50225C108.531 6.23221 107.547 7.26078 106.839 8.58798C106.131 9.89305 105.777 11.4083 105.777 13.1336C105.777 14.8811 106.131 16.4074 106.839 17.7124C107.547 19.0175 108.531 20.0461 109.792 20.7982ZM127.412 20.1014C128.319 21.0083 129.491 21.4618 130.929 21.4618H133.683V19.1392L133.517 18.7742H131.526C130.597 18.7742 129.922 18.5751 129.502 18.177C129.082 17.7567 128.872 17.071 128.872 16.1198V7.49304H133.683V4.83865H128.872V0.359375H126.051V4.83865H123.198V7.49304H126.051V16.3521C126.051 17.9226 126.505 19.1723 127.412 20.1014ZM139.73 20.7982C140.969 21.5281 142.395 21.8931 144.01 21.8931C145.647 21.8931 147.085 21.506 148.324 20.7318C149.584 19.9355 150.525 18.8516 151.144 17.4802L148.821 16.4516H148.423C148.003 17.3143 147.417 18 146.665 18.5088C145.913 18.9954 145.028 19.2387 144.01 19.2387C142.971 19.2387 142.042 18.9843 141.223 18.4756C140.405 17.9668 139.763 17.2811 139.299 16.4184C138.948 15.7513 138.73 15.0214 138.644 14.2286H151.31L151.807 13.764V13.3659C151.807 11.5742 151.476 10.0037 150.812 8.65434C150.148 7.30502 149.219 6.26539 148.025 5.53543C146.853 4.78336 145.481 4.40732 143.911 4.40732C142.318 4.40732 140.902 4.7723 139.664 5.50225C138.447 6.23221 137.496 7.26078 136.81 8.58798C136.124 9.89305 135.782 11.4083 135.782 13.1336C135.782 14.8811 136.124 16.4074 136.81 17.7124C137.518 19.0175 138.491 20.0461 139.73 20.7982ZM138.691 11.6073C138.798 10.9444 139.001 10.3361 139.299 9.78245C139.763 8.91978 140.405 8.25618 141.223 7.79166C142.042 7.30502 142.937 7.06171 143.911 7.06171C144.818 7.06171 145.636 7.27184 146.366 7.69212C147.096 8.09028 147.693 8.6654 148.158 9.41747C148.543 10.041 148.791 10.771 148.903 11.6073H138.691ZM157.499 21.2295C158.406 21.6719 159.435 21.8931 160.585 21.8931C161.669 21.8931 162.664 21.694 163.571 21.2959C164.5 20.8756 165.297 20.3115 165.96 19.6037C166.115 19.4393 166.258 19.2704 166.392 19.097V21.4618H169.046V12.105C169.046 9.64973 168.427 7.74742 167.188 6.39811C165.971 5.04879 164.235 4.37414 161.979 4.37414C160.253 4.37414 158.782 4.78335 157.566 5.60179C156.349 6.42023 155.498 7.57046 155.011 9.0525L157.466 9.84881H157.831C158.097 8.96402 158.594 8.2783 159.324 7.79166C160.054 7.2829 160.928 7.02852 161.945 7.02852C163.251 7.02852 164.29 7.43774 165.064 8.25618C165.808 9.02092 166.205 9.97879 166.254 11.1298L160.585 11.541C158.727 11.6958 157.267 12.2267 156.205 13.1336C155.166 14.0405 154.646 15.2239 154.646 16.6839C154.646 17.7014 154.9 18.6083 155.409 19.4046C155.918 20.1788 156.615 20.7871 157.499 21.2295ZM166.259 13.6562V14.0627C166.259 15.0138 166.016 15.8765 165.529 16.6507C165.064 17.4249 164.423 18.0442 163.604 18.5088C162.786 18.9733 161.879 19.2055 160.884 19.2055C159.91 19.2055 159.114 18.9622 158.495 18.4756C157.875 17.9889 157.566 17.3806 157.566 16.6507C157.566 15.8765 157.853 15.2792 158.428 14.859C159.026 14.4166 159.933 14.1511 161.149 14.0627L166.259 13.6562ZM173.423 4.83865V21.4618H176.243V12.6359C176.243 11.3972 176.498 10.3797 177.007 9.58337C177.515 8.76494 178.146 8.15664 178.898 7.75848C179.672 7.3382 180.435 7.12807 181.187 7.12807C181.895 7.12807 182.536 7.27184 183.112 7.5594C183.709 7.84696 184.184 8.3336 184.538 9.01932C184.892 9.70503 185.069 10.6451 185.069 11.8396V21.4618H187.89V12.6359C187.89 11.3751 188.144 10.3465 188.653 9.55019C189.161 8.73176 189.792 8.12346 190.544 7.7253C191.296 7.32714 192.048 7.12807 192.8 7.12807C193.53 7.12807 194.183 7.27184 194.758 7.5594C195.333 7.84696 195.797 8.3336 196.151 9.01932C196.505 9.70503 196.682 10.6451 196.682 11.8396V21.4618H199.502V11.176C199.502 9.67185 199.237 8.42208 198.706 7.42668C198.175 6.43129 197.456 5.67921 196.549 5.17045C195.643 4.6617 194.625 4.40732 193.497 4.40732C192.391 4.40732 191.362 4.6064 190.411 5.00455C189.46 5.40271 188.642 5.95571 187.956 6.66355C187.666 6.973 187.412 7.30571 187.193 7.66168C186.813 6.83579 186.282 6.16022 185.6 5.63497C184.538 4.81654 183.289 4.40732 181.851 4.40732C180.9 4.40732 179.993 4.59534 179.13 4.97137C178.267 5.32529 177.515 5.83405 176.874 6.49765C176.6 6.77111 176.357 7.0687 176.144 7.39041V4.83865H173.423ZM46.2459 13.462C46.3634 12.9051 46.4281 12.3181 46.44 11.7009C46.4708 10.1086 46.1333 8.68612 45.4274 7.43352C44.7211 6.20305 43.7223 5.22135 42.4312 4.48842C41.1396 3.7776 39.6313 3.40552 37.9063 3.37218C36.1812 3.33883 34.6597 3.65234 33.3416 4.3127C32.0231 4.99518 30.9872 5.93755 30.2338 7.13981C29.4801 8.36418 29.0878 9.77254 29.057 11.3649C29.0451 11.982 29.087 12.5711 29.1829 13.1322L31.6933 13.1807C31.538 12.6327 31.4665 12.043 31.4787 11.4117C31.5001 10.3059 31.7734 9.32667 32.2988 8.47398C32.8458 7.64385 33.5884 6.99448 34.5267 6.52589C35.4871 6.05773 36.5976 5.83583 37.8582 5.8602C39.1409 5.885 40.242 6.14965 41.1614 6.65415C42.0809 7.15865 42.7868 7.83602 43.2792 8.68625C43.7934 9.55903 44.0397 10.5483 44.0183 11.6541C44.0061 12.2854 43.9083 12.8718 43.7247 13.4133L46.2459 13.462ZM20.532 12.2301C20.3952 12.7826 20.3101 13.367 20.2766 13.9833C20.1903 15.5736 20.478 17.007 21.1398 18.2834C21.8027 19.5378 22.7666 20.5537 24.0314 21.3313C25.2974 22.0867 26.7918 22.5112 28.5146 22.6047C30.2374 22.6982 31.769 22.4379 33.1093 21.824C34.4508 21.1879 35.519 20.2822 36.3138 19.107C37.1098 17.9096 37.551 16.5158 37.6373 14.9255C37.6708 14.3092 37.6494 13.719 37.5732 13.155L35.066 13.0189C35.202 13.572 35.253 14.1638 35.2187 14.7943C35.1588 15.8986 34.8515 16.8677 34.2967 17.7016C33.721 18.5121 32.9562 19.1352 32.0022 19.5708C31.026 20.0051 29.9085 20.1882 28.6495 20.1198C27.3684 20.0503 26.2772 19.7474 25.3759 19.2111C24.4746 18.6749 23.7928 17.9733 23.3303 17.1064C22.847 16.2162 22.6352 15.2189 22.6952 14.1146C22.7294 13.4841 22.8477 12.9015 23.05 12.3668L20.532 12.2301Z" fill="white"/>
</svg>
