<svg width="180" height="23" viewBox="0 0 180 23" fill="none" xmlns="http://www.w3.org/2000/svg">
<path d="M177.324 11.6852C177.324 10.8952 177.173 10.2102 176.873 9.63017C176.582 9.04018 176.171 8.59018 175.64 8.28018C175.119 7.97018 174.517 7.81518 173.836 7.81518C173.204 7.81518 172.618 7.96018 172.076 8.25018C171.545 8.53018 171.114 8.96518 170.783 9.55518C170.453 10.1452 170.287 10.8802 170.287 11.7602L168.874 11.1902C168.854 10.0602 169.089 9.06018 169.581 8.19018C170.072 7.31018 170.753 6.63017 171.625 6.15018C172.497 5.67018 173.47 5.43018 174.542 5.43018C175.665 5.43018 176.637 5.66018 177.459 6.12018C178.281 6.58018 178.907 7.24018 179.338 8.10018C179.779 8.95018 180 9.95018 180 11.1002L179.985 22.0502H177.309L177.324 11.6852ZM157.883 22.0502V5.85018H160.274V10.1852H160.574V22.0502H157.883ZM167.626 11.7902C167.626 10.9802 167.481 10.2752 167.19 9.67518C166.899 9.07518 166.488 8.61518 165.957 8.29518C165.436 7.97518 164.819 7.81518 164.108 7.81518C163.416 7.81518 162.8 7.98018 162.258 8.31017C161.727 8.63017 161.311 9.09018 161.011 9.69018C160.72 10.2802 160.574 10.9702 160.574 11.7602L159.161 10.9202C159.161 9.88018 159.412 8.94518 159.913 8.11518C160.414 7.27518 161.101 6.62018 161.973 6.15018C162.845 5.67018 163.817 5.43018 164.89 5.43018C165.982 5.43018 166.934 5.66018 167.746 6.12018C168.558 6.58018 169.185 7.24018 169.626 8.10018C170.067 8.96018 170.287 9.97518 170.287 11.1452L170.272 22.0502H167.611L167.626 11.7902Z" fill="white"/>
<path d="M145.599 22.4999C144.437 22.4999 143.439 22.2849 142.607 21.8549C141.776 21.4149 141.144 20.8299 140.713 20.0999C140.292 19.3699 140.082 18.5599 140.082 17.6699C140.082 16.4199 140.422 15.4049 141.104 14.6249C141.796 13.8449 142.783 13.2749 144.066 12.9149C144.878 12.6849 145.78 12.4949 146.772 12.3449C147.765 12.1849 149.133 11.9899 150.877 11.7599C151.137 11.7199 151.388 11.6849 151.629 11.6549C151.879 11.6249 152.11 11.5949 152.32 11.5649L151.358 12.1199C151.378 11.1399 151.258 10.3399 150.997 9.7199C150.737 9.0999 150.311 8.6399 149.719 8.3399C149.128 8.0399 148.341 7.8899 147.359 7.8899C146.336 7.8899 145.459 8.1199 144.727 8.5799C144.006 9.0399 143.505 9.7549 143.224 10.7249L140.683 9.9599C141.074 8.5099 141.836 7.3899 142.968 6.5999C144.111 5.7999 145.584 5.3999 147.389 5.3999C148.892 5.3999 150.165 5.6699 151.208 6.2099C152.26 6.7399 153.012 7.5249 153.463 8.5649C153.673 9.0249 153.814 9.5349 153.884 10.0949C153.954 10.6549 153.989 11.2999 153.989 12.0299V22.0499H151.614V18.1649L152.17 18.5249C151.759 19.3949 151.238 20.1299 150.606 20.7299C149.985 21.3199 149.253 21.7599 148.411 22.0499C147.579 22.3499 146.642 22.4999 145.599 22.4999ZM146.005 20.2649C146.938 20.2649 147.76 20.0999 148.471 19.7699C149.183 19.4299 149.754 18.9799 150.185 18.4199C150.626 17.8499 150.917 17.2199 151.057 16.5299C151.178 16.1499 151.253 15.7349 151.283 15.2849C151.313 14.8249 151.328 14.3049 151.328 13.7249V13.4399L152.26 13.8449L151.147 13.9949C149.724 14.1749 148.561 14.3349 147.659 14.4749C146.757 14.6149 145.96 14.7849 145.269 14.9849C144.507 15.2149 143.895 15.5399 143.434 15.9599C142.973 16.3799 142.743 16.9449 142.743 17.6549C142.743 18.1249 142.858 18.5599 143.089 18.9599C143.319 19.3499 143.68 19.6649 144.171 19.9049C144.662 20.1449 145.274 20.2649 146.005 20.2649Z" fill="white"/>
<path d="M130.547 22.4999C128.964 22.4999 127.571 22.1499 126.368 21.4499C125.175 20.7499 124.248 19.7599 123.586 18.4799C122.935 17.1999 122.609 15.7249 122.609 14.0549C122.609 12.3049 122.93 10.7799 123.571 9.4799C124.223 8.1699 125.135 7.1649 126.308 6.4649C127.49 5.7549 128.864 5.3999 130.427 5.3999C132.041 5.3999 133.424 5.7749 134.577 6.5249C135.74 7.2649 136.607 8.3349 137.178 9.7349C137.759 11.1349 138.01 12.7899 137.93 14.6999H135.223V13.7399C135.203 12.4099 135.018 11.3099 134.667 10.4399C134.316 9.5599 133.795 8.8999 133.103 8.4599C132.412 8.0199 131.55 7.7999 130.517 7.7999C129.425 7.7999 128.498 8.0399 127.736 8.5199C126.984 8.9899 126.413 9.6849 126.022 10.6049C125.641 11.5149 125.451 12.6299 125.451 13.9499C125.451 15.2199 125.641 16.3049 126.022 17.2049C126.413 18.0949 126.979 18.7799 127.721 19.2599C128.473 19.7299 129.375 19.9649 130.427 19.9649C131.49 19.9649 132.417 19.7199 133.209 19.2299C134.011 18.7399 134.637 18.0349 135.088 17.1149L137.659 17.9999C137.238 18.9399 136.672 19.7499 135.96 20.4299C135.249 21.0999 134.432 21.6149 133.509 21.9749C132.587 22.3249 131.6 22.4999 130.547 22.4999ZM124.548 14.6999V12.5549H136.547V14.6999H124.548Z" fill="white"/>
<path d="M120.89 22.0501C119.296 22.3701 117.857 22.3801 116.574 22.0801C115.301 21.7901 114.399 21.1301 113.868 20.1001C113.617 19.5901 113.457 19.0751 113.387 18.5551C113.327 18.0251 113.302 17.3201 113.312 16.4401V15.9301V1.3501H115.988V15.8101V16.2751C115.978 16.9251 115.988 17.4301 116.018 17.7901C116.058 18.1401 116.158 18.4501 116.319 18.7201C116.66 19.3301 117.201 19.7051 117.943 19.8451C118.684 19.9751 119.667 19.9451 120.89 19.7551V22.0501ZM110.019 8.0551V5.8501H120.89V8.0551H110.019Z" fill="white"/>
<path d="M101.809 22.4999C100.205 22.4999 98.8216 22.1399 97.6589 21.4199C96.4961 20.6899 95.609 19.6799 94.9976 18.3899C94.3962 17.0999 94.0855 15.6199 94.0654 13.9499C94.0855 12.2499 94.4012 10.7599 95.0126 9.4799C95.6341 8.1899 96.5262 7.1899 97.6889 6.4799C98.8617 5.7599 100.245 5.3999 101.839 5.3999C102.971 5.3999 104.009 5.5899 104.951 5.9699C105.893 6.3499 106.69 6.8949 107.342 7.6049C108.003 8.3149 108.474 9.1499 108.755 10.1099L106.109 10.9049C105.768 9.9749 105.212 9.2499 104.44 8.7299C103.678 8.1999 102.801 7.9349 101.809 7.9349C100.205 7.9349 98.992 8.4799 98.1701 9.5699C97.3481 10.6499 96.9271 12.1099 96.9071 13.9499C96.9171 15.1699 97.1076 16.2299 97.4784 17.1299C97.8493 18.0299 98.4006 18.7299 99.1323 19.2299C99.864 19.7199 100.756 19.9649 101.809 19.9649C102.851 19.9649 103.723 19.7249 104.425 19.2449C105.136 18.7649 105.678 18.0599 106.049 17.1299L108.755 17.8349C108.194 19.3449 107.316 20.4999 106.124 21.2999C104.931 22.0999 103.493 22.4999 101.809 22.4999Z" fill="white"/>
<path d="M84.2377 22.4999C82.654 22.4999 81.2607 22.1499 80.0579 21.4499C78.8651 20.7499 77.9379 19.7599 77.2764 18.4799C76.6248 17.1999 76.2991 15.7249 76.2991 14.0549C76.2991 12.3049 76.6198 10.7799 77.2613 9.4799C77.9129 8.1699 78.825 7.1649 79.9977 6.4649C81.1805 5.7549 82.5537 5.3999 84.1174 5.3999C85.7312 5.3999 87.1144 5.7749 88.2671 6.5249C89.4298 7.2649 90.2969 8.3349 90.8682 9.7349C91.4496 11.1349 91.7002 12.7899 91.62 14.6999H88.9136V13.7399C88.8936 12.4099 88.7082 11.3099 88.3573 10.4399C88.0065 9.5599 87.4853 8.8999 86.7937 8.4599C86.102 8.0199 85.24 7.7999 84.2076 7.7999C83.115 7.7999 82.1879 8.0399 81.4261 8.5199C80.6743 8.9899 80.103 9.6849 79.7121 10.6049C79.3312 11.5149 79.1407 12.6299 79.1407 13.9499C79.1407 15.2199 79.3312 16.3049 79.7121 17.2049C80.103 18.0949 80.6693 18.7799 81.4111 19.2599C82.1628 19.7299 83.0649 19.9649 84.1174 19.9649C85.1799 19.9649 86.1071 19.7199 86.8989 19.2299C87.7008 18.7399 88.3273 18.0349 88.7783 17.1149L91.3494 17.9999C90.9284 18.9399 90.362 19.7499 89.6504 20.4299C88.9387 21.0999 88.1218 21.6149 87.1996 21.9749C86.2775 22.3249 85.2902 22.4999 84.2377 22.4999ZM78.2386 14.6999V12.5549H90.2367V14.6999H78.2386Z" fill="white"/>
<path d="M70.7329 13.9352C70.7329 12.7652 70.5976 11.7502 70.3269 10.8902C70.0663 10.0302 69.6053 9.33018 68.9437 8.79018C68.2922 8.24018 67.4201 7.96518 66.3276 7.96518C65.4054 7.96518 64.6136 8.17018 63.952 8.58018C63.2905 8.98018 62.7742 9.59518 62.4034 10.4252C62.0425 11.2552 61.8621 12.2852 61.8621 13.5152L60.103 12.9752C60.103 11.4252 60.3836 10.0852 60.945 8.95518C61.5063 7.81518 62.3031 6.94518 63.3356 6.34518C64.368 5.73518 65.5808 5.43018 66.9741 5.43018C68.6079 5.43018 69.906 5.83018 70.8682 6.63018C71.8305 7.42018 72.497 8.37518 72.8679 9.49518C73.2488 10.6152 73.4392 11.8152 73.4392 13.0952V22.0502H70.7329V13.9352ZM59.1558 22.0502V5.85018H61.5614V10.1852H61.8621V22.0502H59.1558Z" fill="white"/>
<path d="M52.5554 13.9352C52.5554 12.7652 52.4201 11.7502 52.1495 10.8902C51.8888 10.0302 51.4278 9.33018 50.7662 8.79018C50.1147 8.24018 49.2426 7.96518 48.1501 7.96518C47.2279 7.96518 46.4361 8.17018 45.7745 8.58018C45.113 8.98018 44.5968 9.59518 44.2259 10.4252C43.865 11.2552 43.6846 12.2852 43.6846 13.5152L41.9255 12.9752C41.9255 11.4252 42.2061 10.0852 42.7675 8.95518C43.3288 7.81518 44.1256 6.94518 45.1581 6.34518C46.1905 5.73518 47.4033 5.43018 48.7966 5.43018C50.4304 5.43018 51.7285 5.83018 52.6907 6.63018C53.653 7.42018 54.3195 8.37518 54.6904 9.49518C55.0713 10.6152 55.2618 11.8152 55.2618 13.0952V22.0502H52.5554V13.9352ZM40.9783 22.0502V5.85018H43.3839V10.1852H43.6846V22.0502H40.9783Z" fill="white"/>
<path d="M29.8496 22.4999C28.2558 22.4999 26.8676 22.1399 25.6848 21.4199C24.5121 20.6899 23.6099 19.6799 22.9785 18.3899C22.347 17.0899 22.0312 15.6049 22.0312 13.9349C22.0312 12.2449 22.352 10.7549 22.9935 9.4649C23.635 8.1749 24.5471 7.1749 25.7299 6.4649C26.9127 5.7549 28.2859 5.3999 29.8496 5.3999C31.4533 5.3999 32.8416 5.7599 34.0143 6.4799C35.1971 7.1999 36.1042 8.2049 36.7357 9.4949C37.3672 10.7849 37.6829 12.2649 37.6829 13.9349C37.6829 15.6249 37.3622 17.1149 36.7207 18.4049C36.0892 19.6949 35.1821 20.6999 33.9993 21.4199C32.8165 22.1399 31.4333 22.4999 29.8496 22.4999ZM29.8496 19.9649C30.9421 19.9649 31.8593 19.7149 32.601 19.2149C33.3528 18.7149 33.9141 18.0099 34.285 17.0999C34.6558 16.1899 34.8413 15.1349 34.8413 13.9349C34.8413 12.0649 34.4153 10.5999 33.5633 9.5399C32.7113 8.4699 31.4734 7.9349 29.8496 7.9349C28.747 7.9349 27.8248 8.1849 27.0831 8.6849C26.3414 9.1849 25.785 9.8849 25.4142 10.7849C25.0533 11.6749 24.8729 12.7249 24.8729 13.9349C24.8729 15.1649 25.0634 16.2349 25.4442 17.1449C25.8251 18.0449 26.3865 18.7399 27.1282 19.2299C27.8699 19.7199 28.7771 19.9649 29.8496 19.9649Z" fill="white"/>
<path d="M10.1037 22.5C7.98872 22.5 6.16946 22.03 4.64589 21.09C3.13234 20.15 1.97964 18.835 1.18778 17.145C0.395928 15.445 0 13.48 0 11.25C0 9.02 0.395928 7.06 1.18778 5.37C1.97964 3.67 3.13234 2.35 4.64589 1.41C6.16946 0.47 7.98872 0 10.1037 0C11.7475 0 13.211 0.284999 14.494 0.854999C15.777 1.425 16.8495 2.235 17.7115 3.285C18.5836 4.335 19.2251 5.585 19.636 7.035L16.9146 7.755C16.4636 6.105 15.6617 4.825 14.509 3.915C13.3563 3.005 11.8879 2.55 10.1037 2.55C8.52999 2.55 7.19687 2.91 6.10431 3.63C5.02177 4.35 4.20486 5.36 3.65356 6.66C3.11229 7.96 2.83665 9.49 2.82663 11.25C2.8166 12.99 3.08724 14.515 3.63853 15.825C4.18982 17.125 5.00673 18.14 6.08927 18.87C7.18183 19.59 8.51997 19.95 10.1037 19.95C11.8879 19.95 13.3563 19.495 14.509 18.585C15.6617 17.665 16.4636 16.385 16.9146 14.745L19.636 15.465C19.2251 16.905 18.5836 18.155 17.7115 19.215C16.8495 20.265 15.777 21.075 14.494 21.645C13.211 22.215 11.7475 22.5 10.1037 22.5Z" fill="white"/>
</svg>
