<svg width="205" height="35" viewBox="0 0 205 35" fill="none" xmlns="http://www.w3.org/2000/svg">
<rect width="205" height="34.3575" rx="12.0251" fill="white"/>
<path d="M163.771 0L163.771 34.3575" stroke="black" stroke-opacity="0.32" stroke-width="0.572626"/>
<path fill-rule="evenodd" clip-rule="evenodd" d="M183.759 17.5305L188.957 22.7281L189.362 22.3232L184.164 17.1256L189.389 11.9014L188.984 11.4965L183.759 16.7207L178.562 11.523L178.157 11.9279L183.355 17.1256L178.13 22.3498L178.535 22.7547L183.759 17.5305Z" fill="black" fill-opacity="0.04"/>
<path d="M188.957 22.7281L188.755 22.9306L188.957 23.133L189.16 22.9306L188.957 22.7281ZM183.759 17.5305L183.962 17.328L183.759 17.1256L183.557 17.328L183.759 17.5305ZM189.362 22.3232L189.564 22.5257L189.767 22.3232L189.564 22.1208L189.362 22.3232ZM184.164 17.1256L183.962 16.9231L183.759 17.1256L183.962 17.328L184.164 17.1256ZM189.389 11.9014L189.591 12.1038L189.793 11.9014L189.591 11.6989L189.389 11.9014ZM188.984 11.4965L189.186 11.294L188.984 11.0916L188.781 11.294L188.984 11.4965ZM183.759 16.7207L183.557 16.9231L183.759 17.1256L183.962 16.9231L183.759 16.7207ZM178.562 11.523L178.764 11.3205L178.562 11.1181L178.359 11.3205L178.562 11.523ZM178.157 11.9279L177.954 11.7254L177.752 11.9279L177.954 12.1303L178.157 11.9279ZM183.355 17.1256L183.557 17.328L183.759 17.1256L183.557 16.9231L183.355 17.1256ZM178.13 22.3498L177.928 22.1473L177.725 22.3498L177.928 22.5522L178.13 22.3498ZM178.535 22.7547L178.333 22.9571L178.535 23.1596L178.738 22.9571L178.535 22.7547ZM189.16 22.5257L183.962 17.328L183.557 17.7329L188.755 22.9306L189.16 22.5257ZM189.16 22.1208L188.755 22.5257L189.16 22.9306L189.564 22.5257L189.16 22.1208ZM183.962 17.328L189.16 22.5257L189.564 22.1208L184.367 16.9231L183.962 17.328ZM189.186 11.6989L183.962 16.9231L184.367 17.328L189.591 12.1038L189.186 11.6989ZM188.781 11.6989L189.186 12.1038L189.591 11.6989L189.186 11.294L188.781 11.6989ZM183.962 16.9231L189.186 11.6989L188.781 11.294L183.557 16.5182L183.962 16.9231ZM178.359 11.7254L183.557 16.9231L183.962 16.5182L178.764 11.3205L178.359 11.7254ZM178.359 12.1303L178.764 11.7254L178.359 11.3205L177.954 11.7254L178.359 12.1303ZM183.557 16.9231L178.359 11.7254L177.954 12.1303L183.152 17.328L183.557 16.9231ZM178.333 22.5522L183.557 17.328L183.152 16.9231L177.928 22.1473L178.333 22.5522ZM178.738 22.5522L178.333 22.1473L177.928 22.5522L178.333 22.9571L178.738 22.5522ZM183.557 17.328L178.333 22.5522L178.738 22.9571L183.962 17.7329L183.557 17.328Z" fill="black" fill-opacity="0.65"/>
<path d="M23.709 23.7568C22.584 23.7568 21.5762 23.4873 20.6855 22.9482C19.7949 22.4092 19.0947 21.6387 18.585 20.6367C18.0752 19.6289 17.8203 18.4307 17.8203 17.042C17.8203 15.6416 18.0752 14.4404 18.585 13.4385C19.1006 12.4307 19.8008 11.6572 20.6855 11.1182C21.5762 10.5791 22.584 10.3096 23.709 10.3096C24.4004 10.3096 25.0479 10.4092 25.6514 10.6084C26.2607 10.8076 26.8057 11.0977 27.2861 11.4785C27.7666 11.8594 28.1621 12.3252 28.4727 12.876C28.7891 13.4268 29 14.0508 29.1055 14.748H27.1191C27.043 14.3203 26.8994 13.9453 26.6885 13.623C26.4834 13.2949 26.2285 13.0195 25.9238 12.7969C25.625 12.5684 25.2881 12.3984 24.9131 12.2871C24.5439 12.1699 24.1514 12.1113 23.7354 12.1113C22.9854 12.1113 22.3086 12.3018 21.7051 12.6826C21.1074 13.0576 20.6357 13.6143 20.29 14.3525C19.9502 15.085 19.7803 15.9814 19.7803 17.042C19.7803 18.1084 19.9531 19.0078 20.2988 19.7402C20.6445 20.4668 21.1162 21.0176 21.7139 21.3926C22.3115 21.7676 22.9824 21.9551 23.7266 21.9551C24.1426 21.9551 24.5352 21.8994 24.9043 21.7881C25.2734 21.6768 25.6104 21.5098 25.915 21.2871C26.2197 21.0645 26.4746 20.7949 26.6797 20.4785C26.8906 20.1562 27.0371 19.7842 27.1191 19.3623H29.1055C29.0059 20.0127 28.8037 20.6074 28.499 21.1465C28.1943 21.6797 27.8047 22.1426 27.3301 22.5352C26.8555 22.9219 26.3135 23.2236 25.7041 23.4404C25.0947 23.6514 24.4297 23.7568 23.709 23.7568ZM35.2441 23.7832C34.3242 23.7832 33.5185 23.5723 32.8271 23.1504C32.1416 22.7285 31.6084 22.1367 31.2275 21.375C30.8525 20.6133 30.665 19.7285 30.665 18.7207C30.665 17.7012 30.8525 16.8105 31.2275 16.0488C31.6084 15.2812 32.1416 14.6865 32.8271 14.2646C33.5185 13.8428 34.3242 13.6318 35.2441 13.6318C36.1699 13.6318 36.9755 13.8428 37.6611 14.2646C38.3466 14.6865 38.8798 15.2812 39.2607 16.0488C39.6416 16.8105 39.832 17.7012 39.832 18.7207C39.832 19.7285 39.6416 20.6133 39.2607 21.375C38.8798 22.1367 38.3466 22.7285 37.6611 23.1504C36.9755 23.5723 36.1699 23.7832 35.2441 23.7832ZM35.2441 22.1748C35.8476 22.1748 36.3457 22.0166 36.7382 21.7002C37.1308 21.3838 37.4209 20.9648 37.6084 20.4434C37.8017 19.916 37.8984 19.3418 37.8984 18.7207C37.8984 18.0879 37.8017 17.5078 37.6084 16.9805C37.4209 16.4531 37.1308 16.0312 36.7382 15.7148C36.3457 15.3984 35.8476 15.2402 35.2441 15.2402C34.6464 15.2402 34.1513 15.3984 33.7587 15.7148C33.372 16.0312 33.082 16.4531 32.8886 16.9805C32.6953 17.5078 32.5986 18.0879 32.5986 18.7207C32.5986 19.3418 32.6953 19.916 32.8886 20.4434C33.082 20.9648 33.372 21.3838 33.7587 21.7002C34.1513 22.0166 34.6464 22.1748 35.2441 22.1748ZM43.6503 17.7539V23.5811H41.7519V13.7549H43.5976V15.3721H43.7294C43.9521 14.8389 44.3007 14.417 44.7753 14.1064C45.2499 13.79 45.8593 13.6318 46.6034 13.6318C47.2714 13.6318 47.8544 13.7725 48.3525 14.0537C48.8564 14.3291 49.246 14.7422 49.5214 15.293C49.8027 15.8438 49.9433 16.5264 49.9433 17.3408V23.5811H48.0448V17.5693C48.0448 16.8604 47.8573 16.3037 47.4823 15.8994C47.1073 15.4893 46.5976 15.2842 45.953 15.2842C45.5136 15.2842 45.1181 15.3838 44.7665 15.583C44.4208 15.7764 44.1484 16.0547 43.9491 16.418C43.7499 16.7812 43.6503 17.2266 43.6503 17.7539ZM54.2098 17.7539V23.5811H52.3114V13.7549H54.1571V15.3721H54.2889C54.5116 14.8389 54.8602 14.417 55.3348 14.1064C55.8095 13.79 56.4188 13.6318 57.163 13.6318C57.8309 13.6318 58.4139 13.7725 58.912 14.0537C59.4159 14.3291 59.8055 14.7422 60.0809 15.293C60.3622 15.8438 60.5028 16.5264 60.5028 17.3408V23.5811H58.6044V17.5693C58.6044 16.8604 58.4169 16.3037 58.0419 15.8994C57.6669 15.4893 57.1571 15.2842 56.5126 15.2842C56.0731 15.2842 55.6776 15.3838 55.3261 15.583C54.9804 15.7764 54.7079 16.0547 54.5087 16.418C54.3095 16.7812 54.2098 17.2266 54.2098 17.7539ZM67.0985 23.7832C66.1375 23.7832 65.3055 23.5752 64.6024 23.1592C63.8993 22.7432 63.3573 22.1572 62.9764 21.4014C62.6014 20.6396 62.4139 19.752 62.4139 18.7383C62.4139 17.7305 62.5985 16.8428 62.9676 16.0752C63.3426 15.3076 63.867 14.71 64.5409 14.2822C65.2205 13.8486 66.0174 13.6318 66.9315 13.6318C67.4881 13.6318 68.0272 13.7227 68.5487 13.9043C69.0702 14.0859 69.5389 14.373 69.9549 14.7656C70.3709 15.1582 70.6991 15.668 70.9393 16.2949C71.1854 16.9219 71.3084 17.6777 71.3084 18.5625V19.248H63.495V17.8154H70.3241L69.4364 18.29C69.4364 17.6865 69.3426 17.1533 69.1551 16.6904C68.9676 16.2275 68.6864 15.8672 68.3114 15.6094C67.9422 15.3457 67.4823 15.2139 66.9315 15.2139C66.3807 15.2139 65.909 15.3457 65.5164 15.6094C65.1297 15.873 64.8338 16.2217 64.6287 16.6553C64.4237 17.0889 64.3211 17.5635 64.3211 18.0791V19.0547C64.3211 19.7285 64.4383 20.2998 64.6727 20.7686C64.9071 21.2373 65.2323 21.5947 65.6483 21.8408C66.0702 22.0869 66.5594 22.21 67.1161 22.21C67.4793 22.21 67.8075 22.1572 68.1004 22.0518C68.3993 21.9463 68.6571 21.7881 68.8739 21.5771C69.0907 21.3662 69.2547 21.1055 69.3661 20.7949L71.1766 21.1377C71.0301 21.665 70.7723 22.1279 70.4032 22.5264C70.034 22.9248 69.5682 23.2354 69.0057 23.458C68.4491 23.6748 67.8133 23.7832 67.0985 23.7832ZM77.3064 23.7832C76.3631 23.7832 75.5486 23.5664 74.8631 23.1328C74.1775 22.6992 73.6502 22.1016 73.2811 21.3398C72.9119 20.5781 72.7273 19.7051 72.7273 18.7207C72.7273 17.7188 72.9148 16.8369 73.2898 16.0752C73.6707 15.3076 74.201 14.71 74.8807 14.2822C75.5662 13.8486 76.3689 13.6318 77.2889 13.6318C78.0389 13.6318 78.7039 13.7695 79.284 14.0449C79.8699 14.3145 80.3416 14.6982 80.699 15.1963C81.0623 15.6943 81.2762 16.2744 81.3406 16.9365H79.4773C79.4129 16.626 79.2869 16.3418 79.0994 16.084C78.9178 15.8262 78.6775 15.6211 78.3787 15.4688C78.0799 15.3164 77.7254 15.2402 77.3152 15.2402C76.782 15.2402 76.3162 15.3809 75.9178 15.6621C75.5252 15.9375 75.2176 16.333 74.9949 16.8486C74.7723 17.3643 74.6609 17.9736 74.6609 18.6768C74.6609 19.3857 74.7693 20.0039 74.9861 20.5312C75.2029 21.0586 75.5105 21.4658 75.909 21.7529C76.3133 22.0342 76.782 22.1748 77.3152 22.1748C77.866 22.1748 78.3348 22.0225 78.7215 21.7178C79.1141 21.4131 79.366 20.9971 79.4773 20.4697H81.3406C81.2762 21.1084 81.0711 21.6768 80.7254 22.1748C80.3797 22.6729 79.9168 23.0654 79.3367 23.3525C78.7566 23.6396 78.0799 23.7832 77.3064 23.7832ZM87.8045 13.7549V15.293H82.4431V13.7549H87.8045ZM83.8757 11.417H85.783V20.6982C85.783 21.1494 85.8767 21.4805 86.0642 21.6914C86.2517 21.8965 86.5535 21.999 86.9695 21.999C87.0691 21.999 87.1746 21.9932 87.2859 21.9814C87.4031 21.9697 87.5203 21.9521 87.6375 21.9287L87.9978 23.5107C87.8045 23.5752 87.5935 23.625 87.365 23.6602C87.1365 23.6953 86.908 23.7129 86.6795 23.7129C85.8298 23.7129 85.1502 23.4756 84.6404 23.001C84.1306 22.5205 83.8757 21.8818 83.8757 21.085V11.417ZM93.8376 23.7832C92.8767 23.7832 92.0446 23.5752 91.3415 23.1592C90.6384 22.7432 90.0964 22.1572 89.7155 21.4014C89.3405 20.6396 89.153 19.752 89.153 18.7383C89.153 17.7305 89.3376 16.8428 89.7068 16.0752C90.0818 15.3076 90.6062 14.71 91.28 14.2822C91.9597 13.8486 92.7566 13.6318 93.6706 13.6318C94.2273 13.6318 94.7663 13.7227 95.2878 13.9043C95.8093 14.0859 96.278 14.373 96.6941 14.7656C97.1101 15.1582 97.4382 15.668 97.6784 16.2949C97.9245 16.9219 98.0476 17.6777 98.0476 18.5625V19.248H90.2341V17.8154H97.0632L96.1755 18.29C96.1755 17.6865 96.0818 17.1533 95.8943 16.6904C95.7068 16.2275 95.4255 15.8672 95.0505 15.6094C94.6814 15.3457 94.2214 15.2139 93.6706 15.2139C93.1198 15.2139 92.6482 15.3457 92.2556 15.6094C91.8689 15.873 91.573 16.2217 91.3679 16.6553C91.1628 17.0889 91.0603 17.5635 91.0603 18.0791V19.0547C91.0603 19.7285 91.1775 20.2998 91.4118 20.7686C91.6462 21.2373 91.9714 21.5947 92.3874 21.8408C92.8093 22.0869 93.2986 22.21 93.8552 22.21C94.2185 22.21 94.5466 22.1572 94.8396 22.0518C95.1384 21.9463 95.3962 21.7881 95.613 21.5771C95.8298 21.3662 95.9939 21.1055 96.1052 20.7949L97.9157 21.1377C97.7693 21.665 97.5114 22.1279 97.1423 22.5264C96.7732 22.9248 96.3073 23.2354 95.7448 23.458C95.1882 23.6748 94.5525 23.7832 93.8376 23.7832ZM102.771 23.792C102.15 23.792 101.588 23.6777 101.084 23.4492C100.58 23.2148 100.181 22.875 99.8884 22.4297C99.5954 21.9844 99.4489 21.4424 99.4489 20.8037C99.4489 20.2471 99.5544 19.793 99.7653 19.4414C99.9821 19.084 100.272 18.7998 100.635 18.5889C100.999 18.3779 101.403 18.2197 101.848 18.1143C102.294 18.0088 102.751 17.9268 103.219 17.8682C103.811 17.8037 104.289 17.748 104.652 17.7012C105.015 17.6543 105.279 17.5811 105.443 17.4814C105.613 17.376 105.698 17.209 105.698 16.9805V16.9365C105.698 16.3799 105.54 15.9492 105.223 15.6445C104.913 15.3398 104.45 15.1875 103.835 15.1875C103.196 15.1875 102.689 15.3281 102.314 15.6094C101.945 15.8848 101.69 16.1982 101.549 16.5498L99.7477 16.1367C99.9645 15.5391 100.278 15.0586 100.688 14.6953C101.104 14.3262 101.579 14.0566 102.112 13.8867C102.651 13.7168 103.214 13.6318 103.799 13.6318C104.192 13.6318 104.608 13.6787 105.048 13.7725C105.487 13.8604 105.9 14.0273 106.287 14.2734C106.679 14.5137 106.999 14.8594 107.245 15.3105C107.491 15.7617 107.614 16.3447 107.614 17.0596V23.5811H105.742V22.2363H105.672C105.554 22.4766 105.37 22.7168 105.118 22.957C104.872 23.1973 104.555 23.3965 104.169 23.5547C103.782 23.7129 103.316 23.792 102.771 23.792ZM103.184 22.2627C103.717 22.2627 104.172 22.1602 104.547 21.9551C104.922 21.7441 105.209 21.4688 105.408 21.1289C105.607 20.7891 105.707 20.4287 105.707 20.0479V18.7734C105.636 18.8379 105.505 18.8994 105.311 18.958C105.118 19.0166 104.898 19.0664 104.652 19.1074C104.406 19.1484 104.166 19.1865 103.931 19.2217C103.697 19.251 103.501 19.2744 103.342 19.292C102.973 19.3447 102.636 19.4268 102.332 19.5381C102.027 19.6436 101.781 19.8018 101.593 20.0127C101.412 20.2178 101.321 20.4902 101.321 20.8301C101.321 21.3047 101.497 21.6621 101.848 21.9023C102.2 22.1426 102.645 22.2627 103.184 22.2627ZM109.991 23.5811V13.7549H111.81V15.3721H111.942C112.147 14.8271 112.481 14.4023 112.944 14.0977C113.413 13.7871 113.969 13.6318 114.614 13.6318C115.27 13.6318 115.818 13.7871 116.257 14.0977C116.703 14.4023 117.034 14.8271 117.251 15.3721H117.356C117.59 14.8389 117.963 14.417 118.472 14.1064C118.982 13.79 119.589 13.6318 120.292 13.6318C121.182 13.6318 121.912 13.9131 122.48 14.4756C123.048 15.0322 123.333 15.873 123.333 16.998V23.5811H121.417V17.1738C121.417 16.5059 121.235 16.0254 120.872 15.7324C120.508 15.4336 120.075 15.2842 119.571 15.2842C118.95 15.2842 118.466 15.4775 118.121 15.8643C117.781 16.2451 117.611 16.7285 117.611 17.3145V23.5811H115.695V17.0508C115.695 16.5176 115.531 16.0898 115.203 15.7676C114.875 15.4453 114.444 15.2842 113.911 15.2842C113.548 15.2842 113.211 15.3809 112.9 15.5742C112.595 15.7617 112.349 16.0254 112.162 16.3652C111.98 16.6992 111.889 17.0859 111.889 17.5254V23.5811H109.991Z" fill="black"/>
<path d="M139.721 16.6061L142.584 18.8966L145.447 16.6061" stroke="black" stroke-width="0.572626"/>
</svg>
