<svg width="64" height="64" viewBox="0 0 64 64" fill="none" xmlns="http://www.w3.org/2000/svg">
<path d="M0 22.5558C0 14.8704 0 11.0277 1.49568 8.0923C2.81131 5.51022 4.91061 3.41092 7.49269 2.09529C10.4281 0.599609 14.2708 0.599609 21.9562 0.599609H41.1679C48.8533 0.599609 52.696 0.599609 55.6314 2.09529C58.2135 3.41092 60.3128 5.51022 61.6284 8.0923C63.1241 11.0277 63.1241 14.8704 63.1241 22.5558V41.7675C63.1241 49.4529 63.1241 53.2956 61.6284 56.231C60.3128 58.8131 58.2135 60.9124 55.6314 62.2281C52.696 63.7237 48.8533 63.7237 41.1679 63.7237H21.9562C14.2708 63.7237 10.4281 63.7237 7.49269 62.2281C4.91061 60.9124 2.81131 58.8131 1.49568 56.231C0 53.2956 0 49.4529 0 41.7675V22.5558Z" fill="#4200FF"/>
<path fill-rule="evenodd" clip-rule="evenodd" d="M14.2867 31.8283C23.4877 27.8195 29.6232 25.1767 32.693 23.8999C41.4582 20.2542 43.2795 19.6209 44.4666 19.6C44.7277 19.5954 45.3115 19.6601 45.6896 19.9669C46.0089 20.226 46.0968 20.576 46.1388 20.8216C46.1808 21.0673 46.2332 21.6269 46.1916 22.0641C45.7166 27.0548 43.6613 39.166 42.6157 44.7557C42.1733 47.1209 41.3022 47.9139 40.4588 47.9915C38.6259 48.1602 37.2341 46.7802 35.4589 45.6165C32.681 43.7956 31.1117 42.6621 28.4153 40.8852C25.2991 38.8317 27.3192 37.703 29.0951 35.8585C29.5599 35.3758 37.6355 28.0304 37.7918 27.364C37.8114 27.2807 37.8295 26.97 37.645 26.806C37.4604 26.642 37.188 26.6981 36.9915 26.7427C36.7129 26.8059 32.2752 29.7391 23.6784 35.5421C22.4188 36.4071 21.2779 36.8285 20.2556 36.8064C19.1287 36.7821 16.961 36.1692 15.3494 35.6454C13.3729 35.0029 11.8019 34.6632 11.9387 33.572C12.01 33.0037 12.7926 32.4224 14.2867 31.8283Z" fill="#F2F2F2"/>
</svg>
