<svg width="64" height="64" viewBox="0 0 64 64" fill="none" xmlns="http://www.w3.org/2000/svg">
<path d="M0.124023 22.6158C0.124023 14.9304 0.124023 11.0877 1.6197 8.15224C2.93534 5.57016 5.03463 3.47086 7.61671 2.15522C10.5521 0.659546 14.3948 0.659546 22.0802 0.659546H41.1721C48.8575 0.659546 52.7001 0.659546 55.6356 2.15522C58.2177 3.47086 60.317 5.57016 61.6326 8.15224C63.1283 11.0877 63.1283 14.9304 63.1283 22.6158V41.7076C63.1283 49.393 63.1283 53.2357 61.6326 56.1711C60.317 58.7532 58.2177 60.8525 55.6356 62.1681C52.7001 63.6638 48.8574 63.6638 41.1721 63.6638H22.0802C14.3948 63.6638 10.5521 63.6638 7.61671 62.1681C5.03463 60.8525 2.93534 58.7532 1.6197 56.1711C0.124023 53.2357 0.124023 49.393 0.124023 41.7076V22.6158Z" fill="#4200FF"/>
<path d="M33.3268 42.6249C22.0161 42.6249 15.1539 34.7629 14.885 21.6984H20.6136C20.7921 31.2952 25.1503 35.3619 28.4911 36.1982V21.6984H33.9809V29.9805C37.2033 29.6227 40.5763 25.8555 41.7099 21.6984H47.1134C46.2486 26.8104 42.5767 30.5776 39.9823 32.1315C42.5788 33.3879 46.7563 36.6766 48.3675 42.6249H42.4283C41.1742 38.6487 38.1022 35.569 33.9829 35.1509V42.6249H33.3268Z" fill="#F2F2F2"/>
</svg>
