<svg width="64" height="64" viewBox="0 0 64 64" fill="none" xmlns="http://www.w3.org/2000/svg">
<path d="M0.128418 22.5558C0.128418 14.8704 0.128418 11.0277 1.6241 8.0923C2.93973 5.51022 5.03903 3.41092 7.62111 2.09529C10.5565 0.599609 14.3992 0.599609 22.0846 0.599609H41.2963C48.9817 0.599609 52.8244 0.599609 55.7598 2.09529C58.3419 3.41092 60.4412 5.51022 61.7569 8.0923C63.2525 11.0277 63.2525 14.8704 63.2525 22.5558V41.7675C63.2525 49.4529 63.2525 53.2956 61.7569 56.231C60.4412 58.8131 58.3419 60.9124 55.7598 62.2281C52.8244 63.7237 48.9817 63.7237 41.2963 63.7237H22.0846C14.3992 63.7237 10.5565 63.7237 7.62111 62.2281C5.03903 60.9124 2.93973 58.8131 1.6241 56.231C0.128418 53.2956 0.128418 49.4529 0.128418 41.7675V22.5558Z" fill="#4200FF"/>
<path d="M50.0578 22.8858C49.616 21.2266 48.3188 19.9227 46.6683 19.4785C43.6798 18.6727 31.6904 18.6727 31.6904 18.6727C31.6904 18.6727 19.7012 18.6727 16.7125 19.4785C15.062 19.9227 13.7649 21.2266 13.3231 22.8858C12.5215 25.8901 12.5215 32.162 12.5215 32.162C12.5215 32.162 12.5215 38.434 13.3231 41.4383C13.7649 43.0975 15.062 44.4014 16.7125 44.8454C19.7012 45.6513 31.6904 45.6513 31.6904 45.6513C31.6904 45.6513 43.6798 45.6513 46.6683 44.8454C48.3188 44.4014 49.616 43.0975 50.0578 41.4383C50.8594 38.434 50.8594 32.162 50.8594 32.162C50.8594 32.162 50.8562 25.8901 50.0578 22.8858Z" fill="#F2F2F2"/>
<path d="M27.853 37.8417L37.8131 32.0916L27.853 26.3416V37.8417Z" fill="#4200FF"/>
</svg>
