<svg width="39" height="28" viewBox="0 0 39 28" fill="none" xmlns="http://www.w3.org/2000/svg">
<path d="M38.0578 4.60756C37.616 2.94836 36.3188 1.64448 34.6683 1.20033C31.6798 0.394532 19.6904 0.394531 19.6904 0.394531C19.6904 0.394531 7.70116 0.394532 4.71252 1.20033C3.06199 1.64448 1.76491 2.94836 1.32308 4.60756C0.521485 7.61186 0.521484 13.8838 0.521484 13.8838C0.521484 13.8838 0.521485 20.1558 1.32308 23.1601C1.76491 24.8193 3.06199 26.1232 4.71252 26.5672C7.70116 27.3731 19.6904 27.3731 19.6904 27.3731C19.6904 27.3731 31.6798 27.3731 34.6683 26.5672C36.3188 26.1232 37.616 24.8193 38.0578 23.1601C38.8594 20.1558 38.8594 13.8838 38.8594 13.8838C38.8594 13.8838 38.8562 7.61186 38.0578 4.60756Z" fill="#F64704"/>
<path d="M15.8535 19.5636L25.8136 13.8136L15.8535 8.06348V19.5636Z" fill="white"/>
</svg>
