<svg width="199" height="199" viewBox="0 0 199 199" fill="none" xmlns="http://www.w3.org/2000/svg">
<circle cx="99.1522" cy="99.2004" r="57.7371" transform="rotate(17.5702 99.1522 99.2004)" fill="#F64704"/>
<path d="M154.196 116.63C157.46 106.32 157.764 95.3012 155.072 84.8276L143.192 87.881C145.312 96.1295 145.073 104.808 142.502 112.927L154.196 116.63Z" fill="#F2F2F2"/>
<path d="M141.768 60.2461C134.472 52.2642 125.081 46.4918 114.665 43.5863L111.445 55.1294C119.7 57.4318 127.142 62.0061 132.923 68.3313L141.768 60.2461Z" fill="#F2F2F2"/>
<path d="M86.6206 42.6159C76.0601 44.9436 66.3655 50.1902 58.6411 57.7583L67.071 66.3623C73.1839 60.373 80.8559 56.2209 89.2133 54.3789L86.6206 42.6159Z" fill="#F2F2F2"/>
<path d="M44.004 81.5704C40.7395 91.8799 40.436 102.899 43.128 113.373L54.8624 110.357C52.7353 102.081 52.9752 93.374 55.5546 85.2279L44.004 81.5704Z" fill="#F2F2F2"/>
<path d="M56.5357 138.155C63.8318 146.137 73.2228 151.909 83.6392 154.815L87.0571 142.561C78.9358 140.296 71.6139 135.795 65.9254 129.572L56.5357 138.155Z" fill="#F2F2F2"/>
<path d="M111.274 155.87C121.835 153.542 132.067 147.985 139.791 140.417L130.695 131.3C124.645 137.227 117.052 141.336 108.781 143.159L111.274 155.87Z" fill="#F2F2F2"/>
<circle cx="98.8857" cy="98.6865" r="45.0913" transform="rotate(17.5702 98.8857 98.6865)" fill="#F64704" stroke="#F2F2F2" stroke-width="1.54158"/>
<path d="M68.2124 107.594L70.3926 100.709L71.4323 101.038L70.4841 104.032L73.9129 105.118L74.861 102.124L75.9007 102.453L73.7206 109.338L72.6809 109.009L73.6305 106.01L70.2017 104.924L69.2521 107.923L68.2124 107.594ZM76.2177 110.251C75.8912 110.147 75.6145 109.994 75.3876 109.79C75.1617 109.583 75.0088 109.338 74.9289 109.055C74.849 108.772 74.8622 108.462 74.9685 108.127C75.0612 107.834 75.1922 107.613 75.3617 107.463C75.5351 107.311 75.7349 107.21 75.9611 107.16C76.1872 107.109 76.4261 107.093 76.6778 107.112C76.9294 107.131 77.1834 107.164 77.4396 107.211C77.7615 107.276 78.0218 107.326 78.2206 107.362C78.4194 107.397 78.5702 107.403 78.6731 107.378C78.78 107.351 78.8524 107.277 78.8905 107.157L78.8978 107.134C78.9905 106.841 78.979 106.588 78.8634 106.375C78.7508 106.164 78.5328 106.006 78.2093 105.904C77.8736 105.798 77.5837 105.787 77.3397 105.873C77.0998 105.956 76.9136 106.078 76.7811 106.24L75.9026 105.723C76.1161 105.444 76.3609 105.244 76.637 105.121C76.9172 104.997 77.2116 104.934 77.5202 104.933C77.8319 104.934 78.1418 104.983 78.4499 105.08C78.6563 105.146 78.8672 105.239 79.0826 105.362C79.299 105.481 79.4884 105.638 79.6508 105.832C79.8172 106.023 79.9275 106.258 79.9818 106.536C80.0361 106.815 80.0037 107.142 79.8847 107.517L78.799 110.946L77.8147 110.634L78.0386 109.927L78.0016 109.916C77.9 110.023 77.763 110.118 77.5905 110.202C77.4211 110.288 77.2216 110.34 76.992 110.359C76.7623 110.377 76.5042 110.342 76.2177 110.251ZM76.6895 109.516C76.9698 109.604 77.2257 109.626 77.457 109.581C77.6892 109.532 77.886 109.435 78.0474 109.29C78.2087 109.144 78.321 108.971 78.3845 108.771L78.5966 108.101C78.5489 108.123 78.4694 108.134 78.3579 108.132C78.2465 108.131 78.1227 108.12 77.9865 108.101C77.8503 108.082 77.7176 108.062 77.5886 108.041C77.4605 108.017 77.3534 107.997 77.2673 107.98C77.0644 107.946 76.8736 107.933 76.6949 107.941C76.5171 107.946 76.3614 107.988 76.2277 108.068C76.0981 108.145 76.005 108.273 75.9484 108.452C75.8694 108.702 75.9023 108.919 76.0471 109.104C76.192 109.289 76.4061 109.426 76.6895 109.516ZM79.7648 111.252L81.4006 106.086L83.5355 106.762C84.1168 106.949 84.5389 107.222 84.8018 107.58C85.0657 107.934 85.1288 108.324 84.9911 108.748C84.8986 109.051 84.7275 109.259 84.4778 109.373C84.2291 109.485 83.9374 109.523 83.6027 109.488C83.8229 109.585 84.0109 109.719 84.1668 109.89C84.3258 110.063 84.434 110.261 84.4916 110.486C84.5532 110.709 84.5435 110.948 84.4626 111.204C84.3757 111.478 84.2263 111.699 84.0142 111.865C83.8061 112.03 83.5511 112.129 83.2491 112.162C82.9471 112.195 82.6067 112.152 82.2277 112.032L79.7648 111.252ZM80.9752 110.705L82.4955 111.186C82.741 111.267 82.9531 111.272 83.1319 111.2C83.3116 111.124 83.4322 110.985 83.4935 110.78C83.5726 110.541 83.5628 110.331 83.464 110.151C83.3662 109.967 83.1941 109.836 82.9476 109.758L81.4273 109.277L80.9752 110.705ZM81.66 108.542L82.8614 108.923C83.1458 109.009 83.3867 109.019 83.5839 108.953C83.7852 108.885 83.9165 108.748 83.9778 108.544C84.0443 108.345 84.0135 108.164 83.8853 108.001C83.7582 107.836 83.5513 107.707 83.2648 107.617L82.0726 107.239L81.66 108.542ZM86.552 109.679L88.0538 110.155C88.6832 110.351 89.1176 110.66 89.357 111.081C89.5994 111.504 89.6436 111.963 89.4897 112.46C89.3873 112.784 89.2185 113.049 88.9835 113.256C88.7485 113.463 88.4608 113.595 88.1204 113.654C87.7809 113.709 87.4017 113.67 86.9827 113.537L84.7277 112.823L86.3635 107.657L87.3386 107.966L85.9778 112.263L87.2578 112.669C87.5443 112.759 87.8034 112.76 88.035 112.671C88.2676 112.578 88.4231 112.414 88.5013 112.178C88.5772 111.927 88.5476 111.694 88.4125 111.479C88.2774 111.263 88.0661 111.111 87.7787 111.024L86.2769 110.548L86.552 109.679ZM89.6859 114.393L91.3218 109.227L92.3199 109.543L90.6841 114.71L89.6859 114.393ZM91.6406 115.012L93.2765 109.846L94.2746 110.162L93.5884 112.329L94.0736 112.483L96.4649 110.856L97.7033 111.248L94.9143 113.136L96.0952 116.423L94.8475 116.028L93.9443 113.469L93.2928 113.263L92.6387 115.328L91.6406 115.012ZM98.5813 117.21L100.217 112.044L101.215 112.36L100.529 114.527L101.014 114.681L103.406 113.054L104.644 113.446L101.855 115.333L103.036 118.621L101.788 118.226L100.885 115.667L100.233 115.461L99.5794 117.526L98.5813 117.21ZM105.336 119.466C104.852 119.313 104.464 119.068 104.17 118.731C103.88 118.395 103.698 117.995 103.625 117.531C103.555 117.068 103.603 116.572 103.771 116.042C103.941 115.506 104.188 115.069 104.512 114.731C104.84 114.391 105.219 114.167 105.65 114.059C106.083 113.952 106.542 113.976 107.026 114.129C107.513 114.283 107.901 114.528 108.191 114.864C108.481 115.2 108.663 115.601 108.735 116.068C108.809 116.532 108.76 117.032 108.591 117.568C108.423 118.098 108.176 118.531 107.848 118.868C107.521 119.205 107.143 119.428 106.712 119.536C106.281 119.643 105.823 119.62 105.336 119.466ZM105.604 118.62C105.921 118.721 106.209 118.72 106.468 118.619C106.727 118.518 106.949 118.346 107.135 118.104C107.324 117.858 107.471 117.573 107.574 117.246C107.679 116.913 107.725 116.592 107.711 116.283C107.701 115.974 107.618 115.704 107.465 115.473C107.311 115.241 107.075 115.075 106.758 114.974C106.444 114.875 106.157 114.876 105.898 114.977C105.642 115.079 105.419 115.252 105.23 115.497C105.04 115.742 104.893 116.031 104.788 116.364C104.684 116.69 104.64 117.008 104.653 117.318C104.668 117.624 104.751 117.893 104.902 118.123C105.055 118.355 105.289 118.521 105.604 118.62ZM107.528 121.68L108.274 119.323L108.69 119.455C108.829 119.391 108.958 119.303 109.078 119.192C109.199 119.077 109.314 118.934 109.423 118.762C109.536 118.587 109.65 118.381 109.766 118.144C109.882 117.906 110.006 117.628 110.137 117.31L110.91 115.43L114.417 116.54L113.057 120.838L113.851 121.09L113.105 123.446L112.121 123.135L112.592 121.647L108.997 120.508L108.526 121.996L107.528 121.68ZM109.771 119.798L112.077 120.528L113.166 117.09L111.534 116.573L111.084 117.61C110.865 118.141 110.653 118.592 110.447 118.964C110.245 119.334 110.02 119.612 109.771 119.798ZM115.625 122.729C115.299 122.626 115.022 122.472 114.795 122.268C114.569 122.061 114.416 121.816 114.336 121.533C114.256 121.25 114.27 120.941 114.376 120.605C114.469 120.312 114.6 120.091 114.769 119.941C114.943 119.789 115.142 119.688 115.369 119.638C115.595 119.587 115.834 119.572 116.085 119.59C116.337 119.609 116.591 119.642 116.847 119.689C117.169 119.754 117.429 119.804 117.628 119.84C117.827 119.876 117.978 119.881 118.081 119.856C118.187 119.829 118.26 119.755 118.298 119.635L118.305 119.612C118.398 119.319 118.386 119.067 118.271 118.854C118.158 118.642 117.94 118.485 117.617 118.382C117.281 118.276 116.991 118.265 116.747 118.351C116.507 118.434 116.321 118.557 116.189 118.718L115.31 118.201C115.524 117.923 115.768 117.722 116.044 117.6C116.325 117.475 116.619 117.412 116.928 117.412C117.239 117.412 117.549 117.461 117.857 117.558C118.064 117.624 118.275 117.718 118.49 117.84C118.706 117.96 118.896 118.116 119.058 118.31C119.225 118.502 119.335 118.736 119.389 119.015C119.444 119.293 119.411 119.62 119.292 119.996L118.206 123.424L117.222 123.113L117.446 122.406L117.409 122.394C117.307 122.501 117.17 122.596 116.998 122.681C116.829 122.766 116.629 122.818 116.399 122.837C116.17 122.856 115.912 122.82 115.625 122.729ZM116.097 121.994C116.377 122.083 116.633 122.104 116.864 122.059C117.097 122.01 117.294 121.913 117.455 121.768C117.616 121.622 117.729 121.449 117.792 121.249L118.004 120.579C117.956 120.601 117.877 120.612 117.765 120.61C117.654 120.609 117.53 120.599 117.394 120.579C117.258 120.56 117.125 120.54 116.996 120.519C116.868 120.496 116.761 120.475 116.675 120.458C116.472 120.425 116.281 120.412 116.102 120.419C115.925 120.424 115.769 120.466 115.635 120.546C115.506 120.624 115.412 120.752 115.356 120.93C115.277 121.18 115.31 121.397 115.455 121.582C115.599 121.767 115.814 121.904 116.097 121.994Z" fill="white"/>
<path d="M83.1121 89.5382L87.7844 74.7825L90.7116 75.7094L86.0392 90.4651L83.1121 89.5382ZM79.0508 81.7615L79.9871 78.8043L94.7579 83.4814L93.8215 86.4386L79.0508 81.7615ZM110.383 75.1336L103.301 97.4999L99.9681 96.4447L105.976 77.4709L105.826 77.4233L99.4047 79.2383L100.431 75.9959L107.14 74.1069L110.383 75.1336ZM114.284 101.308C112.562 100.763 111.229 99.8452 110.283 98.5548C109.347 97.2675 108.824 95.6703 108.712 93.7631C108.613 91.849 108.949 89.6761 109.719 87.2444C110.486 84.8226 111.465 82.8591 112.658 81.3538C113.853 79.8385 115.204 78.8239 116.71 78.3098C118.229 77.7889 119.845 77.7994 121.556 78.3412C123.277 78.8863 124.604 79.8074 125.537 81.1047C126.482 82.3951 127.003 84.0023 127.098 85.9264C127.207 87.8436 126.878 90.0131 126.111 92.4348C125.341 94.8666 124.365 96.8367 123.182 98.3452C122.003 99.8436 120.661 100.85 119.155 101.364C117.649 101.878 116.025 101.859 114.284 101.308ZM115.196 98.4259C116.247 98.7586 117.239 98.7038 118.172 98.2614C119.104 97.8191 119.964 97.0177 120.75 95.8571C121.539 94.6866 122.22 93.1957 122.794 91.3844C123.37 89.5631 123.671 87.9517 123.697 86.5504C123.725 85.139 123.485 83.984 122.977 83.0854C122.472 82.1767 121.694 81.556 120.643 81.2233C119.092 80.7322 117.652 81.1075 116.323 82.3492C115.007 83.5841 113.917 85.5676 113.051 88.2996C112.478 90.1109 112.177 91.7222 112.148 93.1336C112.123 94.5349 112.364 95.6849 112.873 96.5836C113.391 97.4854 114.165 98.0995 115.196 98.4259Z" fill="white"/>
</svg>
