<svg width="243" height="243" viewBox="0 0 243 243" fill="none" xmlns="http://www.w3.org/2000/svg">
<circle cx="121.069" cy="121.129" r="70.5" transform="rotate(17.5702 121.069 121.129)" fill="#FF3DA8"/>
<path d="M188.28 142.411C192.267 129.823 192.637 116.368 189.35 103.579L174.845 107.307C177.433 117.379 177.141 127.976 174.002 137.89L188.28 142.411Z" fill="#F2F2F2"/>
<path d="M173.107 73.5637C164.198 63.8174 152.731 56.769 140.012 53.2212L136.081 67.3159C146.16 70.1273 155.247 75.7127 162.306 83.4361L173.107 73.5637Z" fill="#F2F2F2"/>
<path d="M105.768 52.0366C92.8729 54.8788 81.0353 61.2852 71.6034 70.5263L81.8967 81.0321C89.3609 73.719 98.7289 68.649 108.934 66.3998L105.768 52.0366Z" fill="#F2F2F2"/>
<path d="M53.7313 99.6016C49.7452 112.19 49.3745 125.645 52.6616 138.434L66.99 134.751C64.3927 124.646 64.6855 114.014 67.8352 104.068L53.7313 99.6016Z" fill="#F2F2F2"/>
<path d="M69.0337 168.694C77.9426 178.441 89.4095 185.489 102.128 189.037L106.302 174.075C96.3853 171.309 87.4449 165.813 80.499 158.214L69.0337 168.694Z" fill="#F2F2F2"/>
<path d="M135.872 190.325C148.767 187.483 161.261 180.698 170.693 171.457L159.585 160.324C152.198 167.562 142.927 172.579 132.828 174.805L135.872 190.325Z" fill="#F2F2F2"/>
<circle cx="120.744" cy="120.501" r="55.0588" transform="rotate(17.5702 120.744 120.501)" fill="#FF3DA8" stroke="#F2F2F2" stroke-width="1.88235"/>
<path d="M89.8563 116.301L91.1259 116.703L89.1713 122.876L89.2446 122.899L95.4818 118.082L96.6555 118.454L93.9933 126.861L92.7238 126.459L94.6748 120.298L94.5902 120.271L88.3791 125.083L87.1942 124.708L89.8563 116.301ZM99.2757 126.864L102.829 122.718L103.885 123.052L99.2521 128.526L98.338 128.237L97.7513 121.11L98.7951 121.441L99.2757 126.864ZM98.4509 121.332L96.4534 127.64L95.2629 127.263L97.2604 120.955L98.4509 121.332ZM101.165 129.132L103.162 122.824L104.347 123.199L102.35 129.507L101.165 129.132ZM107.536 129.479L111.09 125.334L112.145 125.668L107.513 131.142L106.599 130.852L106.012 123.726L107.056 124.057L107.536 129.479ZM106.711 123.948L104.714 130.256L103.523 129.879L105.521 123.571L106.711 123.948ZM109.425 131.748L111.423 125.439L112.608 125.815L110.61 132.123L109.425 131.748ZM111.579 135.024C111.393 134.97 111.23 134.904 111.089 134.826C110.951 134.753 110.848 134.685 110.781 134.623L111.396 133.719L111.474 133.768C111.761 133.946 112.026 134.024 112.269 134.001C112.515 133.984 112.774 133.799 113.047 133.447L113.331 133.078L113.054 125.956L114.368 126.372L114.409 131.773L114.476 131.795L117.624 127.403L118.939 127.819L114.081 134.141C113.856 134.434 113.615 134.664 113.36 134.831C113.103 135.002 112.827 135.103 112.531 135.134C112.239 135.169 111.921 135.133 111.579 135.024ZM123.051 132.008L122.715 133.069L119.301 131.988L119.637 130.927L123.051 132.008ZM120.806 128.411L118.809 134.719L117.618 134.342L119.616 128.034L120.806 128.411ZM124.739 129.656L122.741 135.964L121.545 135.585L123.543 129.277L124.739 129.656ZM125.652 134.986L129.885 131.285L131.205 131.703L129.208 138.012L128.012 137.633L129.464 133.046L125.241 136.756L123.915 136.336L125.913 130.028L127.103 130.404L125.652 134.986ZM131.259 132.887L131.595 131.827L136.904 133.508L136.568 134.569L134.52 133.92L132.858 139.168L131.657 138.787L133.318 133.54L131.259 132.887ZM138.11 140.973C137.493 140.778 137.001 140.475 136.634 140.065C136.267 139.655 136.039 139.169 135.948 138.606C135.862 138.041 135.922 137.433 136.128 136.782C136.333 136.135 136.632 135.603 137.025 135.185C137.422 134.769 137.88 134.491 138.399 134.354C138.924 134.214 139.479 134.236 140.066 134.422C140.424 134.535 140.751 134.703 141.049 134.926C141.347 135.149 141.589 135.428 141.777 135.765C141.964 136.101 142.071 136.495 142.098 136.947C142.128 137.399 142.054 137.909 141.874 138.477L141.734 138.918L136.718 137.329L137.01 136.41L141.394 137.798L140.727 137.922C140.85 137.535 140.898 137.173 140.872 136.838C140.846 136.503 140.738 136.214 140.55 135.972C140.367 135.728 140.098 135.55 139.745 135.438C139.391 135.326 139.061 135.315 138.756 135.404C138.454 135.495 138.193 135.659 137.973 135.895C137.754 136.132 137.591 136.416 137.486 136.747L137.288 137.373C137.151 137.806 137.11 138.196 137.165 138.545C137.221 138.893 137.357 139.189 137.574 139.431C137.795 139.675 138.084 139.854 138.441 139.967C138.674 140.041 138.896 140.074 139.105 140.065C139.318 140.058 139.516 140.009 139.698 139.918C139.88 139.827 140.038 139.693 140.173 139.516L141.266 140.104C141.064 140.413 140.805 140.657 140.487 140.838C140.169 141.019 139.807 141.124 139.4 141.152C138.999 141.178 138.569 141.119 138.11 140.973ZM142.814 136.547L143.15 135.486L148.46 137.167L148.124 138.228L146.076 137.579L144.414 142.827L143.212 142.446L144.874 137.199L142.814 136.547ZM78.5584 137.708L80.5559 131.399L81.7747 131.785L80.9367 134.432L81.5292 134.619L84.4492 132.632L85.9613 133.111L82.5557 135.416L83.9977 139.43L82.4743 138.948L81.3714 135.823L80.5758 135.571L79.7772 138.094L78.5584 137.708ZM85.8374 142.012L86.7486 139.134L87.2564 139.295C87.4262 139.216 87.5843 139.109 87.7307 138.973C87.8784 138.834 88.0186 138.659 88.1514 138.448C88.2892 138.235 88.4289 137.984 88.5706 137.693C88.7122 137.403 88.863 137.064 89.0232 136.676L89.9675 134.38L94.2501 135.736L92.5885 140.983L93.559 141.29L92.6478 144.168L91.4459 143.788L92.0212 141.971L87.6314 140.581L87.0561 142.398L85.8374 142.012ZM88.5767 139.713L91.3923 140.604L92.7215 136.406L90.7298 135.776L90.1799 137.042C89.9126 137.69 89.6533 138.241 89.4018 138.695C89.1553 139.147 88.8803 139.486 88.5767 139.713ZM96.6126 143.567C95.9957 143.372 95.5038 143.069 95.137 142.659C94.7702 142.249 94.5413 141.763 94.4505 141.2C94.3646 140.635 94.4246 140.027 94.6307 139.376C94.8356 138.729 95.1345 138.197 95.5275 137.779C95.9243 137.363 96.3825 137.086 96.902 136.948C97.4265 136.808 97.9821 136.831 98.569 137.016C98.9263 137.129 99.2539 137.297 99.5518 137.52C99.8496 137.743 100.092 138.022 100.279 138.359C100.467 138.695 100.574 139.089 100.601 139.541C100.631 139.993 100.556 140.503 100.377 141.071L100.237 141.512L95.2211 139.923L95.5123 139.004L99.8965 140.392L99.2301 140.516C99.3528 140.129 99.401 139.767 99.3747 139.432C99.3485 139.097 99.2412 138.808 99.0528 138.566C98.8694 138.322 98.601 138.144 98.2474 138.032C97.8938 137.92 97.5642 137.909 97.2585 137.998C96.9567 138.089 96.6958 138.253 96.476 138.489C96.2562 138.726 96.0939 139.01 95.9891 139.341L95.7908 139.967C95.6538 140.4 95.6129 140.79 95.6681 141.139C95.7233 141.487 95.8594 141.783 96.0764 142.026C96.2972 142.269 96.5863 142.448 96.9437 142.561C97.1769 142.635 97.3983 142.668 97.6078 142.659C97.8211 142.652 98.0187 142.603 98.2008 142.512C98.3829 142.421 98.5412 142.287 98.6758 142.11L99.7684 142.698C99.5672 143.007 99.3076 143.251 98.9896 143.432C98.6716 143.613 98.3095 143.718 97.9031 143.746C97.5017 143.772 97.0715 143.713 96.6126 143.567ZM99.0181 146.185L99.9293 143.308L100.437 143.468C100.607 143.39 100.765 143.282 100.911 143.147C101.059 143.007 101.199 142.832 101.332 142.622C101.47 142.409 101.61 142.157 101.751 141.867C101.893 141.576 102.044 141.237 102.204 140.849L103.148 138.553L107.431 139.909L105.769 145.157L106.74 145.464L105.828 148.342L104.627 147.961L105.202 146.144L100.812 144.754L100.237 146.571L99.0181 146.185ZM101.757 143.886L104.573 144.778L105.902 140.58L103.91 139.949L103.361 141.216C103.093 141.863 102.834 142.415 102.582 142.869C102.336 143.321 102.061 143.66 101.757 143.886ZM106.618 146.593L106.948 145.53L107.168 145.6C107.407 145.671 107.615 145.661 107.793 145.568C107.976 145.473 108.158 145.259 108.338 144.927C108.521 144.596 108.726 144.111 108.954 143.471L109.953 140.708L114.348 142.1L112.351 148.408L111.149 148.027L112.811 142.78L110.746 142.126L109.963 144.244C109.776 144.756 109.582 145.193 109.38 145.555C109.179 145.918 108.96 146.204 108.723 146.415C108.488 146.622 108.23 146.751 107.948 146.803C107.667 146.855 107.354 146.826 107.008 146.716L106.618 146.593ZM115.304 149.492C114.905 149.366 114.568 149.178 114.29 148.929C114.015 148.676 113.828 148.377 113.73 148.032C113.633 147.686 113.649 147.308 113.779 146.898C113.892 146.541 114.052 146.271 114.259 146.088C114.471 145.903 114.715 145.779 114.991 145.718C115.267 145.656 115.559 145.637 115.866 145.66C116.173 145.682 116.483 145.723 116.796 145.78C117.189 145.859 117.507 145.921 117.75 145.964C117.993 146.008 118.177 146.015 118.302 145.984C118.433 145.951 118.521 145.861 118.568 145.714L118.577 145.686C118.69 145.329 118.676 145.02 118.535 144.76C118.397 144.501 118.131 144.309 117.736 144.184C117.326 144.055 116.972 144.042 116.674 144.146C116.381 144.248 116.154 144.397 115.992 144.594L114.919 143.963C115.18 143.623 115.479 143.379 115.816 143.229C116.158 143.076 116.518 143 116.895 142.999C117.275 143 117.654 143.059 118.03 143.179C118.282 143.258 118.539 143.373 118.802 143.523C119.067 143.668 119.298 143.859 119.496 144.096C119.699 144.33 119.834 144.617 119.9 144.957C119.967 145.296 119.927 145.696 119.782 146.154L118.456 150.341L117.254 149.961L117.528 149.097L117.482 149.083C117.358 149.213 117.191 149.33 116.98 149.433C116.774 149.537 116.53 149.601 116.25 149.624C115.969 149.647 115.654 149.603 115.304 149.492ZM115.88 148.594C116.223 148.703 116.535 148.729 116.817 148.674C117.101 148.615 117.341 148.496 117.538 148.318C117.735 148.141 117.872 147.93 117.95 147.685L118.209 146.867C118.151 146.894 118.053 146.907 117.917 146.905C117.781 146.903 117.63 146.891 117.464 146.867C117.298 146.843 117.136 146.819 116.978 146.794C116.822 146.765 116.691 146.74 116.586 146.719C116.338 146.678 116.105 146.662 115.887 146.672C115.67 146.678 115.48 146.729 115.316 146.826C115.158 146.921 115.044 147.078 114.975 147.296C114.879 147.601 114.919 147.866 115.096 148.091C115.273 148.317 115.534 148.485 115.88 148.594ZM121.373 149.365L125.605 145.664L126.925 146.082L124.928 152.39L123.732 152.012L125.184 147.424L120.961 151.134L119.635 150.715L121.633 144.406L122.823 144.783L121.373 149.365ZM124.5 144.507C123.962 144.337 123.572 144.052 123.33 143.653C123.09 143.249 123.044 142.811 123.194 142.337L124.204 142.657C124.128 142.897 124.14 143.116 124.239 143.313C124.339 143.506 124.509 143.641 124.75 143.717C124.991 143.793 125.208 143.781 125.401 143.681C125.595 143.577 125.731 143.405 125.807 143.164L126.817 143.484C126.667 143.958 126.377 144.29 125.948 144.482C125.521 144.669 125.038 144.678 124.5 144.507ZM131.534 150.428L131.198 151.489L127.784 150.408L128.12 149.347L131.534 150.428ZM129.29 146.831L127.292 153.139L126.101 152.762L128.099 146.454L129.29 146.831ZM133.222 148.076L131.225 154.384L130.029 154.006L132.026 147.697L133.222 148.076ZM134.184 155.47C133.785 155.344 133.447 155.156 133.17 154.907C132.894 154.654 132.707 154.355 132.61 154.01C132.512 153.664 132.528 153.287 132.658 152.876C132.771 152.519 132.931 152.249 133.138 152.066C133.35 151.881 133.594 151.757 133.87 151.696C134.146 151.634 134.438 151.615 134.745 151.638C135.053 151.66 135.363 151.701 135.676 151.758C136.069 151.837 136.387 151.899 136.629 151.942C136.872 151.986 137.056 151.993 137.182 151.962C137.312 151.929 137.401 151.839 137.447 151.692L137.456 151.664C137.569 151.307 137.555 150.998 137.414 150.738C137.277 150.479 137.011 150.288 136.616 150.163C136.206 150.033 135.852 150.02 135.554 150.124C135.261 150.226 135.033 150.375 134.872 150.573L133.799 149.941C134.06 149.602 134.358 149.357 134.696 149.207C135.038 149.055 135.397 148.978 135.774 148.977C136.155 148.978 136.533 149.038 136.909 149.157C137.161 149.236 137.419 149.351 137.682 149.501C137.946 149.646 138.177 149.838 138.376 150.074C138.579 150.308 138.714 150.595 138.78 150.935C138.846 151.274 138.807 151.674 138.661 152.133L137.336 156.319L136.134 155.939L136.407 155.075L136.362 155.061C136.238 155.192 136.071 155.308 135.86 155.411C135.653 155.515 135.409 155.579 135.129 155.602C134.849 155.625 134.534 155.581 134.184 155.47ZM134.76 154.572C135.102 154.681 135.414 154.707 135.697 154.652C135.98 154.593 136.221 154.474 136.418 154.297C136.615 154.119 136.752 153.908 136.829 153.663L137.088 152.845C137.03 152.872 136.933 152.885 136.797 152.883C136.661 152.882 136.51 152.869 136.343 152.845C136.177 152.822 136.015 152.797 135.858 152.772C135.701 152.743 135.57 152.718 135.465 152.697C135.217 152.656 134.985 152.64 134.766 152.65C134.549 152.656 134.359 152.707 134.196 152.805C134.038 152.899 133.924 153.056 133.855 153.274C133.758 153.579 133.798 153.844 133.975 154.07C134.152 154.295 134.414 154.463 134.76 154.572ZM142.528 156.293L146.081 152.148L147.136 152.482L142.504 157.956L141.59 157.666L141.003 150.54L142.047 150.87L142.528 156.293ZM141.703 150.761L139.705 157.07L138.515 156.693L140.512 150.384L141.703 150.761ZM144.417 158.562L146.414 152.253L147.599 152.629L145.602 158.937L144.417 158.562Z" fill="white"/>
<path d="M109.698 112.087L115.404 94.0692L118.978 95.2009L113.273 113.218L109.698 112.087ZM104.739 102.591L105.883 98.98L123.919 104.691L122.775 108.302L104.739 102.591ZM133.39 121.908C131.716 121.378 130.314 120.584 129.183 119.527C128.069 118.462 127.292 117.241 126.854 115.865C126.419 114.477 126.406 113.055 126.814 111.597L130.81 112.863C130.54 114.054 130.755 115.178 131.456 116.234C132.157 117.289 133.168 118.026 134.487 118.444C135.538 118.776 136.544 118.826 137.506 118.593C138.467 118.359 139.313 117.895 140.044 117.198C140.78 116.49 141.321 115.586 141.669 114.486C142.018 113.387 142.091 112.327 141.889 111.309C141.691 110.278 141.25 109.379 140.565 108.611C139.893 107.847 139.013 107.293 137.926 106.948C137.095 106.685 136.217 106.569 135.294 106.599C134.374 106.617 133.586 106.771 132.929 107.06L129.309 105.309L135.208 92.0312L150.219 96.7846L149.099 100.322L137.533 96.6599L134.252 104.03L134.398 104.077C135.09 103.718 135.928 103.513 136.912 103.461C137.913 103.401 138.926 103.534 139.952 103.859C141.614 104.385 142.967 105.251 144.011 106.455C145.071 107.651 145.757 109.051 146.069 110.656C146.385 112.248 146.264 113.924 145.707 115.684C145.146 117.456 144.241 118.911 142.994 120.048C141.75 121.174 140.294 121.909 138.625 122.255C136.968 122.604 135.223 122.488 133.39 121.908Z" fill="white"/>
</svg>
