<svg width="237" height="237" viewBox="0 0 237 237" fill="none" xmlns="http://www.w3.org/2000/svg">
<circle cx="118.188" cy="118.137" r="70.5" transform="rotate(-15 118.188 118.137)" fill="#4200FF"/>
<path d="M186.286 99.8904C182.868 87.1359 175.938 75.5975 166.283 66.5895L156.066 77.5403C163.669 84.6347 169.128 93.7218 171.819 103.767L186.286 99.8904Z" fill="#F2F2F2"/>
<path d="M136.435 50.0395C123.68 46.6219 110.223 46.855 97.594 50.7123L101.868 64.7067C111.876 61.6501 122.541 61.4654 132.648 64.1736L136.435 50.0395Z" fill="#F2F2F2"/>
<path d="M68.0982 68.1481C58.7612 77.485 52.2341 89.2565 49.2603 102.122L63.5905 105.434C65.9438 95.2529 71.1092 85.9372 78.4983 78.5482L68.0982 68.1481Z" fill="#F2F2F2"/>
<path d="M49.8507 136.246C53.2682 149 60.1991 160.539 69.8538 169.547L79.9463 158.73C72.3175 151.612 66.8411 142.495 64.1407 132.417L49.8507 136.246Z" fill="#F2F2F2"/>
<path d="M99.9419 186.235C112.696 189.652 126.154 189.419 138.783 185.562L134.245 170.706C124.399 173.714 113.907 173.895 103.962 171.231L99.9419 186.235Z" fill="#F2F2F2"/>
<path d="M167.912 168.483C177.249 159.146 184.125 146.702 187.099 133.836L171.745 130.434C169.416 140.51 164.304 149.729 156.991 157.042L167.912 168.483Z" fill="#F2F2F2"/>
<circle cx="117.576" cy="117.784" r="55.0588" transform="rotate(-15 117.576 117.784)" fill="#4200FF" stroke="#F2F2F2" stroke-width="1.88235"/>
<path d="M104.526 135.917L102.244 127.399L103.53 127.055L104.523 130.759L108.765 129.622L107.772 125.918L109.058 125.573L111.341 134.091L110.054 134.436L109.06 130.726L104.818 131.862L105.813 135.573L104.526 135.917ZM114.51 133.389C114.106 133.497 113.721 133.521 113.353 133.46C112.984 133.396 112.666 133.244 112.398 133.005C112.13 132.767 111.94 132.44 111.829 132.024C111.732 131.662 111.721 131.349 111.797 131.083C111.876 130.813 112.015 130.578 112.214 130.377C112.414 130.176 112.649 130.003 112.92 129.857C113.192 129.711 113.475 129.578 113.769 129.458C114.143 129.313 114.444 129.193 114.672 129.1C114.9 129.006 115.059 128.912 115.148 128.819C115.241 128.721 115.267 128.597 115.227 128.448L115.219 128.42C115.122 128.058 114.944 127.805 114.685 127.662C114.43 127.518 114.103 127.5 113.702 127.607C113.287 127.718 112.982 127.898 112.787 128.146C112.595 128.39 112.484 128.638 112.453 128.891L111.209 128.937C111.246 128.51 111.367 128.143 111.57 127.835C111.776 127.523 112.038 127.265 112.355 127.061C112.676 126.857 113.027 126.703 113.408 126.601C113.664 126.533 113.943 126.491 114.245 126.475C114.546 126.456 114.844 126.492 115.138 126.585C115.435 126.673 115.703 126.842 115.942 127.093C116.181 127.343 116.362 127.701 116.487 128.166L117.624 132.408L116.406 132.734L116.171 131.86L116.126 131.872C116.091 132.048 116.013 132.237 115.891 132.437C115.773 132.636 115.602 132.821 115.378 132.991C115.154 133.162 114.865 133.294 114.51 133.389ZM114.512 132.322C114.859 132.23 115.137 132.084 115.345 131.885C115.552 131.682 115.691 131.453 115.761 131.197C115.832 130.942 115.834 130.69 115.767 130.442L115.545 129.613C115.511 129.667 115.436 129.73 115.32 129.802C115.204 129.874 115.07 129.945 114.917 130.014C114.764 130.084 114.615 130.15 114.468 130.214C114.321 130.274 114.197 130.324 114.098 130.363C113.867 130.461 113.662 130.573 113.483 130.699C113.303 130.82 113.171 130.966 113.086 131.136C113.003 131.301 112.992 131.494 113.051 131.715C113.134 132.024 113.31 132.226 113.581 132.321C113.851 132.416 114.162 132.416 114.512 132.322ZM118.818 132.088L117.106 125.696L119.747 124.989C120.468 124.799 121.082 124.802 121.588 124.998C122.092 125.189 122.413 125.549 122.55 126.076C122.654 126.448 122.615 126.775 122.433 127.057C122.251 127.334 121.975 127.565 121.608 127.75C121.898 127.705 122.18 127.719 122.453 127.793C122.73 127.866 122.972 127.999 123.179 128.193C123.389 128.382 123.536 128.634 123.621 128.95C123.712 129.29 123.703 129.615 123.594 129.926C123.488 130.232 123.291 130.501 123.002 130.734C122.713 130.967 122.334 131.146 121.865 131.271L118.818 132.088ZM119.704 130.729L121.585 130.225C121.891 130.147 122.112 130.012 122.249 129.821C122.384 129.625 122.416 129.402 122.345 129.151C122.269 128.853 122.121 128.644 121.901 128.523C121.68 128.398 121.417 128.377 121.112 128.459L119.231 128.963L119.704 130.729ZM118.987 128.054L120.474 127.655C120.823 127.558 121.078 127.41 121.237 127.212C121.399 127.009 121.445 126.782 121.374 126.532C121.311 126.283 121.16 126.117 120.922 126.034C120.682 125.947 120.385 125.951 120.03 126.046L118.555 126.441L118.987 128.054ZM124.769 126.008L126.627 125.51C127.403 125.298 128.053 125.33 128.577 125.607C129.104 125.882 129.452 126.326 129.62 126.939C129.727 127.339 129.728 127.723 129.622 128.09C129.516 128.457 129.307 128.783 128.995 129.067C128.682 129.347 128.266 129.556 127.748 129.695L124.958 130.443L123.246 124.051L124.452 123.728L125.877 129.045L127.46 128.62C127.815 128.525 128.082 128.356 128.261 128.112C128.44 127.863 128.492 127.592 128.417 127.298C128.33 126.99 128.147 126.77 127.866 126.637C127.585 126.503 127.268 126.486 126.915 126.585L125.057 127.083L124.769 126.008ZM131.092 128.799L129.38 122.407L130.615 122.077L132.327 128.468L131.092 128.799ZM133.511 128.151L131.798 121.76L133.033 121.429L133.751 124.11L134.352 123.949L135.743 120.703L137.275 120.292L135.646 124.068L139.022 126.674L137.478 127.088L134.867 125.049L134.061 125.265L134.746 127.82L133.511 128.151ZM95.4998 156.426C95.3141 156.48 95.1409 156.512 94.9803 156.523C94.8245 156.536 94.7015 156.534 94.6113 156.517L94.6431 155.424L94.735 155.424C95.0728 155.419 95.338 155.342 95.5308 155.193C95.7283 155.046 95.8473 154.75 95.8877 154.307L95.9287 153.842L91.8606 147.99L93.1927 147.633L96.1345 152.163L96.2031 152.145L96.4913 146.749L97.8233 146.392L97.1329 154.334C97.1008 154.702 97.022 155.026 96.8965 155.305C96.7721 155.587 96.5937 155.821 96.3613 156.006C96.1338 156.193 95.8467 156.333 95.4998 156.426ZM100.222 152.6L98.5094 146.208L103.712 144.814L105.424 151.206L104.207 151.532L102.782 146.215L99.9979 146.961L101.422 152.278L100.222 152.6ZM107.254 153.277L104.901 144.496L106.101 144.174L106.38 145.215L106.483 145.187C106.524 145.033 106.587 144.851 106.673 144.64C106.764 144.428 106.913 144.224 107.123 144.029C107.331 143.83 107.631 143.678 108.024 143.573C108.538 143.435 109.03 143.442 109.5 143.594C109.973 143.745 110.392 144.035 110.756 144.465C111.121 144.894 111.396 145.456 111.581 146.149C111.765 146.835 111.809 147.457 111.713 148.013C111.616 148.566 111.402 149.03 111.069 149.405C110.739 149.776 110.315 150.03 109.797 150.169C109.412 150.272 109.078 150.292 108.796 150.229C108.516 150.161 108.283 150.058 108.095 149.921C107.91 149.782 107.762 149.656 107.65 149.543L107.582 149.562L108.489 152.946L107.254 153.277ZM109.245 149.183C109.615 149.084 109.897 148.902 110.091 148.638C110.286 148.373 110.401 148.055 110.436 147.682C110.473 147.304 110.435 146.902 110.321 146.475C110.207 146.052 110.043 145.689 109.827 145.388C109.612 145.086 109.354 144.871 109.054 144.743C108.754 144.615 108.418 144.601 108.044 144.701C107.682 144.798 107.402 144.973 107.204 145.227C107.006 145.476 106.886 145.786 106.847 146.156C106.81 146.521 106.851 146.927 106.971 147.372C107.09 147.818 107.26 148.194 107.481 148.498C107.701 148.803 107.961 149.017 108.259 149.141C108.562 149.264 108.891 149.278 109.245 149.183ZM115.225 148.727C114.821 148.835 114.436 148.859 114.068 148.798C113.699 148.733 113.381 148.582 113.113 148.343C112.845 148.104 112.655 147.777 112.544 147.362C112.447 147 112.436 146.686 112.512 146.421C112.591 146.15 112.73 145.915 112.929 145.715C113.129 145.514 113.364 145.341 113.636 145.194C113.907 145.048 114.19 144.915 114.485 144.795C114.858 144.65 115.159 144.531 115.387 144.437C115.615 144.343 115.774 144.25 115.864 144.156C115.956 144.058 115.982 143.935 115.942 143.786L115.934 143.757C115.837 143.395 115.659 143.143 115.4 143C115.145 142.856 114.818 142.837 114.418 142.945C114.002 143.056 113.697 143.236 113.502 143.484C113.31 143.727 113.199 143.976 113.169 144.229L111.925 144.274C111.961 143.848 112.082 143.481 112.285 143.173C112.491 142.86 112.753 142.602 113.07 142.399C113.391 142.194 113.742 142.041 114.124 141.939C114.379 141.87 114.658 141.828 114.96 141.813C115.261 141.793 115.559 141.83 115.853 141.923C116.15 142.01 116.418 142.18 116.657 142.43C116.896 142.681 117.077 143.039 117.202 143.504L118.339 147.745L117.121 148.072L116.887 147.197L116.841 147.209C116.807 147.386 116.728 147.574 116.606 147.775C116.488 147.974 116.317 148.158 116.093 148.329C115.869 148.499 115.58 148.632 115.225 148.727ZM115.228 147.66C115.574 147.567 115.852 147.421 116.06 147.222C116.267 147.02 116.406 146.791 116.476 146.535C116.547 146.279 116.549 146.027 116.482 145.78L116.26 144.951C116.226 145.005 116.151 145.068 116.035 145.14C115.92 145.212 115.785 145.282 115.632 145.352C115.479 145.421 115.33 145.488 115.184 145.552C115.036 145.612 114.913 145.661 114.813 145.7C114.582 145.799 114.377 145.911 114.198 146.036C114.018 146.158 113.886 146.304 113.801 146.474C113.718 146.639 113.707 146.832 113.766 147.053C113.849 147.362 114.025 147.563 114.296 147.658C114.566 147.753 114.877 147.754 115.228 147.66ZM119.534 147.425L117.821 141.034L120.462 140.326C121.183 140.137 121.797 140.14 122.303 140.335C122.808 140.527 123.128 140.886 123.266 141.413C123.369 141.786 123.33 142.113 123.149 142.394C122.966 142.672 122.691 142.903 122.323 143.087C122.613 143.042 122.895 143.057 123.168 143.13C123.445 143.203 123.687 143.337 123.894 143.53C124.104 143.719 124.251 143.972 124.336 144.288C124.427 144.627 124.418 144.952 124.309 145.263C124.204 145.569 124.006 145.839 123.717 146.071C123.428 146.304 123.049 146.483 122.581 146.609L119.534 147.425ZM120.419 146.067L122.3 145.563C122.606 145.485 122.827 145.35 122.964 145.158C123.099 144.962 123.132 144.739 123.06 144.489C122.985 144.191 122.836 143.981 122.616 143.86C122.395 143.736 122.132 143.714 121.827 143.796L119.946 144.3L120.419 146.067ZM119.703 143.391L121.189 142.993C121.539 142.895 121.793 142.747 121.952 142.549C122.115 142.347 122.16 142.12 122.089 141.869C122.026 141.621 121.876 141.455 121.637 141.372C121.397 141.285 121.1 141.289 120.746 141.384L119.271 141.779L119.703 143.391ZM125.165 145.916L124.871 144.843L125.094 144.783C125.333 144.715 125.503 144.594 125.603 144.42C125.706 144.241 125.744 143.964 125.717 143.587C125.693 143.209 125.605 142.69 125.452 142.028L124.807 139.162L129.26 137.969L130.973 144.36L129.755 144.686L128.331 139.37L126.238 139.93L126.719 142.136C126.837 142.668 126.909 143.141 126.934 143.555C126.959 143.969 126.929 144.329 126.843 144.633C126.756 144.934 126.608 145.182 126.399 145.377C126.19 145.572 125.91 145.717 125.559 145.811L125.165 145.916ZM134.941 143.438C134.316 143.605 133.739 143.615 133.209 143.467C132.679 143.319 132.225 143.032 131.845 142.607C131.468 142.177 131.192 141.632 131.015 140.973C130.839 140.317 130.805 139.708 130.911 139.144C131.021 138.579 131.258 138.099 131.622 137.704C131.988 137.303 132.469 137.023 133.064 136.864C133.426 136.767 133.792 136.732 134.163 136.759C134.534 136.786 134.889 136.891 135.228 137.074C135.567 137.257 135.869 137.532 136.135 137.898C136.404 138.262 136.616 138.733 136.77 139.308L136.889 139.754L131.807 141.116L131.557 140.184L135.999 138.994L135.505 139.457C135.4 139.065 135.246 138.734 135.043 138.466C134.84 138.197 134.595 138.012 134.306 137.91C134.02 137.802 133.698 137.797 133.339 137.893C132.981 137.989 132.697 138.157 132.488 138.397C132.282 138.636 132.15 138.914 132.093 139.232C132.035 139.55 132.051 139.876 132.141 140.212L132.311 140.846C132.428 141.284 132.604 141.636 132.838 141.9C133.072 142.164 133.346 142.339 133.66 142.427C133.977 142.514 134.317 142.508 134.679 142.411C134.915 142.348 135.119 142.257 135.291 142.137C135.467 142.016 135.607 141.868 135.712 141.693C135.816 141.518 135.877 141.32 135.896 141.099L137.133 141.006C137.13 141.375 137.043 141.721 136.872 142.044C136.701 142.368 136.452 142.651 136.125 142.894C135.801 143.132 135.406 143.313 134.941 143.438ZM141.835 137.448L142.123 138.523L138.664 139.45L138.376 138.375L141.835 137.448ZM138.007 135.625L139.72 142.016L138.514 142.34L136.801 135.948L138.007 135.625ZM141.992 134.557L143.704 140.949L142.492 141.273L140.78 134.882L141.992 134.557ZM145.631 138.558L147.206 133.16L148.543 132.802L150.256 139.193L149.044 139.518L147.799 134.87L146.237 140.27L144.894 140.63L143.181 134.239L144.387 133.915L145.631 138.558ZM155.253 137.854L153.825 132.526L152.287 132.938C151.926 133.039 151.667 133.201 151.51 133.422C151.353 133.644 151.313 133.892 151.39 134.165C151.459 134.437 151.609 134.631 151.841 134.749C152.071 134.863 152.356 134.874 152.696 134.783L154.668 134.255L154.938 135.261L152.965 135.79C152.493 135.916 152.064 135.947 151.679 135.883C151.298 135.818 150.975 135.665 150.711 135.426C150.45 135.185 150.269 134.868 150.168 134.474C150.057 134.075 150.057 133.703 150.169 133.359C150.281 133.014 150.493 132.714 150.805 132.459C151.115 132.201 151.514 132.006 152.002 131.875L154.706 131.15L156.419 137.542L155.253 137.854ZM151.056 138.979L151.992 135.266L153.267 134.925L152.325 138.639L151.056 138.979Z" fill="white"/>
<path d="M104.37 116.469L99.4783 98.2137L103.1 97.2433L107.991 115.499L104.37 116.469ZM95.0787 111.136L94.0984 107.478L112.372 102.581L113.353 106.24L95.0787 111.136ZM119.272 114.367L118.466 111.358L125.218 99.1191C125.93 97.8138 126.502 96.6787 126.933 95.7138C127.374 94.7332 127.659 93.8408 127.788 93.0365C127.93 92.2288 127.893 91.4226 127.678 90.6179C127.429 89.6893 126.998 88.9488 126.386 88.3964C125.773 87.8439 125.048 87.4877 124.209 87.3277C123.369 87.1677 122.479 87.2138 121.539 87.4659C120.548 87.7313 119.742 88.1661 119.121 88.7704C118.497 89.3623 118.08 90.0844 117.871 90.9367C117.67 91.7734 117.703 92.6869 117.968 93.6773L113.994 94.7422C113.543 93.0585 113.532 91.4823 113.961 90.0138C114.403 88.542 115.205 87.2786 116.369 86.2237C117.542 85.1531 118.982 84.3889 120.691 83.9311C122.437 83.4634 124.065 83.3987 125.575 83.737C127.086 84.0754 128.372 84.7393 129.433 85.7288C130.491 86.7059 131.219 87.9373 131.617 89.423C131.892 90.4506 131.969 91.5048 131.847 92.5857C131.738 93.6633 131.369 94.9365 130.741 96.4052C130.122 97.8583 129.198 99.6585 127.968 101.806L124.014 109.036L124.074 109.259L136.516 105.925L137.472 109.49L119.272 114.367Z" fill="white"/>
</svg>
