<svg width="278" height="376" viewBox="0 0 278 376" fill="none" xmlns="http://www.w3.org/2000/svg">
<g clip-path="url(#clip0_741_1211)">
<rect x="0.00976562" y="0.0424805" width="277.622" height="375.512" rx="24.0713" fill="#F2F2F2"/>
<path d="M90.0109 67.5088V34.1004H101.939C104.525 34.1004 106.67 34.5787 108.374 35.5354C110.078 36.4771 111.356 37.7701 112.208 39.4143C113.06 41.0436 113.487 42.8822 113.487 44.9301C113.487 46.9779 113.06 48.824 112.208 50.4683C111.356 52.0976 110.071 53.3906 108.352 54.3472C106.648 55.2889 104.495 55.7598 101.894 55.7598H93.7329V51.4997H101.424C103.083 51.4997 104.421 51.2156 105.437 50.6476C106.468 50.0796 107.216 49.3023 107.679 48.3158C108.158 47.3143 108.397 46.1857 108.397 44.9301C108.397 43.6595 108.158 42.5384 107.679 41.5668C107.216 40.5803 106.468 39.8104 105.437 39.2574C104.406 38.7043 103.06 38.4278 101.401 38.4278H95.0558V67.5088H90.0109ZM127.253 68.0245C124.907 68.0245 122.851 67.4864 121.087 66.4101C119.339 65.3339 117.978 63.8241 117.007 61.8809C116.05 59.9377 115.572 57.6806 115.572 55.1096C115.572 52.5086 116.05 50.2366 117.007 48.2933C117.978 46.3352 119.339 44.818 121.087 43.7417C122.851 42.6655 124.907 42.1274 127.253 42.1274C129.615 42.1274 131.671 42.6655 133.419 43.7417C135.168 44.818 136.529 46.3352 137.5 48.2933C138.472 50.2366 138.958 52.5086 138.958 55.1096C138.958 57.6806 138.472 59.9377 137.5 61.8809C136.529 63.8241 135.168 65.3339 133.419 66.4101C131.671 67.4864 129.615 68.0245 127.253 68.0245ZM127.253 63.9213C128.793 63.9213 130.064 63.5177 131.065 62.7105C132.067 61.9033 132.807 60.8346 133.285 59.5042C133.778 58.1589 134.025 56.694 134.025 55.1096C134.025 53.4952 133.778 52.0154 133.285 50.67C132.807 49.3247 132.067 48.2485 131.065 47.4413C130.064 46.6341 128.793 46.2305 127.253 46.2305C125.729 46.2305 124.466 46.6341 123.464 47.4413C122.478 48.2485 121.738 49.3247 121.244 50.67C120.751 52.0154 120.505 53.4952 120.505 55.1096C120.505 56.694 120.751 58.1589 121.244 59.5042C121.738 60.8346 122.478 61.9033 123.464 62.7105C124.466 63.5177 125.729 63.9213 127.253 63.9213ZM140.482 67.5088L140.46 63.2935H141.334C142.276 63.2786 143.016 63.002 143.554 62.4639C144.107 61.9108 144.518 60.9317 144.787 59.5266C145.071 58.1215 145.258 56.1335 145.348 53.5625L145.796 42.4413H163.263V67.5088H158.487V46.6566H150.281L149.877 55.1992C149.787 57.262 149.586 59.0633 149.272 60.6029C148.958 62.1425 148.494 63.428 147.881 64.4594C147.269 65.4759 146.484 66.2382 145.527 66.7464C144.571 67.2547 143.405 67.5088 142.029 67.5088H140.482ZM171.559 51.0961H178.846C181.895 51.0811 184.242 51.836 185.886 53.3607C187.546 54.8853 188.383 56.851 188.398 59.2576C188.398 60.8271 188.024 62.2322 187.277 63.4729C186.529 64.7135 185.445 65.7001 184.025 66.4325C182.605 67.15 180.879 67.5088 178.846 67.5088H167.904V42.4413H172.635V63.2935H178.846C180.236 63.2935 181.38 62.9348 182.276 62.2173C183.173 61.4848 183.629 60.5431 183.644 59.3921C183.629 58.1813 183.173 57.1948 182.276 56.4324C181.38 55.6701 180.236 55.2964 178.846 55.3114H171.559V51.0961Z" fill="black"/>
<path d="M29.9816 308.513H36.1252L46.7531 334.477H47.1343L57.7846 308.513H64.0179V341.921H59.0851V317.751H58.7712L48.8832 341.877H44.8921L35.1162 317.728H34.8023L34.8023 341.921H29.9816L29.9816 308.513ZM76.305 342.46C74.7205 342.46 73.2855 342.168 72 341.585C70.7145 340.987 69.698 340.12 68.9506 338.984C68.2032 337.848 67.8296 336.465 67.8296 334.836C67.8296 333.416 68.0986 332.258 68.6367 331.361C69.1898 330.449 69.9297 329.724 70.8565 329.186C71.7833 328.648 72.8147 328.244 73.9507 327.975C75.0867 327.706 76.2527 327.497 77.4485 327.347C78.9582 327.183 80.1765 327.041 81.1032 326.921C82.03 326.802 82.7027 326.615 83.1212 326.361C83.5547 326.092 83.7714 325.666 83.7714 325.083V324.971C83.7714 323.55 83.3678 322.452 82.5606 321.675C81.7684 320.897 80.5875 320.509 79.018 320.509C77.3887 320.509 76.0957 320.867 75.139 321.585C74.1973 322.287 73.5471 323.087 73.1884 323.984L68.5919 322.93C69.145 321.405 69.9447 320.18 70.991 319.253C72.0523 318.311 73.2631 317.624 74.6233 317.19C75.9985 316.757 77.4335 316.54 78.9283 316.54C79.9298 316.54 80.9911 316.66 82.1122 316.899C83.2333 317.123 84.2871 317.549 85.2737 318.177C86.2752 318.79 87.0898 319.672 87.7177 320.823C88.3455 321.973 88.6594 323.461 88.6594 325.284V341.921H83.8835V338.491H83.7042C83.4052 339.104 82.9343 339.717 82.2916 340.329C81.6638 340.942 80.8566 341.451 79.87 341.854C78.8835 342.258 77.6951 342.46 76.305 342.46ZM77.3588 338.558C78.7191 338.558 79.8775 338.297 80.8342 337.773C81.7908 337.235 82.5233 336.533 83.0315 335.666C83.5397 334.799 83.7938 333.879 83.7938 332.908V329.657C83.6145 329.821 83.2781 329.978 82.7849 330.128C82.2916 330.277 81.731 330.404 81.1032 330.509C80.4754 330.613 79.8626 330.711 79.2646 330.8C78.6667 330.875 78.166 330.935 77.7624 330.98C76.8207 331.114 75.9612 331.323 75.1839 331.607C74.4066 331.876 73.7788 332.28 73.3005 332.818C72.8371 333.341 72.6054 334.036 72.6054 334.903C72.6054 336.114 73.0538 337.026 73.9507 337.639C74.8476 338.252 75.9836 338.558 77.3588 338.558ZM105.274 316.854V320.778H91.1258V316.854H105.274ZM94.9823 341.921V313.939C94.9823 312.384 95.3261 311.091 96.0137 310.06C96.7162 309.014 97.6281 308.236 98.7492 307.728C99.8852 307.205 101.103 306.943 102.404 306.943C103.405 306.943 104.257 307.026 104.96 307.19C105.663 307.355 106.178 307.497 106.507 307.616L105.341 311.562C105.117 311.488 104.825 311.405 104.467 311.316C104.123 311.226 103.689 311.181 103.166 311.181C101.985 311.181 101.133 311.48 100.61 312.078C100.087 312.661 99.8254 313.513 99.8254 314.634V341.921H94.9823ZM108.368 341.921V316.854H113.211V341.921H108.368ZM110.812 312.997C109.96 312.997 109.235 312.713 108.637 312.145C108.039 311.577 107.74 310.897 107.74 310.105C107.74 309.298 108.039 308.61 108.637 308.042C109.235 307.474 109.96 307.19 110.812 307.19C111.649 307.19 112.367 307.474 112.965 308.042C113.577 308.61 113.884 309.298 113.884 310.105C113.884 310.897 113.577 311.577 112.965 312.145C112.367 312.713 111.649 312.997 110.812 312.997ZM125.14 342.46C123.555 342.46 122.12 342.168 120.835 341.585C119.549 340.987 118.533 340.12 117.785 338.984C117.038 337.848 116.664 336.465 116.664 334.836C116.664 333.416 116.933 332.258 117.471 331.361C118.024 330.449 118.764 329.724 119.691 329.186C120.618 328.648 121.649 328.244 122.785 327.975C123.921 327.706 125.087 327.497 126.283 327.347C127.793 327.183 129.011 327.041 129.938 326.921C130.865 326.802 131.537 326.615 131.956 326.361C132.389 326.092 132.606 325.666 132.606 325.083V324.971C132.606 323.55 132.202 322.452 131.395 321.675C130.603 320.897 129.422 320.509 127.853 320.509C126.223 320.509 124.93 320.867 123.974 321.585C123.032 322.287 122.382 323.087 122.023 323.984L117.426 322.93C117.98 321.405 118.779 320.18 119.826 319.253C120.887 318.311 122.098 317.624 123.458 317.19C124.833 316.757 126.268 316.54 127.763 316.54C128.764 316.54 129.826 316.66 130.947 316.899C132.068 317.123 133.122 317.549 134.108 318.177C135.11 318.79 135.924 319.672 136.552 320.823C137.18 321.973 137.494 323.461 137.494 325.284V341.921H132.718V338.491H132.539C132.24 339.104 131.769 339.717 131.126 340.329C130.498 340.942 129.691 341.451 128.705 341.854C127.718 342.258 126.53 342.46 125.14 342.46ZM126.193 338.558C127.554 338.558 128.712 338.297 129.669 337.773C130.625 337.235 131.358 336.533 131.866 335.666C132.374 334.799 132.628 333.879 132.628 332.908V329.657C132.449 329.821 132.113 329.978 131.619 330.128C131.126 330.277 130.566 330.404 129.938 330.509C129.31 330.613 128.697 330.711 128.099 330.8C127.501 330.875 127.001 330.935 126.597 330.98C125.655 331.114 124.796 331.323 124.018 331.607C123.241 331.876 122.613 332.28 122.135 332.818C121.672 333.341 121.44 334.036 121.44 334.903C121.44 336.114 121.888 337.026 122.785 337.639C123.682 338.252 124.818 338.558 126.193 338.558ZM152.763 341.921V308.513H157.808V337.594H172.943V341.921H152.763ZM187.181 342.437C184.729 342.437 182.607 341.906 180.813 340.845C179.019 339.784 177.636 338.289 176.665 336.361C175.708 334.418 175.23 332.153 175.23 329.567C175.23 326.996 175.701 324.731 176.642 322.773C177.599 320.815 178.937 319.29 180.656 318.199C182.39 317.093 184.423 316.54 186.755 316.54C188.175 316.54 189.55 316.772 190.88 317.235C192.211 317.698 193.406 318.431 194.468 319.432C195.529 320.434 196.366 321.734 196.979 323.334C197.607 324.933 197.921 326.861 197.921 329.119V330.867H177.988V327.213H195.409L193.145 328.423C193.145 326.884 192.906 325.524 192.427 324.343C191.949 323.162 191.231 322.243 190.275 321.585C189.333 320.912 188.16 320.576 186.755 320.576C185.349 320.576 184.146 320.912 183.145 321.585C182.158 322.258 181.403 323.147 180.88 324.253C180.357 325.359 180.095 326.57 180.095 327.885V330.374C180.095 332.093 180.394 333.551 180.992 334.746C181.59 335.942 182.42 336.854 183.481 337.482C184.557 338.11 185.805 338.424 187.225 338.424C188.152 338.424 188.989 338.289 189.737 338.02C190.499 337.751 191.157 337.347 191.71 336.809C192.263 336.271 192.681 335.606 192.965 334.814L197.584 335.688C197.211 337.033 196.553 338.214 195.611 339.231C194.669 340.247 193.481 341.039 192.046 341.607C190.626 342.161 189.004 342.437 187.181 342.437ZM208.593 342.46C207.009 342.46 205.574 342.168 204.288 341.585C203.003 340.987 201.986 340.12 201.239 338.984C200.492 337.848 200.118 336.465 200.118 334.836C200.118 333.416 200.387 332.258 200.925 331.361C201.478 330.449 202.218 329.724 203.145 329.186C204.072 328.648 205.103 328.244 206.239 327.975C207.375 327.706 208.541 327.497 209.737 327.347C211.247 327.183 212.465 327.041 213.392 326.921C214.318 326.802 214.991 326.615 215.41 326.361C215.843 326.092 216.06 325.666 216.06 325.083V324.971C216.06 323.55 215.656 322.452 214.849 321.675C214.057 320.897 212.876 320.509 211.306 320.509C209.677 320.509 208.384 320.867 207.427 321.585C206.486 322.287 205.835 323.087 205.477 323.984L200.88 322.93C201.433 321.405 202.233 320.18 203.279 319.253C204.341 318.311 205.551 317.624 206.912 317.19C208.287 316.757 209.722 316.54 211.217 316.54C212.218 316.54 213.279 316.66 214.401 316.899C215.522 317.123 216.575 317.549 217.562 318.177C218.564 318.79 219.378 319.672 220.006 320.823C220.634 321.973 220.948 323.461 220.948 325.284V341.921H216.172V338.491H215.993C215.694 339.104 215.223 339.717 214.58 340.329C213.952 340.942 213.145 341.451 212.158 341.854C211.172 342.258 209.983 342.46 208.593 342.46ZM209.647 338.558C211.007 338.558 212.166 338.297 213.123 337.773C214.079 337.235 214.812 336.533 215.32 335.666C215.828 334.799 216.082 333.879 216.082 332.908V329.657C215.903 329.821 215.567 329.978 215.073 330.128C214.58 330.277 214.019 330.404 213.392 330.509C212.764 330.613 212.151 330.711 211.553 330.8C210.955 330.875 210.454 330.935 210.051 330.98C209.109 331.114 208.25 331.323 207.472 331.607C206.695 331.876 206.067 332.28 205.589 332.818C205.125 333.341 204.894 334.036 204.894 334.903C204.894 336.114 205.342 337.026 206.239 337.639C207.136 338.252 208.272 338.558 209.647 338.558ZM234.961 342.415C232.928 342.415 231.12 341.899 229.535 340.868C227.951 339.821 226.71 338.334 225.813 336.406C224.916 334.462 224.468 332.146 224.468 329.455C224.468 326.734 224.924 324.41 225.836 322.482C226.747 320.553 227.996 319.081 229.58 318.065C231.165 317.048 232.958 316.54 234.961 316.54C236.531 316.54 237.786 316.802 238.728 317.325C239.685 317.833 240.425 318.431 240.948 319.118C241.486 319.806 241.897 320.411 242.181 320.935H242.473V308.513H247.316V341.921H242.585V338.02H242.181C241.897 338.543 241.479 339.149 240.926 339.836C240.372 340.524 239.618 341.129 238.661 341.652C237.719 342.161 236.486 342.415 234.961 342.415ZM236.015 338.267C237.42 338.267 238.609 337.893 239.58 337.146C240.552 336.398 241.284 335.359 241.778 334.029C242.286 332.699 242.54 331.159 242.54 329.41C242.54 327.661 242.293 326.136 241.8 324.836C241.307 323.521 240.574 322.504 239.603 321.787C238.631 321.054 237.435 320.688 236.015 320.688C234.55 320.688 233.332 321.069 232.36 321.831C231.389 322.594 230.656 323.633 230.163 324.948C229.67 326.264 229.423 327.751 229.423 329.41C229.423 331.084 229.67 332.594 230.163 333.939C230.656 335.27 231.389 336.323 232.36 337.101C233.347 337.878 234.565 338.267 236.015 338.267Z" fill="black"/>
<path opacity="0.9" d="M-18.7099 157.441C-18.0363 146.299 -8.45774 137.812 2.6844 138.486L225.64 151.964C233.002 152.409 236.683 152.632 239.59 153.818C245.068 156.054 249.194 160.711 250.753 166.418C251.581 169.447 251.358 173.128 250.913 180.49V180.49C250.691 184.171 250.58 186.012 249.986 187.465C248.869 190.204 246.54 192.267 243.687 193.047C242.172 193.46 240.332 193.349 236.651 193.127L0.245152 178.835C-10.897 178.161 -19.3835 168.583 -18.7099 157.441V157.441Z" fill="#CFBEFF"/>
<path d="M-4.02065 163.901L-3.94666 162.677L0.954221 157.923C1.5293 157.366 2.00452 156.881 2.37989 156.467C2.75553 156.048 3.03886 155.651 3.22989 155.276C3.42572 154.897 3.53651 154.494 3.56227 154.068C3.59187 153.578 3.49963 153.147 3.28555 152.775C3.07601 152.403 2.7754 152.107 2.38373 151.888C1.99206 151.668 1.54463 151.544 1.04144 151.513C0.506519 151.481 0.0328834 151.564 -0.379468 151.762C-0.787013 151.955 -1.1115 152.243 -1.35294 152.624C-1.58984 153.006 -1.72433 153.462 -1.75639 153.992L-3.36115 153.895C-3.31182 153.079 -3.08039 152.374 -2.66687 151.78C-2.25334 151.187 -1.71203 150.737 -1.04296 150.432C-0.369345 150.127 0.373184 149.999 1.18463 150.048C2.00061 150.097 2.71324 150.313 3.32253 150.696C3.93182 151.078 4.39785 151.573 4.72063 152.179C5.0434 152.786 5.18313 153.447 5.13983 154.163C5.10887 154.675 4.98565 155.171 4.77019 155.649C4.55954 156.123 4.20947 156.646 3.71997 157.217C3.23528 157.783 2.56812 158.471 1.71847 159.28L-1.6117 162.436L-1.61827 162.545L4.85516 162.936L4.76473 164.432L-4.02065 163.901ZM9.15934 164.807C8.82388 164.787 8.54328 164.649 8.31755 164.394C8.09181 164.14 7.98908 163.844 8.00936 163.509C8.02964 163.174 8.16717 162.893 8.42196 162.667C8.67674 162.441 8.97187 162.339 9.30732 162.359C9.64278 162.379 9.92338 162.517 10.1491 162.772C10.3749 163.026 10.4776 163.322 10.4573 163.657C10.4439 163.879 10.3749 164.08 10.2503 164.259C10.1303 164.438 9.9739 164.579 9.78119 164.681C9.59328 164.779 9.386 164.821 9.15934 164.807ZM20.5928 165.58L20.6882 164.003L21.5585 164.055C21.894 164.075 22.179 164.027 22.4136 163.909C22.6528 163.791 22.8534 163.633 23.0156 163.433C23.1824 163.234 23.3225 163.024 23.4359 162.804L23.6847 162.3L19.515 151.347L21.3374 151.457L24.6496 160.338L28.6812 151.901L30.4764 152.01L24.9567 163.387C24.74 163.811 24.498 164.201 24.2307 164.558C23.968 164.915 23.6212 165.194 23.1905 165.396C22.7642 165.598 22.1975 165.677 21.4904 165.634L20.5928 165.58ZM40.2213 152.162L40.9781 153.19C40.6421 153.479 40.2619 153.673 39.8375 153.77C39.413 153.867 38.937 153.913 38.4095 153.909C37.882 153.904 37.2956 153.896 36.6503 153.884C35.9233 153.868 35.312 154.008 34.8162 154.306C34.3205 154.603 33.9248 155.053 33.6292 155.653C33.3335 156.254 33.1223 157.001 32.9955 157.895L33.1315 157.903C33.5245 157.271 34.0432 156.82 34.6874 156.55C35.3316 156.28 36.0118 156.166 36.7281 156.209C37.5441 156.259 38.2669 156.493 38.8967 156.914C39.5265 157.334 40.0091 157.93 40.3447 158.701C40.6803 159.472 40.8149 160.406 40.7486 161.503C40.6825 162.595 40.4306 163.526 39.9928 164.296C39.5595 165.066 38.9808 165.645 38.2566 166.034C37.5373 166.418 36.7107 166.582 35.7769 166.525C34.843 166.469 34.0381 166.2 33.362 165.717C32.6862 165.231 32.1797 164.54 31.8424 163.646C31.5055 162.748 31.3759 161.655 31.4537 160.367L31.5212 159.252C31.6618 156.927 32.1627 155.187 33.0241 154.034C33.8901 152.88 35.1199 152.331 36.7135 152.387C37.2767 152.402 37.7779 152.428 38.2171 152.464C38.6563 152.499 39.0405 152.502 39.3699 152.472C39.6994 152.442 39.9831 152.339 40.2213 152.162ZM35.864 165.084C36.4941 165.122 37.0454 164.996 37.5179 164.706C37.995 164.416 38.3733 163.991 38.6529 163.43C38.9328 162.865 39.0964 162.19 39.1438 161.406C39.1899 160.644 39.1044 159.988 38.8874 159.438C38.6749 158.889 38.3483 158.459 37.9074 158.151C37.4666 157.842 36.9265 157.668 36.2873 157.629C35.8204 157.601 35.3963 157.655 35.015 157.791C34.6337 157.928 34.3022 158.142 34.0207 158.434C33.7391 158.727 33.5124 159.091 33.3405 159.526C33.1731 159.962 33.0676 160.465 33.024 161.036C32.9533 162.205 33.1709 163.158 33.677 163.894C34.183 164.63 34.912 165.026 35.864 165.084ZM44.6436 164.468L50.1639 156.694L52.0134 156.806L51.382 167.25L49.7773 167.153L50.2656 159.075L44.7726 166.851L42.8958 166.737L43.5272 156.293L45.132 156.39L44.6436 164.468ZM53.4411 158.394L53.5315 156.898L62.0177 157.411L61.9272 158.907L58.5001 158.699L57.9592 167.648L56.3544 167.551L56.8954 158.602L53.4411 158.394ZM65.5171 161.417L68.5091 161.598C69.733 161.672 70.6504 162.039 71.2611 162.699C71.8718 163.359 72.1483 164.165 72.0908 165.117C72.053 165.743 71.8735 166.303 71.5524 166.798C71.2316 167.288 70.781 167.668 70.2005 167.938C69.6203 168.203 68.9222 168.311 68.1062 168.261L63.7271 167.997L64.3585 157.552L65.9633 157.649L65.4223 166.598L68.1966 166.765C68.8313 166.804 69.3627 166.668 69.791 166.357C70.2193 166.046 70.4493 165.628 70.4811 165.102C70.5145 164.549 70.3378 164.085 69.9509 163.712C69.564 163.338 69.0533 163.132 68.4186 163.093L65.4267 162.913L65.5171 161.417ZM78.4192 171.888L78.6905 167.4L79.5608 167.452C79.7873 167.243 79.9855 167.014 80.1552 166.765C80.325 166.516 80.4772 166.218 80.6119 165.871C80.7514 165.52 80.8774 165.091 80.99 164.584C81.1028 164.072 81.2131 163.453 81.3206 162.727L81.9242 158.614L88.5608 159.015L88.0198 167.964L89.6246 168.061L89.3533 172.549L87.7485 172.452L87.9294 169.46L80.2048 168.993L80.0239 171.985L78.4192 171.888ZM81.3832 167.563L86.4151 167.867L86.8656 160.414L83.3297 160.2L82.8982 162.822C82.7188 163.908 82.5206 164.854 82.3036 165.66C82.0865 166.465 81.7797 167.1 81.3832 167.563ZM93.412 167.416L98.9322 159.642L100.782 159.754L100.15 170.199L98.5456 170.102L99.034 162.023L93.541 169.799L91.6642 169.686L92.2956 159.241L93.9004 159.338L93.412 167.416ZM102.598 167.671L104.312 167.775C104.319 168.248 104.511 168.619 104.886 168.888C105.265 169.156 105.77 169.31 106.4 169.348C107.044 169.387 107.603 169.289 108.077 169.053C108.551 168.814 108.806 168.397 108.841 167.803C108.863 167.454 108.795 167.145 108.638 166.876C108.482 166.603 108.252 166.384 107.948 166.22C107.643 166.056 107.278 165.961 106.852 165.936L105.057 165.827L105.144 164.386L106.939 164.494C107.579 164.533 108.059 164.416 108.38 164.144C108.706 163.873 108.882 163.52 108.908 163.084C108.937 162.617 108.794 162.233 108.48 161.932C108.166 161.627 107.706 161.456 107.098 161.419C106.486 161.382 105.968 161.489 105.543 161.741C105.119 161.989 104.882 162.327 104.833 162.756L103.147 162.654C103.199 162.093 103.401 161.607 103.754 161.196C104.106 160.781 104.571 160.468 105.148 160.257C105.725 160.041 106.377 159.956 107.102 160C107.836 160.044 108.465 160.212 108.989 160.503C109.518 160.789 109.916 161.162 110.184 161.619C110.457 162.072 110.577 162.576 110.544 163.129C110.508 163.718 110.314 164.184 109.961 164.527C109.608 164.869 109.178 165.103 108.67 165.227L108.663 165.335C109.056 165.386 109.39 165.534 109.667 165.778C109.948 166.018 110.159 166.324 110.301 166.697C110.442 167.065 110.5 167.466 110.473 167.902C110.435 168.536 110.232 169.079 109.863 169.53C109.495 169.976 109.006 170.311 108.397 170.533C107.787 170.751 107.102 170.837 106.34 170.791C105.601 170.746 104.947 170.586 104.377 170.311C103.807 170.031 103.362 169.665 103.044 169.213C102.73 168.758 102.582 168.244 102.598 167.671ZM115.61 171.379C114.948 171.339 114.355 171.178 113.831 170.896C113.307 170.609 112.901 170.219 112.612 169.723C112.324 169.224 112.2 168.634 112.241 167.954C112.277 167.356 112.425 166.878 112.683 166.52C112.941 166.158 113.274 165.883 113.681 165.693C114.089 165.504 114.533 165.372 115.016 165.296C115.503 165.216 115.991 165.16 116.48 165.125C117.119 165.082 117.638 165.052 118.034 165.035C118.436 165.014 118.731 164.957 118.918 164.863C119.11 164.77 119.214 164.595 119.23 164.336L119.233 164.282C119.274 163.611 119.122 163.078 118.777 162.685C118.437 162.291 117.897 162.072 117.158 162.027C116.392 161.981 115.781 162.112 115.326 162.421C114.871 162.73 114.543 163.07 114.343 163.44L112.853 162.804C113.163 162.186 113.556 161.714 114.03 161.388C114.51 161.057 115.024 160.838 115.572 160.73C116.124 160.618 116.664 160.578 117.19 160.609C117.525 160.63 117.908 160.694 118.338 160.802C118.773 160.905 119.187 161.092 119.58 161.361C119.978 161.631 120.298 162.021 120.54 162.532C120.782 163.042 120.878 163.712 120.828 164.542L120.412 171.423L118.807 171.326L118.893 169.912L118.811 169.907C118.689 170.127 118.493 170.359 118.223 170.602C117.954 170.845 117.603 171.044 117.17 171.2C116.738 171.356 116.218 171.416 115.61 171.379ZM115.942 169.952C116.577 169.99 117.119 169.898 117.57 169.675C118.024 169.452 118.375 169.151 118.621 168.77C118.871 168.389 119.01 167.981 119.036 167.546L119.125 166.077C119.052 166.154 118.898 166.22 118.662 166.274C118.432 166.324 118.166 166.365 117.863 166.397C117.566 166.424 117.276 166.447 116.992 166.467C116.714 166.482 116.488 166.495 116.314 166.508C115.894 166.537 115.499 166.602 115.129 166.702C114.763 166.798 114.462 166.96 114.226 167.187C113.994 167.409 113.866 167.725 113.841 168.133C113.807 168.69 113.988 169.124 114.383 169.435C114.783 169.741 115.303 169.913 115.942 169.952ZM125.089 169.331L130.609 161.557L132.459 161.669L131.827 172.114L130.223 172.017L130.711 163.938L125.218 171.714L123.341 171.601L123.973 161.156L125.577 161.253L125.089 169.331ZM129.759 158.012L131.255 158.102C131.211 158.836 130.92 159.422 130.384 159.858C129.848 160.294 129.145 160.486 128.275 160.433C127.418 160.382 126.75 160.107 126.271 159.609C125.796 159.112 125.58 158.496 125.625 157.762L127.121 157.852C127.099 158.206 127.178 158.522 127.357 158.801C127.54 159.081 127.87 159.235 128.346 159.264C128.822 159.293 129.17 159.179 129.39 158.924C129.615 158.669 129.738 158.365 129.759 158.012ZM142.117 166.757L142.026 168.253L136.26 167.905L136.351 166.409L142.117 166.757ZM137.003 161.944L136.371 172.388L134.767 172.291L135.398 161.847L137.003 161.944ZM143.612 162.343L142.981 172.788L141.376 172.691L142.007 162.246L143.612 162.343ZM150.277 173.447C149.271 173.386 148.416 173.112 147.713 172.623C147.015 172.131 146.493 171.471 146.147 170.645C145.806 169.815 145.668 168.865 145.733 167.795C145.797 166.725 146.049 165.794 146.489 165.001C146.933 164.205 147.52 163.599 148.25 163.183C148.985 162.764 149.824 162.582 150.767 162.639C151.311 162.672 151.843 162.795 152.362 163.009C152.882 163.222 153.347 163.546 153.757 163.98C154.168 164.41 154.482 164.966 154.7 165.648C154.919 166.33 154.998 167.158 154.939 168.133L154.898 168.813L146.847 168.326L146.931 166.939L153.35 167.327C153.386 166.738 153.3 166.205 153.092 165.728C152.889 165.252 152.58 164.867 152.165 164.573C151.755 164.28 151.26 164.116 150.68 164.081C150.041 164.042 149.478 164.167 148.992 164.457C148.511 164.741 148.13 165.128 147.85 165.616C147.571 166.104 147.413 166.636 147.379 167.212L147.323 168.137C147.275 168.925 147.371 169.602 147.609 170.167C147.853 170.728 148.211 171.166 148.683 171.481C149.156 171.792 149.716 171.967 150.365 172.006C150.786 172.031 151.171 171.995 151.518 171.898C151.87 171.796 152.177 171.633 152.441 171.408C152.705 171.178 152.916 170.886 153.074 170.532L154.598 171.061C154.403 171.577 154.101 172.022 153.692 172.398C153.283 172.769 152.788 173.049 152.208 173.236C151.628 173.42 150.985 173.49 150.277 173.447ZM156.82 177.555L157.688 163.194L159.238 163.288L159.138 164.947L159.328 164.959C159.457 164.784 159.634 164.563 159.86 164.295C160.09 164.022 160.409 163.786 160.817 163.588C161.23 163.386 161.776 163.305 162.456 163.346C163.335 163.399 164.097 163.666 164.742 164.146C165.386 164.626 165.872 165.281 166.199 166.111C166.527 166.941 166.657 167.904 166.591 169.001C166.524 170.107 166.278 171.055 165.853 171.843C165.428 172.627 164.869 173.222 164.175 173.626C163.482 174.025 162.701 174.198 161.83 174.146C161.159 174.105 160.629 173.962 160.239 173.715C159.849 173.464 159.554 173.189 159.354 172.89C159.154 172.587 159.001 172.337 158.894 172.139L158.758 172.131L158.424 177.652L156.82 177.555ZM158.95 168.512C158.902 169.301 158.976 170.003 159.17 170.62C159.365 171.233 159.675 171.722 160.098 172.089C160.522 172.451 161.056 172.652 161.7 172.691C162.371 172.732 162.941 172.589 163.412 172.262C163.887 171.931 164.256 171.471 164.519 170.882C164.787 170.289 164.943 169.62 164.988 168.877C165.032 168.142 164.959 167.474 164.768 166.871C164.582 166.263 164.272 165.774 163.84 165.402C163.412 165.026 162.858 164.817 162.178 164.776C161.526 164.737 160.967 164.869 160.503 165.173C160.039 165.472 159.676 165.91 159.413 166.486C159.151 167.057 158.997 167.732 158.95 168.512ZM171.784 174.775C171.122 174.735 170.529 174.574 170.004 174.292C169.48 174.005 169.074 173.615 168.785 173.119C168.497 172.62 168.373 172.03 168.415 171.35C168.451 170.751 168.598 170.274 168.856 169.916C169.115 169.554 169.448 169.278 169.855 169.089C170.262 168.9 170.707 168.768 171.189 168.692C171.676 168.612 172.164 168.555 172.653 168.521C173.293 168.478 173.811 168.448 174.208 168.431C174.609 168.41 174.904 168.353 175.092 168.259C175.284 168.166 175.388 167.991 175.403 167.732L175.407 167.678C175.447 167.007 175.295 166.474 174.95 166.08C174.61 165.687 174.071 165.468 173.332 165.423C172.566 165.377 171.955 165.508 171.499 165.817C171.044 166.126 170.716 166.466 170.516 166.836L169.026 166.2C169.337 165.582 169.729 165.11 170.204 164.783C170.683 164.453 171.197 164.234 171.745 164.126C172.298 164.014 172.837 163.974 173.363 164.005C173.698 164.026 174.081 164.09 174.511 164.198C174.947 164.301 175.361 164.488 175.754 164.757C176.152 165.027 176.471 165.417 176.714 165.928C176.956 166.438 177.052 167.108 177.002 167.938L176.586 174.819L174.981 174.722L175.066 173.308L174.985 173.303C174.862 173.523 174.666 173.755 174.397 173.998C174.127 174.241 173.776 174.44 173.344 174.596C172.911 174.752 172.391 174.811 171.784 174.775ZM172.116 173.348C172.75 173.386 173.293 173.294 173.743 173.071C174.198 172.848 174.548 172.546 174.794 172.165C175.045 171.785 175.183 171.377 175.209 170.942L175.298 169.473C175.225 169.55 175.071 169.616 174.836 169.67C174.605 169.72 174.339 169.761 174.037 169.792C173.739 169.82 173.449 169.843 173.166 169.863C172.887 169.878 172.661 169.891 172.488 169.904C172.067 169.933 171.672 169.998 171.302 170.098C170.937 170.194 170.636 170.356 170.399 170.583C170.167 170.805 170.039 171.12 170.014 171.528C169.981 172.086 170.161 172.52 170.557 172.831C170.957 173.137 171.476 173.309 172.116 173.348Z" fill="black"/>
<path d="M193.498 170.872L192.943 180.051L191.832 179.984L192.316 171.97L192.262 171.967L189.931 173.32L190 172.19L192.387 170.805L193.498 170.872ZM195.229 178.3L195.284 177.386L199.704 171.247L200.367 171.287L200.282 172.704L199.833 172.677L196.494 177.315L196.49 177.387L201.922 177.715L201.862 178.701L195.229 178.3ZM199.436 180.443L199.566 178.283L199.592 177.857L199.991 171.265L201.048 171.329L200.494 180.507L199.436 180.443ZM204.035 179.543C203.814 179.53 203.629 179.439 203.481 179.271C203.332 179.103 203.264 178.909 203.277 178.688C203.291 178.466 203.382 178.281 203.549 178.133C203.717 177.984 203.912 177.916 204.133 177.93C204.354 177.943 204.539 178.034 204.688 178.201C204.837 178.369 204.904 178.564 204.891 178.785C204.882 178.931 204.837 179.064 204.755 179.182C204.675 179.3 204.572 179.393 204.445 179.46C204.321 179.524 204.185 179.552 204.035 179.543ZM204.316 174.9C204.095 174.886 203.91 174.796 203.761 174.628C203.613 174.46 203.545 174.265 203.558 174.044C203.572 173.823 203.662 173.638 203.83 173.49C203.998 173.341 204.193 173.273 204.414 173.286C204.635 173.3 204.82 173.39 204.969 173.558C205.117 173.726 205.185 173.921 205.172 174.142C205.163 174.288 205.117 174.42 205.035 174.538C204.956 174.657 204.853 174.749 204.726 174.817C204.602 174.881 204.466 174.909 204.316 174.9ZM210.181 171.881L209.626 181.059L208.514 180.992L208.999 172.979L208.945 172.976L206.614 174.328L206.682 173.199L209.069 171.814L210.181 171.881ZM215.795 172.22L215.24 181.399L214.129 181.332L214.613 173.318L214.559 173.315L212.228 174.667L212.297 173.538L214.684 172.153L215.795 172.22Z" fill="#4200FF"/>
<path fill-rule="evenodd" clip-rule="evenodd" d="M238.829 174.011C239.026 174.226 239.012 174.561 238.797 174.758L230.073 182.765C229.964 182.864 229.819 182.914 229.673 182.902C229.527 182.891 229.392 182.818 229.3 182.703L225.883 178.376C225.702 178.147 225.742 177.815 225.971 177.634C226.2 177.453 226.532 177.492 226.713 177.721L229.777 181.601L238.082 173.979C238.297 173.782 238.631 173.796 238.829 174.011Z" fill="#4200FF"/>
<path opacity="0.9" d="M-11.4286 114.269C-10.755 103.127 -1.17649 94.6403 9.96565 95.3139L228.266 108.511C235.628 108.956 239.309 109.179 242.216 110.365C247.694 112.601 251.82 117.257 253.379 122.965C254.207 125.993 253.984 129.674 253.539 137.037V137.037C253.316 140.718 253.205 142.558 252.612 144.012C251.494 146.751 249.166 148.814 246.312 149.593C244.798 150.007 242.957 149.896 239.276 149.673L7.52639 135.663C-3.61576 134.99 -12.1022 125.411 -11.4286 114.269V114.269Z" fill="#CFBEFF"/>
<path d="M10.1072 107.166L9.26536 121.092L7.579 120.99L8.31401 108.832L8.23241 108.827L4.69602 110.879L4.79961 109.166L8.42089 107.064L10.1072 107.166ZM16.2167 121.622C15.8812 121.601 15.6007 121.464 15.3749 121.209C15.1492 120.954 15.0465 120.659 15.0667 120.324C15.087 119.988 15.2245 119.708 15.4793 119.482C15.7341 119.256 16.0292 119.153 16.3647 119.174C16.7002 119.194 16.9807 119.331 17.2065 119.586C17.4322 119.841 17.5349 120.136 17.5147 120.472C17.5012 120.694 17.4322 120.894 17.3077 121.073C17.1876 121.253 17.0313 121.393 16.8386 121.495C16.6507 121.593 16.4434 121.635 16.2167 121.622ZM27.6502 122.395L27.7455 120.817L28.6159 120.87C28.9514 120.89 29.2364 120.841 29.471 120.724C29.7101 120.606 29.9108 120.448 30.073 120.248C30.2398 120.049 30.3798 119.839 30.4933 119.618L30.7421 119.115L26.5724 108.161L28.3948 108.272L31.707 117.153L35.7386 108.716L37.5337 108.824L32.014 120.202C31.7973 120.625 31.5553 121.016 31.2881 121.373C31.0253 121.73 30.6786 122.009 30.2478 122.21C29.8216 122.412 29.2549 122.492 28.5477 122.449L27.6502 122.395ZM47.2787 108.976L48.0355 110.005C47.6995 110.294 47.3193 110.487 46.8948 110.584C46.4704 110.682 45.9944 110.728 45.4669 110.723C44.9394 110.719 44.353 110.711 43.7076 110.699C42.9807 110.682 42.3693 110.823 41.8736 111.12C41.3779 111.418 40.9822 111.867 40.6865 112.468C40.3909 113.069 40.1796 113.816 40.0528 114.709L40.1888 114.717C40.5819 114.086 41.1005 113.635 41.7448 113.365C42.389 113.094 43.0692 112.981 43.7855 113.024C44.6014 113.073 45.3243 113.308 45.9541 113.728C46.5838 114.149 47.0665 114.744 47.4021 115.515C47.7376 116.286 47.8723 117.22 47.806 118.317C47.7399 119.41 47.488 120.341 47.0502 121.111C46.6169 121.881 46.0382 122.46 45.314 122.848C44.5947 123.232 43.7681 123.396 42.8342 123.34C41.9004 123.283 41.0954 123.014 40.4194 122.532C39.7436 122.045 39.2371 121.355 38.8998 120.461C38.5629 119.562 38.4333 118.469 38.5111 117.182L38.5785 116.067C38.7191 113.741 39.2201 112.002 40.0815 110.848C40.9475 109.695 42.1772 109.146 43.7709 109.201C44.3341 109.217 44.8353 109.243 45.2744 109.278C45.7136 109.314 46.0979 109.317 46.4273 109.287C46.7567 109.257 47.0405 109.153 47.2787 108.976ZM42.9214 121.898C43.5515 121.936 44.1028 121.811 44.5753 121.521C45.0523 121.231 45.4307 120.806 45.7103 120.245C45.9901 119.679 46.1538 119.004 46.2012 118.22C46.2472 117.459 46.1618 116.803 45.9448 116.253C45.7323 115.703 45.4057 115.274 44.9648 114.965C44.5239 114.656 43.9839 114.483 43.3447 114.444C42.8778 114.416 42.4537 114.47 42.0724 114.606C41.691 114.742 41.3596 114.956 41.078 115.249C40.7965 115.541 40.5697 115.905 40.3978 116.341C40.2304 116.776 40.1249 117.28 40.0813 117.85C40.0106 119.02 40.2283 119.972 40.7343 120.708C41.2404 121.444 41.9694 121.841 42.9214 121.898ZM51.701 121.283L57.2212 113.509L59.0708 113.62L58.4394 124.065L56.8346 123.968L57.323 115.89L51.83 123.665L49.9532 123.552L50.5846 113.107L52.1894 113.204L51.701 121.283ZM60.4984 115.208L60.5889 113.712L69.075 114.225L68.9846 115.721L65.5575 115.514L65.0165 124.463L63.4118 124.366L63.9527 115.417L60.4984 115.208ZM72.5745 118.231L75.5664 118.412C76.7904 118.486 77.7077 118.853 78.3184 119.513C78.9291 120.174 79.2057 120.98 79.1482 121.932C79.1103 122.557 78.9309 123.118 78.6098 123.612C78.289 124.102 77.8383 124.482 77.2578 124.752C76.6776 125.017 75.9795 125.125 75.1636 125.076L70.7845 124.811L71.4159 114.367L73.0206 114.464L72.4797 123.412L75.254 123.58C75.8887 123.618 76.4201 123.482 76.8484 123.171C77.2767 122.861 77.5067 122.442 77.5385 121.916C77.5719 121.363 77.3952 120.9 77.0083 120.526C76.6214 120.152 76.1106 119.946 75.476 119.908L72.4841 119.727L72.5745 118.231ZM95.2374 115.807C95.1974 115.113 94.8989 114.558 94.3416 114.142C93.7844 113.726 93.0842 113.493 92.241 113.442C91.6245 113.404 91.079 113.472 90.6046 113.643C90.1346 113.815 89.7599 114.067 89.4804 114.401C89.2055 114.735 89.0546 115.124 89.0277 115.568C89.0052 115.94 89.0743 116.265 89.2349 116.543C89.4004 116.817 89.6183 117.05 89.8887 117.244C90.1593 117.433 90.4453 117.594 90.7467 117.726C91.0484 117.853 91.3264 117.959 91.5807 118.043L92.972 118.509C93.3289 118.626 93.7244 118.782 94.1586 118.976C94.5972 119.171 95.0118 119.426 95.4022 119.741C95.7975 120.051 96.1153 120.439 96.3556 120.904C96.5959 121.369 96.6963 121.928 96.6569 122.581C96.6114 123.333 96.3731 124.001 95.942 124.585C95.5154 125.169 94.915 125.617 94.1409 125.93C93.3712 126.243 92.4515 126.367 91.3817 126.302C90.3843 126.242 89.5305 126.029 88.8201 125.663C88.1142 125.297 87.5702 124.814 87.1879 124.213C86.8102 123.612 86.6172 122.929 86.6088 122.164L88.3496 122.27C88.3631 122.798 88.5136 123.244 88.801 123.607C89.0933 123.966 89.4723 124.244 89.9382 124.44C90.4088 124.633 90.9207 124.745 91.4737 124.779C92.1175 124.818 92.7017 124.749 93.2266 124.571C93.7517 124.389 94.1753 124.119 94.4972 123.761C94.8194 123.398 94.9959 122.963 95.0266 122.455C95.0545 121.993 94.9481 121.608 94.7072 121.303C94.4664 120.997 94.1406 120.741 93.73 120.534C93.3194 120.327 92.8734 120.141 92.392 119.975L90.708 119.382C89.639 119.004 88.8047 118.505 88.2051 117.886C87.6055 117.268 87.3341 116.489 87.3908 115.551C87.438 114.771 87.6899 114.104 88.1465 113.549C88.608 112.99 89.2066 112.571 89.9423 112.293C90.6828 112.01 91.4973 111.895 92.3858 111.949C93.2834 112.003 94.0715 112.212 94.7502 112.577C95.4291 112.936 95.9559 113.405 96.3304 113.982C96.7095 114.56 96.8892 115.201 96.8693 115.905L95.2374 115.807ZM100.043 112.603L102.056 112.725L106.089 124.571L106.253 124.58L111.684 113.307L113.697 113.428L112.855 127.355L111.277 127.259L111.917 116.679L111.781 116.67L106.79 126.988L105.266 126.896L101.554 116.052L101.418 116.044L100.779 126.624L99.201 126.529L100.043 112.603ZM117.078 113.633L119.091 113.755L123.125 125.6L123.288 125.61L128.719 114.337L130.732 114.458L129.89 128.384L128.313 128.289L128.952 117.708L128.816 117.7L123.825 128.018L122.302 127.926L118.589 117.082L118.453 117.074L117.814 127.654L116.236 127.559L117.078 113.633ZM147.397 127.941L146.935 132.418L145.276 132.317L145.457 129.325L144.097 129.243L144.187 127.747L147.397 127.941ZM133.685 118.131L135.29 118.228L134.749 127.177L138.693 127.415L139.234 118.467L140.839 118.564L140.298 127.512L144.242 127.751L144.783 118.802L146.387 118.899L145.756 129.344L133.054 128.576L133.685 118.131ZM151.388 127.309L156.908 119.535L158.758 119.647L158.127 130.091L156.522 129.994L157.01 121.916L151.517 129.692L149.64 129.578L150.272 119.134L151.877 119.231L151.388 127.309ZM161.066 130.269L161.697 119.825L163.302 119.922L163.027 124.464L164.088 124.528L168.116 120.213L170.183 120.338L165.663 125.115L169.606 130.785L167.539 130.66L164.378 126.047L162.937 125.96L162.671 130.366L161.066 130.269ZM174.409 131.321C173.747 131.281 173.154 131.12 172.63 130.838C172.106 130.552 171.699 130.161 171.411 129.666C171.123 129.166 170.999 128.576 171.04 127.896C171.076 127.298 171.224 126.82 171.482 126.463C171.74 126.101 172.073 125.825 172.48 125.636C172.888 125.447 173.332 125.314 173.815 125.239C174.302 125.159 174.79 125.102 175.279 125.068C175.918 125.025 176.436 124.995 176.833 124.978C177.235 124.956 177.53 124.899 177.717 124.806C177.909 124.713 178.013 124.537 178.029 124.279L178.032 124.224C178.073 123.553 177.921 123.021 177.576 122.627C177.236 122.233 176.696 122.014 175.957 121.97C175.191 121.923 174.58 122.055 174.125 122.364C173.67 122.673 173.342 123.013 173.142 123.383L171.652 122.747C171.962 122.129 172.355 121.656 172.829 121.33C173.309 121 173.823 120.78 174.371 120.673C174.923 120.56 175.463 120.52 175.988 120.552C176.324 120.572 176.707 120.636 177.137 120.744C177.572 120.848 177.986 121.034 178.379 121.304C178.777 121.574 179.097 121.964 179.339 122.474C179.581 122.985 179.677 123.655 179.627 124.485L179.211 131.366L177.606 131.269L177.692 129.855L177.61 129.85C177.488 130.07 177.292 130.301 177.022 130.544C176.753 130.787 176.402 130.987 175.969 131.143C175.537 131.299 175.017 131.358 174.409 131.321ZM174.741 129.895C175.376 129.933 175.918 129.841 176.369 129.618C176.823 129.395 177.174 129.093 177.42 128.712C177.67 128.331 177.809 127.923 177.835 127.488L177.924 126.02C177.851 126.097 177.697 126.163 177.461 126.217C177.231 126.267 176.965 126.307 176.662 126.339C176.365 126.367 176.075 126.39 175.791 126.409C175.513 126.424 175.287 126.438 175.113 126.45C174.693 126.479 174.298 126.544 173.928 126.645C173.562 126.741 173.261 126.902 173.025 127.129C172.793 127.352 172.665 127.667 172.64 128.075C172.606 128.633 172.787 129.067 173.182 129.377C173.582 129.684 174.102 129.856 174.741 129.895Z" fill="black"/>
<path d="M196.125 127.419L195.57 136.598L194.459 136.531L194.943 128.517L194.889 128.514L192.558 129.866L192.627 128.737L195.014 127.352L196.125 127.419ZM197.856 134.847L197.911 133.933L202.331 127.794L202.994 127.834L202.909 129.251L202.46 129.223L199.121 133.862L199.117 133.933L204.549 134.262L204.489 135.248L197.856 134.847ZM202.063 136.99L202.193 134.83L202.219 134.404L202.618 127.812L203.675 127.876L203.121 137.054L202.063 136.99ZM206.662 136.09C206.441 136.077 206.256 135.986 206.108 135.818C205.959 135.65 205.891 135.455 205.904 135.234C205.918 135.013 206.008 134.828 206.176 134.68C206.344 134.531 206.539 134.463 206.76 134.476C206.981 134.49 207.166 134.58 207.315 134.748C207.464 134.916 207.531 135.111 207.518 135.332C207.509 135.478 207.464 135.611 207.381 135.729C207.302 135.847 207.199 135.939 207.072 136.007C206.948 136.071 206.812 136.099 206.662 136.09ZM206.943 131.447C206.722 131.433 206.537 131.343 206.388 131.175C206.239 131.007 206.172 130.812 206.185 130.591C206.199 130.37 206.289 130.185 206.457 130.036C206.625 129.888 206.82 129.82 207.041 129.833C207.262 129.847 207.447 129.937 207.595 130.105C207.744 130.273 207.812 130.468 207.799 130.689C207.79 130.835 207.744 130.967 207.662 131.085C207.583 131.204 207.48 131.296 207.353 131.364C207.229 131.428 207.092 131.456 206.943 131.447ZM212.808 128.428L212.253 137.606L211.141 137.539L211.626 129.526L211.572 129.522L209.241 130.875L209.309 129.745L211.696 128.36L212.808 128.428ZM218.422 128.767L217.867 137.946L216.756 137.879L217.24 129.865L217.186 129.862L214.855 131.214L214.924 130.085L217.31 128.7L218.422 128.767Z" fill="#4200FF"/>
<path fill-rule="evenodd" clip-rule="evenodd" d="M241.454 130.558C241.651 130.773 241.637 131.107 241.422 131.305L232.698 139.312C232.589 139.411 232.444 139.461 232.298 139.449C232.152 139.437 232.017 139.365 231.925 139.25L228.508 134.923C228.327 134.694 228.367 134.362 228.596 134.181C228.825 134 229.157 134.039 229.338 134.268L232.402 138.148L240.707 130.526C240.922 130.329 241.256 130.343 241.454 130.558Z" fill="#4200FF"/>
<path opacity="0.8" fill-rule="evenodd" clip-rule="evenodd" d="M-16.526 198.807C-16.559 199.148 -16.5834 199.552 -16.6323 200.361C-16.6812 201.169 -16.7056 201.573 -16.714 201.916C-16.957 211.889 -9.45541 220.356 0.474147 221.316C0.815197 221.349 1.21948 221.373 2.02806 221.422L217.04 234.421C223.466 234.809 226.679 235.003 229.354 234.432C231.068 234.066 232.703 233.484 234.227 232.712C235.195 233.29 236.299 233.865 237.465 234.319C242.084 236.119 254.228 236.766 254.228 236.766C254.228 236.766 247.69 234.937 245.622 228.282C245.085 226.554 245.107 220.271 245.237 214.93C245.369 213.324 245.484 211.42 245.624 209.096C245.808 206.052 245.9 204.53 245.63 203.263C244.933 199.999 242.576 197.338 239.419 196.253C238.194 195.832 236.672 195.74 233.628 195.556L4.42942 181.7C3.62084 181.651 3.21655 181.627 2.87401 181.619C-7.0989 181.375 -15.5659 188.877 -16.526 198.807Z" fill="#CFBEFF"/>
<path d="M2.90723 206.565C2.00965 206.511 1.21886 206.308 0.534842 205.957C-0.144639 205.607 -0.67406 205.145 -1.05342 204.572C-1.42798 203.994 -1.61133 203.339 -1.60347 202.607L0.110085 202.711C0.11922 203.161 0.249918 203.558 0.50218 203.901C0.754715 204.24 1.0955 204.51 1.52453 204.714C1.95357 204.917 2.43555 205.035 2.97047 205.067C3.56885 205.104 4.10554 205.031 4.58053 204.851C5.05553 204.67 5.43573 204.402 5.72112 204.046C6.00652 203.69 6.16402 203.268 6.19362 202.778C6.22459 202.266 6.12492 201.807 5.89463 201.402C5.66462 200.992 5.31153 200.661 4.83537 200.41C4.35921 200.158 3.76754 200.011 3.06036 199.968L1.94518 199.9L2.03562 198.405L3.15079 198.472C3.70385 198.505 4.19493 198.435 4.62404 198.261C5.05769 198.087 5.40334 197.826 5.66099 197.477C5.92318 197.129 6.06907 196.71 6.09866 196.221C6.12717 195.749 6.0477 195.333 5.86028 194.971C5.67285 194.609 5.39463 194.319 5.02563 194.101C4.66116 193.884 4.22279 193.759 3.71054 193.729C3.23002 193.699 2.77135 193.76 2.33454 193.911C1.90254 194.058 1.5428 194.289 1.25534 194.604C0.968146 194.914 0.79924 195.3 0.748621 195.761L-0.883338 195.662C-0.812016 194.934 -0.553514 194.308 -0.107831 193.784C0.338126 193.256 0.903614 192.858 1.58863 192.59C2.27818 192.322 3.02415 192.213 3.82653 192.261C4.68784 192.313 5.41621 192.533 6.01162 192.919C6.60731 193.301 7.05349 193.785 7.35016 194.372C7.64683 194.958 7.77529 195.58 7.73556 196.238C7.68815 197.022 7.44146 197.678 6.99551 198.206C6.55408 198.735 5.9756 199.084 5.26007 199.255L5.2535 199.363C6.12417 199.562 6.78835 199.977 7.24602 200.61C7.70396 201.238 7.90622 201.994 7.85278 202.878C7.80701 203.635 7.55964 204.303 7.11067 204.881C6.66651 205.455 6.08042 205.892 5.35241 206.194C4.6244 206.496 3.80934 206.619 2.90723 206.565ZM11.6924 207.014C11.357 206.994 11.0764 206.856 10.8506 206.602C10.6249 206.347 10.5222 206.052 10.5425 205.716C10.5627 205.381 10.7003 205.1 10.9551 204.874C11.2098 204.649 11.505 204.546 11.8404 204.566C12.1759 204.586 12.4565 204.724 12.6822 204.979C12.908 205.234 13.0107 205.529 12.9904 205.864C12.977 206.086 12.908 206.287 12.7834 206.466C12.6634 206.645 12.507 206.786 12.3143 206.888C12.1264 206.986 11.9191 207.028 11.6924 207.014ZM23.1259 207.787L23.2213 206.21L24.0916 206.262C24.4271 206.283 24.7121 206.234 24.9467 206.116C25.1859 205.999 25.3865 205.84 25.5488 205.641C25.7155 205.441 25.8556 205.231 25.969 205.011L26.2178 204.507L22.0481 193.554L23.8705 193.664L27.1827 202.545L31.2143 194.108L33.0095 194.217L27.4898 205.594C27.2731 206.018 27.0311 206.408 26.7638 206.765C26.5011 207.122 26.1543 207.402 25.7236 207.603C25.2974 207.805 24.7306 207.884 24.0235 207.841L23.1259 207.787ZM42.7544 194.369L43.5112 195.398C43.1752 195.687 42.795 195.88 42.3706 195.977C41.9461 196.074 41.4701 196.12 40.9426 196.116C40.4151 196.111 39.8287 196.103 39.1834 196.091C38.4564 196.075 37.8451 196.215 37.3493 196.513C36.8536 196.81 36.4579 197.26 36.1623 197.861C35.8666 198.461 35.6554 199.209 35.5286 200.102L35.6646 200.11C36.0576 199.479 36.5763 199.028 37.2205 198.757C37.8647 198.487 38.5449 198.373 39.2612 198.416C40.0772 198.466 40.8 198.701 41.4298 199.121C42.0596 199.541 42.5422 200.137 42.8778 200.908C43.2134 201.679 43.348 202.613 43.2817 203.71C43.2156 204.802 42.9637 205.733 42.5259 206.503C42.0926 207.273 41.5139 207.852 40.7897 208.241C40.0704 208.625 39.2438 208.789 38.31 208.732C37.3761 208.676 36.5712 208.407 35.8951 207.924C35.2193 207.438 34.7128 206.747 34.3755 205.853C34.0386 204.955 33.909 203.862 33.9868 202.575L34.0543 201.459C34.1949 199.134 34.6958 197.394 35.5573 196.241C36.4232 195.087 37.653 194.538 39.2466 194.594C39.8098 194.61 40.311 194.635 40.7502 194.671C41.1894 194.707 41.5736 194.709 41.9031 194.679C42.2325 194.649 42.5162 194.546 42.7544 194.369ZM38.3971 207.291C39.0272 207.329 39.5785 207.203 40.051 206.913C40.5281 206.624 40.9064 206.198 41.186 205.637C41.4659 205.072 41.6295 204.397 41.6769 203.613C41.723 202.851 41.6375 202.195 41.4205 201.645C41.208 201.096 40.8814 200.666 40.4405 200.358C39.9997 200.049 39.4596 199.875 38.8204 199.837C38.3535 199.808 37.9294 199.862 37.5481 199.999C37.1668 200.135 36.8353 200.349 36.5538 200.641C36.2722 200.934 36.0455 201.298 35.8736 201.733C35.7062 202.169 35.6007 202.672 35.5571 203.243C35.4864 204.412 35.704 205.365 36.2101 206.101C36.7161 206.837 37.4451 207.233 38.3971 207.291ZM47.1767 206.675L52.697 198.901L54.5465 199.013L53.9151 209.457L52.3104 209.36L52.7987 201.282L47.3057 209.058L45.4289 208.944L46.0603 198.5L47.6651 198.597L47.1767 206.675ZM55.9742 200.601L56.0646 199.105L64.5508 199.618L64.4603 201.114L61.0332 200.907L60.4922 209.855L58.8875 209.758L59.4285 200.809L55.9742 200.601ZM68.0502 203.624L71.0422 203.805C72.2661 203.879 73.1835 204.246 73.7942 204.906C74.4049 205.566 74.6814 206.372 74.6239 207.324C74.5861 207.95 74.4066 208.51 74.0855 209.005C73.7647 209.495 73.3141 209.875 72.7336 210.145C72.1534 210.41 71.4553 210.518 70.6393 210.469L66.2602 210.204L66.8916 199.759L68.4964 199.856L67.9554 208.805L70.7297 208.973C71.3644 209.011 71.8958 208.875 72.3241 208.564C72.7524 208.253 72.9824 207.835 73.0142 207.309C73.0476 206.756 72.8709 206.292 72.484 205.919C72.0971 205.545 71.5864 205.339 70.9517 205.301L67.9598 205.12L68.0502 203.624ZM82.2483 211.17L82.8797 200.726L84.4845 200.823L84.2099 205.365L85.2706 205.429L89.2988 201.114L91.3659 201.239L86.8458 206.016L90.7889 211.687L88.7217 211.562L85.561 206.948L84.1194 206.861L83.8531 211.267L82.2483 211.17ZM93.3298 215.771C93.0578 215.755 92.8167 215.717 92.6064 215.659C92.3958 215.606 92.2509 215.556 92.1718 215.51L92.6653 214.12C93.0491 214.244 93.3914 214.301 93.6923 214.292C93.9931 214.283 94.2664 214.165 94.5121 213.939C94.7621 213.717 95.0006 213.347 95.2276 212.829L95.5761 212.031L92.3485 201.298L94.0892 201.403L96.4692 209.901L96.578 209.907L99.9643 201.759L101.705 201.864L96.5481 213.564C96.316 214.091 96.0419 214.523 95.7259 214.858C95.4096 215.199 95.0513 215.443 94.651 215.592C94.2553 215.741 93.8149 215.801 93.3298 215.771ZM101.017 215.308L101.288 210.82L102.159 210.873C102.385 210.663 102.583 210.434 102.753 210.185C102.923 209.936 103.075 209.638 103.21 209.291C103.349 208.94 103.475 208.511 103.588 208.004C103.701 207.492 103.811 206.873 103.918 206.147L104.522 202.034L111.159 202.435L110.618 211.384L112.222 211.481L111.951 215.969L110.346 215.872L110.527 212.88L102.802 212.413L102.622 215.405L101.017 215.308ZM103.981 210.983L109.013 211.287L109.463 203.834L105.927 203.621L105.496 206.242C105.317 207.328 105.118 208.274 104.901 209.08C104.684 209.886 104.377 210.52 103.981 210.983ZM114.025 217.022L114.893 202.661L116.444 202.755L116.343 204.414L116.534 204.426C116.663 204.251 116.84 204.03 117.065 203.762C117.296 203.489 117.615 203.253 118.022 203.055C118.435 202.852 118.981 202.772 119.661 202.813C120.541 202.866 121.303 203.133 121.947 203.613C122.591 204.093 123.077 204.748 123.405 205.578C123.732 206.408 123.863 207.371 123.797 208.468C123.73 209.574 123.484 210.522 123.058 211.31C122.633 212.094 122.074 212.688 121.381 213.092C120.688 213.492 119.906 213.665 119.036 213.613C118.365 213.572 117.834 213.429 117.444 213.182C117.055 212.931 116.76 212.656 116.559 212.357C116.359 212.054 116.206 211.804 116.1 211.606L115.964 211.598L115.63 217.119L114.025 217.022ZM116.155 207.979C116.107 208.768 116.181 209.47 116.376 210.087C116.571 210.7 116.88 211.189 117.304 211.556C117.728 211.918 118.262 212.119 118.905 212.158C119.576 212.198 120.147 212.056 120.617 211.729C121.092 211.398 121.461 210.938 121.724 210.349C121.992 209.756 122.148 209.087 122.193 208.344C122.238 207.609 122.164 206.941 121.973 206.338C121.787 205.73 121.478 205.241 121.045 204.869C120.618 204.493 120.064 204.284 119.384 204.243C118.731 204.203 118.173 204.336 117.708 204.64C117.244 204.939 116.881 205.377 116.619 205.953C116.357 206.524 116.202 207.199 116.155 207.979ZM132.213 214.191L132.756 205.215L129.982 205.047C129.356 205.01 128.856 205.125 128.48 205.393C128.104 205.662 127.901 206.05 127.87 206.558C127.84 207.056 127.977 207.458 128.282 207.763C128.591 208.069 129.029 208.238 129.596 208.273L132.968 208.477L132.878 209.972L129.505 209.769C128.798 209.726 128.196 209.564 127.699 209.284C127.202 209.004 126.829 208.624 126.58 208.145C126.332 207.661 126.227 207.1 126.266 206.461C126.304 205.817 126.483 205.273 126.801 204.828C127.119 204.383 127.555 204.052 128.11 203.835C128.669 203.619 129.323 203.533 130.071 203.579L134.368 203.838L133.737 214.283L132.213 214.191ZM125.25 213.77L128.529 208.754L130.27 208.859L126.991 213.875L125.25 213.77ZM136.683 214.461L137.314 204.017L141.584 204.275C142.709 204.343 143.586 204.651 144.217 205.198C144.849 205.746 145.139 206.437 145.089 207.271C145.05 207.906 144.832 208.386 144.435 208.712C144.038 209.034 143.541 209.239 142.944 209.325C143.326 209.403 143.692 209.562 144.042 209.801C144.396 210.041 144.681 210.358 144.898 210.754C145.116 211.145 145.208 211.614 145.175 212.163C145.143 212.698 144.978 213.168 144.68 213.573C144.383 213.978 143.973 214.288 143.45 214.502C142.928 214.716 142.313 214.801 141.606 214.759L136.683 214.461ZM138.295 213.084L141.694 213.29C142.248 213.323 142.688 213.218 143.017 212.974C143.346 212.73 143.524 212.381 143.551 211.928C143.584 211.389 143.453 210.955 143.159 210.628C142.865 210.296 142.442 210.114 141.889 210.08L138.489 209.875L138.295 213.084ZM138.572 208.488L141.32 208.654C141.75 208.68 142.123 208.643 142.439 208.544C142.754 208.44 143 208.282 143.177 208.07C143.359 207.853 143.459 207.591 143.477 207.283C143.504 206.843 143.341 206.487 142.989 206.216C142.637 205.94 142.139 205.782 141.496 205.743L138.748 205.577L138.572 208.488ZM151.665 215.585C150.722 215.528 149.908 215.254 149.224 214.762C148.544 214.27 148.028 213.609 147.678 212.778C147.333 211.947 147.192 210.993 147.258 209.914C147.323 208.826 147.578 207.888 148.022 207.1C148.469 206.313 149.061 205.716 149.795 205.31C150.534 204.904 151.375 204.73 152.318 204.787C153.261 204.844 154.072 205.118 154.752 205.61C155.437 206.102 155.952 206.765 156.297 207.601C156.647 208.436 156.789 209.398 156.723 210.486C156.658 211.565 156.401 212.496 155.954 213.278C155.51 214.061 154.919 214.656 154.181 215.062C153.446 215.468 152.608 215.642 151.665 215.585ZM151.752 214.144C152.468 214.187 153.069 214.039 153.553 213.7C154.038 213.36 154.409 212.898 154.668 212.313C154.926 211.728 155.076 211.087 155.118 210.389C155.16 209.691 155.089 209.033 154.903 208.417C154.717 207.801 154.405 207.293 153.965 206.893C153.525 206.493 152.947 206.272 152.23 206.229C151.514 206.185 150.914 206.336 150.429 206.679C149.944 207.023 149.572 207.49 149.314 208.079C149.055 208.669 148.905 209.313 148.862 210.011C148.82 210.709 148.892 211.364 149.078 211.976C149.264 212.587 149.577 213.091 150.017 213.486C150.457 213.881 151.036 214.1 151.752 214.144ZM165.938 205.747L165.847 207.243L161.006 206.95L160.465 215.899L158.86 215.802L159.492 205.357L165.938 205.747ZM171.337 216.774C170.394 216.717 169.58 216.443 168.895 215.951C168.215 215.46 167.7 214.798 167.35 213.967C167.005 213.137 166.864 212.182 166.93 211.103C166.995 210.015 167.25 209.077 167.693 208.29C168.141 207.502 168.733 206.905 169.467 206.499C170.206 206.094 171.047 205.919 171.989 205.976C172.932 206.033 173.744 206.308 174.424 206.799C175.109 207.291 175.623 207.954 175.969 208.79C176.319 209.625 176.461 210.587 176.395 211.675C176.33 212.754 176.073 213.685 175.626 214.468C175.182 215.251 174.591 215.845 173.853 216.251C173.118 216.657 172.28 216.831 171.337 216.774ZM171.424 215.333C172.14 215.376 172.741 215.228 173.225 214.889C173.71 214.55 174.081 214.088 174.339 213.503C174.598 212.918 174.748 212.276 174.79 211.578C174.832 210.88 174.761 210.223 174.575 209.606C174.389 208.99 174.077 208.482 173.637 208.082C173.197 207.683 172.619 207.461 171.902 207.418C171.186 207.375 170.586 207.525 170.101 207.869C169.616 208.212 169.244 208.679 168.986 209.268C168.727 209.858 168.577 210.502 168.534 211.2C168.492 211.898 168.564 212.553 168.75 213.165C168.936 213.777 169.249 214.28 169.689 214.675C170.129 215.07 170.708 215.29 171.424 215.333Z" fill="black"/>
<path d="M190.945 213.095L190.39 222.274L189.279 222.207L189.763 214.193L189.71 214.19L187.379 215.543L187.447 214.413L189.834 213.028L190.945 213.095ZM192.676 220.523L192.732 219.609L197.151 213.471L197.815 213.511L197.729 214.927L197.281 214.9L193.942 219.538L193.937 219.61L199.369 219.938L199.31 220.924L192.676 220.523ZM196.883 222.667L197.014 220.506L197.039 220.081L197.438 213.488L198.496 213.552L197.941 222.731L196.883 222.667ZM201.483 221.766C201.262 221.753 201.077 221.662 200.928 221.494C200.779 221.326 200.711 221.132 200.725 220.911C200.738 220.69 200.829 220.505 200.997 220.356C201.165 220.207 201.359 220.139 201.58 220.153C201.801 220.166 201.986 220.257 202.135 220.425C202.284 220.593 202.352 220.787 202.338 221.008C202.329 221.155 202.284 221.287 202.202 221.405C202.123 221.523 202.02 221.616 201.893 221.683C201.769 221.747 201.632 221.775 201.483 221.766ZM201.763 217.123C201.542 217.11 201.357 217.019 201.209 216.851C201.06 216.683 200.992 216.489 201.005 216.267C201.019 216.046 201.109 215.861 201.277 215.713C201.445 215.564 201.64 215.496 201.861 215.51C202.082 215.523 202.267 215.614 202.416 215.781C202.565 215.949 202.632 216.144 202.619 216.365C202.61 216.511 202.565 216.644 202.482 216.762C202.403 216.88 202.3 216.973 202.173 217.04C202.049 217.104 201.913 217.132 201.763 217.123ZM207.628 214.104L207.073 223.283L205.962 223.215L206.446 215.202L206.392 215.199L204.061 216.551L204.13 215.422L206.516 214.037L207.628 214.104ZM209.46 223.427L209.509 222.62L212.739 219.487C213.118 219.12 213.432 218.8 213.679 218.527C213.927 218.251 214.113 217.99 214.239 217.742C214.368 217.492 214.441 217.227 214.458 216.946C214.478 216.623 214.417 216.339 214.276 216.094C214.138 215.848 213.94 215.653 213.682 215.509C213.423 215.364 213.129 215.282 212.797 215.262C212.444 215.241 212.132 215.295 211.86 215.426C211.592 215.554 211.378 215.743 211.219 215.994C211.063 216.246 210.974 216.546 210.953 216.896L209.895 216.832C209.928 216.294 210.08 215.829 210.353 215.438C210.625 215.047 210.982 214.75 211.423 214.549C211.867 214.348 212.356 214.264 212.891 214.296C213.429 214.329 213.899 214.471 214.3 214.723C214.702 214.975 215.009 215.301 215.222 215.701C215.435 216.101 215.527 216.537 215.498 217.009C215.478 217.346 215.397 217.673 215.255 217.988C215.116 218.301 214.885 218.645 214.562 219.021C214.243 219.395 213.803 219.848 213.243 220.381L211.048 222.461L211.044 222.533L215.311 222.791L215.251 223.777L209.46 223.427Z" fill="#4200FF"/>
<path fill-rule="evenodd" clip-rule="evenodd" d="M235.534 216.777C235.731 216.992 235.717 217.327 235.502 217.524L226.778 225.531C226.669 225.63 226.525 225.68 226.378 225.668C226.232 225.657 226.097 225.584 226.006 225.469L222.588 221.143C222.408 220.913 222.447 220.581 222.676 220.4C222.905 220.219 223.237 220.258 223.418 220.487L226.482 224.367L234.787 216.745C235.002 216.548 235.336 216.562 235.534 216.777Z" fill="#4200FF"/>
</g>
<defs>
<clipPath id="clip0_741_1211">
<rect x="0.00976562" y="0.0424805" width="277.622" height="375.512" rx="24.0713" fill="white"/>
</clipPath>
</defs>
</svg>
