<svg width="49" height="49" viewBox="0 0 49 49" fill="none" xmlns="http://www.w3.org/2000/svg">
<path d="M0.5 16.7742C0.5 10.9027 0.5 7.96693 1.64268 5.7243C2.6478 3.75163 4.25163 2.1478 6.2243 1.14268C8.46693 0 11.4027 0 17.2742 0H31.9516C37.8232 0 40.7589 0 43.0016 1.14268C44.9742 2.1478 46.5781 3.75163 47.5832 5.7243C48.7259 7.96693 48.7259 10.9027 48.7259 16.7742V31.4516C48.7259 37.3232 48.7259 40.2589 47.5832 42.5016C46.5781 44.4742 44.9742 46.0781 43.0016 47.0832C40.7589 48.2259 37.8232 48.2259 31.9517 48.2259H17.2742C11.4027 48.2259 8.46693 48.2259 6.2243 47.0832C4.25163 46.0781 2.6478 44.4742 1.64268 42.5016C0.5 40.2589 0.5 37.3232 0.5 31.4517V16.7742Z" fill="#952AFF"/>
<path d="M31.6597 25.6276L34.4881 22.7992L35.8139 21.4733C38.2059 19.0814 38.2059 15.2032 35.8139 12.8113V12.8113V12.8113C33.422 10.4193 29.5438 10.4193 27.1519 12.8113L22.9976 16.9655M26.0028 31.2844L23.1744 34.1129L21.8486 35.4387C19.4566 37.8307 15.5785 37.8307 13.1865 35.4387V35.4387V35.4387C10.7945 33.0467 10.7945 29.1686 13.1865 26.7766L17.3408 22.6224" stroke="white" stroke-width="2.5" stroke-linecap="round" stroke-linejoin="round"/>
<path d="M21.4736 27.564L27.9386 21.099" stroke="white" stroke-width="2.5" stroke-linecap="round"/>
</svg>
