<svg width="424" height="277" viewBox="0 0 424 277" fill="none" xmlns="http://www.w3.org/2000/svg">
<rect y="0.571289" width="424" height="276" rx="15" fill="white"/>
<path opacity="0.8" fill-rule="evenodd" clip-rule="evenodd" d="M374.79 54.0894C374.809 54.5231 374.809 55.0363 374.809 56.0625C374.809 57.0887 374.809 57.6019 374.79 58.0356C374.34 68.3413 366.088 76.5936 355.782 77.0436C355.348 77.0625 354.835 77.0625 353.809 77.0625L47.6438 77.0625C44.8442 77.0625 43.4443 77.0625 42.2676 76.9218C39.3254 76.57 36.5843 75.5832 34.1842 74.1014C33.7296 74.6056 31.6835 76.7878 29.3341 77.9228C26.0487 79.51 17.5834 79.4187 17.5834 79.4187C17.5834 79.4187 22.203 77.9228 23.9198 71.1059C24.4168 69.132 24.669 63.0022 24.7901 58.5168C24.7347 57.5054 24.7347 56.2054 24.7347 54.1534C24.7347 51.8204 24.7347 50.6538 24.852 49.6732C25.7603 42.0766 31.7488 36.088 39.3455 35.1797C40.3261 35.0625 41.4926 35.0625 43.8257 35.0625H353.809C354.835 35.0625 355.348 35.0625 355.782 35.0814C366.088 35.5314 374.34 43.7837 374.79 54.0894Z" fill="#FFA3D6"/>
<path d="M330.111 57.4156V66.8701H328.966V58.6159H328.911L326.603 60.1485V58.9852L328.966 57.4156H330.111ZM335.599 66.9994C334.965 66.9994 334.405 66.887 333.918 66.6624C333.435 66.4346 333.058 66.1222 332.787 65.7252C332.516 65.3251 332.383 64.8696 332.386 64.3588C332.383 63.9587 332.461 63.5893 332.621 63.2508C332.781 62.9092 333 62.6245 333.277 62.3968C333.557 62.1659 333.869 62.0197 334.214 61.9582V61.9028C333.761 61.7858 333.401 61.5319 333.133 61.1411C332.866 60.7471 332.733 60.2993 332.736 59.7977C332.733 59.3176 332.855 58.8882 333.101 58.5097C333.347 58.1311 333.686 57.8326 334.117 57.6141C334.551 57.3956 335.045 57.2863 335.599 57.2863C336.146 57.2863 336.636 57.3956 337.067 57.6141C337.498 57.8326 337.836 58.1311 338.082 58.5097C338.332 58.8882 338.458 59.3176 338.461 59.7977C338.458 60.2993 338.321 60.7471 338.05 61.1411C337.782 61.5319 337.427 61.7858 336.984 61.9028V61.9582C337.325 62.0197 337.633 62.1659 337.907 62.3968C338.181 62.6245 338.399 62.9092 338.562 63.2508C338.726 63.5893 338.809 63.9587 338.812 64.3588C338.809 64.8696 338.67 65.3251 338.396 65.7252C338.125 66.1222 337.748 66.4346 337.265 66.6624C336.785 66.887 336.23 66.9994 335.599 66.9994ZM335.599 65.9838C336.026 65.9838 336.396 65.9145 336.707 65.776C337.017 65.6375 337.258 65.4421 337.427 65.1897C337.596 64.9374 337.682 64.6419 337.685 64.3034C337.682 63.9463 337.59 63.6309 337.408 63.357C337.227 63.0831 336.979 62.8676 336.665 62.7107C336.354 62.5537 335.999 62.4752 335.599 62.4752C335.195 62.4752 334.835 62.5537 334.518 62.7107C334.204 62.8676 333.957 63.0831 333.775 63.357C333.597 63.6309 333.509 63.9463 333.512 64.3034C333.509 64.6419 333.59 64.9374 333.757 65.1897C333.926 65.4421 334.168 65.6375 334.481 65.776C334.795 65.9145 335.168 65.9838 335.599 65.9838ZM335.599 61.4965C335.937 61.4965 336.237 61.4288 336.499 61.2934C336.764 61.158 336.971 60.9687 337.122 60.7256C337.273 60.4825 337.35 60.1978 337.353 59.8715C337.35 59.5515 337.274 59.2729 337.127 59.036C336.979 58.7959 336.774 58.6112 336.513 58.482C336.251 58.3496 335.946 58.2835 335.599 58.2835C335.245 58.2835 334.935 58.3496 334.671 58.482C334.406 58.6112 334.201 58.7959 334.057 59.036C333.912 59.2729 333.841 59.5515 333.844 59.8715C333.841 60.1978 333.914 60.4825 334.061 60.7256C334.212 60.9687 334.42 61.158 334.685 61.2934C334.949 61.4288 335.254 61.4965 335.599 61.4965ZM341.133 65.6606C340.906 65.6606 340.71 65.579 340.547 65.4159C340.384 65.2528 340.303 65.0574 340.303 64.8296C340.303 64.6019 340.384 64.4065 340.547 64.2433C340.71 64.0802 340.906 63.9987 341.133 63.9987C341.361 63.9987 341.557 64.0802 341.72 64.2433C341.883 64.4065 341.964 64.6019 341.964 64.8296C341.964 64.9804 341.926 65.1189 341.849 65.2451C341.775 65.3713 341.675 65.4729 341.549 65.5498C341.426 65.6237 341.287 65.6606 341.133 65.6606ZM341.133 60.8779C340.906 60.8779 340.71 60.7964 340.547 60.6333C340.384 60.4701 340.303 60.2747 340.303 60.047C340.303 59.8192 340.384 59.6238 340.547 59.4607C340.71 59.2976 340.906 59.216 341.133 59.216C341.361 59.216 341.557 59.2976 341.72 59.4607C341.883 59.6238 341.964 59.8192 341.964 60.047C341.964 60.1978 341.926 60.3363 341.849 60.4624C341.775 60.5886 341.675 60.6902 341.549 60.7671C341.426 60.841 341.287 60.8779 341.133 60.8779ZM346.596 66.9994C346.054 66.9994 345.566 66.8917 345.132 66.6762C344.698 66.4608 344.35 66.1653 344.089 65.7899C343.827 65.4144 343.684 64.9866 343.66 64.5065H344.767C344.811 64.9343 345.004 65.2882 345.349 65.5683C345.697 65.8453 346.112 65.9838 346.596 65.9838C346.983 65.9838 347.328 65.893 347.63 65.7114C347.934 65.5298 348.173 65.2805 348.345 64.9635C348.521 64.6434 348.608 64.2818 348.608 63.8786C348.608 63.4662 348.518 63.0985 348.336 62.7753C348.158 62.4491 347.911 62.1921 347.597 62.0044C347.283 61.8166 346.925 61.7212 346.522 61.7181C346.232 61.7151 345.935 61.7597 345.631 61.852C345.326 61.9413 345.075 62.0567 344.878 62.1982L343.807 62.069L344.38 57.4156H349.292V58.4312H345.34L345.008 61.2195H345.063C345.257 61.0657 345.5 60.9379 345.792 60.8364C346.085 60.7348 346.389 60.684 346.706 60.684C347.285 60.684 347.801 60.8225 348.253 61.0995C348.708 61.3734 349.065 61.7489 349.324 62.2259C349.586 62.703 349.716 63.2477 349.716 63.8602C349.716 64.4634 349.581 65.002 349.31 65.4759C349.042 65.9468 348.673 66.3192 348.202 66.5931C347.731 66.864 347.196 66.9994 346.596 66.9994ZM354.429 66.9994C354.042 66.9932 353.654 66.9194 353.266 66.7778C352.878 66.6362 352.524 66.3977 352.204 66.0622C351.884 65.7237 351.627 65.2667 351.433 64.6911C351.239 64.1125 351.143 63.3862 351.143 62.5122C351.143 61.675 351.221 60.9333 351.378 60.287C351.535 59.6376 351.763 59.0914 352.061 58.6482C352.36 58.2019 352.72 57.8634 353.141 57.6325C353.566 57.4017 354.045 57.2863 354.577 57.2863C355.107 57.2863 355.577 57.3925 355.99 57.6048C356.405 57.8141 356.744 58.1065 357.005 58.482C357.267 58.8575 357.436 59.2899 357.513 59.7792H356.387C356.282 59.3545 356.079 59.0021 355.777 58.722C355.476 58.442 355.076 58.3019 354.577 58.3019C353.845 58.3019 353.268 58.6205 352.846 59.2575C352.427 59.8946 352.217 60.7887 352.214 61.9397H352.287C352.46 61.6781 352.664 61.455 352.901 61.2703C353.141 61.0826 353.406 60.9379 353.695 60.8364C353.985 60.7348 354.291 60.684 354.614 60.684C355.156 60.684 355.651 60.8195 356.101 61.0903C356.55 61.358 356.91 61.7289 357.181 62.2029C357.452 62.6737 357.587 63.2139 357.587 63.8232C357.587 64.408 357.456 64.9435 357.195 65.4298C356.933 65.913 356.565 66.2977 356.091 66.5839C355.621 66.867 355.067 67.0055 354.429 66.9994ZM354.429 65.9838C354.817 65.9838 355.165 65.8868 355.473 65.6929C355.784 65.499 356.028 65.239 356.207 64.9127C356.388 64.5865 356.479 64.2233 356.479 63.8232C356.479 63.4324 356.391 63.0769 356.216 62.7568C356.044 62.4337 355.805 62.1767 355.5 61.9859C355.199 61.7951 354.854 61.6997 354.466 61.6997C354.174 61.6997 353.902 61.7581 353.649 61.8751C353.397 61.989 353.175 62.1459 352.985 62.346C352.797 62.546 352.649 62.7753 352.541 63.0338C352.434 63.2893 352.38 63.5586 352.38 63.8417C352.38 64.2172 352.467 64.568 352.643 64.8943C352.821 65.2205 353.065 65.4836 353.372 65.6837C353.683 65.8837 354.036 65.9838 354.429 65.9838Z" fill="#FF3DA8"/>
<path d="M38.9923 63.0625V48.517H44.0775C45.0908 48.517 45.9265 48.6922 46.5847 49.0426C47.2428 49.3883 47.7329 49.8546 48.0548 50.4418C48.3768 51.0241 48.5378 51.6705 48.5378 52.3807C48.5378 53.0057 48.4265 53.5218 48.204 53.929C47.9862 54.3362 47.6973 54.6581 47.3375 54.8949C46.9824 55.1316 46.5965 55.3068 46.1798 55.4205V55.5625C46.6249 55.5909 47.0723 55.7472 47.5222 56.0312C47.972 56.3153 48.3484 56.7225 48.6514 57.2528C48.9544 57.7831 49.106 58.4318 49.106 59.1989C49.106 59.928 48.9402 60.5838 48.6088 61.1662C48.2774 61.7486 47.7542 62.2102 47.0392 62.5511C46.3242 62.892 45.3938 63.0625 44.248 63.0625H38.9923ZM40.7537 61.5H44.248C45.3986 61.5 46.2153 61.2775 46.6983 60.8324C47.186 60.3826 47.4298 59.8381 47.4298 59.1989C47.4298 58.7064 47.3043 58.2519 47.0534 57.8352C46.8025 57.4138 46.445 57.0777 45.981 56.8267C45.5169 56.571 44.9677 56.4432 44.3332 56.4432H40.7537V61.5ZM40.7537 54.9091H44.0207C44.551 54.9091 45.0293 54.8049 45.4554 54.5966C45.8863 54.3883 46.2272 54.0947 46.4781 53.7159C46.7338 53.3371 46.8616 52.892 46.8616 52.3807C46.8616 51.7415 46.6391 51.1993 46.194 50.7543C45.7489 50.3045 45.0435 50.0795 44.0775 50.0795H40.7537V54.9091ZM53.449 60.5909L58.7047 52.1534H60.6365V63.0625H58.9604V54.625L53.7331 63.0625H51.7729V52.1534H53.449V60.5909ZM62.5417 66.1875V61.5H63.4508C63.6733 61.268 63.8651 61.017 64.0261 60.7472C64.187 60.4773 64.3267 60.1577 64.4451 59.7884C64.5682 59.4143 64.6724 58.9598 64.7576 58.4247C64.8428 57.8849 64.9186 57.2339 64.9849 56.4716L65.3542 52.1534H72.286V61.5H73.9621V66.1875H72.286V63.0625H64.2178V66.1875H62.5417ZM65.3542 61.5H70.6099V53.7159H66.9167L66.6326 56.4716C66.5142 57.6127 66.3674 58.6094 66.1922 59.4616C66.0171 60.3139 65.7377 60.9934 65.3542 61.5ZM77.8631 60.5909L83.1187 52.1534H85.0506V63.0625H83.3744V54.625L78.1472 63.0625H76.1869V52.1534H77.8631V60.5909ZM94.0864 60.7898L97.8932 52.1534H99.4842L94.7682 63.0625H93.4046L88.7739 52.1534H90.3364L94.0864 60.7898ZM89.7967 52.1534V63.0625H88.1205V52.1534H89.7967ZM98.3762 63.0625V52.1534H100.052V63.0625H98.3762ZM107.552 63.2898C106.567 63.2898 105.703 63.0554 104.96 62.5866C104.221 62.1179 103.644 61.4621 103.227 60.6193C102.815 59.7765 102.609 58.7917 102.609 57.6648C102.609 56.5284 102.815 55.5365 103.227 54.6889C103.644 53.8414 104.221 53.1832 104.96 52.7145C105.703 52.2457 106.567 52.0114 107.552 52.0114C108.537 52.0114 109.399 52.2457 110.138 52.7145C110.881 53.1832 111.459 53.8414 111.871 54.6889C112.287 55.5365 112.496 56.5284 112.496 57.6648C112.496 58.7917 112.287 59.7765 111.871 60.6193C111.459 61.4621 110.881 62.1179 110.138 62.5866C109.399 63.0554 108.537 63.2898 107.552 63.2898ZM107.552 61.7841C108.3 61.7841 108.916 61.5923 109.399 61.2088C109.882 60.8253 110.239 60.321 110.471 59.696C110.703 59.071 110.819 58.3939 110.819 57.6648C110.819 56.9356 110.703 56.2562 110.471 55.6264C110.239 54.9967 109.882 54.4877 109.399 54.0994C108.916 53.7112 108.3 53.517 107.552 53.517C106.804 53.517 106.189 53.7112 105.706 54.0994C105.223 54.4877 104.865 54.9967 104.633 55.6264C104.401 56.2562 104.285 56.9356 104.285 57.6648C104.285 58.3939 104.401 59.071 104.633 59.696C104.865 60.321 105.223 60.8253 105.706 61.2088C106.189 61.5923 106.804 61.7841 107.552 61.7841ZM120.679 63.0625V52.1534H125.139C126.314 52.1534 127.246 52.4186 127.938 52.9489C128.629 53.4792 128.975 54.1799 128.975 55.0511C128.975 55.714 128.778 56.2277 128.385 56.5923C127.992 56.9522 127.488 57.196 126.872 57.3239C127.275 57.3807 127.665 57.5227 128.044 57.75C128.428 57.9773 128.745 58.2898 128.996 58.6875C129.247 59.0805 129.372 59.5634 129.372 60.1364C129.372 60.6951 129.23 61.1946 128.946 61.6349C128.662 62.0753 128.255 62.4233 127.725 62.679C127.194 62.9347 126.56 63.0625 125.821 63.0625H120.679ZM122.27 61.5284H125.821C126.399 61.5284 126.851 61.3911 127.178 61.1165C127.504 60.8419 127.668 60.4678 127.668 59.9943C127.668 59.4309 127.504 58.9882 127.178 58.6662C126.851 58.3395 126.399 58.1761 125.821 58.1761H122.27V61.5284ZM122.27 56.7273H125.139C125.589 56.7273 125.975 56.6657 126.297 56.5426C126.619 56.4148 126.865 56.2348 127.036 56.0028C127.211 55.7661 127.298 55.4867 127.298 55.1648C127.298 54.7055 127.107 54.3456 126.723 54.0852C126.34 53.8201 125.812 53.6875 125.139 53.6875H122.27V56.7273ZM136.341 63.2898C135.319 63.2898 134.438 63.0483 133.699 62.5653C132.961 62.0824 132.393 61.4171 131.995 60.5696C131.597 59.7221 131.398 58.7538 131.398 57.6648C131.398 56.5568 131.602 55.5791 132.009 54.7315C132.421 53.8793 132.994 53.214 133.728 52.7358C134.466 52.2528 135.328 52.0114 136.313 52.0114C137.08 52.0114 137.771 52.1534 138.387 52.4375C139.002 52.7216 139.507 53.1193 139.9 53.6307C140.293 54.142 140.536 54.7386 140.631 55.4205H138.955C138.827 54.9233 138.543 54.483 138.103 54.0994C137.667 53.7112 137.08 53.517 136.341 53.517C135.688 53.517 135.115 53.6875 134.623 54.0284C134.135 54.3646 133.754 54.8404 133.479 55.456C133.209 56.0668 133.074 56.7841 133.074 57.608C133.074 58.4508 133.207 59.1847 133.472 59.8097C133.742 60.4347 134.121 60.92 134.608 61.2656C135.101 61.6113 135.679 61.7841 136.341 61.7841C136.777 61.7841 137.172 61.7083 137.527 61.5568C137.883 61.4053 138.183 61.1875 138.429 60.9034C138.676 60.6193 138.851 60.2784 138.955 59.8807H140.631C140.536 60.5246 140.302 61.1046 139.928 61.6207C139.559 62.1321 139.069 62.5393 138.458 62.8423C137.852 63.1406 137.146 63.2898 136.341 63.2898ZM147.655 63.2898C146.604 63.2898 145.697 63.0578 144.935 62.5938C144.178 62.125 143.593 61.4716 143.181 60.6335C142.774 59.7907 142.57 58.8106 142.57 57.6932C142.57 56.5758 142.774 55.5909 143.181 54.7386C143.593 53.8816 144.166 53.214 144.9 52.7358C145.638 52.2528 146.5 52.0114 147.485 52.0114C148.053 52.0114 148.614 52.1061 149.168 52.2955C149.722 52.4848 150.226 52.7926 150.681 53.2188C151.135 53.6402 151.498 54.1989 151.768 54.8949C152.037 55.5909 152.172 56.4479 152.172 57.4659V58.1761H143.763V56.7273H150.468C150.468 56.1117 150.345 55.5625 150.099 55.0795C149.857 54.5966 149.511 54.2154 149.062 53.9361C148.616 53.6567 148.091 53.517 147.485 53.517C146.817 53.517 146.24 53.6828 145.752 54.0142C145.269 54.3409 144.897 54.767 144.637 55.2926C144.376 55.8182 144.246 56.3816 144.246 56.983V57.9489C144.246 58.7727 144.388 59.4711 144.672 60.044C144.961 60.6122 145.361 61.0455 145.873 61.3438C146.384 61.6373 146.978 61.7841 147.655 61.7841C148.096 61.7841 148.493 61.7225 148.849 61.5994C149.208 61.4716 149.518 61.2822 149.779 61.0312C150.039 60.7756 150.241 60.4583 150.383 60.0795L152.002 60.5341C151.831 61.0833 151.545 61.5663 151.143 61.983C150.74 62.3949 150.243 62.7169 149.651 62.9489C149.059 63.1761 148.394 63.2898 147.655 63.2898ZM159.722 53.7159V52.1534H168.586V53.7159H165.006V63.0625H163.33V53.7159H159.722ZM173.674 63.3182C172.983 63.3182 172.356 63.188 171.792 62.9276C171.229 62.6624 170.782 62.2812 170.45 61.7841C170.119 61.2822 169.953 60.6761 169.953 59.9659C169.953 59.3409 170.076 58.8343 170.322 58.446C170.568 58.053 170.898 57.7453 171.309 57.5227C171.721 57.3002 172.176 57.1345 172.673 57.0256C173.175 56.9119 173.679 56.822 174.186 56.7557C174.849 56.6705 175.386 56.6065 175.798 56.5639C176.215 56.5166 176.518 56.4384 176.707 56.3295C176.901 56.2206 176.998 56.0312 176.998 55.7614V55.7045C176.998 55.0038 176.807 54.4593 176.423 54.071C176.044 53.6828 175.469 53.4886 174.697 53.4886C173.897 53.4886 173.27 53.6638 172.815 54.0142C172.361 54.3646 172.041 54.7386 171.856 55.1364L170.265 54.5682C170.549 53.9053 170.928 53.3892 171.402 53.0199C171.88 52.6458 172.401 52.3854 172.964 52.2386C173.532 52.0871 174.091 52.0114 174.64 52.0114C174.991 52.0114 175.393 52.054 175.848 52.1392C176.307 52.2197 176.75 52.3878 177.176 52.6435C177.607 52.8991 177.964 53.285 178.248 53.8011C178.532 54.3172 178.674 55.0085 178.674 55.875V63.0625H176.998V61.5852H176.913C176.799 61.822 176.61 62.0753 176.345 62.3452C176.08 62.6151 175.727 62.8447 175.287 63.0341C174.846 63.2235 174.309 63.3182 173.674 63.3182ZM173.93 61.8125C174.593 61.8125 175.152 61.6823 175.606 61.4219C176.066 61.1615 176.411 60.8253 176.643 60.4134C176.88 60.0014 176.998 59.5682 176.998 59.1136V57.5795C176.927 57.6648 176.771 57.7429 176.53 57.8139C176.293 57.8802 176.018 57.9394 175.706 57.9915C175.398 58.0388 175.097 58.0814 174.804 58.1193C174.515 58.1525 174.281 58.1809 174.101 58.2045C173.665 58.2614 173.258 58.3537 172.879 58.4815C172.505 58.6046 172.202 58.7917 171.97 59.0426C171.743 59.2888 171.629 59.625 171.629 60.0511C171.629 60.6335 171.844 61.0739 172.275 61.3722C172.711 61.6657 173.263 61.8125 173.93 61.8125ZM181.734 63.0625V52.1534H183.41V56.8977H184.518L188.438 52.1534H190.597L186.194 57.4091L190.654 63.0625H188.495L184.916 58.4602H183.41V63.0625H181.734ZM194.152 60.5909L199.408 52.1534H201.34V63.0625H199.663V54.625L194.436 63.0625H192.476V52.1534H194.152V60.5909ZM208.87 66.1875V61.5H209.779C210.001 61.268 210.193 61.017 210.354 60.7472C210.515 60.4773 210.655 60.1577 210.773 59.7884C210.896 59.4143 211 58.9598 211.086 58.4247C211.171 57.8849 211.247 57.2339 211.313 56.4716L211.682 52.1534H218.614V61.5H220.29V66.1875H218.614V63.0625H210.546V66.1875H208.87ZM211.682 61.5H216.938V53.7159H213.245L212.961 56.4716C212.842 57.6127 212.696 58.6094 212.52 59.4616C212.345 60.3139 212.066 60.9934 211.682 61.5ZM222.515 63.0625V52.1534H226.975C228.15 52.1534 229.082 52.4186 229.774 52.9489C230.465 53.4792 230.811 54.1799 230.811 55.0511C230.811 55.714 230.614 56.2277 230.221 56.5923C229.828 56.9522 229.324 57.196 228.708 57.3239C229.111 57.3807 229.501 57.5227 229.88 57.75C230.264 57.9773 230.581 58.2898 230.832 58.6875C231.083 59.0805 231.208 59.5634 231.208 60.1364C231.208 60.6951 231.066 61.1946 230.782 61.6349C230.498 62.0753 230.091 62.4233 229.561 62.679C229.03 62.9347 228.396 63.0625 227.657 63.0625H222.515ZM224.106 61.5284H227.657C228.235 61.5284 228.687 61.3911 229.014 61.1165C229.34 60.8419 229.504 60.4678 229.504 59.9943C229.504 59.4309 229.34 58.9882 229.014 58.6662C228.687 58.3395 228.235 58.1761 227.657 58.1761H224.106V61.5284ZM224.106 56.7273H226.975C227.425 56.7273 227.811 56.6657 228.133 56.5426C228.455 56.4148 228.701 56.2348 228.872 56.0028C229.047 55.7661 229.134 55.4867 229.134 55.1648C229.134 54.7055 228.943 54.3456 228.559 54.0852C228.176 53.8201 227.648 53.6875 226.975 53.6875H224.106V56.7273ZM238.177 63.2898C237.192 63.2898 236.328 63.0554 235.585 62.5866C234.846 62.1179 234.269 61.4621 233.852 60.6193C233.44 59.7765 233.234 58.7917 233.234 57.6648C233.234 56.5284 233.44 55.5365 233.852 54.6889C234.269 53.8414 234.846 53.1832 235.585 52.7145C236.328 52.2457 237.192 52.0114 238.177 52.0114C239.162 52.0114 240.024 52.2457 240.763 52.7145C241.506 53.1832 242.084 53.8414 242.496 54.6889C242.912 55.5365 243.121 56.5284 243.121 57.6648C243.121 58.7917 242.912 59.7765 242.496 60.6193C242.084 61.4621 241.506 62.1179 240.763 62.5866C240.024 63.0554 239.162 63.2898 238.177 63.2898ZM238.177 61.7841C238.925 61.7841 239.541 61.5923 240.024 61.2088C240.507 60.8253 240.864 60.321 241.096 59.696C241.328 59.071 241.444 58.3939 241.444 57.6648C241.444 56.9356 241.328 56.2562 241.096 55.6264C240.864 54.9967 240.507 54.4877 240.024 54.0994C239.541 53.7112 238.925 53.517 238.177 53.517C237.429 53.517 236.814 53.7112 236.331 54.0994C235.848 54.4877 235.49 54.9967 235.258 55.6264C235.026 56.2562 234.91 56.9356 234.91 57.6648C234.91 58.3939 235.026 59.071 235.258 59.696C235.49 60.321 235.848 60.8253 236.331 61.2088C236.814 61.5923 237.429 61.7841 238.177 61.7841ZM245.679 67.1534V52.1534H247.298V53.8864H247.497C247.62 53.697 247.791 53.4555 248.009 53.1619C248.231 52.8636 248.548 52.5985 248.96 52.3665C249.377 52.1297 249.94 52.0114 250.651 52.0114C251.569 52.0114 252.379 52.241 253.08 52.7003C253.78 53.1596 254.327 53.8106 254.72 54.6534C255.113 55.4962 255.31 56.4905 255.31 57.6364C255.31 58.7917 255.113 59.7931 254.72 60.6406C254.327 61.4834 253.783 62.1368 253.087 62.6009C252.391 63.0601 251.588 63.2898 250.679 63.2898C249.978 63.2898 249.417 63.1738 248.996 62.9418C248.574 62.705 248.25 62.4375 248.023 62.1392C247.796 61.8362 247.62 61.5852 247.497 61.3864H247.355V67.1534H245.679ZM247.327 57.608C247.327 58.4318 247.448 59.1586 247.689 59.7884C247.931 60.4134 248.283 60.9034 248.747 61.2585C249.211 61.6089 249.779 61.7841 250.452 61.7841C251.153 61.7841 251.737 61.5994 252.206 61.2301C252.68 60.8561 253.035 60.3542 253.271 59.7244C253.513 59.09 253.634 58.3845 253.634 57.608C253.634 56.8409 253.515 56.1496 253.279 55.5341C253.047 54.9138 252.694 54.4238 252.22 54.0639C251.752 53.6993 251.162 53.517 250.452 53.517C249.77 53.517 249.197 53.6899 248.733 54.0355C248.269 54.3764 247.919 54.8546 247.682 55.4702C247.445 56.081 247.327 56.7936 247.327 57.608ZM265.168 56.8409V58.4034H259.145V56.8409H265.168ZM259.543 52.1534V63.0625H257.867V52.1534H259.543ZM266.446 52.1534V63.0625H264.77V52.1534H266.446ZM271.183 60.5909L276.439 52.1534H278.371V63.0625H276.695V54.625L271.467 63.0625H269.507V52.1534H271.183V60.5909ZM281.441 63.0625V52.1534H283.117V56.8977H284.225L288.145 52.1534H290.304L285.901 57.4091L290.361 63.0625H288.202L284.623 58.4602H283.117V63.0625H281.441ZM296.166 63.2898C295.181 63.2898 294.317 63.0554 293.573 62.5866C292.835 62.1179 292.257 61.4621 291.84 60.6193C291.428 59.7765 291.222 58.7917 291.222 57.6648C291.222 56.5284 291.428 55.5365 291.84 54.6889C292.257 53.8414 292.835 53.1832 293.573 52.7145C294.317 52.2457 295.181 52.0114 296.166 52.0114C297.15 52.0114 298.012 52.2457 298.751 52.7145C299.494 53.1832 300.072 53.8414 300.484 54.6889C300.9 55.5365 301.109 56.5284 301.109 57.6648C301.109 58.7917 300.9 59.7765 300.484 60.6193C300.072 61.4621 299.494 62.1179 298.751 62.5866C298.012 63.0554 297.15 63.2898 296.166 63.2898ZM296.166 61.7841C296.914 61.7841 297.529 61.5923 298.012 61.2088C298.495 60.8253 298.853 60.321 299.085 59.696C299.317 59.071 299.433 58.3939 299.433 57.6648C299.433 56.9356 299.317 56.2562 299.085 55.6264C298.853 54.9967 298.495 54.4877 298.012 54.0994C297.529 53.7112 296.914 53.517 296.166 53.517C295.418 53.517 294.802 53.7112 294.319 54.0994C293.836 54.4877 293.479 54.9967 293.247 55.6264C293.015 56.2562 292.899 56.9356 292.899 57.6648C292.899 58.3939 293.015 59.071 293.247 59.696C293.479 60.321 293.836 60.8253 294.319 61.2088C294.802 61.5923 295.418 61.7841 296.166 61.7841ZM309.633 60.7898L313.44 52.1534H315.031L310.315 63.0625H308.951L304.321 52.1534H305.883L309.633 60.7898ZM305.344 52.1534V63.0625H303.667V52.1534H305.344ZM313.923 63.0625V52.1534H315.599V63.0625H313.923Z" fill="white"/>
</svg>
