<svg width="425" height="277" viewBox="0 0 425 277" fill="none" xmlns="http://www.w3.org/2000/svg">
<rect x="0.0610352" y="0.314697" width="424" height="276" rx="15" fill="white"/>
<path opacity="0.8" d="M318.224 49.8202C318.188 48.7946 318.17 48.2818 318.136 47.849C317.326 37.5653 308.791 29.606 298.476 29.516C298.042 29.5122 297.529 29.5301 296.504 29.5659L48.5297 38.2253C42.1413 38.4484 38.9471 38.56 36.3396 39.3107C28.5388 41.5568 22.6088 47.9159 20.9124 55.8543C20.3453 58.5079 20.4569 61.7021 20.68 68.0905V68.0905C20.7814 70.9943 20.8321 72.4462 21.1733 73.6314C22.1943 77.1772 25.0848 79.8727 28.6932 80.6438C29.8993 80.9015 31.3512 80.8508 34.255 80.7494L297.969 71.5403C298.995 71.5045 299.508 71.4866 299.94 71.4525C310.224 70.6432 318.184 62.1079 318.274 51.7927C318.277 51.3586 318.259 50.8458 318.224 49.8202V49.8202Z" fill="#BCA4FF"/>
<path d="M40.399 66.5263L39.8913 51.9897L48.6644 51.6834L48.7189 53.2449L41.7062 53.4898L41.8648 58.0325L45.5557 57.9036C46.5968 57.8672 47.4805 58.0069 48.2069 58.3227C48.9381 58.6383 49.499 59.0996 49.8898 59.7066C50.2852 60.3134 50.4977 61.038 50.5271 61.8803C50.5565 62.7225 50.3955 63.472 50.0442 64.1286C49.6976 64.785 49.171 65.308 48.4644 65.6975C47.7626 66.0868 46.8912 66.2996 45.8502 66.336L40.399 66.5263ZM42.1057 64.9317L45.7967 64.8028C46.4591 64.7797 47.0152 64.6276 47.465 64.3466C47.9193 64.0607 48.2574 63.703 48.4793 63.2736C48.7057 62.8393 48.8107 62.3855 48.7942 61.9123C48.7699 61.2167 48.4816 60.6275 47.9294 60.1446C47.377 59.6569 46.604 59.4304 45.6103 59.4651L41.9193 59.594L42.1057 64.9317ZM52.3821 66.1079L52.3275 64.5463L52.725 64.5324C53.0515 64.521 53.3214 64.4476 53.5346 64.3123C53.7476 64.1722 53.9147 63.9366 54.0358 63.6054C54.1615 63.2694 54.2495 62.8068 54.3 62.2175C54.3551 61.6234 54.3832 60.8691 54.3845 59.9547L54.4147 55.1211L61.683 54.8673L62.0637 65.7698L60.3886 65.8283L60.0624 56.4874L56.0591 56.6272L56.0246 60.5228C56.018 61.4185 55.9651 62.2091 55.8658 62.8948C55.7711 63.5756 55.6088 64.1498 55.3788 64.6174C55.1535 65.0849 54.8437 65.4415 54.4496 65.6874C54.0555 65.9333 53.5556 66.0669 52.9499 66.088L52.3821 66.1079ZM66.7259 63.1339L71.684 54.5181L73.6146 54.4507L73.9953 65.3531L72.3202 65.4116L72.0257 56.9792L67.0961 65.594L65.1371 65.6624L64.7564 54.76L66.4315 54.7015L66.7259 63.1339ZM84.143 58.7734L84.1975 60.3349L78.1784 60.5451L78.1239 58.9836L84.143 58.7734ZM78.3578 54.285L78.7385 65.1875L77.0634 65.246L76.6827 54.3435L78.3578 54.285ZM85.257 54.0441L85.6377 64.9465L83.9626 65.005L83.5819 54.1026L85.257 54.0441ZM93.5399 61.8848L95.3286 61.8223C95.3837 62.3131 95.6191 62.6792 96.035 62.9205C96.4556 63.1617 96.9948 63.2708 97.6525 63.2478C98.3245 63.2243 98.8946 63.067 99.3629 62.7759C99.8311 62.48 100.054 62.0221 100.033 61.4022C100.02 61.0379 99.919 60.724 99.7298 60.4605C99.5404 60.1924 99.2798 59.9883 98.948 59.8482C98.6162 59.7082 98.2279 59.646 97.7831 59.6615L95.9093 59.7269L95.8567 58.2222L97.7306 58.1567C98.3978 58.1334 98.8846 57.9648 99.1911 57.6509C99.5023 57.3368 99.65 56.9527 99.6341 56.4984C99.6171 56.011 99.4307 55.6266 99.075 55.3453C98.7192 55.0593 98.2242 54.9273 97.5902 54.9495C96.9513 54.9718 96.424 55.1347 96.0082 55.4382C95.5923 55.737 95.3803 56.1116 95.3723 56.5619L93.6121 56.6234C93.6105 56.036 93.7722 55.5116 94.0972 55.0501C94.4221 54.584 94.8734 54.2129 95.4512 53.9368C96.0289 53.6561 96.6963 53.5025 97.4534 53.4761C98.22 53.4493 98.8895 53.5609 99.4621 53.811C100.039 54.0562 100.49 54.4029 100.813 54.8511C101.141 55.2945 101.315 55.8048 101.336 56.3821C101.357 56.9973 101.202 57.5002 100.87 57.8908C100.537 58.2814 100.114 58.5662 99.5988 58.7453L99.6028 58.8589C100.015 58.8729 100.377 58.9929 100.688 59.2189C101.004 59.4401 101.254 59.7369 101.437 60.1095C101.621 60.4774 101.72 60.8885 101.736 61.3427C101.759 62.0052 101.602 62.5887 101.264 63.0932C100.927 63.593 100.452 63.9886 99.8419 64.28C99.2312 64.5666 98.5284 64.7238 97.7335 64.7516C96.9622 64.7785 96.2669 64.6772 95.6477 64.4478C95.0284 64.2135 94.531 63.8779 94.1557 63.441C93.785 62.9991 93.5797 62.4804 93.5399 61.8848ZM105.417 68.3492C105.133 68.3592 104.879 68.3443 104.655 68.3048C104.431 68.27 104.276 68.2327 104.189 68.1931L104.564 66.7019C104.974 66.7918 105.335 66.8171 105.646 66.7778C105.958 66.7385 106.23 66.5892 106.462 66.33C106.7 66.0753 106.91 65.6676 107.095 65.1069L107.377 64.2442L102.963 53.4258L104.78 53.3623L108.093 61.9451L108.206 61.9412L110.913 53.1482L112.73 53.0847L108.538 65.7387C108.349 66.3091 108.108 66.7842 107.813 67.164C107.519 67.5486 107.171 67.8379 106.77 68.0319C106.374 68.2258 105.923 68.3316 105.417 68.3492ZM121.204 61.4304L124.707 52.6665L126.297 52.6109L121.965 63.678L120.602 63.7256L115.594 52.9847L117.155 52.9302L121.204 61.4304ZM116.616 52.949L116.996 63.8515L115.321 63.91L114.941 53.0075L116.616 52.949ZM125.571 63.5521L125.19 52.6496L126.865 52.5911L127.246 63.4936L125.571 63.5521ZM140.371 63.2626C139.387 63.297 138.515 63.0929 137.756 62.6504C137.001 62.2077 136.401 61.5725 135.955 60.7448C135.514 59.9168 135.274 58.9398 135.234 57.8136C135.195 56.6779 135.366 55.6794 135.748 54.818C136.135 53.9564 136.689 53.2785 137.411 52.7843C138.138 52.2899 138.993 52.0255 139.977 51.9911C140.961 51.9567 141.831 52.1609 142.585 52.6036C143.345 53.0461 143.945 53.6837 144.386 54.5163C144.832 55.3488 145.075 56.3329 145.115 57.4685C145.154 58.5948 144.98 59.5863 144.593 60.4431C144.211 61.2998 143.656 61.9753 142.93 62.4697C142.208 62.964 141.355 63.2283 140.371 63.2626ZM140.318 61.7579C141.066 61.7318 141.674 61.5186 142.144 61.1185C142.613 60.7184 142.953 60.2019 143.163 59.5692C143.373 58.9365 143.465 58.2558 143.44 57.527C143.414 56.7983 143.274 56.1233 143.021 55.5021C142.767 54.8808 142.392 54.3846 141.896 54.0134C141.399 53.6423 140.777 53.4698 140.03 53.4959C139.282 53.522 138.674 53.7375 138.205 54.1423C137.736 54.5472 137.396 55.0684 137.186 55.7058C136.976 56.3433 136.884 57.0264 136.909 57.7551C136.935 58.4838 137.074 59.1564 137.328 59.7729C137.582 60.3895 137.957 60.881 138.453 61.2474C138.949 61.6138 139.571 61.784 140.318 61.7579ZM155.428 47.5003L156.316 48.4926C155.996 48.826 155.62 49.0641 155.189 49.2071C154.759 49.35 154.269 49.4453 153.721 49.4929C153.173 49.5404 152.564 49.5901 151.893 49.642C151.137 49.6968 150.516 49.9033 150.031 50.2613C149.546 50.6194 149.18 51.1249 148.933 51.7778C148.686 52.4308 148.541 53.2271 148.498 54.1667L148.64 54.1617C148.985 53.4674 149.478 52.948 150.12 52.6034C150.762 52.2588 151.457 52.0735 152.204 52.0474C153.056 52.0176 153.83 52.1896 154.525 52.5633C155.22 52.937 155.78 53.5073 156.205 54.2742C156.63 55.0411 156.862 55.9971 156.902 57.1422C156.942 58.2826 156.773 59.274 156.395 60.1163C156.021 60.9584 155.478 61.617 154.765 62.092C154.057 62.562 153.215 62.8141 152.24 62.8481C151.266 62.8822 150.403 62.6825 149.654 62.2491C148.904 61.811 148.31 61.1448 147.871 60.2505C147.433 59.3514 147.19 58.2299 147.143 56.886L147.102 55.722C147.017 53.2945 147.365 51.4394 148.144 50.1567C148.929 48.8738 150.151 48.182 151.81 48.0814C152.396 48.042 152.919 48.019 153.378 48.0125C153.837 48.0059 154.237 47.9706 154.575 47.9067C154.914 47.8427 155.199 47.7073 155.428 47.5003ZM152.188 61.3434C152.846 61.3204 153.405 61.135 153.867 60.7873C154.333 60.4394 154.684 59.9605 154.918 59.3506C155.153 58.736 155.255 58.0193 155.227 57.2007C155.199 56.4057 155.045 55.7336 154.766 55.1843C154.491 54.6349 154.109 54.2218 153.621 53.9451C153.133 53.6684 152.555 53.5417 151.888 53.565C151.4 53.582 150.966 53.6801 150.583 53.8593C150.201 54.0385 149.878 54.2937 149.615 54.6251C149.352 54.9565 149.153 55.3566 149.017 55.8257C148.887 56.2945 148.827 56.8272 148.839 57.4238C148.881 58.6446 149.202 59.6118 149.8 60.3252C150.398 61.0387 151.194 61.3781 152.188 61.3434ZM166.729 55.8894L166.784 57.4509L160.765 57.6611L160.71 56.0996L166.729 55.8894ZM160.944 51.401L161.325 62.3035L159.65 62.362L159.269 51.4595L160.944 51.401ZM167.843 51.1601L168.224 62.0626L166.549 62.1211L166.168 51.2186L167.843 51.1601ZM175.72 62.0282C174.736 62.0626 173.864 61.8585 173.105 61.416C172.351 60.9733 171.75 60.3381 171.305 59.5103C170.863 58.6824 170.623 57.7054 170.584 56.5791C170.544 55.4435 170.715 54.4449 171.098 53.5835C171.484 52.722 172.039 52.0441 172.761 51.5498C173.487 51.0554 174.343 50.791 175.327 50.7567C176.311 50.7223 177.18 50.9265 177.935 51.3691C178.694 51.8117 179.294 52.4492 179.736 53.2819C180.182 54.1144 180.425 55.0984 180.464 56.2341C180.504 57.3603 180.33 58.3518 179.943 59.2087C179.56 60.0653 179.006 60.7409 178.279 61.2353C177.558 61.7295 176.705 61.9938 175.72 62.0282ZM175.668 60.5234C176.415 60.4973 177.024 60.2842 177.493 59.8841C177.962 59.4839 178.302 58.9675 178.512 58.3348C178.722 57.7021 178.815 57.0213 178.789 56.2926C178.764 55.5639 178.624 54.8889 178.37 54.2676C178.116 53.6464 177.741 53.1502 177.245 52.779C176.749 52.4079 176.127 52.2353 175.379 52.2614C174.632 52.2875 174.023 52.503 173.554 52.9079C173.085 53.3128 172.746 53.8339 172.536 54.4714C172.326 55.1088 172.234 55.7919 172.259 56.5206C172.284 57.2494 172.424 57.922 172.678 58.5385C172.931 59.155 173.306 59.6465 173.802 60.013C174.298 60.3794 174.92 60.5495 175.668 60.5234ZM183.21 61.5393L182.829 50.6368L187.286 50.4812C188.46 50.4402 189.401 50.6726 190.111 51.1785C190.82 51.6843 191.19 52.3726 191.22 53.2433C191.244 53.9057 191.065 54.426 190.685 54.8041C190.305 55.1774 189.809 55.4387 189.199 55.588C189.603 55.6307 189.998 55.759 190.385 55.973C190.776 56.1867 191.104 56.4879 191.369 56.8767C191.633 57.2607 191.775 57.739 191.795 58.3115C191.815 58.8699 191.69 59.3741 191.422 59.8241C191.153 60.274 190.758 60.6361 190.237 60.9101C189.716 61.1841 189.087 61.334 188.349 61.3598L183.21 61.5393ZM184.746 59.9506L188.295 59.8267C188.872 59.8065 189.319 59.6535 189.636 59.3676C189.953 59.0818 190.103 58.7022 190.087 58.229C190.067 57.6659 189.889 57.2292 189.551 56.9188C189.213 56.6037 188.755 56.4563 188.178 56.4764L184.629 56.6004L184.746 59.9506ZM184.578 55.1524L187.446 55.0522C187.896 55.0365 188.279 54.9616 188.597 54.8273C188.914 54.6883 189.154 54.4999 189.316 54.2621C189.483 54.0194 189.561 53.7371 189.549 53.4153C189.533 52.9563 189.329 52.6034 188.937 52.3565C188.544 52.1049 188.012 51.9908 187.34 52.0143L184.472 52.1145L184.578 55.1524ZM193.468 61.181L193.413 59.6195L193.811 59.6056C194.137 59.5942 194.407 59.5208 194.62 59.3855C194.834 59.2454 195.001 59.0097 195.122 58.6786C195.247 58.3426 195.335 57.8799 195.386 57.2907C195.441 56.6966 195.469 55.9423 195.47 55.0279L195.501 50.1943L202.769 49.9405L203.15 60.8429L201.474 60.9014L201.148 51.5605L197.145 51.7003L197.11 55.596C197.104 56.4916 197.051 57.2823 196.952 57.968C196.857 58.6488 196.695 59.223 196.465 59.6906C196.239 60.158 195.93 60.5147 195.536 60.7606C195.141 61.0065 194.641 61.1401 194.036 61.1612L193.468 61.181ZM212.781 60.5066L212.454 51.1373L209.558 51.2384C208.905 51.2612 208.397 51.4306 208.034 51.7465C207.671 52.0624 207.498 52.4853 207.517 53.0153C207.535 53.5358 207.717 53.9393 208.064 54.2257C208.415 54.5119 208.886 54.6446 209.478 54.624L212.998 54.5011L213.053 56.0626L209.532 56.1855C208.794 56.2113 208.153 56.1034 207.609 55.8618C207.065 55.6202 206.641 55.2632 206.335 54.7906C206.029 54.3133 205.865 53.741 205.842 53.0738C205.818 52.4019 205.949 51.8193 206.235 51.326C206.521 50.8328 206.941 50.4462 207.495 50.1663C208.054 49.8862 208.724 49.7325 209.505 49.7053L213.991 49.5486L214.371 60.4511L212.781 60.5066ZM205.513 60.7604L208.419 55.2295L210.236 55.1661L207.33 60.697L205.513 60.7604ZM222.026 60.4112C220.975 60.4479 220.061 60.2477 219.283 59.8105C218.509 59.3685 217.902 58.7359 217.461 57.9127C217.025 57.0846 216.787 56.1122 216.748 54.9955C216.709 53.8787 216.878 52.8874 217.255 52.0214C217.637 51.1506 218.187 50.4634 218.903 49.9598C219.625 49.4514 220.477 49.18 221.462 49.1456C222.029 49.1258 222.594 49.2008 223.154 49.3708C223.714 49.5407 224.229 49.8307 224.698 50.2407C225.167 50.646 225.548 51.1917 225.842 51.8779C226.136 52.5641 226.301 53.4159 226.337 54.4332L226.361 55.143L217.957 55.4365L217.907 53.9885L224.607 53.7545C224.586 53.1394 224.444 52.5948 224.181 52.1207C223.923 51.6465 223.564 51.2776 223.105 51.0141C222.65 50.7505 222.12 50.6292 221.514 50.6504C220.847 50.6737 220.275 50.8594 219.8 51.2077C219.328 51.5511 218.972 51.9899 218.73 52.5242C218.488 53.0586 218.377 53.6262 218.398 54.2272L218.432 55.1925C218.461 56.0159 218.627 56.7089 218.931 57.2715C219.24 57.8293 219.655 58.2483 220.176 58.5286C220.697 58.8041 221.296 58.9301 221.973 58.9064C222.413 58.8911 222.808 58.8157 223.159 58.6802C223.514 58.5399 223.818 58.3398 224.069 58.0799C224.32 57.8153 224.51 57.4913 224.639 57.1077L226.273 57.5055C226.122 58.0603 225.853 58.553 225.465 58.9835C225.077 59.4092 224.592 59.7483 224.008 60.0008C223.425 60.2486 222.764 60.3854 222.026 60.4112ZM227.739 50.632L227.684 49.0704L236.543 48.7611L236.597 50.3226L233.02 50.4476L233.346 59.7885L231.671 59.847L231.345 50.5061L227.739 50.632ZM243.238 59.6704C242.216 59.7061 241.327 59.4955 240.572 59.0387C239.817 58.5818 239.226 57.9368 238.799 57.1036C238.372 56.2705 238.139 55.3097 238.101 54.2214C238.063 53.1141 238.232 52.1298 238.609 51.2686C238.991 50.4025 239.541 49.7177 240.257 49.2141C240.979 48.7057 241.832 48.4343 242.816 48.3999C243.582 48.3731 244.278 48.491 244.903 48.7534C245.528 49.0158 246.046 49.3957 246.457 49.8931C246.867 50.3904 247.132 50.9781 247.25 51.6562L245.575 51.7147C245.43 51.2223 245.131 50.7922 244.677 50.4242C244.228 50.0514 243.635 49.8779 242.897 49.9037C242.244 49.9265 241.677 50.1168 241.197 50.4747C240.721 50.8277 240.357 51.3166 240.104 51.9413C239.856 52.5611 239.746 53.2827 239.774 54.1061C239.804 54.9484 239.962 55.6772 240.249 56.2926C240.54 56.9078 240.936 57.3796 241.435 57.708C241.939 58.0363 242.523 58.1888 243.185 58.1657C243.621 58.1505 244.013 58.061 244.363 57.8972C244.712 57.7333 245.005 57.5052 245.241 57.2127C245.477 56.9202 245.641 56.5733 245.731 56.1722L247.406 56.1137C247.334 56.7606 247.12 57.3484 246.764 57.8773C246.413 58.4012 245.937 58.8252 245.337 59.1494C244.742 59.4687 244.042 59.6424 243.238 59.6704ZM256.524 58.9791L256.197 49.6098L253.301 49.7109C252.648 49.7337 252.14 49.9031 251.777 50.219C251.414 50.5349 251.241 50.9578 251.26 51.4878C251.278 52.0083 251.46 52.4117 251.807 52.6981C252.158 52.9843 252.629 53.1171 253.22 53.0965L256.741 52.9735L256.796 54.5351L253.275 54.658C252.537 54.6838 251.896 54.5759 251.352 54.3343C250.808 54.0927 250.384 53.7356 250.078 53.263C249.772 52.7857 249.608 52.2135 249.585 51.5463C249.561 50.8743 249.692 50.2917 249.978 49.7985C250.264 49.3053 250.684 48.9187 251.238 48.6388C251.797 48.3587 252.467 48.205 253.248 48.1777L257.734 48.0211L258.114 58.9235L256.524 58.9791ZM249.256 59.2329L252.161 53.702L253.978 53.6385L251.073 59.1694L249.256 59.2329Z" fill="black"/>
<path opacity="0.8" fill-rule="evenodd" clip-rule="evenodd" d="M286.796 95.9721C286.831 96.4048 286.848 96.9176 286.884 97.9433C286.92 98.9689 286.938 99.4817 286.934 99.9158C286.844 110.231 278.885 118.766 268.601 119.576C268.168 119.61 267.656 119.628 266.63 119.663L48.6887 127.274C45.8908 127.372 44.4918 127.421 43.3109 127.321C40.7098 127.102 38.2474 126.385 36.0228 125.262C35.2623 125.642 34.448 126.002 33.6053 126.303C28.6755 128.063 15.8272 128.421 15.8272 128.421C15.8272 128.421 22.7848 126.681 25.1518 119.777C25.5548 118.602 25.7792 115.994 25.9012 113.133C25.6537 112.294 25.4594 111.43 25.3223 110.546C25.1407 109.375 25.0918 107.976 24.9941 105.178C24.9127 102.847 24.872 101.681 24.9549 100.697C25.5975 93.0732 31.3735 86.8793 38.9337 85.7064C39.9097 85.555 41.0755 85.5143 43.4071 85.4329L265.164 77.6889C266.19 77.6531 266.703 77.6352 267.137 77.639C277.452 77.729 285.987 85.6883 286.796 95.9721Z" fill="#BCA4FF"/>
<path d="M42.6353 113.477L40.7899 113.541L45.6199 98.8184L47.437 98.7549L53.2823 113.105L51.4368 113.17L46.6655 101.084L46.552 101.088L42.6353 113.477ZM43.1184 107.775L50.5571 107.515L50.6116 109.077L43.173 109.336L43.1184 107.775ZM65.378 112.91C64.3559 112.946 63.4673 112.735 62.7123 112.278C61.9572 111.821 61.3662 111.176 60.9391 110.343C60.512 109.51 60.2795 108.549 60.2415 107.461C60.2028 106.354 60.3722 105.37 60.7496 104.508C61.1315 103.642 61.6808 102.957 62.3976 102.454C63.1189 101.945 63.9717 101.674 64.956 101.64C65.7226 101.613 66.4184 101.731 67.0435 101.993C67.6685 102.256 68.1864 102.635 68.597 103.133C69.0076 103.63 69.2721 104.218 69.3905 104.896L67.7154 104.954C67.5703 104.462 67.271 104.032 66.8175 103.664C66.3686 103.291 65.7751 103.118 65.0369 103.143C64.3839 103.166 63.8173 103.357 63.3371 103.714C62.8614 104.067 62.4971 104.556 62.2441 105.181C61.9957 105.801 61.8859 106.522 61.9146 107.346C61.9441 108.188 62.1022 108.917 62.389 109.532C62.6805 110.148 63.076 110.619 63.5754 110.948C64.0796 111.276 64.663 111.429 65.3254 111.405C65.7608 111.39 66.1533 111.301 66.5029 111.137C66.8525 110.973 67.1454 110.745 67.3815 110.452C67.6176 110.16 67.7808 109.813 67.8711 109.412L69.5462 109.353C69.474 110 69.26 110.588 68.9042 111.117C68.553 111.641 68.0774 112.065 67.4776 112.389C66.8823 112.708 66.1824 112.882 65.378 112.91ZM72.106 112.448L71.7253 101.545L73.4004 101.487L73.566 106.228L74.6733 106.19L78.4257 101.311L80.5835 101.236L76.3662 106.642L81.021 112.136L78.8632 112.212L75.1253 107.737L73.6205 107.79L73.7811 112.389L72.106 112.448ZM84.4305 109.544L89.3885 100.929L91.3192 100.861L91.6999 111.764L90.0248 111.822L89.7303 103.39L84.8007 112.004L82.8416 112.073L82.4609 101.17L84.136 101.112L84.4305 109.544ZM101.848 105.184L101.902 106.745L95.883 106.956L95.8285 105.394L101.848 105.184ZM96.0624 100.695L96.4431 111.598L94.768 111.656L94.3873 100.754L96.0624 100.695ZM102.962 100.455L103.342 111.357L101.667 111.415L101.286 100.513L102.962 100.455ZM107.607 104.244L110.73 104.135C112.007 104.09 112.996 104.38 113.695 105.005C114.394 105.629 114.761 106.438 114.796 107.432C114.819 108.085 114.688 108.684 114.404 109.23C114.12 109.77 113.69 110.209 113.114 110.547C112.538 110.88 111.824 111.061 110.973 111.091L106.402 111.25L106.021 100.348L107.696 100.289L108.022 109.63L110.918 109.529C111.581 109.506 112.119 109.312 112.532 108.947C112.946 108.582 113.143 108.125 113.124 107.576C113.104 106.999 112.874 106.535 112.436 106.186C111.997 105.836 111.447 105.673 110.784 105.696L107.661 105.805L107.607 104.244ZM127.528 110.74C126.505 110.776 125.617 110.565 124.862 110.108C124.107 109.651 123.516 109.006 123.089 108.173C122.662 107.34 122.429 106.379 122.391 105.291C122.352 104.184 122.522 103.199 122.899 102.338C123.281 101.472 123.83 100.787 124.547 100.284C125.269 99.7751 126.121 99.5037 127.106 99.4693C127.872 99.4425 128.568 99.5604 129.193 99.8228C129.818 100.085 130.336 100.465 130.747 100.962C131.157 101.46 131.422 102.048 131.54 102.726L129.865 102.784C129.72 102.292 129.421 101.862 128.967 101.494C128.518 101.121 127.925 100.947 127.187 100.973C126.534 100.996 125.967 101.186 125.487 101.544C125.011 101.897 124.647 102.386 124.394 103.011C124.145 103.631 124.036 104.352 124.064 105.176C124.094 106.018 124.252 106.747 124.539 107.362C124.83 107.977 125.226 108.449 125.725 108.777C126.229 109.106 126.813 109.258 127.475 109.235C127.91 109.22 128.303 109.13 128.652 108.967C129.002 108.803 129.295 108.575 129.531 108.282C129.767 107.99 129.93 107.643 130.021 107.242L131.696 107.183C131.624 107.83 131.41 108.418 131.054 108.947C130.703 109.471 130.227 109.895 129.627 110.219C129.032 110.538 128.332 110.712 127.528 110.74ZM138.693 110.35C137.671 110.386 136.782 110.175 136.027 109.718C135.272 109.261 134.681 108.616 134.254 107.783C133.827 106.95 133.594 105.989 133.556 104.901C133.518 103.794 133.687 102.809 134.064 101.948C134.446 101.082 134.996 100.397 135.712 99.8936C136.434 99.3852 137.286 99.1138 138.271 99.0794C139.037 99.0526 139.733 99.1705 140.358 99.4329C140.983 99.6953 141.501 100.075 141.912 100.573C142.322 101.07 142.587 101.658 142.705 102.336L141.03 102.394C140.885 101.902 140.586 101.472 140.132 101.104C139.683 100.731 139.09 100.557 138.352 100.583C137.699 100.606 137.132 100.796 136.652 101.154C136.176 101.507 135.812 101.996 135.559 102.621C135.31 103.241 135.201 103.962 135.229 104.786C135.259 105.628 135.417 106.357 135.704 106.972C135.995 107.587 136.391 108.059 136.89 108.388C137.394 108.716 137.978 108.868 138.64 108.845C139.075 108.83 139.468 108.74 139.818 108.577C140.167 108.413 140.46 108.185 140.696 107.892C140.932 107.6 141.096 107.253 141.186 106.852L142.861 106.793C142.789 107.44 142.575 108.028 142.219 108.557C141.868 109.081 141.392 109.505 140.792 109.829C140.197 110.148 139.497 110.322 138.693 110.35ZM146.626 102.881L149.749 102.772C151.026 102.727 152.015 103.017 152.714 103.642C153.414 104.267 153.781 105.076 153.815 106.07C153.838 106.723 153.707 107.322 153.423 107.867C153.139 108.408 152.709 108.847 152.133 109.184C151.557 109.517 150.844 109.698 149.992 109.728L145.421 109.888L145.04 98.9851L146.715 98.9266L147.041 108.268L149.937 108.166C150.6 108.143 151.138 107.949 151.551 107.584C151.965 107.219 152.162 106.762 152.143 106.213C152.123 105.636 151.894 105.173 151.455 104.823C151.016 104.474 150.466 104.31 149.803 104.334L146.68 104.443L146.626 102.881ZM155.67 109.53L155.289 98.6272L156.965 98.5687L157.345 109.471L155.67 109.53ZM159.446 109.398L159.392 107.836L159.789 107.822C160.116 107.811 160.386 107.738 160.599 107.602C160.812 107.462 160.979 107.227 161.1 106.895C161.226 106.559 161.314 106.097 161.364 105.507C161.419 104.913 161.447 104.159 161.449 103.245L161.479 98.4111L168.747 98.1573L169.128 109.06L167.453 109.118L167.127 99.7773L163.123 99.9171L163.089 103.813C163.082 104.708 163.029 105.499 162.93 106.185C162.835 106.866 162.673 107.44 162.443 107.907C162.218 108.375 161.908 108.731 161.514 108.977C161.12 109.223 160.62 109.357 160.014 109.378L159.446 109.398ZM172.201 108.952L171.821 98.0499L173.496 97.9915L173.661 102.733L174.768 102.694L178.521 97.816L180.679 97.7406L176.461 103.147L181.116 108.641L178.958 108.716L175.221 104.242L173.716 104.294L173.876 108.894L172.201 108.952ZM184.159 112.628C183.875 112.638 183.621 112.623 183.397 112.584C183.173 112.549 183.017 112.512 182.931 112.472L183.305 110.981C183.716 111.071 184.077 111.096 184.388 111.057C184.699 111.017 184.971 110.868 185.204 110.609C185.441 110.354 185.652 109.947 185.836 109.386L186.119 108.523L181.704 97.7048L183.521 97.6413L186.834 106.224L186.948 106.22L189.654 97.4272L191.471 97.3637L187.28 110.018C187.091 110.588 186.849 111.063 186.555 111.443C186.26 111.828 185.913 112.117 185.512 112.311C185.116 112.505 184.665 112.611 184.159 112.628ZM199.684 107.993L199.304 97.0902L207.878 96.7908L208.259 107.693L206.584 107.752L206.258 98.4108L201.033 98.5933L201.36 107.934L199.684 107.993ZM210.637 107.61L214.872 101.919L210.313 96.7058L212.3 96.6364L216.097 101.166L217.005 101.134L216.843 96.4777L218.518 96.4192L218.681 101.075L219.561 101.045L223.032 96.2616L225.02 96.1922L220.863 101.71L225.457 107.093L223.441 107.163L219.587 102.607L218.735 102.637L218.899 107.322L217.224 107.38L217.06 102.696L216.208 102.725L212.652 107.54L210.637 107.61Z" fill="black"/>
<path d="M273.74 62.3171C273.045 62.3414 272.446 62.1729 271.944 61.8117C271.441 61.4474 271.048 60.9083 270.765 60.1945C270.481 59.4777 270.321 58.6056 270.285 57.5783C270.25 56.5571 270.349 55.6806 270.582 54.9488C270.818 54.2138 271.174 53.647 271.649 53.2486C272.128 52.8469 272.712 52.634 273.401 52.61C274.09 52.5859 274.686 52.7576 275.188 53.125C275.694 53.4892 276.088 54.0297 276.372 54.7466C276.659 55.4603 276.82 56.3277 276.855 57.3488C276.891 58.3762 276.793 59.2573 276.56 59.9922C276.327 60.724 275.972 61.2891 275.496 61.6876C275.021 62.083 274.435 62.2929 273.74 62.3171ZM273.704 61.3021C274.393 61.2781 274.917 60.9272 275.275 60.2495C275.633 59.5718 275.791 58.6178 275.748 57.3875C275.719 56.5694 275.608 55.8758 275.412 55.3067C275.22 54.7375 274.955 54.3079 274.619 54.0179C274.285 53.7278 273.891 53.5906 273.436 53.6065C272.753 53.6304 272.231 53.9858 271.87 54.6728C271.509 55.3568 271.35 56.3124 271.393 57.5396C271.421 58.3578 271.532 59.0499 271.724 59.616C271.916 60.182 272.179 60.6086 272.512 60.8957C272.849 61.1826 273.246 61.3181 273.704 61.3021ZM281.187 52.3381C281.575 52.3276 281.965 52.3879 282.358 52.5189C282.75 52.65 283.112 52.8775 283.444 53.2016C283.775 53.5226 284.048 53.9673 284.262 54.5357C284.476 55.1041 284.598 55.822 284.628 56.6894C284.658 57.5291 284.604 58.2777 284.466 58.9354C284.332 59.5899 284.124 60.1453 283.841 60.6017C283.561 61.058 283.213 61.4089 282.797 61.6544C282.383 61.8998 281.911 62.0318 281.379 62.0504C280.85 62.0689 280.374 61.9808 279.951 61.7861C279.532 61.5883 279.183 61.3064 278.906 60.9403C278.631 60.5712 278.448 60.1387 278.357 59.643L279.482 59.6037C279.599 60.0338 279.813 60.3851 280.124 60.6576C280.439 60.9268 280.845 61.0528 281.343 61.0354C282.072 61.0099 282.636 60.6715 283.035 60.0201C283.438 59.3686 283.618 58.4615 283.578 57.2989L283.504 57.3014C283.341 57.5658 283.144 57.796 282.914 57.9918C282.683 58.1877 282.426 58.3415 282.14 58.4531C281.854 58.5647 281.549 58.6262 281.223 58.6376C280.681 58.6565 280.18 58.54 279.718 58.2882C279.26 58.0332 278.887 57.6752 278.6 57.214C278.316 56.7497 278.163 56.213 278.142 55.604C278.122 55.0258 278.232 54.4922 278.474 54.0034C278.718 53.5114 279.071 53.1141 279.532 52.8116C279.995 52.509 280.547 52.3512 281.187 52.3381ZM281.223 53.3531C280.835 53.3666 280.489 53.4757 280.186 53.6803C279.885 53.8818 279.649 54.1487 279.479 54.481C279.312 54.8102 279.235 55.1717 279.249 55.5654C279.263 55.9591 279.361 56.3144 279.545 56.6313C279.731 56.9451 279.979 57.192 280.287 57.3722C280.598 57.5492 280.947 57.6309 281.335 57.6174C281.627 57.6072 281.897 57.5408 282.145 57.4182C282.394 57.2925 282.608 57.1264 282.789 56.9199C282.972 56.7103 283.113 56.4759 283.212 56.2169C283.311 55.9547 283.355 55.6837 283.345 55.4038C283.332 55.0347 283.231 54.6918 283.041 54.3751C282.855 54.0583 282.603 53.8053 282.285 53.6162C281.971 53.427 281.616 53.3393 281.223 53.3531ZM287.131 60.5099C286.903 60.5179 286.705 60.4432 286.537 60.2858C286.368 60.1285 286.279 59.9361 286.272 59.7084C286.264 59.4808 286.338 59.2827 286.496 59.114C286.653 58.9453 286.845 58.8569 287.073 58.849C287.301 58.841 287.499 58.9157 287.667 59.0731C287.836 59.2304 287.925 59.4228 287.932 59.6504C287.938 59.8012 287.904 59.9409 287.832 60.0697C287.762 60.1984 287.666 60.3034 287.542 60.3847C287.422 60.4628 287.285 60.5045 287.131 60.5099ZM286.964 55.7302C286.736 55.7381 286.538 55.6634 286.37 55.5061C286.201 55.3488 286.113 55.1563 286.105 54.9287C286.097 54.7011 286.171 54.5029 286.329 54.3342C286.486 54.1655 286.678 54.0772 286.906 54.0692C287.134 54.0613 287.332 54.136 287.501 54.2933C287.669 54.4506 287.758 54.6431 287.766 54.8707C287.771 55.0214 287.737 55.1612 287.665 55.2899C287.595 55.4186 287.499 55.5236 287.375 55.6049C287.255 55.683 287.118 55.7248 286.964 55.7302ZM289.679 61.6312L289.65 60.8007L292.65 57.2777C293.002 56.8651 293.291 56.507 293.518 56.2034C293.744 55.8968 293.91 55.6108 294.014 55.3454C294.122 55.0768 294.171 54.7979 294.161 54.5088C294.149 54.1766 294.059 53.8918 293.891 53.6544C293.725 53.4169 293.503 53.2368 293.225 53.1141C292.947 52.9914 292.637 52.936 292.295 52.9479C291.932 52.9606 291.618 53.047 291.353 53.2072C291.09 53.3642 290.89 53.579 290.752 53.8518C290.617 54.1244 290.555 54.4407 290.568 54.8005L289.479 54.8386C289.46 54.2849 289.57 53.7945 289.811 53.3673C290.052 52.9401 290.388 52.6019 290.82 52.3528C291.254 52.1035 291.747 51.9693 292.298 51.9501C292.851 51.9308 293.346 52.0305 293.782 52.2493C294.217 52.4682 294.563 52.7717 294.82 53.16C295.077 53.5483 295.214 53.9854 295.231 54.4714C295.243 54.819 295.192 55.161 295.078 55.4976C294.966 55.831 294.763 56.2061 294.47 56.6229C294.18 57.0364 293.774 57.5433 293.253 58.1435L291.21 60.4876L291.212 60.5614L295.605 60.408L295.64 61.423L289.679 61.6312ZM300.372 61.3871C299.677 61.4114 299.078 61.2429 298.576 60.8817C298.074 60.5173 297.681 59.9783 297.397 59.2645C297.113 58.5476 296.954 57.6756 296.918 56.6482C296.882 55.6271 296.981 54.7506 297.214 54.0188C297.45 53.2838 297.806 52.717 298.282 52.3185C298.76 51.9169 299.344 51.704 300.033 51.68C300.722 51.6559 301.318 51.8276 301.82 52.195C302.326 52.5592 302.72 53.0997 303.004 53.8166C303.291 54.5302 303.452 55.3977 303.488 56.4188C303.523 57.4461 303.425 58.3272 303.192 59.0621C302.959 59.794 302.604 60.3591 302.129 60.7576C301.653 61.153 301.067 61.3628 300.372 61.3871ZM300.337 60.3721C301.026 60.348 301.549 59.9972 301.907 59.3195C302.266 58.6418 302.423 57.6878 302.38 56.4575C302.352 55.6393 302.24 54.9457 302.044 54.3767C301.852 53.8075 301.588 53.3779 301.251 53.0879C300.918 52.7977 300.523 52.6606 300.068 52.6765C299.385 52.7004 298.863 53.0558 298.502 53.7428C298.141 54.4268 297.982 55.3823 298.025 56.6096C298.054 57.4277 298.164 58.1199 298.356 58.6859C298.548 59.252 298.811 59.6786 299.145 59.9657C299.481 60.2526 299.878 60.3881 300.337 60.3721Z" fill="#4200FF"/>
<path d="M240.339 108.704C239.643 108.728 239.045 108.559 238.542 108.198C238.04 107.834 237.647 107.295 237.364 106.581C237.08 105.864 236.92 104.992 236.884 103.965C236.848 102.944 236.947 102.067 237.18 101.335C237.416 100.6 237.772 100.034 238.248 99.635C238.727 99.2334 239.311 99.0205 240 98.9965C240.689 98.9724 241.284 99.1441 241.787 99.5115C242.292 99.8757 242.687 100.416 242.97 101.133C243.257 101.847 243.418 102.714 243.454 103.735C243.49 104.763 243.391 105.644 243.158 106.379C242.925 107.11 242.571 107.676 242.095 108.074C241.619 108.469 241.034 108.679 240.339 108.704ZM240.303 107.689C240.992 107.665 241.516 107.314 241.874 106.636C242.232 105.958 242.39 105.004 242.347 103.774C242.318 102.956 242.206 102.262 242.011 101.693C241.818 101.124 241.554 100.694 241.217 100.404C240.884 100.114 240.49 99.9771 240.034 99.993C239.352 100.017 238.83 100.372 238.469 101.059C238.108 101.743 237.949 102.699 237.991 103.926C238.02 104.744 238.13 105.436 238.323 106.002C238.515 106.569 238.778 106.995 239.111 107.282C239.447 107.569 239.845 107.705 240.303 107.689ZM247.786 98.7245C248.174 98.7141 248.564 98.7744 248.956 98.9054C249.349 99.0364 249.711 99.264 250.043 99.5881C250.374 99.9091 250.647 100.354 250.861 100.922C251.074 101.491 251.197 102.208 251.227 103.076C251.256 103.916 251.202 104.664 251.065 105.322C250.931 105.976 250.722 106.532 250.44 106.988C250.16 107.444 249.812 107.795 249.395 108.041C248.982 108.286 248.509 108.418 247.977 108.437C247.448 108.455 246.972 108.367 246.55 108.173C246.13 107.975 245.782 107.693 245.504 107.327C245.23 106.958 245.047 106.525 244.955 106.029L246.081 105.99C246.198 106.42 246.412 106.772 246.723 107.044C247.037 107.313 247.444 107.439 247.942 107.422C248.671 107.396 249.235 107.058 249.634 106.407C250.036 105.755 250.217 104.848 250.176 103.685L250.103 103.688C249.939 103.952 249.743 104.182 249.512 104.378C249.282 104.574 249.024 104.728 248.739 104.84C248.453 104.951 248.147 105.013 247.821 105.024C247.28 105.043 246.778 104.926 246.317 104.675C245.858 104.42 245.486 104.062 245.199 103.6C244.914 103.136 244.762 102.599 244.74 101.99C244.72 101.412 244.831 100.879 245.073 100.39C245.317 99.8978 245.67 99.5006 246.13 99.1981C246.594 98.8955 247.146 98.7377 247.786 98.7245ZM247.821 99.7396C247.434 99.7531 247.088 99.8622 246.784 100.067C246.483 100.268 246.248 100.535 246.078 100.867C245.911 101.197 245.834 101.558 245.848 101.952C245.861 102.346 245.96 102.701 246.144 103.018C246.33 103.332 246.577 103.579 246.885 103.759C247.197 103.936 247.546 104.017 247.933 104.004C248.226 103.994 248.496 103.927 248.744 103.805C248.992 103.679 249.207 103.513 249.387 103.306C249.571 103.097 249.712 102.862 249.811 102.603C249.909 102.341 249.954 102.07 249.944 101.79C249.931 101.421 249.83 101.078 249.64 100.762C249.454 100.445 249.201 100.192 248.884 100.003C248.569 99.8135 248.215 99.7258 247.821 99.7396ZM253.73 106.896C253.502 106.904 253.304 106.83 253.135 106.672C252.966 106.515 252.878 106.323 252.87 106.095C252.862 105.867 252.937 105.669 253.094 105.5C253.252 105.332 253.444 105.243 253.672 105.235C253.899 105.228 254.097 105.302 254.266 105.46C254.435 105.617 254.523 105.809 254.531 106.037C254.536 106.188 254.503 106.327 254.43 106.456C254.361 106.585 254.264 106.69 254.141 106.771C254.021 106.849 253.883 106.891 253.73 106.896ZM253.563 102.117C253.335 102.125 253.137 102.05 252.968 101.893C252.8 101.735 252.711 101.543 252.703 101.315C252.695 101.088 252.77 100.889 252.927 100.721C253.085 100.552 253.277 100.464 253.505 100.456C253.732 100.448 253.93 100.522 254.099 100.68C254.268 100.837 254.356 101.03 254.364 101.257C254.369 101.408 254.336 101.548 254.263 101.676C254.194 101.805 254.097 101.91 253.974 101.991C253.854 102.07 253.717 102.111 253.563 102.117ZM256.278 108.018L256.249 107.187L259.249 103.664C259.601 103.252 259.89 102.893 260.116 102.59C260.343 102.283 260.508 101.997 260.613 101.732C260.721 101.463 260.769 101.184 260.759 100.895C260.748 100.563 260.658 100.278 260.489 100.041C260.324 99.8034 260.102 99.6233 259.824 99.5006C259.545 99.3779 259.235 99.3225 258.894 99.3344C258.531 99.3471 258.217 99.4335 257.952 99.5937C257.689 99.7507 257.489 99.9655 257.35 100.238C257.215 100.511 257.154 100.827 257.166 101.187L256.078 101.225C256.058 100.671 256.169 100.181 256.41 99.7538C256.65 99.3265 256.987 98.9884 257.418 98.7392C257.853 98.49 258.346 98.3558 258.896 98.3366C259.45 98.3172 259.944 98.417 260.38 98.6358C260.816 98.8546 261.162 99.1582 261.419 99.5465C261.676 99.9348 261.813 100.372 261.83 100.858C261.842 101.205 261.791 101.548 261.676 101.884C261.565 102.218 261.362 102.593 261.069 103.009C260.778 103.423 260.373 103.93 259.852 104.53L257.809 106.874L257.811 106.948L262.203 106.794L262.239 107.809L256.278 108.018ZM266.842 107.778C266.3 107.797 265.809 107.706 265.368 107.506C264.927 107.306 264.569 107.023 264.294 106.657C264.02 106.291 263.862 105.868 263.82 105.389L264.928 105.351C264.986 105.777 265.192 106.123 265.546 106.391C265.903 106.656 266.323 106.78 266.806 106.763C267.194 106.75 267.535 106.647 267.83 106.455C268.128 106.263 268.358 106.005 268.519 105.682C268.683 105.356 268.758 104.992 268.744 104.589C268.73 104.177 268.626 103.812 268.434 103.496C268.244 103.176 267.989 102.928 267.668 102.751C267.348 102.574 266.987 102.492 266.583 102.503C266.294 102.51 265.999 102.565 265.698 102.668C265.396 102.767 265.15 102.891 264.958 103.04L263.883 102.948L264.293 98.2775L269.202 98.106L269.237 99.121L265.288 99.259L265.053 102.057L265.108 102.055C265.297 101.895 265.535 101.759 265.824 101.647C266.112 101.535 266.415 101.474 266.732 101.463C267.31 101.443 267.83 101.563 268.292 101.824C268.757 102.082 269.127 102.445 269.402 102.912C269.68 103.38 269.83 103.92 269.851 104.532C269.872 105.135 269.755 105.678 269.501 106.161C269.25 106.641 268.894 107.026 268.433 107.316C267.972 107.603 267.441 107.757 266.842 107.778Z" fill="#4200FF"/>
</svg>
