<svg width="425" height="277" viewBox="0 0 425 277" fill="none" xmlns="http://www.w3.org/2000/svg">
<rect x="0.687012" y="0.314575" width="424" height="276" rx="15" fill="white"/>
<path opacity="0.8" fill-rule="evenodd" clip-rule="evenodd" d="M375.477 53.8326C375.496 54.2663 375.496 54.7794 375.496 55.8057C375.496 56.8319 375.496 57.345 375.477 57.7787C375.027 68.0844 366.775 76.3368 356.469 76.7867C356.035 76.8057 355.522 76.8057 354.496 76.8057L162.293 76.8057C159.493 76.8057 158.093 76.8057 156.916 76.665C153.455 76.2511 150.271 74.958 147.594 73.0141C146.709 73.8014 145.543 74.7038 144.291 75.3088C141.006 76.8959 132.54 76.8046 132.54 76.8046C132.54 76.8046 137.16 75.3088 138.877 68.4918C139.235 67.0695 139.466 63.489 139.612 59.9208C139.579 59.706 139.55 59.4899 139.524 59.2728C139.383 58.0961 139.383 56.6962 139.383 53.8966C139.383 51.5635 139.383 50.397 139.501 49.4164C140.409 41.8198 146.398 35.8312 153.994 34.9229C154.975 34.8057 156.141 34.8057 158.474 34.8057H354.496C355.522 34.8057 356.035 34.8057 356.469 34.8246C366.775 35.2746 375.027 43.5269 375.477 53.8326Z" fill="#FFA3D6"/>
<path d="M330.798 57.1589V66.6134H329.653V58.3591H329.598L327.29 59.8918V58.7285L329.653 57.1589H330.798ZM336.286 66.7427C335.652 66.7427 335.092 66.6303 334.605 66.4057C334.122 66.1779 333.745 65.8655 333.474 65.4685C333.203 65.0684 333.07 64.6129 333.073 64.102C333.07 63.7019 333.148 63.3326 333.308 62.9941C333.468 62.6525 333.687 62.3678 333.964 62.14C334.244 61.9092 334.556 61.763 334.901 61.7015V61.6461C334.448 61.5291 334.088 61.2752 333.82 60.8844C333.553 60.4904 333.42 60.0426 333.423 59.541C333.42 59.0608 333.542 58.6315 333.788 58.253C334.034 57.8744 334.373 57.5759 334.804 57.3574C335.238 57.1389 335.732 57.0296 336.286 57.0296C336.833 57.0296 337.323 57.1389 337.754 57.3574C338.185 57.5759 338.523 57.8744 338.769 58.253C339.019 58.6315 339.145 59.0608 339.148 59.541C339.145 60.0426 339.008 60.4904 338.737 60.8844C338.469 61.2752 338.114 61.5291 337.671 61.6461V61.7015C338.012 61.763 338.32 61.9092 338.594 62.14C338.868 62.3678 339.086 62.6525 339.249 62.9941C339.413 63.3326 339.496 63.7019 339.499 64.102C339.496 64.6129 339.357 65.0684 339.083 65.4685C338.812 65.8655 338.435 66.1779 337.952 66.4057C337.472 66.6303 336.917 66.7427 336.286 66.7427ZM336.286 65.727C336.713 65.727 337.083 65.6578 337.394 65.5193C337.704 65.3808 337.945 65.1854 338.114 64.933C338.283 64.6806 338.369 64.3852 338.372 64.0466C338.369 63.6896 338.277 63.3742 338.095 63.1003C337.914 62.8264 337.666 62.6109 337.352 62.454C337.041 62.297 336.686 62.2185 336.286 62.2185C335.883 62.2185 335.522 62.297 335.205 62.454C334.892 62.6109 334.644 62.8264 334.462 63.1003C334.284 63.3742 334.196 63.6896 334.199 64.0466C334.196 64.3852 334.278 64.6806 334.444 64.933C334.613 65.1854 334.855 65.3808 335.168 65.5193C335.482 65.6578 335.855 65.727 336.286 65.727ZM336.286 61.2398C336.624 61.2398 336.924 61.1721 337.186 61.0367C337.451 60.9013 337.658 60.712 337.809 60.4689C337.96 60.2257 338.037 59.9411 338.04 59.6148C338.037 59.2947 337.961 59.0162 337.814 58.7792C337.666 58.5392 337.461 58.3545 337.2 58.2253C336.938 58.0929 336.633 58.0268 336.286 58.0268C335.932 58.0268 335.622 58.0929 335.358 58.2253C335.093 58.3545 334.888 58.5392 334.744 58.7792C334.599 59.0162 334.528 59.2947 334.531 59.6148C334.528 59.9411 334.601 60.2257 334.748 60.4689C334.899 60.712 335.107 60.9013 335.372 61.0367C335.636 61.1721 335.941 61.2398 336.286 61.2398ZM341.821 65.4039C341.593 65.4039 341.397 65.3223 341.234 65.1592C341.071 64.9961 340.99 64.8007 340.99 64.5729C340.99 64.3452 341.071 64.1497 341.234 63.9866C341.397 63.8235 341.593 63.742 341.821 63.742C342.048 63.742 342.244 63.8235 342.407 63.9866C342.57 64.1497 342.651 64.3452 342.651 64.5729C342.651 64.7237 342.613 64.8622 342.536 64.9884C342.462 65.1146 342.362 65.2161 342.236 65.2931C342.113 65.367 341.974 65.4039 341.821 65.4039ZM341.821 60.6212C341.593 60.6212 341.397 60.5397 341.234 60.3765C341.071 60.2134 340.99 60.018 340.99 59.7902C340.99 59.5625 341.071 59.3671 341.234 59.204C341.397 59.0408 341.593 58.9593 341.821 58.9593C342.048 58.9593 342.244 59.0408 342.407 59.204C342.57 59.3671 342.651 59.5625 342.651 59.7902C342.651 59.9411 342.613 60.0795 342.536 60.2057C342.462 60.3319 342.362 60.4335 342.236 60.5104C342.113 60.5843 341.974 60.6212 341.821 60.6212ZM347.283 66.7427C346.741 66.7427 346.253 66.6349 345.819 66.4195C345.385 66.2041 345.037 65.9086 344.776 65.5331C344.514 65.1577 344.371 64.7299 344.347 64.2498H345.455C345.498 64.6776 345.691 65.0315 346.036 65.3116C346.384 65.5885 346.799 65.727 347.283 65.727C347.67 65.727 348.015 65.6362 348.317 65.4547C348.621 65.2731 348.86 65.0238 349.032 64.7068C349.208 64.3867 349.295 64.0251 349.295 63.6219C349.295 63.2095 349.205 62.8417 349.023 62.5186C348.845 62.1924 348.598 61.9354 348.284 61.7476C347.97 61.5599 347.612 61.4645 347.209 61.4614C346.919 61.4583 346.622 61.503 346.318 61.5953C346.013 61.6845 345.762 61.8 345.565 61.9415L344.494 61.8123L345.067 57.1589H349.979V58.1745H346.027L345.695 60.9628H345.75C345.944 60.809 346.187 60.6812 346.479 60.5797C346.772 60.4781 347.076 60.4273 347.393 60.4273C347.972 60.4273 348.488 60.5658 348.94 60.8428C349.395 61.1167 349.752 61.4922 350.011 61.9692C350.273 62.4463 350.403 62.991 350.403 63.6035C350.403 64.2067 350.268 64.7453 349.997 65.2192C349.729 65.6901 349.36 66.0625 348.889 66.3364C348.418 66.6072 347.883 66.7427 347.283 66.7427ZM355.116 66.7427C354.729 66.7365 354.341 66.6626 353.953 66.5211C353.565 66.3795 353.211 66.141 352.891 65.8055C352.571 65.467 352.314 65.0099 352.12 64.4344C351.926 63.8558 351.83 63.1295 351.83 62.2554C351.83 61.4183 351.908 60.6766 352.065 60.0303C352.222 59.3809 352.45 58.8346 352.748 58.3915C353.047 57.9452 353.407 57.6067 353.828 57.3758C354.253 57.145 354.732 57.0296 355.264 57.0296C355.794 57.0296 356.264 57.1358 356.677 57.3481C357.092 57.5574 357.431 57.8498 357.692 58.2253C357.954 58.6007 358.123 59.0331 358.2 59.5225H357.074C356.969 59.0978 356.766 58.7454 356.464 58.4653C356.163 58.1853 355.763 58.0452 355.264 58.0452C354.532 58.0452 353.955 58.3638 353.533 59.0008C353.114 59.6379 352.904 60.532 352.901 61.683H352.974C353.147 61.4214 353.351 61.1983 353.588 61.0136C353.828 60.8259 354.093 60.6812 354.382 60.5797C354.672 60.4781 354.978 60.4273 355.301 60.4273C355.843 60.4273 356.338 60.5627 356.788 60.8336C357.237 61.1013 357.597 61.4722 357.868 61.9461C358.139 62.417 358.274 62.9572 358.274 63.5665C358.274 64.1513 358.143 64.6868 357.882 65.1731C357.62 65.6563 357.252 66.041 356.778 66.3272C356.308 66.6103 355.754 66.7488 355.116 66.7427ZM355.116 65.727C355.504 65.727 355.852 65.6301 356.16 65.4362C356.471 65.2423 356.715 64.9822 356.894 64.656C357.075 64.3298 357.166 63.9666 357.166 63.5665C357.166 63.1757 357.078 62.8202 356.903 62.5001C356.731 62.177 356.492 61.92 356.187 61.7292C355.886 61.5384 355.541 61.4429 355.153 61.4429C354.861 61.4429 354.589 61.5014 354.336 61.6184C354.084 61.7322 353.862 61.8892 353.672 62.0893C353.484 62.2893 353.336 62.5186 353.228 62.7771C353.121 63.0326 353.067 63.3019 353.067 63.585C353.067 63.9605 353.154 64.3113 353.33 64.6376C353.508 64.9638 353.752 65.2269 354.059 65.427C354.37 65.627 354.723 65.727 355.116 65.727Z" fill="#FF3DA8"/>
<path d="M159.257 62.8057V48.2602H168.035V49.8227H161.018V54.3682H164.712C165.753 54.3682 166.631 54.5386 167.346 54.8795C168.066 55.2204 168.611 55.701 168.98 56.3213C169.354 56.9416 169.541 57.6731 169.541 58.5159C169.541 59.3587 169.354 60.1021 168.98 60.746C168.611 61.3899 168.066 61.8942 167.346 62.2588C166.631 62.6234 165.753 62.8057 164.712 62.8057H159.257ZM161.018 61.2716H164.712C165.374 61.2716 165.935 61.139 166.395 60.8738C166.859 60.604 167.209 60.2583 167.446 59.8369C167.687 59.4108 167.808 58.961 167.808 58.4875C167.808 57.7915 167.541 57.1925 167.006 56.6906C166.471 56.184 165.706 55.9307 164.712 55.9307H161.018V61.2716ZM171.247 62.8057V61.2432H171.645C171.972 61.2432 172.244 61.1792 172.462 61.0514C172.68 60.9188 172.855 60.6892 172.987 60.3625C173.125 60.031 173.229 59.5718 173.3 58.9846C173.376 58.3928 173.43 57.6399 173.463 56.7261L173.662 51.8966H180.935V62.8057H179.259V53.4591H175.253L175.083 57.3511C175.045 58.246 174.964 59.0344 174.841 59.7162C174.723 60.3933 174.54 60.9614 174.294 61.4207C174.053 61.88 173.731 62.2256 173.328 62.4577C172.926 62.6897 172.422 62.8057 171.816 62.8057H171.247ZM187.22 63.0613C186.529 63.0613 185.902 62.9311 185.338 62.6707C184.775 62.4056 184.327 62.0244 183.996 61.5273C183.665 61.0254 183.499 60.4193 183.499 59.7091C183.499 59.0841 183.622 58.5774 183.868 58.1892C184.114 57.7962 184.443 57.4884 184.855 57.2659C185.267 57.0434 185.722 56.8776 186.219 56.7687C186.721 56.6551 187.225 56.5651 187.732 56.4988C188.395 56.4136 188.932 56.3497 189.344 56.3071C189.761 56.2597 190.064 56.1816 190.253 56.0727C190.447 55.9638 190.544 55.7744 190.544 55.5045V55.4477C190.544 54.747 190.352 54.2024 189.969 53.8142C189.59 53.4259 189.015 53.2318 188.243 53.2318C187.443 53.2318 186.816 53.407 186.361 53.7574C185.906 54.1077 185.587 54.4818 185.402 54.8795L183.811 54.3113C184.095 53.6485 184.474 53.1324 184.948 52.7631C185.426 52.389 185.947 52.1286 186.51 51.9818C187.078 51.8303 187.637 51.7545 188.186 51.7545C188.537 51.7545 188.939 51.7971 189.394 51.8824C189.853 51.9629 190.296 52.1309 190.722 52.3866C191.153 52.6423 191.51 53.0282 191.794 53.5443C192.078 54.0604 192.22 54.7517 192.22 55.6182V62.8057H190.544V61.3284H190.459C190.345 61.5651 190.156 61.8184 189.891 62.0883C189.626 62.3582 189.273 62.5879 188.833 62.7773C188.392 62.9666 187.855 63.0613 187.22 63.0613ZM187.476 61.5557C188.139 61.5557 188.698 61.4255 189.152 61.165C189.611 60.9046 189.957 60.5684 190.189 60.1565C190.426 59.7446 190.544 59.3113 190.544 58.8568V57.3227C190.473 57.4079 190.317 57.4861 190.076 57.5571C189.839 57.6234 189.564 57.6826 189.252 57.7346C188.944 57.782 188.643 57.8246 188.35 57.8625C188.061 57.8956 187.826 57.924 187.647 57.9477C187.211 58.0045 186.804 58.0969 186.425 58.2247C186.051 58.3478 185.748 58.5348 185.516 58.7858C185.289 59.032 185.175 59.3682 185.175 59.7943C185.175 60.3767 185.39 60.817 185.821 61.1153C186.257 61.4089 186.808 61.5557 187.476 61.5557ZM202.013 51.8966V53.4591H196.956V62.8057H195.28V51.8966H202.013ZM208.325 63.0329C207.34 63.0329 206.476 62.7986 205.732 62.3298C204.994 61.8611 204.416 61.2053 204 60.3625C203.588 59.5197 203.382 58.5348 203.382 57.4079C203.382 56.2716 203.588 55.2796 204 54.4321C204.416 53.5845 204.994 52.9264 205.732 52.4577C206.476 51.9889 207.34 51.7545 208.325 51.7545C209.31 51.7545 210.171 51.9889 210.91 52.4577C211.653 52.9264 212.231 53.5845 212.643 54.4321C213.06 55.2796 213.268 56.2716 213.268 57.4079C213.268 58.5348 213.06 59.5197 212.643 60.3625C212.231 61.2053 211.653 61.8611 210.91 62.3298C210.171 62.7986 209.31 63.0329 208.325 63.0329ZM208.325 61.5273C209.073 61.5273 209.688 61.3355 210.171 60.952C210.654 60.5684 211.012 60.0642 211.244 59.4392C211.476 58.8142 211.592 58.1371 211.592 57.4079C211.592 56.6788 211.476 55.9993 211.244 55.3696C211.012 54.7398 210.654 54.2309 210.171 53.8426C209.688 53.4543 209.073 53.2602 208.325 53.2602C207.577 53.2602 206.961 53.4543 206.478 53.8426C205.995 54.2309 205.638 54.7398 205.406 55.3696C205.174 55.9993 205.058 56.6788 205.058 57.4079C205.058 58.1371 205.174 58.8142 205.406 59.4392C205.638 60.0642 205.995 60.5684 206.478 60.952C206.961 61.3355 207.577 61.5273 208.325 61.5273ZM214.662 65.9307V61.2432H215.571C215.793 61.0112 215.985 60.7602 216.146 60.4903C216.307 60.2204 216.447 59.9008 216.565 59.5315C216.688 59.1575 216.792 58.7029 216.878 58.1679C216.963 57.6281 217.039 56.9771 217.105 56.2148L217.474 51.8966H224.406V61.2432H226.082V65.9307H224.406V62.8057H216.338V65.9307H214.662ZM217.474 61.2432H222.73V53.4591H219.037L218.753 56.2148C218.634 57.3559 218.488 58.3525 218.312 59.2048C218.137 60.0571 217.858 60.7365 217.474 61.2432ZM231.517 63.0613C230.826 63.0613 230.199 62.9311 229.635 62.6707C229.072 62.4056 228.624 62.0244 228.293 61.5273C227.961 61.0254 227.796 60.4193 227.796 59.7091C227.796 59.0841 227.919 58.5774 228.165 58.1892C228.411 57.7962 228.74 57.4884 229.152 57.2659C229.564 57.0434 230.019 56.8776 230.516 56.7687C231.018 56.6551 231.522 56.5651 232.029 56.4988C232.692 56.4136 233.229 56.3497 233.641 56.3071C234.058 56.2597 234.361 56.1816 234.55 56.0727C234.744 55.9638 234.841 55.7744 234.841 55.5045V55.4477C234.841 54.747 234.649 54.2024 234.266 53.8142C233.887 53.4259 233.312 53.2318 232.54 53.2318C231.74 53.2318 231.112 53.407 230.658 53.7574C230.203 54.1077 229.884 54.4818 229.699 54.8795L228.108 54.3113C228.392 53.6485 228.771 53.1324 229.245 52.7631C229.723 52.389 230.244 52.1286 230.807 51.9818C231.375 51.8303 231.934 51.7545 232.483 51.7545C232.834 51.7545 233.236 51.7971 233.691 51.8824C234.15 51.9629 234.593 52.1309 235.019 52.3866C235.45 52.6423 235.807 53.0282 236.091 53.5443C236.375 54.0604 236.517 54.7517 236.517 55.6182V62.8057H234.841V61.3284H234.756C234.642 61.5651 234.453 61.8184 234.188 62.0883C233.923 62.3582 233.57 62.5879 233.129 62.7773C232.689 62.9666 232.152 63.0613 231.517 63.0613ZM231.773 61.5557C232.436 61.5557 232.995 61.4255 233.449 61.165C233.908 60.9046 234.254 60.5684 234.486 60.1565C234.723 59.7446 234.841 59.3113 234.841 58.8568V57.3227C234.77 57.4079 234.614 57.4861 234.372 57.5571C234.136 57.6234 233.861 57.6826 233.549 57.7346C233.241 57.782 232.94 57.8246 232.647 57.8625C232.358 57.8956 232.123 57.924 231.943 57.9477C231.508 58.0045 231.101 58.0969 230.722 58.2247C230.348 58.3478 230.045 58.5348 229.813 58.7858C229.585 59.032 229.472 59.3682 229.472 59.7943C229.472 60.3767 229.687 60.817 230.118 61.1153C230.554 61.4089 231.105 61.5557 231.773 61.5557ZM239.577 66.8966V51.8966H241.196V53.6295H241.395C241.518 53.4401 241.688 53.1987 241.906 52.9051C242.129 52.6068 242.446 52.3416 242.858 52.1096C243.274 51.8729 243.838 51.7545 244.548 51.7545C245.467 51.7545 246.276 51.9842 246.977 52.4434C247.678 52.9027 248.225 53.5538 248.618 54.3966C249.011 55.2394 249.207 56.2337 249.207 57.3795C249.207 58.5348 249.011 59.5363 248.618 60.3838C248.225 61.2266 247.68 61.88 246.984 62.344C246.288 62.8033 245.486 63.0329 244.577 63.0329C243.876 63.0329 243.315 62.9169 242.893 62.6849C242.472 62.4482 242.148 62.1807 241.92 61.8824C241.693 61.5793 241.518 61.3284 241.395 61.1295H241.253V66.8966H239.577ZM241.224 57.3511C241.224 58.175 241.345 58.9018 241.587 59.5315C241.828 60.1565 242.181 60.6466 242.645 61.0017C243.109 61.3521 243.677 61.5273 244.349 61.5273C245.05 61.5273 245.635 61.3426 246.104 60.9733C246.577 60.5992 246.932 60.0973 247.169 59.4676C247.41 58.8331 247.531 58.1276 247.531 57.3511C247.531 56.5841 247.413 55.8928 247.176 55.2773C246.944 54.657 246.591 54.1669 246.118 53.8071C245.649 53.4425 245.06 53.2602 244.349 53.2602C243.667 53.2602 243.095 53.433 242.631 53.7787C242.167 54.1196 241.816 54.5978 241.579 55.2133C241.343 55.8241 241.224 56.5367 241.224 57.3511ZM256.196 63.0329C255.173 63.0329 254.292 62.7915 253.554 62.3085C252.815 61.8256 252.247 61.1603 251.849 60.3128C251.452 59.4652 251.253 58.497 251.253 57.4079C251.253 56.3 251.456 55.3222 251.864 54.4747C252.275 53.6224 252.848 52.9572 253.582 52.479C254.321 51.996 255.183 51.7545 256.167 51.7545C256.935 51.7545 257.626 51.8966 258.241 52.1807C258.857 52.4648 259.361 52.8625 259.754 53.3738C260.147 53.8852 260.391 54.4818 260.486 55.1636H258.81C258.682 54.6665 258.398 54.2261 257.957 53.8426C257.522 53.4543 256.935 53.2602 256.196 53.2602C255.542 53.2602 254.97 53.4307 254.477 53.7716C253.989 54.1077 253.608 54.5836 253.334 55.1991C253.064 55.8099 252.929 56.5273 252.929 57.3511C252.929 58.1939 253.061 58.9278 253.327 59.5528C253.596 60.1778 253.975 60.6631 254.463 61.0088C254.955 61.3544 255.533 61.5273 256.196 61.5273C256.631 61.5273 257.027 61.4515 257.382 61.3C257.737 61.1485 258.038 60.9307 258.284 60.6466C258.53 60.3625 258.705 60.0216 258.81 59.6238H260.486C260.391 60.2678 260.157 60.8478 259.783 61.3639C259.413 61.8753 258.923 62.2825 258.312 62.5855C257.706 62.8838 257.001 63.0329 256.196 63.0329ZM262.077 53.4591V51.8966H270.94V53.4591H267.361V62.8057H265.685V53.4591H262.077ZM273.385 62.8057V51.8966H277.845C279.02 51.8966 279.952 52.1617 280.644 52.692C281.335 53.2223 281.681 53.9231 281.681 54.7943C281.681 55.4572 281.484 55.9709 281.091 56.3355C280.698 56.6953 280.194 56.9392 279.578 57.067C279.981 57.1238 280.371 57.2659 280.75 57.4932C281.134 57.7204 281.451 58.0329 281.702 58.4307C281.953 58.8237 282.078 59.3066 282.078 59.8795C282.078 60.4382 281.936 60.9378 281.652 61.3781C281.368 61.8184 280.961 62.1665 280.431 62.4221C279.9 62.6778 279.266 62.8057 278.527 62.8057H273.385ZM274.976 61.2716H278.527C279.105 61.2716 279.557 61.1343 279.884 60.8596C280.21 60.585 280.374 60.211 280.374 59.7375C280.374 59.174 280.21 58.7313 279.884 58.4094C279.557 58.0827 279.105 57.9193 278.527 57.9193H274.976V61.2716ZM274.976 56.4704H277.845C278.295 56.4704 278.681 56.4089 279.003 56.2858C279.325 56.1579 279.571 55.978 279.742 55.746C279.917 55.5093 280.004 55.2299 280.004 54.9079C280.004 54.4487 279.813 54.0888 279.429 53.8284C279.046 53.5632 278.518 53.4307 277.845 53.4307H274.976V56.4704ZM285.695 66.8966C285.411 66.8966 285.158 66.8729 284.935 66.8256C284.713 66.7829 284.559 66.7403 284.474 66.6977L284.9 65.2204C285.307 65.3246 285.667 65.3625 285.979 65.3341C286.292 65.3057 286.569 65.166 286.81 64.915C287.056 64.6688 287.281 64.2687 287.485 63.7148L287.797 62.8625L283.763 51.8966H285.582L288.593 60.5898H288.707L291.718 51.8966H293.536L288.905 64.3966C288.697 64.96 288.439 65.4264 288.131 65.7957C287.823 66.1698 287.466 66.4468 287.059 66.6267C286.656 66.8066 286.202 66.8966 285.695 66.8966ZM300.976 56.6693V58.2318H295.209V56.6693H300.976ZM296.629 51.8966V62.8057H294.953V51.8966H296.629ZM304.328 63.0329C303.343 63.0329 302.479 62.7986 301.736 62.3298C300.997 61.8611 300.419 61.2053 300.003 60.3625C299.591 59.5197 299.385 58.5348 299.385 57.4079C299.385 56.2716 299.591 55.2796 300.003 54.4321C300.419 53.5845 300.997 52.9264 301.736 52.4577C302.479 51.9889 303.343 51.7545 304.328 51.7545C305.313 51.7545 306.175 51.9889 306.913 52.4577C307.657 52.9264 308.234 53.5845 308.646 54.4321C309.063 55.2796 309.271 56.2716 309.271 57.4079C309.271 58.5348 309.063 59.5197 308.646 60.3625C308.234 61.2053 307.657 61.8611 306.913 62.3298C306.175 62.7986 305.313 63.0329 304.328 63.0329ZM304.328 61.5273C305.076 61.5273 305.692 61.3355 306.175 60.952C306.658 60.5684 307.015 60.0642 307.247 59.4392C307.479 58.8142 307.595 58.1371 307.595 57.4079C307.595 56.6788 307.479 55.9993 307.247 55.3696C307.015 54.7398 306.658 54.2309 306.175 53.8426C305.692 53.4543 305.076 53.2602 304.328 53.2602C303.58 53.2602 302.964 53.4543 302.481 53.8426C301.998 54.2309 301.641 54.7398 301.409 55.3696C301.177 55.9993 301.061 56.6788 301.061 57.4079C301.061 58.1371 301.177 58.8142 301.409 59.4392C301.641 60.0642 301.998 60.5684 302.481 60.952C302.964 61.3355 303.58 61.5273 304.328 61.5273ZM314.214 48.2602L314.072 58.7148H312.425L312.283 48.2602H314.214ZM313.248 62.9193C312.898 62.9193 312.597 62.7938 312.346 62.5429C312.096 62.2919 311.97 61.9913 311.97 61.6409C311.97 61.2905 312.096 60.9898 312.346 60.7389C312.597 60.488 312.898 60.3625 313.248 60.3625C313.599 60.3625 313.899 60.488 314.15 60.7389C314.401 60.9898 314.527 61.2905 314.527 61.6409C314.527 61.8729 314.468 62.086 314.349 62.2801C314.236 62.4742 314.082 62.6305 313.888 62.7488C313.698 62.8625 313.485 62.9193 313.248 62.9193Z" fill="white"/>
</svg>
