<svg width="655" height="277" viewBox="0 0 655 277" fill="none" xmlns="http://www.w3.org/2000/svg">
<rect x="0.453125" y="0.629272" width="654" height="276" rx="15" fill="white"/>
<rect x="250.953" y="41.1293" width="389" height="113" rx="14.5" stroke="#E2E2E2"/>
<path d="M277.773 76.9293C276.366 76.9293 275.156 76.6159 274.143 75.9893C273.136 75.3626 272.37 74.4859 271.843 73.3593C271.316 72.2259 271.053 70.9159 271.053 69.4293C271.053 67.9426 271.316 66.6359 271.843 65.5093C272.37 64.3759 273.136 63.4959 274.143 62.8693C275.156 62.2426 276.366 61.9293 277.773 61.9293C279.18 61.9293 280.386 62.2426 281.393 62.8693C282.406 63.4959 283.176 64.3759 283.703 65.5093C284.23 66.6359 284.493 67.9426 284.493 69.4293C284.493 70.9159 284.23 72.2259 283.703 73.3593C283.176 74.4859 282.406 75.3626 281.393 75.9893C280.386 76.6159 279.18 76.9293 277.773 76.9293ZM277.813 75.2293C278.853 75.2293 279.73 74.9893 280.443 74.5093C281.163 74.0226 281.703 73.3459 282.063 72.4793C282.423 71.6059 282.603 70.5893 282.603 69.4293C282.603 68.2559 282.42 67.2359 282.053 66.3693C281.686 65.4959 281.14 64.8226 280.413 64.3493C279.686 63.8693 278.793 63.6293 277.733 63.6293C276.686 63.6293 275.803 63.8759 275.083 64.3693C274.37 64.8559 273.833 65.5393 273.473 66.4193C273.12 67.2926 272.943 68.3159 272.943 69.4893C272.943 70.6493 273.126 71.6593 273.493 72.5193C273.86 73.3793 274.406 74.0459 275.133 74.5193C275.866 74.9926 276.76 75.2293 277.813 75.2293ZM291.472 65.5293C292.452 65.5293 293.305 65.7759 294.032 66.2693C294.765 66.7626 295.325 67.4426 295.712 68.3093C296.105 69.1693 296.302 70.1393 296.302 71.2193C296.302 72.3059 296.105 73.2826 295.712 74.1493C295.325 75.0093 294.765 75.6893 294.032 76.1893C293.305 76.6826 292.448 76.9293 291.462 76.9293C290.802 76.9293 290.205 76.8193 289.672 76.5993C289.138 76.3726 288.675 76.0493 288.282 75.6293V81.4293H286.492V65.8293H288.082V67.0393C288.488 66.5526 288.975 66.1793 289.542 65.9193C290.108 65.6593 290.752 65.5293 291.472 65.5293ZM291.242 75.2993C291.928 75.2993 292.508 75.1226 292.982 74.7693C293.462 74.4159 293.818 73.9326 294.052 73.3193C294.292 72.7059 294.412 72.0059 294.412 71.2193C294.412 70.4393 294.292 69.7459 294.052 69.1393C293.818 68.5259 293.458 68.0426 292.972 67.6893C292.492 67.3359 291.898 67.1593 291.192 67.1593C290.172 67.1593 289.398 67.5259 288.872 68.2593C288.345 68.9926 288.082 69.9793 288.082 71.2193C288.082 72.4593 288.345 73.4493 288.872 74.1893C289.405 74.9293 290.195 75.2993 291.242 75.2993ZM306.794 67.6393C306.934 67.9459 307.027 68.2859 307.074 68.6593C307.12 69.0259 307.144 69.4559 307.144 69.9493V76.6293H305.564V74.9493C304.704 76.2693 303.37 76.9293 301.564 76.9293C300.784 76.9293 300.117 76.7859 299.564 76.4993C299.01 76.2059 298.594 75.8159 298.314 75.3293C298.034 74.8426 297.894 74.3026 297.894 73.7093C297.894 72.1159 298.777 71.0593 300.544 70.5393C301.064 70.3993 301.66 70.2759 302.334 70.1693C303.007 70.0626 303.814 69.9459 304.754 69.8193L305.394 69.7293C305.367 68.8559 305.147 68.2159 304.734 67.8093C304.32 67.3959 303.654 67.1893 302.734 67.1893C302.054 67.1893 301.47 67.3459 300.984 67.6593C300.504 67.9659 300.17 68.4393 299.984 69.0793L298.294 68.5693C298.554 67.6026 299.06 66.8559 299.814 66.3293C300.574 65.7959 301.554 65.5293 302.754 65.5293C303.747 65.5293 304.59 65.7093 305.284 66.0693C305.984 66.4226 306.487 66.9459 306.794 67.6393ZM301.834 75.4393C302.454 75.4393 303 75.3293 303.474 75.1093C303.947 74.8826 304.33 74.5826 304.624 74.2093C304.917 73.8293 305.107 73.4093 305.194 72.9493C305.26 72.7226 305.304 72.4693 305.324 72.1893C305.35 71.9093 305.367 71.5959 305.374 71.2493L304.884 71.3093C303.944 71.4359 303.22 71.5393 302.714 71.6193C302.214 71.6993 301.757 71.7993 301.344 71.9193C300.83 72.0793 300.42 72.2993 300.114 72.5793C299.814 72.8593 299.664 73.2326 299.664 73.6993C299.664 74.0126 299.74 74.3026 299.894 74.5693C300.047 74.8293 300.287 75.0393 300.614 75.1993C300.94 75.3593 301.347 75.4393 301.834 75.4393ZM314.294 76.9293C313.22 76.9293 312.297 76.6893 311.524 76.2093C310.757 75.7226 310.17 75.0493 309.764 74.1893C309.364 73.3293 309.157 72.3426 309.144 71.2293C309.157 70.1026 309.367 69.1093 309.774 68.2493C310.187 67.3893 310.78 66.7226 311.554 66.2493C312.327 65.7693 313.247 65.5293 314.314 65.5293C315.067 65.5293 315.757 65.6559 316.384 65.9093C317.01 66.1626 317.54 66.5259 317.974 66.9993C318.414 67.4726 318.727 68.0293 318.914 68.6693L317.154 69.1993C316.927 68.5793 316.557 68.0959 316.044 67.7493C315.537 67.3959 314.954 67.2193 314.294 67.2193C313.22 67.2193 312.41 67.5826 311.864 68.3093C311.324 69.0359 311.047 70.0093 311.034 71.2293C311.047 72.4693 311.33 73.4493 311.884 74.1693C312.444 74.8826 313.247 75.2393 314.294 75.2393C315.674 75.2393 316.614 74.6093 317.114 73.3493L318.914 73.8193C318.534 74.8259 317.947 75.5959 317.154 76.1293C316.36 76.6626 315.407 76.9293 314.294 76.9293ZM322.642 76.6293H320.862V65.8293H322.642V76.6293ZM321.752 64.1593C321.425 64.1593 321.148 64.0493 320.922 63.8293C320.702 63.6026 320.592 63.3259 320.592 62.9993C320.592 62.6726 320.702 62.3993 320.922 62.1793C321.148 61.9526 321.425 61.8393 321.752 61.8393C322.085 61.8393 322.362 61.9526 322.582 62.1793C322.808 62.3993 322.922 62.6726 322.922 62.9993C322.922 63.3259 322.808 63.6026 322.582 63.8293C322.362 64.0493 322.085 64.1593 321.752 64.1593ZM328.412 67.2993V72.4693V73.0493C328.412 73.3893 328.426 73.6626 328.452 73.8693C328.479 74.0759 328.539 74.2559 328.632 74.4093C328.792 74.6959 329.019 74.9026 329.312 75.0293C329.612 75.1559 329.979 75.2193 330.412 75.2193C330.726 75.2193 331.146 75.1793 331.672 75.0993V76.6293C331.119 76.7426 330.586 76.7993 330.072 76.7993C329.359 76.7993 328.732 76.6826 328.192 76.4493C327.659 76.2093 327.262 75.8359 327.002 75.3293C326.849 75.0293 326.749 74.7226 326.702 74.4093C326.656 74.0959 326.632 73.7059 326.632 73.2393V72.5493V67.2993H324.442V65.8293H326.632V62.8293H328.412V65.8293H331.672V67.2993H328.412ZM337.712 74.3293L340.872 65.8293H342.682L336.802 81.4293H335.072L336.852 76.5893L332.472 65.8293H334.342L337.712 74.3293Z" fill="black"/>
<path d="M417.518 135.629H416.168V133.642H411.203V132.374L414.766 124.829H416.281L412.718 132.374H416.168V129.337H417.518V132.374H418.643V133.642H417.518V135.629ZM423.866 128.909C424.476 128.944 425.011 129.112 425.471 129.412C425.936 129.712 426.294 130.114 426.544 130.619C426.799 131.119 426.926 131.682 426.926 132.307C426.926 132.987 426.771 133.594 426.461 134.129C426.156 134.664 425.734 135.084 425.194 135.389C424.659 135.689 424.061 135.839 423.401 135.839C422.871 135.839 422.374 135.742 421.909 135.547C421.444 135.347 421.044 135.064 420.709 134.699C420.379 134.334 420.139 133.904 419.989 133.409L421.271 133.042C421.426 133.527 421.691 133.902 422.066 134.167C422.441 134.432 422.871 134.564 423.356 134.564C423.796 134.564 424.181 134.469 424.511 134.279C424.846 134.089 425.104 133.824 425.284 133.484C425.464 133.139 425.554 132.747 425.554 132.307C425.554 131.867 425.461 131.477 425.276 131.137C425.096 130.792 424.841 130.524 424.511 130.334C424.181 130.144 423.804 130.049 423.379 130.049C423.199 130.049 423.009 130.074 422.809 130.124C422.614 130.174 422.431 130.244 422.261 130.334L421.616 129.277L425.126 126.104H420.416V124.829H426.784V126.112L423.866 128.909ZM431.426 130.004C430.936 130.004 430.484 129.884 430.069 129.644C429.659 129.404 429.331 129.077 429.086 128.662C428.846 128.247 428.726 127.794 428.726 127.304C428.726 126.824 428.849 126.377 429.094 125.962C429.344 125.547 429.676 125.217 430.091 124.972C430.506 124.727 430.951 124.604 431.426 124.604C431.916 124.604 432.366 124.724 432.776 124.964C433.191 125.204 433.519 125.532 433.759 125.947C434.004 126.362 434.126 126.814 434.126 127.304C434.126 127.794 434.004 128.247 433.759 128.662C433.519 129.077 433.191 129.404 432.776 129.644C432.366 129.884 431.916 130.004 431.426 130.004ZM439.991 125.729L430.076 135.629L429.176 134.729L439.091 124.829L439.991 125.729ZM431.426 128.827C431.696 128.827 431.949 128.759 432.184 128.624C432.419 128.484 432.604 128.297 432.739 128.062C432.879 127.827 432.949 127.574 432.949 127.304C432.949 127.034 432.879 126.782 432.739 126.547C432.604 126.312 432.419 126.127 432.184 125.992C431.949 125.852 431.696 125.782 431.426 125.782C431.156 125.782 430.904 125.852 430.669 125.992C430.434 126.127 430.246 126.312 430.106 126.547C429.971 126.782 429.904 127.034 429.904 127.304C429.904 127.574 429.971 127.827 430.106 128.062C430.246 128.297 430.434 128.484 430.669 128.624C430.904 128.759 431.156 128.827 431.426 128.827ZM437.741 135.854C437.251 135.854 436.799 135.734 436.384 135.494C435.974 135.254 435.646 134.927 435.401 134.512C435.161 134.097 435.041 133.644 435.041 133.154C435.041 132.674 435.164 132.227 435.409 131.812C435.659 131.397 435.991 131.067 436.406 130.822C436.821 130.577 437.266 130.454 437.741 130.454C438.231 130.454 438.681 130.574 439.091 130.814C439.506 131.054 439.834 131.382 440.074 131.797C440.319 132.212 440.441 132.664 440.441 133.154C440.441 133.644 440.319 134.097 440.074 134.512C439.834 134.927 439.506 135.254 439.091 135.494C438.681 135.734 438.231 135.854 437.741 135.854ZM437.741 134.677C438.011 134.677 438.264 134.609 438.499 134.474C438.734 134.334 438.919 134.147 439.054 133.912C439.194 133.677 439.264 133.424 439.264 133.154C439.264 132.884 439.194 132.632 439.054 132.397C438.919 132.162 438.734 131.977 438.499 131.842C438.264 131.702 438.011 131.632 437.741 131.632C437.471 131.632 437.219 131.702 436.984 131.842C436.749 131.977 436.561 132.162 436.421 132.397C436.286 132.632 436.219 132.884 436.219 133.154C436.219 133.424 436.286 133.677 436.421 133.912C436.561 134.147 436.749 134.334 436.984 134.474C437.219 134.609 437.471 134.677 437.741 134.677Z" fill="black"/>
<rect x="270.453" y="89.6293" width="350" height="23" rx="11.5" fill="#F2F2F2"/>
<rect x="270.453" y="89.6293" width="167" height="23" rx="11.5" fill="#FFA3D6"/>
<rect x="414.453" y="89.6293" width="23" height="23" rx="11.5" fill="white"/>
<rect x="419.453" y="94.6293" width="13" height="13" rx="6.5" fill="#FFA3D6"/>
</svg>
