<svg width="259" height="122" viewBox="0 0 259 122" fill="none" xmlns="http://www.w3.org/2000/svg">
<path opacity="0.9" d="M0.233398 50.9106C0.233398 38.9308 9.94495 29.2192 21.9247 29.2192H220.246C228.063 29.2192 231.971 29.2192 235.128 30.2702C241.261 32.3124 246.074 37.1253 248.117 43.259C249.168 46.4155 249.168 50.324 249.168 58.141C249.168 62.0496 249.168 64.0038 248.642 65.5821C247.621 68.6489 245.215 71.0554 242.148 72.0765C240.569 72.602 238.615 72.602 234.707 72.602H21.9248C9.94495 72.602 0.233398 62.8904 0.233398 50.9106Z" fill="#CFBEFF"/>
<path d="M16.1936 58.5154V43.4652H18.0161V50.1672H26.0409V43.4652H27.8633V58.5154H26.0409V51.784H18.0161V58.5154H16.1936ZM32.3938 62.7482C32.0999 62.7482 31.8378 62.7237 31.6075 62.6748C31.3773 62.6307 31.218 62.5866 31.1298 62.5425L31.5708 61.0139C31.9921 61.1217 32.3644 61.1609 32.6878 61.1315C33.0111 61.1021 33.2977 60.9576 33.5476 60.698C33.8023 60.4432 34.035 60.0292 34.2457 59.456L34.569 58.5742L30.395 47.2277H32.2762L35.3921 56.2226H35.5097L38.6255 47.2277H40.5068L35.7154 60.1615C35.4999 60.7445 35.2329 61.2271 34.9144 61.6092C34.596 61.9962 34.2261 62.2828 33.8048 62.469C33.3884 62.6552 32.918 62.7482 32.3938 62.7482ZM53.3487 58.7505C52.2611 58.7505 51.3229 58.5105 50.5341 58.0304C49.7503 57.5453 49.1452 56.8693 48.719 56.0021C48.2977 55.1301 48.087 54.1159 48.087 52.9597C48.087 51.8035 48.2977 50.7845 48.719 49.9027C49.1452 49.0159 49.738 48.3252 50.4974 47.8303C51.2617 47.3306 52.1533 47.0808 53.1723 47.0808C53.7602 47.0808 54.3408 47.1788 54.914 47.3747C55.4872 47.5707 56.0089 47.8891 56.4793 48.3301C56.9496 48.7661 57.3244 49.3442 57.6036 50.0644C57.8829 50.7845 58.0225 51.6713 58.0225 52.7246V53.4595H49.3216V51.9603H56.2588C56.2588 51.3234 56.1314 50.7551 55.8767 50.2554C55.6268 49.7557 55.2692 49.3613 54.8038 49.0723C54.3432 48.7832 53.7994 48.6387 53.1723 48.6387C52.4816 48.6387 51.8839 48.8102 51.3792 49.1531C50.8795 49.4912 50.495 49.9321 50.2255 50.4759C49.956 51.0197 49.8213 51.6027 49.8213 52.2249V53.2243C49.8213 54.0768 49.9683 54.7994 50.2622 55.3922C50.5611 55.9801 50.9751 56.4283 51.5042 56.737C52.0333 57.0407 52.6481 57.1926 53.3487 57.1926C53.8043 57.1926 54.2159 57.1289 54.5833 57.0015C54.9556 56.8693 55.2765 56.6733 55.546 56.4136C55.8154 56.1491 56.0236 55.8209 56.1706 55.4289L57.8461 55.8992C57.6698 56.4675 57.3734 56.9673 56.9569 57.3984C56.5405 57.8246 56.0261 58.1577 55.4137 58.3978C54.8013 58.633 54.113 58.7505 53.3487 58.7505ZM65.2463 58.7505C64.1881 58.7505 63.2768 58.5007 62.5126 58.001C61.7483 57.5013 61.1604 56.8129 60.7489 55.936C60.3373 55.059 60.1316 54.0572 60.1316 52.9304C60.1316 51.784 60.3422 50.7723 60.7636 49.8953C61.1898 49.0135 61.7826 48.3252 62.542 47.8303C63.3062 47.3306 64.1979 47.0808 65.2169 47.0808C66.0105 47.0808 66.7258 47.2277 67.3627 47.5217C67.9996 47.8156 68.5214 48.2272 68.928 48.7563C69.3346 49.2854 69.5869 49.9027 69.6849 50.6082H67.9506C67.8183 50.0937 67.5244 49.6381 67.0688 49.2413C66.618 48.8396 66.0105 48.6387 65.2463 48.6387C64.5702 48.6387 63.9774 48.8151 63.4679 49.1678C62.9633 49.5156 62.5689 50.008 62.2847 50.6449C62.0055 51.2769 61.8659 52.0191 61.8659 52.8716C61.8659 53.7436 62.003 54.503 62.2774 55.1497C62.5566 55.7964 62.9486 56.2985 63.4532 56.6562C63.9627 57.0138 64.5604 57.1926 65.2463 57.1926C65.697 57.1926 66.1061 57.1142 66.4735 56.9575C66.841 56.8007 67.152 56.5753 67.4068 56.2814C67.6616 55.9874 67.8428 55.6347 67.9506 55.2232H69.6849C69.5869 55.8894 69.3444 56.4896 68.9574 57.0236C68.5753 57.5527 68.0682 57.974 67.4362 58.2876C66.8091 58.5962 66.0791 58.7505 65.2463 58.7505ZM71.2208 58.5154V56.8987H71.6323C71.9704 56.8987 72.2521 56.8325 72.4774 56.7002C72.7028 56.5631 72.884 56.3255 73.0212 55.9874C73.1633 55.6445 73.2711 55.1693 73.3446 54.5618C73.423 53.9494 73.4793 53.1704 73.5136 52.2249L73.7194 47.2277H81.2444V58.5154H79.5101V48.8445H75.3655L75.1891 52.8716C75.1499 53.7975 75.0666 54.6132 74.9392 55.3187C74.8168 56.0193 74.6281 56.6072 74.3734 57.0824C74.1235 57.5576 73.7904 57.9152 73.374 58.1553C72.9575 58.3954 72.4358 58.5154 71.8087 58.5154H71.2208ZM86.1607 55.958L91.5988 47.2277H93.5976V58.5154H91.8633V49.7851L86.4547 58.5154H84.4264V47.2277H86.1607V55.958ZM111.295 47.2277V58.5154H109.561V47.2277H111.295ZM110.619 52.607V54.2237C110.227 54.3707 109.838 54.5005 109.451 54.6132C109.064 54.721 108.657 54.8067 108.231 54.8704C107.805 54.9292 107.337 54.9586 106.827 54.9586C105.548 54.9586 104.522 54.6132 103.748 53.9224C102.979 53.2317 102.594 52.1955 102.594 50.8139V47.1984H104.329V50.8139C104.329 51.392 104.439 51.8672 104.659 52.2396C104.88 52.6119 105.179 52.8887 105.556 53.07C105.933 53.2512 106.357 53.3419 106.827 53.3419C107.562 53.3419 108.226 53.2757 108.819 53.1435C109.416 53.0063 110.017 52.8275 110.619 52.607ZM119.21 58.7505C118.122 58.7505 117.184 58.5105 116.395 58.0304C115.611 57.5453 115.006 56.8693 114.58 56.0021C114.159 55.1301 113.948 54.1159 113.948 52.9597C113.948 51.8035 114.159 50.7845 114.58 49.9027C115.006 49.0159 115.599 48.3252 116.358 47.8303C117.123 47.3306 118.014 47.0808 119.033 47.0808C119.621 47.0808 120.202 47.1788 120.775 47.3747C121.348 47.5707 121.87 47.8891 122.34 48.3301C122.811 48.7661 123.185 49.3442 123.465 50.0644C123.744 50.7845 123.884 51.6713 123.884 52.7246V53.4595H115.183V51.9603H122.12C122.12 51.3234 121.992 50.7551 121.738 50.2554C121.488 49.7557 121.13 49.3613 120.665 49.0723C120.204 48.7832 119.66 48.6387 119.033 48.6387C118.343 48.6387 117.745 48.8102 117.24 49.1531C116.741 49.4912 116.356 49.9321 116.087 50.4759C115.817 51.0197 115.682 51.6027 115.682 52.2249V53.2243C115.682 54.0768 115.829 54.7994 116.123 55.3922C116.422 55.9801 116.836 56.4283 117.365 56.737C117.894 57.0407 118.509 57.1926 119.21 57.1926C119.665 57.1926 120.077 57.1289 120.444 57.0015C120.817 56.8693 121.138 56.6733 121.407 56.4136C121.676 56.1491 121.885 55.8209 122.032 55.4289L123.707 55.8992C123.531 56.4675 123.234 56.9673 122.818 57.3984C122.402 57.8246 121.887 58.1577 121.275 58.3978C120.662 58.633 119.974 58.7505 119.21 58.7505ZM131.107 58.7505C130.049 58.7505 129.138 58.5007 128.374 58.001C127.609 57.5013 127.021 56.8129 126.61 55.936C126.198 55.059 125.993 54.0572 125.993 52.9304C125.993 51.784 126.203 50.7723 126.625 49.8953C127.051 49.0135 127.644 48.3252 128.403 47.8303C129.167 47.3306 130.059 47.0808 131.078 47.0808C131.872 47.0808 132.587 47.2277 133.224 47.5217C133.861 47.8156 134.382 48.2272 134.789 48.7563C135.196 49.2854 135.448 49.9027 135.546 50.6082H133.812C133.679 50.0937 133.385 49.6381 132.93 49.2413C132.479 48.8396 131.872 48.6387 131.107 48.6387C130.431 48.6387 129.838 48.8151 129.329 49.1678C128.824 49.5156 128.43 50.008 128.146 50.6449C127.867 51.2769 127.727 52.0191 127.727 52.8716C127.727 53.7436 127.864 54.503 128.138 55.1497C128.418 55.7964 128.81 56.2985 129.314 56.6562C129.824 57.0138 130.421 57.1926 131.107 57.1926C131.558 57.1926 131.967 57.1142 132.335 56.9575C132.702 56.8007 133.013 56.5753 133.268 56.2814C133.523 55.9874 133.704 55.6347 133.812 55.2232H135.546C135.448 55.8894 135.205 56.4896 134.818 57.0236C134.436 57.5527 133.929 57.974 133.297 58.2876C132.67 58.5962 131.94 58.7505 131.107 58.7505ZM137.192 48.8445V47.2277H146.363V48.8445H142.66V58.5154H140.925V48.8445H137.192ZM156.448 52.0779V53.6946H150.216V52.0779H156.448ZM150.627 47.2277V58.5154H148.893V47.2277H150.627ZM157.77 47.2277V58.5154H156.036V47.2277H157.77ZM165.523 58.7505C164.504 58.7505 163.61 58.508 162.841 58.023C162.077 57.538 161.479 56.8595 161.048 55.9874C160.622 55.1154 160.409 54.0964 160.409 52.9304C160.409 51.7546 160.622 50.7282 161.048 49.8512C161.479 48.9743 162.077 48.2933 162.841 47.8083C163.61 47.3233 164.504 47.0808 165.523 47.0808C166.542 47.0808 167.434 47.3233 168.198 47.8083C168.967 48.2933 169.565 48.9743 169.991 49.8512C170.422 50.7282 170.638 51.7546 170.638 52.9304C170.638 54.0964 170.422 55.1154 169.991 55.9874C169.565 56.8595 168.967 57.538 168.198 58.023C167.434 58.508 166.542 58.7505 165.523 58.7505ZM165.523 57.1926C166.297 57.1926 166.934 56.9942 167.434 56.5974C167.934 56.2005 168.304 55.6788 168.544 55.0321C168.784 54.3854 168.904 53.6848 168.904 52.9304C168.904 52.1759 168.784 51.4729 168.544 50.8213C168.304 50.1697 167.934 49.643 167.434 49.2413C166.934 48.8396 166.297 48.6387 165.523 48.6387C164.749 48.6387 164.112 48.8396 163.613 49.2413C163.113 49.643 162.743 50.1697 162.503 50.8213C162.263 51.4729 162.143 52.1759 162.143 52.9304C162.143 53.6848 162.263 54.3854 162.503 55.0321C162.743 55.6788 163.113 56.2005 163.613 56.5974C164.112 56.9942 164.749 57.1926 165.523 57.1926Z" fill="black"/>
<path d="M183.284 61.646V60.7741L186.558 57.1899C186.942 56.7701 187.259 56.4052 187.507 56.0952C187.756 55.782 187.94 55.4882 188.059 55.2137C188.182 54.936 188.244 54.6454 188.244 54.3418C188.244 53.9931 188.16 53.6912 187.992 53.4361C187.827 53.181 187.601 52.984 187.314 52.8452C187.026 52.7063 186.703 52.6369 186.345 52.6369C185.964 52.6369 185.631 52.716 185.347 52.8742C185.066 53.0292 184.848 53.2472 184.693 53.5281C184.541 53.809 184.466 54.1384 184.466 54.5162H183.322C183.322 53.935 183.456 53.4248 183.724 52.9856C183.992 52.5465 184.357 52.2042 184.819 51.9588C185.284 51.7134 185.806 51.5907 186.384 51.5907C186.965 51.5907 187.48 51.7134 187.929 51.9588C188.378 52.2042 188.73 52.5352 188.985 52.9517C189.24 53.3683 189.367 53.8317 189.367 54.3418C189.367 54.7067 189.301 55.0635 189.169 55.4123C189.039 55.7578 188.813 56.1437 188.491 56.5699C188.171 56.9929 187.727 57.5096 187.159 58.1199L184.931 60.5029V60.5804H189.542V61.646H183.284ZM194.505 61.7816C193.775 61.7816 193.153 61.583 192.64 61.1859C192.127 60.7854 191.734 60.2058 191.463 59.447C191.192 58.6849 191.056 57.7647 191.056 56.6861C191.056 55.6141 191.192 54.6987 191.463 53.9398C191.737 53.1778 192.131 52.5965 192.645 52.1961C193.161 51.7925 193.781 51.5907 194.505 51.5907C195.228 51.5907 195.846 51.7925 196.36 52.1961C196.877 52.5965 197.27 53.1778 197.542 53.9398C197.816 54.6987 197.953 55.6141 197.953 56.6861C197.953 57.7647 197.818 58.6849 197.547 59.447C197.275 60.2058 196.883 60.7854 196.37 61.1859C195.856 61.583 195.235 61.7816 194.505 61.7816ZM194.505 60.716C195.228 60.716 195.79 60.3673 196.19 59.6698C196.591 58.9723 196.791 57.9778 196.791 56.6861C196.791 55.8272 196.699 55.0958 196.515 54.492C196.334 53.8882 196.072 53.428 195.73 53.1116C195.391 52.7951 194.983 52.6369 194.505 52.6369C193.788 52.6369 193.228 52.9905 192.824 53.6976C192.42 54.4016 192.219 55.3977 192.219 56.6861C192.219 57.5451 192.309 58.2748 192.49 58.8755C192.671 59.4761 192.931 59.933 193.27 60.2462C193.612 60.5594 194.024 60.716 194.505 60.716ZM200.374 60.377C200.135 60.377 199.93 60.2914 199.759 60.1203C199.587 59.9491 199.502 59.7441 199.502 59.5051C199.502 59.2662 199.587 59.0611 199.759 58.89C199.93 58.7188 200.135 58.6333 200.374 58.6333C200.613 58.6333 200.818 58.7188 200.989 58.89C201.16 59.0611 201.246 59.2662 201.246 59.5051C201.246 59.6633 201.205 59.8087 201.124 59.941C201.047 60.0734 200.942 60.18 200.81 60.2607C200.68 60.3382 200.535 60.377 200.374 60.377ZM200.374 55.359C200.135 55.359 199.93 55.2734 199.759 55.1023C199.587 54.9311 199.502 54.7261 199.502 54.4872C199.502 54.2482 199.587 54.0432 199.759 53.872C199.93 53.7009 200.135 53.6153 200.374 53.6153C200.613 53.6153 200.818 53.7009 200.989 53.872C201.16 54.0432 201.246 54.2482 201.246 54.4872C201.246 54.6454 201.205 54.7907 201.124 54.9231C201.047 55.0555 200.942 55.162 200.81 55.2428C200.68 55.3203 200.535 55.359 200.374 55.359ZM202.772 59.6117V58.6236L207.131 51.7263H207.848V53.2569H207.364L204.07 58.4686V58.5461H209.941V59.6117H202.772ZM207.441 61.646V59.3114V58.8512V51.7263H208.584V61.646H207.441ZM214.719 61.7816C213.989 61.7816 213.367 61.583 212.854 61.1859C212.34 60.7854 211.948 60.2058 211.677 59.447C211.405 58.6849 211.27 57.7647 211.27 56.6861C211.27 55.6141 211.405 54.6987 211.677 53.9398C211.951 53.1778 212.345 52.5965 212.859 52.1961C213.375 51.7925 213.995 51.5907 214.719 51.5907C215.442 51.5907 216.06 51.7925 216.574 52.1961C217.09 52.5965 217.484 53.1778 217.755 53.9398C218.03 54.6987 218.167 55.6141 218.167 56.6861C218.167 57.7647 218.032 58.6849 217.76 59.447C217.489 60.2058 217.097 60.7854 216.583 61.1859C216.07 61.583 215.448 61.7816 214.719 61.7816ZM214.719 60.716C215.442 60.716 216.004 60.3673 216.404 59.6698C216.804 58.9723 217.005 57.9778 217.005 56.6861C217.005 55.8272 216.913 55.0958 216.729 54.492C216.548 53.8882 216.286 53.428 215.944 53.1116C215.605 52.7951 215.196 52.6369 214.719 52.6369C214.002 52.6369 213.441 52.9905 213.038 53.6976C212.634 54.4016 212.432 55.3977 212.432 56.6861C212.432 57.5451 212.523 58.2748 212.704 58.8755C212.884 59.4761 213.144 59.933 213.483 60.2462C213.826 60.5594 214.237 60.716 214.719 60.716Z" fill="#4200FF"/>
<path fill-rule="evenodd" clip-rule="evenodd" d="M235.785 52.1006C236.012 52.3193 236.018 52.6802 235.8 52.9067L226.927 62.0964C226.817 62.2104 226.664 62.2734 226.505 62.2704C226.347 62.2673 226.197 62.1983 226.091 62.0801L222.13 57.6437C221.921 57.4088 221.941 57.0484 222.176 56.8387C222.411 56.629 222.771 56.6494 222.981 56.8843L226.533 60.8627L234.979 52.1148C235.198 51.8883 235.559 51.8819 235.785 52.1006Z" fill="#4200FF"/>
<path opacity="0.9" d="M116.953 2.36323C116.953 -9.61657 126.665 -19.3281 138.644 -19.3281H222.311C230.128 -19.3281 234.037 -19.3281 237.193 -18.2772C243.327 -16.2349 248.14 -11.422 250.182 -5.28832C251.233 -2.13184 251.233 1.77667 251.233 9.59369C251.233 13.5022 251.233 15.4565 250.707 17.0347C249.686 20.1015 247.28 22.508 244.213 23.5291C242.635 24.0546 240.681 24.0546 236.772 24.0546H138.644C126.665 24.0546 116.953 14.343 116.953 2.36323Z" fill="#CFBEFF"/>
<path d="M144.086 -0.37898H142.263C142.156 -0.903189 141.967 -1.36371 141.698 -1.76054C141.433 -2.15737 141.11 -2.49051 140.728 -2.75996C140.35 -3.03432 139.931 -3.24008 139.471 -3.37726C139.01 -3.51443 138.53 -3.58302 138.031 -3.58302C137.119 -3.58302 136.294 -3.35276 135.554 -2.89224C134.819 -2.43172 134.234 -1.75319 133.798 -0.856646C133.367 0.0398974 133.151 1.13976 133.151 2.44293C133.151 3.7461 133.367 4.84596 133.798 5.7425C134.234 6.63905 134.819 7.31758 135.554 7.7781C136.294 8.23862 137.119 8.46888 138.031 8.46888C138.53 8.46888 139.01 8.40029 139.471 8.26311C139.931 8.12594 140.35 7.92262 140.728 7.65317C141.11 7.37882 141.433 7.04323 141.698 6.6464C141.967 6.24467 142.156 5.78415 142.263 5.26484H144.086C143.949 6.034 143.699 6.72233 143.336 7.32983C142.974 7.93732 142.523 8.45418 141.984 8.88041C141.445 9.30173 140.84 9.62263 140.169 9.84309C139.503 10.0636 138.79 10.1738 138.031 10.1738C136.747 10.1738 135.605 9.86024 134.606 9.23315C133.607 8.60605 132.82 7.71441 132.247 6.55821C131.674 5.40201 131.387 4.03025 131.387 2.44293C131.387 0.855605 131.674 -0.516156 132.247 -1.67235C132.82 -2.82855 133.607 -3.7202 134.606 -4.34729C135.605 -4.97438 136.747 -5.28792 138.031 -5.28792C138.79 -5.28792 139.503 -5.17769 140.169 -4.95723C140.84 -4.73677 141.445 -4.41343 141.984 -3.9872C142.523 -3.56588 142.974 -3.05146 143.336 -2.44397C143.699 -1.84138 143.949 -1.15305 144.086 -0.37898ZM150.117 10.2326C149.402 10.2326 148.753 10.0978 148.17 9.82839C147.587 9.55404 147.124 9.15966 146.781 8.64525C146.438 8.12594 146.267 7.49885 146.267 6.76398C146.267 6.11729 146.394 5.59308 146.649 5.19135C146.904 4.78472 147.244 4.46628 147.67 4.23602C148.096 4.00576 148.567 3.83429 149.081 3.72161C149.601 3.60403 150.122 3.51094 150.646 3.44235C151.332 3.35417 151.888 3.28803 152.315 3.24394C152.746 3.19495 153.059 3.11411 153.255 3.00143C153.456 2.88875 153.557 2.69278 153.557 2.41353V2.35474C153.557 1.62967 153.358 1.06627 152.961 0.664538C152.569 0.262808 151.974 0.0619434 151.176 0.0619434C150.348 0.0619434 149.698 0.243212 149.228 0.605749C148.758 0.968285 148.427 1.35532 148.236 1.76685L146.59 1.17895C146.884 0.493068 147.276 -0.040939 147.766 -0.423072C148.261 -0.810105 148.799 -1.07956 149.382 -1.23143C149.97 -1.3882 150.548 -1.46659 151.117 -1.46659C151.479 -1.46659 151.896 -1.4225 152.366 -1.33431C152.841 -1.25103 153.299 -1.07711 153.74 -0.812555C154.186 -0.548 154.556 -0.14872 154.85 0.385287C155.144 0.919294 155.291 1.63457 155.291 2.53111V9.96802H153.557V8.43948H153.468C153.351 8.68444 153.155 8.94655 152.88 9.2258C152.606 9.50505 152.241 9.74266 151.786 9.93862C151.33 10.1346 150.774 10.2326 150.117 10.2326ZM150.382 8.67464C151.068 8.67464 151.646 8.53992 152.116 8.27046C152.591 8.00101 152.949 7.65317 153.189 7.22695C153.434 6.80072 153.557 6.35245 153.557 5.88213V4.29481C153.483 4.38299 153.321 4.46383 153.072 4.53731C152.827 4.6059 152.542 4.66714 152.219 4.72103C151.901 4.77002 151.59 4.81412 151.286 4.85331C150.987 4.8876 150.744 4.917 150.558 4.94149C150.108 5.00028 149.686 5.09582 149.294 5.22809C148.907 5.35547 148.594 5.54899 148.354 5.80864C148.119 6.0634 148.001 6.41124 148.001 6.85216C148.001 7.45476 148.224 7.91038 148.67 8.21902C149.12 8.52277 149.691 8.67464 150.382 8.67464ZM158.456 -1.31962H160.191V8.3513H164.453V-1.31962H166.187V8.3513H170.449V-1.31962H172.184V9.96802H158.456V-1.31962Z" fill="black"/>
<path d="M185.349 13.0986V12.2268L188.623 8.64252C189.008 8.22274 189.324 7.85785 189.573 7.54786C189.821 7.23465 190.005 6.9408 190.125 6.66633C190.248 6.38863 190.309 6.09801 190.309 5.79448C190.309 5.44574 190.225 5.14382 190.057 4.88873C189.892 4.63363 189.666 4.43666 189.379 4.29781C189.092 4.15896 188.769 4.08953 188.41 4.08953C188.029 4.08953 187.697 4.16864 187.412 4.32687C187.132 4.48186 186.914 4.69983 186.759 4.98076C186.607 5.26168 186.531 5.59105 186.531 5.96885H185.388C185.388 5.38762 185.522 4.87743 185.79 4.43827C186.058 3.99912 186.423 3.65684 186.885 3.41143C187.35 3.16602 187.871 3.04331 188.449 3.04331C189.03 3.04331 189.545 3.16602 189.994 3.41143C190.443 3.65684 190.795 3.98782 191.05 4.40437C191.305 4.82092 191.433 5.28429 191.433 5.79448C191.433 6.15937 191.366 6.51618 191.234 6.86492C191.105 7.21043 190.879 7.5963 190.556 8.02254C190.236 8.44555 189.792 8.9622 189.224 9.57249L186.996 11.9555V12.033H191.607V13.0986H185.349ZM196.57 13.2343C195.84 13.2343 195.219 13.0357 194.705 12.6385C194.192 12.2381 193.8 11.6585 193.528 10.8996C193.257 10.1376 193.122 9.21729 193.122 8.13878C193.122 7.06673 193.257 6.15129 193.528 5.39246C193.803 4.6304 194.197 4.04917 194.71 3.64876C195.227 3.24513 195.847 3.04331 196.57 3.04331C197.293 3.04331 197.912 3.24513 198.425 3.64876C198.942 4.04917 199.336 4.6304 199.607 5.39246C199.882 6.15129 200.019 7.06673 200.019 8.13878C200.019 9.21729 199.883 10.1376 199.612 10.8996C199.341 11.6585 198.948 12.2381 198.435 12.6385C197.922 13.0357 197.3 13.2343 196.57 13.2343ZM196.57 12.1687C197.293 12.1687 197.855 11.8199 198.256 11.1224C198.656 10.425 198.856 9.43041 198.856 8.13878C198.856 7.27985 198.764 6.54847 198.58 5.94463C198.399 5.3408 198.138 4.88065 197.796 4.56421C197.457 4.24776 197.048 4.08953 196.57 4.08953C195.853 4.08953 195.293 4.44312 194.889 5.15028C194.486 5.85422 194.284 6.85039 194.284 8.13878C194.284 8.99772 194.374 9.72749 194.555 10.3281C194.736 10.9287 194.996 11.3856 195.335 11.6988C195.677 12.0121 196.089 12.1687 196.57 12.1687ZM202.439 11.8296C202.2 11.8296 201.995 11.744 201.824 11.5729C201.653 11.4018 201.567 11.1967 201.567 10.9578C201.567 10.7188 201.653 10.5138 201.824 10.3426C201.995 10.1715 202.2 10.0859 202.439 10.0859C202.678 10.0859 202.883 10.1715 203.054 10.3426C203.225 10.5138 203.311 10.7188 203.311 10.9578C203.311 11.116 203.271 11.2613 203.19 11.3937C203.112 11.5261 203.007 11.6326 202.875 11.7134C202.746 11.7909 202.601 11.8296 202.439 11.8296ZM202.439 6.81164C202.2 6.81164 201.995 6.72607 201.824 6.55493C201.653 6.38379 201.567 6.17874 201.567 5.93979C201.567 5.70084 201.653 5.49579 201.824 5.32465C201.995 5.15351 202.2 5.06794 202.439 5.06794C202.678 5.06794 202.883 5.15351 203.054 5.32465C203.225 5.49579 203.311 5.70084 203.311 5.93979C203.311 6.09801 203.271 6.24332 203.19 6.37571C203.112 6.5081 203.007 6.61466 202.875 6.69539C202.746 6.77289 202.601 6.81164 202.439 6.81164ZM204.838 11.0643V10.0762L209.197 3.17894H209.914V4.70951H209.429L206.136 9.92123V9.99873H212.006V11.0643H204.838ZM209.507 13.0986V10.764V10.3039V3.17894H210.65V13.0986H209.507ZM216.784 13.2343C216.054 13.2343 215.433 13.0357 214.919 12.6385C214.406 12.2381 214.013 11.6585 213.742 10.8996C213.471 10.1376 213.335 9.21729 213.335 8.13878C213.335 7.06673 213.471 6.15129 213.742 5.39246C214.017 4.6304 214.411 4.04917 214.924 3.64876C215.441 3.24513 216.061 3.04331 216.784 3.04331C217.507 3.04331 218.126 3.24513 218.639 3.64876C219.156 4.04917 219.55 4.6304 219.821 5.39246C220.095 6.15129 220.233 7.06673 220.233 8.13878C220.233 9.21729 220.097 10.1376 219.826 10.8996C219.554 11.6585 219.162 12.2381 218.649 12.6385C218.135 13.0357 217.514 13.2343 216.784 13.2343ZM216.784 12.1687C217.507 12.1687 218.069 11.8199 218.47 11.1224C218.87 10.425 219.07 9.43041 219.07 8.13878C219.07 7.27985 218.978 6.54847 218.794 5.94463C218.613 5.3408 218.352 4.88065 218.009 4.56421C217.67 4.24776 217.262 4.08953 216.784 4.08953C216.067 4.08953 215.507 4.44312 215.103 5.15028C214.7 5.85422 214.498 6.85039 214.498 8.13878C214.498 8.99772 214.588 9.72749 214.769 10.3281C214.95 10.9287 215.21 11.3856 215.549 11.6988C215.891 12.0121 216.303 12.1687 216.784 12.1687Z" fill="#4200FF"/>
<path fill-rule="evenodd" clip-rule="evenodd" d="M237.851 3.55328C238.077 3.77197 238.084 4.13288 237.865 4.35938L228.992 13.549C228.882 13.663 228.729 13.7261 228.571 13.723C228.412 13.7199 228.262 13.651 228.157 13.5327L224.196 9.0963C223.986 8.86144 224.006 8.50106 224.241 8.29136C224.476 8.08166 224.836 8.10206 225.046 8.33692L228.598 12.3154L237.045 3.56742C237.263 3.34091 237.624 3.33458 237.851 3.55328Z" fill="#4200FF"/>
<path opacity="0.8" fill-rule="evenodd" clip-rule="evenodd" d="M15.0143 97.7561C15 98.1395 15 98.593 15 99.5C15 100.407 15 100.861 15.0143 101.244C15.4157 111.976 24.0237 120.584 34.7561 120.986C35.1395 121 35.593 121 36.5 121H219.821C226.811 121 230.306 121 233.166 120.201C235.298 119.605 237.293 118.697 239.1 117.528C240.253 118.401 241.896 119.492 243.676 120.195C247.826 121.832 258.52 121.738 258.52 121.738C258.52 121.738 252.684 120.195 250.516 113.162C249.486 109.822 249.288 89.9457 249.288 89.9457L248.999 90.5839C248.993 88.075 248.95 86.6745 248.621 85.5001C247.656 82.0445 244.956 79.3441 241.5 78.3785C240.145 78 238.49 78 235.179 78H36.5C35.593 78 35.1395 78 34.7561 78.0143C24.0237 78.4157 15.4157 87.0237 15.0143 97.7561Z" fill="#CFBEFF"/>
<path d="M44.5497 91.9796V107.03H42.7272V93.5963H35.1433V107.03H33.3208V91.9796H44.5497ZM52.5763 107.265C51.5573 107.265 50.6632 107.022 49.894 106.537C49.1298 106.052 48.5321 105.374 48.1009 104.502C47.6747 103.63 47.4616 102.611 47.4616 101.445C47.4616 100.269 47.6747 99.2426 48.1009 98.3656C48.5321 97.4887 49.1298 96.8077 49.894 96.3227C50.6632 95.8377 51.5573 95.5952 52.5763 95.5952C53.5953 95.5952 54.487 95.8377 55.2512 96.3227C56.0204 96.8077 56.6181 97.4887 57.0443 98.3656C57.4755 99.2426 57.691 100.269 57.691 101.445C57.691 102.611 57.4755 103.63 57.0443 104.502C56.6181 105.374 56.0204 106.052 55.2512 106.537C54.487 107.022 53.5953 107.265 52.5763 107.265ZM52.5763 105.707C53.3504 105.707 53.9873 105.509 54.487 105.112C54.9867 104.715 55.3566 104.193 55.5966 103.546C55.8367 102.9 55.9567 102.199 55.9567 101.445C55.9567 100.69 55.8367 99.9873 55.5966 99.3357C55.3566 98.6841 54.9867 98.1574 54.487 97.7557C53.9873 97.354 53.3504 97.1531 52.5763 97.1531C51.8022 97.1531 51.1654 97.354 50.6656 97.7557C50.1659 98.1574 49.796 98.6841 49.556 99.3357C49.3159 99.9873 49.1959 100.69 49.1959 101.445C49.1959 102.199 49.3159 102.9 49.556 103.546C49.796 104.193 50.1659 104.715 50.6656 105.112C51.1654 105.509 51.8022 105.707 52.5763 105.707ZM59.339 107.03V105.413H59.7505C60.0885 105.413 60.3702 105.347 60.5956 105.215C60.821 105.077 61.0022 104.84 61.1394 104.502C61.2815 104.159 61.3893 103.684 61.4627 103.076C61.5411 102.464 61.5975 101.685 61.6318 100.739L61.8375 95.7422H69.3626V107.03H67.6283V97.3589H63.4836L63.3073 101.386C63.2681 102.312 63.1848 103.128 63.0574 103.833C62.9349 104.534 62.7463 105.122 62.4916 105.597C62.2417 106.072 61.9086 106.43 61.4921 106.67C61.0757 106.91 60.554 107.03 59.9269 107.03H59.339ZM80.0991 100.592V102.209H73.8674V100.592H80.0991ZM74.2789 95.7422V107.03H72.5446V95.7422H74.2789ZM81.4219 95.7422V107.03H79.6876V95.7422H81.4219ZM87.9108 107.294C87.1955 107.294 86.5464 107.16 85.9634 106.89C85.3804 106.616 84.9174 106.221 84.5745 105.707C84.2315 105.188 84.0601 104.561 84.0601 103.826C84.0601 103.179 84.1874 102.655 84.4422 102.253C84.697 101.846 85.0374 101.528 85.4637 101.298C85.8899 101.068 86.3602 100.896 86.8746 100.783C87.3939 100.666 87.9157 100.573 88.4399 100.504C89.1258 100.416 89.6818 100.35 90.1081 100.306C90.5392 100.257 90.8527 100.176 91.0487 100.063C91.2496 99.9505 91.35 99.7546 91.35 99.4753V99.4165C91.35 98.6914 91.1516 98.128 90.7547 97.7263C90.3628 97.3246 89.7676 97.1237 88.969 97.1237C88.1411 97.1237 87.4919 97.305 87.0216 97.6675C86.5513 98.0301 86.2206 98.4171 86.0295 98.8286L84.3834 98.2407C84.6774 97.5548 85.0693 97.0208 85.5592 96.6387C86.054 96.2517 86.5929 95.9822 87.1759 95.8303C87.7638 95.6736 88.3419 95.5952 88.9102 95.5952C89.2728 95.5952 89.6892 95.6393 90.1595 95.7275C90.6347 95.8107 91.0928 95.9847 91.5337 96.2492C91.9795 96.5138 92.3494 96.913 92.6434 97.4471C92.9373 97.9811 93.0843 98.6963 93.0843 99.5929V107.03H91.35V105.501H91.2618C91.1442 105.746 90.9483 106.008 90.6739 106.288C90.3996 106.567 90.0346 106.804 89.579 107C89.1233 107.196 88.5673 107.294 87.9108 107.294ZM88.1753 105.736C88.8612 105.736 89.4393 105.602 89.9096 105.332C90.3849 105.063 90.7425 104.715 90.9826 104.289C91.2275 103.862 91.35 103.414 91.35 102.944V101.357C91.2765 101.445 91.1148 101.526 90.865 101.599C90.62 101.668 90.3359 101.729 90.0125 101.783C89.6941 101.832 89.383 101.876 89.0792 101.915C88.7804 101.949 88.5379 101.979 88.3517 102.003C87.901 102.062 87.4797 102.158 87.0877 102.29C86.7007 102.417 86.3872 102.611 86.1471 102.87C85.9119 103.125 85.7944 103.473 85.7944 103.914C85.7944 104.517 86.0173 104.972 86.4631 105.281C86.9138 105.585 87.4846 105.736 88.1753 105.736ZM103.04 107.03V97.3295H100.042C99.3656 97.3295 98.834 97.4862 98.447 97.7998C98.06 98.1133 97.8665 98.5445 97.8665 99.0932C97.8665 99.6321 98.0404 100.056 98.3882 100.364C98.741 100.673 99.2235 100.827 99.8359 100.827H103.481V102.444H99.8359C99.0717 102.444 98.4127 102.309 97.8591 102.04C97.3055 101.771 96.8793 101.386 96.5804 100.886C96.2816 100.382 96.1322 99.7839 96.1322 99.0932C96.1322 98.3975 96.2889 97.7998 96.6025 97.3001C96.916 96.8004 97.3643 96.4158 97.9473 96.1463C98.5352 95.8769 99.2333 95.7422 100.042 95.7422H104.686V107.03H103.04ZM95.5149 107.03L98.7189 101.415H100.6L97.3961 107.03H95.5149ZM118.276 110.881V91.9796H120.01V110.881H118.276ZM118.276 107.265C117.511 107.265 116.816 107.128 116.189 106.853C115.562 106.574 115.023 106.18 114.572 105.67C114.121 105.156 113.773 104.541 113.528 103.826C113.283 103.11 113.161 102.317 113.161 101.445C113.161 100.563 113.283 99.7644 113.528 99.0491C113.773 98.3289 114.121 97.7116 114.572 97.1972C115.023 96.6828 115.562 96.2884 116.189 96.0141C116.816 95.7348 117.511 95.5952 118.276 95.5952H118.805V107.265H118.276ZM118.276 105.707H118.57V97.1531H118.276C117.698 97.1531 117.195 97.2707 116.769 97.5058C116.343 97.7361 115.99 98.0521 115.711 98.4538C115.437 98.8507 115.231 99.3063 115.094 99.8207C114.961 100.335 114.895 100.876 114.895 101.445C114.895 102.199 115.015 102.9 115.255 103.546C115.495 104.193 115.865 104.715 116.365 105.112C116.865 105.509 117.502 105.707 118.276 105.707ZM120.01 107.265H119.481V95.5952H120.01C120.774 95.5952 121.47 95.7348 122.097 96.0141C122.724 96.2884 123.263 96.6828 123.714 97.1972C124.164 97.7116 124.512 98.3289 124.757 99.0491C125.002 99.7644 125.125 100.563 125.125 101.445C125.125 102.317 125.002 103.11 124.757 103.826C124.512 104.541 124.164 105.156 123.714 105.67C123.263 106.18 122.724 106.574 122.097 106.853C121.47 107.128 120.774 107.265 120.01 107.265ZM120.01 105.707C120.593 105.707 121.095 105.594 121.516 105.369C121.943 105.139 122.293 104.825 122.567 104.428C122.847 104.027 123.052 103.571 123.185 103.061C123.322 102.547 123.39 102.008 123.39 101.445C123.39 100.69 123.27 99.9873 123.03 99.3357C122.79 98.6841 122.42 98.1574 121.921 97.7557C121.421 97.354 120.784 97.1531 120.01 97.1531H119.716V105.707H120.01ZM129.51 104.472L134.948 95.7422H136.947V107.03H135.213V98.2995L129.804 107.03H127.776V95.7422H129.51V104.472ZM147.09 95.7422V97.3589H141.858V107.03H140.123V95.7422H147.09ZM157.176 100.592V102.209H150.944V100.592H157.176ZM151.356 95.7422V107.03H149.622V95.7422H151.356ZM158.499 95.7422V107.03H156.765V95.7422H158.499ZM168.456 107.03V97.3295H165.458C164.782 97.3295 164.251 97.4862 163.863 97.7998C163.476 98.1133 163.283 98.5445 163.283 99.0932C163.283 99.6321 163.457 100.056 163.805 100.364C164.157 100.673 164.64 100.827 165.252 100.827H168.897V102.444H165.252C164.488 102.444 163.829 102.309 163.276 102.04C162.722 101.771 162.296 101.386 161.997 100.886C161.698 100.382 161.549 99.7839 161.549 99.0932C161.549 98.3975 161.705 97.7998 162.019 97.3001C162.332 96.8004 162.781 96.4158 163.364 96.1463C163.952 95.8769 164.65 95.7422 165.458 95.7422H170.103V107.03H168.456ZM160.931 107.03L164.135 101.415H166.017L162.813 107.03H160.931Z" fill="black"/>
<path d="M185.35 110.343V109.471L188.624 105.887C189.009 105.467 189.325 105.102 189.574 104.792C189.822 104.479 190.006 104.185 190.126 103.911C190.249 103.633 190.31 103.343 190.31 103.039C190.31 102.69 190.226 102.388 190.058 102.133C189.893 101.878 189.667 101.681 189.38 101.542C189.093 101.404 188.77 101.334 188.411 101.334C188.03 101.334 187.698 101.413 187.413 101.571C187.133 101.726 186.915 101.944 186.76 102.225C186.608 102.506 186.532 102.836 186.532 103.213H185.389C185.389 102.632 185.523 102.122 185.791 101.683C186.059 101.244 186.424 100.901 186.886 100.656C187.35 100.411 187.872 100.288 188.45 100.288C189.031 100.288 189.546 100.411 189.995 100.656C190.444 100.901 190.796 101.232 191.051 101.649C191.306 102.066 191.434 102.529 191.434 103.039C191.434 103.404 191.367 103.761 191.235 104.11C191.106 104.455 190.88 104.841 190.557 105.267C190.237 105.69 189.793 106.207 189.225 106.817L186.997 109.2V109.278H191.608V110.343H185.35ZM196.571 110.479C195.841 110.479 195.22 110.28 194.706 109.883C194.193 109.483 193.801 108.903 193.529 108.144C193.258 107.382 193.123 106.462 193.123 105.383C193.123 104.311 193.258 103.396 193.529 102.637C193.804 101.875 194.198 101.294 194.711 100.893C195.228 100.49 195.848 100.288 196.571 100.288C197.294 100.288 197.913 100.49 198.426 100.893C198.943 101.294 199.337 101.875 199.608 102.637C199.883 103.396 200.02 104.311 200.02 105.383C200.02 106.462 199.884 107.382 199.613 108.144C199.342 108.903 198.949 109.483 198.436 109.883C197.923 110.28 197.301 110.479 196.571 110.479ZM196.571 109.413C197.294 109.413 197.856 109.065 198.257 108.367C198.657 107.67 198.857 106.675 198.857 105.383C198.857 104.524 198.765 103.793 198.581 103.189C198.4 102.585 198.139 102.125 197.797 101.809C197.458 101.492 197.049 101.334 196.571 101.334C195.854 101.334 195.294 101.688 194.89 102.395C194.487 103.099 194.285 104.095 194.285 105.383C194.285 106.242 194.375 106.972 194.556 107.573C194.737 108.173 194.997 108.63 195.336 108.943C195.678 109.257 196.09 109.413 196.571 109.413ZM202.44 109.074C202.201 109.074 201.996 108.989 201.825 108.818C201.654 108.646 201.568 108.441 201.568 108.202C201.568 107.963 201.654 107.758 201.825 107.587C201.996 107.416 202.201 107.331 202.44 107.331C202.679 107.331 202.884 107.416 203.055 107.587C203.226 107.758 203.312 107.963 203.312 108.202C203.312 108.361 203.272 108.506 203.191 108.638C203.113 108.771 203.008 108.877 202.876 108.958C202.747 109.035 202.602 109.074 202.44 109.074ZM202.44 104.056C202.201 104.056 201.996 103.971 201.825 103.8C201.654 103.628 201.568 103.423 201.568 103.184C201.568 102.945 201.654 102.74 201.825 102.569C201.996 102.398 202.201 102.313 202.44 102.313C202.679 102.313 202.884 102.398 203.055 102.569C203.226 102.74 203.312 102.945 203.312 103.184C203.312 103.343 203.272 103.488 203.191 103.62C203.113 103.753 203.008 103.859 202.876 103.94C202.747 104.018 202.602 104.056 202.44 104.056ZM204.839 108.309V107.321L209.198 100.424H209.915V101.954H209.43L206.137 107.166V107.243H212.007V108.309H204.839ZM209.508 110.343V108.009V107.549V100.424H210.651V110.343H209.508ZM216.785 110.479C216.055 110.479 215.434 110.28 214.92 109.883C214.407 109.483 214.014 108.903 213.743 108.144C213.472 107.382 213.336 106.462 213.336 105.383C213.336 104.311 213.472 103.396 213.743 102.637C214.018 101.875 214.412 101.294 214.925 100.893C215.442 100.49 216.062 100.288 216.785 100.288C217.508 100.288 218.127 100.49 218.64 100.893C219.157 101.294 219.551 101.875 219.822 102.637C220.096 103.396 220.234 104.311 220.234 105.383C220.234 106.462 220.098 107.382 219.827 108.144C219.555 108.903 219.163 109.483 218.65 109.883C218.136 110.28 217.515 110.479 216.785 110.479ZM216.785 109.413C217.508 109.413 218.07 109.065 218.47 108.367C218.871 107.67 219.071 106.675 219.071 105.383C219.071 104.524 218.979 103.793 218.795 103.189C218.614 102.585 218.353 102.125 218.01 101.809C217.671 101.492 217.263 101.334 216.785 101.334C216.068 101.334 215.508 101.688 215.104 102.395C214.701 103.099 214.499 104.095 214.499 105.383C214.499 106.242 214.589 106.972 214.77 107.573C214.951 108.173 215.211 108.63 215.55 108.943C215.892 109.257 216.304 109.413 216.785 109.413Z" fill="#4200FF"/>
<path fill-rule="evenodd" clip-rule="evenodd" d="M237.09 101.431C237.317 101.65 237.323 102.011 237.104 102.237L228.231 111.427C228.121 111.541 227.969 111.604 227.81 111.601C227.652 111.598 227.502 111.529 227.396 111.41L223.435 106.974C223.225 106.739 223.246 106.379 223.48 106.169C223.715 105.959 224.076 105.98 224.285 106.215L227.838 110.193L236.284 101.445C236.503 101.219 236.864 101.212 237.09 101.431Z" fill="#4200FF"/>
</svg>
