<svg width="244" height="43" viewBox="0 0 244 43" fill="none" xmlns="http://www.w3.org/2000/svg">
<path opacity="0.8" fill-rule="evenodd" clip-rule="evenodd" d="M243.641 19.1324C243.66 19.5661 243.66 20.0792 243.66 21.1055C243.66 22.1317 243.66 22.6448 243.641 23.0785C243.191 33.3842 234.939 41.6366 224.633 42.0865C224.2 42.1055 223.686 42.1055 222.66 42.1055H30.4566C27.6569 42.1055 26.2571 42.1055 25.0803 41.9648C21.6186 41.5509 18.4352 40.2579 15.7582 38.3139C14.8733 39.1012 13.7073 40.0036 12.455 40.6086C9.16965 42.1957 0.7043 42.1045 0.7043 42.1045C0.7043 42.1045 5.32399 40.6086 7.04071 33.7916C7.39891 32.3693 7.62993 28.7888 7.77638 25.2206C7.74356 25.0058 7.71414 24.7897 7.68819 24.5726C7.54749 23.3959 7.54749 21.996 7.54749 19.1964C7.54749 16.8633 7.54749 15.6968 7.66473 14.7162C8.57301 7.11958 14.5616 1.131 22.1582 0.222717C23.1388 0.105469 24.3053 0.105469 26.6384 0.105469H222.66C223.686 0.105469 224.2 0.105469 224.633 0.124404C234.939 0.574361 243.191 8.82671 243.641 19.1324Z" fill="#CFBEFF"/>
<path d="M198.963 22.4585V31.9131H197.818V23.6588H197.762L195.454 25.1915V24.0281L197.818 22.4585H198.963ZM204.45 32.0423C203.816 32.0423 203.256 31.93 202.77 31.7053C202.287 31.4776 201.91 31.1652 201.639 30.7682C201.368 30.3681 201.234 29.9126 201.237 29.4017C201.234 29.0016 201.313 28.6323 201.473 28.2938C201.633 27.9521 201.851 27.6675 202.128 27.4397C202.408 27.2089 202.721 27.0627 203.065 27.0012V26.9458C202.613 26.8288 202.253 26.5749 201.985 26.184C201.717 25.7901 201.585 25.3423 201.588 24.8406C201.585 24.3605 201.707 23.9312 201.953 23.5526C202.199 23.1741 202.537 22.8756 202.968 22.657C203.402 22.4385 203.896 22.3293 204.45 22.3293C204.998 22.3293 205.487 22.4385 205.918 22.657C206.349 22.8756 206.688 23.1741 206.934 23.5526C207.183 23.9312 207.309 24.3605 207.312 24.8406C207.309 25.3423 207.172 25.7901 206.902 26.184C206.634 26.5749 206.278 26.8288 205.835 26.9458V27.0012C206.177 27.0627 206.485 27.2089 206.758 27.4397C207.032 27.6675 207.251 27.9521 207.414 28.2938C207.577 28.6323 207.66 29.0016 207.663 29.4017C207.66 29.9126 207.522 30.3681 207.248 30.7682C206.977 31.1652 206.6 31.4776 206.117 31.7053C205.637 31.93 205.081 32.0423 204.45 32.0423ZM204.45 31.0267C204.878 31.0267 205.247 30.9575 205.558 30.819C205.869 30.6805 206.109 30.4851 206.278 30.2327C206.448 29.9803 206.534 29.6849 206.537 29.3463C206.534 28.9893 206.441 28.6739 206.26 28.3999C206.078 28.126 205.831 27.9106 205.517 27.7536C205.206 27.5967 204.85 27.5182 204.45 27.5182C204.047 27.5182 203.687 27.5967 203.37 27.7536C203.056 27.9106 202.808 28.126 202.627 28.3999C202.448 28.6739 202.361 28.9893 202.364 29.3463C202.361 29.6849 202.442 29.9803 202.608 30.2327C202.778 30.4851 203.019 30.6805 203.333 30.819C203.647 30.9575 204.019 31.0267 204.45 31.0267ZM204.45 26.5395C204.789 26.5395 205.089 26.4718 205.35 26.3364C205.615 26.201 205.823 26.0117 205.974 25.7686C206.124 25.5254 206.201 25.2407 206.204 24.9145C206.201 24.5944 206.126 24.3159 205.978 24.0789C205.831 23.8389 205.626 23.6542 205.364 23.5249C205.103 23.3926 204.798 23.3264 204.45 23.3264C204.096 23.3264 203.787 23.3926 203.522 23.5249C203.258 23.6542 203.053 23.8389 202.908 24.0789C202.764 24.3159 202.693 24.5944 202.696 24.9145C202.693 25.2407 202.765 25.5254 202.913 25.7686C203.064 26.0117 203.271 26.201 203.536 26.3364C203.801 26.4718 204.106 26.5395 204.45 26.5395ZM209.985 30.7036C209.757 30.7036 209.562 30.622 209.399 30.4589C209.236 30.2958 209.154 30.1003 209.154 29.8726C209.154 29.6449 209.236 29.4494 209.399 29.2863C209.562 29.1232 209.757 29.0416 209.985 29.0416C210.213 29.0416 210.408 29.1232 210.571 29.2863C210.734 29.4494 210.816 29.6449 210.816 29.8726C210.816 30.0234 210.778 30.1619 210.701 30.2881C210.627 30.4143 210.527 30.5158 210.401 30.5928C210.277 30.6666 210.139 30.7036 209.985 30.7036ZM209.985 25.9209C209.757 25.9209 209.562 25.8393 209.399 25.6762C209.236 25.5131 209.154 25.3177 209.154 25.0899C209.154 24.8622 209.236 24.6668 209.399 24.5036C209.562 24.3405 209.757 24.259 209.985 24.259C210.213 24.259 210.408 24.3405 210.571 24.5036C210.734 24.6668 210.816 24.8622 210.816 25.0899C210.816 25.2407 210.778 25.3792 210.701 25.5054C210.627 25.6316 210.527 25.7332 210.401 25.8101C210.277 25.884 210.139 25.9209 209.985 25.9209ZM215.447 32.0423C214.906 32.0423 214.418 31.9346 213.984 31.7192C213.55 31.5038 213.202 31.2083 212.94 30.8328C212.679 30.4574 212.536 30.0296 212.511 29.5494H213.619C213.662 29.9772 213.856 30.3312 214.201 30.6112C214.549 30.8882 214.964 31.0267 215.447 31.0267C215.835 31.0267 216.18 30.9359 216.481 30.7544C216.786 30.5728 217.024 30.3235 217.197 30.0065C217.372 29.6864 217.46 29.3248 217.46 28.9216C217.46 28.5092 217.369 28.1414 217.188 27.8183C217.009 27.492 216.763 27.2351 216.449 27.0473C216.135 26.8596 215.776 26.7642 215.373 26.7611C215.084 26.758 214.787 26.8026 214.482 26.895C214.178 26.9842 213.927 27.0996 213.73 27.2412L212.659 27.1119L213.231 22.4585H218.143V23.4742H214.192L213.859 26.2625H213.915C214.108 26.1086 214.352 25.9809 214.644 25.8794C214.936 25.7778 215.241 25.727 215.558 25.727C216.137 25.727 216.652 25.8655 217.104 26.1425C217.56 26.4164 217.917 26.7919 218.176 27.2689C218.437 27.7459 218.568 28.2907 218.568 28.9031C218.568 29.5064 218.433 30.045 218.162 30.5189C217.894 30.9898 217.525 31.3622 217.054 31.6361C216.583 31.9069 216.047 32.0423 215.447 32.0423ZM223.281 32.0423C222.893 32.0362 222.505 31.9623 222.118 31.8208C221.73 31.6792 221.376 31.4407 221.056 31.1052C220.736 30.7667 220.479 30.3096 220.285 29.7341C220.091 29.1555 219.994 28.4292 219.994 27.5551C219.994 26.718 220.073 25.9763 220.23 25.33C220.386 24.6806 220.614 24.1343 220.913 23.6911C221.211 23.2449 221.571 22.9063 221.993 22.6755C222.418 22.4447 222.896 22.3293 223.429 22.3293C223.958 22.3293 224.429 22.4355 224.841 22.6478C225.257 22.8571 225.595 23.1495 225.857 23.5249C226.119 23.9004 226.288 24.3328 226.365 24.8222H225.238C225.134 24.3975 224.931 24.0451 224.629 23.765C224.327 23.4849 223.927 23.3449 223.429 23.3449C222.696 23.3449 222.119 23.6634 221.698 24.3005C221.279 24.9376 221.068 25.8316 221.065 26.9827H221.139C221.311 26.7211 221.516 26.498 221.753 26.3133C221.993 26.1256 222.258 25.9809 222.547 25.8794C222.836 25.7778 223.143 25.727 223.466 25.727C224.007 25.727 224.503 25.8624 224.952 26.1333C225.402 26.401 225.762 26.7719 226.032 27.2458C226.303 27.7167 226.439 28.2568 226.439 28.8662C226.439 29.451 226.308 29.9865 226.046 30.4727C225.785 30.9559 225.417 31.3406 224.943 31.6269C224.472 31.91 223.918 32.0485 223.281 32.0423ZM223.281 31.0267C223.669 31.0267 224.017 30.9298 224.324 30.7359C224.635 30.542 224.88 30.2819 225.058 29.9557C225.24 29.6295 225.331 29.2663 225.331 28.8662C225.331 28.4753 225.243 28.1199 225.068 27.7998C224.895 27.4767 224.657 27.2197 224.352 27.0289C224.05 26.838 223.706 26.7426 223.318 26.7426C223.026 26.7426 222.753 26.8011 222.501 26.9181C222.248 27.0319 222.027 27.1889 221.836 27.3889C221.648 27.589 221.501 27.8183 221.393 28.0768C221.285 28.3322 221.231 28.6015 221.231 28.8847C221.231 29.2602 221.319 29.611 221.494 29.9372C221.673 30.2635 221.916 30.5266 222.224 30.7267C222.535 30.9267 222.887 31.0267 223.281 31.0267Z" fill="#4200FF"/>
<path d="M27.4215 28.1055V13.56H36.1999V15.1225H29.1829V19.668H32.8761C33.9177 19.668 34.796 19.8384 35.511 20.1793C36.2307 20.5202 36.7752 21.0008 37.1445 21.6211C37.5186 22.2414 37.7056 22.9729 37.7056 23.8157C37.7056 24.6585 37.5186 25.4019 37.1445 26.0458C36.7752 26.6897 36.2307 27.194 35.511 27.5586C34.796 27.9232 33.9177 28.1055 32.8761 28.1055H27.4215ZM29.1829 26.5714H32.8761C33.5389 26.5714 34.1 26.4388 34.5593 26.1737C35.0233 25.9038 35.3737 25.5581 35.6104 25.1367C35.8519 24.7106 35.9727 24.2608 35.9727 23.7873C35.9727 23.0913 35.7051 22.4923 35.1701 21.9904C34.6351 21.4838 33.8704 21.2305 32.8761 21.2305H29.1829V26.5714ZM39.4119 28.1055V26.543H39.8097C40.1364 26.543 40.4086 26.479 40.6264 26.3512C40.8442 26.2186 41.0194 25.989 41.152 25.6623C41.2893 25.3308 41.3935 24.8716 41.4645 24.2844C41.5402 23.6926 41.5947 22.9397 41.6278 22.0259L41.8267 17.1964H49.0994V28.1055H47.4233V18.7589H43.4176L43.2472 22.6509C43.2093 23.5458 43.1288 24.3342 43.0057 25.016C42.8873 25.6931 42.705 26.2612 42.4588 26.7205C42.2173 27.1798 41.8954 27.5254 41.4929 27.7575C41.0904 27.9895 40.5862 28.1055 39.9801 28.1055H39.4119ZM55.3849 28.3612C54.6937 28.3612 54.0663 28.2309 53.5028 27.9705C52.9394 27.7054 52.492 27.3242 52.1605 26.8271C51.8291 26.3252 51.6634 25.7191 51.6634 25.0089C51.6634 24.3839 51.7865 23.8772 52.0327 23.489C52.2789 23.096 52.608 22.7882 53.0199 22.5657C53.4318 22.3432 53.8864 22.1774 54.3835 22.0685C54.8854 21.9549 55.3897 21.8649 55.8963 21.7987C56.5592 21.7134 57.0966 21.6495 57.5085 21.6069C57.9252 21.5595 58.2282 21.4814 58.4176 21.3725C58.6117 21.2636 58.7088 21.0742 58.7088 20.8043V20.7475C58.7088 20.0468 58.517 19.5022 58.1335 19.114C57.7547 18.7257 57.1795 18.5316 56.4077 18.5316C55.6075 18.5316 54.9801 18.7068 54.5256 19.0572C54.071 19.4076 53.7514 19.7816 53.5668 20.1793L51.9759 19.6112C52.2599 18.9483 52.6387 18.4322 53.1122 18.0629C53.5904 17.6888 54.1113 17.4284 54.6747 17.2816C55.2429 17.1301 55.8016 17.0543 56.3509 17.0543C56.7012 17.0543 57.1037 17.0969 57.5582 17.1822C58.0175 17.2627 58.4602 17.4308 58.8864 17.6864C59.3172 17.9421 59.6747 18.328 59.9588 18.8441C60.2429 19.3602 60.3849 20.0515 60.3849 20.918V28.1055H58.7088V26.6282H58.6236C58.5099 26.8649 58.3205 27.1183 58.0554 27.3881C57.7902 27.658 57.4375 27.8877 56.9972 28.0771C56.5568 28.2665 56.0194 28.3612 55.3849 28.3612ZM55.6406 26.8555C56.3035 26.8555 56.8622 26.7253 57.3168 26.4648C57.776 26.2044 58.1217 25.8683 58.3537 25.4563C58.5904 25.0444 58.7088 24.6112 58.7088 24.1566V22.6225C58.6378 22.7077 58.4815 22.7859 58.2401 22.8569C58.0033 22.9232 57.7287 22.9824 57.4162 23.0344C57.1084 23.0818 56.8078 23.1244 56.5142 23.1623C56.2254 23.1954 55.991 23.2238 55.8111 23.2475C55.3755 23.3043 54.9683 23.3967 54.5895 23.5245C54.2154 23.6476 53.9124 23.8346 53.6804 24.0856C53.4531 24.3318 53.3395 24.668 53.3395 25.0941C53.3395 25.6765 53.5549 26.1168 53.9858 26.4151C54.4214 26.7087 54.973 26.8555 55.6406 26.8555ZM70.1772 17.1964V18.7589H65.1204V28.1055H63.4442V17.1964H70.1772ZM76.4893 28.3327C75.5045 28.3327 74.6404 28.0984 73.897 27.6296C73.1584 27.1609 72.5807 26.5051 72.1641 25.6623C71.7521 24.8195 71.5462 23.8346 71.5462 22.7077C71.5462 21.5714 71.7521 20.5794 72.1641 19.7319C72.5807 18.8844 73.1584 18.2262 73.897 17.7575C74.6404 17.2887 75.5045 17.0543 76.4893 17.0543C77.4742 17.0543 78.3359 17.2887 79.0746 17.7575C79.8179 18.2262 80.3956 18.8844 80.8075 19.7319C81.2242 20.5794 81.4325 21.5714 81.4325 22.7077C81.4325 23.8346 81.2242 24.8195 80.8075 25.6623C80.3956 26.5051 79.8179 27.1609 79.0746 27.6296C78.3359 28.0984 77.4742 28.3327 76.4893 28.3327ZM76.4893 26.8271C77.2375 26.8271 77.853 26.6353 78.3359 26.2518C78.8189 25.8683 79.1764 25.364 79.4084 24.739C79.6404 24.114 79.7564 23.4369 79.7564 22.7077C79.7564 21.9786 79.6404 21.2991 79.4084 20.6694C79.1764 20.0397 78.8189 19.5307 78.3359 19.1424C77.853 18.7541 77.2375 18.56 76.4893 18.56C75.7412 18.56 75.1257 18.7541 74.6428 19.1424C74.1598 19.5307 73.8023 20.0397 73.5703 20.6694C73.3383 21.2991 73.2223 21.9786 73.2223 22.7077C73.2223 23.4369 73.3383 24.114 73.5703 24.739C73.8023 25.364 74.1598 25.8683 74.6428 26.2518C75.1257 26.6353 75.7412 26.8271 76.4893 26.8271ZM82.8263 31.2305V26.543H83.7354C83.958 26.311 84.1497 26.06 84.3107 25.7901C84.4717 25.5202 84.6114 25.2006 84.7298 24.8313C84.8529 24.4573 84.957 24.0027 85.0423 23.4677C85.1275 22.9279 85.2032 22.2769 85.2695 21.5146L85.6388 17.1964H92.5707V26.543H94.2468V31.2305H92.5707V28.1055H84.5025V31.2305H82.8263ZM85.6388 26.543H90.8945V18.7589H87.2013L86.9173 21.5146C86.7989 22.6557 86.6521 23.6523 86.4769 24.5046C86.3017 25.3569 86.0224 26.0363 85.6388 26.543ZM99.6818 28.3612C98.9905 28.3612 98.3632 28.2309 97.7997 27.9705C97.2363 27.7054 96.7888 27.3242 96.4574 26.8271C96.1259 26.3252 95.9602 25.7191 95.9602 25.0089C95.9602 24.3839 96.0833 23.8772 96.3295 23.489C96.5758 23.096 96.9048 22.7882 97.3168 22.5657C97.7287 22.3432 98.1832 22.1774 98.6804 22.0685C99.1823 21.9549 99.6866 21.8649 100.193 21.7987C100.856 21.7134 101.393 21.6495 101.805 21.6069C102.222 21.5595 102.525 21.4814 102.714 21.3725C102.909 21.2636 103.006 21.0742 103.006 20.8043V20.7475C103.006 20.0468 102.814 19.5022 102.43 19.114C102.052 18.7257 101.476 18.5316 100.705 18.5316C99.9044 18.5316 99.277 18.7068 98.8224 19.0572C98.3679 19.4076 98.0483 19.7816 97.8636 20.1793L96.2727 19.6112C96.5568 18.9483 96.9356 18.4322 97.4091 18.0629C97.8873 17.6888 98.4081 17.4284 98.9716 17.2816C99.5398 17.1301 100.098 17.0543 100.648 17.0543C100.998 17.0543 101.401 17.0969 101.855 17.1822C102.314 17.2627 102.757 17.4308 103.183 17.6864C103.614 17.9421 103.972 18.328 104.256 18.8441C104.54 19.3602 104.682 20.0515 104.682 20.918V28.1055H103.006V26.6282H102.92C102.807 26.8649 102.617 27.1183 102.352 27.3881C102.087 27.658 101.734 27.8877 101.294 28.0771C100.854 28.2665 100.316 28.3612 99.6818 28.3612ZM99.9375 26.8555C100.6 26.8555 101.159 26.7253 101.614 26.4648C102.073 26.2044 102.419 25.8683 102.651 25.4563C102.887 25.0444 103.006 24.6112 103.006 24.1566V22.6225C102.935 22.7077 102.778 22.7859 102.537 22.8569C102.3 22.9232 102.026 22.9824 101.713 23.0344C101.405 23.0818 101.105 23.1244 100.811 23.1623C100.522 23.1954 100.288 23.2238 100.108 23.2475C99.6723 23.3043 99.2652 23.3967 98.8864 23.5245C98.5123 23.6476 98.2093 23.8346 97.9773 24.0856C97.75 24.3318 97.6364 24.668 97.6364 25.0941C97.6364 25.6765 97.8518 26.1168 98.2827 26.4151C98.7183 26.7087 99.2699 26.8555 99.9375 26.8555ZM107.741 32.1964V17.1964H109.36V18.9293H109.559C109.682 18.7399 109.853 18.4985 110.071 18.2049C110.293 17.9066 110.61 17.6415 111.022 17.4094C111.439 17.1727 112.002 17.0543 112.713 17.0543C113.631 17.0543 114.441 17.284 115.142 17.7433C115.842 18.2025 116.389 18.8536 116.782 19.6964C117.175 20.5392 117.372 21.5335 117.372 22.6793C117.372 23.8346 117.175 24.8361 116.782 25.6836C116.389 26.5264 115.845 27.1798 115.149 27.6438C114.453 28.1031 113.65 28.3327 112.741 28.3327C112.04 28.3327 111.479 28.2167 111.058 27.9847C110.636 27.748 110.312 27.4805 110.085 27.1822C109.858 26.8791 109.682 26.6282 109.559 26.4293H109.417V32.1964H107.741ZM109.389 22.6509C109.389 23.4748 109.51 24.2016 109.751 24.8313C109.993 25.4563 110.345 25.9464 110.809 26.3015C111.273 26.6519 111.842 26.8271 112.514 26.8271C113.215 26.8271 113.799 26.6424 114.268 26.2731C114.742 25.899 115.097 25.3971 115.333 24.7674C115.575 24.1329 115.696 23.4274 115.696 22.6509C115.696 21.8839 115.577 21.1926 115.341 20.5771C115.109 19.9568 114.756 19.4667 114.282 19.1069C113.814 18.7423 113.224 18.56 112.514 18.56C111.832 18.56 111.259 18.7328 110.795 19.0785C110.331 19.4194 109.981 19.8976 109.744 20.5131C109.507 21.1239 109.389 21.8365 109.389 22.6509ZM124.36 28.3327C123.338 28.3327 122.457 28.0913 121.718 27.6083C120.98 27.1254 120.412 26.4601 120.014 25.6126C119.616 24.765 119.417 23.7968 119.417 22.7077C119.417 21.5998 119.621 20.622 120.028 19.7745C120.44 18.9222 121.013 18.257 121.747 17.7788C122.485 17.2958 123.347 17.0543 124.332 17.0543C125.099 17.0543 125.79 17.1964 126.406 17.4805C127.021 17.7646 127.526 18.1623 127.919 18.6737C128.312 19.185 128.556 19.7816 128.65 20.4634H126.974C126.846 19.9663 126.562 19.5259 126.122 19.1424C125.686 18.7541 125.099 18.56 124.36 18.56C123.707 18.56 123.134 18.7305 122.642 19.0714C122.154 19.4076 121.773 19.8834 121.498 20.4989C121.228 21.1097 121.093 21.8271 121.093 22.6509C121.093 23.4937 121.226 24.2276 121.491 24.8526C121.761 25.4776 122.14 25.9629 122.627 26.3086C123.12 26.6542 123.698 26.8271 124.36 26.8271C124.796 26.8271 125.191 26.7513 125.547 26.5998C125.902 26.4483 126.202 26.2305 126.449 25.9464C126.695 25.6623 126.87 25.3214 126.974 24.9237H128.65C128.556 25.5676 128.321 26.1476 127.947 26.6637C127.578 27.1751 127.088 27.5823 126.477 27.8853C125.871 28.1836 125.165 28.3327 124.36 28.3327ZM130.241 18.7589V17.1964H139.105V18.7589H135.525V28.1055H133.849V18.7589H130.241ZM141.55 28.1055V17.1964H146.01C147.184 17.1964 148.117 17.4615 148.808 17.9918C149.5 18.5221 149.845 19.2229 149.845 20.0941C149.845 20.757 149.649 21.2707 149.256 21.6353C148.863 21.9951 148.358 22.239 147.743 22.3668C148.145 22.4237 148.536 22.5657 148.915 22.793C149.298 23.0202 149.616 23.3327 149.866 23.7305C150.117 24.1235 150.243 24.6064 150.243 25.1793C150.243 25.738 150.101 26.2376 149.817 26.6779C149.533 27.1183 149.125 27.4663 148.595 27.7219C148.065 27.9776 147.43 28.1055 146.692 28.1055H141.55ZM143.141 26.5714H146.692C147.269 26.5714 147.722 26.4341 148.048 26.1594C148.375 25.8848 148.538 25.5108 148.538 25.0373C148.538 24.4738 148.375 24.0311 148.048 23.7092C147.722 23.3825 147.269 23.2191 146.692 23.2191H143.141V26.5714ZM143.141 21.7702H146.01C146.46 21.7702 146.846 21.7087 147.168 21.5856C147.49 21.4577 147.736 21.2778 147.906 21.0458C148.081 20.8091 148.169 20.5297 148.169 20.2077C148.169 19.7485 147.977 19.3886 147.594 19.1282C147.21 18.863 146.682 18.7305 146.01 18.7305H143.141V21.7702ZM153.86 32.1964C153.576 32.1964 153.322 32.1727 153.1 32.1254C152.877 32.0827 152.723 32.0401 152.638 31.9975L153.064 30.5202C153.471 30.6244 153.831 30.6623 154.144 30.6339C154.456 30.6055 154.733 30.4658 154.975 30.2148C155.221 29.9686 155.446 29.5685 155.65 29.0146L155.962 28.1623L151.928 17.1964H153.746L156.757 25.8896H156.871L159.882 17.1964H161.701L157.07 29.6964C156.862 30.2598 156.604 30.7262 156.296 31.0955C155.988 31.4696 155.631 31.7466 155.223 31.9265C154.821 32.1064 154.366 32.1964 153.86 32.1964ZM169.14 21.9691V23.5316H163.373V21.9691H169.14ZM164.794 17.1964V28.1055H163.118V17.1964H164.794ZM172.493 28.3327C171.508 28.3327 170.644 28.0984 169.9 27.6296C169.162 27.1609 168.584 26.5051 168.167 25.6623C167.755 24.8195 167.549 23.8346 167.549 22.7077C167.549 21.5714 167.755 20.5794 168.167 19.7319C168.584 18.8844 169.162 18.2262 169.9 17.7575C170.644 17.2887 171.508 17.0543 172.493 17.0543C173.477 17.0543 174.339 17.2887 175.078 17.7575C175.821 18.2262 176.399 18.8844 176.811 19.7319C177.227 20.5794 177.436 21.5714 177.436 22.7077C177.436 23.8346 177.227 24.8195 176.811 25.6623C176.399 26.5051 175.821 27.1609 175.078 27.6296C174.339 28.0984 173.477 28.3327 172.493 28.3327ZM172.493 26.8271C173.241 26.8271 173.856 26.6353 174.339 26.2518C174.822 25.8683 175.18 25.364 175.412 24.739C175.644 24.114 175.76 23.4369 175.76 22.7077C175.76 21.9786 175.644 21.2991 175.412 20.6694C175.18 20.0397 174.822 19.5307 174.339 19.1424C173.856 18.7541 173.241 18.56 172.493 18.56C171.744 18.56 171.129 18.7541 170.646 19.1424C170.163 19.5307 169.806 20.0397 169.574 20.6694C169.342 21.2991 169.225 21.9786 169.225 22.7077C169.225 23.4369 169.342 24.114 169.574 24.739C169.806 25.364 170.163 25.8683 170.646 26.2518C171.129 26.6353 171.744 26.8271 172.493 26.8271ZM182.379 13.56L182.237 24.0146H180.589L180.447 13.56H182.379ZM181.413 28.2191C181.063 28.2191 180.762 28.0936 180.511 27.8427C180.26 27.5917 180.135 27.2911 180.135 26.9407C180.135 26.5903 180.26 26.2897 180.511 26.0387C180.762 25.7878 181.063 25.6623 181.413 25.6623C181.763 25.6623 182.064 25.7878 182.315 26.0387C182.566 26.2897 182.691 26.5903 182.691 26.9407C182.691 27.1727 182.632 27.3858 182.514 27.5799C182.4 27.774 182.246 27.9303 182.052 28.0487C181.863 28.1623 181.65 28.2191 181.413 28.2191Z" fill="black"/>
</svg>
