<svg width="582" height="186" viewBox="0 0 582 186" fill="none" xmlns="http://www.w3.org/2000/svg">
<path opacity="0.9" d="M375 21.5C375 9.62588 384.626 0 396.5 0H541.333C548.835 0 552.586 0 555.628 0.965207C562.01 2.99048 567.01 7.99042 569.035 14.3724C570 17.4139 570 21.1648 570 28.6667C570 32.4176 570 34.2931 569.517 35.8138C568.505 39.0048 566.005 41.5048 562.814 42.5174C561.293 43 559.418 43 555.667 43H396.5C384.626 43 375 33.3741 375 21.5Z" fill="#D4C5FF"/>
<path d="M396.479 32.7333V27.4506H397.453C397.787 27.1457 398.102 26.7153 398.397 26.1595C398.697 25.5988 398.95 24.8511 399.157 23.9166C399.368 22.9771 399.509 21.7843 399.577 20.3382L399.902 13.9637H408.874V27.4506H410.615V32.7038H408.874V29.0738H398.22V32.7333H396.479ZM399.636 27.4506H407.132V15.5868H401.555L401.319 20.3382C401.26 21.44 401.156 22.4385 401.009 23.3337C400.861 24.224 400.672 25.0134 400.441 25.702C400.209 26.3857 399.941 26.9686 399.636 27.4506ZM416.479 29.3394C415.76 29.3394 415.109 29.2041 414.523 28.9336C413.938 28.6582 413.473 28.2622 413.129 27.7458C412.785 27.2244 412.612 26.5948 412.612 25.857C412.612 25.2077 412.74 24.6814 412.996 24.2781C413.252 23.8698 413.594 23.5501 414.022 23.319C414.45 23.0878 414.922 22.9156 415.438 22.8025C415.96 22.6844 416.483 22.591 417.01 22.5221C417.698 22.4336 418.257 22.3672 418.685 22.3229C419.117 22.2737 419.432 22.1926 419.629 22.0794C419.831 21.9663 419.931 21.7696 419.931 21.4892V21.4302C419.931 20.7022 419.732 20.1366 419.334 19.7332C418.94 19.3299 418.343 19.1283 417.541 19.1283C416.71 19.1283 416.058 19.3102 415.586 19.6742C415.114 20.0382 414.782 20.4268 414.59 20.8399L412.937 20.2497C413.232 19.5611 413.626 19.025 414.118 18.6413C414.614 18.2527 415.155 17.9822 415.741 17.8297C416.331 17.6723 416.911 17.5936 417.482 17.5936C417.846 17.5936 418.264 17.6379 418.736 17.7264C419.213 17.81 419.673 17.9847 420.116 18.2503C420.564 18.5159 420.935 18.9167 421.23 19.4529C421.525 19.989 421.673 20.7071 421.673 21.6073V29.0738H419.931V27.5392H419.843C419.725 27.7851 419.528 28.0482 419.253 28.3286C418.977 28.609 418.611 28.8475 418.153 29.0443C417.696 29.241 417.138 29.3394 416.479 29.3394ZM416.744 27.7753C417.433 27.7753 418.013 27.64 418.485 27.3695C418.962 27.0989 419.322 26.7497 419.563 26.3218C419.808 25.8939 419.931 25.4438 419.931 24.9716V23.378C419.858 23.4665 419.695 23.5477 419.445 23.6215C419.199 23.6903 418.913 23.7518 418.589 23.8059C418.269 23.8551 417.957 23.8994 417.652 23.9387C417.352 23.9731 417.108 24.0026 416.921 24.0272C416.469 24.0863 416.046 24.1822 415.652 24.315C415.264 24.4429 414.949 24.6372 414.708 24.8978C414.472 25.1536 414.354 25.5028 414.354 25.9455C414.354 26.5505 414.577 27.008 415.025 27.3178C415.478 27.6228 416.051 27.7753 416.744 27.7753ZM438.279 22.6107V24.2338H432.022V22.6107H438.279ZM432.435 17.7412V29.0738H430.694V17.7412H432.435ZM439.607 17.7412V29.0738H437.866V17.7412H439.607ZM443.502 33.3235C443.207 33.3235 442.944 33.2989 442.713 33.2497C442.482 33.2055 442.322 33.1612 442.233 33.1169L442.676 31.5823C443.099 31.6905 443.473 31.7299 443.797 31.7004C444.122 31.6708 444.41 31.5257 444.661 31.2651C444.916 31.0093 445.15 30.5937 445.362 30.0182L445.686 29.1328L441.496 17.7412H443.384L446.513 26.7719H446.631L449.759 17.7412H451.648L446.837 30.7265C446.621 31.3118 446.353 31.7963 446.033 32.1799C445.713 32.5685 445.342 32.8562 444.919 33.0432C444.501 33.2301 444.029 33.3235 443.502 33.3235ZM467.374 22.6107V24.2338H461.117V22.6107H467.374ZM461.53 17.7412V29.0738H459.789V17.7412H461.53ZM468.702 17.7412V29.0738H466.961V17.7412H468.702ZM476.633 29.3099C475.541 29.3099 474.599 29.0689 473.807 28.5868C473.02 28.0999 472.413 27.4211 471.985 26.5505C471.562 25.675 471.351 24.6568 471.351 23.496C471.351 22.3352 471.562 21.3121 471.985 20.4268C472.413 19.5365 473.008 18.843 473.771 18.3462C474.538 17.8445 475.433 17.5936 476.456 17.5936C477.046 17.5936 477.629 17.692 478.205 17.8887C478.78 18.0855 479.304 18.4052 479.776 18.8479C480.248 19.2856 480.625 19.8661 480.905 20.5891C481.185 21.3121 481.326 22.2024 481.326 23.2599V23.9977H472.59V22.4926H479.555C479.555 21.8532 479.427 21.2826 479.171 20.7809C478.92 20.2792 478.561 19.8833 478.094 19.5931C477.632 19.3029 477.086 19.1578 476.456 19.1578C475.763 19.1578 475.163 19.3299 474.656 19.6742C474.154 20.0136 473.768 20.4563 473.498 21.0023C473.227 21.5482 473.092 22.1336 473.092 22.7582V23.7616C473.092 24.6175 473.239 25.343 473.534 25.9381C473.834 26.5284 474.25 26.9784 474.781 27.2883C475.313 27.5933 475.93 27.7458 476.633 27.7458C477.091 27.7458 477.504 27.6818 477.873 27.5539C478.247 27.4211 478.569 27.2244 478.839 26.9637C479.11 26.6981 479.319 26.3685 479.466 25.975L481.149 26.4472C480.971 27.0178 480.674 27.5195 480.256 27.9523C479.838 28.3803 479.321 28.7147 478.706 28.9557C478.092 29.1918 477.401 29.3099 476.633 29.3099ZM482.919 19.3643V17.7412H492.127V19.3643H488.408V29.0738H486.667V19.3643H482.919Z" fill="black"/>
<path d="M507.028 32.3807C506.296 32.3807 505.672 32.1813 505.156 31.7825C504.641 31.3805 504.247 30.7986 503.974 30.0368C503.702 29.2717 503.566 28.3477 503.566 27.2649C503.566 26.1886 503.702 25.2695 503.974 24.5076C504.25 23.7425 504.646 23.159 505.161 22.757C505.68 22.3517 506.302 22.1491 507.028 22.1491C507.755 22.1491 508.375 22.3517 508.891 22.757C509.41 23.159 509.805 23.7425 510.077 24.5076C510.353 25.2695 510.491 26.1886 510.491 27.2649C510.491 28.3477 510.355 29.2717 510.082 30.0368C509.81 30.7986 509.416 31.3805 508.901 31.7825C508.385 32.1813 507.761 32.3807 507.028 32.3807ZM507.028 31.3108C507.755 31.3108 508.319 30.9607 508.721 30.2604C509.123 29.5602 509.324 28.5617 509.324 27.2649C509.324 26.4025 509.231 25.6682 509.046 25.062C508.865 24.4558 508.602 23.9938 508.259 23.6761C507.918 23.3584 507.508 23.1995 507.028 23.1995C506.309 23.1995 505.746 23.5545 505.341 24.2645C504.936 24.9712 504.733 25.9714 504.733 27.2649C504.733 28.1273 504.824 28.8599 505.005 29.4629C505.187 30.0659 505.448 30.5247 505.788 30.8391C506.132 31.1536 506.545 31.3108 507.028 31.3108ZM515.255 32.3807C514.587 32.3807 513.997 32.2623 513.485 32.0257C512.976 31.7858 512.579 31.4567 512.293 31.0385C512.008 30.6171 511.867 30.1373 511.87 29.5991C511.867 29.1776 511.95 28.7886 512.118 28.432C512.287 28.0721 512.517 27.7723 512.809 27.5324C513.104 27.2892 513.433 27.1352 513.796 27.0704V27.012C513.319 26.8888 512.94 26.6214 512.658 26.2096C512.376 25.7947 512.237 25.323 512.24 24.7945C512.237 24.2888 512.365 23.8366 512.624 23.4378C512.883 23.039 513.24 22.7246 513.694 22.4944C514.151 22.2642 514.671 22.1491 515.255 22.1491C515.832 22.1491 516.347 22.2642 516.801 22.4944C517.255 22.7246 517.612 23.039 517.871 23.4378C518.134 23.8366 518.267 24.2888 518.27 24.7945C518.267 25.323 518.122 25.7947 517.837 26.2096C517.555 26.6214 517.181 26.8888 516.714 27.012V27.0704C517.074 27.1352 517.398 27.2892 517.686 27.5324C517.975 27.7723 518.205 28.0721 518.377 28.432C518.549 28.7886 518.636 29.1776 518.639 29.5991C518.636 30.1373 518.49 30.6171 518.202 31.0385C517.916 31.4567 517.519 31.7858 517.01 32.0257C516.505 32.2623 515.919 32.3807 515.255 32.3807ZM515.255 31.3108C515.705 31.3108 516.095 31.2379 516.422 31.092C516.749 30.9461 517.002 30.7402 517.181 30.4744C517.359 30.2086 517.45 29.8973 517.453 29.5407C517.45 29.1647 517.352 28.8324 517.161 28.5438C516.97 28.2553 516.709 28.0284 516.378 27.863C516.051 27.6977 515.676 27.615 515.255 27.615C514.83 27.615 514.451 27.6977 514.117 27.863C513.786 28.0284 513.525 28.2553 513.334 28.5438C513.146 28.8324 513.054 29.1647 513.057 29.5407C513.054 29.8973 513.139 30.2086 513.315 30.4744C513.493 30.7402 513.747 30.9461 514.078 31.092C514.409 31.2379 514.801 31.3108 515.255 31.3108ZM515.255 26.5841C515.611 26.5841 515.928 26.5128 516.203 26.3701C516.482 26.2275 516.701 26.0281 516.86 25.772C517.018 25.5159 517.1 25.216 517.103 24.8724C517.1 24.5352 517.02 24.2418 516.864 23.9922C516.709 23.7393 516.493 23.5448 516.218 23.4086C515.942 23.2692 515.621 23.1995 515.255 23.1995C514.882 23.1995 514.556 23.2692 514.277 23.4086C513.999 23.5448 513.783 23.7393 513.631 23.9922C513.478 24.2418 513.404 24.5352 513.407 24.8724C513.404 25.216 513.48 25.5159 513.635 25.772C513.794 26.0281 514.013 26.2275 514.292 26.3701C514.571 26.5128 514.892 26.5841 515.255 26.5841ZM521.085 30.9704C520.845 30.9704 520.639 30.8845 520.468 30.7127C520.296 30.5409 520.21 30.335 520.21 30.0951C520.21 29.8552 520.296 29.6493 520.468 29.4775C520.639 29.3057 520.845 29.2198 521.085 29.2198C521.325 29.2198 521.531 29.3057 521.703 29.4775C521.875 29.6493 521.96 29.8552 521.96 30.0951C521.96 30.254 521.92 30.3998 521.839 30.5328C521.761 30.6657 521.656 30.7727 521.523 30.8537C521.393 30.9315 521.247 30.9704 521.085 30.9704ZM521.085 25.9325C520.845 25.9325 520.639 25.8466 520.468 25.6747C520.296 25.5029 520.21 25.297 520.21 25.0571C520.21 24.8172 520.296 24.6114 520.468 24.4396C520.639 24.2677 520.845 24.1818 521.085 24.1818C521.325 24.1818 521.531 24.2677 521.703 24.4396C521.875 24.6114 521.96 24.8172 521.96 25.0571C521.96 25.216 521.92 25.3619 521.839 25.4948C521.761 25.6277 521.656 25.7347 521.523 25.8158C521.393 25.8936 521.247 25.9325 521.085 25.9325ZM523.493 30.2021V29.2101L527.87 22.2853H528.589V23.822H528.103L524.796 29.0544V29.1323H530.69V30.2021H523.493ZM528.181 32.2445V29.9006V29.4386V22.2853H529.329V32.2445H528.181ZM535.487 32.3807C534.754 32.3807 534.13 32.1813 533.615 31.7825C533.099 31.3805 532.706 30.7986 532.433 30.0368C532.161 29.2717 532.025 28.3477 532.025 27.2649C532.025 26.1886 532.161 25.2695 532.433 24.5076C532.709 23.7425 533.104 23.159 533.62 22.757C534.138 22.3517 534.761 22.1491 535.487 22.1491C536.213 22.1491 536.834 22.3517 537.35 22.757C537.868 23.159 538.264 23.7425 538.536 24.5076C538.812 25.2695 538.95 26.1886 538.95 27.2649C538.95 28.3477 538.813 29.2717 538.541 30.0368C538.269 30.7986 537.875 31.3805 537.359 31.7825C536.844 32.1813 536.22 32.3807 535.487 32.3807ZM535.487 31.3108C536.213 31.3108 536.777 30.9607 537.179 30.2604C537.581 29.5602 537.782 28.5617 537.782 27.2649C537.782 26.4025 537.69 25.6682 537.505 25.062C537.324 24.4558 537.061 23.9938 536.717 23.6761C536.377 23.3584 535.967 23.1995 535.487 23.1995C534.767 23.1995 534.205 23.5545 533.8 24.2645C533.394 24.9712 533.192 25.9714 533.192 27.2649C533.192 28.1273 533.283 28.8599 533.464 29.4629C533.646 30.0659 533.907 30.5247 534.247 30.8391C534.591 31.1536 535.004 31.3108 535.487 31.3108Z" fill="#4200FF"/>
<path fill-rule="evenodd" clip-rule="evenodd" d="M556.491 23.1606C556.718 23.3802 556.724 23.7425 556.505 23.9699L547.597 33.1961C547.486 33.3106 547.333 33.3739 547.174 33.3708C547.015 33.3677 546.864 33.2985 546.758 33.1798L542.781 28.7257C542.571 28.4899 542.591 28.1281 542.827 27.9176C543.063 27.707 543.425 27.7275 543.635 27.9633L547.201 31.9576L555.681 23.1748C555.901 22.9474 556.263 22.941 556.491 23.1606Z" fill="#4200FF"/>
<path fill-rule="evenodd" clip-rule="evenodd" d="M559.855 23.1606C560.082 23.3802 560.089 23.7425 559.869 23.9699L550.961 33.1961C550.85 33.3106 550.697 33.3739 550.538 33.3708C550.379 33.3677 550.228 33.2985 550.122 33.1798L546.145 28.7257C545.935 28.4899 545.955 28.1281 546.191 27.9176C546.427 27.707 546.789 27.7275 546.999 27.9633L550.566 31.9576L559.046 23.1748C559.265 22.9474 559.628 22.941 559.855 23.1606Z" fill="#4200FF"/>
<path opacity="0.8" fill-rule="evenodd" clip-rule="evenodd" d="M207.012 67.902C207 68.2534 207 68.6689 207 69.5C207 70.3311 207 70.7466 207.012 71.098C207.382 81.9262 216.074 90.6184 226.902 90.988C227.253 91 227.669 91 228.5 91H540.332C547.241 91 550.696 91 553.526 90.2221C555.226 89.7546 556.841 89.0891 558.345 88.2514C559.637 88.9736 561.223 89.7393 562.909 90.2777C568.055 91.9215 581.317 91.8269 581.317 91.8269C581.317 91.8269 574.08 90.2777 571.39 83.2174C570.113 79.8639 569.593 59.6987 569.593 59.6987L569.506 59.8591C569.492 57.8327 569.428 56.6129 569.142 55.5717C568.179 52.0685 565.442 49.3315 561.938 48.3685C560.598 48 558.962 48 555.689 48H228.5C227.669 48 227.253 48 226.902 48.012C216.074 48.3816 207.382 57.0738 207.012 67.902Z" fill="#D4C5FF"/>
<path d="M236.583 66.5918H234.753C234.645 66.0655 234.456 65.6032 234.185 65.2048C233.92 64.8063 233.595 64.4719 233.211 64.2013C232.833 63.9259 232.412 63.7193 231.95 63.5816C231.487 63.4439 231.005 63.375 230.504 63.375C229.589 63.375 228.76 63.6062 228.017 64.0685C227.28 64.5309 226.692 65.2121 226.254 66.1123C225.821 67.0124 225.605 68.1166 225.605 69.425C225.605 70.7333 225.821 71.8376 226.254 72.7377C226.692 73.6378 227.28 74.319 228.017 74.7814C228.76 75.2438 229.589 75.4749 230.504 75.4749C231.005 75.4749 231.487 75.4061 231.95 75.2683C232.412 75.1306 232.833 74.9265 233.211 74.656C233.595 74.3805 233.92 74.0436 234.185 73.6452C234.456 73.2419 234.645 72.7795 234.753 72.2581H236.583C236.445 73.0304 236.195 73.7214 235.831 74.3313C235.467 74.9413 235.014 75.4602 234.473 75.8881C233.932 76.3111 233.325 76.6333 232.651 76.8546C231.982 77.076 231.266 77.1866 230.504 77.1866C229.215 77.1866 228.069 76.8718 227.066 76.2422C226.062 75.6127 225.273 74.7175 224.697 73.5567C224.122 72.3958 223.834 71.0186 223.834 69.425C223.834 67.8313 224.122 66.4541 224.697 65.2933C225.273 64.1325 226.062 63.2373 227.066 62.6077C228.069 61.9781 229.215 61.6633 230.504 61.6633C231.266 61.6633 231.982 61.774 232.651 61.9953C233.325 62.2167 233.932 62.5413 234.473 62.9692C235.014 63.3922 235.467 63.9087 235.831 64.5186C236.195 65.1236 236.445 65.8147 236.583 66.5918ZM244.055 77.2161C242.963 77.2161 242.021 76.9751 241.229 76.4931C240.442 76.0061 239.835 75.3274 239.407 74.4568C238.984 73.5812 238.773 72.5631 238.773 71.4023C238.773 70.2415 238.984 69.2184 239.407 68.333C239.835 67.4427 240.43 66.7492 241.193 66.2524C241.96 65.7507 242.855 65.4999 243.878 65.4999C244.468 65.4999 245.051 65.5983 245.627 65.795C246.202 65.9917 246.726 66.3115 247.198 66.7541C247.67 67.1919 248.047 67.7723 248.327 68.4953C248.607 69.2184 248.748 70.1087 248.748 71.1662V71.904H240.012V70.3989H246.977C246.977 69.7594 246.849 69.1889 246.593 68.6872C246.342 68.1855 245.983 67.7895 245.516 67.4993C245.054 67.2091 244.508 67.064 243.878 67.064C243.185 67.064 242.585 67.2362 242.078 67.5805C241.576 67.9199 241.19 68.3625 240.92 68.9085C240.649 69.4545 240.514 70.0398 240.514 70.6645V71.6679C240.514 72.5237 240.661 73.2492 240.956 73.8444C241.257 74.4346 241.672 74.8847 242.203 75.1946C242.735 75.4995 243.352 75.652 244.055 75.652C244.513 75.652 244.926 75.5881 245.295 75.4602C245.669 75.3274 245.991 75.1306 246.261 74.8699C246.532 74.6043 246.741 74.2748 246.888 73.8813L248.571 74.3535C248.393 74.924 248.096 75.4257 247.678 75.8586C247.26 76.2865 246.743 76.621 246.128 76.862C245.514 77.0981 244.823 77.2161 244.055 77.2161ZM251.396 81.2298V65.6474H253.079V67.4477H253.285C253.413 67.2509 253.59 67.0001 253.816 66.6951C254.048 66.3852 254.377 66.1098 254.805 65.8688C255.238 65.6228 255.823 65.4999 256.561 65.4999C257.515 65.4999 258.356 65.7384 259.084 66.2155C259.812 66.6927 260.38 67.369 260.789 68.2445C261.197 69.12 261.401 70.1529 261.401 71.3433C261.401 72.5434 261.197 73.5837 260.789 74.4641C260.38 75.3397 259.815 76.0184 259.092 76.5005C258.369 76.9776 257.535 77.2161 256.59 77.2161C255.862 77.2161 255.28 77.0956 254.842 76.8546C254.404 76.6087 254.067 76.3308 253.831 76.0209C253.595 75.7061 253.413 75.4454 253.285 75.2388H253.138V81.2298H251.396ZM253.108 71.3137C253.108 72.1696 253.233 72.9246 253.484 73.5788C253.735 74.228 254.102 74.7371 254.584 75.106C255.066 75.47 255.656 75.652 256.354 75.652C257.082 75.652 257.69 75.4602 258.177 75.0765C258.669 74.6879 259.037 74.1666 259.283 73.5124C259.534 72.8533 259.66 72.1204 259.66 71.3137C259.66 70.5169 259.537 69.7988 259.291 69.1594C259.05 68.515 258.683 68.0059 258.191 67.6321C257.705 67.2534 257.092 67.064 256.354 67.064C255.646 67.064 255.051 67.2435 254.569 67.6026C254.087 67.9568 253.723 68.4535 253.477 69.093C253.231 69.7275 253.108 70.4677 253.108 71.3137ZM264.057 76.98V65.6474H268.69C269.91 65.6474 270.879 65.9229 271.597 66.4738C272.315 67.0247 272.674 67.7526 272.674 68.6577C272.674 69.3463 272.47 69.8799 272.062 70.2587C271.654 70.6325 271.13 70.8858 270.491 71.0186C270.909 71.0776 271.314 71.2252 271.708 71.4613C272.106 71.6974 272.436 72.022 272.697 72.4352C272.957 72.8434 273.088 73.3451 273.088 73.9403C273.088 74.5207 272.94 75.0396 272.645 75.4971C272.35 75.9545 271.927 76.316 271.376 76.5816C270.825 76.8472 270.166 76.98 269.399 76.98H264.057ZM265.71 75.3864H269.399C269.999 75.3864 270.468 75.2438 270.808 74.9585C271.147 74.6732 271.317 74.2846 271.317 73.7927C271.317 73.2074 271.147 72.7475 270.808 72.4131C270.468 72.0737 269.999 71.904 269.399 71.904H265.71V75.3864ZM265.71 70.3989H268.69C269.158 70.3989 269.559 70.3349 269.893 70.207C270.227 70.0742 270.483 69.8873 270.66 69.6463C270.842 69.4004 270.933 69.1102 270.933 68.7757C270.933 68.2986 270.734 67.9248 270.336 67.6543C269.937 67.3788 269.389 67.2411 268.69 67.2411H265.71V70.3989ZM280.475 77.2161C279.383 77.2161 278.441 76.9751 277.649 76.4931C276.862 76.0061 276.255 75.3274 275.827 74.4568C275.404 73.5812 275.192 72.5631 275.192 71.4023C275.192 70.2415 275.404 69.2184 275.827 68.333C276.255 67.4427 276.85 66.7492 277.612 66.2524C278.38 65.7507 279.275 65.4999 280.298 65.4999C280.888 65.4999 281.471 65.5983 282.046 65.795C282.622 65.9917 283.146 66.3115 283.618 66.7541C284.09 67.1919 284.466 67.7723 284.747 68.4953C285.027 69.2184 285.167 70.1087 285.167 71.1662V71.904H276.432V70.3989H283.397C283.397 69.7594 283.269 69.1889 283.013 68.6872C282.762 68.1855 282.403 67.7895 281.936 67.4993C281.473 67.2091 280.927 67.064 280.298 67.064C279.604 67.064 279.004 67.2362 278.498 67.5805C277.996 67.9199 277.61 68.3625 277.339 68.9085C277.069 69.4545 276.933 70.0398 276.933 70.6645V71.6679C276.933 72.5237 277.081 73.2492 277.376 73.8444C277.676 74.4346 278.092 74.8847 278.623 75.1946C279.154 75.4995 279.772 75.652 280.475 75.652C280.932 75.652 281.345 75.5881 281.714 75.4602C282.088 75.3274 282.41 75.1306 282.681 74.8699C282.951 74.6043 283.16 74.2748 283.308 73.8813L284.99 74.3535C284.813 74.924 284.516 75.4257 284.097 75.8586C283.679 76.2865 283.163 76.621 282.548 76.862C281.933 77.0981 281.242 77.2161 280.475 77.2161ZM287.816 81.2298V65.6474H289.498V67.4477H289.705C289.833 67.2509 290.01 67.0001 290.236 66.6951C290.467 66.3852 290.797 66.1098 291.225 65.8688C291.657 65.6228 292.243 65.4999 292.981 65.4999C293.935 65.4999 294.776 65.7384 295.504 66.2155C296.232 66.6927 296.8 67.369 297.208 68.2445C297.616 69.12 297.821 70.1529 297.821 71.3433C297.821 72.5434 297.616 73.5837 297.208 74.4641C296.8 75.3397 296.234 76.0184 295.511 76.5005C294.788 76.9776 293.954 77.2161 293.01 77.2161C292.282 77.2161 291.699 77.0956 291.262 76.8546C290.824 76.6087 290.487 76.3308 290.251 76.0209C290.015 75.7061 289.833 75.4454 289.705 75.2388H289.557V81.2298H287.816ZM289.528 71.3137C289.528 72.1696 289.653 72.9246 289.904 73.5788C290.155 74.228 290.521 74.7371 291.003 75.106C291.485 75.47 292.076 75.652 292.774 75.652C293.502 75.652 294.109 75.4602 294.596 75.0765C295.088 74.6879 295.457 74.1666 295.703 73.5124C295.954 72.8533 296.079 72.1204 296.079 71.3137C296.079 70.5169 295.956 69.7988 295.71 69.1594C295.469 68.515 295.103 68.0059 294.611 67.6321C294.124 67.2534 293.512 67.064 292.774 67.064C292.066 67.064 291.471 67.2435 290.989 67.6026C290.506 67.9568 290.143 68.4535 289.897 69.093C289.651 69.7275 289.528 70.4677 289.528 71.3137ZM306.32 76.98V65.6474H315.233V76.98H313.491V67.2706H308.061V76.98H306.32ZM323.164 77.2161C322.072 77.2161 321.13 76.9751 320.338 76.4931C319.551 76.0061 318.944 75.3274 318.516 74.4568C318.093 73.5812 317.881 72.5631 317.881 71.4023C317.881 70.2415 318.093 69.2184 318.516 68.333C318.944 67.4427 319.539 66.7492 320.301 66.2524C321.069 65.7507 321.964 65.4999 322.987 65.4999C323.577 65.4999 324.16 65.5983 324.735 65.795C325.311 65.9917 325.835 66.3115 326.307 66.7541C326.779 67.1919 327.155 67.7723 327.436 68.4953C327.716 69.2184 327.856 70.1087 327.856 71.1662V71.904H319.121V70.3989H326.086C326.086 69.7594 325.958 69.1889 325.702 68.6872C325.451 68.1855 325.092 67.7895 324.625 67.4993C324.162 67.2091 323.616 67.064 322.987 67.064C322.293 67.064 321.693 67.2362 321.187 67.5805C320.685 67.9199 320.299 68.3625 320.028 68.9085C319.758 69.4545 319.623 70.0398 319.623 70.6645V71.6679C319.623 72.5237 319.77 73.2492 320.065 73.8444C320.365 74.4346 320.781 74.8847 321.312 75.1946C321.843 75.4995 322.461 75.652 323.164 75.652C323.621 75.652 324.035 75.5881 324.403 75.4602C324.777 75.3274 325.099 75.1306 325.37 74.8699C325.641 74.6043 325.85 74.2748 325.997 73.8813L327.679 74.3535C327.502 74.924 327.205 75.4257 326.787 75.8586C326.368 76.2865 325.852 76.621 325.237 76.862C324.622 77.0981 323.931 77.2161 323.164 77.2161ZM330.505 81.2298V65.6474H332.187V67.4477H332.394C332.522 67.2509 332.699 67.0001 332.925 66.6951C333.156 66.3852 333.486 66.1098 333.914 65.8688C334.347 65.6228 334.932 65.4999 335.67 65.4999C336.624 65.4999 337.465 65.7384 338.193 66.2155C338.921 66.6927 339.489 67.369 339.897 68.2445C340.306 69.12 340.51 70.1529 340.51 71.3433C340.51 72.5434 340.306 73.5837 339.897 74.4641C339.489 75.3397 338.923 76.0184 338.2 76.5005C337.477 76.9776 336.644 77.2161 335.699 77.2161C334.971 77.2161 334.388 77.0956 333.951 76.8546C333.513 76.6087 333.176 76.3308 332.94 76.0209C332.704 75.7061 332.522 75.4454 332.394 75.2388H332.246V81.2298H330.505ZM332.217 71.3137C332.217 72.1696 332.342 72.9246 332.593 73.5788C332.844 74.228 333.21 74.7371 333.692 75.106C334.174 75.47 334.765 75.652 335.463 75.652C336.191 75.652 336.799 75.4602 337.285 75.0765C337.777 74.6879 338.146 74.1666 338.392 73.5124C338.643 72.8533 338.768 72.1204 338.768 71.3137C338.768 70.5169 338.645 69.7988 338.4 69.1594C338.159 68.515 337.792 68.0059 337.3 67.6321C336.813 67.2534 336.201 67.064 335.463 67.064C334.755 67.064 334.16 67.2435 333.678 67.6026C333.196 67.9568 332.832 68.4535 332.586 69.093C332.34 69.7275 332.217 70.4677 332.217 71.3137ZM347.917 77.2161C346.825 77.2161 345.883 76.9751 345.091 76.4931C344.304 76.0061 343.697 75.3274 343.269 74.4568C342.846 73.5812 342.635 72.5631 342.635 71.4023C342.635 70.2415 342.846 69.2184 343.269 68.333C343.697 67.4427 344.292 66.7492 345.054 66.2524C345.822 65.7507 346.717 65.4999 347.74 65.4999C348.33 65.4999 348.913 65.5983 349.489 65.795C350.064 65.9917 350.588 66.3115 351.06 66.7541C351.532 67.1919 351.909 67.7723 352.189 68.4953C352.469 69.2184 352.61 70.1087 352.61 71.1662V71.904H343.874V70.3989H350.839C350.839 69.7594 350.711 69.1889 350.455 68.6872C350.204 68.1855 349.845 67.7895 349.378 67.4993C348.916 67.2091 348.37 67.064 347.74 67.064C347.047 67.064 346.446 67.2362 345.94 67.5805C345.438 67.9199 345.052 68.3625 344.782 68.9085C344.511 69.4545 344.376 70.0398 344.376 70.6645V71.6679C344.376 72.5237 344.523 73.2492 344.818 73.8444C345.118 74.4346 345.534 74.8847 346.065 75.1946C346.596 75.4995 347.214 75.652 347.917 75.652C348.375 75.652 348.788 75.5881 349.157 75.4602C349.53 75.3274 349.853 75.1306 350.123 74.8699C350.394 74.6043 350.603 74.2748 350.75 73.8813L352.432 74.3535C352.255 74.924 351.958 75.4257 351.54 75.8586C351.122 76.2865 350.605 76.621 349.99 76.862C349.376 77.0981 348.684 77.2161 347.917 77.2161ZM359.862 77.2161C358.8 77.2161 357.885 76.9653 357.118 76.4636C356.35 75.9619 355.76 75.2708 355.347 74.3904C354.934 73.5099 354.727 72.5041 354.727 71.3728C354.727 70.2218 354.939 69.2061 355.362 68.3256C355.789 67.4403 356.385 66.7492 357.147 66.2524C357.914 65.7507 358.81 65.4999 359.833 65.4999C360.629 65.4999 361.348 65.6474 361.987 65.9426C362.626 66.2377 363.15 66.6508 363.559 67.1821C363.967 67.7133 364.22 68.333 364.318 69.0413H362.577C362.444 68.5249 362.149 68.0674 361.692 67.669C361.239 67.2657 360.629 67.064 359.862 67.064C359.183 67.064 358.588 67.2411 358.077 67.5952C357.57 67.9445 357.174 68.4388 356.889 69.0782C356.608 69.7127 356.468 70.4579 356.468 71.3137C356.468 72.1893 356.606 72.9517 356.881 73.6009C357.162 74.2502 357.555 74.7543 358.062 75.1134C358.573 75.4725 359.174 75.652 359.862 75.652C360.315 75.652 360.725 75.5733 361.094 75.4159C361.463 75.2585 361.775 75.0323 362.031 74.7371C362.287 74.442 362.469 74.0879 362.577 73.6747H364.318C364.22 74.3436 363.977 74.9462 363.588 75.4823C363.204 76.0135 362.695 76.4365 362.061 76.7513C361.431 77.0612 360.698 77.2161 359.862 77.2161ZM365.971 67.2706V65.6474H375.179V67.2706H371.46V76.98H369.719V67.2706H365.971ZM380.465 77.2456C379.747 77.2456 379.095 77.1104 378.51 76.8399C377.925 76.5644 377.46 76.1685 377.116 75.652C376.771 75.1306 376.599 74.501 376.599 73.7632C376.599 73.114 376.727 72.5877 376.983 72.1843C377.239 71.7761 377.58 71.4564 378.008 71.2252C378.436 70.994 378.908 70.8219 379.425 70.7087C379.946 70.5907 380.47 70.4972 380.996 70.4284C381.685 70.3398 382.243 70.2734 382.671 70.2292C383.104 70.18 383.419 70.0988 383.616 69.9857C383.817 69.8726 383.918 69.6758 383.918 69.3955V69.3364C383.918 68.6085 383.719 68.0428 383.32 67.6395C382.927 67.2362 382.329 67.0345 381.528 67.0345C380.696 67.0345 380.045 67.2165 379.572 67.5805C379.1 67.9445 378.768 68.333 378.576 68.7462L376.924 68.156C377.219 67.4673 377.612 66.9312 378.104 66.5476C378.601 66.159 379.142 65.8885 379.727 65.736C380.318 65.5786 380.898 65.4999 381.469 65.4999C381.833 65.4999 382.251 65.5441 382.723 65.6327C383.2 65.7163 383.66 65.8909 384.103 66.1565C384.55 66.4221 384.921 66.823 385.217 67.3591C385.512 67.8953 385.659 68.6134 385.659 69.5135V76.98H383.918V75.4454H383.83C383.712 75.6914 383.515 75.9545 383.239 76.2349C382.964 76.5152 382.597 76.7538 382.14 76.9505C381.683 77.1473 381.124 77.2456 380.465 77.2456ZM380.731 75.6815C381.419 75.6815 382 75.5463 382.472 75.2757C382.949 75.0052 383.308 74.656 383.549 74.228C383.795 73.8001 383.918 73.3501 383.918 72.8779V71.2842C383.844 71.3728 383.682 71.4539 383.431 71.5277C383.185 71.5966 382.9 71.658 382.575 71.7122C382.256 71.7613 381.943 71.8056 381.638 71.845C381.338 71.8794 381.095 71.9089 380.908 71.9335C380.455 71.9925 380.032 72.0884 379.639 72.2212C379.25 72.3491 378.935 72.5434 378.694 72.8041C378.458 73.0599 378.34 73.4091 378.34 73.8518C378.34 74.4568 378.564 74.9142 379.012 75.2241C379.464 75.529 380.037 75.6815 380.731 75.6815ZM387.834 76.98V75.3569H388.247C388.587 75.3569 388.869 75.2905 389.096 75.1577C389.322 75.02 389.504 74.7814 389.642 74.442C389.784 74.0977 389.892 73.6206 389.966 73.0107C390.045 72.3958 390.101 71.6138 390.136 70.6645L390.342 65.6474H397.898V76.98H396.156V67.2706H391.995L391.818 71.3137C391.779 72.2434 391.695 73.0623 391.567 73.7706C391.444 74.474 391.255 75.0642 390.999 75.5413C390.748 76.0184 390.414 76.3775 389.996 76.6185C389.578 76.8595 389.054 76.98 388.424 76.98H387.834ZM411.539 77.2161C410.516 77.2161 409.619 76.9727 408.846 76.4857C408.079 75.9988 407.479 75.3175 407.046 74.442C406.618 73.5665 406.404 72.5434 406.404 71.3728C406.404 70.1923 406.618 69.1618 407.046 68.2814C407.479 67.4009 408.079 66.7172 408.846 66.2303C409.619 65.7434 410.516 65.4999 411.539 65.4999C412.563 65.4999 413.458 65.7434 414.225 66.2303C414.997 66.7172 415.597 67.4009 416.025 68.2814C416.458 69.1618 416.675 70.1923 416.675 71.3728C416.675 72.5434 416.458 73.5665 416.025 74.442C415.597 75.3175 414.997 75.9988 414.225 76.4857C413.458 76.9727 412.563 77.2161 411.539 77.2161ZM411.539 75.652C412.317 75.652 412.956 75.4528 413.458 75.0544C413.959 74.656 414.331 74.1321 414.572 73.4829C414.813 72.8336 414.933 72.1302 414.933 71.3728C414.933 70.6153 414.813 69.9095 414.572 69.2553C414.331 68.6011 413.959 68.0723 413.458 67.669C412.956 67.2657 412.317 67.064 411.539 67.064C410.762 67.064 410.123 67.2657 409.621 67.669C409.119 68.0723 408.748 68.6011 408.507 69.2553C408.266 69.9095 408.146 70.6153 408.146 71.3728C408.146 72.1302 408.266 72.8336 408.507 73.4829C408.748 74.1321 409.119 74.656 409.621 75.0544C410.123 75.4528 410.762 75.652 411.539 75.652ZM417.851 67.2706V65.6474H427.059V67.2706H423.341V76.98H421.599V67.2706H417.851ZM429.599 76.98V65.6474H434.232C435.452 65.6474 436.421 65.9229 437.139 66.4738C437.857 67.0247 438.216 67.7526 438.216 68.6577C438.216 69.3463 438.012 69.8799 437.604 70.2587C437.196 70.6325 436.672 70.8858 436.033 71.0186C436.451 71.0776 436.856 71.2252 437.25 71.4613C437.648 71.6974 437.978 72.022 438.239 72.4352C438.499 72.8434 438.63 73.3451 438.63 73.9403C438.63 74.5207 438.482 75.0396 438.187 75.4971C437.892 75.9545 437.469 76.316 436.918 76.5816C436.367 76.8472 435.708 76.98 434.941 76.98H429.599ZM431.252 75.3864H434.941C435.541 75.3864 436.01 75.2438 436.35 74.9585C436.689 74.6732 436.859 74.2846 436.859 73.7927C436.859 73.2074 436.689 72.7475 436.35 72.4131C436.01 72.0737 435.541 71.904 434.941 71.904H431.252V75.3864ZM431.252 70.3989H434.232C434.7 70.3989 435.1 70.3349 435.435 70.207C435.769 70.0742 436.025 69.8873 436.202 69.6463C436.384 69.4004 436.475 69.1102 436.475 68.7757C436.475 68.2986 436.276 67.9248 435.878 67.6543C435.479 67.3788 434.931 67.2411 434.232 67.2411H431.252V70.3989ZM446.017 77.2161C444.925 77.2161 443.983 76.9751 443.191 76.4931C442.404 76.0061 441.797 75.3274 441.369 74.4568C440.946 73.5812 440.734 72.5631 440.734 71.4023C440.734 70.2415 440.946 69.2184 441.369 68.333C441.797 67.4427 442.392 66.7492 443.154 66.2524C443.922 65.7507 444.817 65.4999 445.84 65.4999C446.43 65.4999 447.013 65.5983 447.588 65.795C448.164 65.9917 448.688 66.3115 449.16 66.7541C449.632 67.1919 450.008 67.7723 450.289 68.4953C450.569 69.2184 450.709 70.1087 450.709 71.1662V71.904H441.974V70.3989H448.939C448.939 69.7594 448.811 69.1889 448.555 68.6872C448.304 68.1855 447.945 67.7895 447.478 67.4993C447.015 67.2091 446.469 67.064 445.84 67.064C445.146 67.064 444.546 67.2362 444.04 67.5805C443.538 67.9199 443.152 68.3625 442.881 68.9085C442.611 69.4545 442.475 70.0398 442.475 70.6645V71.6679C442.475 72.5237 442.623 73.2492 442.918 73.8444C443.218 74.4346 443.634 74.8847 444.165 75.1946C444.696 75.4995 445.313 75.652 446.017 75.652C446.474 75.652 446.887 75.5881 447.256 75.4602C447.63 75.3274 447.952 75.1306 448.223 74.8699C448.493 74.6043 448.702 74.2748 448.85 73.8813L450.532 74.3535C450.355 74.924 450.058 75.4257 449.639 75.8586C449.221 76.2865 448.705 76.621 448.09 76.862C447.475 77.0981 446.784 77.2161 446.017 77.2161ZM462.094 65.6474V76.98H460.352V65.6474H462.094ZM461.415 71.0481V72.6713C461.021 72.8189 460.63 72.9492 460.242 73.0623C459.853 73.1705 459.445 73.2566 459.017 73.3206C458.589 73.3796 458.119 73.4091 457.608 73.4091C456.324 73.4091 455.293 73.0623 454.516 72.3688C453.744 71.6753 453.358 70.635 453.358 69.2479V65.6179H455.099V69.2479C455.099 69.8283 455.21 70.3054 455.431 70.6792C455.653 71.053 455.953 71.331 456.331 71.5129C456.71 71.6949 457.135 71.7859 457.608 71.7859C458.345 71.7859 459.012 71.7195 459.607 71.5867C460.207 71.449 460.81 71.2695 461.415 71.0481ZM468.623 77.2456C467.905 77.2456 467.253 77.1104 466.668 76.8399C466.083 76.5644 465.618 76.1685 465.273 75.652C464.929 75.1306 464.757 74.501 464.757 73.7632C464.757 73.114 464.885 72.5877 465.141 72.1843C465.396 71.7761 465.738 71.4564 466.166 71.2252C466.594 70.994 467.066 70.8219 467.583 70.7087C468.104 70.5907 468.628 70.4972 469.154 70.4284C469.843 70.3398 470.401 70.2734 470.829 70.2292C471.262 70.18 471.577 70.0988 471.773 69.9857C471.975 69.8726 472.076 69.6758 472.076 69.3955V69.3364C472.076 68.6085 471.877 68.0428 471.478 67.6395C471.085 67.2362 470.487 67.0345 469.685 67.0345C468.854 67.0345 468.202 67.2165 467.73 67.5805C467.258 67.9445 466.926 68.333 466.734 68.7462L465.082 68.156C465.377 67.4673 465.77 66.9312 466.262 66.5476C466.759 66.159 467.3 65.8885 467.885 65.736C468.475 65.5786 469.056 65.4999 469.626 65.4999C469.99 65.4999 470.409 65.5441 470.881 65.6327C471.358 65.7163 471.818 65.8909 472.26 66.1565C472.708 66.4221 473.079 66.823 473.374 67.3591C473.67 67.8953 473.817 68.6134 473.817 69.5135V76.98H472.076V75.4454H471.987C471.869 75.6914 471.673 75.9545 471.397 76.2349C471.122 76.5152 470.755 76.7538 470.298 76.9505C469.84 77.1473 469.282 77.2456 468.623 77.2456ZM468.889 75.6815C469.577 75.6815 470.158 75.5463 470.63 75.2757C471.107 75.0052 471.466 74.656 471.707 74.228C471.953 73.8001 472.076 73.3501 472.076 72.8779V71.2842C472.002 71.3728 471.84 71.4539 471.589 71.5277C471.343 71.5966 471.058 71.658 470.733 71.7122C470.413 71.7613 470.101 71.8056 469.796 71.845C469.496 71.8794 469.253 71.9089 469.066 71.9335C468.613 71.9925 468.19 72.0884 467.797 72.2212C467.408 72.3491 467.093 72.5434 466.852 72.8041C466.616 73.0599 466.498 73.4091 466.498 73.8518C466.498 74.4568 466.722 74.9142 467.17 75.2241C467.622 75.529 468.195 75.6815 468.889 75.6815ZM475.453 67.2706V65.6474H484.661V67.2706H480.942V76.98H479.201V67.2706H475.453ZM488.706 69.7496H491.952C493.28 69.7496 494.296 70.0865 494.999 70.7604C495.703 71.4342 496.054 72.2876 496.054 73.3206C496.054 73.9993 495.897 74.6166 495.582 75.1724C495.267 75.7233 494.805 76.1635 494.195 76.4931C493.585 76.8177 492.838 76.98 491.952 76.98H487.201V65.6474H488.942V75.3569H491.952C492.641 75.3569 493.207 75.1749 493.649 74.8109C494.092 74.4469 494.313 73.9797 494.313 73.4091C494.313 72.809 494.092 72.3196 493.649 71.9409C493.207 71.5621 492.641 71.3728 491.952 71.3728H488.706V69.7496Z" fill="black"/>
<path d="M511.103 80.4708C510.37 80.4708 509.746 80.2714 509.23 79.8726C508.715 79.4706 508.321 78.8887 508.049 78.1268C507.776 77.3617 507.64 76.4378 507.64 75.355C507.64 74.2787 507.776 73.3596 508.049 72.5977C508.324 71.8326 508.72 71.2491 509.235 70.8471C509.754 70.4418 510.376 70.2392 511.103 70.2392C511.829 70.2392 512.45 70.4418 512.965 70.8471C513.484 71.2491 513.879 71.8326 514.152 72.5977C514.427 73.3596 514.565 74.2787 514.565 75.355C514.565 76.4378 514.429 77.3617 514.156 78.1268C513.884 78.8887 513.49 79.4706 512.975 79.8726C512.459 80.2714 511.835 80.4708 511.103 80.4708ZM511.103 79.4009C511.829 79.4009 512.393 79.0508 512.795 78.3505C513.197 77.6503 513.398 76.6518 513.398 75.355C513.398 74.4926 513.305 73.7583 513.121 73.1521C512.939 72.5459 512.677 72.0839 512.333 71.7662C511.993 71.4485 511.582 71.2896 511.103 71.2896C510.383 71.2896 509.82 71.6446 509.415 72.3546C509.01 73.0613 508.807 74.0615 508.807 75.355C508.807 76.2173 508.898 76.95 509.08 77.553C509.261 78.156 509.522 78.6147 509.863 78.9292C510.206 79.2437 510.62 79.4009 511.103 79.4009ZM519.329 80.4708C518.661 80.4708 518.071 80.3524 517.559 80.1158C517.05 79.8759 516.653 79.5468 516.368 79.1286C516.082 78.7071 515.941 78.2273 515.944 77.6892C515.941 77.2677 516.024 76.8787 516.192 76.5221C516.361 76.1622 516.591 75.8623 516.883 75.6224C517.178 75.3793 517.507 75.2253 517.87 75.1605V75.1021C517.394 74.9789 517.014 74.7115 516.732 74.2997C516.45 73.8848 516.311 73.4131 516.314 72.8846C516.311 72.3789 516.439 71.9266 516.698 71.5279C516.958 71.1291 517.314 70.8147 517.768 70.5845C518.225 70.3543 518.746 70.2392 519.329 70.2392C519.906 70.2392 520.422 70.3543 520.875 70.5845C521.329 70.8147 521.686 71.1291 521.945 71.5279C522.208 71.9266 522.341 72.3789 522.344 72.8846C522.341 73.4131 522.197 73.8848 521.911 74.2997C521.629 74.7115 521.255 74.9789 520.788 75.1021V75.1605C521.148 75.2253 521.472 75.3793 521.761 75.6224C522.049 75.8623 522.279 76.1622 522.451 76.5221C522.623 76.8787 522.71 77.2677 522.714 77.6892C522.71 78.2273 522.565 78.7071 522.276 79.1286C521.991 79.5468 521.594 79.8759 521.085 80.1158C520.579 80.3524 519.994 80.4708 519.329 80.4708ZM519.329 79.4009C519.78 79.4009 520.169 79.328 520.496 79.1821C520.824 79.0362 521.076 78.8303 521.255 78.5645C521.433 78.2987 521.524 77.9874 521.527 77.6308C521.524 77.2548 521.427 76.9225 521.235 76.6339C521.044 76.3454 520.783 76.1185 520.452 75.9531C520.125 75.7878 519.751 75.7051 519.329 75.7051C518.904 75.7051 518.525 75.7878 518.191 75.9531C517.86 76.1185 517.599 76.3454 517.408 76.6339C517.22 76.9225 517.128 77.2548 517.131 77.6308C517.128 77.9874 517.214 78.2987 517.389 78.5645C517.567 78.8303 517.822 79.0362 518.152 79.1821C518.483 79.328 518.875 79.4009 519.329 79.4009ZM519.329 74.6742C519.686 74.6742 520.002 74.6029 520.277 74.4602C520.556 74.3176 520.775 74.1182 520.934 73.8621C521.093 73.606 521.174 73.3061 521.177 72.9624C521.174 72.6253 521.094 72.3319 520.939 72.0823C520.783 71.8294 520.567 71.6349 520.292 71.4987C520.016 71.3593 519.695 71.2896 519.329 71.2896C518.956 71.2896 518.63 71.3593 518.352 71.4987C518.073 71.6349 517.857 71.8294 517.705 72.0823C517.552 72.3319 517.478 72.6253 517.481 72.9624C517.478 73.3061 517.554 73.606 517.71 73.8621C517.869 74.1182 518.087 74.3176 518.366 74.4602C518.645 74.6029 518.966 74.6742 519.329 74.6742ZM525.159 79.0605C524.919 79.0605 524.714 78.9746 524.542 78.8028C524.37 78.631 524.284 78.4251 524.284 78.1852C524.284 77.9453 524.37 77.7394 524.542 77.5676C524.714 77.3958 524.919 77.3099 525.159 77.3099C525.399 77.3099 525.605 77.3958 525.777 77.5676C525.949 77.7394 526.035 77.9453 526.035 78.1852C526.035 78.344 525.994 78.4899 525.913 78.6229C525.835 78.7558 525.73 78.8628 525.597 78.9438C525.467 79.0216 525.321 79.0605 525.159 79.0605ZM525.159 74.0226C524.919 74.0226 524.714 73.9366 524.542 73.7648C524.37 73.593 524.284 73.3871 524.284 73.1472C524.284 72.9073 524.37 72.7015 524.542 72.5296C524.714 72.3578 524.919 72.2719 525.159 72.2719C525.399 72.2719 525.605 72.3578 525.777 72.5296C525.949 72.7015 526.035 72.9073 526.035 73.1472C526.035 73.3061 525.994 73.452 525.913 73.5849C525.835 73.7178 525.73 73.8248 525.597 73.9058C525.467 73.9836 525.321 74.0226 525.159 74.0226ZM527.567 78.2922V77.3001L531.944 70.3754H532.664V71.9121H532.177L528.871 77.1445V77.2223H534.764V78.2922H527.567ZM532.255 80.3346V77.9907V77.5287V70.3754H533.403V80.3346H532.255ZM539.68 70.3754V80.3346H538.474V71.6397H538.416L535.985 73.2542V72.0288L538.474 70.3754H539.68Z" fill="#4200FF"/>
<path fill-rule="evenodd" clip-rule="evenodd" d="M559.8 71.4386C560.028 71.6581 560.034 72.0205 559.815 72.2479L550.906 81.4741C550.796 81.5886 550.643 81.6519 550.483 81.6488C550.324 81.6457 550.174 81.5765 550.068 81.4577L546.091 77.0037C545.88 76.7679 545.901 76.406 546.136 76.1955C546.372 75.985 546.734 76.0055 546.945 76.2413L550.511 80.2355L558.991 71.4528C559.211 71.2253 559.573 71.219 559.8 71.4386Z" fill="#4200FF"/>
<path fill-rule="evenodd" clip-rule="evenodd" d="M562.855 71.3593C563.082 71.5789 563.089 71.9412 562.869 72.1686L553.961 81.3949C553.85 81.5094 553.697 81.5727 553.538 81.5696C553.379 81.5665 553.228 81.4972 553.122 81.3785L549.145 76.9244C548.935 76.6886 548.955 76.3268 549.191 76.1163C549.427 75.9058 549.789 75.9262 549.999 76.162L553.566 80.1563L562.046 71.3735C562.265 71.1461 562.628 71.1398 562.855 71.3593Z" fill="#4200FF"/>
<path opacity="0.8" d="M212.956 118C212.956 116.974 212.956 116.461 212.937 116.027C212.487 105.721 204.235 97.4689 193.929 97.0189C193.495 97 192.982 97 191.956 97H41.8311C35.4388 97 32.2426 97 29.6105 97.6593C21.7361 99.6317 15.5878 105.78 13.6154 113.654C12.9561 116.287 12.9561 119.483 12.9561 125.875C12.9561 128.781 12.9561 130.233 13.2557 131.43C14.1523 135.009 16.947 137.804 20.5262 138.7C21.7227 139 23.1755 139 26.0811 139H191.956C192.982 139 193.495 139 193.929 138.981C204.235 138.531 212.487 130.279 212.937 119.973C212.956 119.539 212.956 119.026 212.956 118Z" fill="#BCA4FF"/>
<path d="M164.019 130.129C163.323 130.129 162.731 129.94 162.241 129.561C161.752 129.18 161.378 128.627 161.119 127.904C160.861 127.178 160.732 126.301 160.732 125.273C160.732 124.251 160.861 123.378 161.119 122.655C161.381 121.929 161.756 121.375 162.246 120.993C162.738 120.609 163.329 120.416 164.019 120.416C164.708 120.416 165.297 120.609 165.787 120.993C166.279 121.375 166.655 121.929 166.913 122.655C167.175 123.378 167.305 124.251 167.305 125.273C167.305 126.301 167.176 127.178 166.918 127.904C166.659 128.627 166.285 129.18 165.796 129.561C165.307 129.94 164.714 130.129 164.019 130.129ZM164.019 129.114C164.708 129.114 165.243 128.781 165.625 128.116C166.007 127.452 166.198 126.504 166.198 125.273C166.198 124.454 166.11 123.757 165.934 123.181C165.762 122.606 165.513 122.167 165.187 121.866C164.863 121.564 164.474 121.413 164.019 121.413C163.335 121.413 162.801 121.75 162.417 122.424C162.032 123.095 161.84 124.045 161.84 125.273C161.84 126.091 161.926 126.787 162.098 127.359C162.27 127.932 162.518 128.367 162.841 128.666C163.168 128.964 163.56 129.114 164.019 129.114ZM171.828 130.129C171.194 130.129 170.634 130.017 170.148 129.792C169.665 129.565 169.288 129.252 169.017 128.855C168.746 128.455 168.612 128 168.615 127.489C168.612 127.089 168.69 126.719 168.851 126.381C169.011 126.039 169.229 125.754 169.506 125.527C169.786 125.296 170.099 125.15 170.443 125.088V125.033C169.991 124.916 169.631 124.662 169.363 124.271C169.095 123.877 168.963 123.429 168.966 122.928C168.963 122.447 169.084 122.018 169.331 121.64C169.577 121.261 169.915 120.962 170.346 120.744C170.78 120.525 171.274 120.416 171.828 120.416C172.376 120.416 172.865 120.525 173.296 120.744C173.727 120.962 174.066 121.261 174.312 121.64C174.561 122.018 174.687 122.447 174.69 122.928C174.687 123.429 174.55 123.877 174.28 124.271C174.012 124.662 173.656 124.916 173.213 125.033V125.088C173.555 125.15 173.862 125.296 174.136 125.527C174.41 125.754 174.629 126.039 174.792 126.381C174.955 126.719 175.038 127.089 175.041 127.489C175.038 128 174.9 128.455 174.626 128.855C174.355 129.252 173.978 129.565 173.495 129.792C173.015 130.017 172.459 130.129 171.828 130.129ZM171.828 129.114C172.256 129.114 172.625 129.044 172.936 128.906C173.247 128.767 173.487 128.572 173.656 128.32C173.826 128.067 173.912 127.772 173.915 127.433C173.912 127.076 173.819 126.761 173.638 126.487C173.456 126.213 173.208 125.998 172.895 125.841C172.584 125.684 172.228 125.605 171.828 125.605C171.425 125.605 171.065 125.684 170.748 125.841C170.434 125.998 170.186 126.213 170.005 126.487C169.826 126.761 169.738 127.076 169.742 127.433C169.738 127.772 169.82 128.067 169.986 128.32C170.155 128.572 170.397 128.767 170.711 128.906C171.025 129.044 171.397 129.114 171.828 129.114ZM171.828 124.626C172.167 124.626 172.467 124.559 172.728 124.423C172.993 124.288 173.201 124.099 173.352 123.855C173.502 123.612 173.579 123.328 173.582 123.001C173.579 122.681 173.504 122.403 173.356 122.166C173.208 121.926 173.004 121.741 172.742 121.612C172.481 121.48 172.176 121.413 171.828 121.413C171.474 121.413 171.165 121.48 170.9 121.612C170.636 121.741 170.431 121.926 170.286 122.166C170.142 122.403 170.071 122.681 170.074 123.001C170.071 123.328 170.143 123.612 170.291 123.855C170.442 124.099 170.649 124.288 170.914 124.423C171.179 124.559 171.483 124.626 171.828 124.626ZM177.363 128.79C177.135 128.79 176.94 128.709 176.777 128.546C176.614 128.383 176.532 128.187 176.532 127.96C176.532 127.732 176.614 127.536 176.777 127.373C176.94 127.21 177.135 127.129 177.363 127.129C177.591 127.129 177.786 127.21 177.949 127.373C178.112 127.536 178.194 127.732 178.194 127.96C178.194 128.11 178.155 128.249 178.079 128.375C178.005 128.501 177.905 128.603 177.778 128.68C177.655 128.754 177.517 128.79 177.363 128.79ZM177.363 124.008C177.135 124.008 176.94 123.926 176.777 123.763C176.614 123.6 176.532 123.405 176.532 123.177C176.532 122.949 176.614 122.754 176.777 122.591C176.94 122.427 177.135 122.346 177.363 122.346C177.591 122.346 177.786 122.427 177.949 122.591C178.112 122.754 178.194 122.949 178.194 123.177C178.194 123.328 178.155 123.466 178.079 123.592C178.005 123.719 177.905 123.82 177.778 123.897C177.655 123.971 177.517 124.008 177.363 124.008ZM179.649 128.061V127.119L183.804 120.545H184.487V122.004H184.025L180.886 126.972V127.045H186.481V128.061H179.649ZM184.099 130V127.775V127.336V120.545H185.189V130H184.099ZM191.091 130.129C190.703 130.123 190.315 130.049 189.927 129.908C189.539 129.766 189.186 129.528 188.865 129.192C188.545 128.854 188.288 128.397 188.094 127.821C187.901 127.242 187.804 126.516 187.804 125.642C187.804 124.805 187.882 124.063 188.039 123.417C188.196 122.768 188.424 122.221 188.722 121.778C189.021 121.332 189.381 120.993 189.803 120.762C190.227 120.532 190.706 120.416 191.238 120.416C191.768 120.416 192.239 120.522 192.651 120.735C193.066 120.944 193.405 121.236 193.667 121.612C193.928 121.987 194.097 122.42 194.174 122.909H193.048C192.943 122.484 192.74 122.132 192.439 121.852C192.137 121.572 191.737 121.432 191.238 121.432C190.506 121.432 189.929 121.75 189.507 122.387C189.089 123.025 188.878 123.919 188.875 125.07H188.949C189.121 124.808 189.326 124.585 189.563 124.4C189.803 124.212 190.067 124.068 190.357 123.966C190.646 123.865 190.952 123.814 191.275 123.814C191.817 123.814 192.312 123.949 192.762 124.22C193.211 124.488 193.571 124.859 193.842 125.333C194.113 125.804 194.248 126.344 194.248 126.953C194.248 127.538 194.117 128.073 193.856 128.56C193.594 129.043 193.226 129.428 192.753 129.714C192.282 129.997 191.728 130.135 191.091 130.129ZM191.091 129.114C191.478 129.114 191.826 129.017 192.134 128.823C192.445 128.629 192.689 128.369 192.868 128.043C193.05 127.716 193.14 127.353 193.14 126.953C193.14 126.562 193.053 126.207 192.877 125.887C192.705 125.564 192.466 125.307 192.162 125.116C191.86 124.925 191.515 124.83 191.128 124.83C190.835 124.83 190.563 124.888 190.31 125.005C190.058 125.119 189.836 125.276 189.646 125.476C189.458 125.676 189.31 125.905 189.202 126.164C189.095 126.419 189.041 126.688 189.041 126.972C189.041 127.347 189.129 127.698 189.304 128.024C189.483 128.35 189.726 128.614 190.033 128.814C190.344 129.014 190.697 129.114 191.091 129.114Z" fill="#4200FF"/>
<path d="M32.7174 125V110.455H34.4788V116.932H42.2345V110.455H43.9958V125H42.2345V118.494H34.4788V125H32.7174ZM51.8687 125.227C50.8176 125.227 49.9108 124.995 49.1485 124.531C48.391 124.062 47.8062 123.409 47.3943 122.571C46.9871 121.728 46.7835 120.748 46.7835 119.631C46.7835 118.513 46.9871 117.528 47.3943 116.676C47.8062 115.819 48.3791 115.152 49.113 114.673C49.8517 114.19 50.7134 113.949 51.6982 113.949C52.2664 113.949 52.8275 114.044 53.3815 114.233C53.9355 114.422 54.4397 114.73 54.8943 115.156C55.3488 115.578 55.711 116.136 55.9809 116.832C56.2508 117.528 56.3857 118.385 56.3857 119.403V120.114H47.9767V118.665H54.6812C54.6812 118.049 54.5581 117.5 54.3119 117.017C54.0704 116.534 53.7248 116.153 53.2749 115.874C52.8299 115.594 52.3043 115.455 51.6982 115.455C51.0306 115.455 50.453 115.62 49.9653 115.952C49.4823 116.278 49.1106 116.705 48.8502 117.23C48.5898 117.756 48.4596 118.319 48.4596 118.92V119.886C48.4596 120.71 48.6017 121.409 48.8857 121.982C49.1746 122.55 49.5747 122.983 50.086 123.281C50.5974 123.575 51.1916 123.722 51.8687 123.722C52.309 123.722 52.7068 123.66 53.0619 123.537C53.4217 123.409 53.7319 123.22 53.9923 122.969C54.2527 122.713 54.4539 122.396 54.596 122.017L56.2153 122.472C56.0448 123.021 55.7584 123.504 55.3559 123.92C54.9535 124.332 54.4563 124.654 53.8644 124.886C53.2726 125.114 52.6073 125.227 51.8687 125.227ZM58.9355 125V114.091H63.3957C64.5699 114.091 65.5027 114.356 66.194 114.886C66.8853 115.417 67.2309 116.117 67.2309 116.989C67.2309 117.652 67.0344 118.165 66.6414 118.53C66.2484 118.89 65.7442 119.134 65.1286 119.261C65.5311 119.318 65.9217 119.46 66.3005 119.688C66.684 119.915 67.0013 120.227 67.2522 120.625C67.5032 121.018 67.6286 121.501 67.6286 122.074C67.6286 122.633 67.4866 123.132 67.2025 123.572C66.9184 124.013 66.5112 124.361 65.9809 124.616C65.4506 124.872 64.8161 125 64.0775 125H58.9355ZM60.5264 123.466H64.0775C64.6552 123.466 65.1073 123.329 65.434 123.054C65.7607 122.779 65.9241 122.405 65.9241 121.932C65.9241 121.368 65.7607 120.926 65.434 120.604C65.1073 120.277 64.6552 120.114 64.0775 120.114H60.5264V123.466ZM60.5264 118.665H63.3957C63.8455 118.665 64.2314 118.603 64.5534 118.48C64.8753 118.352 65.1215 118.172 65.292 117.94C65.4672 117.704 65.5548 117.424 65.5548 117.102C65.5548 116.643 65.363 116.283 64.9795 116.023C64.596 115.758 64.068 115.625 63.3957 115.625H60.5264V118.665ZM74.5977 125.227C73.6129 125.227 72.7488 124.993 72.0054 124.524C71.2668 124.055 70.6891 123.4 70.2725 122.557C69.8605 121.714 69.6546 120.729 69.6546 119.602C69.6546 118.466 69.8605 117.474 70.2725 116.626C70.6891 115.779 71.2668 115.121 72.0054 114.652C72.7488 114.183 73.6129 113.949 74.5977 113.949C75.5826 113.949 76.4443 114.183 77.183 114.652C77.9263 115.121 78.504 115.779 78.9159 116.626C79.3326 117.474 79.5409 118.466 79.5409 119.602C79.5409 120.729 79.3326 121.714 78.9159 122.557C78.504 123.4 77.9263 124.055 77.183 124.524C76.4443 124.993 75.5826 125.227 74.5977 125.227ZM74.5977 123.722C75.3459 123.722 75.9614 123.53 76.4443 123.146C76.9273 122.763 77.2848 122.259 77.5168 121.634C77.7488 121.009 77.8648 120.331 77.8648 119.602C77.8648 118.873 77.7488 118.194 77.5168 117.564C77.2848 116.934 76.9273 116.425 76.4443 116.037C75.9614 115.649 75.3459 115.455 74.5977 115.455C73.8496 115.455 73.2341 115.649 72.7512 116.037C72.2682 116.425 71.9107 116.934 71.6787 117.564C71.4467 118.194 71.3307 118.873 71.3307 119.602C71.3307 120.331 71.4467 121.009 71.6787 121.634C71.9107 122.259 72.2682 122.763 72.7512 123.146C73.2341 123.53 73.8496 123.722 74.5977 123.722ZM82.0995 125V114.091H86.5597C87.734 114.091 88.6668 114.356 89.358 114.886C90.0493 115.417 90.395 116.117 90.395 116.989C90.395 117.652 90.1985 118.165 89.8055 118.53C89.4125 118.89 88.9082 119.134 88.2927 119.261C88.6952 119.318 89.0858 119.46 89.4646 119.688C89.8481 119.915 90.1653 120.227 90.4163 120.625C90.6672 121.018 90.7927 121.501 90.7927 122.074C90.7927 122.633 90.6507 123.132 90.3666 123.572C90.0825 124.013 89.6753 124.361 89.145 124.616C88.6147 124.872 87.9802 125 87.2416 125H82.0995ZM83.6904 123.466H87.2416C87.8192 123.466 88.2714 123.329 88.5981 123.054C88.9248 122.779 89.0882 122.405 89.0882 121.932C89.0882 121.368 88.9248 120.926 88.5981 120.604C88.2714 120.277 87.8192 120.114 87.2416 120.114H83.6904V123.466ZM83.6904 118.665H86.5597C87.0096 118.665 87.3954 118.603 87.7174 118.48C88.0394 118.352 88.2856 118.172 88.4561 117.94C88.6312 117.704 88.7188 117.424 88.7188 117.102C88.7188 116.643 88.5271 116.283 88.1436 116.023C87.76 115.758 87.2321 115.625 86.5597 115.625H83.6904V118.665ZM93.33 129.091V114.091H94.9493V115.824H95.1482C95.2713 115.634 95.4417 115.393 95.6595 115.099C95.8821 114.801 96.1993 114.536 96.6112 114.304C97.0279 114.067 97.5914 113.949 98.3016 113.949C99.2201 113.949 100.03 114.179 100.731 114.638C101.431 115.097 101.978 115.748 102.371 116.591C102.764 117.434 102.961 118.428 102.961 119.574C102.961 120.729 102.764 121.731 102.371 122.578C101.978 123.421 101.434 124.074 100.738 124.538C100.042 124.998 99.2391 125.227 98.33 125.227C97.6292 125.227 97.0682 125.111 96.6468 124.879C96.2253 124.643 95.901 124.375 95.6737 124.077C95.4465 123.774 95.2713 123.523 95.1482 123.324H95.0061V129.091H93.33ZM94.9777 119.545C94.9777 120.369 95.0985 121.096 95.3399 121.726C95.5814 122.351 95.9342 122.841 96.3982 123.196C96.8622 123.546 97.4304 123.722 98.1027 123.722C98.8035 123.722 99.3882 123.537 99.857 123.168C100.33 122.794 100.686 122.292 100.922 121.662C101.164 121.027 101.285 120.322 101.285 119.545C101.285 118.778 101.166 118.087 100.929 117.472C100.697 116.851 100.345 116.361 99.8712 116.001C99.4024 115.637 98.8129 115.455 98.1027 115.455C97.4209 115.455 96.848 115.627 96.384 115.973C95.92 116.314 95.5696 116.792 95.3328 117.408C95.0961 118.018 94.9777 118.731 94.9777 119.545ZM110.091 125.227C109.04 125.227 108.133 124.995 107.371 124.531C106.614 124.062 106.029 123.409 105.617 122.571C105.21 121.728 105.006 120.748 105.006 119.631C105.006 118.513 105.21 117.528 105.617 116.676C106.029 115.819 106.602 115.152 107.336 114.673C108.074 114.19 108.936 113.949 109.921 113.949C110.489 113.949 111.05 114.044 111.604 114.233C112.158 114.422 112.662 114.73 113.117 115.156C113.571 115.578 113.934 116.136 114.204 116.832C114.473 117.528 114.608 118.385 114.608 119.403V120.114H106.199V118.665H112.904C112.904 118.049 112.781 117.5 112.535 117.017C112.293 116.534 111.947 116.153 111.498 115.874C111.053 115.594 110.527 115.455 109.921 115.455C109.253 115.455 108.676 115.62 108.188 115.952C107.705 116.278 107.333 116.705 107.073 117.23C106.812 117.756 106.682 118.319 106.682 118.92V119.886C106.682 120.71 106.824 121.409 107.108 121.982C107.397 122.55 107.797 122.983 108.309 123.281C108.82 123.575 109.414 123.722 110.091 123.722C110.532 123.722 110.929 123.66 111.285 123.537C111.644 123.409 111.955 123.22 112.215 122.969C112.475 122.713 112.677 122.396 112.819 122.017L114.438 122.472C114.267 123.021 113.981 123.504 113.579 123.92C113.176 124.332 112.679 124.654 112.087 124.886C111.495 125.114 110.83 125.227 110.091 125.227ZM123.124 122.727L126.931 114.091H128.522L123.806 125H122.442L117.812 114.091H119.374L123.124 122.727ZM118.834 114.091V125H117.158V114.091H118.834ZM127.414 125V114.091H129.09V125H127.414ZM138.721 125V115.625H135.823C135.169 115.625 134.656 115.777 134.282 116.08C133.908 116.383 133.721 116.799 133.721 117.33C133.721 117.85 133.889 118.26 134.225 118.558C134.566 118.857 135.032 119.006 135.624 119.006H139.147V120.568H135.624C134.885 120.568 134.249 120.438 133.714 120.178C133.178 119.917 132.767 119.545 132.478 119.062C132.189 118.575 132.044 117.997 132.044 117.33C132.044 116.657 132.196 116.08 132.499 115.597C132.802 115.114 133.235 114.742 133.799 114.482C134.367 114.221 135.042 114.091 135.823 114.091H140.312V125H138.721ZM131.448 125L134.544 119.574H136.363L133.266 125H131.448ZM143.985 118.864C143.985 117.074 144.217 115.429 144.681 113.928C145.15 112.422 145.818 111.037 146.684 109.773H148.161C147.82 110.241 147.501 110.819 147.203 111.506C146.909 112.187 146.651 112.938 146.428 113.757C146.206 114.571 146.031 115.414 145.903 116.286C145.78 117.157 145.718 118.016 145.718 118.864C145.718 119.991 145.827 121.134 146.045 122.294C146.263 123.454 146.556 124.531 146.926 125.526C147.295 126.52 147.707 127.33 148.161 127.955H146.684C145.818 126.69 145.15 125.308 144.681 123.807C144.217 122.301 143.985 120.653 143.985 118.864Z" fill="black"/>
<path opacity="0.8" fill-rule="evenodd" clip-rule="evenodd" d="M341.937 163.027C341.956 163.461 341.956 163.974 341.956 165C341.956 166.026 341.956 166.539 341.937 166.973C341.487 177.279 333.235 185.531 322.929 185.981C322.495 186 321.982 186 320.956 186H35.4489C32.6493 186 31.2495 186 30.0727 185.859C27.8908 185.598 25.8195 184.988 23.9158 184.086C23.4312 184.236 22.936 184.376 22.4334 184.503C16.1613 186.09 0 185.999 0 185.999C0 185.999 8.81949 184.503 12.0969 177.686C12.6264 176.585 13.0103 174.19 13.2864 171.509C13.009 170.524 12.805 169.508 12.6805 168.467C12.5399 167.29 12.5399 165.891 12.5399 163.091C12.5399 160.758 12.5399 159.591 12.6571 158.611C13.5654 151.014 19.554 145.026 27.1506 144.117C28.1312 144 29.2977 144 31.6308 144H320.956C321.982 144 322.495 144 322.929 144.019C333.235 144.469 341.487 152.721 341.937 163.027Z" fill="#BCA4FF"/>
<path d="M296.019 175.937C295.323 175.937 294.731 175.748 294.241 175.369C293.752 174.987 293.378 174.435 293.119 173.712C292.861 172.985 292.732 172.108 292.732 171.08C292.732 170.059 292.861 169.186 293.119 168.463C293.381 167.736 293.756 167.182 294.246 166.801C294.738 166.416 295.329 166.224 296.019 166.224C296.708 166.224 297.297 166.416 297.787 166.801C298.279 167.182 298.655 167.736 298.913 168.463C299.175 169.186 299.305 170.059 299.305 171.08C299.305 172.108 299.176 172.985 298.918 173.712C298.659 174.435 298.285 174.987 297.796 175.369C297.307 175.748 296.714 175.937 296.019 175.937ZM296.019 174.921C296.708 174.921 297.243 174.589 297.625 173.924C298.007 173.259 298.198 172.311 298.198 171.08C298.198 170.262 298.11 169.565 297.934 168.989C297.762 168.414 297.513 167.975 297.187 167.673C296.863 167.372 296.474 167.221 296.019 167.221C295.335 167.221 294.801 167.558 294.417 168.232C294.032 168.903 293.84 169.852 293.84 171.08C293.84 171.899 293.926 172.595 294.098 173.167C294.27 173.739 294.518 174.175 294.841 174.473C295.168 174.772 295.56 174.921 296.019 174.921ZM303.828 175.937C303.194 175.937 302.634 175.825 302.148 175.6C301.665 175.372 301.288 175.06 301.017 174.663C300.746 174.263 300.612 173.807 300.615 173.296C300.612 172.896 300.69 172.527 300.851 172.188C301.011 171.847 301.229 171.562 301.506 171.334C301.786 171.103 302.099 170.957 302.443 170.896V170.84C301.991 170.723 301.631 170.469 301.363 170.079C301.095 169.685 300.963 169.237 300.966 168.735C300.963 168.255 301.084 167.826 301.331 167.447C301.577 167.069 301.915 166.77 302.346 166.552C302.78 166.333 303.274 166.224 303.828 166.224C304.376 166.224 304.865 166.333 305.296 166.552C305.727 166.77 306.066 167.069 306.312 167.447C306.561 167.826 306.687 168.255 306.69 168.735C306.687 169.237 306.55 169.685 306.28 170.079C306.012 170.469 305.656 170.723 305.213 170.84V170.896C305.555 170.957 305.862 171.103 306.136 171.334C306.41 171.562 306.629 171.847 306.792 172.188C306.955 172.527 307.038 172.896 307.041 173.296C307.038 173.807 306.9 174.263 306.626 174.663C306.355 175.06 305.978 175.372 305.495 175.6C305.015 175.825 304.459 175.937 303.828 175.937ZM303.828 174.921C304.256 174.921 304.625 174.852 304.936 174.714C305.247 174.575 305.487 174.38 305.656 174.127C305.826 173.875 305.912 173.579 305.915 173.241C305.912 172.884 305.819 172.568 305.638 172.294C305.456 172.021 305.208 171.805 304.895 171.648C304.584 171.491 304.228 171.413 303.828 171.413C303.425 171.413 303.065 171.491 302.748 171.648C302.434 171.805 302.186 172.021 302.005 172.294C301.826 172.568 301.738 172.884 301.742 173.241C301.738 173.579 301.82 173.875 301.986 174.127C302.155 174.38 302.397 174.575 302.711 174.714C303.025 174.852 303.397 174.921 303.828 174.921ZM303.828 170.434C304.167 170.434 304.467 170.366 304.728 170.231C304.993 170.095 305.201 169.906 305.352 169.663C305.502 169.42 305.579 169.135 305.582 168.809C305.579 168.489 305.504 168.21 305.356 167.973C305.208 167.733 305.004 167.549 304.742 167.419C304.481 167.287 304.176 167.221 303.828 167.221C303.474 167.221 303.165 167.287 302.9 167.419C302.636 167.549 302.431 167.733 302.286 167.973C302.142 168.21 302.071 168.489 302.074 168.809C302.071 169.135 302.143 169.42 302.291 169.663C302.442 169.906 302.649 170.095 302.914 170.231C303.179 170.366 303.483 170.434 303.828 170.434ZM309.363 174.598C309.135 174.598 308.94 174.517 308.777 174.353C308.614 174.19 308.532 173.995 308.532 173.767C308.532 173.539 308.614 173.344 308.777 173.181C308.94 173.018 309.135 172.936 309.363 172.936C309.591 172.936 309.786 173.018 309.949 173.181C310.112 173.344 310.194 173.539 310.194 173.767C310.194 173.918 310.155 174.056 310.079 174.183C310.005 174.309 309.905 174.41 309.778 174.487C309.655 174.561 309.517 174.598 309.363 174.598ZM309.363 169.815C309.135 169.815 308.94 169.734 308.777 169.571C308.614 169.408 308.532 169.212 308.532 168.984C308.532 168.757 308.614 168.561 308.777 168.398C308.94 168.235 309.135 168.153 309.363 168.153C309.591 168.153 309.786 168.235 309.949 168.398C310.112 168.561 310.194 168.757 310.194 168.984C310.194 169.135 310.155 169.274 310.079 169.4C310.005 169.526 309.905 169.628 309.778 169.705C309.655 169.778 309.517 169.815 309.363 169.815ZM311.649 173.869V172.927L315.804 166.353H316.487V167.812H316.025L312.886 172.779V172.853H318.481V173.869H311.649ZM316.099 175.808V173.582V173.144V166.353H317.189V175.808H316.099ZM323.091 175.937C322.703 175.931 322.315 175.857 321.927 175.715C321.539 175.574 321.186 175.335 320.865 175C320.545 174.661 320.288 174.204 320.094 173.629C319.901 173.05 319.804 172.324 319.804 171.45C319.804 170.613 319.882 169.871 320.039 169.225C320.196 168.575 320.424 168.029 320.722 167.586C321.021 167.139 321.381 166.801 321.803 166.57C322.227 166.339 322.706 166.224 323.238 166.224C323.768 166.224 324.239 166.33 324.651 166.542C325.066 166.752 325.405 167.044 325.667 167.419C325.928 167.795 326.097 168.227 326.174 168.717H325.048C324.943 168.292 324.74 167.94 324.439 167.66C324.137 167.379 323.737 167.239 323.238 167.239C322.506 167.239 321.929 167.558 321.507 168.195C321.089 168.832 320.878 169.726 320.875 170.877H320.949C321.121 170.616 321.326 170.392 321.563 170.208C321.803 170.02 322.067 169.875 322.357 169.774C322.646 169.672 322.952 169.622 323.275 169.622C323.817 169.622 324.312 169.757 324.762 170.028C325.211 170.296 325.571 170.666 325.842 171.14C326.113 171.611 326.248 172.151 326.248 172.761C326.248 173.345 326.117 173.881 325.856 174.367C325.594 174.85 325.226 175.235 324.753 175.521C324.282 175.805 323.728 175.943 323.091 175.937ZM323.091 174.921C323.478 174.921 323.826 174.824 324.134 174.63C324.445 174.437 324.689 174.176 324.868 173.85C325.05 173.524 325.14 173.161 325.14 172.761C325.14 172.37 325.053 172.014 324.877 171.694C324.705 171.371 324.466 171.114 324.162 170.923C323.86 170.733 323.515 170.637 323.128 170.637C322.835 170.637 322.563 170.696 322.31 170.813C322.058 170.926 321.836 171.083 321.646 171.283C321.458 171.484 321.31 171.713 321.202 171.971C321.095 172.227 321.041 172.496 321.041 172.779C321.041 173.155 321.129 173.506 321.304 173.832C321.483 174.158 321.726 174.421 322.033 174.621C322.344 174.821 322.697 174.921 323.091 174.921Z" fill="#4200FF"/>
<path d="M26.7174 172V157.455H31.8026C32.8159 157.455 33.6516 157.63 34.3097 157.98C34.9679 158.326 35.4579 158.792 35.7799 159.379C36.1019 159.962 36.2629 160.608 36.2629 161.318C36.2629 161.943 36.1516 162.459 35.9291 162.866C35.7113 163.274 35.4224 163.596 35.0626 163.832C34.7075 164.069 34.3216 164.244 33.9049 164.358V164.5C34.35 164.528 34.7974 164.685 35.2472 164.969C35.6971 165.253 36.0735 165.66 36.3765 166.19C36.6795 166.721 36.8311 167.369 36.8311 168.136C36.8311 168.866 36.6653 169.521 36.3339 170.104C36.0025 170.686 35.4793 171.148 34.7643 171.489C34.0493 171.83 33.1189 172 31.9731 172H26.7174ZM28.4788 170.438H31.9731C33.1237 170.438 33.9404 170.215 34.4234 169.77C34.9111 169.32 35.1549 168.776 35.1549 168.136C35.1549 167.644 35.0294 167.189 34.7785 166.773C34.5276 166.351 34.1701 166.015 33.7061 165.764C33.242 165.509 32.6928 165.381 32.0583 165.381H28.4788V170.438ZM28.4788 163.847H31.7458C32.2761 163.847 32.7544 163.742 33.1805 163.534C33.6114 163.326 33.9523 163.032 34.2032 162.653C34.4589 162.275 34.5867 161.83 34.5867 161.318C34.5867 160.679 34.3642 160.137 33.9191 159.692C33.474 159.242 32.7686 159.017 31.8026 159.017H28.4788V163.847ZM44.0718 172.227C43.0207 172.227 42.114 171.995 41.3517 171.531C40.5941 171.062 40.0093 170.409 39.5974 169.571C39.1902 168.728 38.9866 167.748 38.9866 166.631C38.9866 165.513 39.1902 164.528 39.5974 163.676C40.0093 162.819 40.5822 162.152 41.3161 161.673C42.0548 161.19 42.9165 160.949 43.9014 160.949C44.4695 160.949 45.0306 161.044 45.5846 161.233C46.1386 161.422 46.6428 161.73 47.0974 162.156C47.5519 162.578 47.9142 163.136 48.184 163.832C48.4539 164.528 48.5889 165.385 48.5889 166.403V167.114H40.1798V165.665H46.8843C46.8843 165.049 46.7612 164.5 46.515 164.017C46.2735 163.534 45.9279 163.153 45.4781 162.874C45.033 162.594 44.5074 162.455 43.9014 162.455C43.2338 162.455 42.6561 162.62 42.1684 162.952C41.6855 163.278 41.3138 163.705 41.0534 164.23C40.7929 164.756 40.6627 165.319 40.6627 165.92V166.886C40.6627 167.71 40.8048 168.409 41.0889 168.982C41.3777 169.55 41.7778 169.983 42.2892 170.281C42.8005 170.575 43.3947 170.722 44.0718 170.722C44.5122 170.722 44.9099 170.66 45.265 170.537C45.6249 170.409 45.935 170.22 46.1954 169.969C46.4558 169.713 46.657 169.396 46.7991 169.017L48.4184 169.472C48.248 170.021 47.9615 170.504 47.559 170.92C47.1566 171.332 46.6594 171.654 46.0676 171.886C45.4757 172.114 44.8105 172.227 44.0718 172.227ZM51.1386 176.091V161.091H52.7579V162.824H52.9568C53.0799 162.634 53.2503 162.393 53.4681 162.099C53.6907 161.801 54.0079 161.536 54.4198 161.304C54.8365 161.067 55.3999 160.949 56.1102 160.949C57.0287 160.949 57.8384 161.179 58.5392 161.638C59.2399 162.097 59.7868 162.748 60.1798 163.591C60.5728 164.434 60.7693 165.428 60.7693 166.574C60.7693 167.729 60.5728 168.731 60.1798 169.578C59.7868 170.421 59.2423 171.074 58.5463 171.538C57.8502 171.998 57.0477 172.227 56.1386 172.227C55.4378 172.227 54.8767 172.111 54.4553 171.879C54.0339 171.643 53.7096 171.375 53.4823 171.077C53.2551 170.774 53.0799 170.523 52.9568 170.324H52.8147V176.091H51.1386ZM52.7863 166.545C52.7863 167.369 52.907 168.096 53.1485 168.726C53.39 169.351 53.7427 169.841 54.2068 170.196C54.6708 170.546 55.239 170.722 55.9113 170.722C56.6121 170.722 57.1968 170.537 57.6656 170.168C58.1391 169.794 58.4942 169.292 58.7309 168.662C58.9724 168.027 59.0931 167.322 59.0931 166.545C59.0931 165.778 58.9748 165.087 58.738 164.472C58.506 163.851 58.1533 163.361 57.6798 163.001C57.211 162.637 56.6215 162.455 55.9113 162.455C55.2295 162.455 54.6566 162.627 54.1926 162.973C53.7285 163.314 53.3782 163.792 53.1414 164.408C52.9047 165.018 52.7863 165.731 52.7863 166.545ZM70.6272 165.778V167.341H64.6045V165.778H70.6272ZM65.0022 161.091V172H63.3261V161.091H65.0022ZM71.9056 161.091V172H70.2295V161.091H71.9056ZM75.6556 176.091C75.3715 176.091 75.1182 176.067 74.8957 176.02C74.6731 175.977 74.5193 175.935 74.434 175.892L74.8602 174.415C75.2674 174.519 75.6272 174.557 75.9397 174.528C76.2522 174.5 76.5292 174.36 76.7707 174.109C77.0169 173.863 77.2418 173.463 77.4454 172.909L77.7579 172.057L73.7238 161.091H75.542L78.5534 169.784H78.667L81.6784 161.091H83.4965L78.8659 173.591C78.6575 174.154 78.3995 174.621 78.0917 174.99C77.7839 175.364 77.4265 175.641 77.0193 175.821C76.6168 176.001 76.1623 176.091 75.6556 176.091ZM89.7501 172.227C88.7274 172.227 87.8467 171.986 87.108 171.503C86.3694 171.02 85.8012 170.355 85.4035 169.507C85.0058 168.66 84.8069 167.691 84.8069 166.602C84.8069 165.494 85.0105 164.517 85.4177 163.669C85.8296 162.817 86.4026 162.152 87.1365 161.673C87.8751 161.19 88.7368 160.949 89.7217 160.949C90.4887 160.949 91.18 161.091 91.7955 161.375C92.4111 161.659 92.9153 162.057 93.3083 162.568C93.7013 163.08 93.9452 163.676 94.0399 164.358H92.3637C92.2359 163.861 91.9518 163.42 91.5115 163.037C91.0758 162.649 90.4887 162.455 89.7501 162.455C89.0967 162.455 88.5238 162.625 88.0313 162.966C87.5436 163.302 87.1625 163.778 86.8879 164.393C86.618 165.004 86.483 165.722 86.483 166.545C86.483 167.388 86.6156 168.122 86.8808 168.747C87.1507 169.372 87.5294 169.857 88.0171 170.203C88.5096 170.549 89.0872 170.722 89.7501 170.722C90.1857 170.722 90.5811 170.646 90.9362 170.494C91.2913 170.343 91.5919 170.125 91.8382 169.841C92.0844 169.557 92.2596 169.216 92.3637 168.818H94.0399C93.9452 169.462 93.7108 170.042 93.3367 170.558C92.9674 171.07 92.4774 171.477 91.8666 171.78C91.2605 172.078 90.555 172.227 89.7501 172.227ZM97.939 165.04H101.064C102.342 165.04 103.32 165.364 103.997 166.013C104.674 166.661 105.013 167.483 105.013 168.477C105.013 169.131 104.861 169.725 104.558 170.26C104.255 170.79 103.81 171.214 103.223 171.531C102.636 171.844 101.916 172 101.064 172H96.4901V161.091H98.1663V170.438H101.064C101.727 170.438 102.271 170.262 102.698 169.912C103.124 169.562 103.337 169.112 103.337 168.562C103.337 167.985 103.124 167.514 102.698 167.149C102.271 166.785 101.727 166.602 101.064 166.602H97.939V165.04ZM120.491 165.778V167.341H114.468V165.778H120.491ZM114.866 161.091V172H113.189V161.091H114.866ZM121.769 161.091V172H120.093V161.091H121.769ZM128.04 172.256C127.349 172.256 126.722 172.125 126.158 171.865C125.595 171.6 125.147 171.219 124.816 170.722C124.484 170.22 124.319 169.614 124.319 168.903C124.319 168.278 124.442 167.772 124.688 167.384C124.934 166.991 125.263 166.683 125.675 166.46C126.087 166.238 126.542 166.072 127.039 165.963C127.541 165.849 128.045 165.759 128.552 165.693C129.214 165.608 129.752 165.544 130.164 165.501C130.58 165.454 130.883 165.376 131.073 165.267C131.267 165.158 131.364 164.969 131.364 164.699V164.642C131.364 163.941 131.172 163.397 130.789 163.009C130.41 162.62 129.835 162.426 129.063 162.426C128.263 162.426 127.635 162.601 127.181 162.952C126.726 163.302 126.407 163.676 126.222 164.074L124.631 163.506C124.915 162.843 125.294 162.327 125.767 161.957C126.246 161.583 126.767 161.323 127.33 161.176C127.898 161.025 128.457 160.949 129.006 160.949C129.357 160.949 129.759 160.991 130.214 161.077C130.673 161.157 131.116 161.325 131.542 161.581C131.973 161.837 132.33 162.223 132.614 162.739C132.898 163.255 133.04 163.946 133.04 164.812V172H131.364V170.523H131.279C131.165 170.759 130.976 171.013 130.711 171.283C130.446 171.553 130.093 171.782 129.652 171.972C129.212 172.161 128.675 172.256 128.04 172.256ZM128.296 170.75C128.959 170.75 129.517 170.62 129.972 170.359C130.431 170.099 130.777 169.763 131.009 169.351C131.246 168.939 131.364 168.506 131.364 168.051V166.517C131.293 166.602 131.137 166.68 130.895 166.751C130.659 166.818 130.384 166.877 130.071 166.929C129.764 166.976 129.463 167.019 129.169 167.057C128.881 167.09 128.646 167.118 128.466 167.142C128.031 167.199 127.624 167.291 127.245 167.419C126.871 167.542 126.568 167.729 126.336 167.98C126.108 168.226 125.995 168.562 125.995 168.989C125.995 169.571 126.21 170.011 126.641 170.31C127.077 170.603 127.628 170.75 128.296 170.75ZM148.457 161.091V162.653H143.401V172H141.725V161.091H148.457ZM149.02 172V170.438H149.418C149.745 170.438 150.017 170.374 150.235 170.246C150.453 170.113 150.628 169.884 150.76 169.557C150.898 169.225 151.002 168.766 151.073 168.179C151.149 167.587 151.203 166.834 151.236 165.92L151.435 161.091H158.708V172H157.032V162.653H153.026L152.856 166.545C152.818 167.44 152.737 168.229 152.614 168.911C152.496 169.588 152.313 170.156 152.067 170.615C151.826 171.074 151.504 171.42 151.101 171.652C150.699 171.884 150.195 172 149.589 172H149.02ZM164.993 172.256C164.302 172.256 163.675 172.125 163.111 171.865C162.548 171.6 162.1 171.219 161.769 170.722C161.437 170.22 161.272 169.614 161.272 168.903C161.272 168.278 161.395 167.772 161.641 167.384C161.887 166.991 162.216 166.683 162.628 166.46C163.04 166.238 163.495 166.072 163.992 165.963C164.494 165.849 164.998 165.759 165.505 165.693C166.168 165.608 166.705 165.544 167.117 165.501C167.534 165.454 167.837 165.376 168.026 165.267C168.22 165.158 168.317 164.969 168.317 164.699V164.642C168.317 163.941 168.125 163.397 167.742 163.009C167.363 162.62 166.788 162.426 166.016 162.426C165.216 162.426 164.589 162.601 164.134 162.952C163.679 163.302 163.36 163.676 163.175 164.074L161.584 163.506C161.868 162.843 162.247 162.327 162.721 161.957C163.199 161.583 163.72 161.323 164.283 161.176C164.851 161.025 165.41 160.949 165.959 160.949C166.31 160.949 166.712 160.991 167.167 161.077C167.626 161.157 168.069 161.325 168.495 161.581C168.926 161.837 169.283 162.223 169.567 162.739C169.851 163.255 169.993 163.946 169.993 164.812V172H168.317V170.523H168.232C168.118 170.759 167.929 171.013 167.664 171.283C167.399 171.553 167.046 171.782 166.606 171.972C166.165 172.161 165.628 172.256 164.993 172.256ZM165.249 170.75C165.912 170.75 166.471 170.62 166.925 170.359C167.384 170.099 167.73 169.763 167.962 169.351C168.199 168.939 168.317 168.506 168.317 168.051V166.517C168.246 166.602 168.09 166.68 167.848 166.751C167.612 166.818 167.337 166.877 167.025 166.929C166.717 166.976 166.416 167.019 166.123 167.057C165.834 167.09 165.599 167.118 165.419 167.142C164.984 167.199 164.577 167.291 164.198 167.419C163.824 167.542 163.521 167.729 163.289 167.98C163.062 168.226 162.948 168.562 162.948 168.989C162.948 169.571 163.163 170.011 163.594 170.31C164.03 170.603 164.581 170.75 165.249 170.75ZM173.053 172V161.091H177.513C178.687 161.091 179.62 161.356 180.311 161.886C181.002 162.417 181.348 163.117 181.348 163.989C181.348 164.652 181.152 165.165 180.759 165.53C180.366 165.89 179.861 166.134 179.246 166.261C179.648 166.318 180.039 166.46 180.418 166.688C180.801 166.915 181.118 167.227 181.369 167.625C181.62 168.018 181.746 168.501 181.746 169.074C181.746 169.633 181.604 170.132 181.32 170.572C181.036 171.013 180.628 171.361 180.098 171.616C179.568 171.872 178.933 172 178.195 172H173.053ZM174.644 170.466H178.195C178.772 170.466 179.225 170.329 179.551 170.054C179.878 169.779 180.041 169.405 180.041 168.932C180.041 168.368 179.878 167.926 179.551 167.604C179.225 167.277 178.772 167.114 178.195 167.114H174.644V170.466ZM174.644 165.665H177.513C177.963 165.665 178.349 165.603 178.671 165.48C178.993 165.352 179.239 165.172 179.409 164.94C179.584 164.704 179.672 164.424 179.672 164.102C179.672 163.643 179.48 163.283 179.097 163.023C178.713 162.758 178.185 162.625 177.513 162.625H174.644V165.665ZM191.584 165.778V167.341H185.562V165.778H191.584ZM185.959 161.091V172H184.283V161.091H185.959ZM192.863 161.091V172H191.187V161.091H192.863ZM196.613 176.091C196.329 176.091 196.075 176.067 195.853 176.02C195.63 175.977 195.476 175.935 195.391 175.892L195.817 174.415C196.224 174.519 196.584 174.557 196.897 174.528C197.209 174.5 197.486 174.36 197.728 174.109C197.974 173.863 198.199 173.463 198.402 172.909L198.715 172.057L194.681 161.091H196.499L199.51 169.784H199.624L202.635 161.091H204.454L199.823 173.591C199.615 174.154 199.357 174.621 199.049 174.99C198.741 175.364 198.383 175.641 197.976 175.821C197.574 176.001 197.119 176.091 196.613 176.091ZM211.893 165.864V167.426H206.126V165.864H211.893ZM207.547 161.091V172H205.87V161.091H207.547ZM215.245 172.227C214.261 172.227 213.397 171.993 212.653 171.524C211.915 171.055 211.337 170.4 210.92 169.557C210.508 168.714 210.302 167.729 210.302 166.602C210.302 165.466 210.508 164.474 210.92 163.626C211.337 162.779 211.915 162.121 212.653 161.652C213.397 161.183 214.261 160.949 215.245 160.949C216.23 160.949 217.092 161.183 217.831 161.652C218.574 162.121 219.152 162.779 219.564 163.626C219.98 164.474 220.189 165.466 220.189 166.602C220.189 167.729 219.98 168.714 219.564 169.557C219.152 170.4 218.574 171.055 217.831 171.524C217.092 171.993 216.23 172.227 215.245 172.227ZM215.245 170.722C215.994 170.722 216.609 170.53 217.092 170.146C217.575 169.763 217.932 169.259 218.165 168.634C218.397 168.009 218.513 167.331 218.513 166.602C218.513 165.873 218.397 165.194 218.165 164.564C217.932 163.934 217.575 163.425 217.092 163.037C216.609 162.649 215.994 162.455 215.245 162.455C214.497 162.455 213.882 162.649 213.399 163.037C212.916 163.425 212.558 163.934 212.326 164.564C212.094 165.194 211.978 165.873 211.978 166.602C211.978 167.331 212.094 168.009 212.326 168.634C212.558 169.259 212.916 169.763 213.399 170.146C213.882 170.53 214.497 170.722 215.245 170.722ZM227.916 162.653V161.091H236.78V162.653H233.2V172H231.524V162.653H227.916ZM243.09 172.227C242.105 172.227 241.241 171.993 240.498 171.524C239.759 171.055 239.181 170.4 238.765 169.557C238.353 168.714 238.147 167.729 238.147 166.602C238.147 165.466 238.353 164.474 238.765 163.626C239.181 162.779 239.759 162.121 240.498 161.652C241.241 161.183 242.105 160.949 243.09 160.949C244.075 160.949 244.937 161.183 245.675 161.652C246.419 162.121 246.996 162.779 247.408 163.626C247.825 164.474 248.033 165.466 248.033 166.602C248.033 167.729 247.825 168.714 247.408 169.557C246.996 170.4 246.419 171.055 245.675 171.524C244.937 171.993 244.075 172.227 243.09 172.227ZM243.09 170.722C243.838 170.722 244.454 170.53 244.937 170.146C245.419 169.763 245.777 169.259 246.009 168.634C246.241 168.009 246.357 167.331 246.357 166.602C246.357 165.873 246.241 165.194 246.009 164.564C245.777 163.934 245.419 163.425 244.937 163.037C244.454 162.649 243.838 162.455 243.09 162.455C242.342 162.455 241.726 162.649 241.243 163.037C240.76 163.425 240.403 163.934 240.171 164.564C239.939 165.194 239.823 165.873 239.823 166.602C239.823 167.331 239.939 168.009 240.171 168.634C240.403 169.259 240.76 169.763 241.243 170.146C241.726 170.53 242.342 170.722 243.09 170.722ZM257.325 161.091V162.653H252.268V172H250.592V161.091H257.325ZM257.689 175.125V170.438H258.598C258.82 170.205 259.012 169.955 259.173 169.685C259.334 169.415 259.474 169.095 259.592 168.726C259.715 168.352 259.819 167.897 259.905 167.362C259.99 166.822 260.066 166.171 260.132 165.409L260.501 161.091H267.433V170.438H269.109V175.125H267.433V172H259.365V175.125H257.689ZM260.501 170.438H265.757V162.653H262.064L261.78 165.409C261.661 166.55 261.514 167.547 261.339 168.399C261.164 169.251 260.885 169.931 260.501 170.438ZM274.544 172.256C273.853 172.256 273.225 172.125 272.662 171.865C272.099 171.6 271.651 171.219 271.32 170.722C270.988 170.22 270.823 169.614 270.823 168.903C270.823 168.278 270.946 167.772 271.192 167.384C271.438 166.991 271.767 166.683 272.179 166.46C272.591 166.238 273.046 166.072 273.543 165.963C274.045 165.849 274.549 165.759 275.055 165.693C275.718 165.608 276.256 165.544 276.668 165.501C277.084 165.454 277.387 165.376 277.577 165.267C277.771 165.158 277.868 164.969 277.868 164.699V164.642C277.868 163.941 277.676 163.397 277.293 163.009C276.914 162.62 276.339 162.426 275.567 162.426C274.767 162.426 274.139 162.601 273.685 162.952C273.23 163.302 272.911 163.676 272.726 164.074L271.135 163.506C271.419 162.843 271.798 162.327 272.271 161.957C272.75 161.583 273.27 161.323 273.834 161.176C274.402 161.025 274.961 160.949 275.51 160.949C275.86 160.949 276.263 160.991 276.717 161.077C277.177 161.157 277.619 161.325 278.046 161.581C278.476 161.837 278.834 162.223 279.118 162.739C279.402 163.255 279.544 163.946 279.544 164.812V172H277.868V170.523H277.783C277.669 170.759 277.48 171.013 277.215 171.283C276.949 171.553 276.597 171.782 276.156 171.972C275.716 172.161 275.179 172.256 274.544 172.256ZM274.8 170.75C275.463 170.75 276.021 170.62 276.476 170.359C276.935 170.099 277.281 169.763 277.513 169.351C277.75 168.939 277.868 168.506 277.868 168.051V166.517C277.797 166.602 277.641 166.68 277.399 166.751C277.162 166.818 276.888 166.877 276.575 166.929C276.268 166.976 275.967 167.019 275.673 167.057C275.385 167.09 275.15 167.118 274.97 167.142C274.535 167.199 274.127 167.291 273.749 167.419C273.375 167.542 273.072 167.729 272.84 167.98C272.612 168.226 272.499 168.562 272.499 168.989C272.499 169.571 272.714 170.011 273.145 170.31C273.581 170.603 274.132 170.75 274.8 170.75Z" fill="black"/>
</svg>
