<svg width="359" height="140" viewBox="0 0 359 140" fill="none" xmlns="http://www.w3.org/2000/svg">
<path d="M43.9176 126.468C37.2155 126.468 31.1984 125.196 25.8661 122.652C20.5827 120.059 16.3511 116.512 13.1713 112.012C9.99152 107.462 8.30378 102.301 8.10809 96.5285H24.105C24.4963 101.176 26.5754 105.016 30.3423 108.049C34.1091 111.082 38.6342 112.599 43.9176 112.599C48.1247 112.599 51.8426 111.62 55.0714 109.664C58.3001 107.707 60.8439 105.041 62.7029 101.665C64.5619 98.2407 65.4913 94.3271 65.4913 89.9243C65.4913 85.5215 64.5374 81.5834 62.6295 78.1101C60.7216 74.5879 58.08 71.8239 54.7045 69.8181C51.3779 67.8124 47.5377 66.8096 43.1838 66.8096C39.8572 66.8096 36.5307 67.3966 33.2041 68.5707C29.8775 69.6958 27.1869 71.1635 25.1323 72.9735L9.9426 70.7721L16.1065 15.6636H76.2048V29.826H29.902L26.4531 60.4255H27.0402C29.1437 58.3219 31.9566 56.6097 35.4789 55.2889C39.05 53.9191 42.8903 53.2342 46.9996 53.2342C53.6527 53.2342 59.572 54.8241 64.7575 58.004C69.992 61.1348 74.1013 65.4398 77.0854 70.9189C80.0695 76.349 81.5616 82.5863 81.5616 89.6308C81.5616 96.7242 79.9472 103.059 76.7185 108.636C73.4898 114.164 69.0381 118.518 63.3633 121.698C57.7375 124.878 51.2556 126.468 43.9176 126.468Z" fill="#952AFF"/>
<path fill-rule="evenodd" clip-rule="evenodd" d="M263.061 70.4314C263.641 67.0848 263.931 63.5801 263.931 59.9173C263.931 49.6001 261.566 40.4292 256.838 32.4046C252.109 24.5234 245.517 18.29 237.063 13.7046C228.608 9.26243 218.793 7.04135 207.616 7.04135C196.439 7.04135 186.623 9.26243 178.168 13.7046C169.714 18.29 163.122 24.5234 158.394 32.4046C153.665 40.4292 151.301 49.6001 151.301 59.9173C151.301 63.5801 151.59 67.0848 152.17 70.4314L168.338 70.4314C167.44 67.1608 166.991 63.6561 166.991 59.9173C166.991 52.7526 168.639 46.3759 171.935 40.7874C175.374 35.3422 180.103 31.0433 186.121 27.8908C192.283 24.7383 199.448 23.1621 207.616 23.1621C215.927 23.1621 223.091 24.7383 229.11 27.8908C235.128 31.0433 239.785 35.3422 243.081 40.7874C246.52 46.3759 248.24 52.7526 248.24 59.9173C248.24 63.6561 247.772 67.1608 246.835 70.4314L263.061 70.4314Z" fill="#952AFF"/>
<path fill-rule="evenodd" clip-rule="evenodd" d="M98.4662 65.7083C97.77 69.0327 97.358 72.5252 97.2303 76.1859C96.8703 86.4969 98.9134 95.7447 103.359 103.929C107.81 111.971 114.18 118.43 122.47 123.308C130.764 128.042 140.496 130.604 151.667 130.994C162.837 131.384 172.724 129.507 181.328 125.362C189.937 121.074 196.742 115.075 201.743 107.363C206.749 99.5087 209.432 90.4258 209.792 80.1149C209.92 76.4542 209.752 72.9414 209.289 69.5766L193.132 69.0126C193.915 72.3126 194.241 75.8309 194.111 79.5675C193.861 86.7279 191.991 93.0432 188.503 98.5133C184.876 103.835 180 107.967 173.875 110.907C167.607 113.843 160.392 115.168 152.229 114.883C143.923 114.593 136.817 112.768 130.913 109.408C125.008 106.047 120.504 101.588 117.4 96.0315C114.158 90.3264 112.662 83.8937 112.912 76.7333C113.042 72.9966 113.632 69.5103 114.682 66.2744L98.4662 65.7083Z" fill="#952AFF"/>
<path d="M315.282 126.468C308.58 126.468 302.563 125.196 297.23 122.652C291.947 120.059 287.715 116.512 284.536 112.012C281.356 107.462 279.668 102.301 279.472 96.5285H295.469C295.861 101.176 297.94 105.016 301.707 108.049C305.473 111.082 309.998 112.599 315.282 112.599C319.489 112.599 323.207 111.62 326.436 109.664C329.664 107.707 332.208 105.041 334.067 101.665C335.926 98.2407 336.856 94.3271 336.856 89.9243C336.856 85.5215 335.902 81.5834 333.994 78.1101C332.086 74.5879 329.444 71.8239 326.069 69.8181C322.742 67.8124 318.902 66.8096 314.548 66.8096C311.221 66.8096 307.895 67.3966 304.568 68.5707C301.242 69.6958 298.551 71.1635 296.497 72.9735L281.307 70.7721L287.471 15.6636H347.569V29.826H301.266L297.817 60.4255H298.404C300.508 58.3219 303.321 56.6097 306.843 55.2889C310.414 53.9191 314.255 53.2342 318.364 53.2342C325.017 53.2342 330.936 54.8241 336.122 58.004C341.356 61.1348 345.466 65.4398 348.45 70.9189C351.434 76.349 352.926 82.5863 352.926 89.6308C352.926 96.7242 351.311 103.059 348.083 108.636C344.854 114.164 340.402 118.518 334.728 121.698C329.102 124.878 322.62 126.468 315.282 126.468Z" fill="#952AFF"/>
</svg>
