<svg width="425" height="277" viewBox="0 0 425 277" fill="none" xmlns="http://www.w3.org/2000/svg">
<g clip-path="url(#clip0_566_1439)">
<rect y="0.314697" width="425" height="276" rx="15" fill="white"/>
<path opacity="0.9" d="M243.965 50.1411C243.965 38.639 253.289 29.3147 264.791 29.3147H380.149C387.501 29.3147 391.176 29.3147 394.153 30.2755C400.231 32.2376 404.995 37.0018 406.957 43.0797C407.918 46.0561 407.918 49.7318 407.918 57.0833C407.918 60.759 407.918 62.5969 407.437 64.0851C406.456 67.124 404.074 69.5061 401.035 70.4872C399.547 70.9676 397.709 70.9676 394.033 70.9676H264.791C253.289 70.9676 243.965 61.6433 243.965 50.1411Z" fill="#CFBEFF"/>
<path d="M272.646 41.2785V55.824H270.885V42.841H263.555V55.824H261.794V41.2785H272.646ZM275.972 59.9149V44.9149H277.591V46.6478H277.79C277.913 46.4584 278.083 46.217 278.301 45.9234C278.524 45.6251 278.841 45.36 279.253 45.128C279.67 44.8912 280.233 44.7728 280.943 44.7728C281.862 44.7728 282.671 45.0025 283.372 45.4618C284.073 45.921 284.62 46.5721 285.013 47.4149C285.406 48.2577 285.602 49.252 285.602 50.3978C285.602 51.5531 285.406 52.5546 285.013 53.4021C284.62 54.2449 284.075 54.8983 283.379 55.3623C282.683 55.8216 281.881 56.0512 280.972 56.0512C280.271 56.0512 279.71 55.9352 279.288 55.7032C278.867 55.4665 278.543 55.199 278.315 54.9007C278.088 54.5976 277.913 54.3467 277.79 54.1478H277.648V59.9149H275.972ZM277.619 50.3694C277.619 51.1933 277.74 51.9201 277.982 52.5498C278.223 53.1748 278.576 53.6649 279.04 54.02C279.504 54.3704 280.072 54.5456 280.744 54.5456C281.445 54.5456 282.03 54.3609 282.499 53.9916C282.972 53.6175 283.327 53.1156 283.564 52.4859C283.805 51.8514 283.926 51.1459 283.926 50.3694C283.926 49.6024 283.808 48.9111 283.571 48.2956C283.339 47.6753 282.986 47.1852 282.513 46.8254C282.044 46.4608 281.455 46.2785 280.744 46.2785C280.063 46.2785 279.49 46.4513 279.026 46.797C278.562 47.1379 278.211 47.6161 277.974 48.2316C277.738 48.8424 277.619 49.555 277.619 50.3694ZM289.835 53.3524L295.091 44.9149H297.023V55.824H295.347V47.3865L290.119 55.824H288.159V44.9149H289.835V53.3524ZM300.093 55.824V44.9149H304.553C305.727 44.9149 306.66 45.18 307.351 45.7103C308.042 46.2406 308.388 46.9414 308.388 47.8126C308.388 48.4755 308.192 48.9892 307.799 49.3538C307.406 49.7137 306.901 49.9575 306.286 50.0853C306.688 50.1422 307.079 50.2842 307.458 50.5115C307.841 50.7387 308.158 51.0512 308.409 51.449C308.66 51.842 308.786 52.3249 308.786 52.8978C308.786 53.4566 308.644 53.9561 308.36 54.3964C308.076 54.8368 307.668 55.1848 307.138 55.4405C306.608 55.6961 305.973 55.824 305.235 55.824H300.093ZM301.684 54.2899H305.235C305.812 54.2899 306.265 54.1526 306.591 53.878C306.918 53.6033 307.081 53.2293 307.081 52.7558C307.081 52.1923 306.918 51.7496 306.591 51.4277C306.265 51.101 305.812 50.9376 305.235 50.9376H301.684V54.2899ZM301.684 49.4887H304.553C305.003 49.4887 305.389 49.4272 305.711 49.3041C306.033 49.1762 306.279 48.9963 306.449 48.7643C306.624 48.5276 306.712 48.2482 306.712 47.9262C306.712 47.467 306.52 47.1071 306.137 46.8467C305.753 46.5816 305.225 46.449 304.553 46.449H301.684V49.4887ZM315.897 56.0512C314.846 56.0512 313.939 55.8192 313.177 55.3552C312.419 54.8865 311.835 54.2331 311.423 53.395C311.015 52.5522 310.812 51.5721 310.812 50.4547C310.812 49.3372 311.015 48.3524 311.423 47.5001C311.835 46.6431 312.407 45.9755 313.141 45.4973C313.88 45.0143 314.742 44.7728 315.727 44.7728C316.295 44.7728 316.856 44.8675 317.41 45.0569C317.964 45.2463 318.468 45.5541 318.923 45.9802C319.377 46.4016 319.739 46.9603 320.009 47.6564C320.279 48.3524 320.414 49.2094 320.414 50.2274V50.9376H312.005V49.4887H318.71C318.71 48.8732 318.586 48.324 318.34 47.841C318.099 47.3581 317.753 46.9769 317.303 46.6976C316.858 46.4182 316.333 46.2785 315.727 46.2785C315.059 46.2785 314.481 46.4442 313.994 46.7757C313.511 47.1024 313.139 47.5285 312.879 48.0541C312.618 48.5797 312.488 49.1431 312.488 49.7444V50.7103C312.488 51.5342 312.63 52.2326 312.914 52.8055C313.203 53.3737 313.603 53.8069 314.114 54.1052C314.626 54.3988 315.22 54.5456 315.897 54.5456C316.337 54.5456 316.735 54.484 317.09 54.3609C317.45 54.2331 317.76 54.0437 318.021 53.7927C318.281 53.537 318.482 53.2198 318.624 52.841L320.244 53.2956C320.073 53.8448 319.787 54.3278 319.384 54.7444C318.982 55.1564 318.485 55.4783 317.893 55.7103C317.301 55.9376 316.636 56.0512 315.897 56.0512ZM321.948 46.4774V44.9149H330.812V46.4774H327.232V55.824H325.556V46.4774H321.948Z" fill="black"/>
<path d="M347.285 61.2516C346.59 61.2516 345.997 61.0623 345.508 60.6837C345.018 60.3021 344.645 59.7497 344.386 59.0264C344.127 58.3001 343.998 57.423 343.998 56.395C343.998 55.3733 344.127 54.5007 344.386 53.7775C344.648 53.0512 345.023 52.4972 345.512 52.1156C346.005 51.7309 346.596 51.5385 347.285 51.5385C347.975 51.5385 348.564 51.7309 349.053 52.1156C349.546 52.4972 349.921 53.0512 350.18 53.7775C350.441 54.5007 350.572 55.3733 350.572 56.395C350.572 57.423 350.443 58.3001 350.184 59.0264C349.926 59.7497 349.552 60.3021 349.062 60.6837C348.573 61.0623 347.981 61.2516 347.285 61.2516ZM347.285 60.236C347.975 60.236 348.51 59.9036 348.892 59.2388C349.273 58.574 349.464 57.6261 349.464 56.395C349.464 55.5764 349.376 54.8793 349.201 54.3038C349.029 53.7283 348.779 53.2897 348.453 52.9881C348.13 52.6865 347.741 52.5357 347.285 52.5357C346.602 52.5357 346.068 52.8727 345.683 53.5467C345.299 54.2176 345.106 55.1671 345.106 56.395C345.106 57.2137 345.192 57.9092 345.365 58.4817C345.537 59.0541 345.785 59.4896 346.108 59.7882C346.434 60.0867 346.827 60.236 347.285 60.236ZM352.108 61.1223L356.337 52.7573V52.6834H351.462V51.6678H357.518V52.7388L353.308 61.1223H352.108ZM359.347 59.9128C359.12 59.9128 358.924 59.8312 358.761 59.6681C358.598 59.505 358.516 59.3096 358.516 59.0818C358.516 58.8541 358.598 58.6587 358.761 58.4955C358.924 58.3324 359.12 58.2509 359.347 58.2509C359.575 58.2509 359.771 58.3324 359.934 58.4955C360.097 58.6587 360.178 58.8541 360.178 59.0818C360.178 59.2326 360.14 59.3711 360.063 59.4973C359.989 59.6235 359.889 59.7251 359.763 59.802C359.64 59.8759 359.501 59.9128 359.347 59.9128ZM359.347 55.1301C359.12 55.1301 358.924 55.0486 358.761 54.8855C358.598 54.7223 358.516 54.5269 358.516 54.2992C358.516 54.0714 358.598 53.876 358.761 53.7129C358.924 53.5498 359.12 53.4682 359.347 53.4682C359.575 53.4682 359.771 53.5498 359.934 53.7129C360.097 53.876 360.178 54.0714 360.178 54.2992C360.178 54.45 360.14 54.5885 360.063 54.7146C359.989 54.8408 359.889 54.9424 359.763 55.0193C359.64 55.0932 359.501 55.1301 359.347 55.1301ZM364.939 61.2516C364.243 61.2516 363.651 61.0623 363.161 60.6837C362.672 60.3021 362.298 59.7497 362.04 59.0264C361.781 58.3001 361.652 57.423 361.652 56.395C361.652 55.3733 361.781 54.5007 362.04 53.7775C362.301 53.0512 362.677 52.4972 363.166 52.1156C363.658 51.7309 364.249 51.5385 364.939 51.5385C365.628 51.5385 366.218 51.7309 366.707 52.1156C367.199 52.4972 367.575 53.0512 367.833 53.7775C368.095 54.5007 368.226 55.3733 368.226 56.395C368.226 57.423 368.096 58.3001 367.838 59.0264C367.579 59.7497 367.205 60.3021 366.716 60.6837C366.227 61.0623 365.634 61.2516 364.939 61.2516ZM364.939 60.236C365.628 60.236 366.164 59.9036 366.545 59.2388C366.927 58.574 367.118 57.6261 367.118 56.395C367.118 55.5764 367.03 54.8793 366.855 54.3038C366.682 53.7283 366.433 53.2897 366.107 52.9881C365.784 52.6865 365.394 52.5357 364.939 52.5357C364.256 52.5357 363.722 52.8727 363.337 53.5467C362.952 54.2176 362.76 55.1671 362.76 56.395C362.76 57.2137 362.846 57.9092 363.018 58.4817C363.191 59.0541 363.438 59.4896 363.762 59.7882C364.088 60.0867 364.48 60.236 364.939 60.236ZM372.73 51.5385C373.118 51.5416 373.505 51.6154 373.893 51.7601C374.281 51.9047 374.635 52.1448 374.955 52.4803C375.275 52.8127 375.532 53.2666 375.726 53.8421C375.92 54.4177 376.017 55.1394 376.017 56.0073C376.017 56.8475 375.937 57.5938 375.777 58.2462C375.62 58.8956 375.392 59.4435 375.094 59.8897C374.798 60.336 374.438 60.6745 374.013 60.9053C373.592 61.1362 373.115 61.2516 372.582 61.2516C372.053 61.2516 371.58 61.1469 371.165 60.9377C370.752 60.7253 370.414 60.4314 370.149 60.0559C369.888 59.6774 369.72 59.2388 369.646 58.7402H370.772C370.874 59.1742 371.076 59.5327 371.377 59.8159C371.682 60.0959 372.084 60.236 372.582 60.236C373.312 60.236 373.887 59.9174 374.309 59.2803C374.733 58.6433 374.946 57.7431 374.946 56.5797H374.872C374.7 56.8382 374.495 57.0614 374.258 57.2491C374.021 57.4368 373.758 57.5815 373.469 57.683C373.179 57.7846 372.871 57.8354 372.545 57.8354C372.004 57.8354 371.507 57.7015 371.054 57.4337C370.605 57.1629 370.245 56.7921 369.974 56.3212C369.706 55.8472 369.572 55.3056 369.572 54.6962C369.572 54.1176 369.701 53.5882 369.96 53.1081C370.222 52.6249 370.588 52.2402 371.059 51.954C371.533 51.6678 372.09 51.5293 372.73 51.5385ZM372.73 52.5541C372.342 52.5541 371.993 52.6511 371.682 52.845C371.374 53.0358 371.13 53.2943 370.948 53.6205C370.769 53.9437 370.68 54.3022 370.68 54.6962C370.68 55.0901 370.766 55.4487 370.939 55.7718C371.114 56.0919 371.353 56.3473 371.654 56.5382C371.959 56.7259 372.305 56.8198 372.693 56.8198C372.985 56.8198 373.258 56.7628 373.51 56.6489C373.762 56.532 373.982 56.3735 374.17 56.1735C374.361 55.9703 374.51 55.741 374.618 55.4856C374.726 55.2271 374.78 54.9578 374.78 54.6777C374.78 54.3084 374.69 53.9622 374.512 53.639C374.336 53.3159 374.093 53.0543 373.782 52.8542C373.475 52.6542 373.124 52.5541 372.73 52.5541Z" fill="#4200FF"/>
<path fill-rule="evenodd" clip-rule="evenodd" d="M395.046 51.4669C395.265 51.6786 395.271 52.028 395.059 52.2473L386.469 61.144C386.363 61.2544 386.215 61.3155 386.062 61.3125C385.908 61.3095 385.763 61.2427 385.661 61.1282L381.826 56.8332C381.623 56.6059 381.643 56.257 381.87 56.0539C382.097 55.8509 382.446 55.8707 382.649 56.0981L386.088 59.9497L394.265 51.4806C394.477 51.2613 394.826 51.2552 395.046 51.4669Z" fill="#4200FF"/>
<path opacity="0.8" fill-rule="evenodd" clip-rule="evenodd" d="M158.013 93.4084C158 93.766 158 94.189 158 95.035C158 95.881 158 96.304 158.013 96.6616C158.388 107.073 166.742 115.427 177.154 115.802C177.511 115.815 177.934 115.815 178.78 115.815H377.178C383.902 115.815 387.263 115.815 390.016 115.051C391.971 114.509 393.808 113.695 395.486 112.651C396.545 113.292 397.804 113.948 399.135 114.422C403.586 116.007 415.054 115.916 415.054 115.916C415.054 115.916 408.795 114.422 406.47 107.614C405.864 105.84 405.526 99.2472 405.345 93.657C405.38 91.9879 405.38 90.0152 405.38 87.6136C405.38 84.4288 405.38 82.8364 405.018 81.5328C404.086 78.1736 401.461 75.5489 398.102 74.6167C396.799 74.2549 395.206 74.2549 392.021 74.2549H178.78C177.934 74.2549 177.511 74.2549 177.154 74.2678C166.742 74.6429 158.388 82.9967 158.013 93.4084Z" fill="#CFBEFF"/>
<path d="M186.546 85.7158V100.261H184.785V87.2783H177.455V100.261H175.694V85.7158H186.546ZM189.872 104.352V89.3521H191.491V91.0851H191.69C191.813 90.8957 191.984 90.6542 192.202 90.3607C192.424 90.0624 192.741 89.7972 193.153 89.5652C193.57 89.3285 194.133 89.2101 194.844 89.2101C195.762 89.2101 196.572 89.4397 197.273 89.899C197.973 90.3583 198.52 91.0093 198.913 91.8521C199.306 92.6949 199.503 93.6893 199.503 94.8351C199.503 95.9904 199.306 96.9918 198.913 97.8394C198.52 98.6822 197.976 99.3356 197.28 99.7996C196.584 100.259 195.781 100.489 194.872 100.489C194.171 100.489 193.61 100.372 193.189 100.14C192.767 99.9037 192.443 99.6362 192.216 99.3379C191.988 99.0349 191.813 98.784 191.69 98.5851H191.548V104.352H189.872ZM191.52 94.8067C191.52 95.6305 191.64 96.3573 191.882 96.9871C192.123 97.6121 192.476 98.1021 192.94 98.4573C193.404 98.8076 193.972 98.9828 194.645 98.9828C195.345 98.9828 195.93 98.7982 196.399 98.4288C196.872 98.0548 197.228 97.5529 197.464 96.9232C197.706 96.2887 197.827 95.5832 197.827 94.8067C197.827 94.0396 197.708 93.3484 197.471 92.7328C197.239 92.1126 196.887 91.6225 196.413 91.2627C195.944 90.8981 195.355 90.7158 194.645 90.7158C193.963 90.7158 193.39 90.8886 192.926 91.2342C192.462 91.5752 192.112 92.0534 191.875 92.6689C191.638 93.2797 191.52 93.9923 191.52 94.8067ZM205.27 100.517C204.578 100.517 203.951 100.387 203.388 100.126C202.824 99.8611 202.377 99.48 202.045 98.9828C201.714 98.4809 201.548 97.8749 201.548 97.1646C201.548 96.5396 201.671 96.033 201.917 95.6448C202.164 95.2518 202.493 94.944 202.905 94.7215C203.317 94.4989 203.771 94.3332 204.268 94.2243C204.77 94.1107 205.274 94.0207 205.781 93.9544C206.444 93.8692 206.981 93.8053 207.393 93.7627C207.81 93.7153 208.113 93.6372 208.302 93.5283C208.497 93.4194 208.594 93.23 208.594 92.9601V92.9033C208.594 92.2025 208.402 91.658 208.018 91.2698C207.64 90.8815 207.064 90.6874 206.292 90.6874C205.492 90.6874 204.865 90.8626 204.41 91.2129C203.956 91.5633 203.636 91.9374 203.452 92.3351L201.861 91.7669C202.145 91.104 202.523 90.5879 202.997 90.2186C203.475 89.8446 203.996 89.5841 204.559 89.4374C205.128 89.2859 205.686 89.2101 206.236 89.2101C206.586 89.2101 206.988 89.2527 207.443 89.3379C207.902 89.4184 208.345 89.5865 208.771 89.8422C209.202 90.0979 209.559 90.4838 209.844 90.9999C210.128 91.516 210.27 92.2073 210.27 93.0737V100.261H208.594V98.784H208.508C208.395 99.0207 208.205 99.274 207.94 99.5439C207.675 99.8138 207.322 100.043 206.882 100.233C206.442 100.422 205.904 100.517 205.27 100.517ZM205.525 99.0112C206.188 99.0112 206.747 98.881 207.202 98.6206C207.661 98.3602 208.006 98.024 208.238 97.6121C208.475 97.2002 208.594 96.7669 208.594 96.3124V94.7783C208.523 94.8635 208.366 94.9416 208.125 95.0127C207.888 95.0789 207.613 95.1381 207.301 95.1902C206.993 95.2376 206.693 95.2802 206.399 95.318C206.11 95.3512 205.876 95.3796 205.696 95.4033C205.26 95.4601 204.853 95.5524 204.474 95.6803C204.1 95.8034 203.797 95.9904 203.565 96.2413C203.338 96.4876 203.224 96.8237 203.224 97.2499C203.224 97.8323 203.44 98.2726 203.871 98.5709C204.306 98.8645 204.858 99.0112 205.525 99.0112ZM213.329 100.261V89.3521H217.789C218.963 89.3521 219.896 89.6173 220.588 90.1476C221.279 90.6779 221.624 91.3787 221.624 92.2499C221.624 92.9127 221.428 93.4265 221.035 93.7911C220.642 94.1509 220.138 94.3948 219.522 94.5226C219.925 94.5794 220.315 94.7215 220.694 94.9487C221.078 95.176 221.395 95.4885 221.646 95.8862C221.897 96.2792 222.022 96.7622 222.022 97.3351C222.022 97.8938 221.88 98.3933 221.596 98.8337C221.312 99.274 220.905 99.622 220.374 99.8777C219.844 100.133 219.21 100.261 218.471 100.261H213.329ZM214.92 98.7271H218.471C219.049 98.7271 219.501 98.5898 219.828 98.3152C220.154 98.0406 220.318 97.6665 220.318 97.193C220.318 96.6296 220.154 96.1869 219.828 95.8649C219.501 95.5382 219.049 95.3749 218.471 95.3749H214.92V98.7271ZM214.92 93.926H217.789C218.239 93.926 218.625 93.8644 218.947 93.7413C219.269 93.6135 219.515 93.4336 219.686 93.2016C219.861 92.9648 219.948 92.6855 219.948 92.3635C219.948 91.9042 219.757 91.5444 219.373 91.284C218.99 91.0188 218.462 90.8862 217.789 90.8862H214.92V93.926ZM224.559 100.261V89.3521H226.236V94.0965H227.344L231.264 89.3521H233.423L229.02 94.6078L233.48 100.261H231.321L227.741 95.659H226.236V100.261H224.559ZM236.978 97.7896L242.233 89.3521H244.165V100.261H242.489V91.8237L237.262 100.261H235.302V89.3521H236.978V97.7896ZM257.292 100.489C256.307 100.489 255.443 100.254 254.7 99.7854C253.961 99.3166 253.383 98.6609 252.967 97.818C252.555 96.9752 252.349 95.9904 252.349 94.8635C252.349 93.7271 252.555 92.7352 252.967 91.8877C253.383 91.0401 253.961 90.382 254.7 89.9132C255.443 89.4445 256.307 89.2101 257.292 89.2101C258.277 89.2101 259.139 89.4445 259.877 89.9132C260.621 90.382 261.198 91.0401 261.61 91.8877C262.027 92.7352 262.235 93.7271 262.235 94.8635C262.235 95.9904 262.027 96.9752 261.61 97.818C261.198 98.6609 260.621 99.3166 259.877 99.7854C259.139 100.254 258.277 100.489 257.292 100.489ZM257.292 98.9828C258.04 98.9828 258.656 98.7911 259.139 98.4075C259.622 98.024 259.979 97.5198 260.211 96.8948C260.443 96.2698 260.559 95.5927 260.559 94.8635C260.559 94.1343 260.443 93.4549 260.211 92.8252C259.979 92.1954 259.622 91.6864 259.139 91.2982C258.656 90.9099 258.04 90.7158 257.292 90.7158C256.544 90.7158 255.928 90.9099 255.445 91.2982C254.963 91.6864 254.605 92.1954 254.373 92.8252C254.141 93.4549 254.025 94.1343 254.025 94.8635C254.025 95.5927 254.141 96.2698 254.373 96.8948C254.605 97.5198 254.963 98.024 255.445 98.4075C255.928 98.7911 256.544 98.9828 257.292 98.9828ZM263.368 90.9146V89.3521H272.232V90.9146H268.652V100.261H266.976V90.9146H263.368ZM279.336 100.261V98.6987H279.733C280.06 98.6987 280.332 98.6348 280.55 98.507C280.768 98.3744 280.943 98.1448 281.076 97.818C281.213 97.4866 281.317 97.0273 281.388 96.4402C281.464 95.8484 281.519 95.0955 281.552 94.1817L281.751 89.3521H289.023V100.261H287.347V90.9146H283.341L283.171 94.8067C283.133 95.7016 283.053 96.4899 282.93 97.1717C282.811 97.8488 282.629 98.417 282.383 98.8763C282.141 99.3356 281.819 99.6812 281.417 99.9132C281.014 100.145 280.51 100.261 279.904 100.261H279.336ZM293.775 97.7896L299.03 89.3521H300.962V100.261H299.286V91.8237L294.059 100.261H292.099V89.3521H293.775V97.7896ZM302.867 103.386V98.6987H303.776C303.999 98.4667 304.191 98.2158 304.352 97.9459C304.513 97.676 304.652 97.3564 304.771 96.9871C304.894 96.613 304.998 96.1585 305.083 95.6234C305.169 95.0837 305.244 94.4326 305.311 93.6703L305.68 89.3521H312.612V98.6987H314.288V103.386H312.612V100.261H304.544V103.386H302.867ZM305.68 98.6987H310.936V90.9146H307.242L306.958 93.6703C306.84 94.8114 306.693 95.8081 306.518 96.6604C306.343 97.5127 306.063 98.1921 305.68 98.6987ZM319.723 100.517C319.032 100.517 318.404 100.387 317.841 100.126C317.277 99.8611 316.83 99.48 316.498 98.9828C316.167 98.4809 316.001 97.8749 316.001 97.1646C316.001 96.5396 316.124 96.033 316.371 95.6448C316.617 95.2518 316.946 94.944 317.358 94.7215C317.77 94.4989 318.224 94.3332 318.721 94.2243C319.223 94.1107 319.728 94.0207 320.234 93.9544C320.897 93.8692 321.434 93.8053 321.846 93.7627C322.263 93.7153 322.566 93.6372 322.756 93.5283C322.95 93.4194 323.047 93.23 323.047 92.9601V92.9033C323.047 92.2025 322.855 91.658 322.471 91.2698C322.093 90.8815 321.517 90.6874 320.746 90.6874C319.945 90.6874 319.318 90.8626 318.863 91.2129C318.409 91.5633 318.089 91.9374 317.905 92.3351L316.314 91.7669C316.598 91.104 316.977 90.5879 317.45 90.2186C317.928 89.8446 318.449 89.5841 319.013 89.4374C319.581 89.2859 320.14 89.2101 320.689 89.2101C321.039 89.2101 321.442 89.2527 321.896 89.3379C322.355 89.4184 322.798 89.5865 323.224 89.8422C323.655 90.0979 324.013 90.4838 324.297 90.9999C324.581 91.516 324.723 92.2073 324.723 93.0737V100.261H323.047V98.784H322.961C322.848 99.0207 322.658 99.274 322.393 99.5439C322.128 99.8138 321.775 100.043 321.335 100.233C320.895 100.422 320.357 100.517 319.723 100.517ZM319.979 99.0112C320.641 99.0112 321.2 98.881 321.655 98.6206C322.114 98.3602 322.46 98.024 322.692 97.6121C322.928 97.2002 323.047 96.7669 323.047 96.3124V94.7783C322.976 94.8635 322.819 94.9416 322.578 95.0127C322.341 95.0789 322.067 95.1381 321.754 95.1902C321.446 95.2376 321.146 95.2802 320.852 95.318C320.563 95.3512 320.329 95.3796 320.149 95.4033C319.713 95.4601 319.306 95.5524 318.927 95.6803C318.553 95.8034 318.25 95.9904 318.018 96.2413C317.791 96.4876 317.677 96.8237 317.677 97.2499C317.677 97.8323 317.893 98.2726 318.324 98.5709C318.759 98.8645 319.311 99.0112 319.979 99.0112ZM329.004 100.375C328.653 100.375 328.353 100.249 328.102 99.9984C327.851 99.7475 327.725 99.4468 327.725 99.0965C327.725 98.7461 327.851 98.4454 328.102 98.1945C328.353 97.9435 328.653 97.818 329.004 97.818C329.354 97.818 329.655 97.9435 329.906 98.1945C330.157 98.4454 330.282 98.7461 330.282 99.0965C330.282 99.3285 330.223 99.5415 330.105 99.7357C329.991 99.9298 329.837 100.086 329.643 100.204C329.454 100.318 329.24 100.375 329.004 100.375ZM329.004 92.2783C328.653 92.2783 328.353 92.1528 328.102 91.9019C327.851 91.6509 327.725 91.3502 327.725 90.9999C327.725 90.6495 327.851 90.3488 328.102 90.0979C328.353 89.8469 328.653 89.7215 329.004 89.7215C329.354 89.7215 329.655 89.8469 329.906 90.0979C330.157 90.3488 330.282 90.6495 330.282 90.9999C330.282 91.2319 330.223 91.4449 330.105 91.6391C329.991 91.8332 329.837 91.9894 329.643 92.1078C329.454 92.2215 329.24 92.2783 329.004 92.2783Z" fill="black"/>
<path d="M347.285 105.429C346.59 105.429 345.997 105.24 345.508 104.861C345.018 104.479 344.645 103.927 344.386 103.204C344.127 102.477 343.998 101.6 343.998 100.572C343.998 99.5505 344.127 98.678 344.386 97.9547C344.648 97.2284 345.023 96.6744 345.512 96.2928C346.005 95.9081 346.596 95.7158 347.285 95.7158C347.975 95.7158 348.564 95.9081 349.053 96.2928C349.546 96.6744 349.921 97.2284 350.18 97.9547C350.441 98.678 350.572 99.5505 350.572 100.572C350.572 101.6 350.443 102.477 350.184 103.204C349.926 103.927 349.552 104.479 349.062 104.861C348.573 105.24 347.981 105.429 347.285 105.429ZM347.285 104.413C347.975 104.413 348.51 104.081 348.892 103.416C349.273 102.751 349.464 101.803 349.464 100.572C349.464 99.7536 349.376 99.0565 349.201 98.481C349.029 97.9055 348.779 97.4669 348.453 97.1653C348.13 96.8637 347.741 96.7129 347.285 96.7129C346.602 96.7129 346.068 97.0499 345.683 97.7239C345.299 98.3948 345.106 99.3443 345.106 100.572C345.106 101.391 345.192 102.086 345.365 102.659C345.537 103.231 345.785 103.667 346.108 103.965C346.434 104.264 346.827 104.413 347.285 104.413ZM352.108 105.3L356.337 96.9345V96.8606H351.462V95.845H357.518V96.916L353.308 105.3H352.108ZM359.347 104.09C359.12 104.09 358.924 104.008 358.761 103.845C358.598 103.682 358.516 103.487 358.516 103.259C358.516 103.031 358.598 102.836 358.761 102.673C358.924 102.51 359.12 102.428 359.347 102.428C359.575 102.428 359.771 102.51 359.934 102.673C360.097 102.836 360.178 103.031 360.178 103.259C360.178 103.41 360.14 103.548 360.063 103.675C359.989 103.801 359.889 103.902 359.763 103.979C359.64 104.053 359.501 104.09 359.347 104.09ZM359.347 99.3074C359.12 99.3074 358.924 99.2258 358.761 99.0627C358.598 98.8996 358.516 98.7042 358.516 98.4764C358.516 98.2487 358.598 98.0532 358.761 97.8901C358.924 97.727 359.12 97.6454 359.347 97.6454C359.575 97.6454 359.771 97.727 359.934 97.8901C360.097 98.0532 360.178 98.2487 360.178 98.4764C360.178 98.6272 360.14 98.7657 360.063 98.8919C359.989 99.0181 359.889 99.1196 359.763 99.1966C359.64 99.2704 359.501 99.3074 359.347 99.3074ZM364.939 105.429C364.243 105.429 363.651 105.24 363.161 104.861C362.672 104.479 362.298 103.927 362.04 103.204C361.781 102.477 361.652 101.6 361.652 100.572C361.652 99.5505 361.781 98.678 362.04 97.9547C362.301 97.2284 362.677 96.6744 363.166 96.2928C363.658 95.9081 364.249 95.7158 364.939 95.7158C365.628 95.7158 366.218 95.9081 366.707 96.2928C367.199 96.6744 367.575 97.2284 367.833 97.9547C368.095 98.678 368.226 99.5505 368.226 100.572C368.226 101.6 368.096 102.477 367.838 103.204C367.579 103.927 367.205 104.479 366.716 104.861C366.227 105.24 365.634 105.429 364.939 105.429ZM364.939 104.413C365.628 104.413 366.164 104.081 366.545 103.416C366.927 102.751 367.118 101.803 367.118 100.572C367.118 99.7536 367.03 99.0565 366.855 98.481C366.682 97.9055 366.433 97.4669 366.107 97.1653C365.784 96.8637 365.394 96.7129 364.939 96.7129C364.256 96.7129 363.722 97.0499 363.337 97.7239C362.952 98.3948 362.76 99.3443 362.76 100.572C362.76 101.391 362.846 102.086 363.018 102.659C363.191 103.231 363.438 103.667 363.762 103.965C364.088 104.264 364.48 104.413 364.939 104.413ZM372.73 95.7158C373.118 95.7188 373.505 95.7927 373.893 95.9373C374.281 96.082 374.635 96.3221 374.955 96.6575C375.275 96.9899 375.532 97.4439 375.726 98.0194C375.92 98.5949 376.017 99.3166 376.017 100.185C376.017 101.025 375.937 101.771 375.777 102.423C375.62 103.073 375.392 103.621 375.094 104.067C374.798 104.513 374.438 104.852 374.013 105.083C373.592 105.313 373.115 105.429 372.582 105.429C372.053 105.429 371.58 105.324 371.165 105.115C370.752 104.903 370.414 104.609 370.149 104.233C369.888 103.855 369.72 103.416 369.646 102.917H370.772C370.874 103.351 371.076 103.71 371.377 103.993C371.682 104.273 372.084 104.413 372.582 104.413C373.312 104.413 373.887 104.095 374.309 103.458C374.733 102.821 374.946 101.92 374.946 100.757H374.872C374.7 101.015 374.495 101.239 374.258 101.426C374.021 101.614 373.758 101.759 373.469 101.86C373.179 101.962 372.871 102.013 372.545 102.013C372.004 102.013 371.507 101.879 371.054 101.611C370.605 101.34 370.245 100.969 369.974 100.498C369.706 100.024 369.572 99.4828 369.572 98.8734C369.572 98.2948 369.701 97.7655 369.96 97.2854C370.222 96.8022 370.588 96.4175 371.059 96.1312C371.533 95.845 372.09 95.7065 372.73 95.7158ZM372.73 96.7314C372.342 96.7314 371.993 96.8283 371.682 97.0222C371.374 97.213 371.13 97.4716 370.948 97.7978C370.769 98.1209 370.68 98.4795 370.68 98.8734C370.68 99.2674 370.766 99.6259 370.939 99.9491C371.114 100.269 371.353 100.525 371.654 100.715C371.959 100.903 372.305 100.997 372.693 100.997C372.985 100.997 373.258 100.94 373.51 100.826C373.762 100.709 373.982 100.551 374.17 100.351C374.361 100.148 374.51 99.9183 374.618 99.6628C374.726 99.4043 374.78 99.135 374.78 98.855C374.78 98.4856 374.69 98.1394 374.512 97.8163C374.336 97.4931 374.093 97.2315 373.782 97.0314C373.475 96.8314 373.124 96.7314 372.73 96.7314Z" fill="#4200FF"/>
<path fill-rule="evenodd" clip-rule="evenodd" d="M394.306 96.2569C394.526 96.4686 394.532 96.818 394.32 97.0373L385.73 105.934C385.624 106.044 385.476 106.105 385.322 106.102C385.169 106.1 385.024 106.033 384.921 105.918L381.087 101.623C380.884 101.396 380.903 101.047 381.131 100.844C381.358 100.641 381.707 100.661 381.91 100.888L385.349 104.74L393.526 96.2706C393.738 96.0513 394.087 96.0452 394.306 96.2569Z" fill="#4200FF"/>
</g>
<defs>
<clipPath id="clip0_566_1439">
<rect width="425" height="276" fill="white" transform="translate(0 0.314697)"/>
</clipPath>
</defs>
</svg>
