<svg width="582" height="186" viewBox="0 0 582 186" fill="none" xmlns="http://www.w3.org/2000/svg">
<path opacity="0.9" d="M193 21.5C193 9.62588 202.626 0 214.5 0H541.333C548.835 0 552.586 0 555.628 0.965207C562.01 2.99048 567.01 7.99042 569.035 14.3724C570 17.4139 570 21.1648 570 28.6667C570 32.4176 570 34.2931 569.517 35.8138C568.505 39.0048 566.005 41.5048 562.814 42.5174C561.293 43 559.418 43 555.667 43H214.5C202.626 43 193 33.3741 193 21.5Z" fill="#D4C5FF"/>
<path d="M217.826 29.0737L212.632 22.1384H210.773V29.0737H208.943V13.9636H210.773V20.5153H211.569L217.619 13.9636H219.803L213.694 20.6038L220.01 29.0737H217.826ZM225.473 29.3393C224.755 29.3393 224.103 29.2041 223.518 28.9335C222.933 28.6581 222.468 28.2622 222.124 27.7457C221.779 27.2243 221.607 26.5947 221.607 25.8569C221.607 25.2077 221.735 24.6814 221.991 24.278C222.247 23.8698 222.588 23.5501 223.016 23.3189C223.444 23.0877 223.917 22.9156 224.433 22.8024C224.954 22.6844 225.478 22.5909 226.004 22.5221C226.693 22.4335 227.251 22.3671 227.679 22.3229C228.112 22.2737 228.427 22.1925 228.624 22.0794C228.825 21.9663 228.926 21.7695 228.926 21.4891V21.4301C228.926 20.7022 228.727 20.1365 228.329 19.7332C227.935 19.3299 227.337 19.1282 226.536 19.1282C225.704 19.1282 225.053 19.3102 224.581 19.6742C224.108 20.0381 223.776 20.4267 223.585 20.8399L221.932 20.2496C222.227 19.561 222.62 19.0249 223.112 18.6412C223.609 18.2527 224.15 17.9821 224.735 17.8297C225.326 17.6723 225.906 17.5936 226.477 17.5936C226.841 17.5936 227.259 17.6378 227.731 17.7264C228.208 17.81 228.668 17.9846 229.111 18.2502C229.558 18.5158 229.93 18.9167 230.225 19.4528C230.52 19.989 230.667 20.7071 230.667 21.6072V29.0737H228.926V27.5391H228.838C228.72 27.785 228.523 28.0482 228.247 28.3286C227.972 28.6089 227.606 28.8475 227.148 29.0442C226.691 29.241 226.132 29.3393 225.473 29.3393ZM225.739 27.7752C226.427 27.7752 227.008 27.6399 227.48 27.3694C227.957 27.0989 228.316 26.7497 228.557 26.3217C228.803 25.8938 228.926 25.4438 228.926 24.9716V23.3779C228.852 23.4665 228.69 23.5476 228.439 23.6214C228.193 23.6903 227.908 23.7517 227.583 23.8058C227.264 23.855 226.951 23.8993 226.646 23.9386C226.346 23.9731 226.103 24.0026 225.916 24.0272C225.463 24.0862 225.04 24.1821 224.647 24.3149C224.258 24.4428 223.944 24.6371 223.703 24.8978C223.466 25.1536 223.348 25.5028 223.348 25.9455C223.348 26.5505 223.572 27.0079 224.02 27.3178C224.472 27.6227 225.045 27.7752 225.739 27.7752ZM233.137 29.0737L237.741 23.3189L233.196 17.7411H235.262L239.04 22.5811H239.984V17.7411H241.725V22.5811H242.64L246.418 17.7411H248.483L243.968 23.3189L248.542 29.0737H246.447L242.611 24.2043H241.725V29.0737H239.984V24.2043H239.099L235.233 29.0737H233.137ZM255.315 29.3098C254.223 29.3098 253.282 29.0688 252.49 28.5868C251.703 28.0998 251.095 27.4211 250.667 26.5505C250.244 25.6749 250.033 24.6568 250.033 23.496C250.033 22.3352 250.244 21.3121 250.667 20.4267C251.095 19.5364 251.69 18.8429 252.453 18.3461C253.22 17.8444 254.115 17.5936 255.138 17.5936C255.729 17.5936 256.311 17.6919 256.887 17.8887C257.462 18.0854 257.986 18.4051 258.458 18.8478C258.931 19.2856 259.307 19.866 259.587 20.589C259.868 21.3121 260.008 22.2024 260.008 23.2599V23.9977H251.272V22.4926H258.237C258.237 21.8531 258.109 21.2826 257.853 20.7809C257.603 20.2792 257.244 19.8832 256.776 19.593C256.314 19.3028 255.768 19.1577 255.138 19.1577C254.445 19.1577 253.845 19.3299 253.338 19.6742C252.836 20.0135 252.45 20.4562 252.18 21.0022C251.909 21.5482 251.774 22.1335 251.774 22.7582V23.7616C251.774 24.6174 251.922 25.3429 252.217 25.9381C252.517 26.5283 252.932 26.9784 253.464 27.2883C253.995 27.5932 254.612 27.7457 255.315 27.7457C255.773 27.7457 256.186 27.6817 256.555 27.5539C256.929 27.4211 257.251 27.2243 257.521 26.9636C257.792 26.698 258.001 26.3685 258.149 25.975L259.831 26.4472C259.654 27.0177 259.356 27.5194 258.938 27.9523C258.52 28.3802 258.003 28.7147 257.389 28.9557C256.774 29.1918 256.083 29.3098 255.315 29.3098ZM261.601 19.3643V17.7411H270.809V19.3643H267.091V29.0737H265.35V19.3643H261.601ZM277.365 29.3098C276.302 29.3098 275.387 29.059 274.62 28.5573C273.853 28.0556 273.262 27.3645 272.849 26.4841C272.436 25.6036 272.229 24.5977 272.229 23.4665C272.229 22.3155 272.441 21.2998 272.864 20.4193C273.292 19.534 273.887 18.8429 274.649 18.3461C275.417 17.8444 276.312 17.5936 277.335 17.5936C278.132 17.5936 278.85 17.7411 279.489 18.0362C280.129 18.3314 280.653 18.7445 281.061 19.2757C281.469 19.807 281.723 20.4267 281.821 21.135H280.08C279.947 20.6185 279.652 20.1611 279.194 19.7627C278.742 19.3594 278.132 19.1577 277.365 19.1577C276.686 19.1577 276.091 19.3348 275.579 19.6889C275.072 20.0381 274.677 20.5325 274.391 21.1719C274.111 21.8064 273.971 22.5516 273.971 23.4074C273.971 24.283 274.108 25.0453 274.384 25.6946C274.664 26.3439 275.058 26.848 275.564 27.2071C276.076 27.5662 276.676 27.7457 277.365 27.7457C277.817 27.7457 278.228 27.667 278.597 27.5096C278.966 27.3522 279.278 27.1259 279.534 26.8308C279.789 26.5357 279.971 26.1816 280.08 25.7684H281.821C281.723 26.4373 281.479 27.0399 281.09 27.576C280.707 28.1072 280.198 28.5302 279.563 28.845C278.934 29.1549 278.201 29.3098 277.365 29.3098ZM291.184 29.0737V19.3348H288.173C287.495 19.3348 286.961 19.4922 286.572 19.807C286.184 20.1218 285.989 20.5546 285.989 21.1055C285.989 21.6465 286.164 22.072 286.513 22.3819C286.867 22.6918 287.352 22.8467 287.967 22.8467H291.626V24.4699H287.967C287.199 24.4699 286.538 24.3346 285.982 24.0641C285.426 23.7935 284.998 23.4074 284.698 22.9057C284.398 22.3991 284.248 21.799 284.248 21.1055C284.248 20.407 284.406 19.807 284.72 19.3053C285.035 18.8036 285.485 18.4174 286.071 18.1469C286.661 17.8764 287.362 17.7411 288.173 17.7411H292.836V29.0737H291.184ZM283.628 29.0737L286.845 23.4369H288.734L285.517 29.0737H283.628ZM298.63 27.0079L298.512 27.8047C298.428 28.3654 298.3 28.9655 298.128 29.6049C297.961 30.2444 297.786 30.8469 297.604 31.4126C297.422 31.9782 297.272 32.4283 297.154 32.7627H295.826C295.89 32.4479 295.974 32.0323 296.077 31.5158C296.18 30.9994 296.284 30.4214 296.387 29.782C296.495 29.1475 296.584 28.4982 296.653 27.8342L296.741 27.0079H298.63ZM312.303 29.3098C311.241 29.3098 310.326 29.059 309.558 28.5573C308.791 28.0556 308.201 27.3645 307.788 26.4841C307.375 25.6036 307.168 24.5977 307.168 23.4665C307.168 22.3155 307.38 21.2998 307.803 20.4193C308.23 19.534 308.826 18.8429 309.588 18.3461C310.355 17.8444 311.25 17.5936 312.274 17.5936C313.07 17.5936 313.789 17.7411 314.428 18.0362C315.067 18.3314 315.591 18.7445 315.999 19.2757C316.408 19.807 316.661 20.4267 316.759 21.135H315.018C314.885 20.6185 314.59 20.1611 314.133 19.7627C313.68 19.3594 313.07 19.1577 312.303 19.1577C311.624 19.1577 311.029 19.3348 310.518 19.6889C310.011 20.0381 309.615 20.5325 309.33 21.1719C309.049 21.8064 308.909 22.5516 308.909 23.4074C308.909 24.283 309.047 25.0453 309.322 25.6946C309.603 26.3439 309.996 26.848 310.503 27.2071C311.014 27.5662 311.614 27.7457 312.303 27.7457C312.756 27.7457 313.166 27.667 313.535 27.5096C313.904 27.3522 314.216 27.1259 314.472 26.8308C314.728 26.5357 314.91 26.1816 315.018 25.7684H316.759C316.661 26.4373 316.418 27.0399 316.029 27.576C315.645 28.1072 315.136 28.5302 314.502 28.845C313.872 29.1549 313.139 29.3098 312.303 29.3098ZM318.412 19.3643V17.7411H327.62V19.3643H323.901V29.0737H322.16V19.3643H318.412ZM330.16 33.3235V17.7411H331.842V19.5414H332.048C332.176 19.3446 332.353 19.0938 332.58 18.7888C332.811 18.4789 333.14 18.2035 333.568 17.9625C334.001 17.7165 334.586 17.5936 335.324 17.5936C336.279 17.5936 337.12 17.8321 337.848 18.3092C338.576 18.7863 339.144 19.4627 339.552 20.3382C339.96 21.2137 340.164 22.2466 340.164 23.4369C340.164 24.6371 339.96 25.6774 339.552 26.5578C339.144 27.4334 338.578 28.1121 337.855 28.5942C337.132 29.0713 336.298 29.3098 335.354 29.3098C334.626 29.3098 334.043 29.1893 333.605 28.9483C333.167 28.7024 332.831 28.4245 332.594 28.1146C332.358 27.7998 332.176 27.5391 332.048 27.3325H331.901V33.3235H330.16ZM331.871 23.4074C331.871 24.2633 331.997 25.0183 332.248 25.6725C332.499 26.3217 332.865 26.8308 333.347 27.1997C333.829 27.5637 334.419 27.7457 335.118 27.7457C335.846 27.7457 336.453 27.5539 336.94 27.1702C337.432 26.7816 337.801 26.2603 338.047 25.6061C338.298 24.947 338.423 24.2141 338.423 23.4074C338.423 22.6106 338.3 21.8925 338.054 21.2531C337.813 20.6087 337.447 20.0996 336.955 19.7258C336.468 19.3471 335.856 19.1577 335.118 19.1577C334.409 19.1577 333.814 19.3372 333.332 19.6963C332.85 20.0504 332.486 20.5472 332.24 21.1867C331.994 21.8212 331.871 22.5614 331.871 23.4074ZM346.155 29.3393C345.437 29.3393 344.785 29.2041 344.2 28.9335C343.615 28.6581 343.15 28.2622 342.806 27.7457C342.461 27.2243 342.289 26.5947 342.289 25.8569C342.289 25.2077 342.417 24.6814 342.673 24.278C342.929 23.8698 343.27 23.5501 343.698 23.3189C344.126 23.0877 344.598 22.9156 345.115 22.8024C345.636 22.6844 346.16 22.5909 346.686 22.5221C347.375 22.4335 347.933 22.3671 348.361 22.3229C348.794 22.2737 349.109 22.1925 349.306 22.0794C349.507 21.9663 349.608 21.7695 349.608 21.4891V21.4301C349.608 20.7022 349.409 20.1365 349.01 19.7332C348.617 19.3299 348.019 19.1282 347.218 19.1282C346.386 19.1282 345.735 19.3102 345.262 19.6742C344.79 20.0381 344.458 20.4267 344.266 20.8399L342.614 20.2496C342.909 19.561 343.302 19.0249 343.794 18.6412C344.291 18.2527 344.832 17.9821 345.417 17.8297C346.008 17.6723 346.588 17.5936 347.159 17.5936C347.523 17.5936 347.941 17.6378 348.413 17.7264C348.89 17.81 349.35 17.9846 349.793 18.2502C350.24 18.5158 350.611 18.9167 350.907 19.4528C351.202 19.989 351.349 20.7071 351.349 21.6072V29.0737H349.608V27.5391H349.52C349.402 27.785 349.205 28.0482 348.929 28.3286C348.654 28.6089 348.287 28.8475 347.83 29.0442C347.373 29.241 346.814 29.3393 346.155 29.3393ZM346.421 27.7752C347.109 27.7752 347.69 27.6399 348.162 27.3694C348.639 27.0989 348.998 26.7497 349.239 26.3217C349.485 25.8938 349.608 25.4438 349.608 24.9716V23.3779C349.534 23.4665 349.372 23.5476 349.121 23.6214C348.875 23.6903 348.59 23.7517 348.265 23.8058C347.946 23.855 347.633 23.8993 347.328 23.9386C347.028 23.9731 346.785 24.0026 346.598 24.0272C346.145 24.0862 345.722 24.1821 345.329 24.3149C344.94 24.4428 344.625 24.6371 344.384 24.8978C344.148 25.1536 344.03 25.5028 344.03 25.9455C344.03 26.5505 344.254 27.0079 344.702 27.3178C345.154 27.6227 345.727 27.7752 346.421 27.7752ZM362.112 22.6106V24.2338H355.855V22.6106H362.112ZM356.269 17.7411V29.0737H354.527V17.7411H356.269ZM363.44 17.7411V29.0737H361.699V17.7411H363.44ZM368.361 26.5062L373.821 17.7411H375.828V29.0737H374.086V20.3087L368.656 29.0737H366.62V17.7411H368.361V26.5062ZM387.929 17.7411V27.4506H389.523V32.7332H387.782V29.0737H379.017V17.7411H380.758V27.4506H386.188V17.7411H387.929ZM395.54 29.3393C394.822 29.3393 394.17 29.2041 393.585 28.9335C392.999 28.6581 392.535 28.2622 392.19 27.7457C391.846 27.2243 391.674 26.5947 391.674 25.8569C391.674 25.2077 391.802 24.6814 392.057 24.278C392.313 23.8698 392.655 23.5501 393.083 23.3189C393.511 23.0877 393.983 22.9156 394.5 22.8024C395.021 22.6844 395.545 22.5909 396.071 22.5221C396.76 22.4335 397.318 22.3671 397.746 22.3229C398.179 22.2737 398.493 22.1925 398.69 22.0794C398.892 21.9663 398.993 21.7695 398.993 21.4891V21.4301C398.993 20.7022 398.794 20.1365 398.395 19.7332C398.002 19.3299 397.404 19.1282 396.602 19.1282C395.771 19.1282 395.119 19.3102 394.647 19.6742C394.175 20.0381 393.843 20.4267 393.651 20.8399L391.998 20.2496C392.293 19.561 392.687 19.0249 393.179 18.6412C393.676 18.2527 394.217 17.9821 394.802 17.8297C395.392 17.6723 395.973 17.5936 396.543 17.5936C396.907 17.5936 397.325 17.6378 397.797 17.7264C398.275 17.81 398.734 17.9846 399.177 18.2502C399.625 18.5158 399.996 18.9167 400.291 19.4528C400.586 19.989 400.734 20.7071 400.734 21.6072V29.0737H398.993V27.5391H398.904C398.786 27.785 398.589 28.0482 398.314 28.3286C398.038 28.6089 397.672 28.8475 397.215 29.0442C396.757 29.241 396.199 29.3393 395.54 29.3393ZM395.805 27.7752C396.494 27.7752 397.074 27.6399 397.547 27.3694C398.024 27.0989 398.383 26.7497 398.624 26.3217C398.87 25.8938 398.993 25.4438 398.993 24.9716V23.3779C398.919 23.4665 398.757 23.5476 398.506 23.6214C398.26 23.6903 397.975 23.7517 397.65 23.8058C397.33 23.855 397.018 23.8993 396.713 23.9386C396.413 23.9731 396.169 24.0026 395.982 24.0272C395.53 24.0862 395.107 24.1821 394.713 24.3149C394.325 24.4428 394.01 24.6371 393.769 24.8978C393.533 25.1536 393.415 25.5028 393.415 25.9455C393.415 26.5505 393.639 27.0079 394.086 27.3178C394.539 27.6227 395.112 27.7752 395.805 27.7752ZM409.755 29.0737V17.7411H418.668V29.0737H416.927V19.3643H411.497V29.0737H409.755ZM421.848 33.3235V17.7411H423.53V19.5414H423.737C423.865 19.3446 424.042 19.0938 424.268 18.7888C424.499 18.4789 424.829 18.2035 425.257 17.9625C425.689 17.7165 426.275 17.5936 427.013 17.5936C427.967 17.5936 428.808 17.8321 429.536 18.3092C430.264 18.7863 430.832 19.4627 431.24 20.3382C431.648 21.2137 431.852 22.2466 431.852 23.4369C431.852 24.6371 431.648 25.6774 431.24 26.5578C430.832 27.4334 430.266 28.1121 429.543 28.5942C428.82 29.0713 427.986 29.3098 427.042 29.3098C426.314 29.3098 425.731 29.1893 425.293 28.9483C424.856 28.7024 424.519 28.4245 424.283 28.1146C424.047 27.7998 423.865 27.5391 423.737 27.3325H423.589V33.3235H421.848ZM423.56 23.4074C423.56 24.2633 423.685 25.0183 423.936 25.6725C424.187 26.3217 424.553 26.8308 425.035 27.1997C425.517 27.5637 426.107 27.7457 426.806 27.7457C427.534 27.7457 428.141 27.5539 428.628 27.1702C429.12 26.7816 429.489 26.2603 429.735 25.6061C429.986 24.947 430.111 24.2141 430.111 23.4074C430.111 22.6106 429.988 21.8925 429.742 21.2531C429.501 20.6087 429.135 20.0996 428.643 19.7258C428.156 19.3471 427.544 19.1577 426.806 19.1577C426.098 19.1577 425.502 19.3372 425.02 19.6963C424.538 20.0504 424.174 20.5472 423.929 21.1867C423.683 21.8212 423.56 22.5614 423.56 23.4074ZM439.112 29.3098C438.089 29.3098 437.192 29.0664 436.419 28.5794C435.652 28.0925 435.052 27.4112 434.619 26.5357C434.191 25.6602 433.977 24.6371 433.977 23.4665C433.977 22.286 434.191 21.2555 434.619 20.3751C435.052 19.4946 435.652 18.8109 436.419 18.324C437.192 17.837 438.089 17.5936 439.112 17.5936C440.136 17.5936 441.031 17.837 441.798 18.324C442.57 18.8109 443.17 19.4946 443.598 20.3751C444.031 21.2555 444.248 22.286 444.248 23.4665C444.248 24.6371 444.031 25.6602 443.598 26.5357C443.17 27.4112 442.57 28.0925 441.798 28.5794C441.031 29.0664 440.136 29.3098 439.112 29.3098ZM439.112 27.7457C439.89 27.7457 440.529 27.5465 441.031 27.1481C441.532 26.7497 441.904 26.2258 442.145 25.5766C442.386 24.9273 442.506 24.2239 442.506 23.4665C442.506 22.709 442.386 22.0031 442.145 21.349C441.904 20.6948 441.532 20.166 441.031 19.7627C440.529 19.3594 439.89 19.1577 439.112 19.1577C438.335 19.1577 437.696 19.3594 437.194 19.7627C436.692 20.166 436.321 20.6948 436.08 21.349C435.839 22.0031 435.719 22.709 435.719 23.4665C435.719 24.2239 435.839 24.9273 436.08 25.5766C436.321 26.2258 436.692 26.7497 437.194 27.1481C437.696 27.5465 438.335 27.7457 439.112 27.7457ZM446.905 29.0737V17.7411H455.818V29.0737H454.077V19.3643H448.647V29.0737H446.905ZM462.333 29.3393C461.615 29.3393 460.963 29.2041 460.378 28.9335C459.792 28.6581 459.328 28.2622 458.983 27.7457C458.639 27.2243 458.467 26.5947 458.467 25.8569C458.467 25.2077 458.595 24.6814 458.85 24.278C459.106 23.8698 459.448 23.5501 459.876 23.3189C460.304 23.0877 460.776 22.9156 461.293 22.8024C461.814 22.6844 462.338 22.5909 462.864 22.5221C463.553 22.4335 464.111 22.3671 464.539 22.3229C464.972 22.2737 465.286 22.1925 465.483 22.0794C465.685 21.9663 465.786 21.7695 465.786 21.4891V21.4301C465.786 20.7022 465.587 20.1365 465.188 19.7332C464.795 19.3299 464.197 19.1282 463.395 19.1282C462.564 19.1282 461.912 19.3102 461.44 19.6742C460.968 20.0381 460.636 20.4267 460.444 20.8399L458.791 20.2496C459.087 19.561 459.48 19.0249 459.972 18.6412C460.469 18.2527 461.01 17.9821 461.595 17.8297C462.185 17.6723 462.766 17.5936 463.336 17.5936C463.7 17.5936 464.118 17.6378 464.59 17.7264C465.068 17.81 465.528 17.9846 465.97 18.2502C466.418 18.5158 466.789 18.9167 467.084 19.4528C467.379 19.989 467.527 20.7071 467.527 21.6072V29.0737H465.786V27.5391H465.697C465.579 27.785 465.382 28.0482 465.107 28.3286C464.832 28.6089 464.465 28.8475 464.008 29.0442C463.55 29.241 462.992 29.3393 462.333 29.3393ZM462.598 27.7752C463.287 27.7752 463.867 27.6399 464.34 27.3694C464.817 27.0989 465.176 26.7497 465.417 26.3217C465.663 25.8938 465.786 25.4438 465.786 24.9716V23.3779C465.712 23.4665 465.55 23.5476 465.299 23.6214C465.053 23.6903 464.768 23.7517 464.443 23.8058C464.123 23.855 463.811 23.8993 463.506 23.9386C463.206 23.9731 462.962 24.0026 462.776 24.0272C462.323 24.0862 461.9 24.1821 461.506 24.3149C461.118 24.4428 460.803 24.6371 460.562 24.8978C460.326 25.1536 460.208 25.5028 460.208 25.9455C460.208 26.5505 460.432 27.0079 460.879 27.3178C461.332 27.6227 461.905 27.7752 462.598 27.7752ZM469.702 29.0737V27.4506H470.115C470.454 27.4506 470.737 27.3842 470.963 27.2514C471.189 27.1136 471.371 26.8751 471.509 26.5357C471.652 26.1914 471.76 25.7143 471.834 25.1044C471.913 24.4895 471.969 23.7075 472.004 22.7582L472.21 17.7411H479.765V29.0737H478.024V19.3643H473.863L473.686 23.4074C473.646 24.3371 473.563 25.156 473.435 25.8643C473.312 26.5677 473.123 27.1579 472.867 27.635C472.616 28.1121 472.281 28.4712 471.863 28.7122C471.445 28.9532 470.921 29.0737 470.292 29.0737H469.702ZM486.295 29.3393C485.577 29.3393 484.925 29.2041 484.34 28.9335C483.754 28.6581 483.289 28.2622 482.945 27.7457C482.601 27.2243 482.429 26.5947 482.429 25.8569C482.429 25.2077 482.557 24.6814 482.812 24.278C483.068 23.8698 483.41 23.5501 483.838 23.3189C484.266 23.0877 484.738 22.9156 485.254 22.8024C485.776 22.6844 486.3 22.5909 486.826 22.5221C487.515 22.4335 488.073 22.3671 488.501 22.3229C488.934 22.2737 489.248 22.1925 489.445 22.0794C489.647 21.9663 489.748 21.7695 489.748 21.4891V21.4301C489.748 20.7022 489.548 20.1365 489.15 19.7332C488.757 19.3299 488.159 19.1282 487.357 19.1282C486.526 19.1282 485.874 19.3102 485.402 19.6742C484.93 20.0381 484.598 20.4267 484.406 20.8399L482.753 20.2496C483.048 19.561 483.442 19.0249 483.934 18.6412C484.431 18.2527 484.972 17.9821 485.557 17.8297C486.147 17.6723 486.728 17.5936 487.298 17.5936C487.662 17.5936 488.08 17.6378 488.552 17.7264C489.029 17.81 489.489 17.9846 489.932 18.2502C490.38 18.5158 490.751 18.9167 491.046 19.4528C491.341 19.989 491.489 20.7071 491.489 21.6072V29.0737H489.748V27.5391H489.659C489.541 27.785 489.344 28.0482 489.069 28.3286C488.793 28.6089 488.427 28.8475 487.97 29.0442C487.512 29.241 486.954 29.3393 486.295 29.3393ZM486.56 27.7752C487.249 27.7752 487.829 27.6399 488.302 27.3694C488.779 27.0989 489.138 26.7497 489.379 26.3217C489.625 25.8938 489.748 25.4438 489.748 24.9716V23.3779C489.674 23.4665 489.512 23.5476 489.261 23.6214C489.015 23.6903 488.729 23.7517 488.405 23.8058C488.085 23.855 487.773 23.8993 487.468 23.9386C487.168 23.9731 486.924 24.0026 486.737 24.0272C486.285 24.0862 485.862 24.1821 485.468 24.3149C485.08 24.4428 484.765 24.6371 484.524 24.8978C484.288 25.1536 484.17 25.5028 484.17 25.9455C484.17 26.5505 484.394 27.0079 484.841 27.3178C485.294 27.6227 485.867 27.7752 486.56 27.7752Z" fill="black"/>
<path d="M507.028 32.3807C506.296 32.3807 505.672 32.1813 505.156 31.7825C504.641 31.3805 504.247 30.7986 503.974 30.0368C503.702 29.2717 503.566 28.3477 503.566 27.2649C503.566 26.1886 503.702 25.2695 503.974 24.5076C504.25 23.7425 504.646 23.159 505.161 22.757C505.68 22.3517 506.302 22.1491 507.028 22.1491C507.755 22.1491 508.375 22.3517 508.891 22.757C509.41 23.159 509.805 23.7425 510.077 24.5076C510.353 25.2695 510.491 26.1886 510.491 27.2649C510.491 28.3477 510.355 29.2717 510.082 30.0368C509.81 30.7986 509.416 31.3805 508.901 31.7825C508.385 32.1813 507.761 32.3807 507.028 32.3807ZM507.028 31.3108C507.755 31.3108 508.319 30.9607 508.721 30.2604C509.123 29.5602 509.324 28.5617 509.324 27.2649C509.324 26.4025 509.231 25.6682 509.046 25.062C508.865 24.4558 508.602 23.9938 508.259 23.6761C507.918 23.3584 507.508 23.1995 507.028 23.1995C506.309 23.1995 505.746 23.5545 505.341 24.2645C504.936 24.9712 504.733 25.9714 504.733 27.2649C504.733 28.1273 504.824 28.8599 505.005 29.4629C505.187 30.0659 505.448 30.5247 505.788 30.8391C506.132 31.1536 506.545 31.3108 507.028 31.3108ZM515.255 32.3807C514.587 32.3807 513.997 32.2623 513.485 32.0257C512.976 31.7858 512.579 31.4567 512.293 31.0385C512.008 30.6171 511.867 30.1373 511.87 29.5991C511.867 29.1776 511.95 28.7886 512.118 28.432C512.287 28.0721 512.517 27.7723 512.809 27.5324C513.104 27.2892 513.433 27.1352 513.796 27.0704V27.012C513.319 26.8888 512.94 26.6214 512.658 26.2096C512.376 25.7947 512.237 25.323 512.24 24.7945C512.237 24.2888 512.365 23.8366 512.624 23.4378C512.883 23.039 513.24 22.7246 513.694 22.4944C514.151 22.2642 514.671 22.1491 515.255 22.1491C515.832 22.1491 516.347 22.2642 516.801 22.4944C517.255 22.7246 517.612 23.039 517.871 23.4378C518.134 23.8366 518.267 24.2888 518.27 24.7945C518.267 25.323 518.122 25.7947 517.837 26.2096C517.555 26.6214 517.181 26.8888 516.714 27.012V27.0704C517.074 27.1352 517.398 27.2892 517.686 27.5324C517.975 27.7723 518.205 28.0721 518.377 28.432C518.549 28.7886 518.636 29.1776 518.639 29.5991C518.636 30.1373 518.49 30.6171 518.202 31.0385C517.916 31.4567 517.519 31.7858 517.01 32.0257C516.505 32.2623 515.919 32.3807 515.255 32.3807ZM515.255 31.3108C515.705 31.3108 516.095 31.2379 516.422 31.092C516.749 30.9461 517.002 30.7402 517.181 30.4744C517.359 30.2086 517.45 29.8973 517.453 29.5407C517.45 29.1647 517.352 28.8324 517.161 28.5438C516.97 28.2553 516.709 28.0284 516.378 27.863C516.051 27.6977 515.676 27.615 515.255 27.615C514.83 27.615 514.451 27.6977 514.117 27.863C513.786 28.0284 513.525 28.2553 513.334 28.5438C513.146 28.8324 513.054 29.1647 513.057 29.5407C513.054 29.8973 513.139 30.2086 513.315 30.4744C513.493 30.7402 513.747 30.9461 514.078 31.092C514.409 31.2379 514.801 31.3108 515.255 31.3108ZM515.255 26.5841C515.611 26.5841 515.928 26.5128 516.203 26.3701C516.482 26.2275 516.701 26.0281 516.86 25.772C517.018 25.5159 517.1 25.216 517.103 24.8724C517.1 24.5352 517.02 24.2418 516.864 23.9922C516.709 23.7393 516.493 23.5448 516.218 23.4086C515.942 23.2692 515.621 23.1995 515.255 23.1995C514.882 23.1995 514.556 23.2692 514.277 23.4086C513.999 23.5448 513.783 23.7393 513.631 23.9922C513.478 24.2418 513.404 24.5352 513.407 24.8724C513.404 25.216 513.48 25.5159 513.635 25.772C513.794 26.0281 514.013 26.2275 514.292 26.3701C514.571 26.5128 514.892 26.5841 515.255 26.5841ZM521.085 30.9704C520.845 30.9704 520.639 30.8845 520.468 30.7127C520.296 30.5409 520.21 30.335 520.21 30.0951C520.21 29.8552 520.296 29.6493 520.468 29.4775C520.639 29.3057 520.845 29.2198 521.085 29.2198C521.325 29.2198 521.531 29.3057 521.703 29.4775C521.875 29.6493 521.96 29.8552 521.96 30.0951C521.96 30.254 521.92 30.3998 521.839 30.5328C521.761 30.6657 521.656 30.7727 521.523 30.8537C521.393 30.9315 521.247 30.9704 521.085 30.9704ZM521.085 25.9325C520.845 25.9325 520.639 25.8466 520.468 25.6747C520.296 25.5029 520.21 25.297 520.21 25.0571C520.21 24.8172 520.296 24.6114 520.468 24.4396C520.639 24.2677 520.845 24.1818 521.085 24.1818C521.325 24.1818 521.531 24.2677 521.703 24.4396C521.875 24.6114 521.96 24.8172 521.96 25.0571C521.96 25.216 521.92 25.3619 521.839 25.4948C521.761 25.6277 521.656 25.7347 521.523 25.8158C521.393 25.8936 521.247 25.9325 521.085 25.9325ZM523.493 30.2021V29.2101L527.87 22.2853H528.589V23.822H528.103L524.796 29.0544V29.1323H530.69V30.2021H523.493ZM528.181 32.2445V29.9006V29.4386V22.2853H529.329V32.2445H528.181ZM535.487 32.3807C534.754 32.3807 534.13 32.1813 533.615 31.7825C533.099 31.3805 532.706 30.7986 532.433 30.0368C532.161 29.2717 532.025 28.3477 532.025 27.2649C532.025 26.1886 532.161 25.2695 532.433 24.5076C532.709 23.7425 533.104 23.159 533.62 22.757C534.138 22.3517 534.761 22.1491 535.487 22.1491C536.213 22.1491 536.834 22.3517 537.35 22.757C537.868 23.159 538.264 23.7425 538.536 24.5076C538.812 25.2695 538.95 26.1886 538.95 27.2649C538.95 28.3477 538.813 29.2717 538.541 30.0368C538.269 30.7986 537.875 31.3805 537.359 31.7825C536.844 32.1813 536.22 32.3807 535.487 32.3807ZM535.487 31.3108C536.213 31.3108 536.777 30.9607 537.179 30.2604C537.581 29.5602 537.782 28.5617 537.782 27.2649C537.782 26.4025 537.69 25.6682 537.505 25.062C537.324 24.4558 537.061 23.9938 536.717 23.6761C536.377 23.3584 535.967 23.1995 535.487 23.1995C534.767 23.1995 534.205 23.5545 533.8 24.2645C533.394 24.9712 533.192 25.9714 533.192 27.2649C533.192 28.1273 533.283 28.8599 533.464 29.4629C533.646 30.0659 533.907 30.5247 534.247 30.8391C534.591 31.1536 535.004 31.3108 535.487 31.3108Z" fill="#4200FF"/>
<path fill-rule="evenodd" clip-rule="evenodd" d="M556.491 23.1608C556.718 23.3804 556.725 23.7427 556.505 23.9701L547.597 33.1964C547.486 33.3109 547.333 33.3742 547.174 33.3711C547.015 33.368 546.864 33.2987 546.758 33.18L542.781 28.7259C542.571 28.4901 542.591 28.1283 542.827 27.9178C543.063 27.7073 543.425 27.7277 543.635 27.9635L547.201 31.9578L555.681 23.175C555.901 22.9476 556.263 22.9413 556.491 23.1608Z" fill="#4200FF"/>
<path fill-rule="evenodd" clip-rule="evenodd" d="M559.855 23.1608C560.082 23.3804 560.089 23.7427 559.869 23.9701L550.961 33.1964C550.85 33.3109 550.697 33.3742 550.538 33.3711C550.379 33.368 550.228 33.2987 550.122 33.18L546.145 28.7259C545.935 28.4901 545.955 28.1283 546.191 27.9178C546.427 27.7073 546.789 27.7277 546.999 27.9635L550.566 31.9578L559.046 23.175C559.265 22.9476 559.628 22.9413 559.855 23.1608Z" fill="#4200FF"/>
<path opacity="0.8" fill-rule="evenodd" clip-rule="evenodd" d="M207.012 67.902C207 68.2534 207 68.6689 207 69.5C207 70.3311 207 70.7466 207.012 71.098C207.382 81.9262 216.074 90.6184 226.902 90.988C227.253 91 227.669 91 228.5 91H542.172C549.081 91 552.536 91 555.366 90.2221C557.426 89.6559 559.36 88.7993 561.122 87.6982C562.321 88.5571 563.982 89.5984 565.778 90.2777C570.122 91.9215 581.316 91.8269 581.316 91.8269C581.316 91.8269 575.207 90.2777 572.937 83.2174C571.859 79.8639 571.42 59.6987 571.42 59.6987L571.346 59.8595C571.332 57.8328 571.268 56.613 570.982 55.5717C570.019 52.0685 567.282 49.3315 563.779 48.3685C562.438 48 560.802 48 557.529 48H228.5C227.669 48 227.253 48 226.902 48.012C216.074 48.3816 207.382 57.0738 207.012 67.902Z" fill="#D4C5FF"/>
<path d="M226.108 61.8698H228.292L233.427 74.4124H233.604L238.739 61.8698H240.923V76.98H239.212V65.4998H239.064L234.342 76.98H232.689L227.968 65.4998H227.82V76.98H226.108V61.8698ZM248.96 77.2161C247.937 77.2161 247.039 76.9726 246.267 76.4857C245.499 75.9987 244.899 75.3175 244.467 74.4419C244.039 73.5664 243.825 72.5433 243.825 71.3727C243.825 70.1922 244.039 69.1618 244.467 68.2813C244.899 67.4009 245.499 66.7172 246.267 66.2302C247.039 65.7433 247.937 65.4998 248.96 65.4998C249.983 65.4998 250.878 65.7433 251.645 66.2302C252.418 66.7172 253.018 67.4009 253.446 68.2813C253.878 69.1618 254.095 70.1922 254.095 71.3727C254.095 72.5433 253.878 73.5664 253.446 74.4419C253.018 75.3175 252.418 75.9987 251.645 76.4857C250.878 76.9726 249.983 77.2161 248.96 77.2161ZM248.96 75.6519C249.737 75.6519 250.376 75.4527 250.878 75.0543C251.38 74.6559 251.751 74.1321 251.992 73.4828C252.233 72.8335 252.354 72.1302 252.354 71.3727C252.354 70.6152 252.233 69.9094 251.992 69.2552C251.751 68.601 251.38 68.0723 250.878 67.6689C250.376 67.2656 249.737 67.064 248.96 67.064C248.183 67.064 247.543 67.2656 247.041 67.6689C246.54 68.0723 246.168 68.601 245.927 69.2552C245.686 69.9094 245.566 70.6152 245.566 71.3727C245.566 72.1302 245.686 72.8335 245.927 73.4828C246.168 74.1321 246.54 74.6559 247.041 75.0543C247.543 75.4527 248.183 75.6519 248.96 75.6519ZM255.578 76.98L260.182 71.2251L255.637 65.6474H257.703L261.48 70.4873H262.425V65.6474H264.166V70.4873H265.081L268.858 65.6474H270.924L266.409 71.2251L270.983 76.98H268.888L265.051 72.1105H264.166V76.98H262.425V72.1105H261.539L257.673 76.98H255.578ZM277.756 77.2161C276.664 77.2161 275.722 76.9751 274.93 76.493C274.143 76.0061 273.536 75.3273 273.108 74.4567C272.685 73.5812 272.473 72.563 272.473 71.4022C272.473 70.2414 272.685 69.2183 273.108 68.333C273.536 67.4427 274.131 66.7492 274.893 66.2524C275.661 65.7507 276.556 65.4998 277.579 65.4998C278.169 65.4998 278.752 65.5982 279.328 65.7949C279.903 65.9917 280.427 66.3114 280.899 66.7541C281.371 67.1918 281.748 67.7722 282.028 68.4953C282.308 69.2183 282.448 70.1086 282.448 71.1661V71.9039H273.713V70.3988H280.678C280.678 69.7594 280.55 69.1888 280.294 68.6871C280.043 68.1854 279.684 67.7895 279.217 67.4993C278.755 67.2091 278.209 67.064 277.579 67.064C276.885 67.064 276.285 67.2361 275.779 67.5804C275.277 67.9198 274.891 68.3625 274.62 68.9085C274.35 69.4544 274.215 70.0397 274.215 70.6644V71.6678C274.215 72.5237 274.362 73.2492 274.657 73.8443C274.957 74.4346 275.373 74.8846 275.904 75.1945C276.435 75.4995 277.053 75.6519 277.756 75.6519C278.214 75.6519 278.627 75.588 278.996 75.4601C279.369 75.3273 279.692 75.1306 279.962 74.8699C280.233 74.6043 280.442 74.2747 280.589 73.8812L282.271 74.3534C282.094 74.924 281.797 75.4257 281.379 75.8585C280.961 76.2864 280.444 76.6209 279.829 76.8619C279.214 77.098 278.523 77.2161 277.756 77.2161ZM284.042 67.2705V65.6474H293.25V67.2705H289.531V76.98H287.79V67.2705H284.042ZM306.385 77.2161C305.293 77.2161 304.351 76.9751 303.559 76.493C302.772 76.0061 302.164 75.3273 301.736 74.4567C301.313 73.5812 301.102 72.563 301.102 71.4022C301.102 70.2414 301.313 69.2183 301.736 68.333C302.164 67.4427 302.759 66.7492 303.522 66.2524C304.289 65.7507 305.184 65.4998 306.207 65.4998C306.798 65.4998 307.381 65.5982 307.956 65.7949C308.532 65.9917 309.055 66.3114 309.528 66.7541C310 67.1918 310.376 67.7722 310.656 68.4953C310.937 69.2183 311.077 70.1086 311.077 71.1661V71.9039H302.341V70.3988H309.306C309.306 69.7594 309.178 69.1888 308.923 68.6871C308.672 68.1854 308.313 67.7895 307.845 67.4993C307.383 67.2091 306.837 67.064 306.207 67.064C305.514 67.064 304.914 67.2361 304.407 67.5804C303.906 67.9198 303.519 68.3625 303.249 68.9085C302.978 69.4544 302.843 70.0397 302.843 70.6644V71.6678C302.843 72.5237 302.991 73.2492 303.286 73.8443C303.586 74.4346 304.001 74.8846 304.533 75.1945C305.064 75.4995 305.681 75.6519 306.385 75.6519C306.842 75.6519 307.255 75.588 307.624 75.4601C307.998 75.3273 308.32 75.1306 308.591 74.8699C308.861 74.6043 309.07 74.2747 309.218 73.8812L310.9 74.3534C310.723 74.924 310.425 75.4257 310.007 75.8585C309.589 76.2864 309.073 76.6209 308.458 76.8619C307.843 77.098 307.152 77.2161 306.385 77.2161ZM318.477 77.2161C317.385 77.2161 316.443 76.9751 315.651 76.493C314.864 76.0061 314.257 75.3273 313.829 74.4567C313.406 73.5812 313.194 72.563 313.194 71.4022C313.194 70.2414 313.406 69.2183 313.829 68.333C314.257 67.4427 314.852 66.7492 315.614 66.2524C316.382 65.7507 317.277 65.4998 318.3 65.4998C318.89 65.4998 319.473 65.5982 320.049 65.7949C320.624 65.9917 321.148 66.3114 321.62 66.7541C322.092 67.1918 322.469 67.7722 322.749 68.4953C323.029 69.2183 323.169 70.1086 323.169 71.1661V71.9039H314.434V70.3988H321.399C321.399 69.7594 321.271 69.1888 321.015 68.6871C320.764 68.1854 320.405 67.7895 319.938 67.4993C319.476 67.2091 318.93 67.064 318.3 67.064C317.606 67.064 317.006 67.2361 316.5 67.5804C315.998 67.9198 315.612 68.3625 315.341 68.9085C315.071 69.4544 314.936 70.0397 314.936 70.6644V71.6678C314.936 72.5237 315.083 73.2492 315.378 73.8443C315.678 74.4346 316.094 74.8846 316.625 75.1945C317.156 75.4995 317.774 75.6519 318.477 75.6519C318.935 75.6519 319.348 75.588 319.717 75.4601C320.09 75.3273 320.413 75.1306 320.683 74.8699C320.954 74.6043 321.163 74.2747 321.31 73.8812L322.992 74.3534C322.815 74.924 322.518 75.4257 322.1 75.8585C321.682 76.2864 321.165 76.6209 320.55 76.8619C319.935 77.098 319.244 77.2161 318.477 77.2161ZM316.087 63.7586C315.777 63.7586 315.501 63.6406 315.26 63.4045C315.024 63.1634 314.906 62.888 314.906 62.5781C314.906 62.2387 315.024 61.9584 315.26 61.737C315.501 61.5108 315.777 61.3976 316.087 61.3976C316.426 61.3976 316.706 61.5108 316.928 61.737C317.154 61.9584 317.267 62.2387 317.267 62.5781C317.267 62.888 317.154 63.1634 316.928 63.4045C316.706 63.6406 316.426 63.7586 316.087 63.7586ZM320.336 63.7586C320.026 63.7586 319.751 63.6406 319.51 63.4045C319.274 63.1634 319.156 62.888 319.156 62.5781C319.156 62.2387 319.274 61.9584 319.51 61.737C319.751 61.5108 320.026 61.3976 320.336 61.3976C320.676 61.3976 320.956 61.5108 321.177 61.737C321.404 61.9584 321.517 62.2387 321.517 62.5781C321.517 62.888 321.404 63.1634 321.177 63.4045C320.956 63.6406 320.676 63.7586 320.336 63.7586ZM339.246 70.5169V72.14H332.99V70.5169H339.246ZM333.403 65.6474V76.98H331.662V65.6474H333.403ZM340.574 65.6474V76.98H338.833V65.6474H340.574ZM348.506 77.2161C347.414 77.2161 346.472 76.9751 345.68 76.493C344.893 76.0061 344.285 75.3273 343.857 74.4567C343.434 73.5812 343.223 72.563 343.223 71.4022C343.223 70.2414 343.434 69.2183 343.857 68.333C344.285 67.4427 344.88 66.7492 345.643 66.2524C346.41 65.7507 347.305 65.4998 348.328 65.4998C348.919 65.4998 349.502 65.5982 350.077 65.7949C350.653 65.9917 351.176 66.3114 351.649 66.7541C352.121 67.1918 352.497 67.7722 352.777 68.4953C353.058 69.2183 353.198 70.1086 353.198 71.1661V71.9039H344.462V70.3988H351.427C351.427 69.7594 351.299 69.1888 351.044 68.6871C350.793 68.1854 350.434 67.7895 349.966 67.4993C349.504 67.2091 348.958 67.064 348.328 67.064C347.635 67.064 347.035 67.2361 346.528 67.5804C346.027 67.9198 345.64 68.3625 345.37 68.9085C345.099 69.4544 344.964 70.0397 344.964 70.6644V71.6678C344.964 72.5237 345.112 73.2492 345.407 73.8443C345.707 74.4346 346.122 74.8846 346.654 75.1945C347.185 75.4995 347.802 75.6519 348.506 75.6519C348.963 75.6519 349.376 75.588 349.745 75.4601C350.119 75.3273 350.441 75.1306 350.712 74.8699C350.982 74.6043 351.191 74.2747 351.339 73.8812L353.021 74.3534C352.844 74.924 352.546 75.4257 352.128 75.8585C351.71 76.2864 351.194 76.6209 350.579 76.8619C349.964 77.098 349.273 77.2161 348.506 77.2161ZM370.101 61.3976L370.986 62.4601C370.642 62.7945 370.244 63.0282 369.791 63.161C369.339 63.2938 368.827 63.375 368.256 63.4045C367.686 63.434 367.051 63.4635 366.353 63.493C365.566 63.5225 364.914 63.7143 364.398 64.0685C363.881 64.4226 363.483 64.9342 363.203 65.6031C362.922 66.272 362.743 67.0935 362.664 68.0674H362.811C363.195 67.3591 363.726 66.8377 364.405 66.5032C365.084 66.1688 365.812 66.0015 366.589 66.0015C367.474 66.0015 368.271 66.2081 368.979 66.6213C369.688 67.0344 370.248 67.6468 370.662 68.4584C371.075 69.27 371.281 70.2709 371.281 71.4612C371.281 72.6466 371.07 73.6697 370.647 74.5305C370.229 75.3913 369.641 76.0553 368.884 76.5225C368.131 76.9849 367.248 77.2161 366.235 77.2161C365.222 77.2161 364.334 76.9775 363.571 76.5004C362.809 76.0184 362.216 75.3052 361.793 74.3608C361.37 73.4115 361.159 72.2384 361.159 70.8415V69.6315C361.159 67.1082 361.587 65.1949 362.443 63.8914C363.303 62.588 364.597 61.9141 366.323 61.8698C366.933 61.8502 367.477 61.8452 367.954 61.8551C368.431 61.8649 368.847 61.8428 369.201 61.7887C369.555 61.7346 369.855 61.6042 370.101 61.3976ZM366.235 75.6519C366.919 75.6519 367.506 75.4798 367.998 75.1355C368.495 74.7912 368.876 74.3067 369.142 73.682C369.407 73.0524 369.54 72.3122 369.54 71.4612C369.54 70.6349 369.405 69.9315 369.134 69.3511C368.869 68.7707 368.488 68.328 367.991 68.0231C367.494 67.7181 366.899 67.5657 366.205 67.5657C365.699 67.5657 365.244 67.6517 364.84 67.8239C364.437 67.996 364.093 68.2493 363.808 68.5838C363.522 68.9183 363.301 69.3265 363.143 69.8086C362.991 70.2906 362.91 70.8415 362.9 71.4612C362.9 72.7303 363.198 73.746 363.793 74.5084C364.388 75.2707 365.202 75.6519 366.235 75.6519ZM375.45 69.7495H378.696C380.024 69.7495 381.04 70.0865 381.743 70.7603C382.447 71.4342 382.798 72.2876 382.798 73.3205C382.798 73.9993 382.641 74.6166 382.326 75.1724C382.011 75.7233 381.549 76.1635 380.939 76.493C380.329 76.8177 379.582 76.98 378.696 76.98H373.945V65.6474H375.686V75.3568H378.696C379.385 75.3568 379.951 75.1748 380.393 74.8108C380.836 74.4469 381.057 73.9796 381.057 73.409C381.057 72.809 380.836 72.3195 380.393 71.9408C379.951 71.5621 379.385 71.3727 378.696 71.3727H375.45V69.7495ZM384.599 76.98V65.6474H386.34V76.98H384.599ZM388.524 76.98V75.3568H388.937C389.276 75.3568 389.559 75.2904 389.785 75.1576C390.012 75.0199 390.194 74.7813 390.331 74.4419C390.474 74.0976 390.582 73.6205 390.656 73.0106C390.735 72.3958 390.791 71.6137 390.826 70.6644L391.032 65.6474H398.587V76.98H396.846V67.2705H392.685L392.508 71.3137C392.469 72.2433 392.385 73.0623 392.257 73.7706C392.134 74.4739 391.945 75.0642 391.689 75.5413C391.438 76.0184 391.104 76.3774 390.686 76.6185C390.267 76.8595 389.744 76.98 389.114 76.98H388.524ZM406.386 77.2161C405.363 77.2161 404.465 76.9726 403.693 76.4857C402.926 75.9987 402.326 75.3175 401.893 74.4419C401.465 73.5664 401.251 72.5433 401.251 71.3727C401.251 70.1922 401.465 69.1618 401.893 68.2813C402.326 67.4009 402.926 66.7172 403.693 66.2302C404.465 65.7433 405.363 65.4998 406.386 65.4998C407.409 65.4998 408.304 65.7433 409.072 66.2302C409.844 66.7172 410.444 67.4009 410.872 68.2813C411.305 69.1618 411.521 70.1922 411.521 71.3727C411.521 72.5433 411.305 73.5664 410.872 74.4419C410.444 75.3175 409.844 75.9987 409.072 76.4857C408.304 76.9726 407.409 77.2161 406.386 77.2161ZM406.386 75.6519C407.163 75.6519 407.803 75.4527 408.304 75.0543C408.806 74.6559 409.177 74.1321 409.418 73.4828C409.659 72.8335 409.78 72.1302 409.78 71.3727C409.78 70.6152 409.659 69.9094 409.418 69.2552C409.177 68.601 408.806 68.0723 408.304 67.6689C407.803 67.2656 407.163 67.064 406.386 67.064C405.609 67.064 404.969 67.2656 404.468 67.6689C403.966 68.0723 403.595 68.601 403.354 69.2552C403.113 69.9094 402.992 70.6152 402.992 71.3727C402.992 72.1302 403.113 72.8335 403.354 73.4828C403.595 74.1321 403.966 74.6559 404.468 75.0543C404.969 75.4527 405.609 75.6519 406.386 75.6519ZM420.022 76.98V65.6474H424.656C425.876 65.6474 426.845 65.9228 427.563 66.4737C428.281 67.0246 428.64 67.7526 428.64 68.6576C428.64 69.3462 428.436 69.8799 428.027 70.2586C427.619 70.6324 427.095 70.8858 426.456 71.0186C426.874 71.0776 427.28 71.2251 427.673 71.4612C428.072 71.6973 428.401 72.022 428.662 72.4351C428.923 72.8434 429.053 73.3451 429.053 73.9402C429.053 74.5206 428.905 75.0396 428.61 75.497C428.315 75.9544 427.892 76.316 427.341 76.5816C426.79 76.8472 426.131 76.98 425.364 76.98H420.022ZM421.675 75.3863H425.364C425.964 75.3863 426.434 75.2437 426.773 74.9584C427.113 74.6731 427.282 74.2846 427.282 73.7927C427.282 73.2074 427.113 72.7475 426.773 72.413C426.434 72.0736 425.964 71.9039 425.364 71.9039H421.675V75.3863ZM421.675 70.3988H424.656C425.123 70.3988 425.524 70.3349 425.858 70.207C426.193 70.0742 426.449 69.8873 426.626 69.6463C426.808 69.4003 426.899 69.1101 426.899 68.7756C426.899 68.2985 426.699 67.9247 426.301 67.6542C425.903 67.3787 425.354 67.241 424.656 67.241H421.675V70.3988ZM436.293 77.2161C435.27 77.2161 434.372 76.9726 433.6 76.4857C432.832 75.9987 432.232 75.3175 431.799 74.4419C431.372 73.5664 431.158 72.5433 431.158 71.3727C431.158 70.1922 431.372 69.1618 431.799 68.2813C432.232 67.4009 432.832 66.7172 433.6 66.2302C434.372 65.7433 435.27 65.4998 436.293 65.4998C437.316 65.4998 438.211 65.7433 438.978 66.2302C439.75 66.7172 440.351 67.4009 440.778 68.2813C441.211 69.1618 441.428 70.1922 441.428 71.3727C441.428 72.5433 441.211 73.5664 440.778 74.4419C440.351 75.3175 439.75 75.9987 438.978 76.4857C438.211 76.9726 437.316 77.2161 436.293 77.2161ZM436.293 75.6519C437.07 75.6519 437.709 75.4527 438.211 75.0543C438.713 74.6559 439.084 74.1321 439.325 73.4828C439.566 72.8335 439.687 72.1302 439.687 71.3727C439.687 70.6152 439.566 69.9094 439.325 69.2552C439.084 68.601 438.713 68.0723 438.211 67.6689C437.709 67.2656 437.07 67.064 436.293 67.064C435.515 67.064 434.876 67.2656 434.374 67.6689C433.873 68.0723 433.501 68.601 433.26 69.2552C433.019 69.9094 432.899 70.6152 432.899 71.3727C432.899 72.1302 433.019 72.8335 433.26 73.4828C433.501 74.1321 433.873 74.6559 434.374 75.0543C434.876 75.4527 435.515 75.6519 436.293 75.6519ZM448.69 77.2161C447.666 77.2161 446.769 76.9726 445.997 76.4857C445.229 75.9987 444.629 75.3175 444.196 74.4419C443.768 73.5664 443.554 72.5433 443.554 71.3727C443.554 70.1922 443.768 69.1618 444.196 68.2813C444.629 67.4009 445.229 66.7172 445.997 66.2302C446.769 65.7433 447.666 65.4998 448.69 65.4998C449.713 65.4998 450.608 65.7433 451.375 66.2302C452.147 66.7172 452.747 67.4009 453.175 68.2813C453.608 69.1618 453.825 70.1922 453.825 71.3727C453.825 72.5433 453.608 73.5664 453.175 74.4419C452.747 75.3175 452.147 75.9987 451.375 76.4857C450.608 76.9726 449.713 77.2161 448.69 77.2161ZM448.69 75.6519C449.467 75.6519 450.106 75.4527 450.608 75.0543C451.11 74.6559 451.481 74.1321 451.722 73.4828C451.963 72.8335 452.083 72.1302 452.083 71.3727C452.083 70.6152 451.963 69.9094 451.722 69.2552C451.481 68.601 451.11 68.0723 450.608 67.6689C450.106 67.2656 449.467 67.064 448.69 67.064C447.912 67.064 447.273 67.2656 446.771 67.6689C446.27 68.0723 445.898 68.601 445.657 69.2552C445.416 69.9094 445.296 70.6152 445.296 71.3727C445.296 72.1302 445.416 72.8335 445.657 73.4828C445.898 74.1321 446.27 74.6559 446.771 75.0543C447.273 75.4527 447.912 75.6519 448.69 75.6519ZM464.893 61.3976L465.779 62.4601C465.435 62.7945 465.036 63.0282 464.584 63.161C464.131 63.2938 463.62 63.375 463.049 63.4045C462.478 63.434 461.844 63.4635 461.145 63.493C460.358 63.5225 459.707 63.7143 459.19 64.0685C458.674 64.4226 458.275 64.9342 457.995 65.6031C457.715 66.272 457.535 67.0935 457.456 68.0674H457.604C457.988 67.3591 458.519 66.8377 459.198 66.5032C459.876 66.1688 460.604 66.0015 461.382 66.0015C462.267 66.0015 463.064 66.2081 463.772 66.6213C464.48 67.0344 465.041 67.6468 465.454 68.4584C465.867 69.27 466.074 70.2709 466.074 71.4612C466.074 72.6466 465.862 73.6697 465.439 74.5305C465.021 75.3913 464.434 76.0553 463.676 76.5225C462.924 76.9849 462.041 77.2161 461.027 77.2161C460.014 77.2161 459.126 76.9775 458.364 76.5004C457.602 76.0184 457.009 75.3052 456.586 74.3608C456.163 73.4115 455.951 72.2384 455.951 70.8415V69.6315C455.951 67.1082 456.379 65.1949 457.235 63.8914C458.096 62.588 459.389 61.9141 461.116 61.8698C461.726 61.8502 462.269 61.8452 462.746 61.8551C463.224 61.8649 463.639 61.8428 463.993 61.7887C464.347 61.7346 464.648 61.6042 464.893 61.3976ZM461.027 75.6519C461.711 75.6519 462.299 75.4798 462.791 75.1355C463.288 74.7912 463.669 74.3067 463.934 73.682C464.2 73.0524 464.333 72.3122 464.333 71.4612C464.333 70.6349 464.197 69.9315 463.927 69.3511C463.661 68.7707 463.28 68.328 462.783 68.0231C462.287 67.7181 461.691 67.5657 460.998 67.5657C460.491 67.5657 460.036 67.6517 459.633 67.8239C459.23 67.996 458.885 68.2493 458.6 68.5838C458.315 68.9183 458.093 69.3265 457.936 69.8086C457.784 70.2906 457.702 70.8415 457.693 71.4612C457.693 72.7303 457.99 73.746 458.585 74.5084C459.18 75.2707 459.994 75.6519 461.027 75.6519ZM484.202 75.3568L483.995 80.2263H482.195V76.98H480.719V75.3568H484.202ZM468.737 65.6474H470.479V75.3568H474.758V65.6474H476.499V75.3568H480.778V65.6474H482.519V76.98H468.737V65.6474ZM491.364 77.2161C490.272 77.2161 489.33 76.9751 488.538 76.493C487.751 76.0061 487.144 75.3273 486.716 74.4567C486.293 73.5812 486.081 72.563 486.081 71.4022C486.081 70.2414 486.293 69.2183 486.716 68.333C487.144 67.4427 487.739 66.7492 488.501 66.2524C489.269 65.7507 490.164 65.4998 491.187 65.4998C491.777 65.4998 492.36 65.5982 492.935 65.7949C493.511 65.9917 494.035 66.3114 494.507 66.7541C494.979 67.1918 495.355 67.7722 495.636 68.4953C495.916 69.2183 496.056 70.1086 496.056 71.1661V71.9039H487.321V70.3988H494.286C494.286 69.7594 494.158 69.1888 493.902 68.6871C493.651 68.1854 493.292 67.7895 492.825 67.4993C492.362 67.2091 491.816 67.064 491.187 67.064C490.493 67.064 489.893 67.2361 489.387 67.5804C488.885 67.9198 488.499 68.3625 488.228 68.9085C487.958 69.4544 487.822 70.0397 487.822 70.6644V71.6678C487.822 72.5237 487.97 73.2492 488.265 73.8443C488.565 74.4346 488.981 74.8846 489.512 75.1945C490.043 75.4995 490.661 75.6519 491.364 75.6519C491.821 75.6519 492.234 75.588 492.603 75.4601C492.977 75.3273 493.299 75.1306 493.57 74.8699C493.84 74.6043 494.049 74.2747 494.197 73.8812L495.879 74.3534C495.702 74.924 495.405 75.4257 494.986 75.8585C494.568 76.2864 494.052 76.6209 493.437 76.8619C492.822 77.098 492.131 77.2161 491.364 77.2161Z" fill="black"/>
<path d="M511.103 80.4708C510.37 80.4708 509.746 80.2714 509.23 79.8726C508.715 79.4706 508.321 78.8887 508.049 78.1268C507.776 77.3617 507.64 76.4378 507.64 75.355C507.64 74.2787 507.776 73.3596 508.049 72.5977C508.324 71.8326 508.72 71.2491 509.235 70.8471C509.754 70.4418 510.376 70.2392 511.103 70.2392C511.829 70.2392 512.45 70.4418 512.965 70.8471C513.484 71.2491 513.879 71.8326 514.152 72.5977C514.427 73.3596 514.565 74.2787 514.565 75.355C514.565 76.4378 514.429 77.3617 514.156 78.1268C513.884 78.8887 513.49 79.4706 512.975 79.8726C512.459 80.2714 511.835 80.4708 511.103 80.4708ZM511.103 79.4009C511.829 79.4009 512.393 79.0508 512.795 78.3505C513.197 77.6503 513.398 76.6518 513.398 75.355C513.398 74.4926 513.305 73.7583 513.121 73.1521C512.939 72.5459 512.677 72.0839 512.333 71.7662C511.993 71.4485 511.582 71.2896 511.103 71.2896C510.383 71.2896 509.82 71.6446 509.415 72.3546C509.01 73.0613 508.807 74.0615 508.807 75.355C508.807 76.2173 508.898 76.95 509.08 77.553C509.261 78.156 509.522 78.6147 509.863 78.9292C510.206 79.2437 510.62 79.4009 511.103 79.4009ZM519.329 80.4708C518.661 80.4708 518.071 80.3524 517.559 80.1158C517.05 79.8759 516.653 79.5468 516.368 79.1286C516.082 78.7071 515.941 78.2273 515.944 77.6892C515.941 77.2677 516.024 76.8787 516.192 76.5221C516.361 76.1622 516.591 75.8623 516.883 75.6224C517.178 75.3793 517.507 75.2253 517.87 75.1605V75.1021C517.394 74.9789 517.014 74.7115 516.732 74.2997C516.45 73.8848 516.311 73.4131 516.314 72.8846C516.311 72.3789 516.439 71.9266 516.698 71.5279C516.958 71.1291 517.314 70.8147 517.768 70.5845C518.225 70.3543 518.746 70.2392 519.329 70.2392C519.906 70.2392 520.422 70.3543 520.875 70.5845C521.329 70.8147 521.686 71.1291 521.945 71.5279C522.208 71.9266 522.341 72.3789 522.344 72.8846C522.341 73.4131 522.197 73.8848 521.911 74.2997C521.629 74.7115 521.255 74.9789 520.788 75.1021V75.1605C521.148 75.2253 521.472 75.3793 521.761 75.6224C522.049 75.8623 522.279 76.1622 522.451 76.5221C522.623 76.8787 522.71 77.2677 522.714 77.6892C522.71 78.2273 522.565 78.7071 522.276 79.1286C521.991 79.5468 521.594 79.8759 521.085 80.1158C520.579 80.3524 519.994 80.4708 519.329 80.4708ZM519.329 79.4009C519.78 79.4009 520.169 79.328 520.496 79.1821C520.824 79.0362 521.076 78.8303 521.255 78.5645C521.433 78.2987 521.524 77.9874 521.527 77.6308C521.524 77.2548 521.427 76.9225 521.235 76.6339C521.044 76.3454 520.783 76.1185 520.452 75.9531C520.125 75.7878 519.751 75.7051 519.329 75.7051C518.904 75.7051 518.525 75.7878 518.191 75.9531C517.86 76.1185 517.599 76.3454 517.408 76.6339C517.22 76.9225 517.128 77.2548 517.131 77.6308C517.128 77.9874 517.214 78.2987 517.389 78.5645C517.567 78.8303 517.822 79.0362 518.152 79.1821C518.483 79.328 518.875 79.4009 519.329 79.4009ZM519.329 74.6742C519.686 74.6742 520.002 74.6029 520.277 74.4602C520.556 74.3176 520.775 74.1182 520.934 73.8621C521.093 73.606 521.174 73.3061 521.177 72.9624C521.174 72.6253 521.094 72.3319 520.939 72.0823C520.783 71.8294 520.567 71.6349 520.292 71.4987C520.016 71.3593 519.695 71.2896 519.329 71.2896C518.956 71.2896 518.63 71.3593 518.352 71.4987C518.073 71.6349 517.857 71.8294 517.705 72.0823C517.552 72.3319 517.478 72.6253 517.481 72.9624C517.478 73.3061 517.554 73.606 517.71 73.8621C517.869 74.1182 518.087 74.3176 518.366 74.4602C518.645 74.6029 518.966 74.6742 519.329 74.6742ZM525.159 79.0605C524.919 79.0605 524.714 78.9746 524.542 78.8028C524.37 78.631 524.284 78.4251 524.284 78.1852C524.284 77.9453 524.37 77.7394 524.542 77.5676C524.714 77.3958 524.919 77.3099 525.159 77.3099C525.399 77.3099 525.605 77.3958 525.777 77.5676C525.949 77.7394 526.035 77.9453 526.035 78.1852C526.035 78.344 525.994 78.4899 525.913 78.6229C525.835 78.7558 525.73 78.8628 525.597 78.9438C525.467 79.0216 525.321 79.0605 525.159 79.0605ZM525.159 74.0226C524.919 74.0226 524.714 73.9366 524.542 73.7648C524.37 73.593 524.284 73.3871 524.284 73.1472C524.284 72.9073 524.37 72.7015 524.542 72.5296C524.714 72.3578 524.919 72.2719 525.159 72.2719C525.399 72.2719 525.605 72.3578 525.777 72.5296C525.949 72.7015 526.035 72.9073 526.035 73.1472C526.035 73.3061 525.994 73.452 525.913 73.5849C525.835 73.7178 525.73 73.8248 525.597 73.9058C525.467 73.9836 525.321 74.0226 525.159 74.0226ZM527.567 78.2922V77.3001L531.944 70.3754H532.664V71.9121H532.177L528.871 77.1445V77.2223H534.764V78.2922H527.567ZM532.255 80.3346V77.9907V77.5287V70.3754H533.403V80.3346H532.255ZM539.68 70.3754V80.3346H538.474V71.6397H538.416L535.985 73.2542V72.0288L538.474 70.3754H539.68Z" fill="#4200FF"/>
<path fill-rule="evenodd" clip-rule="evenodd" d="M559.8 71.4385C560.028 71.6581 560.034 72.0204 559.814 72.2478L550.906 81.4741C550.796 81.5886 550.642 81.6519 550.483 81.6488C550.324 81.6457 550.174 81.5764 550.068 81.4577L546.091 77.0036C545.88 76.7678 545.901 76.406 546.136 76.1955C546.372 75.985 546.734 76.0054 546.945 76.2412L550.511 80.2355L558.991 71.4527C559.21 71.2253 559.573 71.219 559.8 71.4385Z" fill="#4200FF"/>
<path fill-rule="evenodd" clip-rule="evenodd" d="M562.855 71.3593C563.082 71.5789 563.089 71.9412 562.869 72.1686L553.961 81.3948C553.85 81.5093 553.697 81.5726 553.538 81.5695C553.379 81.5664 553.228 81.4972 553.122 81.3785L549.145 76.9244C548.935 76.6886 548.955 76.3268 549.191 76.1163C549.427 75.9057 549.789 75.9262 549.999 76.162L553.566 80.1563L562.046 71.3735C562.265 71.1461 562.627 71.1397 562.855 71.3593Z" fill="#4200FF"/>
<path opacity="0.8" d="M147.956 118C147.956 116.974 147.956 116.461 147.937 116.027C147.487 105.721 139.235 97.4689 128.929 97.0189C128.495 97 127.982 97 126.956 97H41.8311C35.4388 97 32.2426 97 29.6105 97.6593C21.7361 99.6317 15.5878 105.78 13.6154 113.654C12.9561 116.287 12.9561 119.483 12.9561 125.875C12.9561 128.781 12.9561 130.233 13.2557 131.43C14.1523 135.009 16.947 137.804 20.5263 138.7C21.7227 139 23.1755 139 26.0811 139H126.956C127.982 139 128.495 139 128.929 138.981C139.235 138.531 147.487 130.279 147.937 119.973C147.956 119.539 147.956 119.026 147.956 118Z" fill="#BCA4FF"/>
<path d="M100.019 128.937C99.323 128.937 98.7306 128.748 98.2412 128.369C97.7519 127.987 97.3779 127.435 97.1194 126.712C96.8609 125.985 96.7316 125.108 96.7316 124.08C96.7316 123.059 96.8609 122.186 97.1194 121.463C97.381 120.736 97.7565 120.182 98.2458 119.801C98.7383 119.416 99.3292 119.224 100.019 119.224C100.708 119.224 101.297 119.416 101.787 119.801C102.279 120.182 102.655 120.736 102.913 121.463C103.175 122.186 103.305 123.059 103.305 124.08C103.305 125.108 103.176 125.985 102.918 126.712C102.659 127.435 102.285 127.987 101.796 128.369C101.307 128.748 100.714 128.937 100.019 128.937ZM100.019 127.921C100.708 127.921 101.243 127.589 101.625 126.924C102.007 126.259 102.198 125.311 102.198 124.08C102.198 123.262 102.11 122.565 101.934 121.989C101.762 121.414 101.513 120.975 101.187 120.673C100.863 120.372 100.474 120.221 100.019 120.221C99.3353 120.221 98.8013 120.558 98.4166 121.232C98.0319 121.903 97.8396 122.852 97.8396 124.08C97.8396 124.899 97.9258 125.595 98.0981 126.167C98.2704 126.739 98.5182 127.175 98.8414 127.473C99.1676 127.772 99.56 127.921 100.019 127.921ZM107.828 128.937C107.194 128.937 106.634 128.825 106.148 128.6C105.665 128.372 105.288 128.06 105.017 127.663C104.746 127.263 104.612 126.807 104.615 126.296C104.612 125.896 104.69 125.527 104.851 125.188C105.011 124.847 105.229 124.562 105.506 124.334C105.786 124.103 106.099 123.957 106.443 123.896V123.84C105.991 123.723 105.631 123.469 105.363 123.079C105.095 122.685 104.963 122.237 104.966 121.735C104.963 121.255 105.084 120.826 105.331 120.447C105.577 120.069 105.915 119.77 106.346 119.552C106.78 119.333 107.274 119.224 107.828 119.224C108.376 119.224 108.865 119.333 109.296 119.552C109.727 119.77 110.066 120.069 110.312 120.447C110.561 120.826 110.687 121.255 110.69 121.735C110.687 122.237 110.55 122.685 110.28 123.079C110.012 123.469 109.656 123.723 109.213 123.84V123.896C109.555 123.957 109.862 124.103 110.136 124.334C110.41 124.562 110.629 124.847 110.792 125.188C110.955 125.527 111.038 125.896 111.041 126.296C111.038 126.807 110.9 127.263 110.626 127.663C110.355 128.06 109.978 128.372 109.495 128.6C109.015 128.825 108.459 128.937 107.828 128.937ZM107.828 127.921C108.256 127.921 108.625 127.852 108.936 127.714C109.247 127.575 109.487 127.38 109.656 127.127C109.826 126.875 109.912 126.579 109.915 126.241C109.912 125.884 109.819 125.568 109.638 125.294C109.456 125.021 109.208 124.805 108.895 124.648C108.584 124.491 108.228 124.413 107.828 124.413C107.425 124.413 107.065 124.491 106.748 124.648C106.434 124.805 106.186 125.021 106.005 125.294C105.826 125.568 105.738 125.884 105.742 126.241C105.738 126.579 105.82 126.875 105.986 127.127C106.155 127.38 106.397 127.575 106.711 127.714C107.025 127.852 107.397 127.921 107.828 127.921ZM107.828 123.434C108.167 123.434 108.467 123.366 108.728 123.231C108.993 123.095 109.201 122.906 109.352 122.663C109.502 122.42 109.579 122.135 109.582 121.809C109.579 121.489 109.504 121.21 109.356 120.973C109.208 120.733 109.004 120.549 108.742 120.419C108.481 120.287 108.176 120.221 107.828 120.221C107.474 120.221 107.165 120.287 106.9 120.419C106.636 120.549 106.431 120.733 106.286 120.973C106.142 121.21 106.071 121.489 106.074 121.809C106.071 122.135 106.143 122.42 106.291 122.663C106.442 122.906 106.649 123.095 106.914 123.231C107.179 123.366 107.483 123.434 107.828 123.434ZM113.363 127.598C113.135 127.598 112.94 127.517 112.777 127.353C112.614 127.19 112.532 126.995 112.532 126.767C112.532 126.539 112.614 126.344 112.777 126.181C112.94 126.018 113.135 125.936 113.363 125.936C113.591 125.936 113.786 126.018 113.949 126.181C114.112 126.344 114.194 126.539 114.194 126.767C114.194 126.918 114.155 127.056 114.079 127.183C114.005 127.309 113.905 127.41 113.778 127.487C113.655 127.561 113.517 127.598 113.363 127.598ZM113.363 122.815C113.135 122.815 112.94 122.734 112.777 122.571C112.614 122.408 112.532 122.212 112.532 121.984C112.532 121.757 112.614 121.561 112.777 121.398C112.94 121.235 113.135 121.153 113.363 121.153C113.591 121.153 113.786 121.235 113.949 121.398C114.112 121.561 114.194 121.757 114.194 121.984C114.194 122.135 114.155 122.274 114.079 122.4C114.005 122.526 113.905 122.628 113.778 122.705C113.655 122.778 113.517 122.815 113.363 122.815ZM115.649 126.869V125.927L119.804 119.353H120.487V120.812H120.025L116.886 125.779V125.853H122.481V126.869H115.649ZM120.099 128.808V126.582V126.144V119.353H121.189V128.808H120.099ZM127.091 128.937C126.703 128.931 126.315 128.857 125.927 128.715C125.539 128.574 125.186 128.335 124.865 128C124.545 127.661 124.288 127.204 124.094 126.629C123.901 126.05 123.804 125.324 123.804 124.45C123.804 123.613 123.882 122.871 124.039 122.225C124.196 121.575 124.424 121.029 124.722 120.586C125.021 120.139 125.381 119.801 125.803 119.57C126.227 119.339 126.706 119.224 127.238 119.224C127.768 119.224 128.239 119.33 128.651 119.542C129.066 119.752 129.405 120.044 129.667 120.419C129.928 120.795 130.097 121.227 130.174 121.717H129.048C128.943 121.292 128.74 120.94 128.439 120.66C128.137 120.379 127.737 120.239 127.238 120.239C126.506 120.239 125.929 120.558 125.507 121.195C125.089 121.832 124.878 122.726 124.875 123.877H124.949C125.121 123.616 125.326 123.392 125.563 123.208C125.803 123.02 126.067 122.875 126.357 122.774C126.646 122.672 126.952 122.622 127.275 122.622C127.817 122.622 128.312 122.757 128.762 123.028C129.211 123.296 129.571 123.666 129.842 124.14C130.113 124.611 130.248 125.151 130.248 125.761C130.248 126.345 130.117 126.881 129.856 127.367C129.594 127.85 129.226 128.235 128.753 128.521C128.282 128.805 127.728 128.943 127.091 128.937ZM127.091 127.921C127.478 127.921 127.826 127.824 128.134 127.63C128.445 127.437 128.689 127.176 128.868 126.85C129.05 126.524 129.14 126.161 129.14 125.761C129.14 125.37 129.053 125.014 128.877 124.694C128.705 124.371 128.466 124.114 128.162 123.923C127.86 123.733 127.515 123.637 127.128 123.637C126.835 123.637 126.563 123.696 126.31 123.813C126.058 123.926 125.836 124.083 125.646 124.283C125.458 124.484 125.31 124.713 125.202 124.971C125.095 125.227 125.041 125.496 125.041 125.779C125.041 126.155 125.129 126.506 125.304 126.832C125.483 127.158 125.726 127.421 126.033 127.621C126.344 127.821 126.697 127.921 127.091 127.921Z" fill="#4200FF"/>
<path d="M32.7174 125V110.455H34.4788V116.932H42.2345V110.455H43.9958V125H42.2345V118.494H34.4788V125H32.7174ZM48.3744 129.091C48.0903 129.091 47.837 129.067 47.6144 129.02C47.3919 128.977 47.238 128.935 47.1528 128.892L47.5789 127.415C47.9861 127.519 48.346 127.557 48.6585 127.528C48.971 127.5 49.248 127.36 49.4894 127.109C49.7356 126.863 49.9606 126.463 50.1642 125.909L50.4767 125.057L46.4426 114.091H48.2607L51.2721 122.784H51.3857L54.3971 114.091H56.2153L51.5846 126.591C51.3763 127.154 51.1182 127.621 50.8105 127.99C50.5027 128.364 50.1452 128.641 49.738 128.821C49.3356 129.001 48.881 129.091 48.3744 129.091ZM68.4845 125.227C67.4996 125.227 66.6355 124.993 65.8921 124.524C65.1535 124.055 64.5758 123.4 64.1592 122.557C63.7472 121.714 63.5413 120.729 63.5413 119.602C63.5413 118.466 63.7472 117.474 64.1592 116.626C64.5758 115.779 65.1535 115.121 65.8921 114.652C66.6355 114.183 67.4996 113.949 68.4845 113.949C69.4693 113.949 70.3311 114.183 71.0697 114.652C71.8131 115.121 72.3907 115.779 72.8026 116.626C73.2193 117.474 73.4276 118.466 73.4276 119.602C73.4276 120.729 73.2193 121.714 72.8026 122.557C72.3907 123.4 71.8131 124.055 71.0697 124.524C70.3311 124.993 69.4693 125.227 68.4845 125.227ZM68.4845 123.722C69.2326 123.722 69.8481 123.53 70.3311 123.146C70.814 122.763 71.1715 122.259 71.4035 121.634C71.6355 121.009 71.7515 120.331 71.7515 119.602C71.7515 118.873 71.6355 118.194 71.4035 117.564C71.1715 116.934 70.814 116.425 70.3311 116.037C69.8481 115.649 69.2326 115.455 68.4845 115.455C67.7364 115.455 67.1208 115.649 66.6379 116.037C66.1549 116.425 65.7974 116.934 65.5654 117.564C65.3334 118.194 65.2174 118.873 65.2174 119.602C65.2174 120.331 65.3334 121.009 65.5654 121.634C65.7974 122.259 66.1549 122.763 66.6379 123.146C67.1208 123.53 67.7364 123.722 68.4845 123.722ZM75.9862 125V114.091H77.6624V118.835H78.7703L82.6908 114.091H84.8499L80.4465 119.347L84.9067 125H82.7476L79.1681 120.398H77.6624V125H75.9862Z" fill="black"/>
<path opacity="0.8" fill-rule="evenodd" clip-rule="evenodd" d="M341.937 163.027C341.956 163.461 341.956 163.974 341.956 165C341.956 166.026 341.956 166.539 341.937 166.973C341.487 177.279 333.235 185.531 322.929 185.981C322.495 186 321.982 186 320.956 186H35.4489C32.6493 186 31.2495 186 30.0727 185.859C27.8908 185.598 25.8195 184.988 23.9158 184.086C23.4312 184.236 22.936 184.376 22.4334 184.503C16.1613 186.09 0 185.999 0 185.999C0 185.999 8.81949 184.503 12.0969 177.686C12.6264 176.585 13.0103 174.19 13.2864 171.509C13.009 170.524 12.805 169.508 12.6805 168.467C12.5399 167.29 12.5399 165.891 12.5399 163.091C12.5399 160.758 12.5399 159.591 12.6571 158.611C13.5654 151.014 19.554 145.026 27.1506 144.117C28.1312 144 29.2977 144 31.6308 144H320.956C321.982 144 322.495 144 322.929 144.019C333.235 144.469 341.487 152.721 341.937 163.027Z" fill="#BCA4FF"/>
<path d="M296.019 175.937C295.323 175.937 294.731 175.748 294.241 175.369C293.752 174.987 293.378 174.435 293.119 173.712C292.861 172.985 292.732 172.108 292.732 171.08C292.732 170.059 292.861 169.186 293.119 168.463C293.381 167.736 293.756 167.182 294.246 166.801C294.738 166.416 295.329 166.224 296.019 166.224C296.708 166.224 297.297 166.416 297.787 166.801C298.279 167.182 298.655 167.736 298.913 168.463C299.175 169.186 299.305 170.059 299.305 171.08C299.305 172.108 299.176 172.985 298.918 173.712C298.659 174.435 298.285 174.987 297.796 175.369C297.307 175.748 296.714 175.937 296.019 175.937ZM296.019 174.921C296.708 174.921 297.243 174.589 297.625 173.924C298.007 173.259 298.198 172.311 298.198 171.08C298.198 170.262 298.11 169.565 297.934 168.989C297.762 168.414 297.513 167.975 297.187 167.673C296.863 167.372 296.474 167.221 296.019 167.221C295.335 167.221 294.801 167.558 294.417 168.232C294.032 168.903 293.84 169.852 293.84 171.08C293.84 171.899 293.926 172.595 294.098 173.167C294.27 173.739 294.518 174.175 294.841 174.473C295.168 174.772 295.56 174.921 296.019 174.921ZM303.828 175.937C303.194 175.937 302.634 175.825 302.148 175.6C301.665 175.372 301.288 175.06 301.017 174.663C300.746 174.263 300.612 173.807 300.615 173.296C300.612 172.896 300.69 172.527 300.851 172.188C301.011 171.847 301.229 171.562 301.506 171.334C301.786 171.103 302.099 170.957 302.443 170.896V170.84C301.991 170.723 301.631 170.469 301.363 170.079C301.095 169.685 300.963 169.237 300.966 168.735C300.963 168.255 301.084 167.826 301.331 167.447C301.577 167.069 301.915 166.77 302.346 166.552C302.78 166.333 303.274 166.224 303.828 166.224C304.376 166.224 304.865 166.333 305.296 166.552C305.727 166.77 306.066 167.069 306.312 167.447C306.561 167.826 306.687 168.255 306.69 168.735C306.687 169.237 306.55 169.685 306.28 170.079C306.012 170.469 305.656 170.723 305.213 170.84V170.896C305.555 170.957 305.862 171.103 306.136 171.334C306.41 171.562 306.629 171.847 306.792 172.188C306.955 172.527 307.038 172.896 307.041 173.296C307.038 173.807 306.9 174.263 306.626 174.663C306.355 175.06 305.978 175.372 305.495 175.6C305.015 175.825 304.459 175.937 303.828 175.937ZM303.828 174.921C304.256 174.921 304.625 174.852 304.936 174.714C305.247 174.575 305.487 174.38 305.656 174.127C305.826 173.875 305.912 173.579 305.915 173.241C305.912 172.884 305.819 172.568 305.638 172.294C305.456 172.021 305.208 171.805 304.895 171.648C304.584 171.491 304.228 171.413 303.828 171.413C303.425 171.413 303.065 171.491 302.748 171.648C302.434 171.805 302.186 172.021 302.005 172.294C301.826 172.568 301.738 172.884 301.742 173.241C301.738 173.579 301.82 173.875 301.986 174.127C302.155 174.38 302.397 174.575 302.711 174.714C303.025 174.852 303.397 174.921 303.828 174.921ZM303.828 170.434C304.167 170.434 304.467 170.366 304.728 170.231C304.993 170.095 305.201 169.906 305.352 169.663C305.502 169.42 305.579 169.135 305.582 168.809C305.579 168.489 305.504 168.21 305.356 167.973C305.208 167.733 305.004 167.549 304.742 167.419C304.481 167.287 304.176 167.221 303.828 167.221C303.474 167.221 303.165 167.287 302.9 167.419C302.636 167.549 302.431 167.733 302.286 167.973C302.142 168.21 302.071 168.489 302.074 168.809C302.071 169.135 302.143 169.42 302.291 169.663C302.442 169.906 302.649 170.095 302.914 170.231C303.179 170.366 303.483 170.434 303.828 170.434ZM309.363 174.598C309.135 174.598 308.94 174.517 308.777 174.353C308.614 174.19 308.532 173.995 308.532 173.767C308.532 173.539 308.614 173.344 308.777 173.181C308.94 173.018 309.135 172.936 309.363 172.936C309.591 172.936 309.786 173.018 309.949 173.181C310.112 173.344 310.194 173.539 310.194 173.767C310.194 173.918 310.155 174.056 310.079 174.183C310.005 174.309 309.905 174.41 309.778 174.487C309.655 174.561 309.517 174.598 309.363 174.598ZM309.363 169.815C309.135 169.815 308.94 169.734 308.777 169.571C308.614 169.408 308.532 169.212 308.532 168.984C308.532 168.757 308.614 168.561 308.777 168.398C308.94 168.235 309.135 168.153 309.363 168.153C309.591 168.153 309.786 168.235 309.949 168.398C310.112 168.561 310.194 168.757 310.194 168.984C310.194 169.135 310.155 169.274 310.079 169.4C310.005 169.526 309.905 169.628 309.778 169.705C309.655 169.778 309.517 169.815 309.363 169.815ZM311.649 173.869V172.927L315.804 166.353H316.487V167.812H316.025L312.886 172.779V172.853H318.481V173.869H311.649ZM316.099 175.808V173.582V173.144V166.353H317.189V175.808H316.099ZM323.091 175.937C322.703 175.931 322.315 175.857 321.927 175.715C321.539 175.574 321.186 175.335 320.865 175C320.545 174.661 320.288 174.204 320.094 173.629C319.901 173.05 319.804 172.324 319.804 171.45C319.804 170.613 319.882 169.871 320.039 169.225C320.196 168.575 320.424 168.029 320.722 167.586C321.021 167.139 321.381 166.801 321.803 166.57C322.227 166.339 322.706 166.224 323.238 166.224C323.768 166.224 324.239 166.33 324.651 166.542C325.066 166.752 325.405 167.044 325.667 167.419C325.928 167.795 326.097 168.227 326.174 168.717H325.048C324.943 168.292 324.74 167.94 324.439 167.66C324.137 167.379 323.737 167.239 323.238 167.239C322.506 167.239 321.929 167.558 321.507 168.195C321.089 168.832 320.878 169.726 320.875 170.877H320.949C321.121 170.616 321.326 170.392 321.563 170.208C321.803 170.02 322.067 169.875 322.357 169.774C322.646 169.672 322.952 169.622 323.275 169.622C323.817 169.622 324.312 169.757 324.762 170.028C325.211 170.296 325.571 170.666 325.842 171.14C326.113 171.611 326.248 172.151 326.248 172.761C326.248 173.345 326.117 173.881 325.856 174.367C325.594 174.85 325.226 175.235 324.753 175.521C324.282 175.805 323.728 175.943 323.091 175.937ZM323.091 174.921C323.478 174.921 323.826 174.824 324.134 174.63C324.445 174.437 324.689 174.176 324.868 173.85C325.05 173.524 325.14 173.161 325.14 172.761C325.14 172.37 325.053 172.014 324.877 171.694C324.705 171.371 324.466 171.114 324.162 170.923C323.86 170.733 323.515 170.637 323.128 170.637C322.835 170.637 322.563 170.696 322.31 170.813C322.058 170.926 321.836 171.083 321.646 171.283C321.458 171.484 321.31 171.713 321.202 171.971C321.095 172.227 321.041 172.496 321.041 172.779C321.041 173.155 321.129 173.506 321.304 173.832C321.483 174.158 321.726 174.421 322.033 174.621C322.344 174.821 322.697 174.921 323.091 174.921Z" fill="#4200FF"/>
<path d="M26.7174 172V157.455H31.8026C32.8159 157.455 33.6516 157.63 34.3097 157.98C34.9679 158.326 35.4579 158.792 35.7799 159.379C36.1019 159.962 36.2629 160.608 36.2629 161.318C36.2629 161.943 36.1516 162.459 35.9291 162.866C35.7113 163.274 35.4224 163.596 35.0626 163.832C34.7075 164.069 34.3216 164.244 33.9049 164.358V164.5C34.35 164.528 34.7974 164.685 35.2472 164.969C35.6971 165.253 36.0735 165.66 36.3765 166.19C36.6795 166.721 36.8311 167.369 36.8311 168.136C36.8311 168.866 36.6653 169.521 36.3339 170.104C36.0025 170.686 35.4793 171.148 34.7643 171.489C34.0493 171.83 33.1189 172 31.9731 172H26.7174ZM28.4788 170.438H31.9731C33.1237 170.438 33.9404 170.215 34.4234 169.77C34.9111 169.32 35.1549 168.776 35.1549 168.136C35.1549 167.644 35.0294 167.189 34.7785 166.773C34.5276 166.351 34.1701 166.015 33.7061 165.764C33.242 165.509 32.6928 165.381 32.0583 165.381H28.4788V170.438ZM28.4788 163.847H31.7458C32.2761 163.847 32.7544 163.742 33.1805 163.534C33.6114 163.326 33.9523 163.032 34.2032 162.653C34.4589 162.275 34.5867 161.83 34.5867 161.318C34.5867 160.679 34.3642 160.137 33.9191 159.692C33.474 159.242 32.7686 159.017 31.8026 159.017H28.4788V163.847ZM44.0718 172.227C43.0207 172.227 42.114 171.995 41.3517 171.531C40.5941 171.062 40.0093 170.409 39.5974 169.571C39.1902 168.728 38.9866 167.748 38.9866 166.631C38.9866 165.513 39.1902 164.528 39.5974 163.676C40.0093 162.819 40.5822 162.152 41.3161 161.673C42.0548 161.19 42.9165 160.949 43.9014 160.949C44.4695 160.949 45.0306 161.044 45.5846 161.233C46.1386 161.422 46.6428 161.73 47.0974 162.156C47.5519 162.578 47.9142 163.136 48.184 163.832C48.4539 164.528 48.5889 165.385 48.5889 166.403V167.114H40.1798V165.665H46.8843C46.8843 165.049 46.7612 164.5 46.515 164.017C46.2735 163.534 45.9279 163.153 45.4781 162.874C45.033 162.594 44.5074 162.455 43.9014 162.455C43.2338 162.455 42.6561 162.62 42.1684 162.952C41.6855 163.278 41.3138 163.705 41.0534 164.23C40.7929 164.756 40.6627 165.319 40.6627 165.92V166.886C40.6627 167.71 40.8048 168.409 41.0889 168.982C41.3777 169.55 41.7778 169.983 42.2892 170.281C42.8005 170.575 43.3947 170.722 44.0718 170.722C44.5122 170.722 44.9099 170.66 45.265 170.537C45.6249 170.409 45.935 170.22 46.1954 169.969C46.4558 169.713 46.657 169.396 46.7991 169.017L48.4184 169.472C48.248 170.021 47.9615 170.504 47.559 170.92C47.1566 171.332 46.6594 171.654 46.0676 171.886C45.4757 172.114 44.8105 172.227 44.0718 172.227ZM51.1386 176.091V161.091H52.7579V162.824H52.9568C53.0799 162.634 53.2503 162.393 53.4681 162.099C53.6907 161.801 54.0079 161.536 54.4198 161.304C54.8365 161.067 55.3999 160.949 56.1102 160.949C57.0287 160.949 57.8384 161.179 58.5392 161.638C59.2399 162.097 59.7868 162.748 60.1798 163.591C60.5728 164.434 60.7693 165.428 60.7693 166.574C60.7693 167.729 60.5728 168.731 60.1798 169.578C59.7868 170.421 59.2423 171.074 58.5463 171.538C57.8502 171.998 57.0477 172.227 56.1386 172.227C55.4378 172.227 54.8767 172.111 54.4553 171.879C54.0339 171.643 53.7096 171.375 53.4823 171.077C53.2551 170.774 53.0799 170.523 52.9568 170.324H52.8147V176.091H51.1386ZM52.7863 166.545C52.7863 167.369 52.907 168.096 53.1485 168.726C53.39 169.351 53.7427 169.841 54.2068 170.196C54.6708 170.546 55.239 170.722 55.9113 170.722C56.6121 170.722 57.1968 170.537 57.6656 170.168C58.1391 169.794 58.4942 169.292 58.7309 168.662C58.9724 168.027 59.0931 167.322 59.0931 166.545C59.0931 165.778 58.9748 165.087 58.738 164.472C58.506 163.851 58.1533 163.361 57.6798 163.001C57.211 162.637 56.6215 162.455 55.9113 162.455C55.2295 162.455 54.6566 162.627 54.1926 162.973C53.7285 163.314 53.3782 163.792 53.1414 164.408C52.9047 165.018 52.7863 165.731 52.7863 166.545ZM70.6272 165.778V167.341H64.6045V165.778H70.6272ZM65.0022 161.091V172H63.3261V161.091H65.0022ZM71.9056 161.091V172H70.2295V161.091H71.9056ZM75.6556 176.091C75.3715 176.091 75.1182 176.067 74.8957 176.02C74.6731 175.977 74.5193 175.935 74.434 175.892L74.8602 174.415C75.2674 174.519 75.6272 174.557 75.9397 174.528C76.2522 174.5 76.5292 174.36 76.7707 174.109C77.0169 173.863 77.2418 173.463 77.4454 172.909L77.7579 172.057L73.7238 161.091H75.542L78.5534 169.784H78.667L81.6784 161.091H83.4965L78.8659 173.591C78.6575 174.154 78.3995 174.621 78.0917 174.99C77.7839 175.364 77.4265 175.641 77.0193 175.821C76.6168 176.001 76.1623 176.091 75.6556 176.091ZM89.7501 172.227C88.7274 172.227 87.8467 171.986 87.108 171.503C86.3694 171.02 85.8012 170.355 85.4035 169.507C85.0058 168.66 84.8069 167.691 84.8069 166.602C84.8069 165.494 85.0105 164.517 85.4177 163.669C85.8296 162.817 86.4026 162.152 87.1365 161.673C87.8751 161.19 88.7368 160.949 89.7217 160.949C90.4887 160.949 91.18 161.091 91.7955 161.375C92.4111 161.659 92.9153 162.057 93.3083 162.568C93.7013 163.08 93.9452 163.676 94.0399 164.358H92.3637C92.2359 163.861 91.9518 163.42 91.5115 163.037C91.0758 162.649 90.4887 162.455 89.7501 162.455C89.0967 162.455 88.5238 162.625 88.0313 162.966C87.5436 163.302 87.1625 163.778 86.8879 164.393C86.618 165.004 86.483 165.722 86.483 166.545C86.483 167.388 86.6156 168.122 86.8808 168.747C87.1507 169.372 87.5294 169.857 88.0171 170.203C88.5096 170.549 89.0872 170.722 89.7501 170.722C90.1857 170.722 90.5811 170.646 90.9362 170.494C91.2913 170.343 91.5919 170.125 91.8382 169.841C92.0844 169.557 92.2596 169.216 92.3637 168.818H94.0399C93.9452 169.462 93.7108 170.042 93.3367 170.558C92.9674 171.07 92.4774 171.477 91.8666 171.78C91.2605 172.078 90.555 172.227 89.7501 172.227ZM97.939 165.04H101.064C102.342 165.04 103.32 165.364 103.997 166.013C104.674 166.661 105.013 167.483 105.013 168.477C105.013 169.131 104.861 169.725 104.558 170.26C104.255 170.79 103.81 171.214 103.223 171.531C102.636 171.844 101.916 172 101.064 172H96.4901V161.091H98.1663V170.438H101.064C101.727 170.438 102.271 170.262 102.698 169.912C103.124 169.562 103.337 169.112 103.337 168.562C103.337 167.985 103.124 167.514 102.698 167.149C102.271 166.785 101.727 166.602 101.064 166.602H97.939V165.04ZM120.491 165.778V167.341H114.468V165.778H120.491ZM114.866 161.091V172H113.189V161.091H114.866ZM121.769 161.091V172H120.093V161.091H121.769ZM128.04 172.256C127.349 172.256 126.722 172.125 126.158 171.865C125.595 171.6 125.147 171.219 124.816 170.722C124.484 170.22 124.319 169.614 124.319 168.903C124.319 168.278 124.442 167.772 124.688 167.384C124.934 166.991 125.263 166.683 125.675 166.46C126.087 166.238 126.542 166.072 127.039 165.963C127.541 165.849 128.045 165.759 128.552 165.693C129.214 165.608 129.752 165.544 130.164 165.501C130.58 165.454 130.883 165.376 131.073 165.267C131.267 165.158 131.364 164.969 131.364 164.699V164.642C131.364 163.941 131.172 163.397 130.789 163.009C130.41 162.62 129.835 162.426 129.063 162.426C128.263 162.426 127.635 162.601 127.181 162.952C126.726 163.302 126.407 163.676 126.222 164.074L124.631 163.506C124.915 162.843 125.294 162.327 125.767 161.957C126.246 161.583 126.767 161.323 127.33 161.176C127.898 161.025 128.457 160.949 129.006 160.949C129.357 160.949 129.759 160.991 130.214 161.077C130.673 161.157 131.116 161.325 131.542 161.581C131.973 161.837 132.33 162.223 132.614 162.739C132.898 163.255 133.04 163.946 133.04 164.812V172H131.364V170.523H131.279C131.165 170.759 130.976 171.013 130.711 171.283C130.446 171.553 130.093 171.782 129.652 171.972C129.212 172.161 128.675 172.256 128.04 172.256ZM128.296 170.75C128.959 170.75 129.517 170.62 129.972 170.359C130.431 170.099 130.777 169.763 131.009 169.351C131.246 168.939 131.364 168.506 131.364 168.051V166.517C131.293 166.602 131.137 166.68 130.895 166.751C130.659 166.818 130.384 166.877 130.071 166.929C129.764 166.976 129.463 167.019 129.169 167.057C128.881 167.09 128.646 167.118 128.466 167.142C128.031 167.199 127.624 167.291 127.245 167.419C126.871 167.542 126.568 167.729 126.336 167.98C126.108 168.226 125.995 168.562 125.995 168.989C125.995 169.571 126.21 170.011 126.641 170.31C127.077 170.603 127.628 170.75 128.296 170.75ZM148.457 161.091V162.653H143.401V172H141.725V161.091H148.457ZM149.02 172V170.438H149.418C149.745 170.438 150.017 170.374 150.235 170.246C150.453 170.113 150.628 169.884 150.76 169.557C150.898 169.225 151.002 168.766 151.073 168.179C151.149 167.587 151.203 166.834 151.236 165.92L151.435 161.091H158.708V172H157.032V162.653H153.026L152.856 166.545C152.818 167.44 152.737 168.229 152.614 168.911C152.496 169.588 152.313 170.156 152.067 170.615C151.826 171.074 151.504 171.42 151.101 171.652C150.699 171.884 150.195 172 149.589 172H149.02ZM164.993 172.256C164.302 172.256 163.675 172.125 163.111 171.865C162.548 171.6 162.1 171.219 161.769 170.722C161.437 170.22 161.272 169.614 161.272 168.903C161.272 168.278 161.395 167.772 161.641 167.384C161.887 166.991 162.216 166.683 162.628 166.46C163.04 166.238 163.495 166.072 163.992 165.963C164.494 165.849 164.998 165.759 165.505 165.693C166.168 165.608 166.705 165.544 167.117 165.501C167.534 165.454 167.837 165.376 168.026 165.267C168.22 165.158 168.317 164.969 168.317 164.699V164.642C168.317 163.941 168.125 163.397 167.742 163.009C167.363 162.62 166.788 162.426 166.016 162.426C165.216 162.426 164.589 162.601 164.134 162.952C163.679 163.302 163.36 163.676 163.175 164.074L161.584 163.506C161.868 162.843 162.247 162.327 162.721 161.957C163.199 161.583 163.72 161.323 164.283 161.176C164.851 161.025 165.41 160.949 165.959 160.949C166.31 160.949 166.712 160.991 167.167 161.077C167.626 161.157 168.069 161.325 168.495 161.581C168.926 161.837 169.283 162.223 169.567 162.739C169.851 163.255 169.993 163.946 169.993 164.812V172H168.317V170.523H168.232C168.118 170.759 167.929 171.013 167.664 171.283C167.399 171.553 167.046 171.782 166.606 171.972C166.165 172.161 165.628 172.256 164.993 172.256ZM165.249 170.75C165.912 170.75 166.471 170.62 166.925 170.359C167.384 170.099 167.73 169.763 167.962 169.351C168.199 168.939 168.317 168.506 168.317 168.051V166.517C168.246 166.602 168.09 166.68 167.848 166.751C167.612 166.818 167.337 166.877 167.025 166.929C166.717 166.976 166.416 167.019 166.123 167.057C165.834 167.09 165.599 167.118 165.419 167.142C164.984 167.199 164.577 167.291 164.198 167.419C163.824 167.542 163.521 167.729 163.289 167.98C163.062 168.226 162.948 168.562 162.948 168.989C162.948 169.571 163.163 170.011 163.594 170.31C164.03 170.603 164.581 170.75 165.249 170.75ZM173.053 172V161.091H177.513C178.687 161.091 179.62 161.356 180.311 161.886C181.002 162.417 181.348 163.117 181.348 163.989C181.348 164.652 181.152 165.165 180.759 165.53C180.366 165.89 179.861 166.134 179.246 166.261C179.648 166.318 180.039 166.46 180.418 166.688C180.801 166.915 181.118 167.227 181.369 167.625C181.62 168.018 181.746 168.501 181.746 169.074C181.746 169.633 181.604 170.132 181.32 170.572C181.036 171.013 180.628 171.361 180.098 171.616C179.568 171.872 178.933 172 178.195 172H173.053ZM174.644 170.466H178.195C178.772 170.466 179.225 170.329 179.551 170.054C179.878 169.779 180.041 169.405 180.041 168.932C180.041 168.368 179.878 167.926 179.551 167.604C179.225 167.277 178.772 167.114 178.195 167.114H174.644V170.466ZM174.644 165.665H177.513C177.963 165.665 178.349 165.603 178.671 165.48C178.993 165.352 179.239 165.172 179.409 164.94C179.584 164.704 179.672 164.424 179.672 164.102C179.672 163.643 179.48 163.283 179.097 163.023C178.713 162.758 178.185 162.625 177.513 162.625H174.644V165.665ZM191.584 165.778V167.341H185.562V165.778H191.584ZM185.959 161.091V172H184.283V161.091H185.959ZM192.863 161.091V172H191.187V161.091H192.863ZM196.613 176.091C196.329 176.091 196.075 176.067 195.853 176.02C195.63 175.977 195.476 175.935 195.391 175.892L195.817 174.415C196.224 174.519 196.584 174.557 196.897 174.528C197.209 174.5 197.486 174.36 197.728 174.109C197.974 173.863 198.199 173.463 198.402 172.909L198.715 172.057L194.681 161.091H196.499L199.51 169.784H199.624L202.635 161.091H204.454L199.823 173.591C199.615 174.154 199.357 174.621 199.049 174.99C198.741 175.364 198.383 175.641 197.976 175.821C197.574 176.001 197.119 176.091 196.613 176.091ZM211.893 165.864V167.426H206.126V165.864H211.893ZM207.547 161.091V172H205.87V161.091H207.547ZM215.245 172.227C214.261 172.227 213.397 171.993 212.653 171.524C211.915 171.055 211.337 170.4 210.92 169.557C210.508 168.714 210.302 167.729 210.302 166.602C210.302 165.466 210.508 164.474 210.92 163.626C211.337 162.779 211.915 162.121 212.653 161.652C213.397 161.183 214.261 160.949 215.245 160.949C216.23 160.949 217.092 161.183 217.831 161.652C218.574 162.121 219.152 162.779 219.564 163.626C219.98 164.474 220.189 165.466 220.189 166.602C220.189 167.729 219.98 168.714 219.564 169.557C219.152 170.4 218.574 171.055 217.831 171.524C217.092 171.993 216.23 172.227 215.245 172.227ZM215.245 170.722C215.994 170.722 216.609 170.53 217.092 170.146C217.575 169.763 217.932 169.259 218.165 168.634C218.397 168.009 218.513 167.331 218.513 166.602C218.513 165.873 218.397 165.194 218.165 164.564C217.932 163.934 217.575 163.425 217.092 163.037C216.609 162.649 215.994 162.455 215.245 162.455C214.497 162.455 213.882 162.649 213.399 163.037C212.916 163.425 212.558 163.934 212.326 164.564C212.094 165.194 211.978 165.873 211.978 166.602C211.978 167.331 212.094 168.009 212.326 168.634C212.558 169.259 212.916 169.763 213.399 170.146C213.882 170.53 214.497 170.722 215.245 170.722ZM227.916 162.653V161.091H236.78V162.653H233.2V172H231.524V162.653H227.916ZM243.09 172.227C242.105 172.227 241.241 171.993 240.498 171.524C239.759 171.055 239.181 170.4 238.765 169.557C238.353 168.714 238.147 167.729 238.147 166.602C238.147 165.466 238.353 164.474 238.765 163.626C239.181 162.779 239.759 162.121 240.498 161.652C241.241 161.183 242.105 160.949 243.09 160.949C244.075 160.949 244.937 161.183 245.675 161.652C246.419 162.121 246.996 162.779 247.408 163.626C247.825 164.474 248.033 165.466 248.033 166.602C248.033 167.729 247.825 168.714 247.408 169.557C246.996 170.4 246.419 171.055 245.675 171.524C244.937 171.993 244.075 172.227 243.09 172.227ZM243.09 170.722C243.838 170.722 244.454 170.53 244.937 170.146C245.419 169.763 245.777 169.259 246.009 168.634C246.241 168.009 246.357 167.331 246.357 166.602C246.357 165.873 246.241 165.194 246.009 164.564C245.777 163.934 245.419 163.425 244.937 163.037C244.454 162.649 243.838 162.455 243.09 162.455C242.342 162.455 241.726 162.649 241.243 163.037C240.76 163.425 240.403 163.934 240.171 164.564C239.939 165.194 239.823 165.873 239.823 166.602C239.823 167.331 239.939 168.009 240.171 168.634C240.403 169.259 240.76 169.763 241.243 170.146C241.726 170.53 242.342 170.722 243.09 170.722ZM257.325 161.091V162.653H252.268V172H250.592V161.091H257.325ZM257.689 175.125V170.438H258.598C258.82 170.205 259.012 169.955 259.173 169.685C259.334 169.415 259.474 169.095 259.592 168.726C259.715 168.352 259.819 167.897 259.905 167.362C259.99 166.822 260.066 166.171 260.132 165.409L260.501 161.091H267.433V170.438H269.109V175.125H267.433V172H259.365V175.125H257.689ZM260.501 170.438H265.757V162.653H262.064L261.78 165.409C261.661 166.55 261.514 167.547 261.339 168.399C261.164 169.251 260.885 169.931 260.501 170.438ZM274.544 172.256C273.853 172.256 273.225 172.125 272.662 171.865C272.099 171.6 271.651 171.219 271.32 170.722C270.988 170.22 270.823 169.614 270.823 168.903C270.823 168.278 270.946 167.772 271.192 167.384C271.438 166.991 271.767 166.683 272.179 166.46C272.591 166.238 273.046 166.072 273.543 165.963C274.045 165.849 274.549 165.759 275.055 165.693C275.718 165.608 276.256 165.544 276.668 165.501C277.084 165.454 277.387 165.376 277.577 165.267C277.771 165.158 277.868 164.969 277.868 164.699V164.642C277.868 163.941 277.676 163.397 277.293 163.009C276.914 162.62 276.339 162.426 275.567 162.426C274.767 162.426 274.139 162.601 273.685 162.952C273.23 163.302 272.911 163.676 272.726 164.074L271.135 163.506C271.419 162.843 271.798 162.327 272.271 161.957C272.75 161.583 273.27 161.323 273.834 161.176C274.402 161.025 274.961 160.949 275.51 160.949C275.86 160.949 276.263 160.991 276.717 161.077C277.177 161.157 277.619 161.325 278.046 161.581C278.476 161.837 278.834 162.223 279.118 162.739C279.402 163.255 279.544 163.946 279.544 164.812V172H277.868V170.523H277.783C277.669 170.759 277.48 171.013 277.215 171.283C276.949 171.553 276.597 171.782 276.156 171.972C275.716 172.161 275.179 172.256 274.544 172.256ZM274.8 170.75C275.463 170.75 276.021 170.62 276.476 170.359C276.935 170.099 277.281 169.763 277.513 169.351C277.75 168.939 277.868 168.506 277.868 168.051V166.517C277.797 166.602 277.641 166.68 277.399 166.751C277.162 166.818 276.888 166.877 276.575 166.929C276.268 166.976 275.967 167.019 275.673 167.057C275.385 167.09 275.15 167.118 274.97 167.142C274.535 167.199 274.127 167.291 273.749 167.419C273.375 167.542 273.072 167.729 272.84 167.98C272.612 168.226 272.499 168.562 272.499 168.989C272.499 169.571 272.714 170.011 273.145 170.31C273.581 170.603 274.132 170.75 274.8 170.75Z" fill="black"/>
</svg>
