<svg width="582" height="186" viewBox="0 0 582 186" fill="none" xmlns="http://www.w3.org/2000/svg">
<path opacity="0.9" d="M426 21.5C426 9.62588 435.626 0 447.5 0H541.333C548.835 0 552.586 0 555.628 0.965207C562.01 2.99048 567.01 7.99042 569.035 14.3724C570 17.4139 570 21.1648 570 28.6667C570 32.4176 570 34.2931 569.517 35.8138C568.505 39.0048 566.005 41.5048 562.814 42.5174C561.293 43 559.418 43 555.667 43H447.5C435.626 43 426 33.3741 426 21.5Z" fill="#D4C5FF"/>
<path d="M444.463 29.0738V13.9637H453.583V15.5868H446.293V20.3087H450.13C451.212 20.3087 452.124 20.4858 452.867 20.8399C453.614 21.1941 454.18 21.6933 454.564 22.3377C454.952 22.982 455.147 23.742 455.147 24.6175C455.147 25.493 454.952 26.2652 454.564 26.9342C454.18 27.6031 453.614 28.1269 452.867 28.5057C452.124 28.8844 451.212 29.0738 450.13 29.0738H444.463ZM446.293 27.4801H450.13C450.818 27.4801 451.401 27.3424 451.878 27.067C452.36 26.7866 452.724 26.4275 452.97 25.9898C453.221 25.5471 453.346 25.0798 453.346 24.588C453.346 23.8649 453.069 23.2427 452.513 22.7213C451.957 22.195 451.163 21.9319 450.13 21.9319H446.293V27.4801ZM456.919 29.0738V27.4506H457.332C457.672 27.4506 457.955 27.3842 458.181 27.2514C458.407 27.1137 458.589 26.8751 458.727 26.5358C458.869 26.1915 458.978 25.7143 459.051 25.1044C459.13 24.4896 459.187 23.7075 459.221 22.7582L459.428 17.7412H466.983V29.0738H465.242V19.3643H461.08L460.903 23.4075C460.864 24.3371 460.78 25.1561 460.652 25.8644C460.53 26.5677 460.34 27.158 460.084 27.6351C459.834 28.1122 459.499 28.4713 459.081 28.7123C458.663 28.9533 458.139 29.0738 457.509 29.0738H456.919ZM471.919 26.5062L477.378 17.7412H479.385V29.0738H477.644V20.3087L472.214 29.0738H470.177V17.7412H471.919V26.5062ZM490.159 22.6107V24.2338H483.902V22.6107H490.159ZM484.316 17.7412V29.0738H482.574V17.7412H484.316ZM491.487 17.7412V29.0738H489.746V17.7412H491.487Z" fill="black"/>
<path d="M507.028 32.3807C506.296 32.3807 505.672 32.1813 505.156 31.7825C504.641 31.3805 504.247 30.7986 503.974 30.0368C503.702 29.2717 503.566 28.3477 503.566 27.2649C503.566 26.1886 503.702 25.2695 503.974 24.5076C504.25 23.7425 504.646 23.159 505.161 22.757C505.68 22.3517 506.302 22.1491 507.028 22.1491C507.755 22.1491 508.375 22.3517 508.891 22.757C509.41 23.159 509.805 23.7425 510.077 24.5076C510.353 25.2695 510.491 26.1886 510.491 27.2649C510.491 28.3477 510.355 29.2717 510.082 30.0368C509.81 30.7986 509.416 31.3805 508.901 31.7825C508.385 32.1813 507.761 32.3807 507.028 32.3807ZM507.028 31.3108C507.755 31.3108 508.319 30.9607 508.721 30.2604C509.123 29.5602 509.324 28.5617 509.324 27.2649C509.324 26.4025 509.231 25.6682 509.046 25.062C508.865 24.4558 508.602 23.9938 508.259 23.6761C507.918 23.3584 507.508 23.1995 507.028 23.1995C506.309 23.1995 505.746 23.5545 505.341 24.2645C504.936 24.9712 504.733 25.9714 504.733 27.2649C504.733 28.1273 504.824 28.8599 505.005 29.4629C505.187 30.0659 505.448 30.5247 505.788 30.8391C506.132 31.1536 506.545 31.3108 507.028 31.3108ZM515.255 32.3807C514.587 32.3807 513.997 32.2623 513.485 32.0257C512.976 31.7858 512.579 31.4567 512.293 31.0385C512.008 30.6171 511.867 30.1373 511.87 29.5991C511.867 29.1776 511.95 28.7886 512.118 28.432C512.287 28.0721 512.517 27.7723 512.809 27.5324C513.104 27.2892 513.433 27.1352 513.796 27.0704V27.012C513.319 26.8888 512.94 26.6214 512.658 26.2096C512.376 25.7947 512.237 25.323 512.24 24.7945C512.237 24.2888 512.365 23.8366 512.624 23.4378C512.883 23.039 513.24 22.7246 513.694 22.4944C514.151 22.2642 514.671 22.1491 515.255 22.1491C515.832 22.1491 516.347 22.2642 516.801 22.4944C517.255 22.7246 517.612 23.039 517.871 23.4378C518.134 23.8366 518.267 24.2888 518.27 24.7945C518.267 25.323 518.122 25.7947 517.837 26.2096C517.555 26.6214 517.181 26.8888 516.714 27.012V27.0704C517.074 27.1352 517.398 27.2892 517.686 27.5324C517.975 27.7723 518.205 28.0721 518.377 28.432C518.549 28.7886 518.636 29.1776 518.639 29.5991C518.636 30.1373 518.49 30.6171 518.202 31.0385C517.916 31.4567 517.519 31.7858 517.01 32.0257C516.505 32.2623 515.919 32.3807 515.255 32.3807ZM515.255 31.3108C515.705 31.3108 516.095 31.2379 516.422 31.092C516.749 30.9461 517.002 30.7402 517.181 30.4744C517.359 30.2086 517.45 29.8973 517.453 29.5407C517.45 29.1647 517.352 28.8324 517.161 28.5438C516.97 28.2553 516.709 28.0284 516.378 27.863C516.051 27.6977 515.676 27.615 515.255 27.615C514.83 27.615 514.451 27.6977 514.117 27.863C513.786 28.0284 513.525 28.2553 513.334 28.5438C513.146 28.8324 513.054 29.1647 513.057 29.5407C513.054 29.8973 513.139 30.2086 513.315 30.4744C513.493 30.7402 513.747 30.9461 514.078 31.092C514.409 31.2379 514.801 31.3108 515.255 31.3108ZM515.255 26.5841C515.611 26.5841 515.928 26.5128 516.203 26.3701C516.482 26.2275 516.701 26.0281 516.86 25.772C517.018 25.5159 517.1 25.216 517.103 24.8724C517.1 24.5352 517.02 24.2418 516.864 23.9922C516.709 23.7393 516.493 23.5448 516.218 23.4086C515.942 23.2692 515.621 23.1995 515.255 23.1995C514.882 23.1995 514.556 23.2692 514.277 23.4086C513.999 23.5448 513.783 23.7393 513.631 23.9922C513.478 24.2418 513.404 24.5352 513.407 24.8724C513.404 25.216 513.48 25.5159 513.635 25.772C513.794 26.0281 514.013 26.2275 514.292 26.3701C514.571 26.5128 514.892 26.5841 515.255 26.5841ZM521.085 30.9704C520.845 30.9704 520.639 30.8845 520.468 30.7127C520.296 30.5409 520.21 30.335 520.21 30.0951C520.21 29.8552 520.296 29.6493 520.468 29.4775C520.639 29.3057 520.845 29.2198 521.085 29.2198C521.325 29.2198 521.531 29.3057 521.703 29.4775C521.875 29.6493 521.96 29.8552 521.96 30.0951C521.96 30.254 521.92 30.3998 521.839 30.5328C521.761 30.6657 521.656 30.7727 521.523 30.8537C521.393 30.9315 521.247 30.9704 521.085 30.9704ZM521.085 25.9325C520.845 25.9325 520.639 25.8466 520.468 25.6747C520.296 25.5029 520.21 25.297 520.21 25.0571C520.21 24.8172 520.296 24.6114 520.468 24.4396C520.639 24.2677 520.845 24.1818 521.085 24.1818C521.325 24.1818 521.531 24.2677 521.703 24.4396C521.875 24.6114 521.96 24.8172 521.96 25.0571C521.96 25.216 521.92 25.3619 521.839 25.4948C521.761 25.6277 521.656 25.7347 521.523 25.8158C521.393 25.8936 521.247 25.9325 521.085 25.9325ZM523.493 30.2021V29.2101L527.87 22.2853H528.589V23.822H528.103L524.796 29.0544V29.1323H530.69V30.2021H523.493ZM528.181 32.2445V29.9006V29.4386V22.2853H529.329V32.2445H528.181ZM535.487 32.3807C534.754 32.3807 534.13 32.1813 533.615 31.7825C533.099 31.3805 532.706 30.7986 532.433 30.0368C532.161 29.2717 532.025 28.3477 532.025 27.2649C532.025 26.1886 532.161 25.2695 532.433 24.5076C532.709 23.7425 533.104 23.159 533.62 22.757C534.138 22.3517 534.761 22.1491 535.487 22.1491C536.213 22.1491 536.834 22.3517 537.35 22.757C537.868 23.159 538.264 23.7425 538.536 24.5076C538.812 25.2695 538.95 26.1886 538.95 27.2649C538.95 28.3477 538.813 29.2717 538.541 30.0368C538.269 30.7986 537.875 31.3805 537.359 31.7825C536.844 32.1813 536.22 32.3807 535.487 32.3807ZM535.487 31.3108C536.213 31.3108 536.777 30.9607 537.179 30.2604C537.581 29.5602 537.782 28.5617 537.782 27.2649C537.782 26.4025 537.69 25.6682 537.505 25.062C537.324 24.4558 537.061 23.9938 536.717 23.6761C536.377 23.3584 535.967 23.1995 535.487 23.1995C534.767 23.1995 534.205 23.5545 533.8 24.2645C533.394 24.9712 533.192 25.9714 533.192 27.2649C533.192 28.1273 533.283 28.8599 533.464 29.4629C533.646 30.0659 533.907 30.5247 534.247 30.8391C534.591 31.1536 535.004 31.3108 535.487 31.3108Z" fill="#4200FF"/>
<path fill-rule="evenodd" clip-rule="evenodd" d="M556.491 23.1606C556.718 23.3802 556.724 23.7425 556.505 23.9699L547.597 33.1961C547.486 33.3106 547.333 33.3739 547.174 33.3708C547.015 33.3677 546.864 33.2985 546.758 33.1798L542.781 28.7257C542.571 28.4899 542.591 28.1281 542.827 27.9176C543.063 27.707 543.425 27.7275 543.635 27.9633L547.201 31.9576L555.681 23.1748C555.901 22.9474 556.263 22.941 556.491 23.1606Z" fill="#4200FF"/>
<path fill-rule="evenodd" clip-rule="evenodd" d="M559.855 23.1606C560.082 23.3802 560.089 23.7425 559.869 23.9699L550.961 33.1961C550.85 33.3106 550.697 33.3739 550.538 33.3708C550.379 33.3677 550.228 33.2985 550.122 33.1798L546.145 28.7257C545.935 28.4899 545.955 28.1281 546.191 27.9176C546.427 27.707 546.789 27.7275 546.999 27.9633L550.566 31.9576L559.046 23.1748C559.265 22.9474 559.628 22.941 559.855 23.1606Z" fill="#4200FF"/>
<path opacity="0.8" fill-rule="evenodd" clip-rule="evenodd" d="M265.363 67.902C265.351 68.2534 265.351 68.6689 265.351 69.5C265.351 70.3311 265.351 70.7466 265.363 71.098C265.732 81.9262 274.424 90.6184 285.253 90.988C285.604 91 286.019 91 286.851 91H542.172C549.081 91 552.536 91 555.366 90.2221C557.426 89.6559 559.36 88.7993 561.122 87.6982C562.321 88.5571 563.982 89.5984 565.778 90.2777C570.122 91.9215 581.316 91.8269 581.316 91.8269C581.316 91.8269 575.207 90.2777 572.937 83.2174C571.859 79.8639 571.42 59.6987 571.42 59.6987L571.346 59.8595C571.332 57.8328 571.268 56.613 570.982 55.5717C570.019 52.0685 567.282 49.3315 563.779 48.3685C562.438 48 560.802 48 557.529 48H286.851C286.019 48 285.604 48 285.253 48.012C274.424 48.3816 265.732 57.0738 265.363 67.902Z" fill="#D4C5FF"/>
<path d="M284.385 61.8699H286.215V66.9165C286.215 67.6641 286.345 68.2519 286.606 68.6798C286.867 69.1028 287.236 69.4028 287.713 69.5799C288.19 69.7521 288.753 69.8381 289.402 69.8381C289.81 69.8381 290.206 69.8234 290.59 69.7939C290.974 69.7594 291.348 69.7127 291.712 69.6537C292.08 69.5947 292.44 69.5233 292.789 69.4397C293.143 69.3561 293.49 69.2627 293.829 69.1594V70.812C293.499 70.9153 293.172 71.0088 292.848 71.0924C292.528 71.176 292.194 71.2473 291.844 71.3064C291.5 71.3654 291.129 71.4121 290.73 71.4465C290.332 71.4761 289.889 71.4908 289.402 71.4908C288.359 71.4908 287.462 71.3408 286.709 71.0408C285.962 70.7407 285.386 70.2562 284.983 69.5873C284.584 68.9183 284.385 68.0281 284.385 66.9165V61.8699ZM293.593 61.8699H295.423V76.98H293.593V61.8699ZM303.605 77.2161C302.513 77.2161 301.571 76.9751 300.779 76.4931C299.992 76.0061 299.385 75.3274 298.957 74.4568C298.534 73.5812 298.322 72.5631 298.322 71.4023C298.322 70.2415 298.534 69.2184 298.957 68.333C299.385 67.4427 299.98 66.7492 300.742 66.2524C301.51 65.7507 302.405 65.4999 303.428 65.4999C304.018 65.4999 304.601 65.5983 305.176 65.795C305.752 65.9917 306.276 66.3115 306.748 66.7541C307.22 67.1919 307.596 67.7723 307.877 68.4953C308.157 69.2184 308.297 70.1087 308.297 71.1662V71.904H299.562V70.3989H306.527C306.527 69.7594 306.399 69.1889 306.143 68.6872C305.892 68.1855 305.533 67.7895 305.066 67.4993C304.603 67.2091 304.057 67.064 303.428 67.064C302.734 67.064 302.134 67.2362 301.628 67.5805C301.126 67.9199 300.74 68.3625 300.469 68.9085C300.199 69.4545 300.063 70.0398 300.063 70.6645V71.6679C300.063 72.5237 300.211 73.2492 300.506 73.8444C300.806 74.4346 301.222 74.8847 301.753 75.1946C302.284 75.4995 302.902 75.652 303.605 75.652C304.062 75.652 304.475 75.5881 304.844 75.4602C305.218 75.3274 305.54 75.1306 305.811 74.8699C306.081 74.6043 306.29 74.2748 306.438 73.8813L308.12 74.3535C307.943 74.924 307.646 75.4257 307.227 75.8586C306.809 76.2865 306.293 76.621 305.678 76.862C305.063 77.0981 304.372 77.2161 303.605 77.2161ZM301.214 63.7587C300.905 63.7587 300.629 63.6406 300.388 63.4045C300.152 63.1635 300.034 62.8881 300.034 62.5782C300.034 62.2388 300.152 61.9584 300.388 61.7371C300.629 61.5108 300.905 61.3977 301.214 61.3977C301.554 61.3977 301.834 61.5108 302.056 61.7371C302.282 61.9584 302.395 62.2388 302.395 62.5782C302.395 62.8881 302.282 63.1635 302.056 63.4045C301.834 63.6406 301.554 63.7587 301.214 63.7587ZM305.464 63.7587C305.154 63.7587 304.879 63.6406 304.638 63.4045C304.402 63.1635 304.284 62.8881 304.284 62.5782C304.284 62.2388 304.402 61.9584 304.638 61.7371C304.879 61.5108 305.154 61.3977 305.464 61.3977C305.804 61.3977 306.084 61.5108 306.305 61.7371C306.531 61.9584 306.645 62.2388 306.645 62.5782C306.645 62.8881 306.531 63.1635 306.305 63.4045C306.084 63.6406 305.804 63.7587 305.464 63.7587ZM309.891 67.2706V65.6474H319.099V67.2706H315.38V76.98H313.639V67.2706H309.891ZM325.654 77.2161C324.631 77.2161 323.733 76.9727 322.961 76.4857C322.194 75.9988 321.594 75.3175 321.161 74.442C320.733 73.5665 320.519 72.5434 320.519 71.3728C320.519 70.1923 320.733 69.1618 321.161 68.2814C321.594 67.4009 322.194 66.7172 322.961 66.2303C323.733 65.7434 324.631 65.4999 325.654 65.4999C326.677 65.4999 327.572 65.7434 328.34 66.2303C329.112 66.7172 329.712 67.4009 330.14 68.2814C330.573 69.1618 330.789 70.1923 330.789 71.3728C330.789 72.5434 330.573 73.5665 330.14 74.442C329.712 75.3175 329.112 75.9988 328.34 76.4857C327.572 76.9727 326.677 77.2161 325.654 77.2161ZM325.654 75.652C326.431 75.652 327.071 75.4528 327.572 75.0544C328.074 74.656 328.445 74.1321 328.686 73.4829C328.927 72.8336 329.048 72.1302 329.048 71.3728C329.048 70.6153 328.927 69.9095 328.686 69.2553C328.445 68.6011 328.074 68.0723 327.572 67.669C327.071 67.2657 326.431 67.064 325.654 67.064C324.877 67.064 324.237 67.2657 323.736 67.669C323.234 68.0723 322.863 68.6011 322.622 69.2553C322.381 69.9095 322.26 70.6153 322.26 71.3728C322.26 72.1302 322.381 72.8336 322.622 73.4829C322.863 74.1321 323.234 74.656 323.736 75.0544C324.237 75.4528 324.877 75.652 325.654 75.652ZM343.894 77.2161C342.832 77.2161 341.917 76.9653 341.15 76.4636C340.382 75.9619 339.792 75.2708 339.379 74.3904C338.966 73.5099 338.759 72.5041 338.759 71.3728C338.759 70.2218 338.971 69.2061 339.394 68.3256C339.822 67.4403 340.417 66.7492 341.179 66.2524C341.946 65.7507 342.842 65.4999 343.865 65.4999C344.662 65.4999 345.38 65.6474 346.019 65.9426C346.659 66.2377 347.182 66.6508 347.591 67.1821C347.999 67.7133 348.252 68.333 348.351 69.0413H346.609C346.477 68.5249 346.181 68.0674 345.724 67.669C345.272 67.2657 344.662 67.064 343.894 67.064C343.216 67.064 342.62 67.2411 342.109 67.5952C341.602 67.9445 341.206 68.4388 340.921 69.0782C340.641 69.7127 340.5 70.4579 340.5 71.3137C340.5 72.1893 340.638 72.9517 340.914 73.6009C341.194 74.2502 341.587 74.7543 342.094 75.1134C342.606 75.4725 343.206 75.652 343.894 75.652C344.347 75.652 344.758 75.5733 345.126 75.4159C345.495 75.2585 345.808 75.0323 346.063 74.7371C346.319 74.442 346.501 74.0879 346.609 73.6747H348.351C348.252 74.3436 348.009 74.9462 347.62 75.4823C347.237 76.0135 346.727 76.4365 346.093 76.7513C345.463 77.0612 344.73 77.2161 343.894 77.2161ZM350.003 67.2706V65.6474H359.211V67.2706H355.492V76.98H353.751V67.2706H350.003ZM361.751 81.2298V65.6474H363.433V67.4477H363.64C363.768 67.2509 363.945 67.0001 364.171 66.6951C364.402 66.3852 364.732 66.1098 365.16 65.8688C365.592 65.6228 366.178 65.4999 366.915 65.4999C367.87 65.4999 368.711 65.7384 369.439 66.2155C370.167 66.6927 370.735 67.369 371.143 68.2445C371.551 69.12 371.755 70.1529 371.755 71.3433C371.755 72.5434 371.551 73.5837 371.143 74.4641C370.735 75.3397 370.169 76.0184 369.446 76.5005C368.723 76.9776 367.889 77.2161 366.945 77.2161C366.217 77.2161 365.634 77.0956 365.196 76.8546C364.759 76.6087 364.422 76.3308 364.186 76.0209C363.95 75.7061 363.768 75.4454 363.64 75.2388H363.492V81.2298H361.751ZM363.463 71.3137C363.463 72.1696 363.588 72.9246 363.839 73.5788C364.09 74.228 364.456 74.7371 364.938 75.106C365.42 75.47 366.01 75.652 366.709 75.652C367.437 75.652 368.044 75.4602 368.531 75.0765C369.023 74.6879 369.392 74.1666 369.638 73.5124C369.889 72.8533 370.014 72.1204 370.014 71.3137C370.014 70.5169 369.891 69.7988 369.645 69.1594C369.404 68.515 369.038 68.0059 368.546 67.6321C368.059 67.2534 367.447 67.064 366.709 67.064C366.001 67.064 365.405 67.2435 364.923 67.6026C364.441 67.9568 364.077 68.4535 363.831 69.093C363.586 69.7275 363.463 70.4677 363.463 71.3137ZM377.746 77.2456C377.028 77.2456 376.377 77.1104 375.791 76.8399C375.206 76.5644 374.741 76.1685 374.397 75.652C374.052 75.1306 373.88 74.501 373.88 73.7632C373.88 73.114 374.008 72.5877 374.264 72.1843C374.52 71.7761 374.862 71.4564 375.29 71.2252C375.717 70.994 376.19 70.8219 376.706 70.7087C377.227 70.5907 377.751 70.4972 378.278 70.4284C378.966 70.3398 379.524 70.2734 379.952 70.2292C380.385 70.18 380.7 70.0988 380.897 69.9857C381.098 69.8726 381.199 69.6758 381.199 69.3955V69.3364C381.199 68.6085 381 68.0428 380.602 67.6395C380.208 67.2362 379.611 67.0345 378.809 67.0345C377.978 67.0345 377.326 67.2165 376.854 67.5805C376.381 67.9445 376.049 68.333 375.858 68.7462L374.205 68.156C374.5 67.4673 374.894 66.9312 375.385 66.5476C375.882 66.159 376.423 65.8885 377.009 65.736C377.599 65.5786 378.179 65.4999 378.75 65.4999C379.114 65.4999 379.532 65.5441 380.004 65.6327C380.481 65.7163 380.941 65.8909 381.384 66.1565C381.831 66.4221 382.203 66.823 382.498 67.3591C382.793 67.8953 382.94 68.6134 382.94 69.5135V76.98H381.199V75.4454H381.111C380.993 75.6914 380.796 75.9545 380.521 76.2349C380.245 76.5152 379.879 76.7538 379.421 76.9505C378.964 77.1473 378.405 77.2456 377.746 77.2456ZM378.012 75.6815C378.701 75.6815 379.281 75.5463 379.753 75.2757C380.23 75.0052 380.589 74.656 380.83 74.228C381.076 73.8001 381.199 73.3501 381.199 72.8779V71.2842C381.126 71.3728 380.963 71.4539 380.712 71.5277C380.466 71.5966 380.181 71.658 379.856 71.7122C379.537 71.7613 379.224 71.8056 378.919 71.845C378.619 71.8794 378.376 71.9089 378.189 71.9335C377.737 71.9925 377.314 72.0884 376.92 72.2212C376.531 72.3491 376.217 72.5434 375.976 72.8041C375.74 73.0599 375.622 73.4091 375.622 73.8518C375.622 74.4568 375.845 74.9142 376.293 75.2241C376.745 75.529 377.318 75.6815 378.012 75.6815ZM393.703 70.5169V72.1401H387.447V70.5169H393.703ZM387.86 65.6474V76.98H386.119V65.6474H387.86ZM395.031 65.6474V76.98H393.29V65.6474H395.031ZM399.952 74.4125L405.412 65.6474H407.419V76.98H405.678V68.215L400.247 76.98H398.211V65.6474H399.952V74.4125ZM419.521 65.6474V75.3569H421.114V80.6395H419.373V76.98H410.608V65.6474H412.349V75.3569H417.779V65.6474H419.521ZM427.131 77.2456C426.413 77.2456 425.761 77.1104 425.176 76.8399C424.591 76.5644 424.126 76.1685 423.781 75.652C423.437 75.1306 423.265 74.501 423.265 73.7632C423.265 73.114 423.393 72.5877 423.649 72.1843C423.904 71.7761 424.246 71.4564 424.674 71.2252C425.102 70.994 425.574 70.8219 426.091 70.7087C426.612 70.5907 427.136 70.4972 427.662 70.4284C428.351 70.3398 428.909 70.2734 429.337 70.2292C429.77 70.18 430.085 70.0988 430.281 69.9857C430.483 69.8726 430.584 69.6758 430.584 69.3955V69.3364C430.584 68.6085 430.385 68.0428 429.986 67.6395C429.593 67.2362 428.995 67.0345 428.193 67.0345C427.362 67.0345 426.71 67.2165 426.238 67.5805C425.766 67.9445 425.434 68.333 425.242 68.7462L423.59 68.156C423.885 67.4673 424.278 66.9312 424.77 66.5476C425.267 66.159 425.808 65.8885 426.393 65.736C426.983 65.5786 427.564 65.4999 428.134 65.4999C428.498 65.4999 428.916 65.5441 429.389 65.6327C429.866 65.7163 430.326 65.8909 430.768 66.1565C431.216 66.4221 431.587 66.823 431.882 67.3591C432.178 67.8953 432.325 68.6134 432.325 69.5135V76.98H430.584V75.4454H430.495C430.377 75.6914 430.181 75.9545 429.905 76.2349C429.63 76.5152 429.263 76.7538 428.806 76.9505C428.348 77.1473 427.79 77.2456 427.131 77.2456ZM427.397 75.6815C428.085 75.6815 428.666 75.5463 429.138 75.2757C429.615 75.0052 429.974 74.656 430.215 74.228C430.461 73.8001 430.584 73.3501 430.584 72.8779V71.2842C430.51 71.3728 430.348 71.4539 430.097 71.5277C429.851 71.5966 429.566 71.658 429.241 71.7122C428.921 71.7613 428.609 71.8056 428.304 71.845C428.004 71.8794 427.761 71.9089 427.574 71.9335C427.121 71.9925 426.698 72.0884 426.305 72.2212C425.916 72.3491 425.601 72.5434 425.36 72.8041C425.124 73.0599 425.006 73.4091 425.006 73.8518C425.006 74.4568 425.23 74.9142 425.678 75.2241C426.13 75.529 426.703 75.6815 427.397 75.6815ZM440.697 67.2706V65.6474H449.905V67.2706H446.187V76.98H444.445V67.2706H440.697ZM453.566 81.2298C453.271 81.2298 453.008 81.2052 452.777 81.156C452.546 81.1117 452.386 81.0675 452.297 81.0232L452.74 79.4886C453.163 79.5968 453.537 79.6361 453.861 79.6066C454.186 79.5771 454.474 79.432 454.725 79.1713C454.98 78.9155 455.214 78.4999 455.426 77.9244L455.75 77.0391L451.56 65.6474H453.448L456.577 74.6781H456.695L459.823 65.6474H461.712L456.901 78.6327C456.685 79.218 456.417 79.7025 456.097 80.0862C455.777 80.4748 455.406 80.7625 454.983 80.9494C454.565 81.1363 454.093 81.2298 453.566 81.2298ZM464.01 76.98V65.6474H472.923V76.98H471.181V67.2706H465.751V76.98H464.01ZM477.844 74.4125L483.303 65.6474H485.31V76.98H483.569V68.215L478.139 76.98H476.102V65.6474H477.844V74.4125ZM486.957 67.2706V65.6474H496.165V67.2706H492.447V76.98H490.705V67.2706H486.957Z" fill="black"/>
<path d="M511.103 80.4708C510.37 80.4708 509.746 80.2714 509.23 79.8726C508.715 79.4706 508.321 78.8887 508.049 78.1268C507.776 77.3617 507.64 76.4378 507.64 75.355C507.64 74.2787 507.776 73.3596 508.049 72.5977C508.324 71.8326 508.72 71.2491 509.235 70.8471C509.754 70.4418 510.376 70.2392 511.103 70.2392C511.829 70.2392 512.45 70.4418 512.965 70.8471C513.484 71.2491 513.879 71.8326 514.152 72.5977C514.427 73.3596 514.565 74.2787 514.565 75.355C514.565 76.4378 514.429 77.3617 514.156 78.1268C513.884 78.8887 513.49 79.4706 512.975 79.8726C512.459 80.2714 511.835 80.4708 511.103 80.4708ZM511.103 79.4009C511.829 79.4009 512.393 79.0508 512.795 78.3505C513.197 77.6503 513.398 76.6518 513.398 75.355C513.398 74.4926 513.305 73.7583 513.121 73.1521C512.939 72.5459 512.677 72.0839 512.333 71.7662C511.993 71.4485 511.582 71.2896 511.103 71.2896C510.383 71.2896 509.82 71.6446 509.415 72.3546C509.01 73.0613 508.807 74.0615 508.807 75.355C508.807 76.2173 508.898 76.95 509.08 77.553C509.261 78.156 509.522 78.6147 509.863 78.9292C510.206 79.2437 510.62 79.4009 511.103 79.4009ZM519.329 80.4708C518.661 80.4708 518.071 80.3524 517.559 80.1158C517.05 79.8759 516.653 79.5468 516.368 79.1286C516.082 78.7071 515.941 78.2273 515.944 77.6892C515.941 77.2677 516.024 76.8787 516.192 76.5221C516.361 76.1622 516.591 75.8623 516.883 75.6224C517.178 75.3793 517.507 75.2253 517.87 75.1605V75.1021C517.394 74.9789 517.014 74.7115 516.732 74.2997C516.45 73.8848 516.311 73.4131 516.314 72.8846C516.311 72.3789 516.439 71.9266 516.698 71.5279C516.958 71.1291 517.314 70.8147 517.768 70.5845C518.225 70.3543 518.746 70.2392 519.329 70.2392C519.906 70.2392 520.422 70.3543 520.875 70.5845C521.329 70.8147 521.686 71.1291 521.945 71.5279C522.208 71.9266 522.341 72.3789 522.344 72.8846C522.341 73.4131 522.197 73.8848 521.911 74.2997C521.629 74.7115 521.255 74.9789 520.788 75.1021V75.1605C521.148 75.2253 521.472 75.3793 521.761 75.6224C522.049 75.8623 522.279 76.1622 522.451 76.5221C522.623 76.8787 522.71 77.2677 522.714 77.6892C522.71 78.2273 522.565 78.7071 522.276 79.1286C521.991 79.5468 521.594 79.8759 521.085 80.1158C520.579 80.3524 519.994 80.4708 519.329 80.4708ZM519.329 79.4009C519.78 79.4009 520.169 79.328 520.496 79.1821C520.824 79.0362 521.076 78.8303 521.255 78.5645C521.433 78.2987 521.524 77.9874 521.527 77.6308C521.524 77.2548 521.427 76.9225 521.235 76.6339C521.044 76.3454 520.783 76.1185 520.452 75.9531C520.125 75.7878 519.751 75.7051 519.329 75.7051C518.904 75.7051 518.525 75.7878 518.191 75.9531C517.86 76.1185 517.599 76.3454 517.408 76.6339C517.22 76.9225 517.128 77.2548 517.131 77.6308C517.128 77.9874 517.214 78.2987 517.389 78.5645C517.567 78.8303 517.822 79.0362 518.152 79.1821C518.483 79.328 518.875 79.4009 519.329 79.4009ZM519.329 74.6742C519.686 74.6742 520.002 74.6029 520.277 74.4602C520.556 74.3176 520.775 74.1182 520.934 73.8621C521.093 73.606 521.174 73.3061 521.177 72.9624C521.174 72.6253 521.094 72.3319 520.939 72.0823C520.783 71.8294 520.567 71.6349 520.292 71.4987C520.016 71.3593 519.695 71.2896 519.329 71.2896C518.956 71.2896 518.63 71.3593 518.352 71.4987C518.073 71.6349 517.857 71.8294 517.705 72.0823C517.552 72.3319 517.478 72.6253 517.481 72.9624C517.478 73.3061 517.554 73.606 517.71 73.8621C517.869 74.1182 518.087 74.3176 518.366 74.4602C518.645 74.6029 518.966 74.6742 519.329 74.6742ZM525.159 79.0605C524.919 79.0605 524.714 78.9746 524.542 78.8028C524.37 78.631 524.284 78.4251 524.284 78.1852C524.284 77.9453 524.37 77.7394 524.542 77.5676C524.714 77.3958 524.919 77.3099 525.159 77.3099C525.399 77.3099 525.605 77.3958 525.777 77.5676C525.949 77.7394 526.035 77.9453 526.035 78.1852C526.035 78.344 525.994 78.4899 525.913 78.6229C525.835 78.7558 525.73 78.8628 525.597 78.9438C525.467 79.0216 525.321 79.0605 525.159 79.0605ZM525.159 74.0226C524.919 74.0226 524.714 73.9366 524.542 73.7648C524.37 73.593 524.284 73.3871 524.284 73.1472C524.284 72.9073 524.37 72.7015 524.542 72.5296C524.714 72.3578 524.919 72.2719 525.159 72.2719C525.399 72.2719 525.605 72.3578 525.777 72.5296C525.949 72.7015 526.035 72.9073 526.035 73.1472C526.035 73.3061 525.994 73.452 525.913 73.5849C525.835 73.7178 525.73 73.8248 525.597 73.9058C525.467 73.9836 525.321 74.0226 525.159 74.0226ZM527.567 78.2922V77.3001L531.944 70.3754H532.664V71.9121H532.177L528.871 77.1445V77.2223H534.764V78.2922H527.567ZM532.255 80.3346V77.9907V77.5287V70.3754H533.403V80.3346H532.255ZM539.68 70.3754V80.3346H538.474V71.6397H538.416L535.985 73.2542V72.0288L538.474 70.3754H539.68Z" fill="#4200FF"/>
<path fill-rule="evenodd" clip-rule="evenodd" d="M559.8 71.4386C560.028 71.6581 560.034 72.0205 559.815 72.2479L550.906 81.4741C550.796 81.5886 550.643 81.6519 550.483 81.6488C550.324 81.6457 550.174 81.5765 550.068 81.4577L546.091 77.0037C545.88 76.7679 545.901 76.406 546.136 76.1955C546.372 75.985 546.734 76.0055 546.945 76.2413L550.511 80.2355L558.991 71.4528C559.211 71.2253 559.573 71.219 559.8 71.4386Z" fill="#4200FF"/>
<path fill-rule="evenodd" clip-rule="evenodd" d="M562.855 71.3593C563.082 71.5789 563.089 71.9412 562.869 72.1686L553.961 81.3949C553.85 81.5094 553.697 81.5727 553.538 81.5696C553.379 81.5665 553.228 81.4972 553.122 81.3785L549.145 76.9244C548.935 76.6886 548.955 76.3268 549.191 76.1163C549.427 75.9058 549.789 75.9262 549.999 76.162L553.566 80.1563L562.046 71.3735C562.265 71.1461 562.628 71.1398 562.855 71.3593Z" fill="#4200FF"/>
<path opacity="0.8" d="M183 118C183 116.974 183 116.461 182.981 116.027C182.531 105.721 174.279 97.4689 163.973 97.0189C163.539 97 163.026 97 162 97H41.8311C35.4388 97 32.2426 97 29.6105 97.6593C21.7361 99.6317 15.5878 105.78 13.6154 113.654C12.9561 116.287 12.9561 119.483 12.9561 125.875C12.9561 128.781 12.9561 130.233 13.2557 131.43C14.1523 135.009 16.947 137.804 20.5262 138.7C21.7227 139 23.1755 139 26.0811 139H162C163.026 139 163.539 139 163.973 138.981C174.279 138.531 182.531 130.279 182.981 119.973C183 119.539 183 119.026 183 118Z" fill="#BCA4FF"/>
<path d="M136.019 130.129C135.323 130.129 134.731 129.94 134.241 129.561C133.752 129.18 133.378 128.627 133.119 127.904C132.861 127.178 132.732 126.301 132.732 125.273C132.732 124.251 132.861 123.378 133.119 122.655C133.381 121.929 133.756 121.375 134.246 120.993C134.738 120.609 135.329 120.416 136.019 120.416C136.708 120.416 137.297 120.609 137.787 120.993C138.279 121.375 138.655 121.929 138.913 122.655C139.175 123.378 139.305 124.251 139.305 125.273C139.305 126.301 139.176 127.178 138.918 127.904C138.659 128.627 138.285 129.18 137.796 129.561C137.307 129.94 136.714 130.129 136.019 130.129ZM136.019 129.114C136.708 129.114 137.243 128.781 137.625 128.116C138.007 127.452 138.198 126.504 138.198 125.273C138.198 124.454 138.11 123.757 137.934 123.181C137.762 122.606 137.513 122.167 137.187 121.866C136.863 121.564 136.474 121.413 136.019 121.413C135.335 121.413 134.801 121.75 134.417 122.424C134.032 123.095 133.84 124.045 133.84 125.273C133.84 126.091 133.926 126.787 134.098 127.359C134.27 127.932 134.518 128.367 134.841 128.666C135.168 128.964 135.56 129.114 136.019 129.114ZM143.828 130.129C143.194 130.129 142.634 130.017 142.148 129.792C141.665 129.565 141.288 129.252 141.017 128.855C140.746 128.455 140.612 128 140.615 127.489C140.612 127.089 140.69 126.719 140.851 126.381C141.011 126.039 141.229 125.754 141.506 125.527C141.786 125.296 142.099 125.15 142.443 125.088V125.033C141.991 124.916 141.631 124.662 141.363 124.271C141.095 123.877 140.963 123.429 140.966 122.928C140.963 122.447 141.084 122.018 141.331 121.64C141.577 121.261 141.915 120.962 142.346 120.744C142.78 120.525 143.274 120.416 143.828 120.416C144.376 120.416 144.865 120.525 145.296 120.744C145.727 120.962 146.066 121.261 146.312 121.64C146.561 122.018 146.687 122.447 146.69 122.928C146.687 123.429 146.55 123.877 146.28 124.271C146.012 124.662 145.656 124.916 145.213 125.033V125.088C145.555 125.15 145.862 125.296 146.136 125.527C146.41 125.754 146.629 126.039 146.792 126.381C146.955 126.719 147.038 127.089 147.041 127.489C147.038 128 146.9 128.455 146.626 128.855C146.355 129.252 145.978 129.565 145.495 129.792C145.015 130.017 144.459 130.129 143.828 130.129ZM143.828 129.114C144.256 129.114 144.625 129.044 144.936 128.906C145.247 128.767 145.487 128.572 145.656 128.32C145.826 128.067 145.912 127.772 145.915 127.433C145.912 127.076 145.819 126.761 145.638 126.487C145.456 126.213 145.208 125.998 144.895 125.841C144.584 125.684 144.228 125.605 143.828 125.605C143.425 125.605 143.065 125.684 142.748 125.841C142.434 125.998 142.186 126.213 142.005 126.487C141.826 126.761 141.738 127.076 141.742 127.433C141.738 127.772 141.82 128.067 141.986 128.32C142.155 128.572 142.397 128.767 142.711 128.906C143.025 129.044 143.397 129.114 143.828 129.114ZM143.828 124.626C144.167 124.626 144.467 124.559 144.728 124.423C144.993 124.288 145.201 124.099 145.352 123.855C145.502 123.612 145.579 123.328 145.582 123.001C145.579 122.681 145.504 122.403 145.356 122.166C145.208 121.926 145.004 121.741 144.742 121.612C144.481 121.48 144.176 121.413 143.828 121.413C143.474 121.413 143.165 121.48 142.9 121.612C142.636 121.741 142.431 121.926 142.286 122.166C142.142 122.403 142.071 122.681 142.074 123.001C142.071 123.328 142.143 123.612 142.291 123.855C142.442 124.099 142.649 124.288 142.914 124.423C143.179 124.559 143.483 124.626 143.828 124.626ZM149.363 128.79C149.135 128.79 148.94 128.709 148.777 128.546C148.614 128.383 148.532 128.187 148.532 127.96C148.532 127.732 148.614 127.536 148.777 127.373C148.94 127.21 149.135 127.129 149.363 127.129C149.591 127.129 149.786 127.21 149.949 127.373C150.112 127.536 150.194 127.732 150.194 127.96C150.194 128.11 150.155 128.249 150.079 128.375C150.005 128.501 149.905 128.603 149.778 128.68C149.655 128.754 149.517 128.79 149.363 128.79ZM149.363 124.008C149.135 124.008 148.94 123.926 148.777 123.763C148.614 123.6 148.532 123.405 148.532 123.177C148.532 122.949 148.614 122.754 148.777 122.591C148.94 122.427 149.135 122.346 149.363 122.346C149.591 122.346 149.786 122.427 149.949 122.591C150.112 122.754 150.194 122.949 150.194 123.177C150.194 123.328 150.155 123.466 150.079 123.592C150.005 123.719 149.905 123.82 149.778 123.897C149.655 123.971 149.517 124.008 149.363 124.008ZM151.649 128.061V127.119L155.804 120.545H156.487V122.004H156.025L152.886 126.972V127.045H158.481V128.061H151.649ZM156.099 130V127.775V127.336V120.545H157.189V130H156.099ZM163.091 130.129C162.703 130.123 162.315 130.049 161.927 129.908C161.539 129.766 161.186 129.528 160.865 129.192C160.545 128.854 160.288 128.397 160.094 127.821C159.901 127.242 159.804 126.516 159.804 125.642C159.804 124.805 159.882 124.063 160.039 123.417C160.196 122.768 160.424 122.221 160.722 121.778C161.021 121.332 161.381 120.993 161.803 120.762C162.227 120.532 162.706 120.416 163.238 120.416C163.768 120.416 164.239 120.522 164.651 120.735C165.066 120.944 165.405 121.236 165.667 121.612C165.928 121.987 166.097 122.42 166.174 122.909H165.048C164.943 122.484 164.74 122.132 164.439 121.852C164.137 121.572 163.737 121.432 163.238 121.432C162.506 121.432 161.929 121.75 161.507 122.387C161.089 123.025 160.878 123.919 160.875 125.07H160.949C161.121 124.808 161.326 124.585 161.563 124.4C161.803 124.212 162.067 124.068 162.357 123.966C162.646 123.865 162.952 123.814 163.275 123.814C163.817 123.814 164.312 123.949 164.762 124.22C165.211 124.488 165.571 124.859 165.842 125.333C166.113 125.804 166.248 126.344 166.248 126.953C166.248 127.538 166.117 128.073 165.856 128.56C165.594 129.043 165.226 129.428 164.753 129.714C164.282 129.997 163.728 130.135 163.091 130.129ZM163.091 129.114C163.478 129.114 163.826 129.017 164.134 128.823C164.445 128.629 164.689 128.369 164.868 128.043C165.05 127.716 165.14 127.353 165.14 126.953C165.14 126.562 165.053 126.207 164.877 125.887C164.705 125.564 164.466 125.307 164.162 125.116C163.86 124.925 163.515 124.83 163.128 124.83C162.835 124.83 162.563 124.888 162.31 125.005C162.058 125.119 161.836 125.276 161.646 125.476C161.458 125.676 161.31 125.905 161.202 126.164C161.095 126.419 161.041 126.688 161.041 126.972C161.041 127.347 161.129 127.698 161.304 128.024C161.483 128.35 161.726 128.614 162.033 128.814C162.344 129.014 162.697 129.114 163.091 129.114Z" fill="#4200FF"/>
<path d="M32.7174 125V110.455H34.4788V116.932H42.2345V110.455H43.9958V125H42.2345V118.494H34.4788V125H32.7174ZM48.3744 129.091C48.0903 129.091 47.837 129.067 47.6144 129.02C47.3919 128.977 47.238 128.935 47.1528 128.892L47.5789 127.415C47.9861 127.519 48.346 127.557 48.6585 127.528C48.971 127.5 49.248 127.36 49.4894 127.109C49.7356 126.863 49.9606 126.463 50.1642 125.909L50.4767 125.057L46.4426 114.091H48.2607L51.2721 122.784H51.3857L54.3971 114.091H56.2153L51.5846 126.591C51.3763 127.154 51.1182 127.621 50.8105 127.99C50.5027 128.364 50.1452 128.641 49.738 128.821C49.3356 129.001 48.881 129.091 48.3744 129.091ZM63.0867 125V123.438H63.4845C63.8112 123.438 64.0834 123.374 64.3012 123.246C64.519 123.113 64.6942 122.884 64.8268 122.557C64.9641 122.225 65.0683 121.766 65.1393 121.179C65.2151 120.587 65.2695 119.834 65.3026 118.92L65.5015 114.091H72.7742V125H71.0981V115.653H67.0924L66.922 119.545C66.8841 120.44 66.8036 121.229 66.6805 121.911C66.5621 122.588 66.3798 123.156 66.1336 123.615C65.8921 124.074 65.5702 124.42 65.1677 124.652C64.7652 124.884 64.261 125 63.6549 125H63.0867ZM79.0597 125.256C78.3685 125.256 77.7411 125.125 77.1776 124.865C76.6142 124.6 76.1668 124.219 75.8353 123.722C75.5039 123.22 75.3382 122.614 75.3382 121.903C75.3382 121.278 75.4613 120.772 75.7075 120.384C75.9537 119.991 76.2828 119.683 76.6947 119.46C77.1066 119.238 77.5612 119.072 78.0583 118.963C78.5602 118.849 79.0645 118.759 79.5711 118.693C80.234 118.608 80.7714 118.544 81.1833 118.501C81.6 118.454 81.903 118.376 82.0924 118.267C82.2865 118.158 82.3836 117.969 82.3836 117.699V117.642C82.3836 116.941 82.1919 116.397 81.8083 116.009C81.4295 115.62 80.8543 115.426 80.0825 115.426C79.2823 115.426 78.6549 115.601 78.2004 115.952C77.7458 116.302 77.4262 116.676 77.2416 117.074L75.6507 116.506C75.9347 115.843 76.3135 115.327 76.787 114.957C77.2652 114.583 77.7861 114.323 78.3495 114.176C78.9177 114.025 79.4764 113.949 80.0257 113.949C80.376 113.949 80.7785 113.991 81.233 114.077C81.6923 114.157 82.135 114.325 82.5612 114.581C82.992 114.837 83.3495 115.223 83.6336 115.739C83.9177 116.255 84.0597 116.946 84.0597 117.812V125H82.3836V123.523H82.2984C82.1847 123.759 81.9954 124.013 81.7302 124.283C81.4651 124.553 81.1123 124.782 80.672 124.972C80.2316 125.161 79.6942 125.256 79.0597 125.256ZM79.3154 123.75C79.9783 123.75 80.537 123.62 80.9916 123.359C81.4508 123.099 81.7965 122.763 82.0285 122.351C82.2652 121.939 82.3836 121.506 82.3836 121.051V119.517C82.3126 119.602 82.1563 119.68 81.9149 119.751C81.6781 119.818 81.4035 119.877 81.091 119.929C80.7832 119.976 80.4826 120.019 80.189 120.057C79.9002 120.09 79.6658 120.118 79.4859 120.142C79.0503 120.199 78.6431 120.291 78.2643 120.419C77.8902 120.542 77.5872 120.729 77.3552 120.98C77.1279 121.226 77.0143 121.562 77.0143 121.989C77.0143 122.571 77.2297 123.011 77.6606 123.31C78.0962 123.603 78.6478 123.75 79.3154 123.75ZM85.9543 128.125V123.438H86.8634C87.0859 123.205 87.2777 122.955 87.4387 122.685C87.5996 122.415 87.7393 122.095 87.8577 121.726C87.9808 121.352 88.085 120.897 88.1702 120.362C88.2554 119.822 88.3312 119.171 88.3975 118.409L88.7668 114.091H95.6986V123.438H97.3747V128.125H95.6986V125H87.6304V128.125H85.9543ZM88.7668 123.438H94.0225V115.653H90.3293L90.0452 118.409C89.9268 119.55 89.78 120.547 89.6048 121.399C89.4297 122.251 89.1503 122.931 88.7668 123.438ZM106.901 118.778V120.341H100.878V118.778H106.901ZM101.276 114.091V125H99.5995V114.091H101.276ZM108.179 114.091V125H106.503V114.091H108.179ZM115.672 125.227C114.687 125.227 113.823 124.993 113.08 124.524C112.341 124.055 111.763 123.4 111.347 122.557C110.935 121.714 110.729 120.729 110.729 119.602C110.729 118.466 110.935 117.474 111.347 116.626C111.763 115.779 112.341 115.121 113.08 114.652C113.823 114.183 114.687 113.949 115.672 113.949C116.657 113.949 117.519 114.183 118.257 114.652C119.001 115.121 119.578 115.779 119.99 116.626C120.407 117.474 120.615 118.466 120.615 119.602C120.615 120.729 120.407 121.714 119.99 122.557C119.578 123.4 119.001 124.055 118.257 124.524C117.519 124.993 116.657 125.227 115.672 125.227ZM115.672 123.722C116.42 123.722 117.036 123.53 117.519 123.146C118.002 122.763 118.359 122.259 118.591 121.634C118.823 121.009 118.939 120.331 118.939 119.602C118.939 118.873 118.823 118.194 118.591 117.564C118.359 116.934 118.002 116.425 117.519 116.037C117.036 115.649 116.42 115.455 115.672 115.455C114.924 115.455 114.308 115.649 113.825 116.037C113.342 116.425 112.985 116.934 112.753 117.564C112.521 118.194 112.405 118.873 112.405 119.602C112.405 120.331 112.521 121.009 112.753 121.634C112.985 122.259 113.342 122.763 113.825 123.146C114.308 123.53 114.924 123.722 115.672 123.722Z" fill="black"/>
<path opacity="0.8" fill-rule="evenodd" clip-rule="evenodd" d="M341.937 163.027C341.956 163.461 341.956 163.974 341.956 165C341.956 166.026 341.956 166.539 341.937 166.973C341.487 177.279 333.235 185.531 322.929 185.981C322.495 186 321.982 186 320.956 186H35.4489C32.6493 186 31.2495 186 30.0727 185.859C27.8908 185.598 25.8195 184.988 23.9158 184.086C23.4312 184.236 22.936 184.376 22.4334 184.503C16.1613 186.09 0 185.999 0 185.999C0 185.999 8.81949 184.503 12.0969 177.686C12.6264 176.585 13.0103 174.19 13.2864 171.509C13.009 170.524 12.805 169.508 12.6805 168.467C12.5399 167.29 12.5399 165.891 12.5399 163.091C12.5399 160.758 12.5399 159.591 12.6571 158.611C13.5654 151.014 19.554 145.026 27.1506 144.117C28.1312 144 29.2977 144 31.6308 144H320.956C321.982 144 322.495 144 322.929 144.019C333.235 144.469 341.487 152.721 341.937 163.027Z" fill="#BCA4FF"/>
<path d="M296.019 175.937C295.323 175.937 294.731 175.748 294.241 175.369C293.752 174.987 293.378 174.435 293.119 173.712C292.861 172.985 292.732 172.108 292.732 171.08C292.732 170.059 292.861 169.186 293.119 168.463C293.381 167.736 293.756 167.182 294.246 166.801C294.738 166.416 295.329 166.224 296.019 166.224C296.708 166.224 297.297 166.416 297.787 166.801C298.279 167.182 298.655 167.736 298.913 168.463C299.175 169.186 299.305 170.059 299.305 171.08C299.305 172.108 299.176 172.985 298.918 173.712C298.659 174.435 298.285 174.987 297.796 175.369C297.307 175.748 296.714 175.937 296.019 175.937ZM296.019 174.921C296.708 174.921 297.243 174.589 297.625 173.924C298.007 173.259 298.198 172.311 298.198 171.08C298.198 170.262 298.11 169.565 297.934 168.989C297.762 168.414 297.513 167.975 297.187 167.673C296.863 167.372 296.474 167.221 296.019 167.221C295.335 167.221 294.801 167.558 294.417 168.232C294.032 168.903 293.84 169.852 293.84 171.08C293.84 171.899 293.926 172.595 294.098 173.167C294.27 173.739 294.518 174.175 294.841 174.473C295.168 174.772 295.56 174.921 296.019 174.921ZM303.828 175.937C303.194 175.937 302.634 175.825 302.148 175.6C301.665 175.372 301.288 175.06 301.017 174.663C300.746 174.263 300.612 173.807 300.615 173.296C300.612 172.896 300.69 172.527 300.851 172.188C301.011 171.847 301.229 171.562 301.506 171.334C301.786 171.103 302.099 170.957 302.443 170.896V170.84C301.991 170.723 301.631 170.469 301.363 170.079C301.095 169.685 300.963 169.237 300.966 168.735C300.963 168.255 301.084 167.826 301.331 167.447C301.577 167.069 301.915 166.77 302.346 166.552C302.78 166.333 303.274 166.224 303.828 166.224C304.376 166.224 304.865 166.333 305.296 166.552C305.727 166.77 306.066 167.069 306.312 167.447C306.561 167.826 306.687 168.255 306.69 168.735C306.687 169.237 306.55 169.685 306.28 170.079C306.012 170.469 305.656 170.723 305.213 170.84V170.896C305.555 170.957 305.862 171.103 306.136 171.334C306.41 171.562 306.629 171.847 306.792 172.188C306.955 172.527 307.038 172.896 307.041 173.296C307.038 173.807 306.9 174.263 306.626 174.663C306.355 175.06 305.978 175.372 305.495 175.6C305.015 175.825 304.459 175.937 303.828 175.937ZM303.828 174.921C304.256 174.921 304.625 174.852 304.936 174.714C305.247 174.575 305.487 174.38 305.656 174.127C305.826 173.875 305.912 173.579 305.915 173.241C305.912 172.884 305.819 172.568 305.638 172.294C305.456 172.021 305.208 171.805 304.895 171.648C304.584 171.491 304.228 171.413 303.828 171.413C303.425 171.413 303.065 171.491 302.748 171.648C302.434 171.805 302.186 172.021 302.005 172.294C301.826 172.568 301.738 172.884 301.742 173.241C301.738 173.579 301.82 173.875 301.986 174.127C302.155 174.38 302.397 174.575 302.711 174.714C303.025 174.852 303.397 174.921 303.828 174.921ZM303.828 170.434C304.167 170.434 304.467 170.366 304.728 170.231C304.993 170.095 305.201 169.906 305.352 169.663C305.502 169.42 305.579 169.135 305.582 168.809C305.579 168.489 305.504 168.21 305.356 167.973C305.208 167.733 305.004 167.549 304.742 167.419C304.481 167.287 304.176 167.221 303.828 167.221C303.474 167.221 303.165 167.287 302.9 167.419C302.636 167.549 302.431 167.733 302.286 167.973C302.142 168.21 302.071 168.489 302.074 168.809C302.071 169.135 302.143 169.42 302.291 169.663C302.442 169.906 302.649 170.095 302.914 170.231C303.179 170.366 303.483 170.434 303.828 170.434ZM309.363 174.598C309.135 174.598 308.94 174.517 308.777 174.353C308.614 174.19 308.532 173.995 308.532 173.767C308.532 173.539 308.614 173.344 308.777 173.181C308.94 173.018 309.135 172.936 309.363 172.936C309.591 172.936 309.786 173.018 309.949 173.181C310.112 173.344 310.194 173.539 310.194 173.767C310.194 173.918 310.155 174.056 310.079 174.183C310.005 174.309 309.905 174.41 309.778 174.487C309.655 174.561 309.517 174.598 309.363 174.598ZM309.363 169.815C309.135 169.815 308.94 169.734 308.777 169.571C308.614 169.408 308.532 169.212 308.532 168.984C308.532 168.757 308.614 168.561 308.777 168.398C308.94 168.235 309.135 168.153 309.363 168.153C309.591 168.153 309.786 168.235 309.949 168.398C310.112 168.561 310.194 168.757 310.194 168.984C310.194 169.135 310.155 169.274 310.079 169.4C310.005 169.526 309.905 169.628 309.778 169.705C309.655 169.778 309.517 169.815 309.363 169.815ZM311.649 173.869V172.927L315.804 166.353H316.487V167.812H316.025L312.886 172.779V172.853H318.481V173.869H311.649ZM316.099 175.808V173.582V173.144V166.353H317.189V175.808H316.099ZM323.091 175.937C322.703 175.931 322.315 175.857 321.927 175.715C321.539 175.574 321.186 175.335 320.865 175C320.545 174.661 320.288 174.204 320.094 173.629C319.901 173.05 319.804 172.324 319.804 171.45C319.804 170.613 319.882 169.871 320.039 169.225C320.196 168.575 320.424 168.029 320.722 167.586C321.021 167.139 321.381 166.801 321.803 166.57C322.227 166.339 322.706 166.224 323.238 166.224C323.768 166.224 324.239 166.33 324.651 166.542C325.066 166.752 325.405 167.044 325.667 167.419C325.928 167.795 326.097 168.227 326.174 168.717H325.048C324.943 168.292 324.74 167.94 324.439 167.66C324.137 167.379 323.737 167.239 323.238 167.239C322.506 167.239 321.929 167.558 321.507 168.195C321.089 168.832 320.878 169.726 320.875 170.877H320.949C321.121 170.616 321.326 170.392 321.563 170.208C321.803 170.02 322.067 169.875 322.357 169.774C322.646 169.672 322.952 169.622 323.275 169.622C323.817 169.622 324.312 169.757 324.762 170.028C325.211 170.296 325.571 170.666 325.842 171.14C326.113 171.611 326.248 172.151 326.248 172.761C326.248 173.345 326.117 173.881 325.856 174.367C325.594 174.85 325.226 175.235 324.753 175.521C324.282 175.805 323.728 175.943 323.091 175.937ZM323.091 174.921C323.478 174.921 323.826 174.824 324.134 174.63C324.445 174.437 324.689 174.176 324.868 173.85C325.05 173.524 325.14 173.161 325.14 172.761C325.14 172.37 325.053 172.014 324.877 171.694C324.705 171.371 324.466 171.114 324.162 170.923C323.86 170.733 323.515 170.637 323.128 170.637C322.835 170.637 322.563 170.696 322.31 170.813C322.058 170.926 321.836 171.083 321.646 171.283C321.458 171.484 321.31 171.713 321.202 171.971C321.095 172.227 321.041 172.496 321.041 172.779C321.041 173.155 321.129 173.506 321.304 173.832C321.483 174.158 321.726 174.421 322.033 174.621C322.344 174.821 322.697 174.921 323.091 174.921Z" fill="#4200FF"/>
<path d="M26.7174 172V157.455H31.8026C32.8159 157.455 33.6516 157.63 34.3097 157.98C34.9679 158.326 35.4579 158.792 35.7799 159.379C36.1019 159.962 36.2629 160.608 36.2629 161.318C36.2629 161.943 36.1516 162.459 35.9291 162.866C35.7113 163.274 35.4224 163.596 35.0626 163.832C34.7075 164.069 34.3216 164.244 33.9049 164.358V164.5C34.35 164.528 34.7974 164.685 35.2472 164.969C35.6971 165.253 36.0735 165.66 36.3765 166.19C36.6795 166.721 36.8311 167.369 36.8311 168.136C36.8311 168.866 36.6653 169.521 36.3339 170.104C36.0025 170.686 35.4793 171.148 34.7643 171.489C34.0493 171.83 33.1189 172 31.9731 172H26.7174ZM28.4788 170.438H31.9731C33.1237 170.438 33.9404 170.215 34.4234 169.77C34.9111 169.32 35.1549 168.776 35.1549 168.136C35.1549 167.644 35.0294 167.189 34.7785 166.773C34.5276 166.351 34.1701 166.015 33.7061 165.764C33.242 165.509 32.6928 165.381 32.0583 165.381H28.4788V170.438ZM28.4788 163.847H31.7458C32.2761 163.847 32.7544 163.742 33.1805 163.534C33.6114 163.326 33.9523 163.032 34.2032 162.653C34.4589 162.275 34.5867 161.83 34.5867 161.318C34.5867 160.679 34.3642 160.137 33.9191 159.692C33.474 159.242 32.7686 159.017 31.8026 159.017H28.4788V163.847ZM44.0718 172.227C43.0207 172.227 42.114 171.995 41.3517 171.531C40.5941 171.062 40.0093 170.409 39.5974 169.571C39.1902 168.728 38.9866 167.748 38.9866 166.631C38.9866 165.513 39.1902 164.528 39.5974 163.676C40.0093 162.819 40.5822 162.152 41.3161 161.673C42.0548 161.19 42.9165 160.949 43.9014 160.949C44.4695 160.949 45.0306 161.044 45.5846 161.233C46.1386 161.422 46.6428 161.73 47.0974 162.156C47.5519 162.578 47.9142 163.136 48.184 163.832C48.4539 164.528 48.5889 165.385 48.5889 166.403V167.114H40.1798V165.665H46.8843C46.8843 165.049 46.7612 164.5 46.515 164.017C46.2735 163.534 45.9279 163.153 45.4781 162.874C45.033 162.594 44.5074 162.455 43.9014 162.455C43.2338 162.455 42.6561 162.62 42.1684 162.952C41.6855 163.278 41.3138 163.705 41.0534 164.23C40.7929 164.756 40.6627 165.319 40.6627 165.92V166.886C40.6627 167.71 40.8048 168.409 41.0889 168.982C41.3777 169.55 41.7778 169.983 42.2892 170.281C42.8005 170.575 43.3947 170.722 44.0718 170.722C44.5122 170.722 44.9099 170.66 45.265 170.537C45.6249 170.409 45.935 170.22 46.1954 169.969C46.4558 169.713 46.657 169.396 46.7991 169.017L48.4184 169.472C48.248 170.021 47.9615 170.504 47.559 170.92C47.1566 171.332 46.6594 171.654 46.0676 171.886C45.4757 172.114 44.8105 172.227 44.0718 172.227ZM51.1386 176.091V161.091H52.7579V162.824H52.9568C53.0799 162.634 53.2503 162.393 53.4681 162.099C53.6907 161.801 54.0079 161.536 54.4198 161.304C54.8365 161.067 55.3999 160.949 56.1102 160.949C57.0287 160.949 57.8384 161.179 58.5392 161.638C59.2399 162.097 59.7868 162.748 60.1798 163.591C60.5728 164.434 60.7693 165.428 60.7693 166.574C60.7693 167.729 60.5728 168.731 60.1798 169.578C59.7868 170.421 59.2423 171.074 58.5463 171.538C57.8502 171.998 57.0477 172.227 56.1386 172.227C55.4378 172.227 54.8767 172.111 54.4553 171.879C54.0339 171.643 53.7096 171.375 53.4823 171.077C53.2551 170.774 53.0799 170.523 52.9568 170.324H52.8147V176.091H51.1386ZM52.7863 166.545C52.7863 167.369 52.907 168.096 53.1485 168.726C53.39 169.351 53.7427 169.841 54.2068 170.196C54.6708 170.546 55.239 170.722 55.9113 170.722C56.6121 170.722 57.1968 170.537 57.6656 170.168C58.1391 169.794 58.4942 169.292 58.7309 168.662C58.9724 168.027 59.0931 167.322 59.0931 166.545C59.0931 165.778 58.9748 165.087 58.738 164.472C58.506 163.851 58.1533 163.361 57.6798 163.001C57.211 162.637 56.6215 162.455 55.9113 162.455C55.2295 162.455 54.6566 162.627 54.1926 162.973C53.7285 163.314 53.3782 163.792 53.1414 164.408C52.9047 165.018 52.7863 165.731 52.7863 166.545ZM70.6272 165.778V167.341H64.6045V165.778H70.6272ZM65.0022 161.091V172H63.3261V161.091H65.0022ZM71.9056 161.091V172H70.2295V161.091H71.9056ZM75.6556 176.091C75.3715 176.091 75.1182 176.067 74.8957 176.02C74.6731 175.977 74.5193 175.935 74.434 175.892L74.8602 174.415C75.2674 174.519 75.6272 174.557 75.9397 174.528C76.2522 174.5 76.5292 174.36 76.7707 174.109C77.0169 173.863 77.2418 173.463 77.4454 172.909L77.7579 172.057L73.7238 161.091H75.542L78.5534 169.784H78.667L81.6784 161.091H83.4965L78.8659 173.591C78.6575 174.154 78.3995 174.621 78.0917 174.99C77.7839 175.364 77.4265 175.641 77.0193 175.821C76.6168 176.001 76.1623 176.091 75.6556 176.091ZM89.7501 172.227C88.7274 172.227 87.8467 171.986 87.108 171.503C86.3694 171.02 85.8012 170.355 85.4035 169.507C85.0058 168.66 84.8069 167.691 84.8069 166.602C84.8069 165.494 85.0105 164.517 85.4177 163.669C85.8296 162.817 86.4026 162.152 87.1365 161.673C87.8751 161.19 88.7368 160.949 89.7217 160.949C90.4887 160.949 91.18 161.091 91.7955 161.375C92.4111 161.659 92.9153 162.057 93.3083 162.568C93.7013 163.08 93.9452 163.676 94.0399 164.358H92.3637C92.2359 163.861 91.9518 163.42 91.5115 163.037C91.0758 162.649 90.4887 162.455 89.7501 162.455C89.0967 162.455 88.5238 162.625 88.0313 162.966C87.5436 163.302 87.1625 163.778 86.8879 164.393C86.618 165.004 86.483 165.722 86.483 166.545C86.483 167.388 86.6156 168.122 86.8808 168.747C87.1507 169.372 87.5294 169.857 88.0171 170.203C88.5096 170.549 89.0872 170.722 89.7501 170.722C90.1857 170.722 90.5811 170.646 90.9362 170.494C91.2913 170.343 91.5919 170.125 91.8382 169.841C92.0844 169.557 92.2596 169.216 92.3637 168.818H94.0399C93.9452 169.462 93.7108 170.042 93.3367 170.558C92.9674 171.07 92.4774 171.477 91.8666 171.78C91.2605 172.078 90.555 172.227 89.7501 172.227ZM97.939 165.04H101.064C102.342 165.04 103.32 165.364 103.997 166.013C104.674 166.661 105.013 167.483 105.013 168.477C105.013 169.131 104.861 169.725 104.558 170.26C104.255 170.79 103.81 171.214 103.223 171.531C102.636 171.844 101.916 172 101.064 172H96.4901V161.091H98.1663V170.438H101.064C101.727 170.438 102.271 170.262 102.698 169.912C103.124 169.562 103.337 169.112 103.337 168.562C103.337 167.985 103.124 167.514 102.698 167.149C102.271 166.785 101.727 166.602 101.064 166.602H97.939V165.04ZM120.491 165.778V167.341H114.468V165.778H120.491ZM114.866 161.091V172H113.189V161.091H114.866ZM121.769 161.091V172H120.093V161.091H121.769ZM128.04 172.256C127.349 172.256 126.722 172.125 126.158 171.865C125.595 171.6 125.147 171.219 124.816 170.722C124.484 170.22 124.319 169.614 124.319 168.903C124.319 168.278 124.442 167.772 124.688 167.384C124.934 166.991 125.263 166.683 125.675 166.46C126.087 166.238 126.542 166.072 127.039 165.963C127.541 165.849 128.045 165.759 128.552 165.693C129.214 165.608 129.752 165.544 130.164 165.501C130.58 165.454 130.883 165.376 131.073 165.267C131.267 165.158 131.364 164.969 131.364 164.699V164.642C131.364 163.941 131.172 163.397 130.789 163.009C130.41 162.62 129.835 162.426 129.063 162.426C128.263 162.426 127.635 162.601 127.181 162.952C126.726 163.302 126.407 163.676 126.222 164.074L124.631 163.506C124.915 162.843 125.294 162.327 125.767 161.957C126.246 161.583 126.767 161.323 127.33 161.176C127.898 161.025 128.457 160.949 129.006 160.949C129.357 160.949 129.759 160.991 130.214 161.077C130.673 161.157 131.116 161.325 131.542 161.581C131.973 161.837 132.33 162.223 132.614 162.739C132.898 163.255 133.04 163.946 133.04 164.812V172H131.364V170.523H131.279C131.165 170.759 130.976 171.013 130.711 171.283C130.446 171.553 130.093 171.782 129.652 171.972C129.212 172.161 128.675 172.256 128.04 172.256ZM128.296 170.75C128.959 170.75 129.517 170.62 129.972 170.359C130.431 170.099 130.777 169.763 131.009 169.351C131.246 168.939 131.364 168.506 131.364 168.051V166.517C131.293 166.602 131.137 166.68 130.895 166.751C130.659 166.818 130.384 166.877 130.071 166.929C129.764 166.976 129.463 167.019 129.169 167.057C128.881 167.09 128.646 167.118 128.466 167.142C128.031 167.199 127.624 167.291 127.245 167.419C126.871 167.542 126.568 167.729 126.336 167.98C126.108 168.226 125.995 168.562 125.995 168.989C125.995 169.571 126.21 170.011 126.641 170.31C127.077 170.603 127.628 170.75 128.296 170.75ZM148.457 161.091V162.653H143.401V172H141.725V161.091H148.457ZM149.02 172V170.438H149.418C149.745 170.438 150.017 170.374 150.235 170.246C150.453 170.113 150.628 169.884 150.76 169.557C150.898 169.225 151.002 168.766 151.073 168.179C151.149 167.587 151.203 166.834 151.236 165.92L151.435 161.091H158.708V172H157.032V162.653H153.026L152.856 166.545C152.818 167.44 152.737 168.229 152.614 168.911C152.496 169.588 152.313 170.156 152.067 170.615C151.826 171.074 151.504 171.42 151.101 171.652C150.699 171.884 150.195 172 149.589 172H149.02ZM164.993 172.256C164.302 172.256 163.675 172.125 163.111 171.865C162.548 171.6 162.1 171.219 161.769 170.722C161.437 170.22 161.272 169.614 161.272 168.903C161.272 168.278 161.395 167.772 161.641 167.384C161.887 166.991 162.216 166.683 162.628 166.46C163.04 166.238 163.495 166.072 163.992 165.963C164.494 165.849 164.998 165.759 165.505 165.693C166.168 165.608 166.705 165.544 167.117 165.501C167.534 165.454 167.837 165.376 168.026 165.267C168.22 165.158 168.317 164.969 168.317 164.699V164.642C168.317 163.941 168.125 163.397 167.742 163.009C167.363 162.62 166.788 162.426 166.016 162.426C165.216 162.426 164.589 162.601 164.134 162.952C163.679 163.302 163.36 163.676 163.175 164.074L161.584 163.506C161.868 162.843 162.247 162.327 162.721 161.957C163.199 161.583 163.72 161.323 164.283 161.176C164.851 161.025 165.41 160.949 165.959 160.949C166.31 160.949 166.712 160.991 167.167 161.077C167.626 161.157 168.069 161.325 168.495 161.581C168.926 161.837 169.283 162.223 169.567 162.739C169.851 163.255 169.993 163.946 169.993 164.812V172H168.317V170.523H168.232C168.118 170.759 167.929 171.013 167.664 171.283C167.399 171.553 167.046 171.782 166.606 171.972C166.165 172.161 165.628 172.256 164.993 172.256ZM165.249 170.75C165.912 170.75 166.471 170.62 166.925 170.359C167.384 170.099 167.73 169.763 167.962 169.351C168.199 168.939 168.317 168.506 168.317 168.051V166.517C168.246 166.602 168.09 166.68 167.848 166.751C167.612 166.818 167.337 166.877 167.025 166.929C166.717 166.976 166.416 167.019 166.123 167.057C165.834 167.09 165.599 167.118 165.419 167.142C164.984 167.199 164.577 167.291 164.198 167.419C163.824 167.542 163.521 167.729 163.289 167.98C163.062 168.226 162.948 168.562 162.948 168.989C162.948 169.571 163.163 170.011 163.594 170.31C164.03 170.603 164.581 170.75 165.249 170.75ZM173.053 172V161.091H177.513C178.687 161.091 179.62 161.356 180.311 161.886C181.002 162.417 181.348 163.117 181.348 163.989C181.348 164.652 181.152 165.165 180.759 165.53C180.366 165.89 179.861 166.134 179.246 166.261C179.648 166.318 180.039 166.46 180.418 166.688C180.801 166.915 181.118 167.227 181.369 167.625C181.62 168.018 181.746 168.501 181.746 169.074C181.746 169.633 181.604 170.132 181.32 170.572C181.036 171.013 180.628 171.361 180.098 171.616C179.568 171.872 178.933 172 178.195 172H173.053ZM174.644 170.466H178.195C178.772 170.466 179.225 170.329 179.551 170.054C179.878 169.779 180.041 169.405 180.041 168.932C180.041 168.368 179.878 167.926 179.551 167.604C179.225 167.277 178.772 167.114 178.195 167.114H174.644V170.466ZM174.644 165.665H177.513C177.963 165.665 178.349 165.603 178.671 165.48C178.993 165.352 179.239 165.172 179.409 164.94C179.584 164.704 179.672 164.424 179.672 164.102C179.672 163.643 179.48 163.283 179.097 163.023C178.713 162.758 178.185 162.625 177.513 162.625H174.644V165.665ZM191.584 165.778V167.341H185.562V165.778H191.584ZM185.959 161.091V172H184.283V161.091H185.959ZM192.863 161.091V172H191.187V161.091H192.863ZM196.613 176.091C196.329 176.091 196.075 176.067 195.853 176.02C195.63 175.977 195.476 175.935 195.391 175.892L195.817 174.415C196.224 174.519 196.584 174.557 196.897 174.528C197.209 174.5 197.486 174.36 197.728 174.109C197.974 173.863 198.199 173.463 198.402 172.909L198.715 172.057L194.681 161.091H196.499L199.51 169.784H199.624L202.635 161.091H204.454L199.823 173.591C199.615 174.154 199.357 174.621 199.049 174.99C198.741 175.364 198.383 175.641 197.976 175.821C197.574 176.001 197.119 176.091 196.613 176.091ZM211.893 165.864V167.426H206.126V165.864H211.893ZM207.547 161.091V172H205.87V161.091H207.547ZM215.245 172.227C214.261 172.227 213.397 171.993 212.653 171.524C211.915 171.055 211.337 170.4 210.92 169.557C210.508 168.714 210.302 167.729 210.302 166.602C210.302 165.466 210.508 164.474 210.92 163.626C211.337 162.779 211.915 162.121 212.653 161.652C213.397 161.183 214.261 160.949 215.245 160.949C216.23 160.949 217.092 161.183 217.831 161.652C218.574 162.121 219.152 162.779 219.564 163.626C219.98 164.474 220.189 165.466 220.189 166.602C220.189 167.729 219.98 168.714 219.564 169.557C219.152 170.4 218.574 171.055 217.831 171.524C217.092 171.993 216.23 172.227 215.245 172.227ZM215.245 170.722C215.994 170.722 216.609 170.53 217.092 170.146C217.575 169.763 217.932 169.259 218.165 168.634C218.397 168.009 218.513 167.331 218.513 166.602C218.513 165.873 218.397 165.194 218.165 164.564C217.932 163.934 217.575 163.425 217.092 163.037C216.609 162.649 215.994 162.455 215.245 162.455C214.497 162.455 213.882 162.649 213.399 163.037C212.916 163.425 212.558 163.934 212.326 164.564C212.094 165.194 211.978 165.873 211.978 166.602C211.978 167.331 212.094 168.009 212.326 168.634C212.558 169.259 212.916 169.763 213.399 170.146C213.882 170.53 214.497 170.722 215.245 170.722ZM227.916 162.653V161.091H236.78V162.653H233.2V172H231.524V162.653H227.916ZM243.09 172.227C242.105 172.227 241.241 171.993 240.498 171.524C239.759 171.055 239.181 170.4 238.765 169.557C238.353 168.714 238.147 167.729 238.147 166.602C238.147 165.466 238.353 164.474 238.765 163.626C239.181 162.779 239.759 162.121 240.498 161.652C241.241 161.183 242.105 160.949 243.09 160.949C244.075 160.949 244.937 161.183 245.675 161.652C246.419 162.121 246.996 162.779 247.408 163.626C247.825 164.474 248.033 165.466 248.033 166.602C248.033 167.729 247.825 168.714 247.408 169.557C246.996 170.4 246.419 171.055 245.675 171.524C244.937 171.993 244.075 172.227 243.09 172.227ZM243.09 170.722C243.838 170.722 244.454 170.53 244.937 170.146C245.419 169.763 245.777 169.259 246.009 168.634C246.241 168.009 246.357 167.331 246.357 166.602C246.357 165.873 246.241 165.194 246.009 164.564C245.777 163.934 245.419 163.425 244.937 163.037C244.454 162.649 243.838 162.455 243.09 162.455C242.342 162.455 241.726 162.649 241.243 163.037C240.76 163.425 240.403 163.934 240.171 164.564C239.939 165.194 239.823 165.873 239.823 166.602C239.823 167.331 239.939 168.009 240.171 168.634C240.403 169.259 240.76 169.763 241.243 170.146C241.726 170.53 242.342 170.722 243.09 170.722ZM257.325 161.091V162.653H252.268V172H250.592V161.091H257.325ZM257.689 175.125V170.438H258.598C258.82 170.205 259.012 169.955 259.173 169.685C259.334 169.415 259.474 169.095 259.592 168.726C259.715 168.352 259.819 167.897 259.905 167.362C259.99 166.822 260.066 166.171 260.132 165.409L260.501 161.091H267.433V170.438H269.109V175.125H267.433V172H259.365V175.125H257.689ZM260.501 170.438H265.757V162.653H262.064L261.78 165.409C261.661 166.55 261.514 167.547 261.339 168.399C261.164 169.251 260.885 169.931 260.501 170.438ZM274.544 172.256C273.853 172.256 273.225 172.125 272.662 171.865C272.099 171.6 271.651 171.219 271.32 170.722C270.988 170.22 270.823 169.614 270.823 168.903C270.823 168.278 270.946 167.772 271.192 167.384C271.438 166.991 271.767 166.683 272.179 166.46C272.591 166.238 273.046 166.072 273.543 165.963C274.045 165.849 274.549 165.759 275.055 165.693C275.718 165.608 276.256 165.544 276.668 165.501C277.084 165.454 277.387 165.376 277.577 165.267C277.771 165.158 277.868 164.969 277.868 164.699V164.642C277.868 163.941 277.676 163.397 277.293 163.009C276.914 162.62 276.339 162.426 275.567 162.426C274.767 162.426 274.139 162.601 273.685 162.952C273.23 163.302 272.911 163.676 272.726 164.074L271.135 163.506C271.419 162.843 271.798 162.327 272.271 161.957C272.75 161.583 273.27 161.323 273.834 161.176C274.402 161.025 274.961 160.949 275.51 160.949C275.86 160.949 276.263 160.991 276.717 161.077C277.177 161.157 277.619 161.325 278.046 161.581C278.476 161.837 278.834 162.223 279.118 162.739C279.402 163.255 279.544 163.946 279.544 164.812V172H277.868V170.523H277.783C277.669 170.759 277.48 171.013 277.215 171.283C276.949 171.553 276.597 171.782 276.156 171.972C275.716 172.161 275.179 172.256 274.544 172.256ZM274.8 170.75C275.463 170.75 276.021 170.62 276.476 170.359C276.935 170.099 277.281 169.763 277.513 169.351C277.75 168.939 277.868 168.506 277.868 168.051V166.517C277.797 166.602 277.641 166.68 277.399 166.751C277.162 166.818 276.888 166.877 276.575 166.929C276.268 166.976 275.967 167.019 275.673 167.057C275.385 167.09 275.15 167.118 274.97 167.142C274.535 167.199 274.127 167.291 273.749 167.419C273.375 167.542 273.072 167.729 272.84 167.98C272.612 168.226 272.499 168.562 272.499 168.989C272.499 169.571 272.714 170.011 273.145 170.31C273.581 170.603 274.132 170.75 274.8 170.75Z" fill="black"/>
</svg>
