<svg width="661" height="269" viewBox="0 0 661 269" fill="none" xmlns="http://www.w3.org/2000/svg">
<rect width="661" height="269" rx="15" fill="white"/>
<path opacity="0.9" d="M386 99.2387C386 87.2589 395.712 77.5474 407.691 77.5474H606.012C613.829 77.5474 617.738 77.5474 620.894 78.5983C627.028 80.6406 631.841 85.4535 633.883 91.5872C634.934 94.7436 634.934 98.6522 634.934 106.469C634.934 110.378 634.934 112.332 634.409 113.91C633.388 116.977 630.981 119.383 627.914 120.405C626.336 120.93 624.382 120.93 620.473 120.93H407.691C395.712 120.93 386 111.219 386 99.2387Z" fill="#CFBEFF"/>
<path d="M407.175 105.844V91.2981H408.937V97.7753H416.692V91.2981H418.454V105.844H416.692V99.3378H408.937V105.844H407.175ZM422.832 109.934C422.548 109.934 422.295 109.911 422.072 109.863C421.85 109.821 421.696 109.778 421.611 109.736L422.037 108.258C422.444 108.362 422.804 108.4 423.116 108.372C423.429 108.344 423.706 108.204 423.947 107.953C424.193 107.707 424.418 107.307 424.622 106.753L424.934 105.9L420.9 94.9344H422.719L425.73 103.628H425.844L428.855 94.9344H430.673L426.042 107.434C425.834 107.998 425.576 108.464 425.268 108.834C424.96 109.208 424.603 109.485 424.196 109.665C423.793 109.844 423.339 109.934 422.832 109.934ZM443.084 106.071C442.033 106.071 441.126 105.839 440.364 105.375C439.607 104.906 439.022 104.253 438.61 103.415C438.203 102.572 437.999 101.592 437.999 100.474C437.999 99.3568 438.203 98.3719 438.61 97.5196C439.022 96.6626 439.595 95.995 440.329 95.5168C441.067 95.0338 441.929 94.7924 442.914 94.7924C443.482 94.7924 444.043 94.8871 444.597 95.0765C445.151 95.2659 445.655 95.5736 446.11 95.9998C446.564 96.4212 446.927 96.9799 447.196 97.6759C447.466 98.3719 447.601 99.2289 447.601 100.247V100.957H439.192V99.5083H445.897C445.897 98.8927 445.774 98.3435 445.527 97.8606C445.286 97.3776 444.94 96.9964 444.491 96.7171C444.045 96.4377 443.52 96.2981 442.914 96.2981C442.246 96.2981 441.669 96.4638 441.181 96.7952C440.698 97.1219 440.326 97.5481 440.066 98.0736C439.805 98.5992 439.675 99.1626 439.675 99.764V100.73C439.675 101.554 439.817 102.252 440.101 102.825C440.39 103.393 440.79 103.826 441.302 104.125C441.813 104.418 442.407 104.565 443.084 104.565C443.525 104.565 443.922 104.504 444.277 104.38C444.637 104.253 444.947 104.063 445.208 103.812C445.468 103.557 445.67 103.239 445.812 102.861L447.431 103.315C447.26 103.864 446.974 104.347 446.571 104.764C446.169 105.176 445.672 105.498 445.08 105.73C444.488 105.957 443.823 106.071 443.084 106.071ZM454.583 106.071C453.56 106.071 452.679 105.829 451.941 105.346C451.202 104.863 450.634 104.198 450.236 103.351C449.839 102.503 449.64 101.535 449.64 100.446C449.64 99.3378 449.843 98.3601 450.25 97.5125C450.662 96.6603 451.235 95.995 451.969 95.5168C452.708 95.0338 453.57 94.7924 454.554 94.7924C455.321 94.7924 456.013 94.9344 456.628 95.2185C457.244 95.5026 457.748 95.9003 458.141 96.4117C458.534 96.9231 458.778 97.5196 458.873 98.2015H457.196C457.069 97.7043 456.785 97.264 456.344 96.8804C455.909 96.4922 455.321 96.2981 454.583 96.2981C453.929 96.2981 453.357 96.4685 452.864 96.8094C452.376 97.1456 451.995 97.6214 451.721 98.237C451.451 98.8478 451.316 99.5651 451.316 100.389C451.316 101.232 451.448 101.966 451.714 102.591C451.983 103.216 452.362 103.701 452.85 104.047C453.342 104.392 453.92 104.565 454.583 104.565C455.018 104.565 455.414 104.489 455.769 104.338C456.124 104.186 456.425 103.969 456.671 103.684C456.917 103.4 457.092 103.059 457.196 102.662H458.873C458.778 103.306 458.544 103.886 458.17 104.402C457.8 104.913 457.31 105.32 456.699 105.623C456.093 105.922 455.388 106.071 454.583 106.071ZM460.357 105.844V104.281H460.755C461.081 104.281 461.354 104.217 461.571 104.089C461.789 103.957 461.964 103.727 462.097 103.4C462.234 103.069 462.339 102.61 462.41 102.022C462.485 101.431 462.54 100.678 462.573 99.764L462.772 94.9344H470.045V105.844H468.368V96.4969H464.363L464.192 100.389C464.154 101.284 464.074 102.072 463.951 102.754C463.832 103.431 463.65 103.999 463.404 104.459C463.162 104.918 462.84 105.263 462.438 105.495C462.036 105.728 461.531 105.844 460.925 105.844H460.357ZM474.796 103.372L480.052 94.9344H481.983V105.844H480.307V97.406L475.08 105.844H473.12V94.9344H474.796V103.372ZM499.087 94.9344V105.844H497.411V94.9344H499.087ZM498.434 100.133V101.696C498.055 101.838 497.679 101.963 497.305 102.072C496.931 102.176 496.538 102.259 496.126 102.321C495.714 102.378 495.262 102.406 494.769 102.406C493.533 102.406 492.542 102.072 491.793 101.405C491.05 100.737 490.678 99.7356 490.678 98.4003V94.906H492.355V98.4003C492.355 98.959 492.461 99.4183 492.674 99.7782C492.887 100.138 493.176 100.406 493.541 100.581C493.905 100.756 494.315 100.844 494.769 100.844C495.48 100.844 496.121 100.78 496.694 100.652C497.272 100.519 497.852 100.346 498.434 100.133ZM506.737 106.071C505.685 106.071 504.779 105.839 504.016 105.375C503.259 104.906 502.674 104.253 502.262 103.415C501.855 102.572 501.651 101.592 501.651 100.474C501.651 99.3568 501.855 98.3719 502.262 97.5196C502.674 96.6626 503.247 95.995 503.981 95.5168C504.72 95.0338 505.581 94.7924 506.566 94.7924C507.134 94.7924 507.695 94.8871 508.249 95.0765C508.803 95.2659 509.308 95.5736 509.762 95.9998C510.217 96.4212 510.579 96.9799 510.849 97.6759C511.119 98.3719 511.254 99.2289 511.254 100.247V100.957H502.845V99.5083H509.549C509.549 98.8927 509.426 98.3435 509.18 97.8606C508.938 97.3776 508.593 96.9964 508.143 96.7171C507.698 96.4377 507.172 96.2981 506.566 96.2981C505.899 96.2981 505.321 96.4638 504.833 96.7952C504.35 97.1219 503.979 97.5481 503.718 98.0736C503.458 98.5992 503.328 99.1626 503.328 99.764V100.73C503.328 101.554 503.47 102.252 503.754 102.825C504.042 103.393 504.443 103.826 504.954 104.125C505.465 104.418 506.06 104.565 506.737 104.565C507.177 104.565 507.575 104.504 507.93 104.38C508.29 104.253 508.6 104.063 508.86 103.812C509.121 103.557 509.322 103.239 509.464 102.861L511.083 103.315C510.913 103.864 510.626 104.347 510.224 104.764C509.821 105.176 509.324 105.498 508.732 105.73C508.14 105.957 507.475 106.071 506.737 106.071ZM518.235 106.071C517.212 106.071 516.332 105.829 515.593 105.346C514.855 104.863 514.286 104.198 513.889 103.351C513.491 102.503 513.292 101.535 513.292 100.446C513.292 99.3378 513.496 98.3601 513.903 97.5125C514.315 96.6603 514.888 95.995 515.622 95.5168C516.36 95.0338 517.222 94.7924 518.207 94.7924C518.974 94.7924 519.665 94.9344 520.281 95.2185C520.896 95.5026 521.4 95.9003 521.793 96.4117C522.186 96.9231 522.43 97.5196 522.525 98.2015H520.849C520.721 97.7043 520.437 97.264 519.997 96.8804C519.561 96.4922 518.974 96.2981 518.235 96.2981C517.582 96.2981 517.009 96.4685 516.516 96.8094C516.029 97.1456 515.648 97.6214 515.373 98.237C515.103 98.8478 514.968 99.5651 514.968 100.389C514.968 101.232 515.101 101.966 515.366 102.591C515.636 103.216 516.015 103.701 516.502 104.047C516.995 104.392 517.572 104.565 518.235 104.565C518.671 104.565 519.066 104.489 519.421 104.338C519.776 104.186 520.077 103.969 520.323 103.684C520.569 103.4 520.745 103.059 520.849 102.662H522.525C522.43 103.306 522.196 103.886 521.822 104.402C521.453 104.913 520.962 105.32 520.352 105.623C519.746 105.922 519.04 106.071 518.235 106.071ZM524.116 96.4969V94.9344H532.98V96.4969H529.4V105.844H527.724V96.4969H524.116ZM542.726 99.6219V101.184H536.703V99.6219H542.726ZM537.101 94.9344V105.844H535.424V94.9344H537.101ZM544.004 94.9344V105.844H542.328V94.9344H544.004ZM551.497 106.071C550.512 106.071 549.648 105.836 548.905 105.368C548.166 104.899 547.588 104.243 547.172 103.4C546.76 102.558 546.554 101.573 546.554 100.446C546.554 99.3094 546.76 98.3175 547.172 97.4699C547.588 96.6224 548.166 95.9642 548.905 95.4955C549.648 95.0267 550.512 94.7924 551.497 94.7924C552.482 94.7924 553.344 95.0267 554.082 95.4955C554.826 95.9642 555.403 96.6224 555.815 97.4699C556.232 98.3175 556.44 99.3094 556.44 100.446C556.44 101.573 556.232 102.558 555.815 103.4C555.403 104.243 554.826 104.899 554.082 105.368C553.344 105.836 552.482 106.071 551.497 106.071ZM551.497 104.565C552.245 104.565 552.861 104.373 553.344 103.99C553.826 103.606 554.184 103.102 554.416 102.477C554.648 101.852 554.764 101.175 554.764 100.446C554.764 99.7166 554.648 99.0372 554.416 98.4074C554.184 97.7777 553.826 97.2687 553.344 96.8804C552.861 96.4922 552.245 96.2981 551.497 96.2981C550.749 96.2981 550.133 96.4922 549.65 96.8804C549.167 97.2687 548.81 97.7777 548.578 98.4074C548.346 99.0372 548.23 99.7166 548.23 100.446C548.23 101.175 548.346 101.852 548.578 102.477C548.81 103.102 549.167 103.606 549.65 103.99C550.133 104.373 550.749 104.565 551.497 104.565Z" fill="black"/>
<path d="M569.05 109.974V109.102L572.325 105.518C572.709 105.098 573.025 104.733 573.274 104.423C573.523 104.11 573.707 103.816 573.826 103.542C573.949 103.264 574.01 102.974 574.01 102.67C574.01 102.321 573.926 102.019 573.758 101.764C573.594 101.509 573.368 101.312 573.08 101.173C572.793 101.034 572.47 100.965 572.111 100.965C571.73 100.965 571.398 101.044 571.114 101.202C570.833 101.357 570.615 101.575 570.46 101.856C570.308 102.137 570.232 102.467 570.232 102.844H569.089C569.089 102.263 569.223 101.753 569.491 101.314C569.759 100.875 570.124 100.532 570.586 100.287C571.051 100.042 571.572 99.9188 572.15 99.9188C572.731 99.9188 573.246 100.042 573.695 100.287C574.144 100.532 574.496 100.863 574.751 101.28C575.006 101.696 575.134 102.16 575.134 102.67C575.134 103.035 575.068 103.392 574.935 103.74C574.806 104.086 574.58 104.472 574.257 104.898C573.937 105.321 573.493 105.838 572.925 106.448L570.697 108.831V108.909H575.308V109.974H569.05ZM580.271 110.11C579.542 110.11 578.92 109.911 578.407 109.514C577.893 109.114 577.501 108.534 577.23 107.775C576.958 107.013 576.823 106.093 576.823 105.014C576.823 103.942 576.958 103.027 577.23 102.268C577.504 101.506 577.898 100.925 578.411 100.524C578.928 100.121 579.548 99.9188 580.271 99.9188C580.995 99.9188 581.613 100.121 582.126 100.524C582.643 100.925 583.037 101.506 583.308 102.268C583.583 103.027 583.72 103.942 583.72 105.014C583.72 106.093 583.584 107.013 583.313 107.775C583.042 108.534 582.65 109.114 582.136 109.514C581.623 109.911 581.001 110.11 580.271 110.11ZM580.271 109.044C580.995 109.044 581.557 108.695 581.957 107.998C582.357 107.3 582.558 106.306 582.558 105.014C582.558 104.155 582.466 103.424 582.281 102.82C582.101 102.216 581.839 101.756 581.497 101.44C581.158 101.123 580.749 100.965 580.271 100.965C579.555 100.965 578.994 101.319 578.591 102.026C578.187 102.73 577.985 103.726 577.985 105.014C577.985 105.873 578.076 106.603 578.256 107.204C578.437 107.804 578.697 108.261 579.036 108.574C579.379 108.888 579.79 109.044 580.271 109.044ZM586.14 108.705C585.901 108.705 585.696 108.62 585.525 108.448C585.354 108.277 585.268 108.072 585.268 107.833C585.268 107.594 585.354 107.389 585.525 107.218C585.696 107.047 585.901 106.961 586.14 106.961C586.379 106.961 586.584 107.047 586.755 107.218C586.927 107.389 587.012 107.594 587.012 107.833C587.012 107.991 586.972 108.137 586.891 108.269C586.814 108.402 586.709 108.508 586.576 108.589C586.447 108.666 586.302 108.705 586.14 108.705ZM586.14 103.687C585.901 103.687 585.696 103.602 585.525 103.43C585.354 103.259 585.268 103.054 585.268 102.815C585.268 102.576 585.354 102.371 585.525 102.2C585.696 102.029 585.901 101.943 586.14 101.943C586.379 101.943 586.584 102.029 586.755 102.2C586.927 102.371 587.012 102.576 587.012 102.815C587.012 102.974 586.972 103.119 586.891 103.251C586.814 103.384 586.709 103.49 586.576 103.571C586.447 103.648 586.302 103.687 586.14 103.687ZM588.539 107.94V106.952L592.898 100.054H593.615V101.585H593.13L589.837 106.797V106.874H595.707V107.94H588.539ZM593.208 109.974V107.64V107.179V100.054H594.351V109.974H593.208ZM600.485 110.11C599.755 110.11 599.134 109.911 598.62 109.514C598.107 109.114 597.715 108.534 597.443 107.775C597.172 107.013 597.036 106.093 597.036 105.014C597.036 103.942 597.172 103.027 597.443 102.268C597.718 101.506 598.112 100.925 598.625 100.524C599.142 100.121 599.762 99.9188 600.485 99.9188C601.208 99.9188 601.827 100.121 602.34 100.524C602.857 100.925 603.251 101.506 603.522 102.268C603.797 103.027 603.934 103.942 603.934 105.014C603.934 106.093 603.798 107.013 603.527 107.775C603.256 108.534 602.863 109.114 602.35 109.514C601.836 109.911 601.215 110.11 600.485 110.11ZM600.485 109.044C601.208 109.044 601.77 108.695 602.171 107.998C602.571 107.3 602.771 106.306 602.771 105.014C602.771 104.155 602.679 103.424 602.495 102.82C602.314 102.216 602.053 101.756 601.711 101.44C601.371 101.123 600.963 100.965 600.485 100.965C599.768 100.965 599.208 101.319 598.804 102.026C598.401 102.73 598.199 103.726 598.199 105.014C598.199 105.873 598.289 106.603 598.47 107.204C598.651 107.804 598.911 108.261 599.25 108.574C599.592 108.888 600.004 109.044 600.485 109.044Z" fill="#4200FF"/>
<path fill-rule="evenodd" clip-rule="evenodd" d="M621.552 100.429C621.778 100.647 621.785 101.008 621.566 101.235L612.693 110.424C612.583 110.539 612.431 110.602 612.272 110.598C612.114 110.595 611.963 110.526 611.858 110.408L607.897 105.972C607.687 105.737 607.707 105.377 607.942 105.167C608.177 104.957 608.538 104.978 608.747 105.212L612.299 109.191L620.746 100.443C620.965 100.216 621.325 100.21 621.552 100.429Z" fill="#4200FF"/>
<path opacity="0.9" d="M502.721 50.6914C502.721 38.7116 512.432 29 524.412 29H608.079C615.896 29 619.804 29 622.961 30.051C629.094 32.0932 633.907 36.9061 635.95 43.0398C637.001 46.1963 637.001 50.1048 637.001 57.9218C637.001 61.8303 637.001 63.7846 636.475 65.3628C635.454 68.4297 633.047 70.8361 629.981 71.8572C628.402 72.3827 626.448 72.3827 622.54 72.3827H524.412C512.432 72.3827 502.721 62.6712 502.721 50.6914Z" fill="#CFBEFF"/>
<path d="M530.849 47.2961H529.087C528.983 46.7895 528.801 46.3444 528.541 45.9609C528.285 45.5774 527.972 45.2554 527.603 44.995C527.238 44.7299 526.834 44.531 526.389 44.3984C525.943 44.2658 525.479 44.1996 524.996 44.1996C524.116 44.1996 523.318 44.4221 522.603 44.8672C521.893 45.3122 521.327 45.968 520.906 46.8345C520.489 47.701 520.281 48.7639 520.281 50.0234C520.281 51.2829 520.489 52.3459 520.906 53.2123C521.327 54.0788 521.893 54.7346 522.603 55.1797C523.318 55.6247 524.116 55.8473 524.996 55.8473C525.479 55.8473 525.943 55.781 526.389 55.6484C526.834 55.5158 527.238 55.3193 527.603 55.0589C527.972 54.7938 528.285 54.4694 528.541 54.0859C528.801 53.6977 528.983 53.2526 529.087 52.7507H530.849C530.716 53.4941 530.475 54.1593 530.124 54.7464C529.774 55.3335 529.338 55.8331 528.818 56.245C528.297 56.6522 527.712 56.9623 527.063 57.1754C526.419 57.3885 525.73 57.495 524.996 57.495C523.756 57.495 522.653 57.192 521.687 56.5859C520.721 55.9799 519.961 55.1181 519.407 54.0007C518.853 52.8833 518.576 51.5575 518.576 50.0234C518.576 48.4893 518.853 47.1636 519.407 46.0461C519.961 44.9287 520.721 44.067 521.687 43.4609C522.653 42.8549 523.756 42.5518 524.996 42.5518C525.73 42.5518 526.419 42.6584 527.063 42.8714C527.712 43.0845 528.297 43.397 528.818 43.8089C529.338 44.2161 529.774 44.7133 530.124 45.3004C530.475 45.8828 530.716 46.548 530.849 47.2961ZM536.678 57.5518C535.987 57.5518 535.359 57.4216 534.796 57.1612C534.232 56.896 533.785 56.5149 533.454 56.0177C533.122 55.5158 532.956 54.9098 532.956 54.1996C532.956 53.5746 533.079 53.0679 533.326 52.6797C533.572 52.2867 533.901 51.9789 534.313 51.7564C534.725 51.5338 535.179 51.3681 535.677 51.2592C536.178 51.1456 536.683 51.0556 537.189 50.9893C537.852 50.9041 538.39 50.8402 538.802 50.7976C539.218 50.7502 539.521 50.6721 539.711 50.5632C539.905 50.4543 540.002 50.2649 540.002 49.995V49.9382C540.002 49.2374 539.81 48.6929 539.427 48.3047C539.048 47.9164 538.472 47.7223 537.701 47.7223C536.9 47.7223 536.273 47.8975 535.819 48.2478C535.364 48.5982 535.044 48.9723 534.86 49.37L533.269 48.8018C533.553 48.1389 533.932 47.6228 534.405 47.2535C534.883 46.8795 535.404 46.6191 535.968 46.4723C536.536 46.3208 537.095 46.245 537.644 46.245C537.994 46.245 538.397 46.2876 538.851 46.3728C539.311 46.4533 539.753 46.6214 540.179 46.8771C540.61 47.1328 540.968 47.5187 541.252 48.0348C541.536 48.5509 541.678 49.2422 541.678 50.1086V57.2961H540.002V55.8189H539.917C539.803 56.0556 539.614 56.3089 539.348 56.5788C539.083 56.8487 538.731 57.0783 538.29 57.2677C537.85 57.4571 537.312 57.5518 536.678 57.5518ZM536.934 56.0461C537.597 56.0461 538.155 55.9159 538.61 55.6555C539.069 55.3951 539.415 55.0589 539.647 54.647C539.883 54.2351 540.002 53.8018 540.002 53.3473V51.8132C539.931 51.8984 539.775 51.9765 539.533 52.0476C539.296 52.1139 539.022 52.173 538.709 52.2251C538.401 52.2725 538.101 52.3151 537.807 52.353C537.518 52.3861 537.284 52.4145 537.104 52.4382C536.668 52.495 536.261 52.5873 535.882 52.7152C535.508 52.8383 535.205 53.0253 534.973 53.2763C534.746 53.5225 534.632 53.8586 534.632 54.2848C534.632 54.8672 534.848 55.3075 535.279 55.6058C535.714 55.8994 536.266 56.0461 536.934 56.0461ZM544.737 46.3871H546.413V55.7336H550.533V46.3871H552.209V55.7336H556.328V46.3871H558.004V57.2961H544.737V46.3871Z" fill="black"/>
<path d="M571.117 61.4268V60.5549L574.391 56.9706C574.775 56.5509 575.092 56.186 575.34 55.876C575.589 55.5628 575.773 55.2689 575.892 54.9945C576.015 54.7168 576.077 54.4261 576.077 54.1226C576.077 53.7739 575.993 53.4719 575.825 53.2169C575.66 52.9618 575.434 52.7648 575.147 52.6259C574.859 52.4871 574.536 52.4177 574.178 52.4177C573.797 52.4177 573.464 52.4968 573.18 52.655C572.899 52.81 572.681 53.028 572.526 53.3089C572.374 53.5898 572.299 53.9192 572.299 54.297H571.155C571.155 53.7157 571.289 53.2056 571.557 52.7664C571.825 52.3272 572.19 51.985 572.652 51.7396C573.117 51.4941 573.639 51.3714 574.217 51.3714C574.798 51.3714 575.313 51.4941 575.762 51.7396C576.211 51.985 576.563 52.3159 576.818 52.7325C577.073 53.149 577.2 53.6124 577.2 54.1226C577.2 54.4875 577.134 54.8443 577.002 55.193C576.873 55.5386 576.646 55.9244 576.324 56.3507C576.004 56.7737 575.56 57.2903 574.992 57.9006L572.764 60.2837V60.3612H577.375V61.4268H571.117ZM582.338 61.5624C581.608 61.5624 580.986 61.3638 580.473 60.9666C579.96 60.5662 579.567 59.9866 579.296 59.2278C579.025 58.4657 578.889 57.5454 578.889 56.4669C578.889 55.3949 579.025 54.4794 579.296 53.7206C579.57 52.9585 579.964 52.3773 580.478 51.9769C580.994 51.5733 581.614 51.3714 582.338 51.3714C583.061 51.3714 583.679 51.5733 584.193 51.9769C584.71 52.3773 585.103 52.9585 585.375 53.7206C585.649 54.4794 585.786 55.3949 585.786 56.4669C585.786 57.5454 585.651 58.4657 585.38 59.2278C585.108 59.9866 584.716 60.5662 584.203 60.9666C583.689 61.3638 583.068 61.5624 582.338 61.5624ZM582.338 60.4968C583.061 60.4968 583.623 60.148 584.023 59.4506C584.424 58.7531 584.624 57.7585 584.624 56.4669C584.624 55.608 584.532 54.8766 584.348 54.2728C584.167 53.6689 583.905 53.2088 583.563 52.8923C583.224 52.5759 582.816 52.4177 582.338 52.4177C581.621 52.4177 581.061 52.7712 580.657 53.4784C580.253 54.1823 580.052 55.1785 580.052 56.4669C580.052 57.3258 580.142 58.0556 580.323 58.6562C580.504 59.2568 580.764 59.7137 581.103 60.027C581.445 60.3402 581.857 60.4968 582.338 60.4968ZM588.207 60.1577C587.968 60.1577 587.763 60.0722 587.592 59.901C587.42 59.7299 587.335 59.5248 587.335 59.2859C587.335 59.0469 587.42 58.8419 587.592 58.6707C587.763 58.4996 587.968 58.414 588.207 58.414C588.446 58.414 588.651 58.4996 588.822 58.6707C588.993 58.8419 589.079 59.0469 589.079 59.2859C589.079 59.4441 589.038 59.5894 588.957 59.7218C588.88 59.8542 588.775 59.9608 588.643 60.0415C588.513 60.119 588.368 60.1577 588.207 60.1577ZM588.207 55.1398C587.968 55.1398 587.763 55.0542 587.592 54.8831C587.42 54.7119 587.335 54.5069 587.335 54.2679C587.335 54.029 587.42 53.8239 587.592 53.6528C587.763 53.4816 587.968 53.3961 588.207 53.3961C588.446 53.3961 588.651 53.4816 588.822 53.6528C588.993 53.8239 589.079 54.029 589.079 54.2679C589.079 54.4261 589.038 54.5714 588.957 54.7038C588.88 54.8362 588.775 54.9428 588.643 55.0235C588.513 55.101 588.368 55.1398 588.207 55.1398ZM590.605 59.3924V58.4043L594.964 51.5071H595.681V53.0376H595.197L591.903 58.2494V58.3269H597.774V59.3924H590.605ZM595.274 61.4268V59.0921V58.632V51.5071H596.417V61.4268H595.274ZM602.552 61.5624C601.822 61.5624 601.2 61.3638 600.687 60.9666C600.173 60.5662 599.781 59.9866 599.51 59.2278C599.238 58.4657 599.103 57.5454 599.103 56.4669C599.103 55.3949 599.238 54.4794 599.51 53.7206C599.784 52.9585 600.178 52.3773 600.692 51.9769C601.208 51.5733 601.828 51.3714 602.552 51.3714C603.275 51.3714 603.893 51.5733 604.407 51.9769C604.923 52.3773 605.317 52.9585 605.588 53.7206C605.863 54.4794 606 55.3949 606 56.4669C606 57.5454 605.865 58.4657 605.593 59.2278C605.322 59.9866 604.93 60.5662 604.416 60.9666C603.903 61.3638 603.281 61.5624 602.552 61.5624ZM602.552 60.4968C603.275 60.4968 603.837 60.148 604.237 59.4506C604.637 58.7531 604.838 57.7585 604.838 56.4669C604.838 55.608 604.746 54.8766 604.562 54.2728C604.381 53.6689 604.119 53.2088 603.777 52.8923C603.438 52.5759 603.029 52.4177 602.552 52.4177C601.835 52.4177 601.274 52.7712 600.871 53.4784C600.467 54.1823 600.265 55.1785 600.265 56.4669C600.265 57.3258 600.356 58.0556 600.537 58.6562C600.717 59.2568 600.977 59.7137 601.316 60.027C601.659 60.3402 602.07 60.4968 602.552 60.4968Z" fill="#4200FF"/>
<path fill-rule="evenodd" clip-rule="evenodd" d="M623.618 51.8814C623.845 52.1001 623.851 52.461 623.633 52.6875L614.76 61.8771C614.65 61.9912 614.497 62.0542 614.338 62.0511C614.18 62.048 614.03 61.9791 613.924 61.8608L609.963 57.4244C609.754 57.1896 609.774 56.8292 610.009 56.6195C610.244 56.4098 610.604 56.4302 610.814 56.665L614.366 60.6435L622.812 51.8955C623.031 51.669 623.392 51.6627 623.618 51.8814Z" fill="#4200FF"/>
<path opacity="0.8" fill-rule="evenodd" clip-rule="evenodd" d="M400.78 146.084C400.766 146.468 400.766 146.921 400.766 147.828C400.766 148.735 400.766 149.189 400.78 149.572C401.181 160.304 409.789 168.912 420.522 169.314C420.905 169.328 421.359 169.328 422.266 169.328H605.587C612.577 169.328 616.072 169.328 618.932 168.529C621.063 167.934 623.058 167.026 624.866 165.857C626.019 166.729 627.661 167.82 629.442 168.523C633.592 170.16 644.286 170.066 644.286 170.066C644.286 170.066 638.45 168.523 636.281 161.49C635.251 158.15 635.054 138.274 635.054 138.274L634.765 138.912C634.759 136.403 634.715 135.003 634.387 133.828C633.422 130.373 630.721 127.672 627.266 126.707C625.911 126.328 624.255 126.328 620.944 126.328H422.266C421.359 126.328 420.905 126.328 420.522 126.342C409.789 126.744 401.181 135.352 400.78 146.084Z" fill="#CFBEFF"/>
<path d="M434.579 139.812V154.358H432.818V141.375H425.488V154.358H423.727V139.812H434.579ZM442.337 154.585C441.352 154.585 440.488 154.351 439.745 153.882C439.006 153.413 438.428 152.758 438.012 151.915C437.6 151.072 437.394 150.087 437.394 148.96C437.394 147.824 437.6 146.832 438.012 145.984C438.428 145.137 439.006 144.479 439.745 144.01C440.488 143.541 441.352 143.307 442.337 143.307C443.322 143.307 444.183 143.541 444.922 144.01C445.665 144.479 446.243 145.137 446.655 145.984C447.072 146.832 447.28 147.824 447.28 148.96C447.28 150.087 447.072 151.072 446.655 151.915C446.243 152.758 445.665 153.413 444.922 153.882C444.183 154.351 443.322 154.585 442.337 154.585ZM442.337 153.08C443.085 153.08 443.7 152.888 444.183 152.504C444.666 152.121 445.024 151.616 445.256 150.991C445.488 150.366 445.604 149.689 445.604 148.96C445.604 148.231 445.488 147.552 445.256 146.922C445.024 146.292 444.666 145.783 444.183 145.395C443.7 145.007 443.085 144.812 442.337 144.812C441.589 144.812 440.973 145.007 440.49 145.395C440.007 145.783 439.65 146.292 439.418 146.922C439.186 147.552 439.07 148.231 439.07 148.96C439.07 149.689 439.186 150.366 439.418 150.991C439.65 151.616 440.007 152.121 440.49 152.504C440.973 152.888 441.589 153.08 442.337 153.08ZM448.873 154.358V152.795H449.27C449.597 152.795 449.869 152.731 450.087 152.604C450.305 152.471 450.48 152.241 450.613 151.915C450.75 151.583 450.854 151.124 450.925 150.537C451.001 149.945 451.055 149.192 451.089 148.278L451.287 143.449H458.56V154.358H456.884V145.011H452.878L452.708 148.903C452.67 149.798 452.59 150.587 452.466 151.268C452.348 151.946 452.166 152.514 451.92 152.973C451.678 153.432 451.356 153.778 450.954 154.01C450.551 154.242 450.047 154.358 449.441 154.358H448.873ZM468.937 148.136V149.699H462.914V148.136H468.937ZM463.312 143.449V154.358H461.635V143.449H463.312ZM470.215 143.449V154.358H468.539V143.449H470.215ZM476.486 154.614C475.795 154.614 475.168 154.483 474.604 154.223C474.041 153.958 473.593 153.577 473.262 153.08C472.93 152.578 472.765 151.972 472.765 151.261C472.765 150.636 472.888 150.13 473.134 149.741C473.38 149.348 473.709 149.041 474.121 148.818C474.533 148.596 474.988 148.43 475.485 148.321C475.987 148.207 476.491 148.117 476.998 148.051C477.661 147.966 478.198 147.902 478.61 147.859C479.027 147.812 479.33 147.734 479.519 147.625C479.713 147.516 479.81 147.327 479.81 147.057V147C479.81 146.299 479.618 145.755 479.235 145.366C478.856 144.978 478.281 144.784 477.509 144.784C476.709 144.784 476.082 144.959 475.627 145.31C475.172 145.66 474.853 146.034 474.668 146.432L473.077 145.864C473.361 145.201 473.74 144.685 474.214 144.315C474.692 143.941 475.213 143.681 475.776 143.534C476.344 143.383 476.903 143.307 477.452 143.307C477.803 143.307 478.205 143.349 478.66 143.435C479.119 143.515 479.562 143.683 479.988 143.939C480.419 144.195 480.776 144.58 481.06 145.097C481.344 145.613 481.486 146.304 481.486 147.17V154.358H479.81V152.881H479.725C479.611 153.117 479.422 153.371 479.157 153.641C478.892 153.91 478.539 154.14 478.099 154.33C477.658 154.519 477.121 154.614 476.486 154.614ZM476.742 153.108C477.405 153.108 477.964 152.978 478.418 152.717C478.877 152.457 479.223 152.121 479.455 151.709C479.692 151.297 479.81 150.864 479.81 150.409V148.875C479.739 148.96 479.583 149.038 479.341 149.109C479.105 149.176 478.83 149.235 478.518 149.287C478.21 149.334 477.909 149.377 477.616 149.415C477.327 149.448 477.092 149.476 476.912 149.5C476.477 149.557 476.07 149.649 475.691 149.777C475.317 149.9 475.014 150.087 474.782 150.338C474.555 150.584 474.441 150.92 474.441 151.347C474.441 151.929 474.656 152.369 475.087 152.668C475.523 152.961 476.074 153.108 476.742 153.108ZM491.108 154.358V144.983H488.21C487.557 144.983 487.043 145.134 486.669 145.437C486.295 145.74 486.108 146.157 486.108 146.687C486.108 147.208 486.276 147.618 486.612 147.916C486.953 148.214 487.42 148.364 488.012 148.364H491.534V149.926H488.012C487.273 149.926 486.636 149.796 486.101 149.535C485.566 149.275 485.154 148.903 484.865 148.42C484.576 147.933 484.432 147.355 484.432 146.687C484.432 146.015 484.584 145.437 484.887 144.955C485.19 144.472 485.623 144.1 486.186 143.839C486.754 143.579 487.429 143.449 488.21 143.449H492.699V154.358H491.108ZM483.835 154.358L486.932 148.932H488.75L485.654 154.358H483.835ZM505.833 158.08V139.812H507.509V158.08H505.833ZM505.833 154.585C505.094 154.585 504.422 154.453 503.816 154.187C503.21 153.918 502.689 153.536 502.253 153.044C501.818 152.547 501.482 151.953 501.245 151.261C501.008 150.57 500.89 149.803 500.89 148.96C500.89 148.108 501.008 147.336 501.245 146.645C501.482 145.949 501.818 145.352 502.253 144.855C502.689 144.358 503.21 143.977 503.816 143.712C504.422 143.442 505.094 143.307 505.833 143.307H506.344V154.585H505.833ZM505.833 153.08H506.117V144.812H505.833C505.274 144.812 504.789 144.926 504.377 145.153C503.965 145.376 503.624 145.681 503.354 146.07C503.089 146.453 502.89 146.893 502.758 147.391C502.63 147.888 502.566 148.411 502.566 148.96C502.566 149.689 502.682 150.366 502.914 150.991C503.146 151.616 503.503 152.121 503.986 152.504C504.469 152.888 505.085 153.08 505.833 153.08ZM507.509 154.585H506.998V143.307H507.509C508.248 143.307 508.92 143.442 509.526 143.712C510.132 143.977 510.653 144.358 511.089 144.855C511.524 145.352 511.86 145.949 512.097 146.645C512.334 147.336 512.452 148.108 512.452 148.96C512.452 149.803 512.334 150.57 512.097 151.261C511.86 151.953 511.524 152.547 511.089 153.044C510.653 153.536 510.132 153.918 509.526 154.187C508.92 154.453 508.248 154.585 507.509 154.585ZM507.509 153.08C508.073 153.08 508.558 152.971 508.965 152.753C509.377 152.53 509.716 152.227 509.981 151.844C510.251 151.455 510.449 151.015 510.577 150.523C510.71 150.026 510.776 149.505 510.776 148.96C510.776 148.231 510.66 147.552 510.428 146.922C510.196 146.292 509.839 145.783 509.356 145.395C508.873 145.007 508.257 144.812 507.509 144.812H507.225V153.08H507.509ZM516.691 151.886L521.946 143.449H523.878V154.358H522.202V145.92L516.975 154.358H515.014V143.449H516.691V151.886ZM533.681 143.449V145.011H528.624V154.358H526.948V143.449H533.681ZM543.429 148.136V149.699H537.406V148.136H543.429ZM537.804 143.449V154.358H536.128V143.449H537.804ZM544.707 143.449V154.358H543.031V143.449H544.707ZM554.331 154.358V144.983H551.433C550.78 144.983 550.266 145.134 549.892 145.437C549.518 145.74 549.331 146.157 549.331 146.687C549.331 147.208 549.499 147.618 549.835 147.916C550.176 148.214 550.642 148.364 551.234 148.364H554.757V149.926H551.234C550.496 149.926 549.859 149.796 549.324 149.535C548.789 149.275 548.377 148.903 548.088 148.42C547.799 147.933 547.655 147.355 547.655 146.687C547.655 146.015 547.806 145.437 548.109 144.955C548.412 144.472 548.845 144.1 549.409 143.839C549.977 143.579 550.652 143.449 551.433 143.449H555.922V154.358H554.331ZM547.058 154.358L550.155 148.932H551.973L548.876 154.358H547.058Z" fill="black"/>
<path d="M571.116 158.671V157.8L574.39 154.215C574.774 153.795 575.091 153.431 575.339 153.121C575.588 152.807 575.772 152.514 575.892 152.239C576.014 151.961 576.076 151.671 576.076 151.367C576.076 151.018 575.992 150.717 575.824 150.461C575.659 150.206 575.433 150.009 575.146 149.871C574.858 149.732 574.535 149.662 574.177 149.662C573.796 149.662 573.463 149.741 573.179 149.9C572.898 150.055 572.68 150.273 572.525 150.554C572.373 150.834 572.298 151.164 572.298 151.542H571.154C571.154 150.96 571.288 150.45 571.556 150.011C571.824 149.572 572.189 149.23 572.651 148.984C573.116 148.739 573.638 148.616 574.216 148.616C574.797 148.616 575.312 148.739 575.761 148.984C576.21 149.23 576.562 149.561 576.817 149.977C577.072 150.394 577.199 150.857 577.199 151.367C577.199 151.732 577.133 152.089 577.001 152.438C576.872 152.783 576.645 153.169 576.323 153.595C576.003 154.018 575.559 154.535 574.991 155.145L572.763 157.528V157.606H577.374V158.671H571.116ZM582.337 158.807C581.607 158.807 580.985 158.608 580.472 158.211C579.959 157.811 579.566 157.231 579.295 156.472C579.024 155.71 578.888 154.79 578.888 153.712C578.888 152.639 579.024 151.724 579.295 150.965C579.569 150.203 579.963 149.622 580.477 149.222C580.993 148.818 581.613 148.616 582.337 148.616C583.06 148.616 583.678 148.818 584.192 149.222C584.709 149.622 585.102 150.203 585.374 150.965C585.648 151.724 585.785 152.639 585.785 153.712C585.785 154.79 585.65 155.71 585.379 156.472C585.107 157.231 584.715 157.811 584.202 158.211C583.688 158.608 583.067 158.807 582.337 158.807ZM582.337 157.741C583.06 157.741 583.622 157.393 584.022 156.695C584.423 155.998 584.623 155.003 584.623 153.712C584.623 152.853 584.531 152.121 584.347 151.517C584.166 150.914 583.904 150.453 583.562 150.137C583.223 149.821 582.815 149.662 582.337 149.662C581.62 149.662 581.06 150.016 580.656 150.723C580.252 151.427 580.051 152.423 580.051 153.712C580.051 154.57 580.141 155.3 580.322 155.901C580.503 156.501 580.763 156.958 581.102 157.272C581.444 157.585 581.856 157.741 582.337 157.741ZM588.206 157.402C587.967 157.402 587.762 157.317 587.591 157.146C587.419 156.975 587.334 156.769 587.334 156.531C587.334 156.292 587.419 156.087 587.591 155.915C587.762 155.744 587.967 155.659 588.206 155.659C588.445 155.659 588.65 155.744 588.821 155.915C588.992 156.087 589.078 156.292 589.078 156.531C589.078 156.689 589.037 156.834 588.956 156.966C588.879 157.099 588.774 157.205 588.642 157.286C588.512 157.364 588.367 157.402 588.206 157.402ZM588.206 152.384C587.967 152.384 587.762 152.299 587.591 152.128C587.419 151.957 587.334 151.751 587.334 151.513C587.334 151.274 587.419 151.069 587.591 150.897C587.762 150.726 587.967 150.641 588.206 150.641C588.445 150.641 588.65 150.726 588.821 150.897C588.992 151.069 589.078 151.274 589.078 151.513C589.078 151.671 589.037 151.816 588.956 151.948C588.879 152.081 588.774 152.187 588.642 152.268C588.512 152.346 588.367 152.384 588.206 152.384ZM590.604 156.637V155.649L594.963 148.752H595.68V150.282H595.196L591.902 155.494V155.571H597.773V156.637H590.604ZM595.273 158.671V156.337V155.877V148.752H596.416V158.671H595.273ZM602.551 158.807C601.821 158.807 601.199 158.608 600.686 158.211C600.172 157.811 599.78 157.231 599.509 156.472C599.238 155.71 599.102 154.79 599.102 153.712C599.102 152.639 599.238 151.724 599.509 150.965C599.783 150.203 600.177 149.622 600.691 149.222C601.207 148.818 601.827 148.616 602.551 148.616C603.274 148.616 603.892 148.818 604.406 149.222C604.922 149.622 605.316 150.203 605.587 150.965C605.862 151.724 605.999 152.639 605.999 153.712C605.999 154.79 605.864 155.71 605.592 156.472C605.321 157.231 604.929 157.811 604.415 158.211C603.902 158.608 603.28 158.807 602.551 158.807ZM602.551 157.741C603.274 157.741 603.836 157.393 604.236 156.695C604.637 155.998 604.837 155.003 604.837 153.712C604.837 152.853 604.745 152.121 604.561 151.517C604.38 150.914 604.118 150.453 603.776 150.137C603.437 149.821 603.028 149.662 602.551 149.662C601.834 149.662 601.273 150.016 600.87 150.723C600.466 151.427 600.264 152.423 600.264 153.712C600.264 154.57 600.355 155.3 600.536 155.901C600.716 156.501 600.976 156.958 601.315 157.272C601.658 157.585 602.069 157.741 602.551 157.741Z" fill="#4200FF"/>
<path fill-rule="evenodd" clip-rule="evenodd" d="M622.856 149.759C623.082 149.978 623.089 150.339 622.87 150.565L613.997 159.755C613.887 159.869 613.734 159.932 613.576 159.929C613.417 159.926 613.267 159.857 613.162 159.739L609.201 155.302C608.991 155.067 609.011 154.707 609.246 154.497C609.481 154.287 609.841 154.308 610.051 154.543L613.603 158.521L622.05 149.773C622.268 149.547 622.629 149.54 622.856 149.759Z" fill="#4200FF"/>
<path opacity="0.8" fill-rule="evenodd" clip-rule="evenodd" d="M263.981 217.027C264 217.461 264 217.974 264 219C264 220.026 264 220.539 263.981 220.973C263.531 231.279 255.279 239.531 244.973 239.981C244.539 240 244.026 240 243 240H50.7964C47.9968 240 46.5969 240 45.4202 239.859C41.9584 239.445 38.7749 238.152 36.0979 236.208C35.213 236.996 34.0469 237.898 32.7946 238.503C29.5092 240.09 21.0439 239.999 21.0439 239.999C21.0439 239.999 25.6635 238.503 27.3803 231.686C27.7385 230.264 27.9695 226.682 28.116 223.114C28.0833 222.899 28.0539 222.684 28.028 222.467C27.8873 221.29 27.8873 219.891 27.8873 217.091C27.8873 214.758 27.8873 213.591 28.0046 212.611C28.9129 205.014 34.9014 199.026 42.498 198.117C43.4787 198 44.6452 198 46.9782 198H243C244.026 198 244.539 198 244.973 198.019C255.279 198.469 263.531 206.721 263.981 217.027Z" fill="#CFBEFF"/>
<path d="M214.979 229.808V228.977L218.099 225.56C218.466 225.16 218.767 224.813 219.004 224.517C219.241 224.219 219.417 223.939 219.531 223.677C219.647 223.412 219.706 223.135 219.706 222.846C219.706 222.514 219.626 222.226 219.466 221.983C219.309 221.74 219.094 221.552 218.82 221.419C218.546 221.287 218.238 221.221 217.896 221.221C217.533 221.221 217.216 221.296 216.945 221.447C216.678 221.595 216.47 221.803 216.322 222.07C216.177 222.338 216.105 222.652 216.105 223.012H215.016C215.016 222.458 215.143 221.972 215.399 221.553C215.654 221.135 216.002 220.809 216.442 220.575C216.885 220.341 217.382 220.224 217.933 220.224C218.487 220.224 218.978 220.341 219.406 220.575C219.834 220.809 220.169 221.124 220.412 221.521C220.655 221.918 220.777 222.36 220.777 222.846C220.777 223.194 220.714 223.534 220.588 223.866C220.465 224.196 220.249 224.563 219.941 224.97C219.637 225.373 219.214 225.865 218.672 226.447L216.548 228.718V228.792H220.943V229.808H214.979ZM225.674 229.937C224.978 229.937 224.386 229.748 223.896 229.369C223.407 228.987 223.033 228.435 222.774 227.712C222.516 226.985 222.387 226.108 222.387 225.08C222.387 224.059 222.516 223.186 222.774 222.463C223.036 221.736 223.412 221.182 223.901 220.801C224.393 220.416 224.984 220.224 225.674 220.224C226.363 220.224 226.952 220.416 227.442 220.801C227.934 221.182 228.31 221.736 228.568 222.463C228.83 223.186 228.961 224.059 228.961 225.08C228.961 226.108 228.831 226.985 228.573 227.712C228.314 228.435 227.94 228.987 227.451 229.369C226.962 229.748 226.369 229.937 225.674 229.937ZM225.674 228.921C226.363 228.921 226.898 228.589 227.28 227.924C227.662 227.259 227.853 226.311 227.853 225.08C227.853 224.262 227.765 223.565 227.589 222.989C227.417 222.414 227.168 221.975 226.842 221.673C226.518 221.372 226.129 221.221 225.674 221.221C224.99 221.221 224.456 221.558 224.072 222.232C223.687 222.903 223.495 223.852 223.495 225.08C223.495 225.899 223.581 226.595 223.753 227.167C223.925 227.739 224.173 228.175 224.496 228.473C224.823 228.772 225.215 228.921 225.674 228.921ZM231.267 228.598C231.04 228.598 230.844 228.517 230.681 228.353C230.518 228.19 230.436 227.995 230.436 227.767C230.436 227.539 230.518 227.344 230.681 227.181C230.844 227.018 231.04 226.936 231.267 226.936C231.495 226.936 231.69 227.018 231.854 227.181C232.017 227.344 232.098 227.539 232.098 227.767C232.098 227.918 232.06 228.056 231.983 228.183C231.909 228.309 231.809 228.41 231.683 228.487C231.56 228.561 231.421 228.598 231.267 228.598ZM231.267 223.815C231.04 223.815 230.844 223.734 230.681 223.571C230.518 223.408 230.436 223.212 230.436 222.984C230.436 222.757 230.518 222.561 230.681 222.398C230.844 222.235 231.04 222.153 231.267 222.153C231.495 222.153 231.69 222.235 231.854 222.398C232.017 222.561 232.098 222.757 232.098 222.984C232.098 223.135 232.06 223.274 231.983 223.4C231.909 223.526 231.809 223.628 231.683 223.705C231.56 223.778 231.421 223.815 231.267 223.815ZM236.729 229.937C236.188 229.937 235.7 229.829 235.266 229.614C234.832 229.398 234.484 229.103 234.223 228.727C233.961 228.352 233.818 227.924 233.793 227.444H234.901C234.944 227.872 235.138 228.226 235.483 228.506C235.831 228.783 236.246 228.921 236.729 228.921C237.117 228.921 237.462 228.83 237.764 228.649C238.068 228.467 238.307 228.218 238.479 227.901C238.654 227.581 238.742 227.219 238.742 226.816C238.742 226.404 238.651 226.036 238.47 225.713C238.291 225.387 238.045 225.13 237.731 224.942C237.417 224.754 237.059 224.659 236.656 224.656C236.366 224.653 236.069 224.697 235.765 224.79C235.46 224.879 235.209 224.994 235.012 225.136L233.941 225.006L234.514 220.353H239.425V221.369H235.474L235.141 224.157H235.197C235.391 224.003 235.634 223.875 235.926 223.774C236.219 223.672 236.523 223.622 236.84 223.622C237.419 223.622 237.934 223.76 238.387 224.037C238.842 224.311 239.199 224.686 239.458 225.163C239.719 225.64 239.85 226.185 239.85 226.798C239.85 227.401 239.715 227.939 239.444 228.413C239.176 228.884 238.807 229.257 238.336 229.531C237.865 229.801 237.33 229.937 236.729 229.937ZM244.563 229.937C244.175 229.931 243.788 229.857 243.4 229.715C243.012 229.574 242.658 229.335 242.338 229C242.018 228.661 241.761 228.204 241.567 227.629C241.373 227.05 241.276 226.324 241.276 225.45C241.276 224.613 241.355 223.871 241.512 223.225C241.669 222.575 241.896 222.029 242.195 221.586C242.494 221.139 242.854 220.801 243.275 220.57C243.7 220.339 244.179 220.224 244.711 220.224C245.24 220.224 245.711 220.33 246.124 220.542C246.539 220.752 246.878 221.044 247.139 221.419C247.401 221.795 247.57 222.227 247.647 222.717H246.521C246.416 222.292 246.213 221.94 245.911 221.66C245.61 221.379 245.21 221.239 244.711 221.239C243.978 221.239 243.401 221.558 242.98 222.195C242.561 222.832 242.35 223.726 242.347 224.877H242.421C242.594 224.616 242.798 224.392 243.035 224.208C243.275 224.02 243.54 223.875 243.829 223.774C244.119 223.672 244.425 223.622 244.748 223.622C245.29 223.622 245.785 223.757 246.234 224.028C246.684 224.296 247.044 224.666 247.315 225.14C247.586 225.611 247.721 226.151 247.721 226.761C247.721 227.345 247.59 227.881 247.329 228.367C247.067 228.85 246.699 229.235 246.225 229.521C245.754 229.805 245.2 229.943 244.563 229.937ZM244.563 228.921C244.951 228.921 245.299 228.824 245.607 228.63C245.917 228.437 246.162 228.176 246.341 227.85C246.522 227.524 246.613 227.161 246.613 226.761C246.613 226.37 246.525 226.014 246.35 225.694C246.177 225.371 245.939 225.114 245.634 224.923C245.333 224.733 244.988 224.637 244.6 224.637C244.308 224.637 244.035 224.696 243.783 224.813C243.531 224.926 243.309 225.083 243.118 225.283C242.931 225.484 242.783 225.713 242.675 225.971C242.567 226.227 242.514 226.496 242.514 226.779C242.514 227.155 242.601 227.506 242.777 227.832C242.955 228.158 243.198 228.421 243.506 228.621C243.817 228.821 244.169 228.921 244.563 228.921Z" fill="#4200FF"/>
<path d="M47.7614 226V211.455H56.5398V213.017H49.5227V217.562H53.2159C54.2576 217.562 55.1359 217.733 55.8509 218.074C56.5705 218.415 57.1151 218.895 57.4844 219.516C57.8584 220.136 58.0455 220.867 58.0455 221.71C58.0455 222.553 57.8584 223.296 57.4844 223.94C57.1151 224.584 56.5705 225.089 55.8509 225.453C55.1359 225.818 54.2576 226 53.2159 226H47.7614ZM49.5227 224.466H53.2159C53.8788 224.466 54.4399 224.333 54.8991 224.068C55.3632 223.798 55.7135 223.453 55.9503 223.031C56.1918 222.605 56.3125 222.155 56.3125 221.682C56.3125 220.986 56.045 220.387 55.5099 219.885C54.9749 219.378 54.2102 219.125 53.2159 219.125H49.5227V224.466ZM59.7518 226V224.438H60.1495C60.4762 224.438 60.7485 224.374 60.9663 224.246C61.1841 224.113 61.3593 223.884 61.4918 223.557C61.6291 223.225 61.7333 222.766 61.8043 222.179C61.8801 221.587 61.9345 220.834 61.9677 219.92L62.1665 215.091H69.4393V226H67.7631V216.653H63.7575L63.587 220.545C63.5491 221.44 63.4686 222.229 63.3455 222.911C63.2272 223.588 63.0449 224.156 62.7987 224.615C62.5572 225.074 62.2352 225.42 61.8327 225.652C61.4303 225.884 60.926 226 60.32 226H59.7518ZM75.7248 226.256C75.0335 226.256 74.4061 226.125 73.8427 225.865C73.2792 225.6 72.8318 225.219 72.5004 224.722C72.1689 224.22 72.0032 223.614 72.0032 222.903C72.0032 222.278 72.1263 221.772 72.3725 221.384C72.6187 220.991 72.9478 220.683 73.3597 220.46C73.7717 220.238 74.2262 220.072 74.7234 219.963C75.2253 219.849 75.7295 219.759 76.2362 219.693C76.899 219.608 77.4364 219.544 77.8484 219.501C78.265 219.454 78.5681 219.376 78.7575 219.267C78.9516 219.158 79.0487 218.969 79.0487 218.699V218.642C79.0487 217.941 78.8569 217.397 78.4734 217.009C78.0946 216.62 77.5193 216.426 76.7475 216.426C75.9473 216.426 75.32 216.601 74.8654 216.952C74.4109 217.302 74.0913 217.676 73.9066 218.074L72.3157 217.506C72.5998 216.843 72.9786 216.327 73.4521 215.957C73.9303 215.583 74.4511 215.323 75.0146 215.176C75.5827 215.025 76.1415 214.949 76.6907 214.949C77.0411 214.949 77.4435 214.991 77.8981 215.077C78.3574 215.157 78.8001 215.325 79.2262 215.581C79.6571 215.837 80.0146 216.223 80.2987 216.739C80.5827 217.255 80.7248 217.946 80.7248 218.812V226H79.0487V224.523H78.9634C78.8498 224.759 78.6604 225.013 78.3952 225.283C78.1301 225.553 77.7773 225.782 77.337 225.972C76.8967 226.161 76.3593 226.256 75.7248 226.256ZM75.9805 224.75C76.6433 224.75 77.2021 224.62 77.6566 224.359C78.1159 224.099 78.4615 223.763 78.6935 223.351C78.9303 222.939 79.0487 222.506 79.0487 222.051V220.517C78.9776 220.602 78.8214 220.68 78.5799 220.751C78.3432 220.818 78.0685 220.877 77.756 220.929C77.4483 220.976 77.1476 221.019 76.854 221.057C76.5652 221.09 76.3308 221.118 76.1509 221.142C75.7153 221.199 75.3081 221.291 74.9293 221.419C74.5553 221.542 74.2522 221.729 74.0202 221.98C73.793 222.226 73.6793 222.562 73.6793 222.989C73.6793 223.571 73.8948 224.011 74.3256 224.31C74.7612 224.603 75.3129 224.75 75.9805 224.75ZM90.517 215.091V216.653H85.4602V226H83.7841V215.091H90.517ZM96.8292 226.227C95.8443 226.227 94.9802 225.993 94.2369 225.524C93.4982 225.055 92.9206 224.4 92.5039 223.557C92.092 222.714 91.886 221.729 91.886 220.602C91.886 219.466 92.092 218.474 92.5039 217.626C92.9206 216.779 93.4982 216.121 94.2369 215.652C94.9802 215.183 95.8443 214.949 96.8292 214.949C97.814 214.949 98.6758 215.183 99.4144 215.652C100.158 216.121 100.735 216.779 101.147 217.626C101.564 218.474 101.772 219.466 101.772 220.602C101.772 221.729 101.564 222.714 101.147 223.557C100.735 224.4 100.158 225.055 99.4144 225.524C98.6758 225.993 97.814 226.227 96.8292 226.227ZM96.8292 224.722C97.5773 224.722 98.1928 224.53 98.6758 224.146C99.1587 223.763 99.5162 223.259 99.7482 222.634C99.9802 222.009 100.096 221.331 100.096 220.602C100.096 219.873 99.9802 219.194 99.7482 218.564C99.5162 217.934 99.1587 217.425 98.6758 217.037C98.1928 216.649 97.5773 216.455 96.8292 216.455C96.0811 216.455 95.4656 216.649 94.9826 217.037C94.4996 217.425 94.1422 217.934 93.9102 218.564C93.6781 219.194 93.5621 219.873 93.5621 220.602C93.5621 221.331 93.6781 222.009 93.9102 222.634C94.1422 223.259 94.4996 223.763 94.9826 224.146C95.4656 224.53 96.0811 224.722 96.8292 224.722ZM103.166 229.125V224.438H104.075C104.298 224.205 104.49 223.955 104.651 223.685C104.812 223.415 104.951 223.095 105.07 222.726C105.193 222.352 105.297 221.897 105.382 221.362C105.467 220.822 105.543 220.171 105.609 219.409L105.979 215.091H112.911V224.438H114.587V229.125H112.911V226H104.842V229.125H103.166ZM105.979 224.438H111.234V216.653H107.541L107.257 219.409C107.139 220.55 106.992 221.547 106.817 222.399C106.642 223.251 106.362 223.931 105.979 224.438ZM120.022 226.256C119.33 226.256 118.703 226.125 118.14 225.865C117.576 225.6 117.129 225.219 116.797 224.722C116.466 224.22 116.3 223.614 116.3 222.903C116.3 222.278 116.423 221.772 116.669 221.384C116.916 220.991 117.245 220.683 117.657 220.46C118.069 220.238 118.523 220.072 119.02 219.963C119.522 219.849 120.026 219.759 120.533 219.693C121.196 219.608 121.733 219.544 122.145 219.501C122.562 219.454 122.865 219.376 123.054 219.267C123.248 219.158 123.346 218.969 123.346 218.699V218.642C123.346 217.941 123.154 217.397 122.77 217.009C122.391 216.62 121.816 216.426 121.044 216.426C120.244 216.426 119.617 216.601 119.162 216.952C118.708 217.302 118.388 217.676 118.203 218.074L116.613 217.506C116.897 216.843 117.275 216.327 117.749 215.957C118.227 215.583 118.748 215.323 119.311 215.176C119.88 215.025 120.438 214.949 120.988 214.949C121.338 214.949 121.74 214.991 122.195 215.077C122.654 215.157 123.097 215.325 123.523 215.581C123.954 215.837 124.311 216.223 124.596 216.739C124.88 217.255 125.022 217.946 125.022 218.812V226H123.346V224.523H123.26C123.147 224.759 122.957 225.013 122.692 225.283C122.427 225.553 122.074 225.782 121.634 225.972C121.194 226.161 120.656 226.256 120.022 226.256ZM120.277 224.75C120.94 224.75 121.499 224.62 121.953 224.359C122.413 224.099 122.758 223.763 122.99 223.351C123.227 222.939 123.346 222.506 123.346 222.051V220.517C123.275 220.602 123.118 220.68 122.877 220.751C122.64 220.818 122.365 220.877 122.053 220.929C121.745 220.976 121.444 221.019 121.151 221.057C120.862 221.09 120.628 221.118 120.448 221.142C120.012 221.199 119.605 221.291 119.226 221.419C118.852 221.542 118.549 221.729 118.317 221.98C118.09 222.226 117.976 222.562 117.976 222.989C117.976 223.571 118.192 224.011 118.623 224.31C119.058 224.603 119.61 224.75 120.277 224.75ZM128.081 230.091V215.091H129.7V216.824H129.899C130.022 216.634 130.193 216.393 130.411 216.099C130.633 215.801 130.95 215.536 131.362 215.304C131.779 215.067 132.342 214.949 133.053 214.949C133.971 214.949 134.781 215.179 135.482 215.638C136.182 216.097 136.729 216.748 137.122 217.591C137.515 218.434 137.712 219.428 137.712 220.574C137.712 221.729 137.515 222.731 137.122 223.578C136.729 224.421 136.185 225.074 135.489 225.538C134.793 225.998 133.99 226.227 133.081 226.227C132.38 226.227 131.819 226.111 131.398 225.879C130.976 225.643 130.652 225.375 130.425 225.077C130.197 224.774 130.022 224.523 129.899 224.324H129.757V230.091H128.081ZM129.729 220.545C129.729 221.369 129.849 222.096 130.091 222.726C130.332 223.351 130.685 223.841 131.149 224.196C131.613 224.546 132.181 224.722 132.854 224.722C133.554 224.722 134.139 224.537 134.608 224.168C135.081 223.794 135.437 223.292 135.673 222.662C135.915 222.027 136.036 221.322 136.036 220.545C136.036 219.778 135.917 219.087 135.68 218.472C135.448 217.851 135.096 217.361 134.622 217.001C134.153 216.637 133.564 216.455 132.854 216.455C132.172 216.455 131.599 216.627 131.135 216.973C130.671 217.314 130.321 217.792 130.084 218.408C129.847 219.018 129.729 219.731 129.729 220.545ZM144.7 226.227C143.678 226.227 142.797 225.986 142.058 225.503C141.32 225.02 140.751 224.355 140.354 223.507C139.956 222.66 139.757 221.691 139.757 220.602C139.757 219.494 139.961 218.517 140.368 217.669C140.78 216.817 141.353 216.152 142.087 215.673C142.825 215.19 143.687 214.949 144.672 214.949C145.439 214.949 146.13 215.091 146.746 215.375C147.361 215.659 147.866 216.057 148.259 216.568C148.652 217.08 148.895 217.676 148.99 218.358H147.314C147.186 217.861 146.902 217.42 146.462 217.037C146.026 216.649 145.439 216.455 144.7 216.455C144.047 216.455 143.474 216.625 142.982 216.966C142.494 217.302 142.113 217.778 141.838 218.393C141.568 219.004 141.433 219.722 141.433 220.545C141.433 221.388 141.566 222.122 141.831 222.747C142.101 223.372 142.48 223.857 142.967 224.203C143.46 224.549 144.037 224.722 144.7 224.722C145.136 224.722 145.531 224.646 145.886 224.494C146.241 224.343 146.542 224.125 146.788 223.841C147.035 223.557 147.21 223.216 147.314 222.818H148.99C148.895 223.462 148.661 224.042 148.287 224.558C147.918 225.07 147.428 225.477 146.817 225.78C146.211 226.078 145.505 226.227 144.7 226.227ZM150.581 216.653V215.091H159.445V216.653H155.865V226H154.189V216.653H150.581ZM161.89 226V215.091H166.35C167.524 215.091 168.457 215.356 169.148 215.886C169.839 216.417 170.185 217.117 170.185 217.989C170.185 218.652 169.989 219.165 169.596 219.53C169.203 219.89 168.698 220.134 168.083 220.261C168.485 220.318 168.876 220.46 169.255 220.688C169.638 220.915 169.955 221.227 170.206 221.625C170.457 222.018 170.583 222.501 170.583 223.074C170.583 223.633 170.441 224.132 170.157 224.572C169.873 225.013 169.465 225.361 168.935 225.616C168.405 225.872 167.77 226 167.032 226H161.89ZM163.48 224.466H167.032C167.609 224.466 168.061 224.329 168.388 224.054C168.715 223.779 168.878 223.405 168.878 222.932C168.878 222.368 168.715 221.926 168.388 221.604C168.061 221.277 167.609 221.114 167.032 221.114H163.48V224.466ZM163.48 219.665H166.35C166.8 219.665 167.185 219.603 167.507 219.48C167.829 219.352 168.076 219.172 168.246 218.94C168.421 218.704 168.509 218.424 168.509 218.102C168.509 217.643 168.317 217.283 167.934 217.023C167.55 216.758 167.022 216.625 166.35 216.625H163.48V219.665ZM174.2 230.091C173.915 230.091 173.662 230.067 173.44 230.02C173.217 229.977 173.063 229.935 172.978 229.892L173.404 228.415C173.811 228.519 174.171 228.557 174.484 228.528C174.796 228.5 175.073 228.36 175.315 228.109C175.561 227.863 175.786 227.463 175.989 226.909L176.302 226.057L172.268 215.091H174.086L177.097 223.784H177.211L180.222 215.091H182.04L177.41 227.591C177.201 228.154 176.943 228.621 176.636 228.99C176.328 229.364 175.97 229.641 175.563 229.821C175.161 230.001 174.706 230.091 174.2 230.091ZM189.48 219.864V221.426H183.713V219.864H189.48ZM185.134 215.091V226H183.457V215.091H185.134ZM192.832 226.227C191.848 226.227 190.983 225.993 190.24 225.524C189.501 225.055 188.924 224.4 188.507 223.557C188.095 222.714 187.889 221.729 187.889 220.602C187.889 219.466 188.095 218.474 188.507 217.626C188.924 216.779 189.501 216.121 190.24 215.652C190.983 215.183 191.848 214.949 192.832 214.949C193.817 214.949 194.679 215.183 195.418 215.652C196.161 216.121 196.739 216.779 197.151 217.626C197.567 218.474 197.776 219.466 197.776 220.602C197.776 221.729 197.567 222.714 197.151 223.557C196.739 224.4 196.161 225.055 195.418 225.524C194.679 225.993 193.817 226.227 192.832 226.227ZM192.832 224.722C193.58 224.722 194.196 224.53 194.679 224.146C195.162 223.763 195.519 223.259 195.751 222.634C195.983 222.009 196.099 221.331 196.099 220.602C196.099 219.873 195.983 219.194 195.751 218.564C195.519 217.934 195.162 217.425 194.679 217.037C194.196 216.649 193.58 216.455 192.832 216.455C192.084 216.455 191.469 216.649 190.986 217.037C190.503 217.425 190.145 217.934 189.913 218.564C189.681 219.194 189.565 219.873 189.565 220.602C189.565 221.331 189.681 222.009 189.913 222.634C190.145 223.259 190.503 223.763 190.986 224.146C191.469 224.53 192.084 224.722 192.832 224.722ZM202.719 211.455L202.577 221.909H200.929L200.787 211.455H202.719ZM201.753 226.114C201.402 226.114 201.102 225.988 200.851 225.737C200.6 225.486 200.474 225.186 200.474 224.835C200.474 224.485 200.6 224.184 200.851 223.933C201.102 223.682 201.402 223.557 201.753 223.557C202.103 223.557 202.404 223.682 202.655 223.933C202.906 224.184 203.031 224.485 203.031 224.835C203.031 225.067 202.972 225.28 202.854 225.474C202.74 225.669 202.586 225.825 202.392 225.943C202.203 226.057 201.99 226.114 201.753 226.114Z" fill="black"/>
</svg>
