<svg width="325" height="310" viewBox="0 0 325 310" fill="none" xmlns="http://www.w3.org/2000/svg">
<path d="M-2.7317e-05 277.2V32.8C-2.7317e-05 20.8432 -2.7317e-05 14.8649 2.47384 10.3649C4.3022 7.03914 7.03911 4.30223 10.3649 2.47387C14.8648 0 20.8432 0 32.8 0H292.2C304.157 0 310.135 0 314.635 2.47387C317.961 4.30223 320.698 7.03914 322.526 10.3649C325 14.8649 325 20.8433 325 32.8001V125.97C325 137.927 325 143.905 322.526 148.405C320.698 151.731 317.961 154.468 314.635 156.296C310.135 158.77 304.157 158.77 292.2 158.77H203.391C191.435 158.77 185.456 158.77 180.956 161.244C177.63 163.072 174.894 165.809 173.065 169.135C170.591 173.635 170.591 179.613 170.591 191.57V277.2C170.591 289.157 170.591 295.135 168.117 299.635C166.289 302.961 163.552 305.698 160.226 307.526C155.726 310 149.748 310 137.791 310H32.8C20.8432 310 14.8648 310 10.3649 307.526C7.03911 305.698 4.3022 302.961 2.47384 299.635C-2.7317e-05 295.135 -2.7317e-05 289.157 -2.7317e-05 277.2Z" fill="#1F1F1F"/>
</svg>
