<svg width="264" height="310" viewBox="0 0 264 310" fill="none" xmlns="http://www.w3.org/2000/svg">
<path d="M244 310L20 310C8.95426 310 -5.03182e-05 301.046 -4.55271e-05 290L7.15856e-05 20C7.63767e-05 8.95431 8.95438 1.56563e-06 20.0001 6.3541e-06L190.899 6.06496e-05C201.945 6.41588e-05 210.899 8.95437 210.899 20.0001L210.899 188.312C210.899 199.358 219.854 208.312 230.899 208.312L244 208.312C255.046 208.312 264 217.266 264 228.312L264 290C264 301.046 255.046 310 244 310Z" fill="#1F1F1F"/>
</svg>
