<svg width="197" height="34" viewBox="0 0 197 34" fill="none" xmlns="http://www.w3.org/2000/svg">
<rect width="196.347" height="33.781" rx="11.3753" fill="#F2F2F2"/>
<path d="M13.7785 23.3906V21.222L14.1456 21.1964C14.6066 21.1566 14.9794 20.9801 15.264 20.6671C15.5486 20.354 15.7621 19.8503 15.9043 19.1559C16.0466 18.4558 16.1406 17.5167 16.1861 16.3385L16.3995 10.6694H25.0226V23.3906H22.4101V12.8209H18.8926L18.6876 17.2605C18.625 18.6835 18.4571 19.8475 18.1839 20.7525C17.9164 21.6518 17.4867 22.3177 16.8947 22.7503C16.3028 23.1772 15.4974 23.3906 14.4785 23.3906H13.7785ZM29.6624 19.8987L33.0945 13.8455H35.7071V23.3906H33.1885V17.3288L29.7648 23.3906H27.1437V13.8455H29.6624V19.8987ZM42.0885 23.5785C41.1152 23.5785 40.2785 23.3707 39.5784 22.9552C38.8783 22.534 38.3405 21.9563 37.9648 21.222C37.5891 20.4821 37.4013 19.6283 37.4013 18.6607C37.4013 17.6817 37.5891 16.8223 37.9648 16.0823C38.3462 15.3424 38.8869 14.7647 39.587 14.3492C40.2871 13.9337 41.1209 13.7259 42.0885 13.7259C42.9195 13.7259 43.6452 13.8768 44.2656 14.1784C44.8917 14.4801 45.3869 14.9041 45.7512 15.4505C46.1155 15.997 46.3147 16.6401 46.3488 17.3801H43.8558C43.8103 17.0613 43.7135 16.7824 43.5655 16.5434C43.4176 16.3043 43.2212 16.1193 42.9764 15.9884C42.7317 15.8575 42.4471 15.7921 42.1227 15.7921C41.7129 15.7921 41.3543 15.903 41.0469 16.125C40.7453 16.3413 40.509 16.6629 40.3383 17.0898C40.1732 17.511 40.0907 18.0232 40.0907 18.6266C40.0907 19.2299 40.1732 19.7479 40.3383 20.1804C40.509 20.613 40.7453 20.9431 41.0469 21.1708C41.3543 21.3985 41.7129 21.5123 42.1227 21.5123C42.578 21.5123 42.9622 21.37 43.2753 21.0854C43.5883 20.7952 43.7818 20.3967 43.8558 19.8902H46.3488C46.309 20.6187 46.1126 21.2619 45.7597 21.8197C45.4068 22.3718 44.9202 22.8044 44.2998 23.1174C43.6794 23.4248 42.9423 23.5785 42.0885 23.5785ZM47.0868 15.9287V13.8455H55.7185V15.9287H52.6534V23.3906H50.1348V15.9287H47.0868ZM59.6752 23.5699C59.0719 23.5699 58.5283 23.4646 58.0445 23.254C57.5664 23.0377 57.1907 22.719 56.9175 22.2978C56.6443 21.8766 56.5077 21.353 56.5077 20.7269C56.5077 20.1918 56.6045 19.7479 56.798 19.395C56.9915 19.0364 57.2562 18.7461 57.592 18.5241C57.9278 18.3021 58.3092 18.1342 58.7361 18.0204C59.1629 17.9066 59.6154 17.8269 60.0936 17.7813C60.6457 17.7301 61.0896 17.6789 61.4254 17.6277C61.7613 17.5764 62.006 17.4996 62.1597 17.3971C62.3191 17.289 62.3987 17.1353 62.3987 16.9361V16.8934C62.3987 16.5007 62.2735 16.1962 62.0231 15.9799C61.7783 15.7636 61.4311 15.6554 60.9815 15.6554C60.5091 15.6554 60.1306 15.7607 59.846 15.9713C59.5671 16.1762 59.3821 16.4381 59.291 16.7568L56.8407 16.5604C56.9659 15.9799 57.2106 15.479 57.5749 15.0578C57.9392 14.6309 58.4088 14.3036 58.9837 14.076C59.5642 13.8426 60.2358 13.7259 60.9986 13.7259C61.5279 13.7259 62.0345 13.7885 62.5183 13.9138C63.0021 14.039 63.4318 14.2325 63.8075 14.4943C64.1888 14.7504 64.4905 15.0834 64.7125 15.4932C64.9344 15.903 65.0454 16.3897 65.0454 16.9532V23.3906H62.5268V22.0587H62.4585C62.3048 22.3604 62.0999 22.6251 61.8438 22.8527C61.5877 23.0747 61.2803 23.2512 60.9217 23.3821C60.5631 23.5073 60.1476 23.5699 59.6752 23.5699ZM60.4351 21.7428C60.8221 21.7428 61.1636 21.666 61.4596 21.5123C61.7613 21.353 61.9946 21.1424 62.1597 20.8805C62.3304 20.613 62.4158 20.3142 62.4158 19.9841V18.9681C62.3361 19.0193 62.2223 19.0677 62.0743 19.1132C61.932 19.1588 61.7726 19.1986 61.5962 19.2328C61.4197 19.2669 61.2433 19.2982 61.0669 19.3267C60.8904 19.3494 60.731 19.3722 60.5887 19.395C60.2757 19.4405 60.0025 19.5145 59.7691 19.617C59.5358 19.7137 59.3536 19.8475 59.2227 20.0182C59.0975 20.1833 59.0349 20.391 59.0349 20.6415C59.0349 21.0001 59.1658 21.2733 59.4276 21.4611C59.6894 21.6489 60.0253 21.7428 60.4351 21.7428ZM69.6339 19.8987L73.0661 13.8455H75.6787V23.3906H73.16V17.3288L69.7364 23.3906H67.1153V13.8455H69.6339V19.8987ZM71.3842 12.7782C70.4678 12.7782 69.725 12.5392 69.1558 12.0611C68.5867 11.583 68.3021 10.9597 68.3021 10.1913H70.1377C70.1377 10.5442 70.2487 10.8259 70.4706 11.0365C70.6926 11.2414 70.9971 11.3439 71.3842 11.3439C71.7598 11.3439 72.0587 11.2414 72.2806 11.0365C72.5026 10.8259 72.6136 10.5442 72.6136 10.1913H74.4578C74.4578 10.9597 74.1732 11.583 73.604 12.0611C73.0405 12.5392 72.3006 12.7782 71.3842 12.7782ZM81.7736 23.3906V13.8455H85.829C87.0072 13.8511 87.9378 14.0788 88.6208 14.5285C89.3038 14.9724 89.6453 15.6071 89.6453 16.4324C89.6453 16.9446 89.4518 17.3744 89.0648 17.7216C88.6834 18.0631 88.1512 18.2965 87.4682 18.4217C88.0374 18.4615 88.5241 18.5896 88.9282 18.8059C89.3323 19.0222 89.6425 19.3039 89.8588 19.6511C90.0751 19.9926 90.1832 20.3711 90.1832 20.7866C90.1832 21.3273 90.0352 21.7941 89.7393 22.1868C89.449 22.5738 89.0278 22.8727 88.4757 23.0833C87.9236 23.2882 87.2519 23.3906 86.4608 23.3906H81.7736ZM84.2324 21.4099H86.4608C86.825 21.4099 87.1125 21.3217 87.3231 21.1452C87.5337 20.9688 87.6361 20.7269 87.6304 20.4195C87.6361 20.0837 87.5337 19.819 87.3231 19.6255C87.1125 19.4263 86.825 19.3267 86.4608 19.3267H84.2324V21.4099ZM84.2324 17.7728H85.8887C86.2872 17.7785 86.5974 17.696 86.8194 17.5252C87.0413 17.3488 87.1523 17.1126 87.1523 16.8166C87.1523 16.5263 87.0328 16.2986 86.7937 16.1336C86.5604 15.9628 86.2388 15.8774 85.829 15.8774H84.2324V17.7728ZM98.4344 17.5679V19.634H93.4569V17.5679H98.4344ZM94.3278 13.8455V23.3906H91.8091V13.8455H94.3278ZM100.091 13.8455V23.3906H97.5892V13.8455H100.091ZM104.688 19.8987L108.12 13.8455H110.732V23.3906H108.214V17.3288L104.79 23.3906H102.169V13.8455H104.688V19.8987ZM112.606 20.6842H115.167C115.184 21.0029 115.327 21.2533 115.594 21.4355C115.867 21.6176 116.217 21.7087 116.644 21.7087C117.071 21.7087 117.43 21.6091 117.72 21.4099C118.01 21.205 118.158 20.9118 118.164 20.5305C118.164 20.3028 118.104 20.1036 117.985 19.9328C117.871 19.7621 117.712 19.6283 117.507 19.5316C117.307 19.4291 117.068 19.3807 116.79 19.3864H115.423V17.6533H116.79C117.194 17.6476 117.507 17.5508 117.729 17.363C117.951 17.1752 118.064 16.9361 118.07 16.6458C118.064 16.3271 117.948 16.0681 117.72 15.8689C117.492 15.6697 117.182 15.5729 116.79 15.5786C116.402 15.5729 116.078 15.6611 115.816 15.8433C115.56 16.0197 115.426 16.2446 115.415 16.5178H112.862C112.868 15.9429 113.039 15.4477 113.374 15.0322C113.716 14.6167 114.174 14.2951 114.749 14.0674C115.324 13.8398 115.964 13.7259 116.67 13.7259C117.45 13.7259 118.121 13.8369 118.685 14.0589C119.248 14.2752 119.684 14.5854 119.991 14.9895C120.299 15.3879 120.449 15.866 120.444 16.4238C120.449 16.9247 120.284 17.3459 119.948 17.6874C119.618 18.0289 119.157 18.2708 118.565 18.4131V18.507C118.952 18.5355 119.305 18.6437 119.624 18.8315C119.948 19.0136 120.205 19.2669 120.392 19.5913C120.586 19.9158 120.683 20.3 120.683 20.7439C120.683 21.3359 120.509 21.8425 120.162 22.2636C119.815 22.6848 119.339 23.0093 118.736 23.2369C118.133 23.4589 117.438 23.5728 116.653 23.5785C115.89 23.5728 115.207 23.4589 114.604 23.2369C114.001 23.015 113.522 22.6905 113.17 22.2636C112.822 21.8311 112.634 21.3046 112.606 20.6842Z" fill="black"/>
<path d="M133.025 15.7644L135.84 18.0165L138.656 15.7644" stroke="black" stroke-width="0.563017"/>
<path d="M150.031 0L150.031 33.781" stroke="black" stroke-opacity="0.32" stroke-width="0.563017"/>
<path fill-rule="evenodd" clip-rule="evenodd" d="M172.052 17.2898L177.161 22.3994L177.559 22.0013L172.45 16.8917L177.587 11.7547L177.189 11.3566L172.052 16.4936L166.94 11.3823L166.542 11.7804L171.654 16.8917L166.518 22.0278L166.916 22.4259L172.052 17.2898Z" fill="black" fill-opacity="0.04"/>
<path d="M177.161 22.3994L176.962 22.5985L177.161 22.7976L177.36 22.5985L177.161 22.3994ZM172.052 17.2898L172.251 17.0908L172.052 16.8917L171.853 17.0908L172.052 17.2898ZM177.559 22.0013L177.759 22.2004L177.958 22.0013L177.759 21.8023L177.559 22.0013ZM172.45 16.8917L172.251 16.6926L172.052 16.8917L172.251 17.0908L172.45 16.8917ZM177.587 11.7547L177.786 11.9537L177.985 11.7547L177.786 11.5556L177.587 11.7547ZM177.189 11.3566L177.388 11.1575L177.189 10.9585L176.99 11.1575L177.189 11.3566ZM172.052 16.4936L171.853 16.6926L172.052 16.8917L172.251 16.6926L172.052 16.4936ZM166.94 11.3823L167.14 11.1832L166.94 10.9842L166.741 11.1833L166.94 11.3823ZM166.542 11.7804L166.343 11.5814L166.144 11.7804L166.343 11.9795L166.542 11.7804ZM171.654 16.8917L171.853 17.0908L172.052 16.8917L171.853 16.6926L171.654 16.8917ZM166.518 22.0278L166.318 21.8287L166.119 22.0278L166.318 22.2268L166.518 22.0278ZM166.916 22.4259L166.717 22.6249L166.916 22.824L167.115 22.6249L166.916 22.4259ZM177.36 22.2004L172.251 17.0908L171.853 17.4889L176.962 22.5985L177.36 22.2004ZM177.36 21.8023L176.962 22.2004L177.36 22.5985L177.759 22.2004L177.36 21.8023ZM172.251 17.0908L177.36 22.2004L177.759 21.8023L172.649 16.6926L172.251 17.0908ZM177.388 11.5556L172.251 16.6926L172.649 17.0908L177.786 11.9537L177.388 11.5556ZM176.99 11.5556L177.388 11.9537L177.786 11.5556L177.388 11.1575L176.99 11.5556ZM172.251 16.6926L177.388 11.5556L176.99 11.1575L171.853 16.2945L172.251 16.6926ZM166.741 11.5814L171.853 16.6926L172.251 16.2945L167.14 11.1832L166.741 11.5814ZM166.741 11.9795L167.14 11.5814L166.741 11.1833L166.343 11.5814L166.741 11.9795ZM171.853 16.6926L166.741 11.5814L166.343 11.9795L171.455 17.0908L171.853 16.6926ZM166.717 22.2268L171.853 17.0908L171.455 16.6926L166.318 21.8287L166.717 22.2268ZM167.115 22.2268L166.717 21.8287L166.318 22.2268L166.717 22.6249L167.115 22.2268ZM171.853 17.0908L166.717 22.2268L167.115 22.6249L172.251 17.4889L171.853 17.0908Z" fill="black" fill-opacity="0.65"/>
</svg>
