<svg width="38" height="38" viewBox="0 0 38 38" fill="none" xmlns="http://www.w3.org/2000/svg">
<path d="M37.2054 9.21637C36.7676 7.55586 35.4818 6.25094 33.8458 5.80644C30.8836 5 18.9999 5 18.9999 5C18.9999 5 7.11639 5 4.15409 5.80644C2.51811 6.25094 1.23247 7.55586 0.794534 9.21637C2.51664e-07 12.2231 0 18.5 0 18.5C0 18.5 2.51664e-07 24.777 0.794534 27.7837C1.23247 29.4442 2.51811 30.7491 4.15409 31.1935C7.11639 32 18.9999 32 18.9999 32C18.9999 32 30.8836 32 33.8458 31.1935C35.4818 30.7491 36.7676 29.4442 37.2054 27.7837C38 24.777 38 18.5 38 18.5C38 18.5 37.9968 12.2231 37.2054 9.21637Z" fill="url(#paint0_linear_402_182)"/>
<path d="M15.1964 24.184L25.0687 18.4295L15.1964 12.6748V24.184Z" fill="#F5F5F5"/>
<defs>
<linearGradient id="paint0_linear_402_182" x1="37.3702" y1="5.18" x2="20.0406" y2="27.1679" gradientUnits="userSpaceOnUse">
<stop stop-color="#475361"/>
<stop offset="1" stop-color="#1D1D1D"/>
</linearGradient>
</defs>
</svg>
