<svg width="130" height="130" viewBox="0 0 130 130" fill="none" xmlns="http://www.w3.org/2000/svg">
<circle cx="65.0032" cy="64.9754" r="38.775" transform="rotate(-15 65.0032 64.9754)" fill="#952AFF"/>
<path d="M102.457 54.9397C100.577 47.9247 96.7653 41.5786 91.4552 36.6242L85.8357 42.6472C90.0177 46.5491 93.0199 51.547 94.5002 57.0717L102.457 54.9397Z" fill="white"/>
<path d="M75.0389 27.5217C68.0239 25.642 60.622 25.7703 53.6763 27.8918L56.0273 35.5887C61.5313 33.9075 67.3969 33.8059 72.9559 35.2955L75.0389 27.5217Z" fill="white"/>
<path d="M37.454 37.4814C32.3187 42.6167 28.7288 49.0911 27.0932 56.1669L34.9748 57.9887C36.2691 52.3891 39.1101 47.2654 43.1741 43.2015L37.454 37.4814Z" fill="white"/>
<path d="M27.4181 74.9353C29.2977 81.9503 33.1097 88.2964 38.4198 93.2508L43.9706 87.3014C39.7748 83.3867 36.7628 78.3723 35.2776 72.8293L27.4181 74.9353Z" fill="white"/>
<path d="M54.968 102.429C61.983 104.309 69.3848 104.181 76.3305 102.059L73.8349 93.8884C68.4195 95.5425 62.6485 95.6425 57.1791 94.177L54.968 102.429Z" fill="white"/>
<path d="M92.3522 92.6656C97.4876 87.5302 101.269 80.6859 102.905 73.61L94.4605 71.7387C93.1795 77.2805 90.3679 82.3512 86.346 86.3732L92.3522 92.6656Z" fill="white"/>
<circle cx="64.6665" cy="64.7811" r="30.2824" transform="rotate(-15 64.6665 64.7811)" fill="#952AFF" stroke="white" stroke-width="1.03529"/>
<path d="M58.3152 73.9796C57.9987 74.0644 57.7035 74.0862 57.4296 74.0451C57.1552 74.0018 56.9208 73.9028 56.7266 73.7481C56.5324 73.5935 56.3971 73.3905 56.3208 73.1391L57.0314 72.9487C57.0789 73.0842 57.1581 73.1911 57.2689 73.2692C57.3797 73.3474 57.5108 73.3965 57.6622 73.4166C57.8152 73.434 57.9766 73.42 58.1464 73.3745C58.3308 73.325 58.4856 73.2487 58.6107 73.1456C58.7359 73.0424 58.8231 72.9235 58.8724 72.789C58.9233 72.6518 58.9285 72.5077 58.8881 72.3568C58.8459 72.1996 58.769 72.0719 58.6574 71.9738C58.5451 71.8735 58.4035 71.8104 58.2325 71.7843C58.0615 71.7582 57.8681 71.7741 57.6522 71.832L57.2528 71.939L57.0978 71.3604L57.4971 71.2534C57.669 71.2074 57.8126 71.1352 57.9278 71.0369C58.043 70.9387 58.1224 70.8242 58.166 70.6934C58.2117 70.5621 58.2143 70.421 58.1739 70.27C58.1351 70.1254 58.0689 70.0083 57.9753 69.9188C57.8811 69.8272 57.7675 69.7678 57.6344 69.7406C57.5007 69.7113 57.3542 69.7179 57.1949 69.7606C57.0419 69.8016 56.9066 69.8671 56.7892 69.957C56.6717 70.0468 56.5848 70.1544 56.5285 70.2796C56.4737 70.4021 56.4636 70.5362 56.4981 70.682L55.8158 70.8648C55.7542 70.6095 55.768 70.3676 55.8573 70.1392C55.9482 69.9082 56.0967 69.7078 56.3028 69.538C56.5105 69.3655 56.7579 69.2408 57.0451 69.1638C57.3448 69.0835 57.6194 69.0728 57.8689 69.1318C58.1199 69.1881 58.3312 69.2977 58.503 69.4607C58.6741 69.6215 58.7903 69.8162 58.8515 70.0446C58.9229 70.3109 58.9096 70.5548 58.8117 70.7765C58.7133 70.9961 58.5502 71.1712 58.3223 71.3019L58.3316 71.3365C58.6547 71.3016 58.9279 71.361 59.151 71.5146C59.3763 71.6677 59.5285 71.892 59.6077 72.1876C59.6768 72.4454 59.6663 72.6954 59.5761 72.9374C59.488 73.179 59.335 73.3918 59.117 73.5761C58.9011 73.7597 58.6339 73.8943 58.3152 73.9796ZM62.386 70.6208L62.5444 71.212L60.6422 71.7217L60.4838 71.1305L62.386 70.6208ZM60.2807 69.6179L61.2226 73.1332L60.5591 73.311L59.6172 69.7957L60.2807 69.6179ZM62.4722 69.0307L63.4141 72.546L62.7476 72.7246L61.8056 69.2093L62.4722 69.0307ZM65.1071 72.1732C64.8849 72.2328 64.6727 72.2458 64.4706 72.2124C64.2678 72.1768 64.0927 72.0934 63.9452 71.9622C63.7977 71.831 63.6933 71.6511 63.6321 71.4226C63.5788 71.2235 63.573 71.0509 63.6147 70.905C63.658 70.7563 63.7345 70.6268 63.8443 70.5165C63.954 70.4063 64.0835 70.3109 64.2327 70.2305C64.3819 70.1501 64.5375 70.0769 64.6996 70.011C64.9052 69.9312 65.0707 69.8655 65.1961 69.8139C65.3216 69.7624 65.4089 69.7109 65.4581 69.6595C65.5087 69.6055 65.5231 69.5376 65.5012 69.4559L65.497 69.4401C65.4436 69.241 65.3458 69.1021 65.2034 69.0234C65.0631 68.9442 64.8829 68.9341 64.6628 68.993C64.4343 69.0543 64.2664 69.1532 64.1592 69.2897C64.0536 69.4236 63.9924 69.5602 63.9758 69.6995L63.2917 69.7244C63.3119 69.4898 63.378 69.2879 63.4899 69.1186C63.6034 68.9466 63.7473 68.8047 63.9218 68.6928C64.0983 68.5804 64.2914 68.496 64.5011 68.4399C64.6415 68.4022 64.7948 68.3791 64.961 68.3705C65.1267 68.3599 65.2905 68.38 65.4524 68.431C65.6159 68.4793 65.7632 68.5724 65.8945 68.7102C66.0258 68.848 66.1257 69.0448 66.1942 69.3005L66.8194 71.6335L66.1497 71.813L66.0208 71.3319L65.9956 71.3387C65.9767 71.4358 65.9337 71.5395 65.8666 71.6496C65.8016 71.7591 65.7075 71.8607 65.5843 71.9544C65.4611 72.048 65.3021 72.121 65.1071 72.1732ZM65.1083 71.5865C65.299 71.5354 65.4517 71.4552 65.5662 71.3459C65.6801 71.2345 65.7564 71.1084 65.7951 70.9678C65.8338 70.8271 65.8349 70.6886 65.7984 70.5524L65.6762 70.0965C65.6573 70.1262 65.616 70.1609 65.5524 70.2004C65.4889 70.2399 65.415 70.2788 65.3309 70.317C65.2468 70.3553 65.1645 70.392 65.0841 70.427C65.003 70.4599 64.935 70.4871 64.8801 70.5086C64.7531 70.5628 64.6405 70.6245 64.5421 70.6935C64.4432 70.7605 64.3704 70.8407 64.3235 70.9341C64.2782 71.0249 64.2718 71.131 64.3044 71.2526C64.3499 71.4224 64.447 71.5334 64.5958 71.5857C64.7446 71.6379 64.9154 71.6382 65.1083 71.5865ZM69.3519 67.1873L70.2938 70.7026L69.6241 70.882L68.6822 67.3667L69.3519 67.1873ZM69.5007 68.8998L69.6591 69.4909C69.565 69.5588 69.4627 69.6256 69.3522 69.6911C69.2438 69.7561 69.1271 69.8155 69.0022 69.8692C68.8788 69.9202 68.7459 69.9648 68.6033 70.003C68.1694 70.1193 67.7962 70.1058 67.4838 69.9626C67.1707 69.8173 66.9566 69.5253 66.8413 69.0867L66.5329 67.9359L67.1932 67.7589L67.5016 68.9098C67.5475 69.0727 67.6149 69.1984 67.7038 69.2869C67.7926 69.3755 67.8991 69.4289 68.0231 69.4474C68.1492 69.4653 68.2898 69.4534 68.4449 69.4119C68.6509 69.3589 68.8366 69.2889 69.002 69.2019C69.1674 69.1149 69.3337 69.0142 69.5007 68.8998ZM72.4419 70.2045C72.1128 70.2927 71.8043 70.2945 71.5165 70.2098C71.2308 70.1246 70.9834 69.964 70.7741 69.728C70.5669 69.4915 70.415 69.1929 70.3184 68.8324C70.2207 68.4676 70.2024 68.131 70.2635 67.8226C70.3262 67.5115 70.4599 67.2476 70.6648 67.031C70.8717 66.8138 71.1397 66.6611 71.4688 66.5729C71.8 66.4841 72.1084 66.4824 72.3941 66.5676C72.6798 66.6528 72.9276 66.8144 73.1374 67.0525C73.3467 67.2885 73.5002 67.5889 73.5979 67.9536C73.6945 68.3142 73.7112 68.6489 73.648 68.958C73.5847 69.267 73.4507 69.5298 73.2459 69.7464C73.0411 69.9631 72.7731 70.1158 72.4419 70.2045ZM72.2877 69.6291C72.5036 69.5713 72.6666 69.4669 72.7767 69.3161C72.8868 69.1653 72.9504 68.9876 72.9675 68.7831C72.9861 68.5759 72.9657 68.3612 72.9062 68.139C72.8455 67.9126 72.7553 67.7143 72.6356 67.5442C72.5179 67.3735 72.3737 67.2504 72.203 67.1748C72.0322 67.0993 71.8389 67.0904 71.623 67.1483C71.4091 67.2056 71.2472 67.3096 71.1371 67.4605C71.029 67.6107 70.9657 67.7894 70.9471 67.9966C70.9285 68.2038 70.9495 68.4206 71.0102 68.647C71.0697 68.8692 71.1593 69.0654 71.279 69.2355C71.3982 69.4035 71.5421 69.5256 71.7108 69.6017C71.8816 69.6773 72.0739 69.6864 72.2877 69.6291ZM74.5575 69.5601L73.6155 66.0448L74.2947 65.8629L74.6898 67.3375L75.02 67.2491L75.7851 65.4635L76.6277 65.2377L75.7317 67.3145L77.5885 68.748L76.7396 68.9754L75.3034 67.8539L74.86 67.9727L75.2366 69.3782L74.5575 69.5601ZM51.8763 83.9198L50.9343 80.4045L53.7956 79.6378L54.7376 83.1531L54.0678 83.3325L53.2843 80.4084L51.753 80.8187L52.5366 83.7428L51.8763 83.9198ZM56.8856 82.655C56.5565 82.7432 56.2481 82.745 55.9603 82.6603C55.6746 82.5751 55.4271 82.4145 55.2178 82.1785C55.0106 81.942 54.8588 81.6434 54.7622 81.2829C54.6644 80.9181 54.6461 80.5815 54.7073 80.2731C54.7699 79.962 54.9037 79.6981 55.1085 79.4815C55.3154 79.2643 55.5834 79.1116 55.9125 79.0234C56.2437 78.9346 56.5522 78.9329 56.8378 79.0181C57.1235 79.1033 57.3713 79.2649 57.5811 79.503C57.7904 79.739 57.9439 80.0394 58.0416 80.4041C58.1382 80.7647 58.1549 81.0994 58.0917 81.4085C58.0285 81.7175 57.8944 81.9803 57.6896 82.1969C57.4848 82.4136 57.2168 82.5663 56.8856 82.655ZM56.7314 82.0796C56.9473 82.0218 57.1103 81.9174 57.2205 81.7666C57.3306 81.6158 57.3942 81.4381 57.4113 81.2336C57.4299 81.0264 57.4094 80.8117 57.3499 80.5895C57.2892 80.3631 57.199 80.1648 57.0793 79.9947C56.9617 79.824 56.8175 79.7009 56.6467 79.6253C56.4759 79.5498 56.2826 79.5409 56.0667 79.5988C55.8529 79.6561 55.6909 79.7601 55.5808 79.911C55.4728 80.0612 55.4095 80.2399 55.3908 80.4471C55.3722 80.6543 55.3932 80.8711 55.4539 81.0975C55.5134 81.3197 55.6031 81.5159 55.7228 81.686C55.8419 81.854 55.9859 81.9761 56.1545 82.0522C56.3253 82.1278 56.5176 82.1369 56.7314 82.0796ZM60.4137 76.4659L60.8121 76.8208C60.7352 76.9448 60.6351 77.0447 60.5116 77.1204C60.3881 77.1962 60.2408 77.2626 60.0696 77.3197C59.8984 77.3768 59.7018 77.4396 59.4798 77.5081C59.2278 77.5824 59.0338 77.6927 58.8979 77.8393C58.7634 77.9831 58.6786 78.1654 58.6433 78.386C58.6081 78.6066 58.618 78.8702 58.6732 79.1767L58.7172 79.1649C58.7699 78.9171 58.8836 78.7126 59.0583 78.5512C59.2345 78.3871 59.4505 78.2708 59.7062 78.2023C59.9892 78.1265 60.2581 78.1241 60.5131 78.1951C60.7674 78.264 60.992 78.406 61.1867 78.6212C61.3814 78.8364 61.5257 79.1235 61.6197 79.4825C61.7195 79.8466 61.739 80.1795 61.6783 80.4811C61.6176 80.7827 61.4847 81.0374 61.2798 81.2451C61.0769 81.4522 60.8122 81.6006 60.4858 81.6903C59.9926 81.8202 59.5536 81.7581 59.1688 81.504C58.7833 81.2479 58.5031 80.7972 58.328 80.1522L58.2361 79.8094C58.0226 79.0039 58.0051 78.3604 58.1839 77.8789C58.3627 77.3974 58.7355 77.074 59.3023 76.9086C59.4856 76.855 59.6499 76.8099 59.7951 76.7732C59.9403 76.7365 60.0654 76.6963 60.1705 76.6524C60.275 76.6064 60.3561 76.5443 60.4137 76.4659ZM60.3325 81.1181C60.5248 81.0643 60.6761 80.971 60.7865 80.838C60.8969 80.7051 60.966 80.5394 60.9937 80.341C61.0214 80.1426 61.0017 79.9221 60.9344 79.6796C60.8731 79.4421 60.7825 79.2507 60.6626 79.1053C60.5422 78.9579 60.4011 78.8586 60.2391 78.8077C60.0772 78.7567 59.8987 78.7573 59.7038 78.8096C59.5612 78.8478 59.4401 78.9072 59.3404 78.9878C59.2407 79.0685 59.1639 79.1677 59.1101 79.2854C59.0557 79.4011 59.0251 79.534 59.0181 79.6842C59.0133 79.8337 59.0326 79.9982 59.0762 80.1775C59.1728 80.538 59.3328 80.8041 59.5562 80.9756C59.7818 81.1466 60.0405 81.1941 60.3325 81.1181ZM64.1049 80.7206C63.7611 80.8127 63.4435 80.8181 63.1521 80.7366C62.8606 80.6552 62.6106 80.4976 62.4019 80.2637C62.1947 80.0271 62.0425 79.7275 61.9454 79.3649C61.8488 79.0043 61.8297 78.6691 61.8882 78.3591C61.9488 78.0485 62.0791 77.7844 62.2791 77.5668C62.4807 77.3466 62.745 77.1926 63.072 77.105C63.2712 77.0516 63.4727 77.0324 63.6767 77.0474C63.8807 77.0624 64.0759 77.1202 64.2623 77.2208C64.4488 77.3213 64.6151 77.4723 64.7611 77.6735C64.9092 77.8742 65.0257 78.1328 65.1105 78.4494L65.1762 78.6946L62.381 79.4436L62.2436 78.9311L64.6868 78.2765L64.4147 78.5313C64.3568 78.3154 64.2722 78.1337 64.1607 77.986C64.0493 77.8384 63.9141 77.7365 63.7552 77.6802C63.5979 77.6212 63.4207 77.6182 63.2237 77.671C63.0266 77.7238 62.8705 77.8161 62.7554 77.9481C62.6423 78.0795 62.5699 78.2326 62.538 78.4074C62.5062 78.5821 62.5151 78.7618 62.5645 78.9462L62.658 79.2952C62.7226 79.5363 62.8193 79.7294 62.9481 79.8747C63.0768 80.0199 63.2274 80.1166 63.3999 80.1647C63.5744 80.2123 63.7612 80.2095 63.9603 80.1561C64.0903 80.1213 64.2026 80.071 64.2973 80.0052C64.3941 79.9388 64.4712 79.8575 64.5285 79.7612C64.5859 79.665 64.6196 79.556 64.6296 79.4342L65.3102 79.3833C65.3084 79.586 65.2605 79.7763 65.1666 79.9542C65.0728 80.1321 64.9359 80.2879 64.756 80.4215C64.5776 80.5524 64.3606 80.6521 64.1049 80.7206ZM65.9949 81.2218L65.5653 79.6182L65.8482 79.5424C65.9036 79.4557 65.9452 79.3592 65.9729 79.2529C66 79.1445 66.0132 79.0219 66.0125 78.8851C66.0133 78.7455 66.0035 78.5875 65.9832 78.411C65.9628 78.2345 65.9323 78.0326 65.8917 77.8053L65.6496 76.4615L68.0361 75.8221L68.8196 78.7462L69.3604 78.6013L69.7901 80.2049L69.1204 80.3844L68.8491 79.3719L66.4028 80.0274L66.6741 81.0398L65.9949 81.2218ZM66.584 79.3453L68.153 78.9249L67.5262 76.5855L66.4162 76.8829L66.5362 77.6326C66.6042 78.0121 66.6472 78.3443 66.6651 78.6293C66.6846 78.9117 66.6576 79.1503 66.584 79.3453ZM70.3238 77.9455L71.1898 74.977L71.9255 74.7799L72.8674 78.2952L72.2009 78.4738L71.5159 75.9175L70.657 78.8875L69.9181 79.0855L68.9762 75.5702L69.6396 75.3924L70.3238 77.9455ZM72.3009 75.3129L72.1425 74.7217L75.1012 73.9289L75.2596 74.5201L74.1183 74.8259L74.9018 77.7501L74.2321 77.9295L73.4485 75.0054L72.3009 75.3129ZM77.8705 77.0321C77.5267 77.1242 77.2091 77.1296 76.9177 77.0482C76.6263 76.9667 76.3762 76.8091 76.1675 76.5752C75.9603 76.3386 75.8082 76.039 75.711 75.6764C75.6144 75.3158 75.5953 74.9806 75.6538 74.6706C75.7144 74.36 75.8447 74.0959 76.0448 73.8783C76.2464 73.6581 76.5107 73.5041 76.8377 73.4165C77.0368 73.3631 77.2384 73.344 77.4423 73.3589C77.6463 73.3739 77.8415 73.4317 78.028 73.5323C78.2144 73.6329 78.3807 73.7838 78.5267 73.985C78.6749 74.1857 78.7914 74.4443 78.8762 74.7609L78.9419 75.0061L76.1466 75.7551L76.0093 75.2426L78.4524 74.588L78.1803 74.8428C78.1225 74.6269 78.0378 74.4452 77.9264 74.2976C77.8149 74.1499 77.6798 74.048 77.5209 73.9917C77.3636 73.9327 77.1864 73.9297 76.9893 73.9825C76.7923 74.0353 76.6362 74.1276 76.521 74.2596C76.4079 74.391 76.3355 74.5441 76.3037 74.7189C76.2719 74.8936 76.2807 75.0733 76.3301 75.2577L76.4236 75.6067C76.4882 75.8478 76.5849 76.0409 76.7137 76.1862C76.8425 76.3314 76.9931 76.4281 77.1655 76.4763C77.34 76.5239 77.5268 76.521 77.726 76.4676C77.8559 76.4328 77.9683 76.3825 78.063 76.3167C78.1598 76.2503 78.2368 76.169 78.2942 76.0727C78.3515 75.9765 78.3852 75.8675 78.3953 75.7457L79.0759 75.6948C79.074 75.8975 79.0261 76.0878 78.9323 76.2657C78.8384 76.4436 78.7015 76.5994 78.5216 76.733C78.3433 76.8639 78.1262 76.9636 77.8705 77.0321ZM79.5553 76.5032L79.3938 75.9129L79.5164 75.88C79.6479 75.8426 79.7413 75.776 79.7965 75.6803C79.8533 75.5819 79.8742 75.4292 79.8591 75.222C79.8461 75.0143 79.7976 74.7285 79.7136 74.3646L79.3586 72.7882L81.808 72.1319L82.7499 75.6472L82.0802 75.8266L81.2967 72.9025L80.1458 73.2108L80.4102 74.424C80.4752 74.7166 80.5146 74.9768 80.5284 75.2045C80.5422 75.4322 80.5255 75.6299 80.4784 75.7975C80.4306 75.9631 80.3492 76.0995 80.2341 76.2067C80.1191 76.3139 79.9651 76.3934 79.7723 76.445L79.5553 76.5032ZM85.4949 74.9117L84.7096 71.9812L83.8638 72.2078C83.6653 72.2633 83.5228 72.352 83.4364 72.474C83.35 72.596 83.3281 72.7322 83.3706 72.8826C83.4084 73.032 83.491 73.139 83.6184 73.2037C83.7453 73.2663 83.902 73.2727 84.0886 73.2227L85.1734 72.932L85.3216 73.4854L84.2369 73.7761C83.9769 73.8457 83.7411 73.8628 83.5294 73.8274C83.3199 73.7915 83.1424 73.7076 82.997 73.5758C82.8537 73.4435 82.7541 73.2691 82.6984 73.0526C82.6373 72.8331 82.6375 72.6285 82.6991 72.4391C82.7607 72.2496 82.8771 72.0847 83.0485 71.9444C83.2193 71.802 83.4388 71.6949 83.7071 71.623L85.1944 71.2245L86.1363 74.7398L85.4949 74.9117ZM83.187 75.5301L83.7014 73.4882L84.4026 73.3003L83.885 75.343L83.187 75.5301Z" fill="white"/>
<path d="M52.7886 66.3503L50.0983 56.3099L52.09 55.7762L54.7804 65.8166L52.7886 66.3503ZM47.6785 63.4172L47.1393 61.405L57.19 58.712L57.7291 60.7242L47.6785 63.4172ZM63.015 48.3385L67.0929 63.5574L64.8254 64.165L61.366 51.2545L61.2639 51.2819L58.2858 54.6306L57.6947 52.4243L60.8088 48.9297L63.015 48.3385ZM74.6856 61.7419C73.5144 62.0558 72.4279 62.0185 71.4261 61.63C70.4312 61.2398 69.5573 60.5252 68.8045 59.4862C68.0567 58.4386 67.4612 57.0874 67.0178 55.4327C66.5763 53.7849 66.4208 52.3194 66.5514 51.0364C66.6802 49.7466 67.0778 48.684 67.7444 47.8486C68.4159 47.0045 69.3338 46.4265 70.4982 46.1145C71.6694 45.8007 72.7534 45.8423 73.7502 46.2393C74.752 46.6277 75.6277 47.3492 76.3773 48.4036C77.1319 49.4494 77.73 50.7962 78.1715 52.4441C78.6149 54.0988 78.7747 55.5667 78.6509 56.8479C78.5252 58.1222 78.1292 59.1771 77.4626 60.0126C76.7961 60.848 75.8704 61.4245 74.6856 61.7419ZM74.1601 59.7808C74.8751 59.5893 75.4166 59.1997 75.7846 58.6121C76.1527 58.0245 76.3493 57.2602 76.3745 56.3193C76.3979 55.3716 76.2445 54.2814 75.9142 53.0489C75.5821 51.8096 75.17 50.7889 74.6777 49.9866C74.1835 49.1775 73.6302 48.6106 73.0177 48.2857C72.4034 47.954 71.7387 47.884 71.0237 48.0756C69.9683 48.3584 69.2889 49.0914 68.9856 50.2747C68.6873 51.4494 68.7872 52.9662 69.2853 54.8252C69.6156 56.0577 70.0277 57.0784 70.5219 57.8875C71.0142 58.6898 71.5666 59.2533 72.1791 59.5782C72.7984 59.9012 73.4588 59.9688 74.1601 59.7808Z" fill="white"/>
</svg>
