<svg width="256" height="53" viewBox="0 0 256 53" fill="none" xmlns="http://www.w3.org/2000/svg">
<path d="M0 26.1956C0 11.7282 11.7282 0 26.1956 0H346V52.3912H26.1956C11.7281 52.3912 0 40.663 0 26.1956Z" fill="#F2F2F2"/>
<path d="M31.9056 27.287L38.2026 33.2902M33.5163 23.6374C33.5163 26.4443 31.1446 28.7197 28.2191 28.7197C25.2935 28.7197 22.9219 26.4443 22.9219 23.6374C22.9219 20.8306 25.2935 18.5552 28.2191 18.5552C31.1446 18.5552 33.5163 20.8306 33.5163 23.6374Z" stroke="black" stroke-width="1.11908"/>
<path d="M76.9478 26.6178C77.5745 26.8822 78.0603 27.2789 78.4053 27.8079C78.756 28.3368 78.9313 28.9462 78.9313 29.6361C78.9313 30.3548 78.7818 30.9815 78.4829 31.5162C78.1839 32.0508 77.7556 32.4648 77.1979 32.758C76.646 33.0455 75.9934 33.1892 75.2403 33.1892H69.971V20.7707H74.8091C75.5277 20.7707 76.1515 20.9202 76.6805 21.2192C77.2152 21.5181 77.6234 21.9177 77.9051 22.4179C78.1925 22.9181 78.3363 23.4585 78.3363 24.0392C78.3363 24.6026 78.2127 25.1114 77.9654 25.5656C77.724 26.0141 77.3848 26.3648 76.9478 26.6178ZM71.5233 22.2195V25.9537H74.7918C75.1598 25.9537 75.4932 25.8761 75.7922 25.7209C76.0912 25.5599 76.3269 25.3357 76.4994 25.0482C76.6718 24.755 76.7581 24.4186 76.7581 24.0392C76.7581 23.6885 76.6747 23.3751 76.508 23.0992C76.3413 22.8232 76.1084 22.6076 75.8094 22.4524C75.5162 22.2971 75.177 22.2195 74.7918 22.2195H71.5233ZM74.9471 31.7231C75.407 31.7231 75.8181 31.6398 76.1803 31.473C76.5482 31.3006 76.8357 31.0562 77.0427 30.74C77.2497 30.4238 77.3531 30.053 77.3531 29.6275C77.3531 29.2136 77.2583 28.837 77.0685 28.4978C76.8788 28.1586 76.6144 27.8912 76.2751 27.6957C75.9359 27.5003 75.5507 27.4025 75.1195 27.4025H71.5233V31.7231H74.9471ZM80.6413 33.1892V23.8753H84.6083C84.8613 23.8753 85.1229 23.8897 85.3931 23.9185C85.6633 23.9472 85.9048 23.9903 86.1175 24.0478C86.6292 24.1915 87.0431 24.4733 87.3594 24.893C87.6813 25.3069 87.8423 25.8157 87.8423 26.4194C87.8423 27.0806 87.6382 27.6095 87.23 28.0062C87.0518 28.1844 86.8534 28.3167 86.6349 28.4029C86.8304 28.4374 87.0345 28.515 87.2472 28.6358C87.9487 29.0267 88.2994 29.6879 88.2994 30.6193C88.2994 31.2459 88.147 31.7663 87.8423 32.1802C87.5433 32.5942 87.1236 32.8787 86.5832 33.034C86.2267 33.1375 85.7179 33.1892 85.0568 33.1892H80.6413ZM84.5048 27.9027C84.9188 27.9027 85.2436 27.8567 85.4793 27.7647C85.7266 27.6727 85.9163 27.5146 86.0485 27.2904C86.1808 27.0662 86.2469 26.8132 86.2469 26.5315C86.2469 26.2325 86.175 25.971 86.0313 25.7467C85.8933 25.5168 85.6921 25.3587 85.4276 25.2724C85.1746 25.1862 84.8239 25.1431 84.3755 25.1431H82.1936V27.9027H84.5048ZM84.9705 31.9387C85.097 31.9387 85.2436 31.9272 85.4103 31.9042C85.5828 31.8812 85.7323 31.8525 85.8588 31.818C86.1405 31.7375 86.3532 31.5823 86.497 31.3523C86.6407 31.1223 86.7126 30.8607 86.7126 30.5675C86.7126 30.2111 86.6119 29.9179 86.4107 29.6879C86.2095 29.4522 85.9393 29.3027 85.6001 29.2394C85.4333 29.1934 85.1775 29.1704 84.8325 29.1704H82.1936V31.9387H84.9705ZM91.1616 28.9635C91.2248 29.9351 91.4979 30.6825 91.9809 31.2057C92.4696 31.7289 93.1422 31.9905 93.9989 31.9905C94.6083 31.9905 95.1401 31.8496 95.5943 31.5679C96.0542 31.2862 96.4136 30.8809 96.6723 30.3519L98.147 30.8607C97.7848 31.6771 97.2415 32.3124 96.5171 32.7666C95.7927 33.2208 94.9762 33.4479 94.0679 33.4479C93.1595 33.4479 92.3603 33.2467 91.6704 32.8443C90.9862 32.4418 90.4544 31.8726 90.075 31.1367C89.7013 30.4008 89.5144 29.5528 89.5144 28.5926C89.5144 27.5865 89.6984 26.7097 90.0663 25.9623C90.44 25.2092 90.9632 24.6314 91.6359 24.2289C92.3143 23.8207 93.102 23.6166 93.9989 23.6166C94.89 23.6166 95.6575 23.8178 96.3015 24.2203C96.9511 24.617 97.4485 25.189 97.7934 25.9365C98.1384 26.6781 98.3108 27.5606 98.3108 28.584C98.3108 28.7507 98.308 28.8772 98.3022 28.9635H91.1616ZM94.0506 24.9964C93.217 24.9964 92.5587 25.2293 92.0757 25.695C91.5928 26.1607 91.2967 26.8391 91.1875 27.7302H96.7068C96.5171 25.9077 95.6317 24.9964 94.0506 24.9964ZM99.5323 31.9215C99.8773 31.9215 100.153 31.8496 100.36 31.7059C100.567 31.5564 100.734 31.3264 100.86 31.016C100.987 30.6998 101.099 30.2657 101.197 29.7138C101.323 29.0181 101.421 28.2333 101.49 27.3594C101.565 26.4855 101.634 25.3242 101.697 23.8753H108.113V31.9215H109.019V35.259H107.553V33.1892H100.998V35.259H99.5323V31.9215ZM106.578 31.9215V25.1431H103.085C103.028 26.2009 102.962 27.1496 102.887 27.989C102.818 28.8284 102.729 29.5212 102.62 30.0673C102.533 30.5503 102.439 30.9326 102.335 31.2143C102.237 31.496 102.091 31.7318 101.895 31.9215H106.578ZM117.114 23.8753H118.373V33.1892H116.89V26.3245L112.009 33.1892H110.741V23.8753H112.224V30.6451L117.114 23.8753ZM124.79 33.1892H123.255V25.2724H120.012V23.8753H128.033V25.2724H124.79V33.1892ZM130.795 28.9635C130.858 29.9351 131.131 30.6825 131.614 31.2057C132.103 31.7289 132.775 31.9905 133.632 31.9905C134.241 31.9905 134.773 31.8496 135.227 31.5679C135.687 31.2862 136.047 30.8809 136.305 30.3519L137.78 30.8607C137.418 31.6771 136.875 32.3124 136.15 32.7666C135.426 33.2208 134.609 33.4479 133.701 33.4479C132.793 33.4479 131.993 33.2467 131.304 32.8443C130.619 32.4418 130.088 31.8726 129.708 31.1367C129.334 30.4008 129.148 29.5528 129.148 28.5926C129.148 27.5865 129.332 26.7097 129.7 25.9623C130.073 25.2092 130.596 24.6314 131.269 24.2289C131.947 23.8207 132.735 23.6166 133.632 23.6166C134.523 23.6166 135.291 23.8178 135.935 24.2203C136.584 24.617 137.082 25.189 137.427 25.9365C137.772 26.6781 137.944 27.5606 137.944 28.584C137.944 28.7507 137.941 28.8772 137.935 28.9635H130.795ZM133.684 24.9964C132.85 24.9964 132.192 25.2293 131.709 25.695C131.226 26.1607 130.93 26.8391 130.821 27.7302H136.34C136.15 25.9077 135.265 24.9964 133.684 24.9964ZM144.835 33.1892H143.3V23.8753H150.932V33.1892H149.397V25.3328H144.835V33.1892ZM157.314 33.4479C156.4 33.4479 155.604 33.241 154.925 32.827C154.253 32.4073 153.735 31.8266 153.373 31.085C153.011 30.3376 152.83 29.4838 152.83 28.5236C152.83 27.5578 153.014 26.704 153.382 25.9623C153.75 25.2207 154.273 24.6457 154.951 24.2375C155.63 23.8236 156.417 23.6166 157.314 23.6166C158.228 23.6166 159.025 23.8236 159.703 24.2375C160.381 24.6515 160.902 25.2293 161.264 25.971C161.626 26.7126 161.807 27.5635 161.807 28.5236C161.807 29.4953 161.623 30.3548 161.255 31.1022C160.893 31.8439 160.373 32.4217 159.694 32.8356C159.016 33.2438 158.223 33.4479 157.314 33.4479ZM157.314 31.9905C158.251 31.9905 158.961 31.68 159.444 31.0591C159.933 30.4324 160.177 29.5873 160.177 28.5236C160.177 27.4485 159.933 26.6063 159.444 25.9968C158.956 25.3816 158.246 25.0741 157.314 25.0741C156.371 25.0741 155.658 25.3845 155.175 26.0054C154.698 26.6264 154.46 27.4658 154.46 28.5236C154.46 29.5988 154.704 30.4468 155.193 31.0677C155.687 31.6829 156.394 31.9905 157.314 31.9905ZM170.071 23.8753H171.33V33.1892H169.846V26.3245L164.965 33.1892H163.697V23.8753H165.181V30.6451L170.071 23.8753ZM177.669 33.4479C176.743 33.4479 175.947 33.241 175.28 32.827C174.619 32.4073 174.113 31.8266 173.762 31.085C173.417 30.3433 173.239 29.4924 173.227 28.5323C173.239 27.5606 173.42 26.704 173.771 25.9623C174.127 25.2207 174.639 24.6457 175.306 24.2375C175.973 23.8236 176.766 23.6166 177.686 23.6166C178.336 23.6166 178.931 23.7258 179.471 23.9443C180.012 24.1628 180.469 24.4761 180.842 24.8843C181.222 25.2925 181.492 25.7726 181.653 26.3245L180.135 26.7816C179.94 26.2469 179.621 25.8301 179.178 25.5311C178.741 25.2264 178.238 25.0741 177.669 25.0741C176.743 25.0741 176.045 25.3874 175.573 26.0141C175.107 26.6407 174.869 27.4801 174.857 28.5323C174.869 29.6016 175.113 30.4468 175.59 31.0677C176.073 31.6829 176.766 31.9905 177.669 31.9905C178.859 31.9905 179.67 31.4472 180.101 30.3605L181.653 30.7659C181.325 31.634 180.819 32.2981 180.135 32.758C179.451 33.218 178.629 33.4479 177.669 33.4479ZM184.965 33.1892H183.405L183.413 23.8753H184.965V28.3598L188.872 23.8753H190.864L186.751 28.5323L191.347 33.1892H189.2L184.965 28.7047V33.1892ZM196.004 33.4479C195.09 33.4479 194.294 33.241 193.615 32.827C192.943 32.4073 192.425 31.8266 192.063 31.085C191.701 30.3376 191.52 29.4838 191.52 28.5236C191.52 27.5578 191.704 26.704 192.072 25.9623C192.44 25.2207 192.963 24.6457 193.641 24.2375C194.32 23.8236 195.107 23.6166 196.004 23.6166C196.918 23.6166 197.715 23.8236 198.393 24.2375C199.071 24.6515 199.592 25.2293 199.954 25.971C200.316 26.7126 200.497 27.5635 200.497 28.5236C200.497 29.4953 200.313 30.3548 199.945 31.1022C199.583 31.8439 199.063 32.4217 198.384 32.8356C197.706 33.2438 196.913 33.4479 196.004 33.4479ZM196.004 31.9905C196.941 31.9905 197.651 31.68 198.134 31.0591C198.623 30.4324 198.867 29.5873 198.867 28.5236C198.867 27.4485 198.623 26.6063 198.134 25.9968C197.646 25.3816 196.936 25.0741 196.004 25.0741C195.061 25.0741 194.348 25.3845 193.865 26.0054C193.388 26.6264 193.15 27.4658 193.15 28.5236C193.15 29.5988 193.394 30.4468 193.883 31.0677C194.377 31.6829 195.084 31.9905 196.004 31.9905ZM202.387 33.1892V23.8753H206.354C206.607 23.8753 206.869 23.8897 207.139 23.9185C207.409 23.9472 207.651 23.9903 207.864 24.0478C208.375 24.1915 208.789 24.4733 209.105 24.893C209.427 25.3069 209.588 25.8157 209.588 26.4194C209.588 27.0806 209.384 27.6095 208.976 28.0062C208.798 28.1844 208.6 28.3167 208.381 28.4029C208.577 28.4374 208.781 28.515 208.993 28.6358C209.695 29.0267 210.045 29.6879 210.045 30.6193C210.045 31.2459 209.893 31.7663 209.588 32.1802C209.289 32.5942 208.87 32.8787 208.329 33.034C207.973 33.1375 207.464 33.1892 206.803 33.1892H202.387ZM206.251 27.9027C206.665 27.9027 206.99 27.8567 207.225 27.7647C207.473 27.6727 207.662 27.5146 207.795 27.2904C207.927 27.0662 207.993 26.8132 207.993 26.5315C207.993 26.2325 207.921 25.971 207.777 25.7467C207.639 25.5168 207.438 25.3587 207.174 25.2724C206.921 25.1862 206.57 25.1431 206.122 25.1431H203.94V27.9027H206.251ZM206.717 31.9387C206.843 31.9387 206.99 31.9272 207.156 31.9042C207.329 31.8812 207.478 31.8525 207.605 31.818C207.887 31.7375 208.099 31.5823 208.243 31.3523C208.387 31.1223 208.459 30.8607 208.459 30.5675C208.459 30.2111 208.358 29.9179 208.157 29.6879C207.956 29.4522 207.685 29.3027 207.346 29.2394C207.179 29.1934 206.924 29.1704 206.579 29.1704H203.94V31.9387H206.717ZM211.778 33.1892L211.769 23.8753H213.313V27.2473H214.736C215.432 27.2473 215.952 27.2789 216.297 27.3422C217.907 27.6699 218.712 28.63 218.712 30.2226C218.712 31.0045 218.51 31.6369 218.108 32.1198C217.705 32.597 217.154 32.9132 216.452 33.0685C216.09 33.149 215.547 33.1892 214.822 33.1892H211.778ZM221.316 33.1892H219.781V23.8753H221.316V33.1892ZM214.848 31.9215C215.36 31.9215 215.742 31.887 215.995 31.818C216.323 31.726 216.593 31.5478 216.806 31.2833C217.024 31.0188 217.133 30.6653 217.133 30.2226C217.133 29.7684 217.021 29.409 216.797 29.1446C216.579 28.8744 216.28 28.6961 215.9 28.6099C215.624 28.5466 215.274 28.515 214.848 28.515H213.313V31.9215H214.848ZM227.747 22.7887C227.322 22.7887 226.928 22.6852 226.566 22.4782C226.203 22.2655 225.916 21.9781 225.703 21.6159C225.496 21.2536 225.393 20.8598 225.393 20.4344H226.635C226.635 20.6356 226.683 20.8224 226.781 20.9949C226.885 21.1617 227.02 21.2968 227.187 21.4003C227.359 21.498 227.546 21.5469 227.747 21.5469C227.948 21.5469 228.135 21.498 228.308 21.4003C228.48 21.2968 228.615 21.1617 228.713 20.9949C228.811 20.8224 228.86 20.6356 228.86 20.4344H230.101C230.101 20.8598 229.995 21.2536 229.782 21.6159C229.575 21.9781 229.291 22.2655 228.929 22.4782C228.566 22.6852 228.173 22.7887 227.747 22.7887ZM230.101 23.8753H231.361V33.1892H229.877V26.3245L224.996 33.1892H223.728V23.8753H225.212V30.6451L230.101 23.8753ZM242.981 28.3167C243.36 28.5236 243.648 28.8284 243.843 29.2308C244.045 29.6275 244.145 30.0616 244.145 30.533C244.145 31.1252 243.987 31.6426 243.671 32.0853C243.355 32.5223 242.923 32.8586 242.377 33.0943C241.837 33.3301 241.233 33.4479 240.566 33.4479C239.652 33.4479 238.839 33.2525 238.126 32.8615C237.418 32.4648 236.861 31.91 236.453 31.1971L237.677 30.4037C238.016 30.9211 238.422 31.3149 238.893 31.5852C239.37 31.8554 239.908 31.9905 240.506 31.9905C241.138 31.9905 241.641 31.8467 242.015 31.5593C242.389 31.2718 242.576 30.878 242.576 30.3778C242.576 29.8604 242.386 29.5039 242.006 29.3084C241.627 29.1129 241.049 29.0152 240.273 29.0152H239.307V27.7475H240.264C241.627 27.7475 242.308 27.3163 242.308 26.4539C242.308 25.9997 242.139 25.6547 241.799 25.419C241.466 25.1833 241.038 25.0654 240.514 25.0654C240.014 25.0654 239.526 25.1718 239.048 25.3845C238.577 25.5915 238.166 25.8646 237.815 26.2038L236.884 25.1603C237.367 24.6601 237.924 24.2778 238.557 24.0133C239.189 23.7488 239.873 23.6166 240.609 23.6166C241.213 23.6166 241.765 23.723 242.265 23.9357C242.765 24.1484 243.159 24.4618 243.447 24.8757C243.74 25.2839 243.886 25.7697 243.886 26.3332C243.886 27.1323 243.585 27.7935 242.981 28.3167ZM253.196 25.4363C253.317 25.7007 253.397 25.994 253.437 26.3159C253.478 26.6321 253.498 27.003 253.498 27.4284V33.1892H252.135V31.7404C251.393 32.8787 250.244 33.4479 248.686 33.4479C248.013 33.4479 247.438 33.3243 246.961 33.0771C246.484 32.8241 246.124 32.4878 245.883 32.0681C245.641 31.6484 245.521 31.1827 245.521 30.671C245.521 29.2969 246.282 28.3857 247.806 27.9372C248.254 27.8165 248.769 27.7101 249.35 27.6181C249.93 27.5261 250.626 27.4255 251.437 27.3163L251.988 27.2387C251.965 26.4855 251.776 25.9336 251.419 25.5829C251.063 25.2264 250.488 25.0482 249.695 25.0482C249.108 25.0482 248.605 25.1833 248.185 25.4535C247.771 25.718 247.484 26.1262 247.323 26.6781L245.865 26.2383C246.09 25.4046 246.527 24.7607 247.176 24.3065C247.832 23.8466 248.677 23.6166 249.712 23.6166C250.568 23.6166 251.296 23.7718 251.894 24.0823C252.497 24.387 252.931 24.8383 253.196 25.4363ZM248.918 32.163C249.453 32.163 249.924 32.0681 250.333 31.8784C250.741 31.6829 251.071 31.4242 251.324 31.1022C251.577 30.7745 251.741 30.4123 251.816 30.0156C251.873 29.8201 251.911 29.6016 251.928 29.3602C251.951 29.1187 251.965 28.8485 251.971 28.5495L251.549 28.6013C250.738 28.7105 250.114 28.7996 249.677 28.8686C249.246 28.9376 248.852 29.0238 248.496 29.1273C248.053 29.2653 247.7 29.455 247.435 29.6965C247.176 29.938 247.047 30.2599 247.047 30.6624C247.047 30.9326 247.113 31.1827 247.245 31.4127C247.378 31.6369 247.585 31.818 247.866 31.956C248.148 32.094 248.499 32.163 248.918 32.163ZM257.266 33.1892H255.731V23.8753H263.363V33.1892H261.828V25.3328H257.266V33.1892ZM270.065 23.6166C270.91 23.6166 271.646 23.8293 272.273 24.2548C272.905 24.6802 273.388 25.2667 273.721 26.0141C274.061 26.7557 274.23 27.5923 274.23 28.5236C274.23 29.4608 274.061 30.3031 273.721 31.0505C273.388 31.7921 272.905 32.3786 272.273 32.8098C271.646 33.2352 270.907 33.4479 270.056 33.4479C269.487 33.4479 268.972 33.3531 268.513 33.1633C268.053 32.9679 267.653 32.689 267.314 32.3268V37.3287H265.77V23.8753H267.141V24.9188C267.492 24.4991 267.912 24.1772 268.4 23.9529C268.889 23.7287 269.444 23.6166 270.065 23.6166ZM269.867 32.0422C270.459 32.0422 270.959 31.8899 271.367 31.5852C271.781 31.2804 272.089 30.8636 272.29 30.3347C272.497 29.8057 272.6 29.2021 272.6 28.5236C272.6 27.851 272.497 27.253 272.29 26.7299C272.089 26.2009 271.778 25.7841 271.358 25.4794C270.945 25.1747 270.433 25.0223 269.823 25.0223C268.944 25.0223 268.277 25.3385 267.823 25.971C267.368 26.6034 267.141 27.4543 267.141 28.5236C267.141 29.593 267.368 30.4468 267.823 31.085C268.283 31.7231 268.964 32.0422 269.867 32.0422ZM280.088 33.4479C279.174 33.4479 278.377 33.241 277.699 32.827C277.026 32.4073 276.509 31.8266 276.147 31.085C275.784 30.3376 275.603 29.4838 275.603 28.5236C275.603 27.5578 275.787 26.704 276.155 25.9623C276.523 25.2207 277.046 24.6457 277.725 24.2375C278.403 23.8236 279.191 23.6166 280.088 23.6166C281.002 23.6166 281.798 23.8236 282.477 24.2375C283.155 24.6515 283.675 25.2293 284.038 25.971C284.4 26.7126 284.581 27.5635 284.581 28.5236C284.581 29.4953 284.397 30.3548 284.029 31.1022C283.667 31.8439 283.146 32.4217 282.468 32.8356C281.79 33.2438 280.996 33.4479 280.088 33.4479ZM280.088 31.9905C281.025 31.9905 281.735 31.68 282.218 31.0591C282.707 30.4324 282.951 29.5873 282.951 28.5236C282.951 27.4485 282.707 26.6063 282.218 25.9968C281.729 25.3816 281.019 25.0741 280.088 25.0741C279.145 25.0741 278.432 25.3845 277.949 26.0054C277.472 26.6264 277.233 27.4658 277.233 28.5236C277.233 29.5988 277.478 30.4468 277.966 31.0677C278.461 31.6829 279.168 31.9905 280.088 31.9905ZM290.404 33.4479C289.478 33.4479 288.682 33.241 288.015 32.827C287.354 32.4073 286.848 31.8266 286.497 31.085C286.152 30.3433 285.974 29.4924 285.962 28.5323C285.974 27.5606 286.155 26.704 286.505 25.9623C286.862 25.2207 287.374 24.6457 288.041 24.2375C288.707 23.8236 289.501 23.6166 290.421 23.6166C291.07 23.6166 291.665 23.7258 292.206 23.9443C292.746 24.1628 293.203 24.4761 293.577 24.8843C293.957 25.2925 294.227 25.7726 294.388 26.3245L292.87 26.7816C292.674 26.2469 292.355 25.8301 291.913 25.5311C291.476 25.2264 290.973 25.0741 290.404 25.0741C289.478 25.0741 288.779 25.3874 288.308 26.0141C287.842 26.6407 287.604 27.4801 287.592 28.5323C287.604 29.6016 287.848 30.4468 288.325 31.0677C288.808 31.6829 289.501 31.9905 290.404 31.9905C291.594 31.9905 292.404 31.4472 292.835 30.3605L294.388 30.7659C294.06 31.634 293.554 32.2981 292.87 32.758C292.186 33.218 291.364 33.4479 290.404 33.4479Z" fill="black"/>
</svg>
