<svg width="90" height="58" viewBox="0 0 90 58" fill="none" xmlns="http://www.w3.org/2000/svg">
<rect x="31.2812" y="36.5063" width="58.3099" height="21.3927" rx="10.6963" fill="#952AFF"/>
<path d="M52.0036 45.9575H50.113C50.0785 45.7129 50.008 45.4957 49.9015 45.3058C49.795 45.113 49.6583 44.9489 49.4914 44.8137C49.3245 44.6784 49.1317 44.5748 48.913 44.5029C48.6972 44.431 48.4627 44.395 48.2095 44.395C47.7519 44.395 47.3534 44.5087 47.0138 44.736C46.6743 44.9604 46.411 45.2885 46.2239 45.7201C46.0369 46.1489 45.9434 46.6697 45.9434 47.2827C45.9434 47.9129 46.0369 48.4423 46.2239 48.8711C46.4139 49.2998 46.6786 49.6236 47.0181 49.8423C47.3577 50.061 47.7505 50.1703 48.1965 50.1703C48.4469 50.1703 48.6785 50.1372 48.8915 50.071C49.1073 50.0049 49.2986 49.9085 49.4655 49.7818C49.6324 49.6524 49.7706 49.4955 49.8799 49.3114C49.9921 49.1272 50.0698 48.9171 50.113 48.6812L52.0036 48.6898C51.9547 49.0955 51.8324 49.4869 51.6367 49.8639C51.4439 50.2379 51.1835 50.5732 50.8554 50.8696C50.5302 51.1631 50.1418 51.3962 49.69 51.5688C49.2411 51.7386 48.7332 51.8235 48.1663 51.8235C47.3778 51.8235 46.6728 51.6451 46.0513 51.2883C45.4326 50.9314 44.9434 50.4149 44.5837 49.7387C44.2269 49.0624 44.0485 48.2438 44.0485 47.2827C44.0485 46.3187 44.2298 45.4986 44.5923 44.8223C44.9549 44.1461 45.447 43.631 46.0685 43.2771C46.6901 42.9202 47.3894 42.7418 48.1663 42.7418C48.6785 42.7418 49.1533 42.8138 49.5907 42.9576C50.031 43.1015 50.4209 43.3116 50.7605 43.5878C51.1 43.8612 51.3763 44.1964 51.5892 44.5936C51.805 44.9907 51.9431 45.4453 52.0036 45.9575ZM55.1999 51.8278C54.7768 51.8278 54.3999 51.7544 54.069 51.6077C53.738 51.458 53.4762 51.2379 53.2834 50.9473C53.0935 50.6538 52.9985 50.2883 52.9985 49.8509C52.9985 49.4826 53.0661 49.1732 53.2014 48.9229C53.3366 48.6725 53.5208 48.4711 53.7539 48.3186C53.9869 48.1661 54.2517 48.051 54.5481 47.9733C54.8473 47.8956 55.161 47.8409 55.489 47.8093C55.8746 47.769 56.1854 47.7316 56.4214 47.697C56.6574 47.6596 56.8286 47.6049 56.935 47.533C57.0415 47.4611 57.0947 47.3546 57.0947 47.2136V47.1877C57.0947 46.9143 57.0084 46.7028 56.8358 46.5532C56.666 46.4036 56.4243 46.3287 56.1106 46.3287C55.7797 46.3287 55.5164 46.4021 55.3207 46.5489C55.125 46.6928 54.9955 46.874 54.9322 47.0927L53.2316 46.9546C53.3179 46.5518 53.4877 46.2036 53.7409 45.91C53.9941 45.6137 54.3207 45.3863 54.7207 45.2281C55.1236 45.0669 55.5898 44.9863 56.1192 44.9863C56.4876 44.9863 56.8401 45.0295 57.1768 45.1158C57.5163 45.2022 57.817 45.336 58.0789 45.5173C58.3436 45.6985 58.5522 45.9316 58.7048 46.2165C58.8573 46.4985 58.9335 46.8366 58.9335 47.2309V51.7026H57.1897V50.7832H57.1379C57.0314 50.9904 56.889 51.1732 56.7106 51.3314C56.5322 51.4868 56.3178 51.6091 56.0674 51.6983C55.8171 51.7846 55.5279 51.8278 55.1999 51.8278ZM55.7265 50.5588C55.9969 50.5588 56.2358 50.5056 56.443 50.3991C56.6502 50.2897 56.8127 50.143 56.9307 49.9588C57.0487 49.7747 57.1077 49.566 57.1077 49.3329V48.6294C57.0501 48.6668 56.971 48.7013 56.8703 48.733C56.7725 48.7617 56.6617 48.7891 56.5379 48.815C56.4142 48.838 56.2905 48.8596 56.1667 48.8797C56.043 48.897 55.9308 48.9128 55.83 48.9272C55.6142 48.9589 55.4257 49.0092 55.2646 49.0783C55.1035 49.1473 54.9783 49.2409 54.8891 49.3588C54.7999 49.4739 54.7553 49.6178 54.7553 49.7905C54.7553 50.0408 54.8459 50.2322 55.0272 50.3646C55.2114 50.494 55.4444 50.5588 55.7265 50.5588ZM60.3601 45.0727H62.1169V50.2437H63.9859V45.0727H65.7426V50.2437H67.6116V45.0727H69.3684V51.7026H60.3601V45.0727ZM72.6844 51.8278C72.2614 51.8278 71.8845 51.7544 71.5536 51.6077C71.2226 51.458 70.9608 51.2379 70.768 50.9473C70.578 50.6538 70.4831 50.2883 70.4831 49.8509C70.4831 49.4826 70.5507 49.1732 70.686 48.9229C70.8212 48.6725 71.0054 48.4711 71.2385 48.3186C71.4715 48.1661 71.7363 48.051 72.0327 47.9733C72.3319 47.8956 72.6456 47.8409 72.9736 47.8093C73.3592 47.769 73.67 47.7316 73.906 47.697C74.1419 47.6596 74.3132 47.6049 74.4196 47.533C74.5261 47.4611 74.5793 47.3546 74.5793 47.2136V47.1877C74.5793 46.9143 74.493 46.7028 74.3204 46.5532C74.1506 46.4036 73.9089 46.3287 73.5952 46.3287C73.2643 46.3287 73.001 46.4021 72.8053 46.5489C72.6096 46.6928 72.4801 46.874 72.4168 47.0927L70.7162 46.9546C70.8025 46.5518 70.9723 46.2036 71.2255 45.91C71.4787 45.6137 71.8053 45.3863 72.2053 45.2281C72.6082 45.0669 73.0744 44.9863 73.6038 44.9863C73.9722 44.9863 74.3247 45.0295 74.6613 45.1158C75.0009 45.2022 75.3016 45.336 75.5635 45.5173C75.8282 45.6985 76.0368 45.9316 76.1893 46.2165C76.3419 46.4985 76.4181 46.8366 76.4181 47.2309V51.7026H74.6743V50.7832H74.6225C74.516 50.9904 74.3736 51.1732 74.1952 51.3314C74.0168 51.4868 73.8024 51.6091 73.552 51.6983C73.3017 51.7846 73.0125 51.8278 72.6844 51.8278ZM73.211 50.5588C73.4815 50.5588 73.7204 50.5056 73.9276 50.3991C74.1347 50.2897 74.2973 50.143 74.4153 49.9588C74.5333 49.7747 74.5923 49.566 74.5923 49.3329V48.6294C74.5347 48.6668 74.4556 48.7013 74.3549 48.733C74.257 48.7617 74.1463 48.7891 74.0225 48.815C73.8988 48.838 73.775 48.8596 73.6513 48.8797C73.5276 48.897 73.4154 48.9128 73.3146 48.9272C73.0988 48.9589 72.9103 49.0092 72.7492 49.0783C72.588 49.1473 72.4629 49.2409 72.3737 49.3588C72.2845 49.4739 72.2399 49.6178 72.2399 49.7905C72.2399 50.0408 72.3305 50.2322 72.5118 50.3646C72.696 50.494 72.929 50.5588 73.211 50.5588Z" fill="white"/>
<path d="M12.8124 11.0457L36.8957 20.3019C38.2064 20.8056 38.1181 22.6889 36.7661 23.0679L26.7641 25.8714C26.2739 26.0088 25.8907 26.3919 25.7533 26.8822L22.9498 36.8841C22.5708 38.2362 20.6876 38.3244 20.1838 37.0138L10.9276 12.9305C10.4743 11.7511 11.633 10.5924 12.8124 11.0457Z" fill="#952AFF"/>
</svg>
