<svg width="425" height="277" viewBox="0 0 425 277" fill="none" xmlns="http://www.w3.org/2000/svg">
<g clip-path="url(#clip0_3347_2333)">
<rect y="0.256348" width="425" height="276" rx="15" fill="#952AFF"/>
<path opacity="0.8" fill-rule="evenodd" clip-rule="evenodd" d="M319.14 38.1191C321.309 42.3748 321.309 47.9458 321.309 59.0879V61.4248C321.309 72.5669 321.309 78.1379 319.14 82.3936C317.233 86.1371 314.189 89.1806 310.446 91.088C306.19 93.2563 300.619 93.2563 289.477 93.2563H55.1402C43.9981 93.2563 38.427 93.2563 34.1713 91.088C32.5512 90.2625 31.0622 89.2242 29.7396 88.0084C29.0939 89.0504 28.3176 90.1316 27.4953 90.9042C24.8406 93.3983 18.0004 93.2549 18.0004 93.2549C18.0004 93.2549 21.7332 90.9042 23.1204 80.1919C23.2852 78.9189 23.4167 76.5459 23.5213 73.703C23.3086 70.5169 23.3086 66.5633 23.3086 61.4248V53.7827C23.3086 44.4976 23.3086 39.855 25.1156 36.3086C26.7051 33.1891 29.2413 30.6528 32.3609 29.0633C35.9073 27.2563 40.5498 27.2563 49.8349 27.2563H289.477C300.619 27.2563 306.19 27.2563 310.446 29.4247C314.189 31.3321 317.233 34.3756 319.14 38.1191Z" fill="#D4C5FF"/>
<path d="M260.303 71.4288V80.8833H259.158V72.629H259.102L256.794 74.1617V72.9984L259.158 71.4288H260.303ZM265.772 71.2995C266.159 71.3026 266.547 71.3764 266.935 71.5211C267.323 71.6657 267.677 71.9058 267.997 72.2413C268.317 72.5736 268.574 73.0276 268.768 73.6031C268.962 74.1786 269.059 74.9003 269.059 75.7682C269.059 76.6084 268.979 77.3548 268.818 78.0072C268.662 78.6566 268.434 79.2044 268.135 79.6507C267.84 80.097 267.48 80.4355 267.055 80.6663C266.633 80.8972 266.156 81.0126 265.624 81.0126C265.095 81.0126 264.622 80.9079 264.207 80.6986C263.794 80.4863 263.456 80.1924 263.191 79.8169C262.929 79.4383 262.762 78.9998 262.688 78.5012H263.814C263.916 78.9351 264.117 79.2937 264.419 79.5768C264.724 79.8569 265.125 79.9969 265.624 79.9969C266.353 79.9969 266.929 79.6784 267.35 79.0413C267.775 78.4043 267.988 77.504 267.988 76.3407H267.914C267.741 76.5992 267.537 76.8223 267.3 77.0101C267.063 77.1978 266.8 77.3425 266.51 77.444C266.221 77.5456 265.913 77.5964 265.587 77.5964C265.045 77.5964 264.548 77.4625 264.096 77.1947C263.646 76.9239 263.286 76.553 263.016 76.0822C262.748 75.6082 262.614 75.0665 262.614 74.4572C262.614 73.8786 262.743 73.3492 263.002 72.8691C263.263 72.3859 263.63 72.0012 264.1 71.715C264.574 71.4288 265.131 71.2903 265.772 71.2995ZM265.772 72.3151C265.384 72.3151 265.035 72.4121 264.724 72.606C264.416 72.7968 264.171 73.0553 263.99 73.3815C263.811 73.7047 263.722 74.0632 263.722 74.4572C263.722 74.8511 263.808 75.2096 263.98 75.5328C264.156 75.8529 264.394 76.1083 264.696 76.2991C265.001 76.4869 265.347 76.5807 265.735 76.5807C266.027 76.5807 266.299 76.5238 266.552 76.4099C266.804 76.293 267.024 76.1345 267.212 75.9344C267.403 75.7313 267.552 75.502 267.66 75.2466C267.767 74.9881 267.821 74.7188 267.821 74.4387C267.821 74.0694 267.732 73.7231 267.554 73.4C267.378 73.0768 267.135 72.8152 266.824 72.6152C266.516 72.4151 266.166 72.3151 265.772 72.3151ZM271.426 79.6738C271.199 79.6738 271.003 79.5922 270.84 79.4291C270.677 79.266 270.596 79.0706 270.596 78.8428C270.596 78.6151 270.677 78.4196 270.84 78.2565C271.003 78.0934 271.199 78.0119 271.426 78.0119C271.654 78.0119 271.85 78.0934 272.013 78.2565C272.176 78.4196 272.257 78.6151 272.257 78.8428C272.257 78.9936 272.219 79.1321 272.142 79.2583C272.068 79.3845 271.968 79.486 271.842 79.563C271.719 79.6369 271.58 79.6738 271.426 79.6738ZM271.426 74.8911C271.199 74.8911 271.003 74.8096 270.84 74.6464C270.677 74.4833 270.596 74.2879 270.596 74.0601C270.596 73.8324 270.677 73.637 270.84 73.4739C271.003 73.3107 271.199 73.2292 271.426 73.2292C271.654 73.2292 271.85 73.3107 272.013 73.4739C272.176 73.637 272.257 73.8324 272.257 74.0601C272.257 74.211 272.219 74.3494 272.142 74.4756C272.068 74.6018 271.968 74.7034 271.842 74.7803C271.719 74.8542 271.58 74.8911 271.426 74.8911ZM277.258 71.4288V80.8833H276.113V72.629H276.058L273.749 74.1617V72.9984L276.113 71.4288H277.258ZM282.912 81.0126C282.302 81.0126 281.759 80.9079 281.282 80.6986C280.808 80.4894 280.431 80.1985 280.151 79.8261C279.874 79.4507 279.723 79.0152 279.699 78.5197H280.862C280.887 78.8244 280.991 79.0875 281.176 79.3091C281.36 79.5276 281.602 79.6969 281.901 79.8169C282.199 79.9369 282.53 79.9969 282.893 79.9969C283.299 79.9969 283.659 79.9262 283.973 79.7846C284.287 79.643 284.534 79.446 284.712 79.1937C284.891 78.9413 284.98 78.6489 284.98 78.3165C284.98 77.9688 284.894 77.6625 284.721 77.3979C284.549 77.1301 284.297 76.9208 283.964 76.77C283.632 76.6192 283.226 76.5438 282.745 76.5438H281.988V75.5282H282.745C283.121 75.5282 283.45 75.4605 283.733 75.3251C284.02 75.1896 284.243 74.9988 284.403 74.7526C284.566 74.5064 284.647 74.2171 284.647 73.8847C284.647 73.5646 284.577 73.2861 284.435 73.0491C284.293 72.8122 284.093 72.6275 283.835 72.4952C283.579 72.3628 283.278 72.2967 282.93 72.2967C282.604 72.2967 282.296 72.3567 282.007 72.4767C281.721 72.5936 281.487 72.7645 281.305 72.9891C281.123 73.2107 281.025 73.4785 281.01 73.7924H279.902C279.92 73.2969 280.069 72.8629 280.349 72.4905C280.63 72.1151 280.996 71.8227 281.448 71.6134C281.904 71.4041 282.404 71.2995 282.949 71.2995C283.533 71.2995 284.035 71.418 284.454 71.655C284.872 71.8889 285.194 72.1982 285.418 72.5829C285.643 72.9676 285.755 73.3831 285.755 73.8293C285.755 74.3618 285.615 74.8157 285.335 75.1912C285.058 75.5667 284.681 75.8267 284.204 75.9714V76.0452C284.801 76.1437 285.268 76.3976 285.603 76.807C285.938 77.2132 286.106 77.7164 286.106 78.3165C286.106 78.8305 285.966 79.2922 285.686 79.7015C285.409 80.1077 285.031 80.4278 284.55 80.6617C284.07 80.8956 283.524 81.0126 282.912 81.0126Z" fill="#952AFF"/>
<path d="M45.316 55.2563H43.4694L48.8103 40.7109H50.6285L55.9694 55.2563H54.1228L49.7762 43.012H49.6626L45.316 55.2563ZM45.9978 49.5745H53.441V51.137H45.9978V49.5745ZM72.0418 44.3473V55.2563H70.3657V44.3473H72.0418ZM71.3884 49.5461V51.1086C71.0096 51.2507 70.6332 51.3761 70.2591 51.485C69.8851 51.5892 69.4921 51.6721 69.0802 51.7336C68.6682 51.7904 68.2161 51.8188 67.7236 51.8188C66.4878 51.8188 65.4959 51.485 64.7478 50.8174C64.0044 50.1498 63.6327 49.1484 63.6327 47.8132V44.3188H65.3089V47.8132C65.3089 48.3719 65.4154 48.8312 65.6285 49.191C65.8415 49.5509 66.1304 49.8184 66.4949 49.9936C66.8595 50.1688 67.2691 50.2563 67.7236 50.2563C68.4339 50.2563 69.0754 50.1924 69.6483 50.0646C70.226 49.932 70.806 49.7592 71.3884 49.5461ZM79.691 55.4836C78.6398 55.4836 77.7331 55.2516 76.9708 54.7876C76.2132 54.3188 75.6285 53.6654 75.2165 52.8274C74.8093 51.9846 74.6057 51.0045 74.6057 49.887C74.6057 48.7696 74.8093 47.7848 75.2165 46.9325C75.6285 46.0755 76.2014 45.4079 76.9353 44.9296C77.6739 44.4467 78.5357 44.2052 79.5205 44.2052C80.0887 44.2052 80.6498 44.2999 81.2037 44.4893C81.7577 44.6787 82.262 44.9865 82.7165 45.4126C83.1711 45.834 83.5333 46.3927 83.8032 47.0887C84.0731 47.7848 84.208 48.6418 84.208 49.6598V50.37H75.7989V48.9211H82.5035C82.5035 48.3056 82.3804 47.7563 82.1341 47.2734C81.8927 46.7904 81.547 46.4093 81.0972 46.1299C80.6521 45.8506 80.1266 45.7109 79.5205 45.7109C78.8529 45.7109 78.2752 45.8766 77.7876 46.2081C77.3046 46.5348 76.9329 46.9609 76.6725 47.4865C76.4121 48.012 76.2819 48.5755 76.2819 49.1768V50.1427C76.2819 50.9666 76.4239 51.665 76.708 52.2379C76.9968 52.8061 77.3969 53.2393 77.9083 53.5376C78.4197 53.8312 79.0139 53.9779 79.691 53.9779C80.1313 53.9779 80.529 53.9164 80.8841 53.7933C81.244 53.6654 81.5541 53.476 81.8145 53.2251C82.075 52.9694 82.2762 52.6522 82.4182 52.2734L84.0376 52.7279C83.8671 53.2772 83.5806 53.7601 83.1782 54.1768C82.7757 54.5887 82.2786 54.9107 81.6867 55.1427C81.0948 55.37 80.4296 55.4836 79.691 55.4836ZM77.3898 42.5291C77.0915 42.5291 76.8264 42.4154 76.5944 42.1882C76.3671 41.9562 76.2535 41.691 76.2535 41.3927C76.2535 41.066 76.3671 40.7961 76.5944 40.5831C76.8264 40.3652 77.0915 40.2563 77.3898 40.2563C77.7165 40.2563 77.9864 40.3652 78.1995 40.5831C78.4173 40.7961 78.5262 41.066 78.5262 41.3927C78.5262 41.691 78.4173 41.9562 78.1995 42.1882C77.9864 42.4154 77.7165 42.5291 77.3898 42.5291ZM81.4807 42.5291C81.1824 42.5291 80.9173 42.4154 80.6853 42.1882C80.458 41.9562 80.3444 41.691 80.3444 41.3927C80.3444 41.066 80.458 40.7961 80.6853 40.5831C80.9173 40.3652 81.1824 40.2563 81.4807 40.2563C81.8074 40.2563 82.0773 40.3652 82.2904 40.5831C82.5082 40.7961 82.6171 41.066 82.6171 41.3927C82.6171 41.691 82.5082 41.9562 82.2904 42.1882C82.0773 42.4154 81.8074 42.5291 81.4807 42.5291ZM91.7009 52.4723H93.4907C93.5286 52.9647 93.7511 53.3387 94.1583 53.5944C94.5702 53.8501 95.1053 53.9779 95.7634 53.9779C96.4358 53.9779 97.011 53.8406 97.4893 53.566C97.9675 53.2867 98.2066 52.8368 98.2066 52.2166C98.2066 51.852 98.1166 51.5348 97.9367 51.2649C97.7568 50.9902 97.5035 50.7772 97.1768 50.6257C96.8501 50.4742 96.4642 50.3984 96.0191 50.3984H94.1441V48.8927H96.0191C96.6867 48.8927 97.1791 48.7412 97.4964 48.4382C97.8183 48.1351 97.9793 47.7563 97.9793 47.3018C97.9793 46.8141 97.8065 46.4235 97.4608 46.1299C97.1152 45.8316 96.6251 45.6825 95.9907 45.6825C95.3515 45.6825 94.8188 45.8269 94.3927 46.1157C93.9665 46.3998 93.7416 46.7668 93.718 47.2166H91.9566C91.9755 46.6295 92.1555 46.111 92.4964 45.6612C92.8373 45.2066 93.3013 44.8515 93.8884 44.5958C94.4755 44.3354 95.1479 44.2052 95.9055 44.2052C96.6725 44.2052 97.3377 44.3402 97.9012 44.61C98.4694 44.8752 98.9073 45.2374 99.2151 45.6967C99.5276 46.1512 99.6839 46.6673 99.6839 47.245C99.6839 47.8605 99.511 48.3577 99.1654 48.7365C98.8198 49.1152 98.3865 49.3851 97.8657 49.5461V49.6598C98.2776 49.6882 98.6351 49.8207 98.9381 50.0575C99.2459 50.2895 99.485 50.5949 99.6555 50.9737C99.8259 51.3477 99.9111 51.762 99.9111 52.2166C99.9111 52.8795 99.7336 53.4571 99.3785 53.9495C99.0233 54.4372 98.5357 54.816 97.9154 55.0859C97.2951 55.351 96.5873 55.4836 95.7918 55.4836C95.02 55.4836 94.3287 55.3581 93.718 55.1072C93.1072 54.8515 92.6218 54.4988 92.262 54.049C91.9069 53.5944 91.7198 53.0688 91.7009 52.4723ZM105.476 55.512C104.784 55.512 104.157 55.3818 103.594 55.1214C103.03 54.8563 102.583 54.4751 102.251 53.9779C101.92 53.476 101.754 52.87 101.754 52.1598C101.754 51.5348 101.877 51.0281 102.123 50.6399C102.37 50.2469 102.699 49.9391 103.111 49.7166C103.523 49.494 103.977 49.3283 104.474 49.2194C104.976 49.1058 105.48 49.0158 105.987 48.9495C106.65 48.8643 107.187 48.8004 107.599 48.7578C108.016 48.7104 108.319 48.6323 108.508 48.5234C108.703 48.4145 108.8 48.2251 108.8 47.9552V47.8984C108.8 47.1976 108.608 46.6531 108.224 46.2649C107.846 45.8766 107.27 45.6825 106.498 45.6825C105.698 45.6825 105.071 45.8577 104.616 46.2081C104.162 46.5584 103.842 46.9325 103.658 47.3302L102.067 46.762C102.351 46.0992 102.73 45.5831 103.203 45.2137C103.681 44.8397 104.202 44.5793 104.766 44.4325C105.334 44.281 105.892 44.2052 106.442 44.2052C106.792 44.2052 107.195 44.2478 107.649 44.3331C108.108 44.4135 108.551 44.5816 108.977 44.8373C109.408 45.093 109.766 45.4789 110.05 45.995C110.334 46.5111 110.476 47.2024 110.476 48.0688V55.2563H108.8V53.7791H108.714C108.601 54.0158 108.411 54.2691 108.146 54.539C107.881 54.8089 107.528 55.0385 107.088 55.2279C106.648 55.4173 106.11 55.512 105.476 55.512ZM105.731 54.0063C106.394 54.0063 106.953 53.8761 107.408 53.6157C107.867 53.3553 108.213 53.0191 108.445 52.6072C108.681 52.1953 108.8 51.762 108.8 51.3075V49.7734C108.729 49.8586 108.572 49.9367 108.331 50.0078C108.094 50.0741 107.82 50.1332 107.507 50.1853C107.199 50.2327 106.899 50.2753 106.605 50.3132C106.316 50.3463 106.082 50.3747 105.902 50.3984C105.466 50.4552 105.059 50.5475 104.68 50.6754C104.306 50.7985 104.003 50.9855 103.771 51.2365C103.544 51.4827 103.43 51.8188 103.43 52.245C103.43 52.8274 103.646 53.2677 104.077 53.566C104.512 53.8596 105.064 54.0063 105.731 54.0063ZM120.836 52.7848L126.092 44.3473H128.024V55.2563H126.348V46.8188L121.12 55.2563H119.16V44.3473H120.836V52.7848ZM137.827 44.3473V45.9098H132.77V55.2563H131.094V44.3473H137.827ZM140.273 59.3473V44.3473H141.893V46.0802H142.092C142.215 45.8908 142.385 45.6493 142.603 45.3558C142.825 45.0575 143.143 44.7923 143.555 44.5603C143.971 44.3236 144.535 44.2052 145.245 44.2052C146.164 44.2052 146.973 44.4349 147.674 44.8941C148.375 45.3534 148.922 46.0045 149.315 46.8473C149.708 47.6901 149.904 48.6844 149.904 49.8302C149.904 50.9855 149.708 51.9869 149.315 52.8345C148.922 53.6773 148.377 54.3307 147.681 54.7947C146.985 55.254 146.182 55.4836 145.273 55.4836C144.573 55.4836 144.012 55.3676 143.59 55.1356C143.169 54.8989 142.844 54.6313 142.617 54.3331C142.39 54.03 142.215 53.7791 142.092 53.5802H141.949V59.3473H140.273ZM141.921 49.8018C141.921 50.6257 142.042 51.3525 142.283 51.9822C142.525 52.6072 142.878 53.0973 143.342 53.4524C143.806 53.8027 144.374 53.9779 145.046 53.9779C145.747 53.9779 146.332 53.7933 146.8 53.424C147.274 53.0499 147.629 52.548 147.866 51.9183C148.107 51.2838 148.228 50.5783 148.228 49.8018C148.228 49.0348 148.11 48.3435 147.873 47.7279C147.641 47.1077 147.288 46.6176 146.815 46.2578C146.346 45.8932 145.756 45.7109 145.046 45.7109C144.364 45.7109 143.791 45.8837 143.327 46.2294C142.863 46.5703 142.513 47.0485 142.276 47.664C142.039 48.2748 141.921 48.9874 141.921 49.8018ZM153.91 48.2961H157.035C158.313 48.2961 159.291 48.6205 159.968 49.2691C160.645 49.9178 160.984 50.7393 160.984 51.7336C160.984 52.387 160.832 52.9813 160.529 53.5163C160.226 54.0466 159.781 54.4704 159.194 54.7876C158.607 55.1001 157.887 55.2563 157.035 55.2563H152.461V44.3473H154.137V53.6938H157.035C157.698 53.6938 158.242 53.5187 158.668 53.1683C159.094 52.8179 159.307 52.3681 159.307 51.8188C159.307 51.2412 159.094 50.7701 158.668 50.4055C158.242 50.0409 157.698 49.8586 157.035 49.8586H153.91V48.2961ZM162.717 55.2563V44.3473H164.393V55.2563H162.717ZM174.165 59.3473C173.881 59.3473 173.628 59.3236 173.405 59.2762C173.183 59.2336 173.029 59.191 172.944 59.1484L173.37 57.6711C173.777 57.7753 174.137 57.8132 174.449 57.7848C174.762 57.7563 175.039 57.6167 175.28 57.3657C175.527 57.1195 175.752 56.7194 175.955 56.1654L176.268 55.3132L172.234 44.3473H174.052L177.063 53.0404H177.177L180.188 44.3473H182.006L177.376 56.8473C177.167 57.4107 176.909 57.8771 176.601 58.2464C176.294 58.6205 175.936 58.8974 175.529 59.0774C175.127 59.2573 174.672 59.3473 174.165 59.3473ZM189.844 55.2563V44.3473H194.304C195.478 44.3473 196.411 44.6124 197.102 45.1427C197.793 45.673 198.139 46.3738 198.139 47.245C198.139 47.9079 197.943 48.4216 197.55 48.7862C197.157 49.146 196.652 49.3899 196.037 49.5177C196.439 49.5745 196.83 49.7166 197.209 49.9438C197.592 50.1711 197.909 50.4836 198.16 50.8813C198.411 51.2743 198.537 51.7573 198.537 52.3302C198.537 52.8889 198.395 53.3884 198.111 53.8288C197.827 54.2691 197.419 54.6171 196.889 54.8728C196.359 55.1285 195.724 55.2563 194.986 55.2563H189.844ZM191.435 53.7223H194.986C195.563 53.7223 196.016 53.5849 196.342 53.3103C196.669 53.0357 196.832 52.6617 196.832 52.1882C196.832 51.6247 196.669 51.182 196.342 50.86C196.016 50.5333 195.563 50.37 194.986 50.37H191.435V53.7223ZM191.435 48.9211H194.304C194.754 48.9211 195.14 48.8596 195.462 48.7365C195.784 48.6086 196.03 48.4287 196.2 48.1967C196.375 47.9599 196.463 47.6806 196.463 47.3586C196.463 46.8993 196.271 46.5395 195.888 46.2791C195.504 46.0139 194.976 45.8813 194.304 45.8813H191.435V48.9211ZM204.284 55.512C203.593 55.512 202.966 55.3818 202.402 55.1214C201.839 54.8563 201.391 54.4751 201.06 53.9779C200.728 53.476 200.563 52.87 200.563 52.1598C200.563 51.5348 200.686 51.0281 200.932 50.6399C201.178 50.2469 201.507 49.9391 201.919 49.7166C202.331 49.494 202.786 49.3283 203.283 49.2194C203.785 49.1058 204.289 49.0158 204.796 48.9495C205.459 48.8643 205.996 48.8004 206.408 48.7578C206.825 48.7104 207.128 48.6323 207.317 48.5234C207.511 48.4145 207.608 48.2251 207.608 47.9552V47.8984C207.608 47.1976 207.416 46.6531 207.033 46.2649C206.654 45.8766 206.079 45.6825 205.307 45.6825C204.507 45.6825 203.88 45.8577 203.425 46.2081C202.97 46.5584 202.651 46.9325 202.466 47.3302L200.875 46.762C201.159 46.0992 201.538 45.5831 202.012 45.2137C202.49 44.8397 203.011 44.5793 203.574 44.4325C204.142 44.281 204.701 44.2052 205.25 44.2052C205.601 44.2052 206.003 44.2478 206.458 44.3331C206.917 44.4135 207.36 44.5816 207.786 44.8373C208.217 45.093 208.574 45.4789 208.858 45.995C209.142 46.5111 209.284 47.2024 209.284 48.0688V55.2563H207.608V53.7791H207.523C207.409 54.0158 207.22 54.2691 206.955 54.539C206.69 54.8089 206.337 55.0385 205.897 55.2279C205.456 55.4173 204.919 55.512 204.284 55.512ZM204.54 54.0063C205.203 54.0063 205.762 53.8761 206.216 53.6157C206.675 53.3553 207.021 53.0191 207.253 52.6072C207.49 52.1953 207.608 51.762 207.608 51.3075V49.7734C207.537 49.8586 207.381 49.9367 207.139 50.0078C206.903 50.0741 206.628 50.1332 206.316 50.1853C206.008 50.2327 205.707 50.2753 205.414 50.3132C205.125 50.3463 204.89 50.3747 204.71 50.3984C204.275 50.4552 203.868 50.5475 203.489 50.6754C203.115 50.7985 202.812 50.9855 202.58 51.2365C202.353 51.4827 202.239 51.8188 202.239 52.245C202.239 52.8274 202.454 53.2677 202.885 53.566C203.321 53.8596 203.872 54.0063 204.54 54.0063ZM216.775 55.4836C215.753 55.4836 214.872 55.2421 214.133 54.7592C213.395 54.2762 212.827 53.611 212.429 52.7634C212.031 51.9159 211.832 50.9476 211.832 49.8586C211.832 48.7507 212.036 47.7729 212.443 46.9254C212.855 46.0731 213.428 45.4079 214.162 44.9296C214.9 44.4467 215.762 44.2052 216.747 44.2052C217.514 44.2052 218.205 44.3473 218.821 44.6313C219.436 44.9154 219.941 45.3132 220.334 45.8245C220.727 46.3359 220.971 46.9325 221.065 47.6143H219.389C219.261 47.1171 218.977 46.6768 218.537 46.2933C218.101 45.905 217.514 45.7109 216.775 45.7109C216.122 45.7109 215.549 45.8813 215.057 46.2223C214.569 46.5584 214.188 47.0343 213.913 47.6498C213.643 48.2606 213.508 48.9779 213.508 49.8018C213.508 50.6446 213.641 51.3785 213.906 52.0035C214.176 52.6285 214.555 53.1138 215.043 53.4595C215.535 53.8051 216.113 53.9779 216.775 53.9779C217.211 53.9779 217.606 53.9022 217.962 53.7507C218.317 53.5992 218.617 53.3813 218.864 53.0973C219.11 52.8132 219.285 52.4723 219.389 52.0745H221.065C220.971 52.7185 220.736 53.2985 220.362 53.8146C219.993 54.3259 219.503 54.7331 218.892 55.0362C218.286 55.3345 217.58 55.4836 216.775 55.4836ZM230.817 52.7848L236.072 44.3473H238.004V55.2563H236.328V46.8188L231.101 55.2563H229.141V44.3473H230.817V52.7848ZM246.699 55.2563V44.3473H248.375V49.0916H249.483L253.404 44.3473H255.563L251.159 49.6029L255.62 55.2563H253.46L249.881 50.6541H248.375V55.2563H246.699ZM260.652 55.512C259.96 55.512 259.333 55.3818 258.769 55.1214C258.206 54.8563 257.759 54.4751 257.427 53.9779C257.096 53.476 256.93 52.87 256.93 52.1598C256.93 51.5348 257.053 51.0281 257.299 50.6399C257.545 50.2469 257.875 49.9391 258.286 49.7166C258.698 49.494 259.153 49.3283 259.65 49.2194C260.152 49.1058 260.656 49.0158 261.163 48.9495C261.826 48.8643 262.363 48.8004 262.775 48.7578C263.192 48.7104 263.495 48.6323 263.684 48.5234C263.878 48.4145 263.975 48.2251 263.975 47.9552V47.8984C263.975 47.1976 263.784 46.6531 263.4 46.2649C263.021 45.8766 262.446 45.6825 261.674 45.6825C260.874 45.6825 260.247 45.8577 259.792 46.2081C259.338 46.5584 259.018 46.9325 258.833 47.3302L257.242 46.762C257.527 46.0992 257.905 45.5831 258.379 45.2137C258.857 44.8397 259.378 44.5793 259.941 44.4325C260.509 44.281 261.068 44.2052 261.617 44.2052C261.968 44.2052 262.37 44.2478 262.825 44.3331C263.284 44.4135 263.727 44.5816 264.153 44.8373C264.584 45.093 264.941 45.4789 265.225 45.995C265.509 46.5111 265.652 47.2024 265.652 48.0688V55.2563H263.975V53.7791H263.89C263.777 54.0158 263.587 54.2691 263.322 54.539C263.057 54.8089 262.704 55.0385 262.264 55.2279C261.823 55.4173 261.286 55.512 260.652 55.512ZM260.907 54.0063C261.57 54.0063 262.129 53.8761 262.583 53.6157C263.043 53.3553 263.388 53.0191 263.62 52.6072C263.857 52.1953 263.975 51.762 263.975 51.3075V49.7734C263.904 49.8586 263.748 49.9367 263.507 50.0078C263.27 50.0741 262.995 50.1332 262.683 50.1853C262.375 50.2327 262.074 50.2753 261.781 50.3132C261.492 50.3463 261.258 50.3747 261.078 50.3984C260.642 50.4552 260.235 50.5475 259.856 50.6754C259.482 50.7985 259.179 50.9855 258.947 51.2365C258.72 51.4827 258.606 51.8188 258.606 52.245C258.606 52.8274 258.822 53.2677 259.252 53.566C259.688 53.8596 260.24 54.0063 260.907 54.0063ZM268.711 55.2563V44.3473H270.387V49.0916H271.495L275.415 44.3473H277.574L273.171 49.6029L277.631 55.2563H275.472L271.893 50.6541H270.387V55.2563H268.711ZM46.1682 76.7848L51.4239 68.3473H53.3557V79.2563H51.6796V70.8188L46.4523 79.2563H44.4921V68.3473H46.1682V76.7848ZM63.1586 68.3473V69.9098H58.1018V79.2563H56.4257V68.3473H63.1586ZM65.6054 83.3473V68.3473H67.2247V70.0802H67.4236C67.5467 69.8908 67.7171 69.6493 67.9349 69.3558C68.1575 69.0575 68.4747 68.7923 68.8866 68.5603C69.3033 68.3236 69.8667 68.2052 70.577 68.2052C71.4955 68.2052 72.3052 68.4349 73.0059 68.8941C73.7067 69.3534 74.2536 70.0045 74.6466 70.8473C75.0396 71.6901 75.2361 72.6844 75.2361 73.8302C75.2361 74.9855 75.0396 75.9869 74.6466 76.8345C74.2536 77.6773 73.7091 78.3307 73.0131 78.7947C72.317 79.254 71.5145 79.4836 70.6054 79.4836C69.9046 79.4836 69.3435 79.3676 68.9221 79.1356C68.5007 78.8989 68.1764 78.6313 67.9491 78.3331C67.7219 78.03 67.5467 77.7791 67.4236 77.5802H67.2815V83.3473H65.6054ZM67.2531 73.8018C67.2531 74.6257 67.3738 75.3525 67.6153 75.9822C67.8568 76.6072 68.2095 77.0973 68.6736 77.4524C69.1376 77.8027 69.7058 77.9779 70.3781 77.9779C71.0789 77.9779 71.6636 77.7933 72.1324 77.424C72.6059 77.0499 72.961 76.548 73.1977 75.9183C73.4392 75.2838 73.5599 74.5783 73.5599 73.8018C73.5599 73.0348 73.4416 72.3435 73.2048 71.7279C72.9728 71.1077 72.6201 70.6176 72.1466 70.2578C71.6778 69.8932 71.0883 69.7109 70.3781 69.7109C69.6963 69.7109 69.1234 69.8837 68.6594 70.2294C68.1953 70.5703 67.845 71.0485 67.6082 71.664C67.3715 72.2748 67.2531 72.9874 67.2531 73.8018ZM81.0031 79.512C80.3118 79.512 79.6845 79.3818 79.121 79.1214C78.5576 78.8563 78.1101 78.4751 77.7787 77.9779C77.4472 77.476 77.2815 76.87 77.2815 76.1598C77.2815 75.5348 77.4046 75.0281 77.6508 74.6399C77.897 74.2469 78.2261 73.9391 78.6381 73.7166C79.05 73.494 79.5045 73.3283 80.0017 73.2194C80.5036 73.1058 81.0078 73.0158 81.5145 72.9495C82.1773 72.8643 82.7148 72.8004 83.1267 72.7578C83.5434 72.7104 83.8464 72.6323 84.0358 72.5234C84.2299 72.4145 84.327 72.2251 84.327 71.9552V71.8984C84.327 71.1976 84.1352 70.6531 83.7517 70.2649C83.3729 69.8766 82.7976 69.6825 82.0258 69.6825C81.2256 69.6825 80.5983 69.8577 80.1437 70.2081C79.6892 70.5584 79.3696 70.9325 79.1849 71.3302L77.594 70.762C77.8781 70.0992 78.2569 69.5831 78.7304 69.2137C79.2086 68.8397 79.7294 68.5793 80.2929 68.4325C80.8611 68.281 81.4198 68.2052 81.969 68.2052C82.3194 68.2052 82.7219 68.2478 83.1764 68.3331C83.6357 68.4135 84.0784 68.5816 84.5045 68.8373C84.9354 69.093 85.2929 69.4789 85.577 69.995C85.8611 70.5111 86.0031 71.2024 86.0031 72.0688V79.2563H84.327V77.7791H84.2417C84.1281 78.0158 83.9387 78.2691 83.6736 78.539C83.4084 78.8089 83.0557 79.0385 82.6153 79.2279C82.175 79.4173 81.6376 79.512 81.0031 79.512ZM81.2588 78.0063C81.9217 78.0063 82.4804 77.8761 82.9349 77.6157C83.3942 77.3553 83.7398 77.0191 83.9719 76.6072C84.2086 76.1953 84.327 75.762 84.327 75.3075V73.7734C84.2559 73.8586 84.0997 73.9367 83.8582 74.0078C83.6215 74.0741 83.3469 74.1332 83.0344 74.1853C82.7266 74.2327 82.4259 74.2753 82.1324 74.3132C81.8435 74.3463 81.6092 74.3747 81.4292 74.3984C80.9936 74.4552 80.5864 74.5475 80.2077 74.6754C79.8336 74.7985 79.5306 74.9855 79.2986 75.2365C79.0713 75.4827 78.9577 75.8188 78.9577 76.245C78.9577 76.8274 79.1731 77.2677 79.604 77.566C80.0396 77.8596 80.5912 78.0063 81.2588 78.0063ZM87.578 69.9098V68.3473H96.4417V69.9098H92.8621V79.2563H91.186V69.9098H87.578ZM100.335 72.2961H103.46C104.739 72.2961 105.717 72.6205 106.394 73.2691C107.071 73.9178 107.409 74.7393 107.409 75.7336C107.409 76.387 107.258 76.9813 106.955 77.5163C106.652 78.0466 106.207 78.4704 105.62 78.7876C105.032 79.1001 104.313 79.2563 103.46 79.2563H98.8866V68.3473H100.563V77.6938H103.46C104.123 77.6938 104.668 77.5187 105.094 77.1683C105.52 76.8179 105.733 76.3681 105.733 75.8188C105.733 75.2412 105.52 74.7701 105.094 74.4055C104.668 74.0409 104.123 73.8586 103.46 73.8586H100.335V72.2961ZM115.586 79.2563V68.3473H120.046C121.22 68.3473 122.153 68.6124 122.844 69.1427C123.536 69.673 123.881 70.3738 123.881 71.245C123.881 71.9079 123.685 72.4216 123.292 72.7862C122.899 73.146 122.395 73.3899 121.779 73.5177C122.181 73.5745 122.572 73.7166 122.951 73.9438C123.334 74.1711 123.652 74.4836 123.903 74.8813C124.154 75.2743 124.279 75.7573 124.279 76.3302C124.279 76.8889 124.137 77.3884 123.853 77.8288C123.569 78.2691 123.162 78.6171 122.631 78.8728C122.101 79.1285 121.467 79.2563 120.728 79.2563H115.586ZM117.177 77.7223H120.728C121.306 77.7223 121.758 77.5849 122.084 77.3103C122.411 77.0357 122.574 76.6617 122.574 76.1882C122.574 75.6247 122.411 75.182 122.084 74.86C121.758 74.5333 121.306 74.37 120.728 74.37H117.177V77.7223ZM117.177 72.9211H120.046C120.496 72.9211 120.882 72.8596 121.204 72.7365C121.526 72.6086 121.772 72.4287 121.942 72.1967C122.118 71.9599 122.205 71.6806 122.205 71.3586C122.205 70.8993 122.013 70.5395 121.63 70.2791C121.246 70.0139 120.718 69.8813 120.046 69.8813H117.177V72.9211ZM131.248 79.4836C130.263 79.4836 129.399 79.2492 128.656 78.7805C127.917 78.3117 127.34 77.656 126.923 76.8132C126.511 75.9704 126.305 74.9855 126.305 73.8586C126.305 72.7223 126.511 71.7303 126.923 70.8828C127.34 70.0352 127.917 69.3771 128.656 68.9083C129.399 68.4396 130.263 68.2052 131.248 68.2052C132.233 68.2052 133.095 68.4396 133.833 68.9083C134.577 69.3771 135.154 70.0352 135.566 70.8828C135.983 71.7303 136.191 72.7223 136.191 73.8586C136.191 74.9855 135.983 75.9704 135.566 76.8132C135.154 77.656 134.577 78.3117 133.833 78.7805C133.095 79.2492 132.233 79.4836 131.248 79.4836ZM131.248 77.9779C131.996 77.9779 132.612 77.7862 133.095 77.4027C133.578 77.0191 133.935 76.5149 134.167 75.8899C134.399 75.2649 134.515 74.5878 134.515 73.8586C134.515 73.1295 134.399 72.45 134.167 71.8203C133.935 71.1905 133.578 70.6815 133.095 70.2933C132.612 69.905 131.996 69.7109 131.248 69.7109C130.5 69.7109 129.884 69.905 129.402 70.2933C128.919 70.6815 128.561 71.1905 128.329 71.8203C128.097 72.45 127.981 73.1295 127.981 73.8586C127.981 74.5878 128.097 75.2649 128.329 75.8899C128.561 76.5149 128.919 77.0191 129.402 77.4027C129.884 77.7862 130.5 77.9779 131.248 77.9779ZM143.182 79.4836C142.197 79.4836 141.333 79.2492 140.589 78.7805C139.851 78.3117 139.273 77.656 138.856 76.8132C138.445 75.9704 138.239 74.9855 138.239 73.8586C138.239 72.7223 138.445 71.7303 138.856 70.8828C139.273 70.0352 139.851 69.3771 140.589 68.9083C141.333 68.4396 142.197 68.2052 143.182 68.2052C144.167 68.2052 145.028 68.4396 145.767 68.9083C146.51 69.3771 147.088 70.0352 147.5 70.8828C147.917 71.7303 148.125 72.7223 148.125 73.8586C148.125 74.9855 147.917 75.9704 147.5 76.8132C147.088 77.656 146.51 78.3117 145.767 78.7805C145.028 79.2492 144.167 79.4836 143.182 79.4836ZM143.182 77.9779C143.93 77.9779 144.545 77.7862 145.028 77.4027C145.511 77.0191 145.869 76.5149 146.101 75.8899C146.333 75.2649 146.449 74.5878 146.449 73.8586C146.449 73.1295 146.333 72.45 146.101 71.8203C145.869 71.1905 145.511 70.6815 145.028 70.2933C144.545 69.905 143.93 69.7109 143.182 69.7109C142.434 69.7109 141.818 69.905 141.335 70.2933C140.852 70.6815 140.495 71.1905 140.263 71.8203C140.031 72.45 139.915 73.1295 139.915 73.8586C139.915 74.5878 140.031 75.2649 140.263 75.8899C140.495 76.5149 140.852 77.0191 141.335 77.4027C141.818 77.7862 142.434 77.9779 143.182 77.9779ZM158.78 64.2563L159.632 65.2791C159.301 65.601 158.917 65.8259 158.482 65.9538C158.046 66.0816 157.554 66.1598 157.005 66.1882C156.455 66.2166 155.844 66.245 155.172 66.2734C154.415 66.3018 153.787 66.4865 153.29 66.8274C152.793 67.1683 152.409 67.6607 152.139 68.3046C151.87 68.9486 151.697 69.7393 151.621 70.6768H151.763C152.132 69.995 152.644 69.4931 153.297 69.1711C153.951 68.8492 154.651 68.6882 155.399 68.6882C156.252 68.6882 157.019 68.887 157.701 69.2848C158.382 69.6825 158.922 70.272 159.32 71.0532C159.718 71.8345 159.916 72.798 159.916 73.9438C159.916 75.0849 159.713 76.0698 159.306 76.8984C158.903 77.727 158.337 78.3662 157.608 78.816C156.884 79.2611 156.034 79.4836 155.059 79.4836C154.083 79.4836 153.228 79.254 152.495 78.7947C151.761 78.3307 151.19 77.6441 150.783 76.735C150.376 75.8212 150.172 74.692 150.172 73.3473V72.1825C150.172 69.7535 150.584 67.9117 151.408 66.6569C152.237 65.4022 153.482 64.7535 155.144 64.7109C155.731 64.692 156.254 64.6872 156.713 64.6967C157.173 64.7062 157.573 64.6849 157.914 64.6328C158.255 64.5807 158.543 64.4552 158.78 64.2563ZM155.059 77.9779C155.717 77.9779 156.282 77.8122 156.756 77.4808C157.234 77.1493 157.601 76.683 157.857 76.0816C158.112 75.4756 158.24 74.763 158.24 73.9438C158.24 73.1484 158.11 72.4713 157.85 71.9126C157.594 71.3539 157.227 70.9277 156.749 70.6342C156.271 70.3406 155.698 70.1938 155.03 70.1938C154.542 70.1938 154.104 70.2767 153.716 70.4424C153.328 70.6081 152.996 70.852 152.722 71.174C152.447 71.4959 152.234 71.8889 152.083 72.3529C151.936 72.817 151.858 73.3473 151.848 73.9438C151.848 75.1654 152.135 76.1432 152.708 76.8771C153.281 77.611 154.064 77.9779 155.059 77.9779ZM177.367 77.6938L177.168 82.3813H175.435V79.2563H174.014V77.6938H177.367ZM162.48 68.3473H164.157V77.6938H168.276V68.3473H169.952V77.6938H174.071V68.3473H175.747V79.2563H162.48V68.3473ZM184.261 79.4836C183.21 79.4836 182.303 79.2516 181.541 78.7876C180.784 78.3188 180.199 77.6654 179.787 76.8274C179.38 75.9846 179.176 75.0045 179.176 73.887C179.176 72.7696 179.38 71.7848 179.787 70.9325C180.199 70.0755 180.772 69.4079 181.506 68.9296C182.244 68.4467 183.106 68.2052 184.091 68.2052C184.659 68.2052 185.22 68.2999 185.774 68.4893C186.328 68.6787 186.832 68.9865 187.287 69.4126C187.741 69.834 188.104 70.3927 188.373 71.0887C188.643 71.7848 188.778 72.6418 188.778 73.6598V74.37H180.369V72.9211H187.074C187.074 72.3056 186.951 71.7563 186.704 71.2734C186.463 70.7904 186.117 70.4093 185.668 70.1299C185.222 69.8506 184.697 69.7109 184.091 69.7109C183.423 69.7109 182.846 69.8766 182.358 70.2081C181.875 70.5348 181.503 70.9609 181.243 71.4865C180.982 72.012 180.852 72.5755 180.852 73.1768V74.1427C180.852 74.9666 180.994 75.665 181.278 76.2379C181.567 76.8061 181.967 77.2393 182.479 77.5376C182.99 77.8312 183.584 77.9779 184.261 77.9779C184.702 77.9779 185.099 77.9164 185.454 77.7933C185.814 77.6654 186.124 77.476 186.385 77.2251C186.645 76.9694 186.847 76.6522 186.989 76.2734L188.608 76.7279C188.437 77.2772 188.151 77.7601 187.748 78.1768C187.346 78.5887 186.849 78.9107 186.257 79.1427C185.665 79.37 185 79.4836 184.261 79.4836ZM193.516 75.1654V75.0802C193.525 74.1759 193.62 73.4562 193.8 72.9211C193.98 72.3861 194.235 71.9528 194.567 71.6214C194.898 71.29 195.296 70.9846 195.76 70.7052C196.039 70.5348 196.29 70.3335 196.513 70.1015C196.735 69.8648 196.91 69.5925 197.038 69.2848C197.171 68.977 197.237 68.6361 197.237 68.262C197.237 67.798 197.128 67.3956 196.91 67.0546C196.693 66.7137 196.401 66.4509 196.037 66.2663C195.672 66.0816 195.267 65.9893 194.822 65.9893C194.434 65.9893 194.06 66.0698 193.7 66.2308C193.34 66.3918 193.04 66.6451 192.798 66.9907C192.557 67.3364 192.417 67.7885 192.379 68.3473H190.589C190.627 67.5423 190.836 66.8534 191.214 66.2805C191.598 65.7076 192.102 65.2696 192.727 64.9666C193.357 64.6635 194.055 64.512 194.822 64.512C195.656 64.512 196.38 64.6777 196.996 65.0092C197.616 65.3406 198.094 65.7952 198.43 66.3728C198.771 66.9505 198.942 67.6086 198.942 68.3473C198.942 68.8681 198.861 69.3392 198.7 69.7606C198.544 70.182 198.317 70.5584 198.018 70.8899C197.725 71.2213 197.37 71.5149 196.953 71.7706C196.536 72.031 196.203 72.3056 195.952 72.5944C195.701 72.8785 195.518 73.217 195.405 73.61C195.291 74.003 195.23 74.4931 195.22 75.0802V75.1654H193.516ZM194.425 79.37C194.074 79.37 193.774 79.2445 193.523 78.9936C193.272 78.7426 193.146 78.442 193.146 78.0916C193.146 77.7412 193.272 77.4405 193.523 77.1896C193.774 76.9386 194.074 76.8132 194.425 76.8132C194.775 76.8132 195.076 76.9386 195.327 77.1896C195.578 77.4405 195.703 77.7412 195.703 78.0916C195.703 78.3236 195.644 78.5367 195.525 78.7308C195.412 78.9249 195.258 79.0812 195.064 79.1995C194.874 79.3132 194.661 79.37 194.425 79.37Z" fill="white"/>
<path fill-rule="evenodd" clip-rule="evenodd" d="M304.855 71.2363C305.082 71.4559 305.089 71.8182 304.869 72.0456L295.961 81.2718C295.85 81.3863 295.697 81.4496 295.538 81.4465C295.379 81.4434 295.228 81.3742 295.122 81.2555L291.145 76.8014C290.935 76.5656 290.955 76.2038 291.191 75.9932C291.427 75.7827 291.789 75.8032 291.999 76.039L295.566 80.0333L304.046 71.2505C304.265 71.0231 304.628 71.0167 304.855 71.2363Z" fill="#952AFF"/>
<path fill-rule="evenodd" clip-rule="evenodd" d="M307.855 71.2363C308.082 71.4559 308.089 71.8182 307.869 72.0456L298.961 81.2718C298.85 81.3863 298.697 81.4496 298.538 81.4465C298.379 81.4434 298.228 81.3742 298.122 81.2555L294.145 76.8014C293.935 76.5656 293.955 76.2038 294.191 75.9932C294.427 75.7827 294.789 75.8032 294.999 76.039L298.566 80.0333L307.046 71.2505C307.265 71.0231 307.628 71.0167 307.855 71.2363Z" fill="#952AFF"/>
</g>
<defs>
<clipPath id="clip0_3347_2333">
<rect y="0.256348" width="425" height="276" rx="15" fill="white"/>
</clipPath>
</defs>
</svg>
