<svg width="86" height="58" viewBox="0 0 86 58" fill="none" xmlns="http://www.w3.org/2000/svg">
<rect x="31.2109" y="36.3276" width="54.3565" height="21.4338" rx="10.7169" fill="black"/>
<path d="M52.2975 47.116C52.2975 48.0818 52.1144 48.9035 51.7483 49.581C51.385 50.2586 50.8891 50.7761 50.2606 51.1336C49.6349 51.4882 48.9315 51.6655 48.1501 51.6655C47.363 51.6655 46.6567 51.4868 46.031 51.1293C45.4054 50.7718 44.911 50.2542 44.5477 49.5767C44.1844 48.8992 44.0028 48.0789 44.0028 47.116C44.0028 46.1501 44.1844 45.3284 44.5477 44.6509C44.911 43.9734 45.4054 43.4573 46.031 43.1027C46.6567 42.7452 47.363 42.5664 48.1501 42.5664C48.9315 42.5664 49.6349 42.7452 50.2606 43.1027C50.8891 43.4573 51.385 43.9734 51.7483 44.6509C52.1144 45.3284 52.2975 46.1501 52.2975 47.116ZM50.399 47.116C50.399 46.4903 50.3053 45.9627 50.1179 45.5331C49.9333 45.1036 49.6724 44.7778 49.3351 44.5558C48.9978 44.3338 48.6028 44.2228 48.1501 44.2228C47.6975 44.2228 47.3025 44.3338 46.9652 44.5558C46.6279 44.7778 46.3655 45.1036 46.1781 45.5331C45.9936 45.9627 45.9013 46.4903 45.9013 47.116C45.9013 47.7416 45.9936 48.2692 46.1781 48.6988C46.3655 49.1284 46.6279 49.4542 46.9652 49.6762C47.3025 49.8982 47.6975 50.0092 48.1501 50.0092C48.6028 50.0092 48.9978 49.8982 49.3351 49.6762C49.6724 49.4542 49.9333 49.1284 50.1179 48.6988C50.3053 48.2692 50.399 47.7416 50.399 47.116ZM53.2608 51.5444L53.2522 50.0827H53.4727C53.6284 50.0827 53.7625 50.0452 53.8749 49.9703C53.9902 49.8924 54.0854 49.767 54.1603 49.594C54.2353 49.421 54.2944 49.1918 54.3377 48.9064C54.3809 48.6181 54.4097 48.2635 54.4241 47.8425L54.5323 44.9017H59.5835V51.5444H57.8277V46.3505H56.1886L56.0848 48.3788C56.0589 48.9352 55.9911 49.4138 55.8816 49.8146C55.7749 50.2153 55.6264 50.544 55.4361 50.8006C55.2458 51.0543 55.0166 51.2417 54.7485 51.3628C54.4804 51.4839 54.169 51.5444 53.8144 51.5444H53.2608ZM64.039 51.6742C63.3557 51.6742 62.7675 51.5358 62.2745 51.259C61.7844 50.9793 61.4067 50.5844 61.1414 50.074C60.8762 49.5609 60.7436 48.954 60.7436 48.2534C60.7436 47.5701 60.8762 46.9704 61.1414 46.4543C61.4067 45.9382 61.7801 45.536 62.2615 45.2477C62.7459 44.9594 63.3139 44.8152 63.9655 44.8152C64.4037 44.8152 64.8116 44.8859 65.1893 45.0272C65.5699 45.1655 65.9015 45.3746 66.184 45.6542C66.4694 45.9339 66.6914 46.2856 66.85 46.7095C67.0086 47.1304 67.0879 47.6234 67.0879 48.1885V48.6945H61.4788V47.5528H65.3537C65.3537 47.2875 65.296 47.0525 65.1807 46.8478C65.0654 46.6431 64.9053 46.4831 64.7006 46.3678C64.4988 46.2496 64.2639 46.1905 63.9957 46.1905C63.7161 46.1905 63.4681 46.2554 63.2519 46.3851C63.0385 46.512 62.8713 46.6835 62.7502 46.8997C62.6291 47.1131 62.5671 47.3509 62.5643 47.6133V48.6988C62.5643 49.0275 62.6248 49.3115 62.7459 49.5508C62.8699 49.7901 63.0443 49.9746 63.2692 50.1043C63.4941 50.2341 63.7608 50.2989 64.0692 50.2989C64.2739 50.2989 64.4613 50.2701 64.6315 50.2124C64.8016 50.1548 64.9472 50.0683 65.0682 49.953C65.1893 49.8376 65.2816 49.6964 65.345 49.5291L67.0489 49.6416C66.9625 50.051 66.7851 50.4085 66.517 50.7141C66.2518 51.0168 65.9087 51.2532 65.4877 51.4233C65.0697 51.5906 64.5868 51.6742 64.039 51.6742ZM72.8397 44.9017V46.3505H70.0805V51.5444H68.2901V44.9017H72.8397Z" fill="white"/>
<path d="M12.7059 10.8181L36.8354 20.092C38.1486 20.5967 38.0602 22.4836 36.7056 22.8633L26.6844 25.6722C26.1932 25.8099 25.8093 26.1937 25.6716 26.6849L22.8627 36.7061C22.483 38.0607 20.5962 38.1492 20.0915 36.836L10.8175 12.7065C10.3633 11.5248 11.5242 10.3639 12.7059 10.8181Z" fill="black"/>
</svg>
