<svg width="654" height="276" viewBox="0 0 654 276" fill="none" xmlns="http://www.w3.org/2000/svg">
<g clip-path="url(#clip0_3347_2373)">
<rect width="654" height="276" rx="15" fill="#FF3DA8"/>
<path fill-rule="evenodd" clip-rule="evenodd" d="M423.982 46.0269C424.001 46.4606 424.001 46.9738 424.001 48C424.001 49.0262 424.001 49.5394 423.982 49.9731C423.532 60.2788 415.28 68.5311 404.974 68.9811C404.54 69 404.027 69 403.001 69H49.8569C47.0573 69 45.6574 69 44.4807 68.8593C41.6845 68.525 39.0699 67.6171 36.7571 66.2558C35.9107 66.7173 34.977 67.1585 34.0053 67.5032C29.5305 69.0904 18.0003 68.9991 18.0003 68.9991C18.0003 68.9991 24.2925 67.5032 26.6308 60.6862C27.0385 59.4977 27.3252 56.8021 27.5248 53.866C27.3325 53.0839 27.1861 52.2832 27.0885 51.4671C26.9478 50.2904 26.9478 48.8906 26.9478 46.0909C26.9478 43.7579 26.9478 42.5913 27.0651 41.6107C27.9734 34.0141 33.9619 28.0255 41.5585 27.1172C42.5392 27 43.7057 27 46.0388 27H403.001C404.027 27 404.54 27 404.974 27.0189C415.28 27.4689 423.532 35.7212 423.982 46.0269Z" fill="#FFA3D6"/>
<path d="M363.305 47.5455V57H362.16V48.7457H362.104L359.796 50.2784V49.1151L362.16 47.5455H363.305ZM368.792 57.1293C368.158 57.1293 367.598 57.0169 367.112 56.7923C366.628 56.5645 366.251 56.2521 365.981 55.8551C365.71 55.455 365.576 54.9995 365.579 54.4886C365.576 54.0885 365.654 53.7192 365.814 53.3807C365.974 53.0391 366.193 52.7544 366.47 52.5266C366.75 52.2958 367.062 52.1496 367.407 52.0881V52.0327C366.955 51.9157 366.595 51.6618 366.327 51.271C366.059 50.877 365.927 50.4292 365.93 49.9276C365.927 49.4474 366.048 49.0181 366.295 48.6396C366.541 48.261 366.879 47.9625 367.31 47.744C367.744 47.5254 368.238 47.4162 368.792 47.4162C369.34 47.4162 369.829 47.5254 370.26 47.744C370.691 47.9625 371.029 48.261 371.276 48.6396C371.525 49.0181 371.651 49.4474 371.654 49.9276C371.651 50.4292 371.514 50.877 371.243 51.271C370.976 51.6618 370.62 51.9157 370.177 52.0327V52.0881C370.519 52.1496 370.826 52.2958 371.1 52.5266C371.374 52.7544 371.593 53.0391 371.756 53.3807C371.919 53.7192 372.002 54.0885 372.005 54.4886C372.002 54.9995 371.864 55.455 371.59 55.8551C371.319 56.2521 370.942 56.5645 370.459 56.7923C369.978 57.0169 369.423 57.1293 368.792 57.1293ZM368.792 56.1136C369.22 56.1136 369.589 56.0444 369.9 55.9059C370.211 55.7674 370.451 55.572 370.62 55.3196C370.789 55.0672 370.876 54.7718 370.879 54.4332C370.876 54.0762 370.783 53.7608 370.602 53.4869C370.42 53.2129 370.172 52.9975 369.858 52.8406C369.548 52.6836 369.192 52.6051 368.792 52.6051C368.389 52.6051 368.029 52.6836 367.712 52.8406C367.398 52.9975 367.15 53.2129 366.969 53.4869C366.79 53.7608 366.702 54.0762 366.705 54.4332C366.702 54.7718 366.784 55.0672 366.95 55.3196C367.119 55.572 367.361 55.7674 367.675 55.9059C367.989 56.0444 368.361 56.1136 368.792 56.1136ZM368.792 51.6264C369.131 51.6264 369.431 51.5587 369.692 51.4233C369.957 51.2879 370.165 51.0986 370.315 50.8555C370.466 50.6123 370.543 50.3277 370.546 50.0014C370.543 49.6813 370.468 49.4028 370.32 49.1658C370.172 48.9258 369.968 48.7411 369.706 48.6119C369.444 48.4795 369.14 48.4134 368.792 48.4134C368.438 48.4134 368.129 48.4795 367.864 48.6119C367.599 48.7411 367.395 48.9258 367.25 49.1658C367.105 49.4028 367.035 49.6813 367.038 50.0014C367.035 50.3277 367.107 50.6123 367.255 50.8555C367.406 51.0986 367.613 51.2879 367.878 51.4233C368.143 51.5587 368.447 51.6264 368.792 51.6264ZM374.327 55.7905C374.099 55.7905 373.904 55.7089 373.741 55.5458C373.577 55.3827 373.496 55.1873 373.496 54.9595C373.496 54.7318 373.577 54.5363 373.741 54.3732C373.904 54.2101 374.099 54.1286 374.327 54.1286C374.555 54.1286 374.75 54.2101 374.913 54.3732C375.076 54.5363 375.158 54.7318 375.158 54.9595C375.158 55.1103 375.119 55.2488 375.042 55.375C374.969 55.5012 374.869 55.6027 374.742 55.6797C374.619 55.7536 374.481 55.7905 374.327 55.7905ZM374.327 51.0078C374.099 51.0078 373.904 50.9263 373.741 50.7631C373.577 50.6 373.496 50.4046 373.496 50.1768C373.496 49.9491 373.577 49.7537 373.741 49.5906C373.904 49.4274 374.099 49.3459 374.327 49.3459C374.555 49.3459 374.75 49.4274 374.913 49.5906C375.076 49.7537 375.158 49.9491 375.158 50.1768C375.158 50.3277 375.119 50.4661 375.042 50.5923C374.969 50.7185 374.869 50.8201 374.742 50.897C374.619 50.9709 374.481 51.0078 374.327 51.0078ZM379.789 57.1293C379.247 57.1293 378.76 57.0215 378.326 56.8061C377.892 56.5907 377.544 56.2952 377.282 55.9197C377.021 55.5443 376.878 55.1165 376.853 54.6364H377.961C378.004 55.0642 378.198 55.4181 378.543 55.6982C378.89 55.9751 379.306 56.1136 379.789 56.1136C380.177 56.1136 380.521 56.0228 380.823 55.8413C381.128 55.6597 381.366 55.4104 381.539 55.0934C381.714 54.7733 381.802 54.4117 381.802 54.0085C381.802 53.5961 381.711 53.2283 381.529 52.9052C381.351 52.579 381.105 52.322 380.791 52.1342C380.477 51.9465 380.118 51.8511 379.715 51.848C379.426 51.8449 379.129 51.8896 378.824 51.9819C378.519 52.0711 378.269 52.1866 378.072 52.3281L377.001 52.1989L377.573 47.5455H382.485V48.5611H378.533L378.201 51.3494H378.256C378.45 51.1955 378.693 51.0678 378.986 50.9663C379.278 50.8647 379.583 50.8139 379.9 50.8139C380.478 50.8139 380.994 50.9524 381.446 51.2294C381.902 51.5033 382.259 51.8788 382.517 52.3558C382.779 52.8329 382.91 53.3776 382.91 53.9901C382.91 54.5933 382.774 55.1319 382.503 55.6058C382.236 56.0767 381.866 56.4491 381.396 56.723C380.925 56.9938 380.389 57.1293 379.789 57.1293ZM387.623 57.1293C387.235 57.1231 386.847 57.0492 386.459 56.9077C386.072 56.7661 385.718 56.5276 385.398 56.1921C385.078 55.8536 384.821 55.3965 384.627 54.821C384.433 54.2424 384.336 53.5161 384.336 52.642C384.336 51.8049 384.414 51.0632 384.571 50.4169C384.728 49.7675 384.956 49.2212 385.255 48.7781C385.553 48.3318 385.913 47.9933 386.335 47.7624C386.76 47.5316 387.238 47.4162 387.771 47.4162C388.3 47.4162 388.771 47.5224 389.183 47.7347C389.599 47.944 389.937 48.2364 390.199 48.6119C390.46 48.9873 390.63 49.4197 390.707 49.9091H389.58C389.476 49.4844 389.272 49.132 388.971 48.8519C388.669 48.5719 388.269 48.4318 387.771 48.4318C387.038 48.4318 386.461 48.7504 386.039 49.3874C385.621 50.0245 385.41 50.9186 385.407 52.0696H385.481C385.653 51.808 385.858 51.5849 386.095 51.4002C386.335 51.2125 386.599 51.0678 386.889 50.9663C387.178 50.8647 387.484 50.8139 387.807 50.8139C388.349 50.8139 388.845 50.9493 389.294 51.2202C389.743 51.4879 390.103 51.8588 390.374 52.3327C390.645 52.8036 390.78 53.3438 390.78 53.9531C390.78 54.5379 390.65 55.0734 390.388 55.5597C390.126 56.0429 389.759 56.4276 389.285 56.7138C388.814 56.9969 388.26 57.1354 387.623 57.1293ZM387.623 56.1136C388.011 56.1136 388.358 56.0167 388.666 55.8228C388.977 55.6289 389.222 55.3688 389.4 55.0426C389.582 54.7164 389.673 54.3532 389.673 53.9531C389.673 53.5623 389.585 53.2068 389.409 52.8867C389.237 52.5636 388.999 52.3066 388.694 52.1158C388.392 51.925 388.048 51.8295 387.66 51.8295C387.367 51.8295 387.095 51.888 386.843 52.005C386.59 52.1188 386.369 52.2758 386.178 52.4759C385.99 52.6759 385.842 52.9052 385.735 53.1637C385.627 53.4192 385.573 53.6884 385.573 53.9716C385.573 54.3471 385.661 54.6979 385.836 55.0241C386.015 55.3504 386.258 55.6135 386.566 55.8136C386.876 56.0136 387.229 56.1136 387.623 56.1136Z" fill="#FF3DA8"/>
<path d="M53.2705 55L48.2705 48.3239H46.4807V55H44.7194V40.4545H46.4807V46.7614H47.2478L53.0716 40.4545H55.1739L49.2932 46.8466L55.3728 55H53.2705ZM60.632 55.2557C59.9407 55.2557 59.3134 55.1255 58.7499 54.8651C58.1865 54.5999 57.739 54.2188 57.4076 53.7216C57.0761 53.2197 56.9104 52.6136 56.9104 51.9034C56.9104 51.2784 57.0335 50.7718 57.2797 50.3835C57.526 49.9905 57.855 49.6828 58.267 49.4602C58.6789 49.2377 59.1334 49.072 59.6306 48.9631C60.1325 48.8494 60.6367 48.7595 61.1434 48.6932C61.8063 48.608 62.3437 48.544 62.7556 48.5014C63.1723 48.4541 63.4753 48.3759 63.6647 48.267C63.8588 48.1581 63.9559 47.9687 63.9559 47.6989V47.642C63.9559 46.9413 63.7641 46.3968 63.3806 46.0085C63.0018 45.6203 62.4265 45.4261 61.6547 45.4261C60.8546 45.4261 60.2272 45.6013 59.7726 45.9517C59.3181 46.3021 58.9985 46.6761 58.8138 47.0739L57.2229 46.5057C57.507 45.8428 57.8858 45.3267 58.3593 44.9574C58.8375 44.5833 59.3583 44.3229 59.9218 44.1761C60.49 44.0246 61.0487 43.9489 61.5979 43.9489C61.9483 43.9489 62.3508 43.9915 62.8053 44.0767C63.2646 44.1572 63.7073 44.3253 64.1334 44.581C64.5643 44.8366 64.9218 45.2225 65.2059 45.7386C65.49 46.2547 65.632 46.946 65.632 47.8125V55H63.9559V53.5227H63.8707C63.757 53.7595 63.5676 54.0128 63.3025 54.2827C63.0373 54.5526 62.6846 54.7822 62.2442 54.9716C61.8039 55.161 61.2665 55.2557 60.632 55.2557ZM60.8877 53.75C61.5506 53.75 62.1093 53.6198 62.5638 53.3594C63.0231 53.099 63.3688 52.7628 63.6008 52.3509C63.8375 51.9389 63.9559 51.5057 63.9559 51.0511V49.517C63.8849 49.6023 63.7286 49.6804 63.4871 49.7514C63.2504 49.8177 62.9758 49.8769 62.6633 49.929C62.3555 49.9763 62.0548 50.0189 61.7613 50.0568C61.4724 50.09 61.2381 50.1184 61.0582 50.142C60.6225 50.1989 60.2153 50.2912 59.8366 50.419C59.4625 50.5421 59.1595 50.7292 58.9275 50.9801C58.7002 51.2263 58.5866 51.5625 58.5866 51.9886C58.5866 52.571 58.802 53.0114 59.2329 53.3097C59.6685 53.6032 60.2201 53.75 60.8877 53.75ZM68.6913 55V44.0909H70.3675V48.8352H71.4754L75.3959 44.0909H77.555L73.1515 49.3466L77.6118 55H75.4527L71.8731 50.3977H70.3675V55H68.6913ZM92.3596 48.7784V50.3409H86.3369V48.7784H92.3596ZM86.7346 44.0909V55H85.0585V44.0909H86.7346ZM93.6381 44.0909V55H91.9619V44.0909H93.6381ZM99.9094 55.2557C99.2181 55.2557 98.5907 55.1255 98.0273 54.8651C97.4638 54.5999 97.0164 54.2188 96.6849 53.7216C96.3535 53.2197 96.1878 52.6136 96.1878 51.9034C96.1878 51.2784 96.3109 50.7718 96.5571 50.3835C96.8033 49.9905 97.1324 49.6828 97.5443 49.4602C97.9562 49.2377 98.4108 49.072 98.9079 48.9631C99.4098 48.8494 99.9141 48.7595 100.421 48.6932C101.084 48.608 101.621 48.544 102.033 48.5014C102.45 48.4541 102.753 48.3759 102.942 48.267C103.136 48.1581 103.233 47.9687 103.233 47.6989V47.642C103.233 46.9413 103.041 46.3968 102.658 46.0085C102.279 45.6203 101.704 45.4261 100.932 45.4261C100.132 45.4261 99.5045 45.6013 99.05 45.9517C98.5954 46.3021 98.2758 46.6761 98.0912 47.0739L96.5003 46.5057C96.7844 45.8428 97.1631 45.3267 97.6366 44.9574C98.1148 44.5833 98.6357 44.3229 99.1991 44.1761C99.7673 44.0246 100.326 43.9489 100.875 43.9489C101.226 43.9489 101.628 43.9915 102.083 44.0767C102.542 44.1572 102.985 44.3253 103.411 44.581C103.842 44.8366 104.199 45.2225 104.483 45.7386C104.767 46.2547 104.909 46.946 104.909 47.8125V55H103.233V53.5227H103.148C103.034 53.7595 102.845 54.0128 102.58 54.2827C102.315 54.5526 101.962 54.7822 101.522 54.9716C101.081 55.161 100.544 55.2557 99.9094 55.2557ZM100.165 53.75C100.828 53.75 101.387 53.6198 101.841 53.3594C102.3 53.099 102.646 52.7628 102.878 52.3509C103.115 51.9389 103.233 51.5057 103.233 51.0511V49.517C103.162 49.6023 103.006 49.6804 102.764 49.7514C102.528 49.8177 102.253 49.8769 101.941 49.929C101.633 49.9763 101.332 50.0189 101.039 50.0568C100.75 50.09 100.515 50.1184 100.335 50.142C99.8999 50.1989 99.4927 50.2912 99.1139 50.419C98.7398 50.5421 98.4368 50.7292 98.2048 50.9801C97.9775 51.2263 97.8639 51.5625 97.8639 51.9886C97.8639 52.571 98.0793 53.0114 98.5102 53.3097C98.9458 53.6032 99.4974 53.75 100.165 53.75ZM109.219 44.0909L111.832 48.5511L114.446 44.0909H116.378L112.855 49.5455L116.378 55H114.446L111.832 50.767L109.219 55H107.287L110.753 49.5455L107.287 44.0909H109.219ZM122.752 55.2273C121.767 55.2273 120.903 54.9929 120.16 54.5241C119.421 54.0554 118.843 53.3996 118.427 52.5568C118.015 51.714 117.809 50.7292 117.809 49.6023C117.809 48.4659 118.015 47.474 118.427 46.6264C118.843 45.7789 119.421 45.1207 120.16 44.652C120.903 44.1832 121.767 43.9489 122.752 43.9489C123.737 43.9489 124.599 44.1832 125.337 44.652C126.081 45.1207 126.658 45.7789 127.07 46.6264C127.487 47.474 127.695 48.4659 127.695 49.6023C127.695 50.7292 127.487 51.714 127.07 52.5568C126.658 53.3996 126.081 54.0554 125.337 54.5241C124.599 54.9929 123.737 55.2273 122.752 55.2273ZM122.752 53.7216C123.5 53.7216 124.116 53.5298 124.599 53.1463C125.082 52.7628 125.439 52.2585 125.671 51.6335C125.903 51.0085 126.019 50.3314 126.019 49.6023C126.019 48.8731 125.903 48.1937 125.671 47.5639C125.439 46.9342 125.082 46.4252 124.599 46.0369C124.116 45.6487 123.5 45.4545 122.752 45.4545C122.004 45.4545 121.388 45.6487 120.905 46.0369C120.422 46.4252 120.065 46.9342 119.833 47.5639C119.601 48.1937 119.485 48.8731 119.485 49.6023C119.485 50.3314 119.601 51.0085 119.833 51.6335C120.065 52.2585 120.422 52.7628 120.905 53.1463C121.388 53.5298 122.004 53.7216 122.752 53.7216ZM129.089 58.125V53.4375H129.998C130.221 53.2055 130.412 52.9545 130.573 52.6847C130.734 52.4148 130.874 52.0952 130.992 51.7259C131.116 51.3518 131.22 50.8973 131.305 50.3622C131.39 49.8224 131.466 49.1714 131.532 48.4091L131.902 44.0909H138.833V53.4375H140.509V58.125H138.833V55H130.765V58.125H129.089ZM131.902 53.4375H137.157V45.6534H133.464L133.18 48.4091C133.062 49.5502 132.915 50.5469 132.74 51.3991C132.564 52.2514 132.285 52.9309 131.902 53.4375ZM144.41 52.5284L149.666 44.0909H151.598V55H149.922V46.5625L144.695 55H142.734V44.0909H144.41V52.5284ZM153.184 45.6534V44.0909H162.047V45.6534H158.468V55H156.791V45.6534H153.184ZM168.5 55.2273C167.448 55.2273 166.542 54.9953 165.779 54.5312C165.022 54.0625 164.437 53.4091 164.025 52.571C163.618 51.7282 163.414 50.7481 163.414 49.6307C163.414 48.5133 163.618 47.5284 164.025 46.6761C164.437 45.8191 165.01 45.1515 165.744 44.6733C166.483 44.1903 167.344 43.9489 168.329 43.9489C168.897 43.9489 169.458 44.0436 170.012 44.233C170.566 44.4223 171.071 44.7301 171.525 45.1562C171.98 45.5777 172.342 46.1364 172.612 46.8324C172.882 47.5284 173.017 48.3854 173.017 49.4034V50.1136H164.608V48.6648H171.312C171.312 48.0492 171.189 47.5 170.943 47.017C170.701 46.5341 170.356 46.1529 169.906 45.8736C169.461 45.5942 168.935 45.4545 168.329 45.4545C167.661 45.4545 167.084 45.6203 166.596 45.9517C166.113 46.2784 165.742 46.7045 165.481 47.2301C165.221 47.7557 165.09 48.3191 165.09 48.9205V49.8864C165.09 50.7102 165.233 51.4086 165.517 51.9815C165.805 52.5497 166.206 52.983 166.717 53.2812C167.228 53.5748 167.822 53.7216 168.5 53.7216C168.94 53.7216 169.338 53.66 169.693 53.5369C170.053 53.4091 170.363 53.2197 170.623 52.9688C170.884 52.7131 171.085 52.3958 171.227 52.017L172.846 52.4716C172.676 53.0208 172.389 53.5038 171.987 53.9205C171.584 54.3324 171.087 54.6544 170.495 54.8864C169.903 55.1136 169.238 55.2273 168.5 55.2273ZM182.867 52.5284L188.123 44.0909H190.055V55H188.379V46.5625L183.152 55H181.191V44.0909H182.867V52.5284ZM200.426 48.7784V50.3409H194.403V48.7784H200.426ZM194.801 44.0909V55H193.125V44.0909H194.801ZM201.704 44.0909V55H200.028V44.0909H201.704ZM209.197 58.7216V40.4545H210.873V58.7216H209.197ZM209.197 55.2273C208.459 55.2273 207.786 55.0947 207.18 54.8295C206.574 54.5597 206.053 54.1785 205.618 53.6861C205.182 53.1889 204.846 52.5947 204.609 51.9034C204.373 51.2121 204.254 50.4451 204.254 49.6023C204.254 48.75 204.373 47.9782 204.609 47.2869C204.846 46.5909 205.182 45.9943 205.618 45.4972C206.053 45 206.574 44.6188 207.18 44.3537C207.786 44.0838 208.459 43.9489 209.197 43.9489H209.709V55.2273H209.197ZM209.197 53.7216H209.481V45.4545H209.197C208.639 45.4545 208.153 45.5682 207.741 45.7955C207.329 46.018 206.989 46.3234 206.719 46.7116C206.454 47.0952 206.255 47.5355 206.122 48.0327C205.994 48.5298 205.93 49.053 205.93 49.6023C205.93 50.3314 206.046 51.0085 206.278 51.6335C206.51 52.2585 206.868 52.7628 207.351 53.1463C207.834 53.5298 208.449 53.7216 209.197 53.7216ZM210.873 55.2273H210.362V43.9489H210.873C211.612 43.9489 212.284 44.0838 212.891 44.3537C213.497 44.6188 214.017 45 214.453 45.4972C214.889 45.9943 215.225 46.5909 215.462 47.2869C215.698 47.9782 215.817 48.75 215.817 49.6023C215.817 50.4451 215.698 51.2121 215.462 51.9034C215.225 52.5947 214.889 53.1889 214.453 53.6861C214.017 54.1785 213.497 54.5597 212.891 54.8295C212.284 55.0947 211.612 55.2273 210.873 55.2273ZM210.873 53.7216C211.437 53.7216 211.922 53.6127 212.329 53.3949C212.741 53.1723 213.08 52.8693 213.345 52.4858C213.615 52.0975 213.814 51.6572 213.942 51.1648C214.074 50.6676 214.141 50.1468 214.141 49.6023C214.141 48.8731 214.025 48.1937 213.793 47.5639C213.561 46.9342 213.203 46.4252 212.72 46.0369C212.237 45.6487 211.622 45.4545 210.873 45.4545H210.589V53.7216H210.873ZM219.068 59.0909C218.784 59.0909 218.53 59.0672 218.308 59.0199C218.085 58.9773 217.931 58.9347 217.846 58.892L218.272 57.4148C218.679 57.5189 219.039 57.5568 219.352 57.5284C219.664 57.5 219.941 57.3603 220.183 57.1094C220.429 56.8632 220.654 56.4631 220.858 55.9091L221.17 55.0568L217.136 44.0909H218.954L221.965 52.7841H222.079L225.09 44.0909H226.909L222.278 56.5909C222.07 57.1544 221.812 57.6207 221.504 57.9901C221.196 58.3641 220.839 58.6411 220.431 58.821C220.029 59.0009 219.574 59.0909 219.068 59.0909ZM233.581 58.125V53.4375H234.49C234.713 53.2055 234.905 52.9545 235.066 52.6847C235.227 52.4148 235.366 52.0952 235.485 51.7259C235.608 51.3518 235.712 50.8973 235.797 50.3622C235.882 49.8224 235.958 49.1714 236.024 48.4091L236.394 44.0909H243.326V53.4375H245.002V58.125H243.326V55H235.257V58.125H233.581ZM236.394 53.4375H241.649V45.6534H237.956L237.672 48.4091C237.554 49.5502 237.407 50.5469 237.232 51.3991C237.057 52.2514 236.777 52.9309 236.394 53.4375ZM246.261 55V53.4375H246.658C246.985 53.4375 247.257 53.3736 247.475 53.2457C247.693 53.1132 247.868 52.8835 248.001 52.5568C248.138 52.2254 248.242 51.7661 248.313 51.179C248.389 50.5871 248.443 49.8343 248.476 48.9205L248.675 44.0909H255.948V55H254.272V45.6534H250.266L250.096 49.5455C250.058 50.4403 249.977 51.2287 249.854 51.9105C249.736 52.5876 249.554 53.1558 249.307 53.6151C249.066 54.0743 248.744 54.42 248.342 54.652C247.939 54.884 247.435 55 246.829 55H246.261ZM265.586 55V45.625H262.688C262.035 45.625 261.521 45.7765 261.147 46.0795C260.773 46.3826 260.586 46.7992 260.586 47.3295C260.586 47.8504 260.754 48.2599 261.09 48.5582C261.431 48.8565 261.897 49.0057 262.489 49.0057H266.012V50.5682H262.489C261.751 50.5682 261.114 50.438 260.579 50.1776C260.044 49.9171 259.632 49.5455 259.343 49.0625C259.054 48.5748 258.91 47.9972 258.91 47.3295C258.91 46.6572 259.061 46.0795 259.364 45.5966C259.667 45.1136 260.101 44.742 260.664 44.4815C261.232 44.2211 261.907 44.0909 262.688 44.0909H267.177V55H265.586ZM258.313 55L261.41 49.5739H263.228L260.131 55H258.313ZM280.311 55.2273C279.288 55.2273 278.407 54.9858 277.669 54.5028C276.93 54.0199 276.362 53.3546 275.964 52.5071C275.566 51.6596 275.367 50.6913 275.367 49.6023C275.367 48.4943 275.571 47.5166 275.978 46.669C276.39 45.8168 276.963 45.1515 277.697 44.6733C278.436 44.1903 279.297 43.9489 280.282 43.9489C281.049 43.9489 281.741 44.0909 282.356 44.375C282.972 44.6591 283.476 45.0568 283.869 45.5682C284.262 46.0795 284.506 46.6761 284.6 47.358H282.924C282.796 46.8608 282.512 46.4205 282.072 46.0369C281.636 45.6487 281.049 45.4545 280.311 45.4545C279.657 45.4545 279.084 45.625 278.592 45.9659C278.104 46.3021 277.723 46.7779 277.448 47.3935C277.179 48.0043 277.044 48.7216 277.044 49.5455C277.044 50.3883 277.176 51.1222 277.441 51.7472C277.711 52.3722 278.09 52.8575 278.578 53.2031C279.07 53.5488 279.648 53.7216 280.311 53.7216C280.746 53.7216 281.142 53.6458 281.497 53.4943C281.852 53.3428 282.152 53.125 282.399 52.8409C282.645 52.5568 282.82 52.2159 282.924 51.8182H284.6C284.506 52.4621 284.271 53.0421 283.897 53.5582C283.528 54.0696 283.038 54.4768 282.427 54.7798C281.821 55.0781 281.116 55.2273 280.311 55.2273ZM286.191 45.6534V44.0909H295.055V45.6534H291.475V55H289.799V45.6534H286.191ZM300.144 55.2557C299.452 55.2557 298.825 55.1255 298.262 54.8651C297.698 54.5999 297.251 54.2188 296.919 53.7216C296.588 53.2197 296.422 52.6136 296.422 51.9034C296.422 51.2784 296.545 50.7718 296.791 50.3835C297.038 49.9905 297.367 49.6828 297.779 49.4602C298.191 49.2377 298.645 49.072 299.142 48.9631C299.644 48.8494 300.148 48.7595 300.655 48.6932C301.318 48.608 301.855 48.544 302.267 48.5014C302.684 48.4541 302.987 48.3759 303.176 48.267C303.371 48.1581 303.468 47.9687 303.468 47.6989V47.642C303.468 46.9413 303.276 46.3968 302.892 46.0085C302.514 45.6203 301.938 45.4261 301.166 45.4261C300.366 45.4261 299.739 45.6013 299.284 45.9517C298.83 46.3021 298.51 46.6761 298.326 47.0739L296.735 46.5057C297.019 45.8428 297.398 45.3267 297.871 44.9574C298.349 44.5833 298.87 44.3229 299.434 44.1761C300.002 44.0246 300.56 43.9489 301.11 43.9489C301.46 43.9489 301.862 43.9915 302.317 44.0767C302.776 44.1572 303.219 44.3253 303.645 44.581C304.076 44.8366 304.434 45.2225 304.718 45.7386C305.002 46.2547 305.144 46.946 305.144 47.8125V55H303.468V53.5227H303.382C303.269 53.7595 303.079 54.0128 302.814 54.2827C302.549 54.5526 302.196 54.7822 301.756 54.9716C301.316 55.161 300.778 55.2557 300.144 55.2557ZM300.399 53.75C301.062 53.75 301.621 53.6198 302.076 53.3594C302.535 53.099 302.88 52.7628 303.112 52.3509C303.349 51.9389 303.468 51.5057 303.468 51.0511V49.517C303.397 49.6023 303.24 49.6804 302.999 49.7514C302.762 49.8177 302.487 49.8769 302.175 49.929C301.867 49.9763 301.567 50.0189 301.273 50.0568C300.984 50.09 300.75 50.1184 300.57 50.142C300.134 50.1989 299.727 50.2912 299.348 50.419C298.974 50.5421 298.671 50.7292 298.439 50.9801C298.212 51.2263 298.098 51.5625 298.098 51.9886C298.098 52.571 298.314 53.0114 298.745 53.3097C299.18 53.6032 299.732 53.75 300.399 53.75ZM306.719 45.6534V44.0909H315.582V45.6534H312.003V55H310.327V45.6534H306.719ZM322.035 55.2273C320.984 55.2273 320.077 54.9953 319.315 54.5312C318.557 54.0625 317.972 53.4091 317.56 52.571C317.153 51.7282 316.949 50.7481 316.949 49.6307C316.949 48.5133 317.153 47.5284 317.56 46.6761C317.972 45.8191 318.545 45.1515 319.279 44.6733C320.018 44.1903 320.879 43.9489 321.864 43.9489C322.432 43.9489 322.994 44.0436 323.547 44.233C324.101 44.4223 324.606 44.7301 325.06 45.1562C325.515 45.5777 325.877 46.1364 326.147 46.8324C326.417 47.5284 326.552 48.3854 326.552 49.4034V50.1136H318.143V48.6648H324.847C324.847 48.0492 324.724 47.5 324.478 47.017C324.236 46.5341 323.891 46.1529 323.441 45.8736C322.996 45.5942 322.47 45.4545 321.864 45.4545C321.197 45.4545 320.619 45.6203 320.131 45.9517C319.648 46.2784 319.277 46.7045 319.016 47.2301C318.756 47.7557 318.626 48.3191 318.626 48.9205V49.8864C318.626 50.7102 318.768 51.4086 319.052 51.9815C319.341 52.5497 319.741 52.983 320.252 53.2812C320.763 53.5748 321.358 53.7216 322.035 53.7216C322.475 53.7216 322.873 53.66 323.228 53.5369C323.588 53.4091 323.898 53.2197 324.158 52.9688C324.419 52.7131 324.62 52.3958 324.762 52.017L326.381 52.4716C326.211 53.0208 325.924 53.5038 325.522 53.9205C325.119 54.3324 324.622 54.6544 324.03 54.8864C323.439 55.1136 322.773 55.2273 322.035 55.2273ZM330.778 52.5284L336.033 44.0909H337.965V55H336.289V46.5625L331.062 55H329.101V44.0909H330.778V52.5284ZM334.925 40.4545H336.488C336.488 41.2216 336.223 41.849 335.692 42.3366C335.162 42.8243 334.442 43.0682 333.533 43.0682C332.638 43.0682 331.926 42.8243 331.396 42.3366C330.87 41.849 330.607 41.2216 330.607 40.4545H332.17C332.17 40.8239 332.271 41.1482 332.475 41.4276C332.683 41.7069 333.036 41.8466 333.533 41.8466C334.03 41.8466 334.386 41.7069 334.599 41.4276C334.816 41.1482 334.925 40.8239 334.925 40.4545ZM343.223 50.9091V50.8239C343.232 49.9195 343.327 49.1998 343.507 48.6648C343.687 48.1297 343.942 47.6965 344.274 47.3651C344.605 47.0336 345.003 46.7282 345.467 46.4489C345.746 46.2784 345.997 46.0772 346.22 45.8452C346.442 45.6084 346.617 45.3362 346.745 45.0284C346.878 44.7206 346.944 44.3797 346.944 44.0057C346.944 43.5417 346.835 43.1392 346.617 42.7983C346.4 42.4574 346.108 42.1946 345.744 42.0099C345.379 41.8253 344.974 41.733 344.529 41.733C344.141 41.733 343.767 41.8134 343.407 41.9744C343.047 42.1354 342.747 42.3887 342.505 42.7344C342.264 43.08 342.124 43.5322 342.086 44.0909H340.296C340.334 43.286 340.543 42.5971 340.921 42.0241C341.305 41.4512 341.809 41.0133 342.434 40.7102C343.064 40.4072 343.762 40.2557 344.529 40.2557C345.363 40.2557 346.087 40.4214 346.703 40.7528C347.323 41.0843 347.801 41.5388 348.137 42.1165C348.478 42.6941 348.649 43.3523 348.649 44.0909C348.649 44.6117 348.568 45.0829 348.407 45.5043C348.251 45.9257 348.024 46.3021 347.725 46.6335C347.432 46.965 347.077 47.2585 346.66 47.5142C346.243 47.7746 345.91 48.0492 345.659 48.3381C345.408 48.6222 345.225 48.9607 345.112 49.3537C344.998 49.7467 344.937 50.2367 344.927 50.8239V50.9091H343.223ZM344.132 55.1136C343.781 55.1136 343.481 54.9882 343.23 54.7372C342.979 54.4863 342.853 54.1856 342.853 53.8352C342.853 53.4848 342.979 53.1842 343.23 52.9332C343.481 52.6823 343.781 52.5568 344.132 52.5568C344.482 52.5568 344.783 52.6823 345.034 52.9332C345.285 53.1842 345.41 53.4848 345.41 53.8352C345.41 54.0672 345.351 54.2803 345.233 54.4744C345.119 54.6686 344.965 54.8248 344.771 54.9432C344.581 55.0568 344.368 55.1136 344.132 55.1136Z" fill="white"/>
<path fill-rule="evenodd" clip-rule="evenodd" d="M408.901 47.353C409.128 47.5726 409.135 47.9349 408.915 48.1623L400.007 57.3885C399.896 57.503 399.743 57.5663 399.584 57.5632C399.425 57.5601 399.274 57.4909 399.168 57.3722L395.191 52.9181C394.981 52.6823 395.001 52.3205 395.237 52.1099C395.473 51.8994 395.835 51.9199 396.045 52.1557L399.612 56.15L408.092 47.3672C408.311 47.1398 408.673 47.1334 408.901 47.353Z" fill="#FF3DA8"/>
<path fill-rule="evenodd" clip-rule="evenodd" d="M411.901 47.353C412.128 47.5726 412.135 47.9349 411.915 48.1623L403.007 57.3885C402.896 57.503 402.743 57.5663 402.584 57.5632C402.425 57.5601 402.274 57.4909 402.168 57.3722L398.191 52.9181C397.981 52.6823 398.001 52.3205 398.237 52.1099C398.473 51.8994 398.835 51.9199 399.045 52.1557L402.612 56.15L411.092 47.3672C411.311 47.1398 411.673 47.1334 411.901 47.353Z" fill="#FF3DA8"/>
</g>
<defs>
<clipPath id="clip0_3347_2373">
<rect width="654" height="276" rx="15" fill="white"/>
</clipPath>
</defs>
</svg>
