<svg width="394" height="140" viewBox="0 0 394 140" fill="none" xmlns="http://www.w3.org/2000/svg">
<path d="M43.7389 126.468C37.0368 126.468 31.0197 125.196 25.6874 122.652C20.404 120.059 16.1724 116.512 12.9926 112.012C9.81281 107.462 8.12506 102.301 7.92938 96.5285H23.9263C24.3176 101.176 26.3967 105.016 30.1636 108.049C33.9304 111.082 38.4555 112.599 43.7389 112.599C47.946 112.599 51.6639 111.62 54.8927 109.664C58.1214 107.707 60.6652 105.041 62.5242 101.665C64.3832 98.2407 65.3126 94.3271 65.3126 89.9243C65.3126 85.5215 64.3587 81.5834 62.4508 78.1101C60.5429 74.5879 57.9012 71.8239 54.5258 69.8181C51.1992 67.8124 47.359 66.8096 43.0051 66.8096C39.6785 66.8096 36.352 67.3966 33.0254 68.5707C29.6988 69.6958 27.0082 71.1635 24.9536 72.9735L9.76389 70.7721L15.9278 15.6636H76.0261V29.826H29.7233L26.2744 60.4255H26.8615C28.965 58.3219 31.7779 56.6097 35.3002 55.2889C38.8713 53.9191 42.7116 53.2342 46.8208 53.2342C53.474 53.2342 59.3933 54.8241 64.5788 58.004C69.8133 61.1348 73.9226 65.4398 76.9067 70.9189C79.8908 76.349 81.3829 82.5863 81.3829 89.6308C81.3829 96.7242 79.7685 103.059 76.5398 108.636C73.3111 114.164 68.8593 118.518 63.1846 121.698C57.5588 124.878 51.0769 126.468 43.7389 126.468Z" fill="#952AFF"/>
<path fill-rule="evenodd" clip-rule="evenodd" d="M269.058 70.5959C269.638 67.2493 269.928 63.7447 269.928 60.0818C269.928 49.7646 267.563 40.5937 262.835 32.5691C258.106 24.6879 251.514 18.4546 243.06 13.8691C234.605 9.42695 224.79 7.20587 213.613 7.20587C202.436 7.20587 192.62 9.42695 184.165 13.8691C175.711 18.4546 169.119 24.6879 164.391 32.5691C159.662 40.5937 157.298 49.7646 157.298 60.0818C157.298 63.7447 157.588 67.2493 158.167 70.5959L174.335 70.5959C173.437 67.3253 172.988 63.8207 172.988 60.0818C172.988 52.9171 174.636 46.5404 177.932 40.9519C181.371 35.5067 186.1 31.2078 192.118 28.0553C198.28 24.9028 205.445 23.3266 213.613 23.3266C221.924 23.3266 229.089 24.9028 235.107 28.0553C241.125 31.2078 245.782 35.5067 249.078 40.9519C252.517 46.5404 254.237 52.9171 254.237 60.0818C254.237 63.8207 253.769 67.3253 252.832 70.5959L269.058 70.5959Z" fill="#952AFF"/>
<path fill-rule="evenodd" clip-rule="evenodd" d="M97.8196 67.8275C97.2776 71.0735 97.0065 74.4673 97.0065 78.0089C97.0065 88.3262 99.3709 97.4971 104.1 105.522C108.828 113.403 115.42 119.636 123.874 124.222C132.329 128.664 142.145 130.885 153.322 130.885C164.499 130.885 174.314 128.664 182.769 124.222C191.223 119.636 197.815 113.403 202.544 105.522C207.272 97.4971 209.637 88.3262 209.637 78.0089C209.637 74.4673 209.366 71.0735 208.824 67.8275L192.689 67.8275C193.527 71.0028 193.946 74.3966 193.946 78.0089C193.946 85.1737 192.298 91.5503 189.002 97.1388C185.563 102.584 180.834 106.883 174.816 110.035C168.654 113.188 161.489 114.764 153.322 114.764C145.01 114.764 137.846 113.188 131.827 110.035C125.809 106.883 121.152 102.584 117.856 97.1388C114.417 91.5503 112.697 85.1737 112.697 78.0089C112.697 74.3966 113.134 71.0028 114.009 67.8275L97.8196 67.8275Z" fill="#952AFF"/>
<path fill-rule="evenodd" clip-rule="evenodd" d="M392.149 70.5545C392.729 67.208 393.019 63.7033 393.019 60.0405C393.019 49.7232 390.654 40.5523 385.925 32.5278C381.197 24.6465 374.605 18.4132 366.151 13.8277C357.696 9.38557 347.881 7.16449 336.703 7.16449C325.526 7.16449 315.711 9.38557 307.256 13.8277C298.802 18.4132 292.21 24.6465 287.482 32.5278C282.753 40.5523 280.388 49.7232 280.388 60.0405C280.388 63.7033 280.678 67.208 281.258 70.5545L297.425 70.5545C296.528 67.284 296.079 63.7793 296.079 60.0405C296.079 52.8757 297.727 46.4991 301.023 40.9105C304.462 35.4653 309.191 31.1665 315.209 28.014C321.371 24.8615 328.536 23.2852 336.703 23.2852C345.015 23.2852 352.179 24.8615 358.198 28.014C364.216 31.1665 368.873 35.4653 372.169 40.9105C375.608 46.4991 377.328 52.8757 377.328 60.0405C377.328 63.7793 376.859 67.284 375.923 70.5545L392.149 70.5545Z" fill="#952AFF"/>
<path fill-rule="evenodd" clip-rule="evenodd" d="M220.239 67.7463C219.659 71.093 219.369 74.5977 219.369 78.2606C219.369 88.5779 221.734 97.7488 226.462 105.773C231.191 113.655 237.783 119.888 246.237 124.473C254.691 128.916 264.507 131.137 275.684 131.137C286.861 131.137 296.677 128.916 305.131 124.473C313.586 119.888 320.177 113.655 324.906 105.773C329.635 97.7488 331.999 88.5779 331.999 78.2606C331.999 74.5977 331.709 71.0929 331.13 67.7463H314.962C315.86 71.0169 316.308 74.5217 316.308 78.2606C316.308 85.4254 314.661 91.802 311.365 97.3905C307.926 102.836 303.197 107.135 297.179 110.287C291.017 113.44 283.852 115.016 275.684 115.016C267.373 115.016 260.208 113.44 254.19 110.287C248.172 107.135 243.514 102.836 240.219 97.3905C236.78 91.802 235.06 85.4254 235.06 78.2606C235.06 74.5217 235.528 71.0169 236.465 67.7463H220.239Z" fill="#952AFF"/>
</svg>
