<svg width="425" height="276" viewBox="0 0 425 276" fill="none" xmlns="http://www.w3.org/2000/svg">
<g clip-path="url(#clip0_3347_2360)">
<rect width="425" height="276" rx="15" fill="white"/>
<path opacity="0.8" fill-rule="evenodd" clip-rule="evenodd" d="M337.14 37.5307C339.309 41.7864 339.309 47.3575 339.309 58.4995V81.8364C339.309 92.9785 339.309 98.5495 337.14 102.805C335.233 106.549 332.189 109.592 328.446 111.5C324.19 113.668 318.619 113.668 307.477 113.668H55.1402C43.9981 113.668 38.427 113.668 34.1713 111.5C32.6043 110.701 31.1599 109.704 29.8702 108.539C29.1998 109.645 28.3738 110.822 27.4953 111.648C24.8406 114.142 18.0004 113.999 18.0004 113.999C18.0004 113.999 21.7332 111.648 23.1204 100.936C23.2894 99.6305 23.4234 97.1692 23.5291 94.2306C23.3086 91.0246 23.3086 87.0374 23.3086 81.8364V53.1943C23.3086 43.9092 23.3086 39.2667 25.1156 35.7202C26.7051 32.6007 29.2413 30.0644 32.3609 28.475C35.9073 26.668 40.5498 26.668 49.8349 26.668L307.477 26.668C318.619 26.668 324.19 26.668 328.446 28.8364C332.189 30.7437 335.233 33.7872 337.14 37.5307Z" fill="#D4C5FF"/>
<path d="M44.7194 55V40.4545H53.4978V42.017H46.4807V46.9318H53.0432V48.4943H46.4807V53.4375H53.6114V55H44.7194ZM60.877 55.2273C59.8543 55.2273 58.9736 54.9858 58.235 54.5028C57.4964 54.0199 56.9282 53.3546 56.5305 52.5071C56.1327 51.6596 55.9339 50.6913 55.9339 49.6023C55.9339 48.4943 56.1375 47.5166 56.5447 46.669C56.9566 45.8168 57.5295 45.1515 58.2634 44.6733C59.002 44.1903 59.8638 43.9489 60.8486 43.9489C61.6157 43.9489 62.307 44.0909 62.9225 44.375C63.538 44.6591 64.0423 45.0568 64.4353 45.5682C64.8283 46.0795 65.0721 46.6761 65.1668 47.358H63.4907C63.3628 46.8608 63.0787 46.4205 62.6384 46.0369C62.2028 45.6487 61.6157 45.4545 60.877 45.4545C60.2236 45.4545 59.6507 45.625 59.1583 45.9659C58.6706 46.3021 58.2894 46.7779 58.0148 47.3935C57.7449 48.0043 57.61 48.7216 57.61 49.5455C57.61 50.3883 57.7426 51.1222 58.0077 51.7472C58.2776 52.3722 58.6564 52.8575 59.1441 53.2031C59.6365 53.5488 60.2142 53.7216 60.877 53.7216C61.3126 53.7216 61.708 53.6458 62.0631 53.4943C62.4182 53.3428 62.7189 53.125 62.9651 52.8409C63.2113 52.5568 63.3865 52.2159 63.4907 51.8182H65.1668C65.0721 52.4621 64.8377 53.0421 64.4637 53.5582C64.0944 54.0696 63.6043 54.4768 62.9935 54.7798C62.3875 55.0781 61.682 55.2273 60.877 55.2273ZM66.6512 55V53.4375H67.0489C67.3756 53.4375 67.6479 53.3736 67.8657 53.2457C68.0835 53.1132 68.2587 52.8835 68.3912 52.5568C68.5286 52.2254 68.6327 51.7661 68.7037 51.179C68.7795 50.5871 68.834 49.8343 68.8671 48.9205L69.066 44.0909H76.3387V55H74.6626V45.6534H70.6569L70.4864 49.5455C70.4485 50.4403 70.368 51.2287 70.2449 51.9105C70.1266 52.5876 69.9443 53.1558 69.6981 53.6151C69.4566 54.0743 69.1346 54.42 68.7322 54.652C68.3297 54.884 67.8254 55 67.2194 55H66.6512ZM81.0901 52.5284L86.3458 44.0909H88.2776V55H86.6015V46.5625L81.3742 55H79.414V44.0909H81.0901V52.5284ZM103.535 55V45.625H100.637C99.9839 45.625 99.4702 45.7765 99.0961 46.0795C98.7221 46.3826 98.5351 46.7992 98.5351 47.3295C98.5351 47.8504 98.7032 48.2599 99.0393 48.5582C99.3802 48.8565 99.8466 49.0057 100.438 49.0057H103.961V50.5682H100.438C99.6998 50.5682 99.063 50.438 98.528 50.1776C97.9929 49.9171 97.581 49.5455 97.2922 49.0625C97.0033 48.5748 96.8589 47.9972 96.8589 47.3295C96.8589 46.6572 97.0104 46.0795 97.3135 45.5966C97.6165 45.1136 98.0497 44.742 98.6132 44.4815C99.1814 44.2211 99.8561 44.0909 100.637 44.0909H105.126V55H103.535ZM96.2623 55L99.3589 49.5739H101.177L98.0805 55H96.2623ZM121.129 48.7784V50.3409H115.106V48.7784H121.129ZM115.504 44.0909V55H113.828V44.0909H115.504ZM122.408 44.0909V55H120.731V44.0909H122.408ZM130.043 55.2273C128.991 55.2273 128.085 54.9953 127.322 54.5312C126.565 54.0625 125.98 53.4091 125.568 52.571C125.161 51.7282 124.957 50.7481 124.957 49.6307C124.957 48.5133 125.161 47.5284 125.568 46.6761C125.98 45.8191 126.553 45.1515 127.287 44.6733C128.025 44.1903 128.887 43.9489 129.872 43.9489C130.44 43.9489 131.001 44.0436 131.555 44.233C132.109 44.4223 132.614 44.7301 133.068 45.1562C133.523 45.5777 133.885 46.1364 134.155 46.8324C134.425 47.5284 134.56 48.3854 134.56 49.4034V50.1136H126.15V48.6648H132.855C132.855 48.0492 132.732 47.5 132.486 47.017C132.244 46.5341 131.899 46.1529 131.449 45.8736C131.004 45.5942 130.478 45.4545 129.872 45.4545C129.204 45.4545 128.627 45.6203 128.139 45.9517C127.656 46.2784 127.284 46.7045 127.024 47.2301C126.764 47.7557 126.633 48.3191 126.633 48.9205V49.8864C126.633 50.7102 126.775 51.4086 127.06 51.9815C127.348 52.5497 127.748 52.983 128.26 53.2812C128.771 53.5748 129.365 53.7216 130.043 53.7216C130.483 53.7216 130.881 53.66 131.236 53.5369C131.596 53.4091 131.906 53.2197 132.166 52.9688C132.427 52.7131 132.628 52.3958 132.77 52.017L134.389 52.4716C134.219 53.0208 133.932 53.5038 133.53 53.9205C133.127 54.3324 132.63 54.6544 132.038 54.8864C131.446 55.1136 130.781 55.2273 130.043 55.2273ZM142.734 59.0909V44.0909H144.354V45.8239H144.552C144.676 45.6345 144.846 45.393 145.064 45.0994C145.286 44.8011 145.604 44.536 146.016 44.304C146.432 44.0672 146.996 43.9489 147.706 43.9489C148.624 43.9489 149.434 44.1785 150.135 44.6378C150.836 45.0971 151.382 45.7481 151.775 46.5909C152.168 47.4337 152.365 48.428 152.365 49.5739C152.365 50.7292 152.168 51.7306 151.775 52.5781C151.382 53.4209 150.838 54.0743 150.142 54.5384C149.446 54.9976 148.643 55.2273 147.734 55.2273C147.034 55.2273 146.472 55.1113 146.051 54.8793C145.63 54.6425 145.305 54.375 145.078 54.0767C144.851 53.7737 144.676 53.5227 144.552 53.3239H144.41V59.0909H142.734ZM144.382 49.5455C144.382 50.3693 144.503 51.0961 144.744 51.7259C144.986 52.3509 145.338 52.8409 145.802 53.196C146.266 53.5464 146.835 53.7216 147.507 53.7216C148.208 53.7216 148.793 53.5369 149.261 53.1676C149.735 52.7936 150.09 52.2917 150.327 51.6619C150.568 51.0275 150.689 50.322 150.689 49.5455C150.689 48.7784 150.57 48.0871 150.334 47.4716C150.102 46.8513 149.749 46.3613 149.275 46.0014C148.807 45.6368 148.217 45.4545 147.507 45.4545C146.825 45.4545 146.252 45.6274 145.788 45.973C145.324 46.3139 144.974 46.7921 144.737 47.4077C144.5 48.0185 144.382 48.7311 144.382 49.5455ZM158.132 55.2557C157.441 55.2557 156.813 55.1255 156.25 54.8651C155.686 54.5999 155.239 54.2188 154.908 53.7216C154.576 53.2197 154.41 52.6136 154.41 51.9034C154.41 51.2784 154.534 50.7718 154.78 50.3835C155.026 49.9905 155.355 49.6828 155.767 49.4602C156.179 49.2377 156.633 49.072 157.131 48.9631C157.632 48.8494 158.137 48.7595 158.643 48.6932C159.306 48.608 159.844 48.544 160.256 48.5014C160.672 48.4541 160.975 48.3759 161.165 48.267C161.359 48.1581 161.456 47.9687 161.456 47.6989V47.642C161.456 46.9413 161.264 46.3968 160.881 46.0085C160.502 45.6203 159.927 45.4261 159.155 45.4261C158.355 45.4261 157.727 45.6013 157.273 45.9517C156.818 46.3021 156.498 46.6761 156.314 47.0739L154.723 46.5057C155.007 45.8428 155.386 45.3267 155.859 44.9574C156.338 44.5833 156.858 44.3229 157.422 44.1761C157.99 44.0246 158.549 43.9489 159.098 43.9489C159.448 43.9489 159.851 43.9915 160.305 44.0767C160.765 44.1572 161.207 44.3253 161.633 44.581C162.064 44.8366 162.422 45.2225 162.706 45.7386C162.99 46.2547 163.132 46.946 163.132 47.8125V55H161.456V53.5227H161.371C161.257 53.7595 161.068 54.0128 160.802 54.2827C160.537 54.5526 160.185 54.7822 159.744 54.9716C159.304 55.161 158.766 55.2557 158.132 55.2557ZM158.388 53.75C159.051 53.75 159.609 53.6198 160.064 53.3594C160.523 53.099 160.869 52.7628 161.101 52.3509C161.338 51.9389 161.456 51.5057 161.456 51.0511V49.517C161.385 49.6023 161.229 49.6804 160.987 49.7514C160.75 49.8177 160.476 49.8769 160.163 49.929C159.855 49.9763 159.555 50.0189 159.261 50.0568C158.972 50.09 158.738 50.1184 158.558 50.142C158.123 50.1989 157.715 50.2912 157.337 50.419C156.963 50.5421 156.659 50.7292 156.427 50.9801C156.2 51.2263 156.087 51.5625 156.087 51.9886C156.087 52.571 156.302 53.0114 156.733 53.3097C157.168 53.6032 157.72 53.75 158.388 53.75ZM165.509 52.2159H167.299C167.337 52.7083 167.56 53.0824 167.967 53.3381C168.379 53.5938 168.914 53.7216 169.572 53.7216C170.244 53.7216 170.82 53.5843 171.298 53.3097C171.776 53.0303 172.015 52.5805 172.015 51.9602C172.015 51.5956 171.925 51.2784 171.745 51.0085C171.565 50.7339 171.312 50.5208 170.985 50.3693C170.659 50.2178 170.273 50.142 169.828 50.142H167.953V48.6364H169.828C170.495 48.6364 170.988 48.4848 171.305 48.1818C171.627 47.8788 171.788 47.5 171.788 47.0455C171.788 46.5578 171.615 46.1671 171.269 45.8736C170.924 45.5753 170.434 45.4261 169.799 45.4261C169.16 45.4261 168.627 45.5705 168.201 45.8594C167.775 46.1435 167.55 46.5104 167.527 46.9602H165.765C165.784 46.3731 165.964 45.8546 166.305 45.4048C166.646 44.9503 167.11 44.5952 167.697 44.3395C168.284 44.0791 168.956 43.9489 169.714 43.9489C170.481 43.9489 171.146 44.0838 171.71 44.3537C172.278 44.6188 172.716 44.9811 173.024 45.4403C173.336 45.8949 173.492 46.411 173.492 46.9886C173.492 47.6042 173.32 48.1013 172.974 48.4801C172.628 48.8589 172.195 49.1288 171.674 49.2898V49.4034C172.086 49.4318 172.444 49.5644 172.747 49.8011C173.054 50.0331 173.294 50.3385 173.464 50.7173C173.634 51.0914 173.72 51.5057 173.72 51.9602C173.72 52.6231 173.542 53.2008 173.187 53.6932C172.832 54.1809 172.344 54.5597 171.724 54.8295C171.104 55.0947 170.396 55.2273 169.6 55.2273C168.829 55.2273 168.137 55.1018 167.527 54.8509C166.916 54.5952 166.43 54.2424 166.071 53.7926C165.715 53.3381 165.528 52.8125 165.509 52.2159ZM176.074 59.0909V44.0909H177.693V45.8239H177.892C178.015 45.6345 178.186 45.393 178.404 45.0994C178.626 44.8011 178.943 44.536 179.355 44.304C179.772 44.0672 180.335 43.9489 181.046 43.9489C181.964 43.9489 182.774 44.1785 183.475 44.6378C184.175 45.0971 184.722 45.7481 185.115 46.5909C185.508 47.4337 185.705 48.428 185.705 49.5739C185.705 50.7292 185.508 51.7306 185.115 52.5781C184.722 53.4209 184.178 54.0743 183.482 54.5384C182.786 54.9976 181.983 55.2273 181.074 55.2273C180.373 55.2273 179.812 55.1113 179.391 54.8793C178.969 54.6425 178.645 54.375 178.418 54.0767C178.191 53.7737 178.015 53.5227 177.892 53.3239H177.75V59.0909H176.074ZM177.722 49.5455C177.722 50.3693 177.843 51.0961 178.084 51.7259C178.326 52.3509 178.678 52.8409 179.142 53.196C179.606 53.5464 180.175 53.7216 180.847 53.7216C181.548 53.7216 182.132 53.5369 182.601 53.1676C183.075 52.7936 183.43 52.2917 183.666 51.6619C183.908 51.0275 184.029 50.322 184.029 49.5455C184.029 48.7784 183.91 48.0871 183.674 47.4716C183.442 46.8513 183.089 46.3613 182.615 46.0014C182.147 45.6368 181.557 45.4545 180.847 45.4545C180.165 45.4545 179.592 45.6274 179.128 45.973C178.664 46.3139 178.314 46.7921 178.077 47.4077C177.84 48.0185 177.722 48.7311 177.722 49.5455ZM191.472 55.2557C190.781 55.2557 190.153 55.1255 189.59 54.8651C189.026 54.5999 188.579 54.2188 188.247 53.7216C187.916 53.2197 187.75 52.6136 187.75 51.9034C187.75 51.2784 187.873 50.7718 188.12 50.3835C188.366 49.9905 188.695 49.6828 189.107 49.4602C189.519 49.2377 189.973 49.072 190.47 48.9631C190.972 48.8494 191.477 48.7595 191.983 48.6932C192.646 48.608 193.184 48.544 193.595 48.5014C194.012 48.4541 194.315 48.3759 194.505 48.267C194.699 48.1581 194.796 47.9687 194.796 47.6989V47.642C194.796 46.9413 194.604 46.3968 194.22 46.0085C193.842 45.6203 193.266 45.4261 192.495 45.4261C191.694 45.4261 191.067 45.6013 190.612 45.9517C190.158 46.3021 189.838 46.6761 189.654 47.0739L188.063 46.5057C188.347 45.8428 188.726 45.3267 189.199 44.9574C189.677 44.5833 190.198 44.3229 190.762 44.1761C191.33 44.0246 191.889 43.9489 192.438 43.9489C192.788 43.9489 193.191 43.9915 193.645 44.0767C194.104 44.1572 194.547 44.3253 194.973 44.581C195.404 44.8366 195.762 45.2225 196.046 45.7386C196.33 46.2547 196.472 46.946 196.472 47.8125V55H194.796V53.5227H194.71C194.597 53.7595 194.407 54.0128 194.142 54.2827C193.877 54.5526 193.524 54.7822 193.084 54.9716C192.644 55.161 192.106 55.2557 191.472 55.2557ZM191.728 53.75C192.39 53.75 192.949 53.6198 193.404 53.3594C193.863 53.099 194.209 52.7628 194.441 52.3509C194.677 51.9389 194.796 51.5057 194.796 51.0511V49.517C194.725 49.6023 194.568 49.6804 194.327 49.7514C194.09 49.8177 193.816 49.8769 193.503 49.929C193.195 49.9763 192.895 50.0189 192.601 50.0568C192.312 50.09 192.078 50.1184 191.898 50.142C191.462 50.1989 191.055 50.2912 190.676 50.419C190.302 50.5421 189.999 50.7292 189.767 50.9801C189.54 51.2263 189.426 51.5625 189.426 51.9886C189.426 52.571 189.642 53.0114 190.073 53.3097C190.508 53.6032 191.06 53.75 191.728 53.75ZM207.628 40L208.48 41.0227C208.149 41.3447 207.765 41.5696 207.329 41.6974C206.894 41.8253 206.401 41.9034 205.852 41.9318C205.303 41.9602 204.692 41.9886 204.02 42.017C203.262 42.0455 202.635 42.2301 202.138 42.571C201.641 42.9119 201.257 43.4044 200.987 44.0483C200.717 44.6922 200.544 45.483 200.469 46.4205H200.611C200.98 45.7386 201.491 45.2367 202.145 44.9148C202.798 44.5928 203.499 44.4318 204.247 44.4318C205.099 44.4318 205.866 44.6307 206.548 45.0284C207.23 45.4261 207.77 46.0156 208.168 46.7969C208.565 47.5781 208.764 48.5417 208.764 49.6875C208.764 50.8286 208.561 51.8134 208.153 52.642C207.751 53.4706 207.185 54.1098 206.456 54.5597C205.731 55.0047 204.882 55.2273 203.906 55.2273C202.931 55.2273 202.076 54.9976 201.342 54.5384C200.608 54.0743 200.038 53.3878 199.631 52.4787C199.223 51.5649 199.02 50.4356 199.02 49.0909V47.9261C199.02 45.4972 199.432 43.6553 200.256 42.4006C201.084 41.1458 202.329 40.4972 203.991 40.4545C204.579 40.4356 205.102 40.4309 205.561 40.4403C206.02 40.4498 206.42 40.4285 206.761 40.3764C207.102 40.3243 207.391 40.1989 207.628 40ZM203.906 53.7216C204.564 53.7216 205.13 53.5559 205.604 53.2244C206.082 52.893 206.449 52.4266 206.704 51.8253C206.96 51.2192 207.088 50.5066 207.088 49.6875C207.088 48.892 206.958 48.215 206.697 47.6562C206.442 47.0975 206.075 46.6714 205.597 46.3778C205.118 46.0843 204.545 45.9375 203.878 45.9375C203.39 45.9375 202.952 46.0204 202.564 46.1861C202.176 46.3518 201.844 46.5956 201.57 46.9176C201.295 47.2396 201.082 47.6326 200.93 48.0966C200.784 48.5606 200.705 49.0909 200.696 49.6875C200.696 50.9091 200.982 51.8868 201.555 52.6207C202.128 53.3546 202.912 53.7216 203.906 53.7216ZM215.76 55.2273C214.775 55.2273 213.911 54.9929 213.168 54.5241C212.429 54.0554 211.851 53.3996 211.435 52.5568C211.023 51.714 210.817 50.7292 210.817 49.6023C210.817 48.4659 211.023 47.474 211.435 46.6264C211.851 45.7789 212.429 45.1207 213.168 44.652C213.911 44.1832 214.775 43.9489 215.76 43.9489C216.745 43.9489 217.606 44.1832 218.345 44.652C219.088 45.1207 219.666 45.7789 220.078 46.6264C220.495 47.474 220.703 48.4659 220.703 49.6023C220.703 50.7292 220.495 51.714 220.078 52.5568C219.666 53.3996 219.088 54.0554 218.345 54.5241C217.606 54.9929 216.745 55.2273 215.76 55.2273ZM215.76 53.7216C216.508 53.7216 217.123 53.5298 217.606 53.1463C218.089 52.7628 218.447 52.2585 218.679 51.6335C218.911 51.0085 219.027 50.3314 219.027 49.6023C219.027 48.8731 218.911 48.1937 218.679 47.5639C218.447 46.9342 218.089 46.4252 217.606 46.0369C217.123 45.6487 216.508 45.4545 215.76 45.4545C215.012 45.4545 214.396 45.6487 213.913 46.0369C213.43 46.4252 213.073 46.9342 212.841 47.5639C212.609 48.1937 212.493 48.8731 212.493 49.6023C212.493 50.3314 212.609 51.0085 212.841 51.6335C213.073 52.2585 213.43 52.7628 213.913 53.1463C214.396 53.5298 215.012 53.7216 215.76 53.7216ZM221.836 45.6534V44.0909H230.699V45.6534H227.12V55H225.444V45.6534H221.836ZM240.987 44.0909V55H239.311V44.0909H240.987ZM240.334 49.2898V50.8523C239.955 50.9943 239.579 51.1198 239.204 51.2287C238.83 51.3329 238.437 51.4157 238.025 51.4773C237.614 51.5341 237.161 51.5625 236.669 51.5625C235.433 51.5625 234.441 51.2287 233.693 50.5611C232.95 49.8935 232.578 48.892 232.578 47.5568V44.0625H234.254V47.5568C234.254 48.1155 234.361 48.5748 234.574 48.9347C234.787 49.2945 235.076 49.562 235.44 49.7372C235.805 49.9124 236.214 50 236.669 50C237.379 50 238.021 49.9361 238.594 49.8082C239.171 49.6757 239.751 49.5028 240.334 49.2898ZM245.739 52.5284L250.994 44.0909H252.926V55H251.25V46.5625L246.023 55H244.062V44.0909H245.739V52.5284ZM255.996 55V44.0909H257.672V48.8352H258.78L262.701 44.0909H264.86L260.456 49.3466L264.916 55H262.757L259.178 50.3977H257.672V55H255.996ZM269.238 53.0114L269.125 53.7784C269.044 54.3182 268.921 54.8958 268.755 55.5114C268.594 56.1269 268.426 56.7069 268.251 57.2514C268.076 57.7959 267.931 58.2292 267.818 58.5511H266.539C266.601 58.2481 266.681 57.848 266.781 57.3509C266.88 56.8537 266.98 56.2973 267.079 55.6818C267.183 55.071 267.268 54.446 267.335 53.8068L267.42 53.0114H269.238ZM51.7932 72.7784V74.3409H45.7705V72.7784H51.7932ZM46.1682 68.0909V79H44.4921V68.0909H46.1682ZM53.0716 68.0909V79H51.3955V68.0909H53.0716ZM60.5645 79.2273C59.5797 79.2273 58.7156 78.9929 57.9722 78.5241C57.2336 78.0554 56.6559 77.3996 56.2393 76.5568C55.8273 75.714 55.6214 74.7292 55.6214 73.6023C55.6214 72.4659 55.8273 71.474 56.2393 70.6264C56.6559 69.7789 57.2336 69.1207 57.9722 68.652C58.7156 68.1832 59.5797 67.9489 60.5645 67.9489C61.5494 67.9489 62.4111 68.1832 63.1498 68.652C63.8931 69.1207 64.4708 69.7789 64.8827 70.6264C65.2994 71.474 65.5077 72.4659 65.5077 73.6023C65.5077 74.7292 65.2994 75.714 64.8827 76.5568C64.4708 77.3996 63.8931 78.0554 63.1498 78.5241C62.4111 78.9929 61.5494 79.2273 60.5645 79.2273ZM60.5645 77.7216C61.3126 77.7216 61.9282 77.5298 62.4111 77.1463C62.8941 76.7628 63.2516 76.2585 63.4836 75.6335C63.7156 75.0085 63.8316 74.3314 63.8316 73.6023C63.8316 72.8731 63.7156 72.1937 63.4836 71.5639C63.2516 70.9342 62.8941 70.4252 62.4111 70.0369C61.9282 69.6487 61.3126 69.4545 60.5645 69.4545C59.8164 69.4545 59.2009 69.6487 58.718 70.0369C58.235 70.4252 57.8775 70.9342 57.6455 71.5639C57.4135 72.1937 57.2975 72.8731 57.2975 73.6023C57.2975 74.3314 57.4135 75.0085 57.6455 75.6335C57.8775 76.2585 58.235 76.7628 58.718 77.1463C59.2009 77.5298 59.8164 77.7216 60.5645 77.7216ZM73.6913 83.0909V68.0909H75.3106V69.8239H75.5095C75.6326 69.6345 75.8031 69.393 76.0209 69.0994C76.2434 68.8011 76.5606 68.536 76.9726 68.304C77.3892 68.0672 77.9527 67.9489 78.6629 67.9489C79.5815 67.9489 80.3911 68.1785 81.0919 68.6378C81.7926 69.0971 82.3395 69.7481 82.7325 70.5909C83.1255 71.4337 83.322 72.428 83.322 73.5739C83.322 74.7292 83.1255 75.7306 82.7325 76.5781C82.3395 77.4209 81.795 78.0743 81.099 78.5384C80.403 78.9976 79.6004 79.2273 78.6913 79.2273C77.9906 79.2273 77.4295 79.1113 77.0081 78.8793C76.5867 78.6425 76.2623 78.375 76.0351 78.0767C75.8078 77.7737 75.6326 77.5227 75.5095 77.3239H75.3675V83.0909H73.6913ZM75.339 73.5455C75.339 74.3693 75.4598 75.0961 75.7013 75.7259C75.9427 76.3509 76.2955 76.8409 76.7595 77.196C77.2235 77.5464 77.7917 77.7216 78.464 77.7216C79.1648 77.7216 79.7496 77.5369 80.2183 77.1676C80.6918 76.7936 81.0469 76.2917 81.2836 75.6619C81.5251 75.0275 81.6459 74.322 81.6459 73.5455C81.6459 72.7784 81.5275 72.0871 81.2907 71.4716C81.0587 70.8513 80.706 70.3613 80.2325 70.0014C79.7638 69.6368 79.1743 69.4545 78.464 69.4545C77.7822 69.4545 77.2093 69.6274 76.7453 69.973C76.2813 70.3139 75.9309 70.7921 75.6942 71.4077C75.4574 72.0185 75.339 72.7311 75.339 73.5455ZM89.089 79.2557C88.3978 79.2557 87.7704 79.1255 87.2069 78.8651C86.6435 78.5999 86.1961 78.2188 85.8646 77.7216C85.5332 77.2197 85.3675 76.6136 85.3675 75.9034C85.3675 75.2784 85.4906 74.7718 85.7368 74.3835C85.983 73.9905 86.3121 73.6828 86.724 73.4602C87.1359 73.2377 87.5905 73.072 88.0876 72.9631C88.5895 72.8494 89.0938 72.7595 89.6004 72.6932C90.2633 72.608 90.8007 72.544 91.2126 72.5014C91.6293 72.4541 91.9323 72.3759 92.1217 72.267C92.3158 72.1581 92.4129 71.9687 92.4129 71.6989V71.642C92.4129 70.9413 92.2211 70.3968 91.8376 70.0085C91.4588 69.6203 90.8836 69.4261 90.1118 69.4261C89.3116 69.4261 88.6842 69.6013 88.2297 69.9517C87.7751 70.3021 87.4555 70.6761 87.2709 71.0739L85.68 70.5057C85.964 69.8428 86.3428 69.3267 86.8163 68.9574C87.2945 68.5833 87.8154 68.3229 88.3788 68.1761C88.947 68.0246 89.5057 67.9489 90.055 67.9489C90.4053 67.9489 90.8078 67.9915 91.2623 68.0767C91.7216 68.1572 92.1643 68.3253 92.5905 68.581C93.0213 68.8366 93.3788 69.2225 93.6629 69.7386C93.947 70.2547 94.089 70.946 94.089 71.8125V79H92.4129V77.5227H92.3277C92.214 77.7595 92.0247 78.0128 91.7595 78.2827C91.4943 78.5526 91.1416 78.7822 90.7013 78.9716C90.2609 79.161 89.7235 79.2557 89.089 79.2557ZM89.3447 77.75C90.0076 77.75 90.5663 77.6198 91.0209 77.3594C91.4801 77.099 91.8258 76.7628 92.0578 76.3509C92.2945 75.9389 92.4129 75.5057 92.4129 75.0511V73.517C92.3419 73.6023 92.1856 73.6804 91.9442 73.7514C91.7074 73.8177 91.4328 73.8769 91.1203 73.929C90.8125 73.9763 90.5119 74.0189 90.2183 74.0568C89.9295 74.09 89.6951 74.1184 89.5152 74.142C89.0796 74.1989 88.6724 74.2912 88.2936 74.419C87.9195 74.5421 87.6165 74.7292 87.3845 74.9801C87.1572 75.2263 87.0436 75.5625 87.0436 75.9886C87.0436 76.571 87.259 77.0114 87.6899 77.3097C88.1255 77.6032 88.6771 77.75 89.3447 77.75ZM105.245 64L106.097 65.0227C105.766 65.3447 105.382 65.5696 104.947 65.6974C104.511 65.8253 104.019 65.9034 103.469 65.9318C102.92 65.9602 102.309 65.9886 101.637 66.017C100.879 66.0455 100.252 66.2301 99.7549 66.571C99.2577 66.9119 98.8742 67.4044 98.6043 68.0483C98.3344 68.6922 98.1616 69.483 98.0858 70.4205H98.2279C98.5972 69.7386 99.1086 69.2367 99.762 68.9148C100.415 68.5928 101.116 68.4318 101.864 68.4318C102.717 68.4318 103.484 68.6307 104.165 69.0284C104.847 69.4261 105.387 70.0156 105.785 70.7969C106.182 71.5781 106.381 72.5417 106.381 73.6875C106.381 74.8286 106.178 75.8134 105.771 76.642C105.368 77.4706 104.802 78.1098 104.073 78.5597C103.349 79.0047 102.499 79.2273 101.523 79.2273C100.548 79.2273 99.6933 78.9976 98.9594 78.5384C98.2255 78.0743 97.655 77.3878 97.2478 76.4787C96.8406 75.5649 96.637 74.4356 96.637 73.0909V71.9261C96.637 69.4972 97.0489 67.6553 97.8728 66.4006C98.7014 65.1458 99.9466 64.4972 101.609 64.4545C102.196 64.4356 102.719 64.4309 103.178 64.4403C103.637 64.4498 104.038 64.4285 104.378 64.3764C104.719 64.3243 105.008 64.1989 105.245 64ZM101.523 77.7216C102.181 77.7216 102.747 77.5559 103.221 77.2244C103.699 76.893 104.066 76.4266 104.322 75.8253C104.577 75.2192 104.705 74.5066 104.705 73.6875C104.705 72.892 104.575 72.215 104.315 71.6562C104.059 71.0975 103.692 70.6714 103.214 70.3778C102.735 70.0843 102.163 69.9375 101.495 69.9375C101.007 69.9375 100.569 70.0204 100.181 70.1861C99.7928 70.3518 99.4613 70.5956 99.1867 70.9176C98.9121 71.2396 98.699 71.6326 98.5475 72.0966C98.4007 72.5606 98.3226 73.0909 98.3131 73.6875C98.3131 74.9091 98.5996 75.8868 99.1725 76.6207C99.7454 77.3546 100.529 77.7216 101.523 77.7216ZM113.377 79.2273C112.392 79.2273 111.528 78.9929 110.785 78.5241C110.046 78.0554 109.468 77.3996 109.052 76.5568C108.64 75.714 108.434 74.7292 108.434 73.6023C108.434 72.4659 108.64 71.474 109.052 70.6264C109.468 69.7789 110.046 69.1207 110.785 68.652C111.528 68.1832 112.392 67.9489 113.377 67.9489C114.362 67.9489 115.224 68.1832 115.962 68.652C116.706 69.1207 117.283 69.7789 117.695 70.6264C118.112 71.474 118.32 72.4659 118.32 73.6023C118.32 74.7292 118.112 75.714 117.695 76.5568C117.283 77.3996 116.706 78.0554 115.962 78.5241C115.224 78.9929 114.362 79.2273 113.377 79.2273ZM113.377 77.7216C114.125 77.7216 114.741 77.5298 115.224 77.1463C115.707 76.7628 116.064 76.2585 116.296 75.6335C116.528 75.0085 116.644 74.3314 116.644 73.6023C116.644 72.8731 116.528 72.1937 116.296 71.5639C116.064 70.9342 115.707 70.4252 115.224 70.0369C114.741 69.6487 114.125 69.4545 113.377 69.4545C112.629 69.4545 112.013 69.6487 111.53 70.0369C111.047 70.4252 110.69 70.9342 110.458 71.5639C110.226 72.1937 110.11 72.8731 110.11 73.6023C110.11 74.3314 110.226 75.0085 110.458 75.6335C110.69 76.2585 111.047 76.7628 111.53 77.1463C112.013 77.5298 112.629 77.7216 113.377 77.7216ZM119.453 69.6534V68.0909H128.317V69.6534H124.737V79H123.061V69.6534H119.453ZM133.405 79.2557C132.714 79.2557 132.087 79.1255 131.523 78.8651C130.96 78.5999 130.512 78.2188 130.181 77.7216C129.85 77.2197 129.684 76.6136 129.684 75.9034C129.684 75.2784 129.807 74.7718 130.053 74.3835C130.299 73.9905 130.628 73.6828 131.04 73.4602C131.452 73.2377 131.907 73.072 132.404 72.9631C132.906 72.8494 133.41 72.7595 133.917 72.6932C134.58 72.608 135.117 72.544 135.529 72.5014C135.946 72.4541 136.249 72.3759 136.438 72.267C136.632 72.1581 136.729 71.9687 136.729 71.6989V71.642C136.729 70.9413 136.538 70.3968 136.154 70.0085C135.775 69.6203 135.2 69.4261 134.428 69.4261C133.628 69.4261 133.001 69.6013 132.546 69.9517C132.092 70.3021 131.772 70.6761 131.587 71.0739L129.996 70.5057C130.28 69.8428 130.659 69.3267 131.133 68.9574C131.611 68.5833 132.132 68.3229 132.695 68.1761C133.263 68.0246 133.822 67.9489 134.371 67.9489C134.722 67.9489 135.124 67.9915 135.579 68.0767C136.038 68.1572 136.481 68.3253 136.907 68.581C137.338 68.8366 137.695 69.2225 137.979 69.7386C138.263 70.2547 138.405 70.946 138.405 71.8125V79H136.729V77.5227H136.644C136.53 77.7595 136.341 78.0128 136.076 78.2827C135.811 78.5526 135.458 78.7822 135.018 78.9716C134.577 79.161 134.04 79.2557 133.405 79.2557ZM133.661 77.75C134.324 77.75 134.883 77.6198 135.337 77.3594C135.797 77.099 136.142 76.7628 136.374 76.3509C136.611 75.9389 136.729 75.5057 136.729 75.0511V73.517C136.658 73.6023 136.502 73.6804 136.261 73.7514C136.024 73.8177 135.749 73.8769 135.437 73.929C135.129 73.9763 134.828 74.0189 134.535 74.0568C134.246 74.09 134.012 74.1184 133.832 74.142C133.396 74.1989 132.989 74.2912 132.61 74.419C132.236 74.5421 131.933 74.7292 131.701 74.9801C131.474 75.2263 131.36 75.5625 131.36 75.9886C131.36 76.571 131.575 77.0114 132.006 77.3097C132.442 77.6032 132.994 77.75 133.661 77.75ZM146.692 72.8636V74.4261H140.925V72.8636H146.692ZM142.345 68.0909V79H140.669V68.0909H142.345ZM150.044 79.2273C149.059 79.2273 148.195 78.9929 147.452 78.5241C146.713 78.0554 146.136 77.3996 145.719 76.5568C145.307 75.714 145.101 74.7292 145.101 73.6023C145.101 72.4659 145.307 71.474 145.719 70.6264C146.136 69.7789 146.713 69.1207 147.452 68.652C148.195 68.1832 149.059 67.9489 150.044 67.9489C151.029 67.9489 151.891 68.1832 152.63 68.652C153.373 69.1207 153.951 69.7789 154.362 70.6264C154.779 71.474 154.987 72.4659 154.987 73.6023C154.987 74.7292 154.779 75.714 154.362 76.5568C153.951 77.3996 153.373 78.0554 152.63 78.5241C151.891 78.9929 151.029 79.2273 150.044 79.2273ZM150.044 77.7216C150.792 77.7216 151.408 77.5298 151.891 77.1463C152.374 76.7628 152.731 76.2585 152.963 75.6335C153.195 75.0085 153.311 74.3314 153.311 73.6023C153.311 72.8731 153.195 72.1937 152.963 71.5639C152.731 70.9342 152.374 70.4252 151.891 70.0369C151.408 69.6487 150.792 69.4545 150.044 69.4545C149.296 69.4545 148.681 69.6487 148.198 70.0369C147.715 70.4252 147.357 70.9342 147.125 71.5639C146.893 72.1937 146.777 72.8731 146.777 73.6023C146.777 74.3314 146.893 75.0085 147.125 75.6335C147.357 76.2585 147.715 76.7628 148.198 77.1463C148.681 77.5298 149.296 77.7216 150.044 77.7216ZM163.34 79V68.0909H167.8C168.974 68.0909 169.907 68.3561 170.598 68.8864C171.29 69.4167 171.635 70.1174 171.635 70.9886C171.635 71.6515 171.439 72.1652 171.046 72.5298C170.653 72.8897 170.148 73.1335 169.533 73.2614C169.935 73.3182 170.326 73.4602 170.705 73.6875C171.088 73.9148 171.406 74.2273 171.657 74.625C171.907 75.018 172.033 75.5009 172.033 76.0739C172.033 76.6326 171.891 77.1321 171.607 77.5724C171.323 78.0128 170.916 78.3608 170.385 78.6165C169.855 78.8722 169.22 79 168.482 79H163.34ZM164.931 77.4659H168.482C169.059 77.4659 169.512 77.3286 169.838 77.054C170.165 76.7794 170.328 76.4053 170.328 75.9318C170.328 75.3684 170.165 74.9257 169.838 74.6037C169.512 74.277 169.059 74.1136 168.482 74.1136H164.931V77.4659ZM164.931 72.6648H167.8C168.25 72.6648 168.636 72.6032 168.958 72.4801C169.28 72.3523 169.526 72.1723 169.696 71.9403C169.871 71.7036 169.959 71.4242 169.959 71.1023C169.959 70.643 169.767 70.2831 169.384 70.0227C169 69.7576 168.472 69.625 167.8 69.625H164.931V72.6648ZM182.184 64.4545V79H180.422V64.4545H182.184ZM184.92 66.017V64.4545H195.829V66.017H191.255V79H189.494V66.017H184.92ZM200.137 77.0114L200.023 77.7784C199.943 78.3182 199.819 78.8958 199.654 79.5114C199.493 80.1269 199.325 80.7069 199.149 81.2514C198.974 81.7959 198.83 82.2292 198.716 82.5511H197.438C197.499 82.2481 197.58 81.848 197.679 81.3509C197.779 80.8537 197.878 80.2973 197.978 79.6818C198.082 79.071 198.167 78.446 198.233 77.8068L198.318 77.0114H200.137ZM214.833 76.7273L218.64 68.0909H220.231L215.515 79H214.151L209.521 68.0909H211.083L214.833 76.7273ZM210.543 68.0909V79H208.867V68.0909H210.543ZM219.123 79V68.0909H220.799V79H219.123ZM231.168 72.7784V74.3409H225.146V72.7784H231.168ZM225.543 68.0909V79H223.867V68.0909H225.543ZM232.447 68.0909V79H230.771V68.0909H232.447ZM240.082 79.2273C239.03 79.2273 238.124 78.9953 237.361 78.5312C236.604 78.0625 236.019 77.4091 235.607 76.571C235.2 75.7282 234.996 74.7481 234.996 73.6307C234.996 72.5133 235.2 71.5284 235.607 70.6761C236.019 69.8191 236.592 69.1515 237.326 68.6733C238.065 68.1903 238.926 67.9489 239.911 67.9489C240.479 67.9489 241.04 68.0436 241.594 68.233C242.148 68.4223 242.653 68.7301 243.107 69.1562C243.562 69.5777 243.924 70.1364 244.194 70.8324C244.464 71.5284 244.599 72.3854 244.599 73.4034V74.1136H236.19V72.6648H242.894C242.894 72.0492 242.771 71.5 242.525 71.017C242.283 70.5341 241.938 70.1529 241.488 69.8736C241.043 69.5942 240.517 69.4545 239.911 69.4545C239.244 69.4545 238.666 69.6203 238.178 69.9517C237.695 70.2784 237.324 70.7045 237.063 71.2301C236.803 71.7557 236.672 72.3191 236.672 72.9205V73.8864C236.672 74.7102 236.815 75.4086 237.099 75.9815C237.387 76.5497 237.788 76.983 238.299 77.2812C238.81 77.5748 239.405 77.7216 240.082 77.7216C240.522 77.7216 240.92 77.66 241.275 77.5369C241.635 77.4091 241.945 77.2197 242.205 76.9688C242.466 76.7131 242.667 76.3958 242.809 76.017L244.428 76.4716C244.258 77.0208 243.971 77.5038 243.569 77.9205C243.166 78.3324 242.669 78.6544 242.077 78.8864C241.485 79.1136 240.82 79.2273 240.082 79.2273ZM260.87 64L261.722 65.0227C261.391 65.3447 261.007 65.5696 260.572 65.6974C260.136 65.8253 259.644 65.9034 259.094 65.9318C258.545 65.9602 257.934 65.9886 257.262 66.017C256.504 66.0455 255.877 66.2301 255.38 66.571C254.883 66.9119 254.499 67.4044 254.229 68.0483C253.959 68.6922 253.787 69.483 253.711 70.4205H253.853C254.222 69.7386 254.734 69.2367 255.387 68.9148C256.04 68.5928 256.741 68.4318 257.489 68.4318C258.342 68.4318 259.109 68.6307 259.79 69.0284C260.472 69.4261 261.012 70.0156 261.41 70.7969C261.807 71.5781 262.006 72.5417 262.006 73.6875C262.006 74.8286 261.803 75.8134 261.396 76.642C260.993 77.4706 260.427 78.1098 259.698 78.5597C258.974 79.0047 258.124 79.2273 257.148 79.2273C256.173 79.2273 255.318 78.9976 254.584 78.5384C253.851 78.0743 253.28 77.3878 252.873 76.4787C252.466 75.5649 252.262 74.4356 252.262 73.0909V71.9261C252.262 69.4972 252.674 67.6553 253.498 66.4006C254.326 65.1458 255.572 64.4972 257.234 64.4545C257.821 64.4356 258.344 64.4309 258.803 64.4403C259.262 64.4498 259.663 64.4285 260.003 64.3764C260.344 64.3243 260.633 64.1989 260.87 64ZM257.148 77.7216C257.806 77.7216 258.372 77.5559 258.846 77.2244C259.324 76.893 259.691 76.4266 259.947 75.8253C260.202 75.2192 260.33 74.5066 260.33 73.6875C260.33 72.892 260.2 72.215 259.94 71.6562C259.684 71.0975 259.317 70.6714 258.839 70.3778C258.36 70.0843 257.788 69.9375 257.12 69.9375C256.632 69.9375 256.194 70.0204 255.806 70.1861C255.418 70.3518 255.086 70.5956 254.812 70.9176C254.537 71.2396 254.324 71.6326 254.172 72.0966C254.026 72.5606 253.948 73.0909 253.938 73.6875C253.938 74.9091 254.225 75.8868 254.797 76.6207C255.37 77.3546 256.154 77.7216 257.148 77.7216ZM265.65 83.0909C265.366 83.0909 265.112 83.0672 264.89 83.0199C264.667 82.9773 264.513 82.9347 264.428 82.892L264.854 81.4148C265.262 81.5189 265.621 81.5568 265.934 81.5284C266.246 81.5 266.523 81.3603 266.765 81.1094C267.011 80.8632 267.236 80.4631 267.44 79.9091L267.752 79.0568L263.718 68.0909H265.536L268.547 76.7841H268.661L271.672 68.0909H273.491L268.86 80.5909C268.652 81.1544 268.394 81.6207 268.086 81.9901C267.778 82.3641 267.421 82.6411 267.013 82.821C266.611 83.0009 266.156 83.0909 265.65 83.0909ZM273.62 82.125V77.4375H274.529C274.752 77.2055 274.944 76.9545 275.105 76.6847C275.266 76.4148 275.405 76.0952 275.524 75.7259C275.647 75.3518 275.751 74.8973 275.836 74.3622C275.921 73.8224 275.997 73.1714 276.063 72.4091L276.433 68.0909H283.365V77.4375H285.041V82.125H283.365V79H275.296V82.125H273.62ZM276.433 77.4375H281.688V69.6534H277.995L277.711 72.4091C277.593 73.5502 277.446 74.5469 277.271 75.3991C277.096 76.2514 276.816 76.9309 276.433 77.4375ZM291.839 79.2273C290.788 79.2273 289.882 78.9953 289.119 78.5312C288.362 78.0625 287.777 77.4091 287.365 76.571C286.958 75.7282 286.754 74.7481 286.754 73.6307C286.754 72.5133 286.958 71.5284 287.365 70.6761C287.777 69.8191 288.35 69.1515 289.084 68.6733C289.822 68.1903 290.684 67.9489 291.669 67.9489C292.237 67.9489 292.798 68.0436 293.352 68.233C293.906 68.4223 294.41 68.7301 294.865 69.1562C295.32 69.5777 295.682 70.1364 295.952 70.8324C296.222 71.5284 296.356 72.3854 296.356 73.4034V74.1136H287.947V72.6648H294.652C294.652 72.0492 294.529 71.5 294.283 71.017C294.041 70.5341 293.695 70.1529 293.246 69.8736C292.801 69.5942 292.275 69.4545 291.669 69.4545C291.001 69.4545 290.424 69.6203 289.936 69.9517C289.453 70.2784 289.081 70.7045 288.821 71.2301C288.561 71.7557 288.43 72.3191 288.43 72.9205V73.8864C288.43 74.7102 288.572 75.4086 288.856 75.9815C289.145 76.5497 289.545 76.983 290.057 77.2812C290.568 77.5748 291.162 77.7216 291.839 77.7216C292.28 77.7216 292.677 77.66 293.033 77.5369C293.392 77.4091 293.703 77.2197 293.963 76.9688C294.223 76.7131 294.425 76.3958 294.567 76.017L296.186 76.4716C296.016 77.0208 295.729 77.5038 295.327 77.9205C294.924 78.3324 294.427 78.6544 293.835 78.8864C293.243 79.1136 292.578 79.2273 291.839 79.2273ZM297.891 69.6534V68.0909H306.754V69.6534H303.175V79H301.498V69.6534H297.891ZM46.1682 100.528L51.4239 92.0909H53.3557V103H51.6796V94.5625L46.4523 103H44.4921V92.0909H46.1682V100.528ZM63.7268 96.7784V98.3409H57.7041V96.7784H63.7268ZM58.1018 92.0909V103H56.4257V92.0909H58.1018ZM65.0052 92.0909V103H63.3291V92.0909H65.0052ZM66.5819 93.6534V92.0909H75.4456V93.6534H71.866V103H70.1899V93.6534H66.5819ZM81.898 103.227C80.8469 103.227 79.9401 102.995 79.1778 102.531C78.4202 102.062 77.8355 101.409 77.4236 100.571C77.0164 99.7282 76.8128 98.7481 76.8128 97.6307C76.8128 96.5133 77.0164 95.5284 77.4236 94.6761C77.8355 93.8191 78.4084 93.1515 79.1423 92.6733C79.8809 92.1903 80.7427 91.9489 81.7275 91.9489C82.2957 91.9489 82.8568 92.0436 83.4108 92.233C83.9648 92.4223 84.469 92.7301 84.9236 93.1562C85.3781 93.5777 85.7403 94.1364 86.0102 94.8324C86.2801 95.5284 86.415 96.3854 86.415 97.4034V98.1136H78.0059V96.6648H84.7105C84.7105 96.0492 84.5874 95.5 84.3412 95.017C84.0997 94.5341 83.7541 94.1529 83.3042 93.8736C82.8592 93.5942 82.3336 93.4545 81.7275 93.4545C81.0599 93.4545 80.4823 93.6203 79.9946 93.9517C79.5116 94.2784 79.1399 94.7045 78.8795 95.2301C78.6191 95.7557 78.4889 96.3191 78.4889 96.9205V97.8864C78.4889 98.7102 78.6309 99.4086 78.915 99.9815C79.2039 100.55 79.604 100.983 80.1153 101.281C80.6267 101.575 81.2209 101.722 81.898 101.722C82.3383 101.722 82.7361 101.66 83.0912 101.537C83.451 101.409 83.7612 101.22 84.0216 100.969C84.282 100.713 84.4832 100.396 84.6253 100.017L86.2446 100.472C86.0741 101.021 85.7877 101.504 85.3852 101.92C84.9827 102.332 84.4856 102.654 83.8937 102.886C83.3019 103.114 82.6366 103.227 81.898 103.227ZM88.9648 107.091V92.0909H90.5841V93.8239H90.7829C90.906 93.6345 91.0765 93.393 91.2943 93.0994C91.5168 92.8011 91.8341 92.536 92.246 92.304C92.6627 92.0672 93.2261 91.9489 93.9363 91.9489C94.8549 91.9489 95.6646 92.1785 96.3653 92.6378C97.0661 93.0971 97.613 93.7481 98.0059 94.5909C98.3989 95.4337 98.5954 96.428 98.5954 97.5739C98.5954 98.7292 98.3989 99.7306 98.0059 100.578C97.613 101.421 97.0684 102.074 96.3724 102.538C95.6764 102.998 94.8738 103.227 93.9648 103.227C93.264 103.227 92.7029 103.111 92.2815 102.879C91.8601 102.643 91.5358 102.375 91.3085 102.077C91.0812 101.774 90.906 101.523 90.7829 101.324H90.6409V107.091H88.9648ZM90.6125 97.5455C90.6125 98.3693 90.7332 99.0961 90.9747 99.7259C91.2162 100.351 91.5689 100.841 92.0329 101.196C92.497 101.546 93.0651 101.722 93.7375 101.722C94.4382 101.722 95.023 101.537 95.4917 101.168C95.9652 100.794 96.3203 100.292 96.5571 99.6619C96.7986 99.0275 96.9193 98.322 96.9193 97.5455C96.9193 96.7784 96.8009 96.0871 96.5642 95.4716C96.3322 94.8513 95.9794 94.3613 95.5059 94.0014C95.0372 93.6368 94.4477 93.4545 93.7375 93.4545C93.0557 93.4545 92.4827 93.6274 92.0187 93.973C91.5547 94.3139 91.2043 94.7921 90.9676 95.4077C90.7309 96.0185 90.6125 96.7311 90.6125 97.5455ZM105.726 103.227C104.675 103.227 103.768 102.995 103.006 102.531C102.248 102.062 101.664 101.409 101.252 100.571C100.844 99.7282 100.641 98.7481 100.641 97.6307C100.641 96.5133 100.844 95.5284 101.252 94.6761C101.664 93.8191 102.237 93.1515 102.97 92.6733C103.709 92.1903 104.571 91.9489 105.556 91.9489C106.124 91.9489 106.685 92.0436 107.239 92.233C107.793 92.4223 108.297 92.7301 108.752 93.1562C109.206 93.5777 109.568 94.1364 109.838 94.8324C110.108 95.5284 110.243 96.3854 110.243 97.4034V98.1136H101.834V96.6648H108.539C108.539 96.0492 108.416 95.5 108.169 95.017C107.928 94.5341 107.582 94.1529 107.132 93.8736C106.687 93.5942 106.162 93.4545 105.556 93.4545C104.888 93.4545 104.31 93.6203 103.823 93.9517C103.34 94.2784 102.968 94.7045 102.708 95.2301C102.447 95.7557 102.317 96.3191 102.317 96.9205V97.8864C102.317 98.7102 102.459 99.4086 102.743 99.9815C103.032 100.55 103.432 100.983 103.943 101.281C104.455 101.575 105.049 101.722 105.726 101.722C106.166 101.722 106.564 101.66 106.919 101.537C107.279 101.409 107.589 101.22 107.85 100.969C108.11 100.713 108.311 100.396 108.453 100.017L110.073 100.472C109.902 101.021 109.616 101.504 109.213 101.92C108.811 102.332 108.314 102.654 107.722 102.886C107.13 103.114 106.465 103.227 105.726 103.227ZM117.225 103.227C116.202 103.227 115.321 102.986 114.583 102.503C113.844 102.02 113.276 101.355 112.878 100.507C112.48 99.6596 112.282 98.6913 112.282 97.6023C112.282 96.4943 112.485 95.5166 112.892 94.669C113.304 93.8168 113.877 93.1515 114.611 92.6733C115.35 92.1903 116.211 91.9489 117.196 91.9489C117.963 91.9489 118.655 92.0909 119.27 92.375C119.886 92.6591 120.39 93.0568 120.783 93.5682C121.176 94.0795 121.42 94.6761 121.514 95.358H119.838C119.71 94.8608 119.426 94.4205 118.986 94.0369C118.55 93.6487 117.963 93.4545 117.225 93.4545C116.571 93.4545 115.998 93.625 115.506 93.9659C115.018 94.3021 114.637 94.7779 114.362 95.3935C114.093 96.0043 113.958 96.7216 113.958 97.5455C113.958 98.3883 114.09 99.1222 114.355 99.7472C114.625 100.372 115.004 100.857 115.492 101.203C115.984 101.549 116.562 101.722 117.225 101.722C117.66 101.722 118.056 101.646 118.411 101.494C118.766 101.343 119.067 101.125 119.313 100.841C119.559 100.557 119.734 100.216 119.838 99.8182H121.514C121.42 100.462 121.185 101.042 120.811 101.558C120.442 102.07 119.952 102.477 119.341 102.78C118.735 103.078 118.03 103.227 117.225 103.227ZM131.266 96.7784V98.3409H125.243V96.7784H131.266ZM125.641 92.0909V103H123.965V92.0909H125.641ZM132.544 92.0909V103H130.868V92.0909H132.544ZM140.037 103.227C139.052 103.227 138.188 102.993 137.445 102.524C136.706 102.055 136.129 101.4 135.712 100.557C135.3 99.714 135.094 98.7292 135.094 97.6023C135.094 96.4659 135.3 95.474 135.712 94.6264C136.129 93.7789 136.706 93.1207 137.445 92.652C138.188 92.1832 139.052 91.9489 140.037 91.9489C141.022 91.9489 141.884 92.1832 142.622 92.652C143.366 93.1207 143.943 93.7789 144.355 94.6264C144.772 95.474 144.98 96.4659 144.98 97.6023C144.98 98.7292 144.772 99.714 144.355 100.557C143.943 101.4 143.366 102.055 142.622 102.524C141.884 102.993 141.022 103.227 140.037 103.227ZM140.037 101.722C140.785 101.722 141.401 101.53 141.884 101.146C142.367 100.763 142.724 100.259 142.956 99.6335C143.188 99.0085 143.304 98.3314 143.304 97.6023C143.304 96.8731 143.188 96.1937 142.956 95.5639C142.724 94.9342 142.367 94.4252 141.884 94.0369C141.401 93.6487 140.785 93.4545 140.037 93.4545C139.289 93.4545 138.674 93.6487 138.191 94.0369C137.708 94.4252 137.35 94.9342 137.118 95.5639C136.886 96.1937 136.77 96.8731 136.77 97.6023C136.77 98.3314 136.886 99.0085 137.118 99.6335C137.35 100.259 137.708 100.763 138.191 101.146C138.674 101.53 139.289 101.722 140.037 101.722ZM149.726 98.9091V98.8239C149.736 97.9195 149.831 97.1998 150.011 96.6648C150.19 96.1297 150.446 95.6965 150.778 95.3651C151.109 95.0336 151.507 94.7282 151.971 94.4489C152.25 94.2784 152.501 94.0772 152.724 93.8452C152.946 93.6084 153.121 93.3362 153.249 93.0284C153.382 92.7206 153.448 92.3797 153.448 92.0057C153.448 91.5417 153.339 91.1392 153.121 90.7983C152.904 90.4574 152.612 90.1946 152.248 90.0099C151.883 89.8253 151.478 89.733 151.033 89.733C150.645 89.733 150.271 89.8134 149.911 89.9744C149.551 90.1354 149.251 90.3887 149.009 90.7344C148.768 91.08 148.628 91.5322 148.59 92.0909H146.8C146.838 91.286 147.047 90.5971 147.425 90.0241C147.809 89.4512 148.313 89.0133 148.938 88.7102C149.568 88.4072 150.266 88.2557 151.033 88.2557C151.867 88.2557 152.591 88.4214 153.207 88.7528C153.827 89.0843 154.305 89.5388 154.641 90.1165C154.982 90.6941 155.153 91.3523 155.153 92.0909C155.153 92.6117 155.072 93.0829 154.911 93.5043C154.755 93.9257 154.528 94.3021 154.229 94.6335C153.936 94.965 153.581 95.2585 153.164 95.5142C152.747 95.7746 152.414 96.0492 152.163 96.3381C151.912 96.6222 151.729 96.9607 151.616 97.3537C151.502 97.7467 151.44 98.2367 151.431 98.8239V98.9091H149.726ZM150.636 103.114C150.285 103.114 149.985 102.988 149.734 102.737C149.483 102.486 149.357 102.186 149.357 101.835C149.357 101.485 149.483 101.184 149.734 100.933C149.985 100.682 150.285 100.557 150.636 100.557C150.986 100.557 151.287 100.682 151.538 100.933C151.789 101.184 151.914 101.485 151.914 101.835C151.914 102.067 151.855 102.28 151.736 102.474C151.623 102.669 151.469 102.825 151.275 102.943C151.085 103.057 150.872 103.114 150.636 103.114Z" fill="black"/>
<path d="M276.616 90.2134V99.668H275.471V91.4137H275.416L273.108 92.9464V91.783L275.471 90.2134H276.616ZM282.104 99.7972C281.47 99.7972 280.909 99.6849 280.423 99.4602C279.94 99.2325 279.563 98.9201 279.292 98.5231C279.021 98.123 278.887 97.6675 278.89 97.1566C278.887 96.7565 278.966 96.3872 279.126 96.0487C279.286 95.707 279.504 95.4223 279.781 95.1946C280.062 94.9638 280.374 94.8176 280.719 94.756V94.7006C280.266 94.5837 279.906 94.3298 279.638 93.9389C279.371 93.545 279.238 93.0972 279.241 92.5955C279.238 92.1154 279.36 91.6861 279.606 91.3075C279.852 90.929 280.191 90.6304 280.622 90.4119C281.056 90.1934 281.55 90.0842 282.104 90.0842C282.651 90.0842 283.141 90.1934 283.572 90.4119C284.002 90.6304 284.341 90.929 284.587 91.3075C284.837 91.6861 284.963 92.1154 284.966 92.5955C284.963 93.0972 284.826 93.545 284.555 93.9389C284.287 94.3298 283.932 94.5837 283.488 94.7006V94.756C283.83 94.8176 284.138 94.9638 284.412 95.1946C284.686 95.4223 284.904 95.707 285.067 96.0487C285.23 96.3872 285.314 96.7565 285.317 97.1566C285.314 97.6675 285.175 98.123 284.901 98.5231C284.63 98.9201 284.253 99.2325 283.77 99.4602C283.29 99.6849 282.734 99.7972 282.104 99.7972ZM282.104 98.7816C282.531 98.7816 282.901 98.7124 283.212 98.5739C283.522 98.4354 283.762 98.2399 283.932 97.9876C284.101 97.7352 284.187 97.4397 284.19 97.1012C284.187 96.7442 284.095 96.4287 283.913 96.1548C283.732 95.8809 283.484 95.6655 283.17 95.5085C282.859 95.3516 282.504 95.2731 282.104 95.2731C281.7 95.2731 281.34 95.3516 281.023 95.5085C280.709 95.6655 280.462 95.8809 280.28 96.1548C280.102 96.4287 280.014 96.7442 280.017 97.1012C280.014 97.4397 280.095 97.7352 280.262 97.9876C280.431 98.2399 280.672 98.4354 280.986 98.5739C281.3 98.7124 281.673 98.7816 282.104 98.7816ZM282.104 94.2944C282.442 94.2944 282.742 94.2267 283.004 94.0913C283.268 93.9558 283.476 93.7666 283.627 93.5234C283.778 93.2803 283.855 92.9956 283.858 92.6694C283.855 92.3493 283.779 92.0708 283.632 91.8338C283.484 91.5937 283.279 91.4091 283.018 91.2798C282.756 91.1475 282.451 91.0813 282.104 91.0813C281.75 91.0813 281.44 91.1475 281.176 91.2798C280.911 91.4091 280.706 91.5937 280.562 91.8338C280.417 92.0708 280.346 92.3493 280.349 92.6694C280.346 92.9956 280.419 93.2803 280.566 93.5234C280.717 93.7666 280.925 93.9558 281.189 94.0913C281.454 94.2267 281.759 94.2944 282.104 94.2944ZM287.638 98.4585C287.411 98.4585 287.215 98.3769 287.052 98.2138C286.889 98.0507 286.807 97.8552 286.807 97.6275C286.807 97.3997 286.889 97.2043 287.052 97.0412C287.215 96.8781 287.411 96.7965 287.638 96.7965C287.866 96.7965 288.062 96.8781 288.225 97.0412C288.388 97.2043 288.469 97.3997 288.469 97.6275C288.469 97.7783 288.431 97.9168 288.354 98.043C288.28 98.1692 288.18 98.2707 288.054 98.3477C287.931 98.4215 287.792 98.4585 287.638 98.4585ZM287.638 93.6758C287.411 93.6758 287.215 93.5942 287.052 93.4311C286.889 93.268 286.807 93.0726 286.807 92.8448C286.807 92.6171 286.889 92.4216 287.052 92.2585C287.215 92.0954 287.411 92.0138 287.638 92.0138C287.866 92.0138 288.062 92.0954 288.225 92.2585C288.388 92.4216 288.469 92.6171 288.469 92.8448C288.469 92.9956 288.431 93.1341 288.354 93.2603C288.28 93.3865 288.18 93.488 288.054 93.565C287.931 93.6388 287.792 93.6758 287.638 93.6758ZM293.101 99.7972C292.559 99.7972 292.071 99.6895 291.637 99.4741C291.203 99.2586 290.855 98.9632 290.594 98.5877C290.332 98.2122 290.189 97.7844 290.164 97.3043H291.272C291.315 97.7321 291.509 98.0861 291.854 98.3661C292.202 98.6431 292.617 98.7816 293.101 98.7816C293.488 98.7816 293.833 98.6908 294.135 98.5092C294.439 98.3277 294.678 98.0784 294.85 97.7614C295.026 97.4413 295.113 97.0797 295.113 96.6765C295.113 96.2641 295.022 95.8963 294.841 95.5732C294.662 95.2469 294.416 94.9899 294.102 94.8022C293.788 94.6145 293.43 94.5191 293.027 94.516C292.737 94.5129 292.44 94.5575 292.136 94.6499C291.831 94.7391 291.58 94.8545 291.383 94.9961L290.312 94.8668L290.885 90.2134H295.797V91.229H291.845L291.512 94.0174H291.568C291.762 93.8635 292.005 93.7358 292.297 93.6342C292.59 93.5327 292.894 93.4819 293.211 93.4819C293.79 93.4819 294.305 93.6204 294.758 93.8974C295.213 94.1713 295.57 94.5468 295.829 95.0238C296.09 95.5008 296.221 96.0456 296.221 96.658C296.221 97.2612 296.086 97.7998 295.815 98.2738C295.547 98.7447 295.178 99.1171 294.707 99.391C294.236 99.6618 293.701 99.7972 293.101 99.7972ZM300.934 99.7972C300.547 99.7911 300.159 99.7172 299.771 99.5756C299.383 99.4341 299.029 99.1955 298.709 98.8601C298.389 98.5215 298.132 98.0645 297.938 97.489C297.744 96.9104 297.647 96.1841 297.647 95.31C297.647 94.4729 297.726 93.7312 297.883 93.0849C298.04 92.4355 298.268 91.8892 298.566 91.446C298.865 90.9998 299.225 90.6612 299.646 90.4304C300.071 90.1996 300.55 90.0842 301.082 90.0842C301.611 90.0842 302.082 90.1903 302.495 90.4027C302.91 90.612 303.249 90.9044 303.51 91.2798C303.772 91.6553 303.941 92.0877 304.018 92.5771H302.892C302.787 92.1523 302.584 91.8 302.282 91.5199C301.981 91.2398 301.581 91.0998 301.082 91.0998C300.35 91.0998 299.773 91.4183 299.351 92.0554C298.932 92.6925 298.722 93.5865 298.718 94.7376H298.792C298.965 94.476 299.169 94.2528 299.406 94.0682C299.646 93.8804 299.911 93.7358 300.2 93.6342C300.49 93.5327 300.796 93.4819 301.119 93.4819C301.661 93.4819 302.156 93.6173 302.606 93.8881C303.055 94.1559 303.415 94.5268 303.686 95.0007C303.957 95.4716 304.092 96.0117 304.092 96.6211C304.092 97.2058 303.961 97.7414 303.7 98.2276C303.438 98.7108 303.07 99.0955 302.596 99.3817C302.125 99.6649 301.571 99.8034 300.934 99.7972ZM300.934 98.7816C301.322 98.7816 301.67 98.6847 301.978 98.4908C302.289 98.2969 302.533 98.0368 302.712 97.7106C302.893 97.3844 302.984 97.0212 302.984 96.6211C302.984 96.2302 302.896 95.8748 302.721 95.5547C302.549 95.2315 302.31 94.9746 302.005 94.7837C301.704 94.5929 301.359 94.4975 300.971 94.4975C300.679 94.4975 300.407 94.556 300.154 94.6729C299.902 94.7868 299.68 94.9438 299.489 95.1438C299.302 95.3439 299.154 95.5732 299.046 95.8317C298.938 96.0871 298.885 96.3564 298.885 96.6396C298.885 97.015 298.972 97.3659 299.148 97.6921C299.326 98.0183 299.569 98.2815 299.877 98.4815C300.188 98.6816 300.54 98.7816 300.934 98.7816Z" fill="#4200FF"/>
<path fill-rule="evenodd" clip-rule="evenodd" d="M322.168 90.021C322.396 90.2405 322.402 90.6029 322.183 90.8303L313.274 100.056C313.164 100.171 313.011 100.234 312.852 100.231C312.692 100.228 312.542 100.159 312.436 100.04L308.459 95.5861C308.248 95.3503 308.269 94.9884 308.505 94.7779C308.74 94.5674 309.102 94.5879 309.313 94.8237L312.879 98.8179L321.359 90.0352C321.579 89.8077 321.941 89.8014 322.168 90.021Z" fill="#4200FF"/>
<path fill-rule="evenodd" clip-rule="evenodd" d="M325.168 90.021C325.396 90.2405 325.402 90.6029 325.183 90.8303L316.274 100.056C316.164 100.171 316.011 100.234 315.852 100.231C315.692 100.228 315.542 100.159 315.436 100.04L311.459 95.5861C311.248 95.3503 311.269 94.9884 311.505 94.7779C311.74 94.5674 312.102 94.5879 312.313 94.8237L315.879 98.8179L324.359 90.0352C324.579 89.8077 324.941 89.8014 325.168 90.021Z" fill="#4200FF"/>
</g>
<defs>
<clipPath id="clip0_3347_2360">
<rect width="425" height="276" rx="15" fill="white"/>
</clipPath>
</defs>
</svg>
