<svg width="654" height="276" viewBox="0 0 654 276" fill="none" xmlns="http://www.w3.org/2000/svg">
<g clip-path="url(#clip0_3347_2346)">
<rect width="654" height="276" rx="15" fill="white"/>
<path opacity="0.8" fill-rule="evenodd" clip-rule="evenodd" d="M310.521 46.0269C310.54 46.4606 310.54 46.9738 310.54 48C310.54 49.0262 310.54 49.5394 310.521 49.9731C310.071 60.2788 301.819 68.5311 291.513 68.9811C291.079 69 290.566 69 289.54 69H49.4491C46.6495 69 45.2496 69 44.0729 68.8593C41.188 68.5144 38.4964 67.5589 36.1301 66.1249C35.2637 66.6333 34.2922 67.126 33.2773 67.5032C29.0059 69.0904 18 68.9991 18 68.9991C18 68.9991 24.0061 67.5032 26.2381 60.6862C26.6309 59.4865 26.9061 56.7512 27.0968 53.7831C26.9145 53.0273 26.7748 52.2544 26.6807 51.4671C26.54 50.2904 26.54 48.8906 26.54 46.0909C26.54 43.7579 26.54 42.5913 26.6573 41.6107C27.5656 34.0141 33.5541 28.0255 41.1508 27.1172C42.1314 27 43.2979 27 45.631 27H289.54C290.566 27 291.079 27 291.513 27.0189C301.819 27.4689 310.071 35.7212 310.521 46.0269Z" fill="#D4C5FF"/>
<path d="M250.259 49.3531V58.8076H249.114V50.5534H249.058L246.75 52.086V50.9227L249.114 49.3531H250.259ZM255.728 49.2238C256.115 49.2269 256.503 49.3008 256.891 49.4454C257.279 49.5901 257.633 49.8301 257.953 50.1656C258.273 50.498 258.53 50.9519 258.724 51.5274C258.918 52.103 259.015 52.8247 259.015 53.6926C259.015 54.5328 258.935 55.2791 258.775 55.9316C258.618 56.5809 258.39 57.1288 258.091 57.575C257.796 58.0213 257.436 58.3598 257.011 58.5906C256.589 58.8215 256.112 58.9369 255.58 58.9369C255.051 58.9369 254.578 58.8322 254.163 58.623C253.75 58.4106 253.412 58.1167 253.147 57.7412C252.885 57.3627 252.718 56.9241 252.644 56.4255H253.77C253.872 56.8595 254.073 57.218 254.375 57.5012C254.68 57.7812 255.081 57.9213 255.58 57.9213C256.309 57.9213 256.885 57.6027 257.306 56.9656C257.731 56.3286 257.944 55.4284 257.944 54.265H257.87C257.697 54.5235 257.493 54.7467 257.256 54.9344C257.019 55.1221 256.756 55.2668 256.466 55.3683C256.177 55.4699 255.869 55.5207 255.543 55.5207C255.001 55.5207 254.504 55.3868 254.052 55.1191C253.603 54.8482 253.242 54.4774 252.972 54.0065C252.704 53.5325 252.57 52.9909 252.57 52.3815C252.57 51.8029 252.699 51.2735 252.958 50.7934C253.219 50.3102 253.586 49.9255 254.056 49.6393C254.53 49.3531 255.088 49.2146 255.728 49.2238ZM255.728 50.2394C255.34 50.2394 254.991 50.3364 254.68 50.5303C254.372 50.7211 254.127 50.9796 253.946 51.3058C253.767 51.629 253.678 51.9875 253.678 52.3815C253.678 52.7754 253.764 53.134 253.936 53.4571C254.112 53.7772 254.35 54.0326 254.652 54.2235C254.957 54.4112 255.303 54.5051 255.691 54.5051C255.983 54.5051 256.255 54.4481 256.508 54.3343C256.76 54.2173 256.98 54.0588 257.168 53.8588C257.359 53.6556 257.508 53.4263 257.616 53.1709C257.724 52.9124 257.777 52.6431 257.777 52.363C257.777 51.9937 257.688 51.6475 257.51 51.3243C257.334 51.0012 257.091 50.7396 256.78 50.5395C256.472 50.3395 256.122 50.2394 255.728 50.2394ZM261.383 57.5981C261.155 57.5981 260.959 57.5165 260.796 57.3534C260.633 57.1903 260.552 56.9949 260.552 56.7671C260.552 56.5394 260.633 56.344 260.796 56.1808C260.959 56.0177 261.155 55.9362 261.383 55.9362C261.61 55.9362 261.806 56.0177 261.969 56.1808C262.132 56.344 262.213 56.5394 262.213 56.7671C262.213 56.9179 262.175 57.0564 262.098 57.1826C262.024 57.3088 261.924 57.4104 261.798 57.4873C261.675 57.5612 261.536 57.5981 261.383 57.5981ZM261.383 52.8154C261.155 52.8154 260.959 52.7339 260.796 52.5708C260.633 52.4076 260.552 52.2122 260.552 51.9845C260.552 51.7567 260.633 51.5613 260.796 51.3982C260.959 51.2351 261.155 51.1535 261.383 51.1535C261.61 51.1535 261.806 51.2351 261.969 51.3982C262.132 51.5613 262.213 51.7567 262.213 51.9845C262.213 52.1353 262.175 52.2738 262.098 52.3999C262.024 52.5261 261.924 52.6277 261.798 52.7046C261.675 52.7785 261.536 52.8154 261.383 52.8154ZM267.214 49.3531V58.8076H266.069V50.5534H266.014L263.705 52.086V50.9227L266.069 49.3531H267.214ZM272.997 49.3531V58.8076H271.852V50.5534H271.797L269.488 52.086V50.9227L271.852 49.3531H272.997Z" fill="#4200FF"/>
<path d="M56.9901 47.7273C56.9901 49.2614 56.7132 50.5871 56.1592 51.7045C55.6052 52.822 54.8453 53.6837 53.8794 54.2898C52.9134 54.8958 51.8102 55.1989 50.5697 55.1989C49.3292 55.1989 48.2259 54.8958 47.26 54.2898C46.2941 53.6837 45.5342 52.822 44.9802 51.7045C44.4262 50.5871 44.1492 49.2614 44.1492 47.7273C44.1492 46.1932 44.4262 44.8674 44.9802 43.75C45.5342 42.6326 46.2941 41.7708 47.26 41.1648C48.2259 40.5587 49.3292 40.2557 50.5697 40.2557C51.8102 40.2557 52.9134 40.5587 53.8794 41.1648C54.8453 41.7708 55.6052 42.6326 56.1592 43.75C56.7132 44.8674 56.9901 46.1932 56.9901 47.7273ZM55.2856 47.7273C55.2856 46.4678 55.0749 45.4048 54.6535 44.5384C54.2368 43.6719 53.671 43.0161 52.9561 42.571C52.2458 42.1259 51.4504 41.9034 50.5697 41.9034C49.689 41.9034 48.8912 42.1259 48.1762 42.571C47.466 43.0161 46.9002 43.6719 46.4788 44.5384C46.0621 45.4048 45.8538 46.4678 45.8538 47.7273C45.8538 48.9867 46.0621 50.0497 46.4788 50.9162C46.9002 51.7827 47.466 52.4384 48.1762 52.8835C48.8912 53.3286 49.689 53.5511 50.5697 53.5511C51.4504 53.5511 52.2458 53.3286 52.9561 52.8835C53.671 52.4384 54.2368 51.7827 54.6535 50.9162C55.0749 50.0497 55.2856 48.9867 55.2856 47.7273ZM73.7586 44.0909V55H72.0825V44.0909H73.7586ZM73.1052 49.2898V50.8523C72.7264 50.9943 72.35 51.1198 71.9759 51.2287C71.6019 51.3329 71.2089 51.4157 70.797 51.4773C70.385 51.5341 69.9329 51.5625 69.4404 51.5625C68.2046 51.5625 67.2127 51.2287 66.4646 50.5611C65.7212 49.8935 65.3495 48.892 65.3495 47.5568V44.0625H67.0257V47.5568C67.0257 48.1155 67.1322 48.5748 67.3453 48.9347C67.5583 49.2945 67.8472 49.562 68.2117 49.7372C68.5763 49.9124 68.9859 50 69.4404 50C70.1507 50 70.7922 49.9361 71.3651 49.8082C71.9428 49.6757 72.5228 49.5028 73.1052 49.2898ZM81.4078 55.2273C80.3566 55.2273 79.4499 54.9953 78.6876 54.5312C77.93 54.0625 77.3453 53.4091 76.9333 52.571C76.5261 51.7282 76.3225 50.7481 76.3225 49.6307C76.3225 48.5133 76.5261 47.5284 76.9333 46.6761C77.3453 45.8191 77.9182 45.1515 78.6521 44.6733C79.3907 44.1903 80.2525 43.9489 81.2373 43.9489C81.8055 43.9489 82.3666 44.0436 82.9205 44.233C83.4745 44.4223 83.9788 44.7301 84.4333 45.1562C84.8879 45.5777 85.2501 46.1364 85.52 46.8324C85.7899 47.5284 85.9248 48.3854 85.9248 49.4034V50.1136H77.5157V48.6648H84.2203C84.2203 48.0492 84.0972 47.5 83.8509 47.017C83.6095 46.5341 83.2638 46.1529 82.814 45.8736C82.3689 45.5942 81.8434 45.4545 81.2373 45.4545C80.5697 45.4545 79.992 45.6203 79.5044 45.9517C79.0214 46.2784 78.6497 46.7045 78.3893 47.2301C78.1289 47.7557 77.9987 48.3191 77.9987 48.9205V49.8864C77.9987 50.7102 78.1407 51.4086 78.4248 51.9815C78.7136 52.5497 79.1137 52.983 79.6251 53.2812C80.1365 53.5748 80.7307 53.7216 81.4078 53.7216C81.8481 53.7216 82.2458 53.66 82.6009 53.5369C82.9608 53.4091 83.2709 53.2197 83.5313 52.9688C83.7918 52.7131 83.993 52.3958 84.135 52.017L85.7544 52.4716C85.5839 53.0208 85.2974 53.5038 84.895 53.9205C84.4925 54.3324 83.9954 54.6544 83.4035 54.8864C82.8116 55.1136 82.1464 55.2273 81.4078 55.2273ZM79.1066 42.2727C78.8083 42.2727 78.5432 42.1591 78.3112 41.9318C78.0839 41.6998 77.9703 41.4347 77.9703 41.1364C77.9703 40.8097 78.0839 40.5398 78.3112 40.3267C78.5432 40.1089 78.8083 40 79.1066 40C79.4333 40 79.7032 40.1089 79.9163 40.3267C80.1341 40.5398 80.243 40.8097 80.243 41.1364C80.243 41.4347 80.1341 41.6998 79.9163 41.9318C79.7032 42.1591 79.4333 42.2727 79.1066 42.2727ZM83.1975 42.2727C82.8992 42.2727 82.6341 42.1591 82.4021 41.9318C82.1748 41.6998 82.0612 41.4347 82.0612 41.1364C82.0612 40.8097 82.1748 40.5398 82.4021 40.3267C82.6341 40.1089 82.8992 40 83.1975 40C83.5242 40 83.7941 40.1089 84.0072 40.3267C84.225 40.5398 84.3339 40.8097 84.3339 41.1364C84.3339 41.4347 84.225 41.6998 84.0072 41.9318C83.7941 42.1591 83.5242 42.2727 83.1975 42.2727ZM94.4404 52.7273L98.2472 44.0909H99.8382L95.1222 55H93.7586L89.1279 44.0909H90.6904L94.4404 52.7273ZM90.1507 44.0909V55H88.4745V44.0909H90.1507ZM98.7302 55V44.0909H100.406V55H98.7302ZM109.1 55V44.0909H113.56C114.734 44.0909 115.667 44.3561 116.358 44.8864C117.049 45.4167 117.395 46.1174 117.395 46.9886C117.395 47.6515 117.198 48.1652 116.805 48.5298C116.412 48.8897 115.908 49.1335 115.293 49.2614C115.695 49.3182 116.086 49.4602 116.465 49.6875C116.848 49.9148 117.165 50.2273 117.416 50.625C117.667 51.018 117.793 51.5009 117.793 52.0739C117.793 52.6326 117.651 53.1321 117.367 53.5724C117.082 54.0128 116.675 54.3608 116.145 54.6165C115.615 54.8722 114.98 55 114.242 55H109.1ZM110.69 53.4659H114.242C114.819 53.4659 115.271 53.3286 115.598 53.054C115.925 52.7794 116.088 52.4053 116.088 51.9318C116.088 51.3684 115.925 50.9257 115.598 50.6037C115.271 50.277 114.819 50.1136 114.242 50.1136H110.69V53.4659ZM110.69 48.6648H113.56C114.01 48.6648 114.395 48.6032 114.717 48.4801C115.039 48.3523 115.286 48.1723 115.456 47.9403C115.631 47.7036 115.719 47.4242 115.719 47.1023C115.719 46.643 115.527 46.2831 115.144 46.0227C114.76 45.7576 114.232 45.625 113.56 45.625H110.69V48.6648ZM123.54 55.2557C122.849 55.2557 122.222 55.1255 121.658 54.8651C121.095 54.5999 120.647 54.2188 120.316 53.7216C119.984 53.2197 119.819 52.6136 119.819 51.9034C119.819 51.2784 119.942 50.7718 120.188 50.3835C120.434 49.9905 120.763 49.6828 121.175 49.4602C121.587 49.2377 122.042 49.072 122.539 48.9631C123.041 48.8494 123.545 48.7595 124.052 48.6932C124.714 48.608 125.252 48.544 125.664 48.5014C126.08 48.4541 126.383 48.3759 126.573 48.267C126.767 48.1581 126.864 47.9687 126.864 47.6989V47.642C126.864 46.9413 126.672 46.3968 126.289 46.0085C125.91 45.6203 125.335 45.4261 124.563 45.4261C123.763 45.4261 123.135 45.6013 122.681 45.9517C122.226 46.3021 121.907 46.6761 121.722 47.0739L120.131 46.5057C120.415 45.8428 120.794 45.3267 121.267 44.9574C121.746 44.5833 122.267 44.3229 122.83 44.1761C123.398 44.0246 123.957 43.9489 124.506 43.9489C124.857 43.9489 125.259 43.9915 125.714 44.0767C126.173 44.1572 126.616 44.3253 127.042 44.581C127.473 44.8366 127.83 45.2225 128.114 45.7386C128.398 46.2547 128.54 46.946 128.54 47.8125V55H126.864V53.5227H126.779C126.665 53.7595 126.476 54.0128 126.211 54.2827C125.946 54.5526 125.593 54.7822 125.152 54.9716C124.712 55.161 124.175 55.2557 123.54 55.2557ZM123.796 53.75C124.459 53.75 125.017 53.6198 125.472 53.3594C125.931 53.099 126.277 52.7628 126.509 52.3509C126.746 51.9389 126.864 51.5057 126.864 51.0511V49.517C126.793 49.6023 126.637 49.6804 126.395 49.7514C126.159 49.8177 125.884 49.8769 125.571 49.929C125.264 49.9763 124.963 50.0189 124.669 50.0568C124.381 50.09 124.146 50.1184 123.966 50.142C123.531 50.1989 123.124 50.2912 122.745 50.419C122.371 50.5421 122.068 50.7292 121.836 50.9801C121.608 51.2263 121.495 51.5625 121.495 51.9886C121.495 52.571 121.71 53.0114 122.141 53.3097C122.577 53.6032 123.128 53.75 123.796 53.75ZM131.6 44.0909H133.276V53.4375H137.395V44.0909H139.071V53.4375H143.19V44.0909H144.867V55H131.6V44.0909ZM152.502 55.2273C151.45 55.2273 150.544 54.9953 149.781 54.5312C149.024 54.0625 148.439 53.4091 148.027 52.571C147.62 51.7282 147.416 50.7481 147.416 49.6307C147.416 48.5133 147.62 47.5284 148.027 46.6761C148.439 45.8191 149.012 45.1515 149.746 44.6733C150.484 44.1903 151.346 43.9489 152.331 43.9489C152.899 43.9489 153.46 44.0436 154.014 44.233C154.568 44.4223 155.073 44.7301 155.527 45.1562C155.982 45.5777 156.344 46.1364 156.614 46.8324C156.884 47.5284 157.019 48.3854 157.019 49.4034V50.1136H148.609V48.6648H155.314C155.314 48.0492 155.191 47.5 154.945 47.017C154.703 46.5341 154.358 46.1529 153.908 45.8736C153.463 45.5942 152.937 45.4545 152.331 45.4545C151.663 45.4545 151.086 45.6203 150.598 45.9517C150.115 46.2784 149.743 46.7045 149.483 47.2301C149.223 47.7557 149.092 48.3191 149.092 48.9205V49.8864C149.092 50.7102 149.234 51.4086 149.519 51.9815C149.807 52.5497 150.207 52.983 150.719 53.2812C151.23 53.5748 151.824 53.7216 152.502 53.7216C152.942 53.7216 153.34 53.66 153.695 53.5369C154.055 53.4091 154.365 53.2197 154.625 52.9688C154.886 52.7131 155.087 52.3958 155.229 52.017L156.848 52.4716C156.678 53.0208 156.391 53.5038 155.989 53.9205C155.586 54.3324 155.089 54.6544 154.497 54.8864C153.905 55.1136 153.24 55.2273 152.502 55.2273ZM171.159 52.7273L174.966 44.0909H176.557L171.841 55H170.477L165.847 44.0909H167.409L171.159 52.7273ZM166.869 44.0909V55H165.193V44.0909H166.869ZM175.449 55V44.0909H177.125V55H175.449ZM184.767 55.2273C183.716 55.2273 182.809 54.9953 182.047 54.5312C181.289 54.0625 180.705 53.4091 180.293 52.571C179.886 51.7282 179.682 50.7481 179.682 49.6307C179.682 48.5133 179.886 47.5284 180.293 46.6761C180.705 45.8191 181.278 45.1515 182.011 44.6733C182.75 44.1903 183.612 43.9489 184.597 43.9489C185.165 43.9489 185.726 44.0436 186.28 44.233C186.834 44.4223 187.338 44.7301 187.793 45.1562C188.247 45.5777 188.609 46.1364 188.879 46.8324C189.149 47.5284 189.284 48.3854 189.284 49.4034V50.1136H180.875V48.6648H187.58C187.58 48.0492 187.457 47.5 187.21 47.017C186.969 46.5341 186.623 46.1529 186.173 45.8736C185.728 45.5942 185.203 45.4545 184.597 45.4545C183.929 45.4545 183.351 45.6203 182.864 45.9517C182.381 46.2784 182.009 46.7045 181.749 47.2301C181.488 47.7557 181.358 48.3191 181.358 48.9205V49.8864C181.358 50.7102 181.5 51.4086 181.784 51.9815C182.073 52.5497 182.473 52.983 182.984 53.2812C183.496 53.5748 184.09 53.7216 184.767 53.7216C185.207 53.7216 185.605 53.66 185.96 53.5369C186.32 53.4091 186.63 53.2197 186.891 52.9688C187.151 52.7131 187.352 52.3958 187.494 52.017L189.114 52.4716C188.943 53.0208 188.657 53.5038 188.254 53.9205C187.852 54.3324 187.355 54.6544 186.763 54.8864C186.171 55.1136 185.506 55.2273 184.767 55.2273ZM190.669 58.125V53.4375H191.578C191.801 53.2055 191.993 52.9545 192.153 52.6847C192.314 52.4148 192.454 52.0952 192.573 51.7259C192.696 51.3518 192.8 50.8973 192.885 50.3622C192.97 49.8224 193.046 49.1714 193.112 48.4091L193.482 44.0909H200.413V53.4375H202.09V58.125H200.413V55H192.345V58.125H190.669ZM193.482 53.4375H198.737V45.6534H195.044L194.76 48.4091C194.642 49.5502 194.495 50.5469 194.32 51.3991C194.145 52.2514 193.865 52.9309 193.482 53.4375ZM205.991 52.5284L211.246 44.0909H213.178V55H211.502V46.5625L206.275 55H204.314V44.0909H205.991V52.5284ZM219.458 55.2557C218.767 55.2557 218.14 55.1255 217.576 54.8651C217.013 54.5999 216.565 54.2188 216.234 53.7216C215.902 53.2197 215.737 52.6136 215.737 51.9034C215.737 51.2784 215.86 50.7718 216.106 50.3835C216.352 49.9905 216.681 49.6828 217.093 49.4602C217.505 49.2377 217.96 49.072 218.457 48.9631C218.959 48.8494 219.463 48.7595 219.97 48.6932C220.632 48.608 221.17 48.544 221.582 48.5014C221.998 48.4541 222.301 48.3759 222.491 48.267C222.685 48.1581 222.782 47.9687 222.782 47.6989V47.642C222.782 46.9413 222.59 46.3968 222.207 46.0085C221.828 45.6203 221.253 45.4261 220.481 45.4261C219.681 45.4261 219.053 45.6013 218.599 45.9517C218.144 46.3021 217.825 46.6761 217.64 47.0739L216.049 46.5057C216.333 45.8428 216.712 45.3267 217.185 44.9574C217.664 44.5833 218.185 44.3229 218.748 44.1761C219.316 44.0246 219.875 43.9489 220.424 43.9489C220.774 43.9489 221.177 43.9915 221.631 44.0767C222.091 44.1572 222.533 44.3253 222.96 44.581C223.39 44.8366 223.748 45.2225 224.032 45.7386C224.316 46.2547 224.458 46.946 224.458 47.8125V55H222.782V53.5227H222.697C222.583 53.7595 222.394 54.0128 222.129 54.2827C221.863 54.5526 221.511 54.7822 221.07 54.9716C220.63 55.161 220.093 55.2557 219.458 55.2557ZM219.714 53.75C220.377 53.75 220.935 53.6198 221.39 53.3594C221.849 53.099 222.195 52.7628 222.427 52.3509C222.664 51.9389 222.782 51.5057 222.782 51.0511V49.517C222.711 49.6023 222.555 49.6804 222.313 49.7514C222.077 49.8177 221.802 49.8769 221.489 49.929C221.182 49.9763 220.881 50.0189 220.587 50.0568C220.299 50.09 220.064 50.1184 219.884 50.142C219.449 50.1989 219.042 50.2912 218.663 50.419C218.289 50.5421 217.986 50.7292 217.754 50.9801C217.526 51.2263 217.413 51.5625 217.413 51.9886C217.413 52.571 217.628 53.0114 218.059 53.3097C218.495 53.6032 219.046 53.75 219.714 53.75ZM229.705 50.9091V50.8239C229.714 49.9195 229.809 49.1998 229.989 48.6648C230.169 48.1297 230.425 47.6965 230.756 47.3651C231.088 47.0336 231.485 46.7282 231.949 46.4489C232.229 46.2784 232.48 46.0772 232.702 45.8452C232.925 45.6084 233.1 45.3362 233.228 45.0284C233.36 44.7206 233.427 44.3797 233.427 44.0057C233.427 43.5417 233.318 43.1392 233.1 42.7983C232.882 42.4574 232.591 42.1946 232.226 42.0099C231.862 41.8253 231.457 41.733 231.012 41.733C230.624 41.733 230.249 41.8134 229.89 41.9744C229.53 42.1354 229.229 42.3887 228.988 42.7344C228.746 43.08 228.607 43.5322 228.569 44.0909H226.779C226.817 43.286 227.025 42.5971 227.404 42.0241C227.787 41.4512 228.292 41.0133 228.917 40.7102C229.546 40.4072 230.245 40.2557 231.012 40.2557C231.845 40.2557 232.57 40.4214 233.185 40.7528C233.805 41.0843 234.284 41.5388 234.62 42.1165C234.961 42.6941 235.131 43.3523 235.131 44.0909C235.131 44.6117 235.051 45.0829 234.89 45.5043C234.733 45.9257 234.506 46.3021 234.208 46.6335C233.914 46.965 233.559 47.2585 233.142 47.5142C232.726 47.7746 232.392 48.0492 232.141 48.3381C231.89 48.6222 231.708 48.9607 231.594 49.3537C231.481 49.7467 231.419 50.2367 231.41 50.8239V50.9091H229.705ZM230.614 55.1136C230.264 55.1136 229.963 54.9882 229.712 54.7372C229.461 54.4863 229.336 54.1856 229.336 53.8352C229.336 53.4848 229.461 53.1842 229.712 52.9332C229.963 52.6823 230.264 52.5568 230.614 52.5568C230.964 52.5568 231.265 52.6823 231.516 52.9332C231.767 53.1842 231.892 53.4848 231.892 53.8352C231.892 54.0672 231.833 54.2803 231.715 54.4744C231.601 54.6686 231.447 54.8248 231.253 54.9432C231.064 55.0568 230.851 55.1136 230.614 55.1136Z" fill="black"/>
<path fill-rule="evenodd" clip-rule="evenodd" d="M295.855 49.1606C296.082 49.3802 296.089 49.7425 295.869 49.9699L286.961 59.1961C286.85 59.3106 286.697 59.3739 286.538 59.3708C286.379 59.3677 286.228 59.2985 286.122 59.1798L282.145 54.7257C281.935 54.4899 281.955 54.1281 282.191 53.9176C282.427 53.707 282.789 53.7275 282.999 53.9633L286.566 57.9576L295.046 49.1748C295.265 48.9474 295.628 48.941 295.855 49.1606Z" fill="#4200FF"/>
<path fill-rule="evenodd" clip-rule="evenodd" d="M298.855 49.1606C299.082 49.3802 299.089 49.7425 298.869 49.9699L289.961 59.1961C289.85 59.3106 289.697 59.3739 289.538 59.3708C289.379 59.3677 289.228 59.2985 289.122 59.1798L285.145 54.7257C284.935 54.4899 284.955 54.1281 285.191 53.9176C285.427 53.707 285.789 53.7275 285.999 53.9633L289.566 57.9576L298.046 49.1748C298.265 48.9474 298.628 48.941 298.855 49.1606Z" fill="#4200FF"/>
</g>
<defs>
<clipPath id="clip0_3347_2346">
<rect width="654" height="276" rx="15" fill="white"/>
</clipPath>
</defs>
</svg>
