<svg width="242" height="240" viewBox="0 0 242 240" fill="none" xmlns="http://www.w3.org/2000/svg">
<g clip-path="url(#clip0_2897_3166)">
<rect x="0.442871" y="0.829468" width="241.39" height="238.57" rx="20.9297" fill="#F2F2F2"/>
<path d="M26.6756 29.0604H31.3287L39.3783 48.7258H39.667L47.7335 29.0604H52.4546V54.3639H48.7185V36.057H48.4807L40.9916 54.3299H37.9687L30.5645 36.0401H30.3267L30.3267 54.3639H26.6756V29.0604ZM61.7609 54.7715C60.5608 54.7715 59.4739 54.5507 58.5003 54.1092C57.5266 53.6563 56.7568 52.9997 56.1907 52.1392C55.6246 51.2788 55.3416 50.2315 55.3416 48.9975C55.3416 47.922 55.5454 47.0445 55.9529 46.3653C56.3718 45.6746 56.9322 45.1256 57.6342 44.718C58.3361 44.3104 59.1173 44.0047 59.9777 43.8009C60.8381 43.5972 61.7212 43.4387 62.6269 43.3254C63.7704 43.2009 64.6931 43.0933 65.395 43.0028C66.097 42.9122 66.6064 42.7707 66.9234 42.5782C67.2518 42.3744 67.4159 42.0518 67.4159 41.6102V41.5253C67.4159 40.4498 67.1103 39.6177 66.4989 39.0289C65.8989 38.4402 65.0045 38.1459 63.8157 38.1459C62.5817 38.1459 61.6024 38.4176 60.8778 38.961C60.1645 39.4931 59.672 40.0988 59.4003 40.7781L55.919 39.9799C56.3379 38.8251 56.9436 37.8968 57.7361 37.1949C58.5399 36.4816 59.4569 35.9608 60.4872 35.6325C61.5288 35.3042 62.6156 35.14 63.7478 35.14C64.5063 35.14 65.3101 35.2306 66.1592 35.4117C67.0084 35.5815 67.8065 35.9042 68.5537 36.3797C69.3123 36.8439 69.9293 37.5119 70.4048 38.3836C70.8803 39.2554 71.1181 40.3819 71.1181 41.7631V54.3639H67.5008V51.7656H67.365C67.1386 52.2298 66.7819 52.694 66.2951 53.1582C65.8196 53.6223 65.2082 54.0073 64.461 54.3129C63.7138 54.6186 62.8137 54.7715 61.7609 54.7715ZM62.559 51.8166C63.5893 51.8166 64.4667 51.6184 65.1913 51.2222C65.9158 50.8146 66.4706 50.2825 66.8555 49.6258C67.2405 48.9692 67.4329 48.2729 67.4329 47.537V45.0746C67.2971 45.1991 67.0423 45.318 66.6687 45.4312C66.2951 45.5445 65.8706 45.6407 65.395 45.7199C64.9195 45.7992 64.4554 45.8728 64.0025 45.9407C63.5496 45.9973 63.1704 46.0426 62.8647 46.0766C62.1514 46.1785 61.5005 46.337 60.9117 46.5521C60.323 46.7559 59.8475 47.0615 59.4852 47.4691C59.1343 47.8654 58.9588 48.3918 58.9588 49.0485C58.9588 49.9655 59.2984 50.6561 59.9777 51.1203C60.657 51.5845 61.5174 51.8166 62.559 51.8166ZM82.8018 60.8341V29.0604H86.487V60.8341H82.8018ZM82.8018 54.7545C81.4659 54.7545 80.2432 54.5224 79.1337 54.0582C78.0355 53.5827 77.0845 52.9147 76.2807 52.0543C75.4882 51.1939 74.8711 50.1636 74.4296 48.9635C73.9994 47.7635 73.7843 46.4332 73.7843 44.9727C73.7843 43.5009 73.9994 42.165 74.4296 40.9649C74.8711 39.7535 75.4882 38.7119 76.2807 37.8402C77.0845 36.9684 78.0355 36.3005 79.1337 35.8363C80.2432 35.3721 81.4659 35.14 82.8018 35.14H83.7359V54.7545H82.8018ZM82.8018 51.6467H83.3283V38.2478H82.8018C81.6244 38.2478 80.6451 38.5591 79.8639 39.1818C79.094 39.8045 78.511 40.6253 78.1147 41.6442C77.7298 42.6631 77.5373 43.7726 77.5373 44.9727C77.5373 45.8784 77.6449 46.7332 77.86 47.537C78.0751 48.3295 78.4034 49.0371 78.845 49.6598C79.2865 50.2712 79.8356 50.758 80.4923 51.1203C81.1489 51.4712 81.9188 51.6467 82.8018 51.6467ZM86.487 54.7545H85.5869V35.14H86.487C87.8342 35.14 89.057 35.3721 90.1551 35.8363C91.2646 36.3005 92.2157 36.9684 93.0082 37.8402C93.812 38.7119 94.429 39.7535 94.8592 40.9649C95.2894 42.165 95.5045 43.5009 95.5045 44.9727C95.5045 46.4332 95.2894 47.7635 94.8592 48.9635C94.429 50.1636 93.812 51.1939 93.0082 52.0543C92.2157 52.9147 91.2646 53.5827 90.1551 54.0582C89.057 54.5224 87.8342 54.7545 86.487 54.7545ZM86.487 51.6467C87.3814 51.6467 88.1569 51.4712 88.8135 51.1203C89.4815 50.758 90.0306 50.2712 90.4608 49.6598C90.9024 49.0371 91.2307 48.3295 91.4458 47.537C91.6722 46.7332 91.7854 45.8784 91.7854 44.9727C91.7854 43.7726 91.5873 42.6631 91.1911 41.6442C90.8061 40.6253 90.2231 39.8045 89.4419 39.1818C88.6607 38.5591 87.6757 38.2478 86.487 38.2478H85.9945V51.6467H86.487ZM101.754 49.1673L110.126 35.3778H114.1V54.3639H110.5V40.5573L102.162 54.3639H98.1707V35.3778H101.754V49.1673ZM128.943 54.3639V38.5365H124.374C123.299 38.5478 122.461 38.8025 121.861 39.3007C121.261 39.7988 120.967 40.4554 120.978 41.2706C120.967 42.0744 121.238 42.7254 121.793 43.2235C122.348 43.7104 123.129 43.9538 124.137 43.9538H129.995V46.9427H124.137C122.733 46.9427 121.521 46.7106 120.502 46.2464C119.495 45.7822 118.714 45.1199 118.159 44.2595C117.615 43.399 117.349 42.3858 117.361 41.2196C117.349 40.0309 117.627 39.0006 118.193 38.1289C118.759 37.2571 119.568 36.5835 120.621 36.108C121.674 35.6212 122.925 35.3778 124.374 35.3778H132.407V54.3639H128.943ZM116.478 54.3639L121.827 44.7689H125.614L120.248 54.3639H116.478ZM143.955 54.3639V29.0604H147.776V51.0863H159.239V54.3639H143.955ZM170.023 54.7545C168.166 54.7545 166.558 54.3526 165.2 53.5487C163.841 52.7449 162.794 51.6128 162.058 50.1523C161.333 48.6805 160.971 46.9653 160.971 45.0067C160.971 43.0594 161.328 41.3442 162.041 39.8611C162.765 38.378 163.779 37.2232 165.081 36.3967C166.394 35.5589 167.934 35.14 169.7 35.14C170.775 35.14 171.817 35.3155 172.825 35.6665C173.832 36.0174 174.738 36.5722 175.542 37.3307C176.346 38.0893 176.98 39.0742 177.444 40.2856C177.919 41.497 178.157 42.9575 178.157 44.667V45.9917H163.06V43.2235H176.255L174.54 44.1406C174.54 42.9745 174.359 41.9442 173.996 41.0498C173.634 40.1554 173.091 39.4592 172.366 38.961C171.653 38.4515 170.764 38.1968 169.7 38.1968C168.636 38.1968 167.724 38.4515 166.966 38.961C166.219 39.4705 165.647 40.1441 165.251 40.9819C164.854 41.8197 164.656 42.7367 164.656 43.733V45.618C164.656 46.92 164.883 48.0239 165.335 48.9296C165.788 49.8353 166.417 50.5259 167.22 51.0014C168.036 51.4769 168.981 51.7147 170.057 51.7147C170.758 51.7147 171.392 51.6128 171.959 51.409C172.536 51.2052 173.034 50.8995 173.453 50.4919C173.872 50.0844 174.189 49.5806 174.404 48.9805L177.902 49.6428C177.619 50.6618 177.121 51.5562 176.408 52.326C175.695 53.0959 174.795 53.6959 173.708 54.1261C172.632 54.545 171.404 54.7545 170.023 54.7545ZM186.241 54.7715C185.041 54.7715 183.954 54.5507 182.98 54.1092C182.006 53.6563 181.237 52.9997 180.67 52.1392C180.104 51.2788 179.821 50.2315 179.821 48.9975C179.821 47.922 180.025 47.0445 180.433 46.3653C180.852 45.6746 181.412 45.1256 182.114 44.718C182.816 44.3104 183.597 44.0047 184.457 43.8009C185.318 43.5972 186.201 43.4387 187.107 43.3254C188.25 43.2009 189.173 43.0933 189.875 43.0028C190.577 42.9122 191.086 42.7707 191.403 42.5782C191.732 42.3744 191.896 42.0518 191.896 41.6102V41.5253C191.896 40.4498 191.59 39.6177 190.979 39.0289C190.379 38.4402 189.484 38.1459 188.295 38.1459C187.061 38.1459 186.082 38.4176 185.358 38.961C184.644 39.4931 184.152 40.0988 183.88 40.7781L180.399 39.9799C180.818 38.8251 181.423 37.8968 182.216 37.1949C183.02 36.4816 183.937 35.9608 184.967 35.6325C186.009 35.3042 187.095 35.14 188.228 35.14C188.986 35.14 189.79 35.2306 190.639 35.4117C191.488 35.5815 192.286 35.9042 193.033 36.3797C193.792 36.8439 194.409 37.5119 194.885 38.3836C195.36 39.2554 195.598 40.3819 195.598 41.7631V54.3639H191.981V51.7656H191.845C191.618 52.2298 191.262 52.694 190.775 53.1582C190.299 53.6223 189.688 54.0073 188.941 54.3129C188.194 54.6186 187.293 54.7715 186.241 54.7715ZM187.039 51.8166C188.069 51.8166 188.946 51.6184 189.671 51.2222C190.396 50.8146 190.95 50.2825 191.335 49.6258C191.72 48.9692 191.913 48.2729 191.913 47.537V45.0746C191.777 45.1991 191.522 45.318 191.148 45.4312C190.775 45.5445 190.35 45.6407 189.875 45.7199C189.399 45.7992 188.935 45.8728 188.482 45.9407C188.029 45.9973 187.65 46.0426 187.344 46.0766C186.631 46.1785 185.98 46.337 185.391 46.5521C184.803 46.7559 184.327 47.0615 183.965 47.4691C183.614 47.8654 183.439 48.3918 183.439 49.0485C183.439 49.9655 183.778 50.6561 184.457 51.1203C185.137 51.5845 185.997 51.8166 187.039 51.8166ZM206.212 54.7375C204.672 54.7375 203.302 54.3469 202.102 53.5657C200.902 52.7732 199.962 51.6467 199.283 50.1863C198.604 48.7145 198.264 46.9596 198.264 44.9218C198.264 42.8613 198.609 41.1008 199.3 39.6403C199.991 38.1798 200.936 37.0647 202.136 36.2948C203.336 35.5249 204.695 35.14 206.212 35.14C207.4 35.14 208.351 35.3381 209.065 35.7344C209.789 36.1193 210.35 36.5722 210.746 37.093C211.154 37.6137 211.465 38.0723 211.68 38.4685H211.901V29.0604H215.569V54.3639H211.986V51.409H211.68C211.465 51.8052 211.148 52.2638 210.729 52.7845C210.31 53.3053 209.738 53.7639 209.014 54.1601C208.301 54.545 207.366 54.7375 206.212 54.7375ZM207.01 51.5958C208.074 51.5958 208.974 51.3127 209.71 50.7467C210.446 50.1806 211.001 49.3938 211.374 48.3861C211.759 47.3785 211.952 46.2124 211.952 44.8878C211.952 43.5632 211.765 42.4084 211.391 41.4234C211.018 40.4271 210.463 39.6573 209.727 39.1138C208.991 38.5591 208.085 38.2817 207.01 38.2817C205.9 38.2817 204.978 38.5704 204.242 39.1478C203.506 39.7252 202.951 40.5121 202.578 41.5083C202.204 42.5046 202.017 43.6311 202.017 44.8878C202.017 46.1558 202.204 47.2993 202.578 48.3182C202.951 49.3258 203.506 50.124 204.242 50.7127C204.989 51.3014 205.912 51.5958 207.01 51.5958Z" fill="black"/>
<path opacity="0.9" d="M31.4522 145.78C32.2265 137.626 39.4651 131.642 47.62 132.417L210.8 147.911C216.188 148.423 218.883 148.679 220.985 149.622C224.946 151.399 227.855 154.919 228.855 159.144C229.386 161.386 229.13 164.08 228.618 169.468C228.362 172.162 228.235 173.51 227.763 174.561C226.874 176.541 225.115 177.996 223.002 178.496C221.881 178.761 220.534 178.633 217.84 178.377L44.8159 161.948C36.661 161.174 30.6779 153.935 31.4522 145.78Z" fill="#D4C5FF"/>
<path d="M43.2606 151.796L43.3449 150.909L47.0234 147.577C47.455 147.187 47.8123 146.847 48.0953 146.555C48.3786 146.26 48.5943 145.979 48.7424 145.711C48.8941 145.441 48.9846 145.151 49.014 144.842C49.0477 144.487 48.9914 144.172 48.8452 143.896C48.7022 143.62 48.4912 143.398 48.2122 143.229C47.9331 143.06 47.6112 142.958 47.2465 142.923C46.8587 142.887 46.5126 142.935 46.2081 143.069C45.9072 143.199 45.6644 143.4 45.4795 143.671C45.2979 143.942 45.1888 144.27 45.1523 144.654L43.989 144.544C44.0452 143.952 44.2309 143.446 44.5461 143.025C44.8612 142.604 45.2657 142.291 45.7593 142.086C46.2562 141.881 46.7988 141.807 47.387 141.862C47.9785 141.919 48.4908 142.093 48.9238 142.386C49.3569 142.68 49.6831 143.05 49.9025 143.499C50.1218 143.947 50.2068 144.431 50.1575 144.951C50.1223 145.322 50.0204 145.679 49.852 146.021C49.6872 146.36 49.4199 146.731 49.0501 147.133C48.6838 147.533 48.1821 148.016 47.5447 148.582L45.047 150.792L45.0395 150.871L49.7322 151.316L49.6292 152.401L43.2606 151.796ZM52.8121 152.782C52.569 152.759 52.3686 152.653 52.2109 152.462C52.0533 152.271 51.986 152.054 52.0091 151.811C52.0322 151.568 52.1391 151.367 52.3298 151.21C52.5205 151.052 52.7374 150.985 52.9806 151.008C53.2238 151.031 53.4242 151.138 53.5818 151.329C53.7395 151.519 53.8067 151.736 53.7836 151.979C53.7683 152.141 53.7132 152.284 53.6183 152.411C53.5266 152.539 53.4095 152.637 53.267 152.706C53.1281 152.773 52.9764 152.798 52.8121 152.782ZM61.0982 153.629L61.2068 152.485L61.8377 152.545C62.0809 152.568 62.2892 152.54 62.4625 152.46C62.6392 152.381 62.7889 152.271 62.9117 152.13C63.0378 151.989 63.1448 151.84 63.2327 151.683L63.426 151.323L60.67 143.263L61.991 143.388L64.1757 149.922L67.3146 143.894L68.6159 144.017L64.3228 152.145C64.1549 152.447 63.9693 152.724 63.7663 152.977C63.5666 153.23 63.3077 153.424 62.9898 153.56C62.6752 153.696 62.2615 153.739 61.7489 153.691L61.0982 153.629ZM75.6909 144.371L76.215 145.137C75.9638 145.339 75.6828 145.469 75.372 145.529C75.0613 145.589 74.7144 145.611 74.3313 145.595C73.9482 145.578 73.5224 145.558 73.0539 145.533C72.5263 145.503 72.0787 145.59 71.7112 145.794C71.3437 145.997 71.0451 146.314 70.8153 146.743C70.5856 147.172 70.4135 147.71 70.2991 148.355L70.3977 148.365C70.699 147.916 71.087 147.601 71.5617 147.421C72.0364 147.24 72.5333 147.175 73.0525 147.224C73.644 147.28 74.1633 147.469 74.6103 147.79C75.0573 148.111 75.3931 148.555 75.6176 149.124C75.8422 149.692 75.9167 150.374 75.8412 151.169C75.766 151.961 75.5598 152.631 75.2225 153.18C74.8886 153.728 74.4538 154.134 73.9181 154.399C73.386 154.66 72.7815 154.758 72.1045 154.694C71.4276 154.63 70.8496 154.414 70.3705 154.047C69.8917 153.676 69.541 153.162 69.3183 152.505C69.0959 151.844 69.029 151.046 69.1176 150.113L69.1944 149.305C69.3544 147.619 69.7617 146.368 70.4162 145.551C71.0739 144.735 71.9809 144.367 73.1372 144.447C73.5459 144.472 73.9094 144.504 74.2275 144.54C74.5456 144.577 74.8247 144.589 75.0647 144.575C75.3048 144.561 75.5135 144.493 75.6909 144.371ZM72.2037 153.649C72.6605 153.692 73.0641 153.615 73.4146 153.416C73.7683 153.217 74.0537 152.918 74.2708 152.517C74.4882 152.113 74.6239 151.627 74.6779 151.059C74.7303 150.507 74.6845 150.028 74.5406 149.623C74.4 149.219 74.1734 148.899 73.8608 148.664C73.5483 148.428 73.1603 148.289 72.697 148.245C72.3585 148.213 72.0491 148.241 71.7687 148.331C71.4883 148.42 71.2422 148.567 71.0304 148.773C70.8186 148.978 70.6448 149.237 70.5091 149.549C70.3766 149.861 70.2875 150.224 70.2416 150.638C70.1611 151.485 70.2955 152.183 70.6447 152.73C70.994 153.277 71.5136 153.583 72.2037 153.649ZM78.5967 153.42L82.8003 147.911L84.1411 148.038L83.4222 155.609L82.2589 155.499L82.8149 149.643L78.631 155.154L77.2705 155.025L77.9894 147.454L79.1527 147.564L78.5967 153.42ZM85.1386 149.227L85.2415 148.143L91.3932 148.727L91.2902 149.811L88.8059 149.575L88.19 156.062L87.0267 155.952L87.6426 149.465L85.1386 149.227ZM93.8354 151.724L96.0043 151.93C96.8915 152.014 97.5487 152.304 97.9759 152.799C98.4031 153.293 98.5839 153.886 98.5184 154.576C98.4753 155.029 98.331 155.432 98.0854 155.783C97.8402 156.131 97.5033 156.396 97.0749 156.578C96.6469 156.756 96.1371 156.817 95.5456 156.761L92.3712 156.459L93.0901 148.888L94.2534 148.998L93.6374 155.485L95.6485 155.676C96.1086 155.72 96.4981 155.634 96.8169 155.419C97.1357 155.204 97.3133 154.906 97.3495 154.525C97.3875 154.124 97.2707 153.783 96.999 153.502C96.7272 153.22 96.3613 153.058 95.9013 153.014L93.7324 152.808L93.8354 151.724ZM102.947 159.652L103.256 156.398L103.886 156.458C104.056 156.312 104.206 156.15 104.335 155.974C104.465 155.797 104.583 155.584 104.689 155.336C104.799 155.084 104.902 154.776 104.996 154.41C105.091 154.041 105.186 153.594 105.283 153.07L105.823 150.097L110.634 150.554L110.018 157.041L111.182 157.151L110.873 160.404L109.71 160.294L109.915 158.125L104.316 157.593L104.11 159.762L102.947 159.652ZM105.208 156.584L108.855 156.93L109.368 151.528L106.805 151.284L106.426 153.178C106.269 153.962 106.101 154.644 105.923 155.224C105.746 155.804 105.507 156.257 105.208 156.584ZM113.949 156.777L118.153 151.268L119.493 151.395L118.774 158.966L117.611 158.856L118.167 153L113.983 158.511L112.623 158.382L113.342 150.811L114.505 150.921L113.949 156.777ZM120.615 157.191L121.858 157.309C121.851 157.654 121.981 157.928 122.247 158.132C122.516 158.337 122.879 158.461 123.336 158.504C123.802 158.548 124.211 158.491 124.561 158.332C124.911 158.17 125.107 157.873 125.147 157.443C125.171 157.19 125.13 156.964 125.023 156.764C124.916 156.562 124.754 156.397 124.538 156.271C124.321 156.144 124.058 156.066 123.749 156.037L122.448 155.913L122.547 154.868L123.848 154.992C124.312 155.036 124.663 154.963 124.903 154.773C125.147 154.584 125.284 154.332 125.314 154.017C125.346 153.678 125.252 153.396 125.031 153.169C124.811 152.939 124.48 152.804 124.04 152.762C123.596 152.72 123.217 152.785 122.902 152.957C122.588 153.126 122.408 153.366 122.362 153.677L121.139 153.561C121.191 153.154 121.35 152.806 121.616 152.517C121.883 152.224 122.228 152.008 122.653 151.869C123.077 151.727 123.553 151.681 124.078 151.731C124.611 151.781 125.063 151.919 125.437 152.143C125.814 152.365 126.094 152.645 126.277 152.984C126.464 153.32 126.538 153.689 126.5 154.09C126.46 154.517 126.307 154.85 126.042 155.091C125.777 155.331 125.459 155.489 125.087 155.567L125.079 155.646C125.363 155.693 125.603 155.808 125.797 155.992C125.996 156.174 126.142 156.401 126.235 156.676C126.329 156.946 126.36 157.24 126.33 157.555C126.287 158.015 126.125 158.404 125.847 158.723C125.568 159.038 125.205 159.268 124.756 159.415C124.308 159.558 123.808 159.603 123.256 159.551C122.721 159.5 122.249 159.367 121.842 159.153C121.435 158.935 121.121 158.659 120.901 158.323C120.684 157.984 120.589 157.607 120.615 157.191ZM129.975 160.209C129.496 160.163 129.069 160.032 128.695 159.814C128.321 159.593 128.036 159.299 127.839 158.932C127.642 158.561 127.566 158.13 127.613 157.637C127.654 157.203 127.773 156.86 127.97 156.606C128.167 156.35 128.415 156.158 128.716 156.031C129.016 155.903 129.343 155.818 129.695 155.776C130.051 155.73 130.407 155.701 130.763 155.688C131.228 155.672 131.606 155.664 131.894 155.661C132.187 155.656 132.402 155.621 132.541 155.558C132.683 155.496 132.762 155.371 132.78 155.183L132.784 155.144C132.83 154.657 132.733 154.267 132.492 153.972C132.255 153.678 131.869 153.505 131.333 153.454C130.778 153.401 130.331 153.482 129.992 153.695C129.653 153.908 129.407 154.147 129.253 154.411L128.186 153.911C128.427 153.47 128.724 153.137 129.077 152.912C129.433 152.684 129.812 152.537 130.213 152.472C130.617 152.405 131.01 152.389 131.391 152.425C131.634 152.448 131.91 152.504 132.22 152.593C132.534 152.68 132.83 152.825 133.109 153.031C133.391 153.237 133.614 153.528 133.777 153.905C133.94 154.282 133.993 154.771 133.936 155.373L133.462 160.361L132.299 160.25L132.396 159.225L132.337 159.22C132.243 159.376 132.095 159.54 131.893 159.71C131.691 159.879 131.431 160.015 131.113 160.118C130.795 160.22 130.416 160.251 129.975 160.209ZM130.252 159.181C130.712 159.224 131.108 159.171 131.441 159.02C131.777 158.87 132.039 158.659 132.227 158.388C132.419 158.118 132.529 157.825 132.559 157.51L132.66 156.445C132.605 156.5 132.492 156.543 132.32 156.577C132.151 156.607 131.956 156.63 131.736 156.646C131.519 156.658 131.308 156.668 131.102 156.675C130.899 156.679 130.734 156.683 130.608 156.688C130.302 156.699 130.013 156.736 129.742 156.8C129.474 156.86 129.252 156.97 129.074 157.129C128.9 157.285 128.799 157.511 128.771 157.807C128.733 158.211 128.853 158.531 129.132 158.766C129.415 158.998 129.789 159.137 130.252 159.181ZM136.912 158.958L141.115 153.448L142.456 153.575L141.737 161.147L140.574 161.036L141.13 155.18L136.946 160.692L135.586 160.562L136.304 152.991L137.468 153.102L136.912 158.958ZM140.586 150.851L141.671 150.954C141.62 151.487 141.395 151.905 140.994 152.208C140.594 152.512 140.079 152.633 139.448 152.573C138.827 152.515 138.348 152.298 138.012 151.925C137.68 151.552 137.539 151.099 137.589 150.567L138.674 150.67C138.649 150.926 138.698 151.158 138.821 151.365C138.948 151.573 139.183 151.693 139.528 151.726C139.873 151.758 140.129 151.685 140.295 151.505C140.465 151.326 140.562 151.108 140.586 150.851ZM149.345 157.512L149.242 158.597L145.062 158.2L145.165 157.115L149.345 157.512ZM145.75 153.888L145.031 161.459L143.868 161.349L144.587 153.778L145.75 153.888ZM150.541 154.343L149.822 161.914L148.659 161.804L149.378 154.233L150.541 154.343ZM155.106 162.575C154.377 162.506 153.763 162.285 153.264 161.913C152.769 161.538 152.407 161.046 152.176 160.437C151.949 159.825 151.872 159.131 151.946 158.356C152.019 157.58 152.226 156.91 152.564 156.346C152.907 155.778 153.348 155.352 153.889 155.069C154.434 154.782 155.048 154.671 155.731 154.736C156.126 154.774 156.509 154.877 156.881 155.044C157.253 155.212 157.582 155.459 157.87 155.785C158.158 156.107 158.372 156.519 158.514 157.02C158.655 157.521 158.692 158.124 158.625 158.831L158.578 159.324L152.742 158.77L152.838 157.764L157.491 158.206C157.531 157.779 157.482 157.389 157.343 157.038C157.207 156.687 156.992 156.4 156.699 156.176C156.408 155.953 156.053 155.821 155.632 155.781C155.169 155.737 154.757 155.814 154.397 156.012C154.04 156.207 153.754 156.478 153.538 156.826C153.323 157.174 153.196 157.556 153.156 157.973L153.092 158.644C153.038 159.216 153.091 159.71 153.25 160.126C153.413 160.539 153.662 160.866 153.997 161.107C154.333 161.345 154.736 161.486 155.206 161.53C155.511 161.559 155.791 161.543 156.046 161.481C156.304 161.416 156.532 161.305 156.729 161.148C156.927 160.987 157.087 160.78 157.211 160.527L158.305 160.949C158.15 161.319 157.919 161.635 157.613 161.898C157.306 162.157 156.94 162.348 156.514 162.47C156.088 162.589 155.619 162.624 155.106 162.575ZM159.756 165.722L160.745 155.312L161.869 155.419L161.754 156.621L161.892 156.634C161.99 156.511 162.125 156.355 162.295 156.165C162.469 155.973 162.707 155.81 163.008 155.676C163.313 155.539 163.712 155.494 164.205 155.541C164.842 155.601 165.389 155.814 165.845 156.179C166.301 156.544 166.638 157.032 166.855 157.643C167.072 158.254 167.143 158.957 167.067 159.752C166.991 160.554 166.789 161.236 166.46 161.798C166.132 162.357 165.711 162.775 165.197 163.051C164.684 163.324 164.112 163.43 163.481 163.37C162.995 163.324 162.613 163.207 162.336 163.018C162.059 162.826 161.851 162.619 161.713 162.397C161.576 162.172 161.471 161.986 161.398 161.84L161.3 161.83L160.92 165.833L159.756 165.722ZM161.529 159.206C161.475 159.778 161.51 160.29 161.637 160.743C161.763 161.193 161.976 161.556 162.274 161.833C162.573 162.107 162.956 162.266 163.423 162.31C163.909 162.357 164.327 162.267 164.677 162.042C165.03 161.813 165.309 161.488 165.515 161.067C165.725 160.642 165.855 160.161 165.906 159.622C165.957 159.089 165.92 158.602 165.796 158.159C165.676 157.713 165.464 157.35 165.159 157.069C164.857 156.785 164.46 156.62 163.967 156.573C163.494 156.528 163.085 156.61 162.74 156.819C162.396 157.025 162.121 157.334 161.916 157.746C161.712 158.154 161.583 158.641 161.529 159.206ZM170.696 164.075C170.216 164.03 169.789 163.898 169.415 163.68C169.041 163.459 168.756 163.165 168.559 162.798C168.362 162.428 168.287 161.996 168.334 161.503C168.375 161.07 168.494 160.726 168.69 160.473C168.887 160.216 169.135 160.025 169.436 159.897C169.737 159.77 170.063 159.685 170.415 159.642C170.771 159.596 171.127 159.567 171.483 159.554C171.949 159.539 172.326 159.53 172.614 159.528C172.907 159.522 173.122 159.488 173.261 159.425C173.403 159.362 173.483 159.237 173.5 159.05L173.504 159.01C173.55 158.524 173.453 158.133 173.213 157.839C172.975 157.544 172.589 157.372 172.053 157.321C171.498 157.268 171.051 157.348 170.712 157.561C170.374 157.775 170.127 158.013 169.973 158.277L168.906 157.778C169.147 157.337 169.444 157.003 169.797 156.778C170.153 156.55 170.532 156.404 170.933 156.339C171.337 156.271 171.73 156.255 172.111 156.292C172.354 156.315 172.631 156.371 172.941 156.46C173.254 156.546 173.55 156.692 173.829 156.897C174.111 157.103 174.334 157.395 174.497 157.772C174.66 158.149 174.713 158.638 174.656 159.239L174.183 164.227L173.019 164.117L173.117 163.092L173.057 163.086C172.963 163.243 172.815 163.406 172.613 163.576C172.411 163.746 172.151 163.882 171.833 163.984C171.515 164.087 171.136 164.117 170.696 164.075ZM170.972 163.047C171.432 163.091 171.829 163.037 172.161 162.887C172.497 162.736 172.759 162.526 172.947 162.255C173.139 161.985 173.25 161.692 173.279 161.376L173.381 160.312C173.326 160.366 173.212 160.41 173.04 160.443C172.871 160.474 172.677 160.497 172.456 160.512C172.24 160.525 172.028 160.535 171.822 160.542C171.619 160.546 171.455 160.55 171.328 160.554C171.022 160.565 170.734 160.602 170.462 160.666C170.194 160.727 169.972 160.837 169.794 160.996C169.62 161.152 169.519 161.377 169.491 161.673C169.453 162.077 169.573 162.397 169.853 162.633C170.136 162.865 170.509 163.003 170.972 163.047Z" fill="black"/>
<path d="M186.545 161.49L185.939 167.866L185.167 167.793L185.696 162.226L185.659 162.223L184.004 163.109L184.078 162.324L185.773 161.417L186.545 161.49ZM187.572 166.702L187.633 166.067L190.856 161.9L191.316 161.943L191.223 162.927L190.912 162.898L188.477 166.046L188.472 166.096L192.245 166.454L192.18 167.139L187.572 166.702ZM190.449 168.294L190.592 166.794L190.62 166.498L191.055 161.918L191.79 161.988L191.184 168.364L190.449 168.294ZM193.673 167.777C193.519 167.763 193.392 167.695 193.293 167.575C193.193 167.454 193.151 167.317 193.165 167.164C193.18 167.01 193.247 166.884 193.368 166.784C193.488 166.684 193.625 166.642 193.779 166.657C193.933 166.671 194.059 166.739 194.159 166.859C194.258 166.98 194.301 167.117 194.286 167.27C194.276 167.372 194.242 167.463 194.182 167.543C194.124 167.623 194.05 167.685 193.96 167.729C193.872 167.771 193.776 167.787 193.673 167.777ZM193.979 164.552C193.825 164.537 193.699 164.47 193.599 164.35C193.5 164.229 193.457 164.092 193.472 163.938C193.486 163.785 193.554 163.658 193.674 163.559C193.795 163.459 193.932 163.417 194.085 163.431C194.239 163.446 194.365 163.513 194.465 163.634C194.564 163.754 194.607 163.891 194.592 164.045C194.583 164.147 194.548 164.238 194.488 164.318C194.43 164.398 194.356 164.46 194.266 164.504C194.178 164.546 194.083 164.562 193.979 164.552ZM198.133 162.591L197.528 168.966L196.756 168.893L197.284 163.327L197.247 163.323L195.592 164.209L195.666 163.424L197.361 162.517L198.133 162.591ZM202.033 162.961L201.427 169.337L200.655 169.263L201.184 163.697L201.147 163.693L199.492 164.579L199.566 163.795L201.261 162.888L202.033 162.961Z" fill="#4200FF"/>
<path fill-rule="evenodd" clip-rule="evenodd" d="M219.918 164.413C220.057 164.575 220.038 164.82 219.875 164.959L213.276 170.612C213.194 170.682 213.086 170.715 212.979 170.703C212.872 170.691 212.775 170.634 212.711 170.548L210.314 167.288C210.187 167.116 210.224 166.873 210.396 166.746C210.569 166.619 210.812 166.656 210.938 166.829L213.088 169.752L219.371 164.37C219.534 164.231 219.778 164.25 219.918 164.413Z" fill="#4200FF"/>
<path opacity="0.9" d="M37.879 114.301C38.6533 106.146 45.8918 100.163 54.0467 100.937L213.819 116.108C219.208 116.62 221.902 116.876 224.004 117.819C227.965 119.597 230.874 123.116 231.874 127.341C232.405 129.583 232.149 132.277 231.638 137.665C231.382 140.36 231.254 141.707 230.782 142.758C229.893 144.738 228.134 146.193 226.021 146.693C224.9 146.958 223.553 146.83 220.859 146.574L51.2426 130.469C43.0877 129.695 37.1046 122.456 37.879 114.301Z" fill="#D4C5FF"/>
<path d="M54.9662 110.632L54.0077 120.727L52.7852 120.611L53.6221 111.798L53.563 111.792L50.943 113.194L51.0609 111.952L53.7438 110.516L54.9662 110.632ZM59.044 121.285C58.8008 121.262 58.6004 121.155 58.4428 120.964C58.2852 120.773 58.2179 120.557 58.241 120.313C58.2641 120.07 58.371 119.87 58.5617 119.712C58.7524 119.555 58.9693 119.487 59.2125 119.51C59.4557 119.533 59.6561 119.64 59.8137 119.831C59.9713 120.022 60.0386 120.239 60.0155 120.482C60.0002 120.643 59.9451 120.787 59.8502 120.914C59.7585 121.041 59.6414 121.139 59.4989 121.209C59.3599 121.275 59.2083 121.3 59.044 121.285ZM67.3301 122.131L67.4387 120.988L68.0696 121.048C68.3128 121.071 68.5211 121.042 68.6944 120.963C68.8711 120.883 69.0208 120.773 69.1436 120.632C69.2697 120.492 69.3767 120.343 69.4646 120.185L69.6579 119.826L66.9019 111.765L68.2229 111.891L70.4076 118.425L73.5465 112.396L74.8478 112.52L70.5547 120.647C70.3867 120.949 70.2012 121.227 69.9982 121.479C69.7985 121.732 69.5396 121.927 69.2217 122.062C68.907 122.198 68.4934 122.242 67.9808 122.193L67.3301 122.131ZM81.9228 112.873L82.4469 113.639C82.1957 113.841 81.9147 113.972 81.6039 114.032C81.2932 114.092 80.9463 114.114 80.5632 114.097C80.1801 114.081 79.7543 114.06 79.2858 114.035C78.7582 114.005 78.3106 114.092 77.9431 114.296C77.5756 114.5 77.2769 114.816 77.0472 115.245C76.8175 115.674 76.6454 116.212 76.531 116.858L76.6296 116.867C76.9309 116.418 77.3189 116.103 77.7936 115.923C78.2683 115.743 78.7652 115.677 79.2844 115.726C79.8759 115.783 80.3952 115.971 80.8422 116.292C81.2892 116.613 81.625 117.058 81.8495 117.626C82.0741 118.195 82.1486 118.876 82.0731 119.672C81.9979 120.464 81.7917 121.134 81.4544 121.682C81.1205 122.231 80.6857 122.637 80.15 122.901C79.6179 123.162 79.0134 123.261 78.3364 123.196C77.6595 123.132 77.0814 122.916 76.6024 122.549C76.1236 122.179 75.7729 121.665 75.5502 121.007C75.3278 120.346 75.2609 119.549 75.3495 118.615L75.4263 117.807C75.5863 116.121 75.9936 114.87 76.6481 114.054C77.3058 113.237 78.2128 112.869 79.3691 112.949C79.7778 112.975 80.1412 113.006 80.4594 113.043C80.7775 113.08 81.0566 113.091 81.2966 113.077C81.5367 113.064 81.7454 112.996 81.9228 112.873ZM78.4356 122.151C78.8924 122.195 79.296 122.117 79.6465 121.918C80.0002 121.72 80.2856 121.42 80.5027 121.02C80.7201 120.616 80.8558 120.13 80.9098 119.561C80.9622 119.009 80.9164 118.531 80.7725 118.126C80.6319 117.721 80.4053 117.401 80.0927 117.166C79.7802 116.931 79.3922 116.791 78.9289 116.747C78.5904 116.715 78.281 116.744 78.0006 116.833C77.7202 116.922 77.4741 117.07 77.2623 117.275C77.0505 117.481 76.8767 117.739 76.741 118.051C76.6085 118.364 76.5194 118.727 76.4735 119.14C76.393 119.988 76.5274 120.685 76.8766 121.232C77.2259 121.779 77.7455 122.086 78.4356 122.151ZM84.8286 121.923L89.0322 116.413L90.373 116.541L89.6541 124.112L88.4908 124.001L89.0468 118.145L84.8629 123.657L83.5024 123.528L84.2213 115.956L85.3846 116.067L84.8286 121.923ZM91.3705 117.729L91.4734 116.645L97.6251 117.229L97.5221 118.314L95.0378 118.078L94.4218 124.565L93.2586 124.454L93.8745 117.967L91.3705 117.729ZM100.067 120.226L102.236 120.432C103.123 120.517 103.781 120.806 104.208 121.301C104.635 121.796 104.816 122.388 104.75 123.078C104.707 123.532 104.563 123.934 104.317 124.286C104.072 124.634 103.735 124.898 103.307 125.08C102.879 125.258 102.369 125.319 101.777 125.263L98.6031 124.962L99.322 117.39L100.485 117.501L99.8693 123.988L101.88 124.179C102.34 124.222 102.73 124.137 103.049 123.921C103.368 123.706 103.545 123.408 103.581 123.027C103.619 122.626 103.503 122.285 103.231 122.004C102.959 121.723 102.593 121.56 102.133 121.517L99.9643 121.311L100.067 120.226ZM116.59 119.03C116.579 118.525 116.375 118.114 115.981 117.798C115.587 117.482 115.084 117.295 114.473 117.237C114.026 117.195 113.628 117.23 113.279 117.343C112.933 117.456 112.655 117.63 112.443 117.865C112.235 118.101 112.116 118.38 112.085 118.702C112.06 118.971 112.102 119.209 112.212 119.415C112.325 119.618 112.477 119.793 112.669 119.941C112.861 120.085 113.065 120.209 113.28 120.312C113.496 120.412 113.696 120.496 113.878 120.563L114.877 120.936C115.134 121.03 115.417 121.153 115.728 121.306C116.041 121.458 116.336 121.653 116.612 121.892C116.891 122.127 117.112 122.417 117.275 122.761C117.438 123.104 117.498 123.513 117.453 123.986C117.401 124.531 117.211 125.011 116.883 125.424C116.559 125.838 116.112 126.148 115.541 126.356C114.975 126.564 114.303 126.631 113.528 126.558C112.805 126.489 112.19 126.313 111.683 126.029C111.179 125.746 110.796 125.382 110.534 124.936C110.274 124.49 110.151 123.989 110.164 123.433L111.426 123.553C111.423 123.937 111.521 124.265 111.72 124.536C111.924 124.804 112.192 125.015 112.526 125.169C112.863 125.321 113.232 125.416 113.633 125.454C114.099 125.498 114.526 125.462 114.911 125.346C115.297 125.227 115.612 125.041 115.854 124.789C116.097 124.534 116.236 124.222 116.271 123.854C116.303 123.519 116.236 123.237 116.068 123.009C115.901 122.781 115.671 122.587 115.377 122.426C115.084 122.266 114.765 122.119 114.419 121.987L113.211 121.514C112.444 121.213 111.85 120.83 111.43 120.365C111.01 119.901 110.832 119.329 110.897 118.648C110.95 118.083 111.15 117.605 111.496 117.213C111.845 116.819 112.29 116.529 112.831 116.345C113.376 116.158 113.971 116.095 114.615 116.157C115.266 116.218 115.833 116.39 116.317 116.671C116.801 116.949 117.172 117.303 117.43 117.732C117.691 118.161 117.805 118.631 117.773 119.142L116.59 119.03ZM120.161 116.822L121.62 116.961L124.255 125.666L124.373 125.678L128.6 117.624L130.059 117.762L129.1 127.857L127.957 127.749L128.685 120.079L128.586 120.07L124.703 127.44L123.599 127.335L121.173 119.366L121.074 119.356L120.346 127.026L119.202 126.917L120.161 116.822ZM132.51 117.995L133.969 118.134L136.604 126.839L136.722 126.85L140.949 118.796L142.408 118.935L141.449 129.03L140.305 128.921L141.034 121.251L140.935 121.242L137.052 128.612L135.948 128.508L133.522 120.538L133.423 120.529L132.695 128.199L131.551 128.09L132.51 117.995ZM154.177 129.144L153.73 132.384L152.527 132.27L152.733 130.101L151.747 130.008L151.85 128.923L154.177 129.144ZM144.461 121.676L145.625 121.787L145.009 128.274L147.868 128.545L148.483 122.058L149.647 122.169L149.031 128.656L151.89 128.927L152.506 122.44L153.669 122.551L152.95 130.122L143.742 129.248L144.461 121.676ZM157.092 128.784L161.296 123.275L162.636 123.402L161.918 130.973L160.754 130.863L161.31 125.007L157.126 130.518L155.766 130.389L156.485 122.818L157.648 122.929L157.092 128.784ZM164.048 131.176L164.767 123.604L165.93 123.715L165.618 127.008L166.387 127.081L169.42 124.046L170.919 124.189L167.516 127.546L170.239 131.764L168.741 131.621L166.56 128.191L165.515 128.092L165.212 131.286L164.048 131.176ZM173.715 132.273C173.235 132.227 172.808 132.095 172.434 131.878C172.061 131.656 171.775 131.362 171.578 130.995C171.381 130.625 171.306 130.194 171.353 129.701C171.394 129.267 171.513 128.924 171.709 128.67C171.906 128.414 172.155 128.222 172.455 128.095C172.756 127.967 173.082 127.882 173.434 127.839C173.79 127.794 174.146 127.764 174.502 127.752C174.968 127.736 175.345 127.727 175.634 127.725C175.926 127.72 176.142 127.685 176.28 127.622C176.422 127.559 176.502 127.434 176.52 127.247L176.523 127.208C176.57 126.721 176.472 126.331 176.232 126.036C175.994 125.742 175.608 125.569 175.072 125.518C174.517 125.465 174.07 125.546 173.732 125.759C173.393 125.972 173.146 126.211 172.992 126.474L171.925 125.975C172.166 125.534 172.463 125.201 172.816 124.976C173.173 124.747 173.551 124.601 173.952 124.536C174.356 124.469 174.749 124.453 175.13 124.489C175.373 124.512 175.65 124.568 175.96 124.657C176.273 124.743 176.569 124.889 176.848 125.095C177.131 125.301 177.353 125.592 177.516 125.969C177.68 126.346 177.733 126.835 177.675 127.436L177.202 132.425L176.039 132.314L176.136 131.289L176.077 131.283C175.982 131.44 175.834 131.604 175.632 131.773C175.43 131.943 175.171 132.079 174.852 132.182C174.534 132.284 174.155 132.314 173.715 132.273ZM173.991 131.245C174.452 131.288 174.848 131.235 175.181 131.084C175.516 130.933 175.778 130.723 175.967 130.452C176.158 130.182 176.269 129.889 176.299 129.574L176.4 128.509C176.345 128.563 176.231 128.607 176.059 128.641C175.89 128.671 175.696 128.694 175.476 128.71C175.259 128.722 175.047 128.732 174.841 128.739C174.639 128.743 174.474 128.747 174.348 128.752C174.041 128.762 173.753 128.8 173.481 128.863C173.214 128.924 172.991 129.034 172.814 129.193C172.64 129.349 172.539 129.575 172.51 129.87C172.472 130.275 172.593 130.594 172.872 130.83C173.155 131.062 173.528 131.201 173.991 131.245Z" fill="black"/>
<path d="M189.564 129.687L188.958 136.063L188.186 135.99L188.715 130.423L188.678 130.42L187.023 131.306L187.097 130.521L188.792 129.614L189.564 129.687ZM190.592 134.899L190.652 134.264L193.875 130.097L194.335 130.14L194.242 131.124L193.931 131.095L191.496 134.243L191.491 134.293L195.264 134.651L195.199 135.336L190.592 134.899ZM193.468 136.491L193.611 134.991L193.639 134.695L194.074 130.116L194.809 130.185L194.203 136.561L193.468 136.491ZM196.692 135.974C196.538 135.96 196.411 135.892 196.312 135.772C196.212 135.651 196.17 135.514 196.184 135.361C196.199 135.207 196.267 135.081 196.387 134.981C196.507 134.882 196.644 134.839 196.798 134.854C196.952 134.868 197.078 134.936 197.178 135.056C197.277 135.177 197.32 135.314 197.305 135.467C197.296 135.569 197.261 135.66 197.201 135.74C197.143 135.82 197.069 135.882 196.979 135.926C196.891 135.968 196.795 135.984 196.692 135.974ZM196.998 132.749C196.844 132.735 196.718 132.667 196.618 132.547C196.519 132.426 196.476 132.289 196.491 132.136C196.505 131.982 196.573 131.855 196.693 131.756C196.814 131.656 196.951 131.614 197.104 131.628C197.258 131.643 197.384 131.71 197.484 131.831C197.584 131.951 197.626 132.088 197.611 132.242C197.602 132.344 197.567 132.435 197.507 132.515C197.449 132.595 197.375 132.657 197.285 132.701C197.197 132.743 197.102 132.759 196.998 132.749ZM201.152 130.788L200.547 137.163L199.775 137.09L200.303 131.524L200.266 131.52L198.611 132.406L198.686 131.621L200.38 130.714L201.152 130.788ZM205.052 131.158L204.446 137.534L203.674 137.46L204.203 131.894L204.166 131.89L202.511 132.776L202.585 131.992L204.28 131.085L205.052 131.158Z" fill="#4200FF"/>
<path fill-rule="evenodd" clip-rule="evenodd" d="M222.937 132.61C223.076 132.772 223.057 133.017 222.895 133.157L216.295 138.809C216.213 138.88 216.105 138.913 215.998 138.9C215.891 138.888 215.794 138.832 215.73 138.745L213.333 135.486C213.206 135.313 213.243 135.07 213.415 134.943C213.588 134.816 213.831 134.853 213.957 135.026L216.107 137.949L222.39 132.567C222.553 132.428 222.797 132.447 222.937 132.61Z" fill="#4200FF"/>
<path opacity="0.8" fill-rule="evenodd" clip-rule="evenodd" d="M32.0139 176.174C31.9811 176.424 31.953 176.719 31.8968 177.311C31.8407 177.903 31.8126 178.199 31.7978 178.45C31.3687 185.758 36.6575 192.157 43.9158 193.111C44.1651 193.143 44.461 193.172 45.0528 193.228L202.419 208.17C207.122 208.617 209.474 208.84 211.45 208.488C212.716 208.263 213.93 207.877 215.067 207.35C215.763 207.797 216.558 208.247 217.402 208.61C220.744 210.046 229.634 210.826 229.634 210.826C229.634 210.826 224.885 209.32 223.536 204.387C223.186 203.106 223.36 198.497 223.59 194.581C223.727 193.408 223.859 192.015 224.02 190.316C224.232 188.088 224.337 186.974 224.171 186.038C223.742 183.626 222.08 181.616 219.792 180.741C218.904 180.401 217.791 180.295 215.563 180.084L47.8133 164.155C47.2215 164.099 46.9256 164.071 46.6746 164.056C39.3664 163.627 32.9679 168.916 32.0139 176.174Z" fill="#D4C5FF"/>
<path d="M47.2142 183.255C46.5635 183.193 45.9941 183.026 45.506 182.754C45.0211 182.483 44.6481 182.134 44.3868 181.708C44.1291 181.279 44.0122 180.799 44.0362 180.267L45.2784 180.385C45.2738 180.713 45.3588 181.005 45.5335 181.26C45.7085 181.512 45.9493 181.717 46.2559 181.876C46.5625 182.034 46.9097 182.132 47.2974 182.168C47.7312 182.21 48.1229 182.171 48.4724 182.051C48.8219 181.932 49.1048 181.747 49.321 181.495C49.5372 181.244 49.6621 180.941 49.6958 180.586C49.7311 180.214 49.6701 179.879 49.5129 179.579C49.356 179.275 49.1078 179.026 48.7682 178.832C48.4286 178.637 48.0024 178.515 47.4898 178.466L46.6814 178.39L46.7844 177.305L47.5928 177.382C47.9937 177.42 48.3522 177.381 48.6682 177.265C48.9876 177.15 49.2451 176.969 49.441 176.722C49.6401 176.476 49.7565 176.175 49.7902 175.82C49.8227 175.478 49.7753 175.174 49.6482 174.906C49.5211 174.639 49.3262 174.421 49.0636 174.254C48.8042 174.087 48.4889 173.986 48.1176 173.95C47.7692 173.917 47.4345 173.95 47.1135 174.049C46.796 174.145 46.5289 174.303 46.3123 174.525C46.0959 174.743 45.9636 175.019 45.9154 175.353L44.7324 175.24C44.8023 174.713 45.0057 174.265 45.3425 173.896C45.6796 173.523 46.1003 173.248 46.6046 173.071C47.1121 172.893 47.6567 172.832 48.2384 172.887C48.8627 172.947 49.3864 173.124 49.8093 173.42C50.2325 173.712 50.5445 174.075 50.7454 174.508C50.9463 174.942 51.0241 175.397 50.9789 175.873C50.9249 176.442 50.7293 176.912 50.3922 177.285C50.0584 177.658 49.6295 177.897 49.1055 178.003L49.098 178.082C49.7255 178.248 50.1976 178.566 50.5143 179.037C50.8313 179.505 50.9594 180.059 50.8985 180.7C50.8464 181.249 50.6501 181.728 50.3096 182.136C49.9726 182.542 49.536 182.845 48.9996 183.046C48.4633 183.247 47.8681 183.317 47.2142 183.255ZM53.5846 183.8C53.3415 183.777 53.1411 183.67 52.9834 183.479C52.8258 183.289 52.7585 183.072 52.7816 182.828C52.8047 182.585 52.9116 182.385 53.1023 182.227C53.293 182.07 53.51 182.002 53.7531 182.025C53.9963 182.049 54.1967 182.155 54.3543 182.346C54.512 182.537 54.5792 182.754 54.5562 182.997C54.5409 183.158 54.4857 183.302 54.3908 183.429C54.2991 183.556 54.182 183.654 54.0395 183.724C53.9006 183.79 53.749 183.816 53.5846 183.8ZM61.8707 184.646L61.9793 183.503L62.6103 183.563C62.8534 183.586 63.0617 183.558 63.2351 183.478C63.4117 183.398 63.5614 183.288 63.6842 183.148C63.8103 183.007 63.9173 182.858 64.0052 182.701L64.1985 182.341L61.4425 174.28L62.7635 174.406L64.9483 180.94L68.0871 174.911L69.3884 175.035L65.0953 183.162C64.9274 183.464 64.7419 183.742 64.5388 183.995C64.3391 184.248 64.0802 184.442 63.7623 184.577C63.4477 184.713 63.034 184.757 62.5214 184.708L61.8707 184.646ZM76.4634 175.388L76.9875 176.154C76.7363 176.356 76.4553 176.487 76.1445 176.547C75.8338 176.607 75.4869 176.629 75.1038 176.612C74.7207 176.596 74.295 176.575 73.8265 176.551C73.2988 176.52 72.8512 176.607 72.4837 176.811C72.1162 177.015 71.8176 177.331 71.5878 177.76C71.3581 178.19 71.186 178.727 71.0717 179.373L71.1703 179.382C71.4715 178.933 71.8595 178.619 72.3342 178.438C72.8089 178.258 73.3058 178.192 73.8251 178.241C74.4166 178.298 74.9358 178.486 75.3828 178.807C75.8298 179.128 76.1656 179.573 76.3901 180.141C76.6147 180.71 76.6892 181.392 76.6137 182.187C76.5385 182.979 76.3323 183.649 75.9951 184.197C75.6611 184.746 75.2263 185.152 74.6906 185.416C74.1585 185.677 73.554 185.776 72.877 185.711C72.2001 185.647 71.6221 185.431 71.143 185.064C70.6642 184.694 70.3135 184.18 70.0908 183.522C69.8684 182.861 69.8015 182.064 69.8901 181.131L69.9669 180.322C70.127 178.636 70.5342 177.385 71.1887 176.569C71.8465 175.752 72.7535 175.384 73.9097 175.464C74.3184 175.49 74.6819 175.521 75 175.558C75.3181 175.595 75.5972 175.606 75.8373 175.593C76.0773 175.579 76.286 175.511 76.4634 175.388ZM72.9763 184.666C73.433 184.71 73.8366 184.632 74.1871 184.433C74.5408 184.235 74.8263 183.935 75.0433 183.535C75.2607 183.131 75.3964 182.645 75.4504 182.076C75.5028 181.524 75.4571 181.046 75.3131 180.641C75.1725 180.236 74.9459 179.916 74.6334 179.681C74.3208 179.446 73.9329 179.306 73.4695 179.262C73.131 179.23 72.8216 179.259 72.5412 179.348C72.2608 179.438 72.0147 179.585 71.8029 179.79C71.5911 179.996 71.4173 180.254 71.2816 180.566C71.1492 180.879 71.06 181.242 71.0141 181.655C70.9336 182.503 71.068 183.2 71.4172 183.747C71.7665 184.295 72.2862 184.601 72.9763 184.666ZM79.3692 184.438L83.5729 178.928L84.9136 179.056L84.1947 186.627L83.0314 186.516L83.5874 180.661L79.4035 186.172L78.043 186.043L78.7619 178.472L79.9252 178.582L79.3692 184.438ZM85.9111 180.245L86.0141 179.16L92.1657 179.744L92.0627 180.829L89.5784 180.593L88.9625 187.08L87.7992 186.969L88.4151 180.482L85.9111 180.245ZM94.6079 182.742L96.7768 182.947C97.664 183.032 98.3212 183.321 98.7484 183.816C99.1756 184.311 99.3564 184.903 99.2909 185.593C99.2478 186.047 99.1035 186.449 98.8579 186.801C98.6127 187.149 98.2759 187.414 97.8475 187.595C97.4194 187.773 96.9096 187.834 96.3181 187.778L93.1437 187.477L93.8626 179.905L95.0259 180.016L94.4099 186.503L96.4211 186.694C96.8811 186.737 97.2706 186.652 97.5894 186.437C97.9083 186.221 98.0858 185.923 98.122 185.542C98.16 185.141 98.0432 184.8 97.7715 184.519C97.4998 184.238 97.1339 184.076 96.6738 184.032L94.505 183.826L94.6079 182.742ZM104.733 188.577L105.452 181.006L106.616 181.116L106.303 184.409L107.072 184.482L110.106 181.448L111.604 181.59L108.202 184.947L110.925 189.165L109.426 189.023L107.245 185.593L106.2 185.493L105.897 188.688L104.733 188.577ZM112.669 192.195C112.471 192.177 112.297 192.144 112.146 192.096C111.994 192.052 111.89 192.012 111.834 191.977L112.227 190.98C112.503 191.079 112.75 191.129 112.969 191.13C113.187 191.131 113.389 191.052 113.573 190.894C113.76 190.739 113.943 190.476 114.12 190.105L114.393 189.534L112.316 181.658L113.578 181.777L115.095 188.009L115.174 188.017L117.837 182.182L119.099 182.302L115.061 190.672C114.88 191.049 114.67 191.356 114.432 191.592C114.194 191.831 113.927 192 113.633 192.098C113.342 192.196 113.02 192.229 112.669 192.195ZM118.264 192.05L118.573 188.797L119.204 188.857C119.374 188.711 119.523 188.549 119.653 188.372C119.782 188.196 119.9 187.983 120.007 187.735C120.117 187.483 120.219 187.174 120.314 186.809C120.408 186.44 120.504 185.993 120.6 185.468L121.141 182.496L125.952 182.952L125.336 189.439L126.499 189.55L126.19 192.803L125.027 192.692L125.233 190.524L119.633 189.992L119.427 192.161L118.264 192.05ZM120.525 188.982L124.173 189.329L124.686 183.926L122.122 183.683L121.744 185.577C121.586 186.361 121.419 187.043 121.241 187.623C121.063 188.203 120.824 188.656 120.525 188.982ZM127.671 193.62L128.659 183.209L129.783 183.316L129.669 184.519L129.807 184.532C129.905 184.409 130.039 184.252 130.209 184.063C130.384 183.871 130.621 183.707 130.922 183.574C131.227 183.437 131.626 183.392 132.119 183.438C132.756 183.499 133.303 183.712 133.759 184.077C134.215 184.442 134.552 184.929 134.769 185.54C134.986 186.151 135.057 186.854 134.982 187.649C134.906 188.451 134.703 189.133 134.375 189.696C134.046 190.255 133.625 190.672 133.112 190.948C132.598 191.221 132.026 191.328 131.395 191.268C130.909 191.222 130.527 191.104 130.25 190.915C129.973 190.723 129.766 190.516 129.628 190.294C129.49 190.069 129.385 189.883 129.313 189.737L129.214 189.728L128.834 193.73L127.671 193.62ZM129.443 187.104C129.389 187.675 129.425 188.188 129.551 188.641C129.677 189.09 129.89 189.454 130.189 189.731C130.487 190.005 130.87 190.164 131.337 190.208C131.823 190.254 132.241 190.165 132.591 189.939C132.944 189.711 133.224 189.386 133.43 188.964C133.639 188.54 133.769 188.058 133.82 187.519C133.871 186.987 133.834 186.499 133.711 186.057C133.59 185.611 133.378 185.247 133.073 184.966C132.772 184.683 132.375 184.517 131.882 184.47C131.409 184.425 130.999 184.508 130.655 184.717C130.31 184.923 130.035 185.232 129.831 185.643C129.626 186.052 129.497 186.538 129.443 187.104ZM140.953 192.016L141.571 185.51L139.56 185.319C139.107 185.276 138.74 185.347 138.46 185.533C138.181 185.718 138.024 185.995 137.989 186.363C137.954 186.725 138.044 187.02 138.258 187.249C138.475 187.479 138.788 187.613 139.199 187.652L141.644 187.884L141.541 188.969L139.096 188.736C138.584 188.688 138.15 188.555 137.796 188.339C137.442 188.123 137.18 187.838 137.012 187.484C136.844 187.127 136.781 186.716 136.825 186.253C136.87 185.786 137.013 185.395 137.255 185.08C137.497 184.765 137.822 184.535 138.231 184.392C138.642 184.249 139.119 184.203 139.661 184.254L142.776 184.55L142.057 192.121L140.953 192.016ZM135.906 191.537L138.413 187.975L139.674 188.095L137.168 191.657L135.906 191.537ZM144.193 192.324L144.912 184.753L148.008 185.047C148.822 185.124 149.452 185.369 149.897 185.783C150.342 186.197 150.536 186.706 150.478 187.31C150.435 187.771 150.264 188.114 149.968 188.341C149.671 188.565 149.305 188.701 148.87 188.749C149.145 188.815 149.407 188.94 149.655 189.122C149.906 189.305 150.106 189.543 150.253 189.836C150.402 190.125 150.457 190.468 150.419 190.866C150.382 191.254 150.251 191.591 150.025 191.878C149.799 192.165 149.493 192.38 149.108 192.522C148.723 192.665 148.274 192.711 147.762 192.663L144.193 192.324ZM145.398 191.364L147.863 191.598C148.264 191.636 148.587 191.571 148.832 191.402C149.076 191.233 149.214 190.984 149.246 190.655C149.283 190.264 149.199 189.946 148.993 189.701C148.788 189.453 148.485 189.31 148.084 189.272L145.619 189.037L145.398 191.364ZM145.715 188.032L147.706 188.221C148.018 188.251 148.29 188.233 148.522 188.169C148.754 188.102 148.936 187.993 149.07 187.843C149.207 187.69 149.286 187.502 149.308 187.279C149.338 186.96 149.228 186.698 148.979 186.492C148.731 186.282 148.373 186.156 147.906 186.111L145.915 185.922L145.715 188.032ZM155.048 193.514C154.365 193.449 153.78 193.229 153.295 192.855C152.814 192.481 152.456 191.988 152.222 191.375C151.992 190.763 151.914 190.066 151.988 189.284C152.063 188.495 152.271 187.821 152.613 187.26C152.958 186.699 153.402 186.28 153.946 186.003C154.493 185.727 155.108 185.621 155.791 185.686C156.475 185.751 157.058 185.971 157.539 186.345C158.024 186.719 158.382 187.214 158.612 187.829C158.845 188.445 158.925 189.147 158.85 189.936C158.775 190.718 158.566 191.388 158.221 191.945C157.88 192.503 157.436 192.92 156.889 193.196C156.345 193.473 155.732 193.579 155.048 193.514ZM155.147 192.469C155.667 192.518 156.107 192.426 156.467 192.191C156.827 191.957 157.109 191.63 157.311 191.212C157.513 190.794 157.638 190.331 157.686 189.825C157.734 189.319 157.699 188.84 157.579 188.388C157.46 187.935 157.245 187.558 156.935 187.257C156.626 186.956 156.211 186.781 155.692 186.731C155.173 186.682 154.733 186.776 154.372 187.014C154.012 187.251 153.73 187.581 153.527 188.003C153.325 188.425 153.2 188.889 153.151 189.395C153.103 189.901 153.139 190.378 153.259 190.827C153.379 191.276 153.594 191.65 153.904 191.948C154.214 192.246 154.628 192.42 155.147 192.469ZM165.662 186.723L165.559 187.807L162.049 187.474L161.433 193.961L160.27 193.85L160.989 186.279L165.662 186.723ZM169.308 194.868C168.625 194.803 168.041 194.583 167.556 194.209C167.074 193.835 166.716 193.342 166.483 192.729C166.252 192.117 166.174 191.42 166.248 190.638C166.323 189.85 166.532 189.175 166.873 188.614C167.218 188.053 167.663 187.634 168.206 187.357C168.753 187.081 169.368 186.975 170.052 187.04C170.735 187.105 171.318 187.325 171.8 187.699C172.285 188.073 172.642 188.568 172.872 189.183C173.106 189.799 173.185 190.501 173.11 191.29C173.036 192.072 172.826 192.742 172.481 193.299C172.14 193.857 171.696 194.274 171.149 194.55C170.605 194.827 169.992 194.933 169.308 194.868ZM169.408 193.823C169.927 193.872 170.367 193.78 170.727 193.545C171.088 193.311 171.369 192.985 171.571 192.566C171.773 192.148 171.899 191.685 171.947 191.179C171.995 190.673 171.959 190.194 171.839 189.742C171.72 189.289 171.505 188.912 171.196 188.611C170.886 188.31 170.472 188.135 169.952 188.085C169.433 188.036 168.993 188.13 168.633 188.368C168.272 188.605 167.99 188.935 167.788 189.357C167.585 189.779 167.46 190.243 167.412 190.749C167.364 191.255 167.4 191.732 167.519 192.181C167.639 192.63 167.854 193.004 168.164 193.302C168.474 193.6 168.888 193.774 169.408 193.823Z" fill="black"/>
<path d="M183.611 192.393L183.005 198.769L182.233 198.696L182.762 193.129L182.724 193.126L181.07 194.012L181.144 193.227L182.839 192.32L183.611 192.393ZM184.638 197.605L184.699 196.97L187.921 192.803L188.382 192.846L188.289 193.83L187.978 193.801L185.542 196.949L185.538 196.999L189.311 197.357L189.246 198.042L184.638 197.605ZM187.515 199.197L187.658 197.697L187.686 197.401L188.121 192.822L188.855 192.891L188.25 199.267L187.515 199.197ZM190.738 198.68C190.585 198.666 190.458 198.598 190.359 198.478C190.259 198.357 190.217 198.22 190.231 198.067C190.246 197.913 190.313 197.787 190.434 197.687C190.554 197.588 190.691 197.545 190.845 197.56C190.998 197.574 191.125 197.642 191.225 197.762C191.324 197.883 191.367 198.02 191.352 198.173C191.342 198.275 191.308 198.366 191.248 198.446C191.19 198.526 191.116 198.588 191.026 198.632C190.938 198.674 190.842 198.69 190.738 198.68ZM191.045 195.455C190.891 195.441 190.765 195.373 190.665 195.253C190.565 195.132 190.523 194.995 190.538 194.842C190.552 194.688 190.62 194.561 190.74 194.462C190.861 194.362 190.998 194.32 191.151 194.334C191.305 194.349 191.431 194.417 191.531 194.537C191.63 194.657 191.673 194.794 191.658 194.948C191.649 195.05 191.614 195.141 191.554 195.221C191.496 195.301 191.422 195.363 191.332 195.407C191.244 195.449 191.148 195.465 191.045 195.455ZM195.199 193.494L194.594 199.869L193.821 199.796L194.35 194.23L194.313 194.226L192.658 195.112L192.732 194.327L194.427 193.42L195.199 193.494ZM196.252 200.027L196.305 199.467L198.628 197.363C198.901 197.116 199.127 196.901 199.305 196.717C199.484 196.531 199.62 196.353 199.714 196.184C199.81 196.013 199.867 195.83 199.886 195.635C199.907 195.411 199.871 195.212 199.779 195.037C199.689 194.863 199.555 194.723 199.379 194.616C199.203 194.509 199 194.445 198.769 194.423C198.524 194.4 198.306 194.431 198.113 194.515C197.923 194.597 197.77 194.724 197.653 194.895C197.539 195.067 197.47 195.274 197.447 195.516L196.712 195.447C196.747 195.073 196.865 194.753 197.064 194.487C197.263 194.222 197.518 194.024 197.83 193.894C198.144 193.765 198.486 193.718 198.858 193.753C199.232 193.789 199.555 193.899 199.829 194.084C200.102 194.269 200.308 194.503 200.447 194.787C200.585 195.07 200.639 195.376 200.608 195.704C200.586 195.938 200.521 196.163 200.415 196.379C200.311 196.594 200.142 196.828 199.908 197.082C199.677 197.334 199.36 197.639 198.958 197.997L197.38 199.393L197.375 199.443L200.339 199.724L200.274 200.409L196.252 200.027Z" fill="#4200FF"/>
<path fill-rule="evenodd" clip-rule="evenodd" d="M216.426 195.695C216.566 195.858 216.547 196.103 216.384 196.242L209.784 201.895C209.702 201.965 209.595 201.998 209.488 201.986C209.381 201.973 209.283 201.917 209.219 201.83L206.822 198.571C206.695 198.398 206.732 198.156 206.905 198.029C207.077 197.902 207.32 197.939 207.447 198.111L209.597 201.034L215.879 195.653C216.042 195.514 216.287 195.533 216.426 195.695Z" fill="#4200FF"/>
</g>
<defs>
<clipPath id="clip0_2897_3166">
<rect x="0.442871" y="0.829468" width="241.39" height="238.57" rx="20.9297" fill="white"/>
</clipPath>
</defs>
</svg>
