<svg width="369" height="140" viewBox="0 0 369 140" fill="none" xmlns="http://www.w3.org/2000/svg">
<path d="M5.61317 103.646V90.3646L52.7966 15.6636H63.2899V35.3295H56.539L22.7841 88.7502V89.6308H87.5788V103.646H5.61317ZM57.2728 125V99.6105L57.4195 93.5199V15.6636H73.1229V125H57.2728Z" fill="#952AFF"/>
<path fill-rule="evenodd" clip-rule="evenodd" d="M268.061 70.4314C268.641 67.0849 268.931 63.5802 268.931 59.9174C268.931 49.6001 266.566 40.4292 261.838 32.4047C257.109 24.5234 250.517 18.2901 242.063 13.7046C233.608 9.26246 223.793 7.04138 212.616 7.04138C201.439 7.04138 191.623 9.26246 183.168 13.7046C174.714 18.2901 168.122 24.5234 163.394 32.4047C158.665 40.4292 156.301 49.6001 156.301 59.9174C156.301 63.5802 156.59 67.0849 157.17 70.4314L173.338 70.4314C172.44 67.1609 171.991 63.6562 171.991 59.9174C171.991 52.7526 173.639 46.376 176.935 40.7874C180.374 35.3422 185.103 31.0433 191.121 27.8909C197.283 24.7384 204.448 23.1621 212.616 23.1621C220.927 23.1621 228.091 24.7384 234.11 27.8909C240.128 31.0433 244.785 35.3422 248.081 40.7874C251.52 46.376 253.24 52.7526 253.24 59.9174C253.24 63.6562 252.772 67.1609 251.835 70.4314L268.061 70.4314Z" fill="#952AFF"/>
<path fill-rule="evenodd" clip-rule="evenodd" d="M103.467 65.7084C102.771 69.0328 102.359 72.5253 102.231 76.186C101.871 86.497 103.914 95.7448 108.36 103.929C112.811 111.971 119.181 118.43 127.471 123.308C135.765 128.042 145.497 130.604 156.668 130.994C167.838 131.384 177.725 129.507 186.329 125.362C194.938 121.075 201.743 115.075 206.744 107.363C211.75 99.5088 214.433 90.4259 214.793 80.1149C214.921 76.4543 214.753 72.9415 214.29 69.5767L198.133 69.0127C198.916 72.3127 199.242 75.831 199.112 79.5676C198.862 86.728 196.992 93.0433 193.504 98.5134C189.877 103.835 185.001 107.967 178.876 110.907C172.608 113.843 165.393 115.168 157.23 114.883C148.924 114.593 141.818 112.768 135.914 109.408C130.009 106.047 125.505 101.588 122.401 96.0316C119.159 90.3265 117.663 83.8938 117.913 76.7333C118.043 72.9967 118.633 69.5104 119.683 66.2744L103.467 65.7084Z" fill="#952AFF"/>
<path d="M281.976 103.646V90.3646L329.16 15.6636H339.653V35.3295H332.902L299.147 88.7502V89.6308H363.942V103.646H281.976ZM333.636 125V99.6105L333.783 93.5199V15.6636H349.486V125H333.636Z" fill="#952AFF"/>
</svg>
