<svg width="78" height="53" viewBox="0 0 78 53" fill="none" xmlns="http://www.w3.org/2000/svg">
<rect x="27" y="33.1716" width="51" height="19.5721" rx="9.78603" fill="black"/>
<path d="M36.3111 47.4578H35.2843L38.254 39.3701H39.265L42.2346 47.4578H41.2079L38.7911 40.6496H38.7279L36.3111 47.4578ZM36.6902 44.2985H40.8288V45.1673H36.6902V44.2985ZM43.368 49.7324V41.392H44.2684V42.3556H44.379C44.4474 42.2503 44.5422 42.116 44.6633 41.9528C44.787 41.7869 44.9634 41.6395 45.1925 41.5105C45.4241 41.3789 45.7374 41.3131 46.1323 41.3131C46.6431 41.3131 47.0933 41.4408 47.4829 41.6961C47.8725 41.9515 48.1766 42.3135 48.3951 42.7821C48.6136 43.2507 48.7229 43.8036 48.7229 44.4407C48.7229 45.0831 48.6136 45.6399 48.3951 46.1111C48.1766 46.5798 47.8739 46.9431 47.4868 47.2011C47.0998 47.4564 46.6536 47.5841 46.1481 47.5841C45.7585 47.5841 45.4465 47.5196 45.2122 47.3906C44.9779 47.259 44.7976 47.1102 44.6712 46.9444C44.5448 46.7759 44.4474 46.6364 44.379 46.5258H44.3V49.7324H43.368ZM44.2842 44.4249C44.2842 44.883 44.3513 45.2871 44.4856 45.6373C44.6198 45.9848 44.816 46.2573 45.074 46.4547C45.332 46.6495 45.6479 46.7469 46.0218 46.7469C46.4114 46.7469 46.7365 46.6443 46.9972 46.4389C47.2604 46.2309 47.4579 45.9519 47.5895 45.6017C47.7238 45.2489 47.7909 44.8567 47.7909 44.4249C47.7909 43.9984 47.7251 43.614 47.5935 43.2718C47.4645 42.9269 47.2683 42.6544 47.0051 42.4543C46.7444 42.2516 46.4167 42.1503 46.0218 42.1503C45.6427 42.1503 45.3241 42.2464 45.0661 42.4385C44.8081 42.6281 44.6133 42.894 44.4816 43.2362C44.35 43.5759 44.2842 43.9721 44.2842 44.4249ZM49.3518 42.2608V41.392H54.2802V42.2608H52.2899V47.4578H51.3579V42.2608H49.3518ZM57.8679 47.5841C57.2834 47.5841 56.7793 47.4551 56.3554 47.1971C55.9342 46.9365 55.609 46.5732 55.38 46.1072C55.1536 45.6386 55.0404 45.0936 55.0404 44.4723C55.0404 43.851 55.1536 43.3034 55.38 42.8295C55.609 42.353 55.9276 41.9818 56.3357 41.7159C56.7464 41.4473 57.2255 41.3131 57.7731 41.3131C58.089 41.3131 58.401 41.3657 58.709 41.471C59.017 41.5763 59.2974 41.7475 59.5502 41.9844C59.8029 42.2187 60.0043 42.5294 60.1544 42.9164C60.3044 43.3034 60.3795 43.7799 60.3795 44.3459V44.7408H55.7038V43.9352H59.4317C59.4317 43.593 59.3632 43.2876 59.2263 43.019C59.0921 42.7505 58.8999 42.5386 58.6498 42.3833C58.4023 42.2279 58.1101 42.1503 57.7731 42.1503C57.4019 42.1503 57.0807 42.2424 56.8095 42.4267C56.541 42.6083 56.3343 42.8453 56.1895 43.1375C56.0447 43.4297 55.9723 43.743 55.9723 44.0774V44.6145C55.9723 45.0725 56.0513 45.4609 56.2093 45.7794C56.3699 46.0953 56.5923 46.3362 56.8767 46.5021C57.161 46.6653 57.4914 46.7469 57.8679 46.7469C58.1127 46.7469 58.3339 46.7127 58.5313 46.6443C58.7314 46.5732 58.9038 46.4679 59.0486 46.3283C59.1934 46.1862 59.3053 46.0098 59.3843 45.7992L60.2847 46.0519C60.1899 46.3573 60.0306 46.6258 59.8069 46.8575C59.5831 47.0866 59.3066 47.2656 58.9776 47.3946C58.6485 47.5209 58.2786 47.5841 57.8679 47.5841ZM65.1144 46.1941L67.231 41.392H68.1156L65.4935 47.4578H64.7352L62.1605 41.392H63.0293L65.1144 46.1941ZM62.7291 41.392V47.4578H61.7972V41.392H62.7291ZM67.4996 47.4578V41.392H68.4315V47.4578H67.4996Z" fill="white"/>
<path d="M11.6023 9.87783L33.6359 18.3463C34.8351 18.8071 34.7543 20.5301 33.5174 20.8768L24.3666 23.4417C23.9181 23.5675 23.5676 23.918 23.4418 24.3665L20.8769 33.5173C20.5302 34.7542 18.8072 34.835 18.3463 33.6358L9.87792 11.6022C9.4632 10.5231 10.5232 9.4631 11.6023 9.87783Z" fill="black"/>
</svg>
