<svg width="237" height="75" viewBox="0 0 237 75" fill="none" xmlns="http://www.w3.org/2000/svg">
<rect x="168.758" y="53.7441" width="67.6372" height="21.2556" rx="10.6278" fill="white"/>
<path d="M188.534 62.4628H187.493C187.431 62.1634 187.323 61.9004 187.17 61.6737C187.018 61.4471 186.834 61.2568 186.616 61.103C186.4 60.9463 186.161 60.8288 185.898 60.7504C185.635 60.6721 185.361 60.6329 185.075 60.6329C184.555 60.6329 184.083 60.7644 183.661 61.0274C183.241 61.2904 182.907 61.6779 182.658 62.19C182.412 62.702 182.289 63.3301 182.289 64.0744C182.289 64.8187 182.412 65.4468 182.658 65.9588C182.907 66.4709 183.241 66.8584 183.661 67.1214C184.083 67.3844 184.555 67.5159 185.075 67.5159C185.361 67.5159 185.635 67.4767 185.898 67.3984C186.161 67.32 186.4 67.2039 186.616 67.05C186.834 66.8933 187.018 66.7017 187.17 66.4751C187.323 66.2456 187.431 65.9826 187.493 65.686H188.534C188.455 66.1253 188.313 66.5184 188.105 66.8654C187.898 67.2123 187.641 67.5075 187.333 67.7509C187.025 67.9915 186.68 68.1748 186.297 68.3007C185.916 68.4266 185.509 68.4896 185.075 68.4896C184.342 68.4896 183.69 68.3105 183.12 67.9524C182.549 67.5942 182.1 67.085 181.772 66.4247C181.445 65.7644 181.281 64.9809 181.281 64.0744C181.281 63.1679 181.445 62.3844 181.772 61.7241C182.1 61.0638 182.549 60.5546 183.12 60.1964C183.69 59.8383 184.342 59.6592 185.075 59.6592C185.509 59.6592 185.916 59.7222 186.297 59.8481C186.68 59.974 187.025 60.1586 187.333 60.4021C187.641 60.6427 187.898 60.9365 188.105 61.2834C188.313 61.6276 188.455 62.0207 188.534 62.4628ZM192.784 68.5064C192.163 68.5064 191.627 68.3693 191.177 68.0951C190.729 67.8181 190.383 67.432 190.14 66.9367C189.899 66.4387 189.779 65.8595 189.779 65.1992C189.779 64.5389 189.899 63.9569 190.14 63.4532C190.383 62.9468 190.722 62.5523 191.156 62.2697C191.592 61.9843 192.101 61.8416 192.683 61.8416C193.019 61.8416 193.351 61.8976 193.678 62.0095C194.005 62.1214 194.303 62.3033 194.572 62.5551C194.841 62.8041 195.055 63.1343 195.214 63.5456C195.374 63.9569 195.453 64.4633 195.453 65.0649V65.4846H190.484V64.6284H194.446C194.446 64.2647 194.373 63.9401 194.228 63.6547C194.085 63.3693 193.881 63.1441 193.615 62.979C193.352 62.8139 193.041 62.7314 192.683 62.7314C192.289 62.7314 191.947 62.8293 191.659 63.0252C191.374 63.2182 191.154 63.47 191 63.7806C190.846 64.0912 190.77 64.4241 190.77 64.7795V65.3503C190.77 65.8371 190.853 66.2498 191.021 66.5884C191.192 66.9241 191.428 67.1801 191.731 67.3564C192.033 67.5299 192.384 67.6166 192.784 67.6166C193.044 67.6166 193.279 67.5802 193.489 67.5075C193.702 67.432 193.885 67.32 194.039 67.1717C194.193 67.0207 194.312 66.8332 194.396 66.6094L195.353 66.878C195.252 67.2025 195.083 67.4879 194.845 67.7341C194.607 67.9776 194.313 68.1678 193.963 68.3049C193.614 68.4392 193.221 68.5064 192.784 68.5064ZM201.274 64.6955V65.6189H197.715V64.6955H201.274ZM197.95 61.9256V68.3721H196.96V61.9256H197.95ZM202.03 61.9256V68.3721H201.039V61.9256H202.03ZM204.695 64.2591H206.542C207.297 64.2591 207.875 64.4507 208.275 64.834C208.675 65.2174 208.875 65.7028 208.875 66.2904C208.875 66.6765 208.786 67.0276 208.607 67.3438C208.427 67.6572 208.164 67.9076 207.818 68.0951C207.471 68.2797 207.045 68.3721 206.542 68.3721H203.839V61.9256H204.829V67.4487H206.542C206.933 67.4487 207.255 67.3452 207.507 67.1382C207.759 66.9311 207.885 66.6653 207.885 66.3407C207.885 65.9994 207.759 65.721 207.507 65.5056C207.255 65.2901 206.933 65.1824 206.542 65.1824H204.695V64.2591ZM213.002 68.5064C212.42 68.5064 211.909 68.3679 211.47 68.0909C211.033 67.8139 210.692 67.4264 210.446 66.9283C210.202 66.4303 210.081 65.8483 210.081 65.1824C210.081 64.5109 210.202 63.9247 210.446 63.4239C210.692 62.923 211.033 62.5341 211.47 62.2571C211.909 61.9801 212.42 61.8416 213.002 61.8416C213.584 61.8416 214.093 61.9801 214.529 62.2571C214.969 62.5341 215.31 62.923 215.554 63.4239C215.8 63.9247 215.923 64.5109 215.923 65.1824C215.923 65.8483 215.8 66.4303 215.554 66.9283C215.31 67.4264 214.969 67.8139 214.529 68.0909C214.093 68.3679 213.584 68.5064 213.002 68.5064ZM213.002 67.6166C213.444 67.6166 213.808 67.5033 214.093 67.2767C214.378 67.05 214.59 66.752 214.727 66.3827C214.864 66.0134 214.932 65.6133 214.932 65.1824C214.932 64.7515 214.864 64.35 214.727 63.9779C214.59 63.6057 214.378 63.305 214.093 63.0755C213.808 62.8461 213.444 62.7314 213.002 62.7314C212.56 62.7314 212.196 62.8461 211.911 63.0755C211.625 63.305 211.414 63.6057 211.277 63.9779C211.14 64.35 211.071 64.7515 211.071 65.1824C211.071 65.6133 211.14 66.0134 211.277 66.3827C211.414 66.752 211.625 67.05 211.911 67.2767C212.196 67.5033 212.56 67.6166 213.002 67.6166ZM217.435 70.7895V61.9256H218.392V62.9496H218.509C218.582 62.8377 218.683 62.695 218.811 62.5215C218.943 62.3453 219.13 62.1886 219.374 62.0515C219.62 61.9116 219.953 61.8416 220.373 61.8416C220.915 61.8416 221.394 61.9773 221.808 62.2487C222.222 62.5201 222.545 62.9048 222.778 63.4029C223.01 63.9009 223.126 64.4885 223.126 65.1656C223.126 65.8483 223.01 66.4401 222.778 66.9409C222.545 67.4389 222.224 67.8251 221.812 68.0993C221.401 68.3707 220.927 68.5064 220.389 68.5064C219.975 68.5064 219.644 68.4378 219.395 68.3007C219.146 68.1608 218.954 68.0027 218.82 67.8265C218.686 67.6474 218.582 67.4991 218.509 67.3816H218.425V70.7895H217.435ZM218.409 65.1488C218.409 65.6357 218.48 66.0651 218.623 66.4373C218.765 66.8066 218.974 67.0962 219.248 67.306C219.522 67.5131 219.858 67.6166 220.255 67.6166C220.669 67.6166 221.015 67.5075 221.292 67.2893C221.572 67.0682 221.781 66.7716 221.921 66.3995C222.064 66.0246 222.135 65.6077 222.135 65.1488C222.135 64.6955 222.065 64.287 221.926 63.9233C221.788 63.5568 221.58 63.2672 221.3 63.0545C221.023 62.8391 220.675 62.7314 220.255 62.7314C219.852 62.7314 219.514 62.8335 219.239 63.0378C218.965 63.2392 218.758 63.5218 218.618 63.8855C218.478 64.2465 218.409 64.6676 218.409 65.1488Z" fill="black"/>
<path d="M151.331 29.1705L174.748 38.1705C176.022 38.6603 175.936 40.4915 174.622 40.8599L164.896 43.5859C164.42 43.7195 164.047 44.092 163.913 44.5687L161.188 54.2939C160.819 55.6086 158.988 55.6944 158.498 54.42L149.498 31.0031C149.057 29.8563 150.184 28.7297 151.331 29.1705Z" fill="white"/>
<rect x="3.53139" y="3.8766" width="156.937" height="31.9372" stroke="white" stroke-width="1.06278"/>
<rect y="33.0225" width="6.37667" height="6.37667" fill="white"/>
<rect x="157.035" y="0.0761719" width="6.37667" height="6.37667" fill="white"/>
<rect y="0.0761719" width="6.37667" height="6.37667" fill="white"/>
</svg>
