<svg width="72" height="53" viewBox="0 0 72 53" fill="none" xmlns="http://www.w3.org/2000/svg">
<rect x="29" y="33.1716" width="43" height="19.5721" rx="9.78603" fill="#F64704"/>
<path d="M37.9794 47.4576V39.37H40.8069C41.3703 39.37 41.8349 39.4674 42.2009 39.6622C42.5668 39.8544 42.8393 40.1138 43.0183 40.4402C43.1974 40.764 43.2869 41.1234 43.2869 41.5183C43.2869 41.8658 43.225 42.1528 43.1013 42.3792C42.9802 42.6056 42.8196 42.7846 42.6195 42.9163C42.422 43.0479 42.2075 43.1453 41.9758 43.2085V43.2875C42.2233 43.3033 42.472 43.3901 42.7222 43.5481C42.9723 43.7061 43.1816 43.9325 43.35 44.2273C43.5185 44.5222 43.6028 44.8829 43.6028 45.3094C43.6028 45.7148 43.5106 46.0794 43.3264 46.4032C43.1421 46.7271 42.8512 46.9838 42.4536 47.1733C42.0561 47.3629 41.5388 47.4576 40.9016 47.4576H37.9794ZM38.9587 46.5889H40.9016C41.5414 46.5889 41.9955 46.4651 42.2641 46.2176C42.5352 45.9675 42.6708 45.6648 42.6708 45.3094C42.6708 45.0356 42.601 44.7828 42.4615 44.5512C42.322 44.3168 42.1232 44.1299 41.8652 43.9904C41.6072 43.8482 41.3018 43.7771 40.949 43.7771H38.9587V46.5889ZM38.9587 42.9241H40.7753C41.0701 42.9241 41.336 42.8662 41.573 42.7504C41.8126 42.6346 42.0021 42.4713 42.1416 42.2607C42.2838 42.0501 42.3549 41.8026 42.3549 41.5183C42.3549 41.1629 42.2312 40.8614 41.9837 40.614C41.7362 40.3639 41.3439 40.2388 40.8069 40.2388H38.9587V42.9241ZM44.5486 47.4576V46.5889H44.7697C44.9514 46.5889 45.1028 46.5533 45.2239 46.4822C45.345 46.4085 45.4424 46.2808 45.5161 46.0992C45.5924 45.9149 45.6504 45.6595 45.6899 45.3331C45.732 45.004 45.7623 44.5854 45.7807 44.0773L45.8913 41.3919H49.9351V47.4576H49.0031V42.2607H46.7758L46.6811 44.4248C46.66 44.9224 46.6152 45.3607 46.5468 45.7398C46.481 46.1163 46.3796 46.4322 46.2427 46.6876C46.1085 46.943 45.9294 47.1351 45.7056 47.2641C45.4819 47.3931 45.2015 47.4576 44.8645 47.4576H44.5486ZM53.43 47.5998C53.0456 47.5998 52.6968 47.5274 52.3835 47.3826C52.0702 47.2352 51.8214 47.0232 51.6371 46.7468C51.4528 46.4678 51.3607 46.1308 51.3607 45.7359C51.3607 45.3883 51.4291 45.1066 51.566 44.8908C51.7029 44.6723 51.8859 44.5011 52.1149 44.3774C52.344 44.2537 52.5967 44.1615 52.8731 44.101C53.1522 44.0378 53.4326 43.9878 53.7143 43.9509C54.0829 43.9035 54.3817 43.868 54.6107 43.8443C54.8424 43.8179 55.0109 43.7745 55.1162 43.714C55.2241 43.6534 55.2781 43.5481 55.2781 43.398V43.3664C55.2781 42.9768 55.1715 42.674 54.9582 42.4582C54.7476 42.2423 54.4278 42.1343 53.9986 42.1343C53.5537 42.1343 53.2049 42.2318 52.9521 42.4266C52.6994 42.6214 52.5217 42.8294 52.419 43.0505L51.5344 42.7346C51.6924 42.366 51.903 42.0791 52.1663 41.8737C52.4322 41.6657 52.7218 41.5209 53.0351 41.4393C53.351 41.3551 53.6616 41.3129 53.967 41.3129C54.1618 41.3129 54.3856 41.3366 54.6384 41.384C54.8937 41.4288 55.1399 41.5222 55.3768 41.6644C55.6164 41.8066 55.8152 42.0211 55.9731 42.3081C56.1311 42.5951 56.2101 42.9794 56.2101 43.4612V47.4576H55.2781V46.6362H55.2307C55.1675 46.7679 55.0622 46.9087 54.9148 47.0588C54.7674 47.2089 54.5712 47.3365 54.3264 47.4418C54.0816 47.5472 53.7827 47.5998 53.43 47.5998ZM53.5721 46.7626C53.9407 46.7626 54.2514 46.6902 54.5041 46.5454C54.7595 46.4006 54.9517 46.2137 55.0807 45.9847C55.2123 45.7556 55.2781 45.5147 55.2781 45.262V44.409C55.2386 44.4564 55.1517 44.4998 55.0175 44.5393C54.8858 44.5762 54.7331 44.6091 54.5594 44.638C54.3883 44.6644 54.2211 44.6881 54.0579 44.7091C53.8973 44.7275 53.7669 44.7433 53.6669 44.7565C53.4247 44.7881 53.1983 44.8394 52.9877 44.9105C52.7797 44.979 52.6112 45.083 52.4822 45.2225C52.3558 45.3594 52.2926 45.5463 52.2926 45.7833C52.2926 46.1071 52.4124 46.3519 52.652 46.5178C52.8942 46.681 53.2009 46.7626 53.5721 46.7626ZM57.2635 49.1952V46.5889H57.769C57.8927 46.4599 57.9993 46.3203 58.0888 46.1703C58.1783 46.0202 58.256 45.8425 58.3218 45.6371C58.3903 45.4292 58.4482 45.1764 58.4956 44.8789C58.543 44.5788 58.5851 44.2168 58.622 43.7929L58.8273 41.3919H62.6816V46.5889H63.6135V49.1952H62.6816V47.4576H58.1955V49.1952H57.2635ZM58.8273 46.5889H61.7496V42.2607H59.6961L59.5381 43.7929C59.4723 44.4274 59.3907 44.9816 59.2933 45.4555C59.1959 45.9294 59.0406 46.3072 58.8273 46.5889Z" fill="white"/>
<path d="M11.6023 9.87795L33.6359 18.3464C34.8351 18.8073 34.7543 20.5302 33.5174 20.8769L24.3666 23.4419C23.9181 23.5676 23.5676 23.9181 23.4418 24.3666L20.8769 33.5174C20.5302 34.7544 18.8072 34.8351 18.3463 33.636L9.87792 11.6023C9.4632 10.5233 10.5232 9.46323 11.6023 9.87795Z" fill="#F64704"/>
</svg>
