<svg width="650" height="242" viewBox="0 0 650 242" fill="none" xmlns="http://www.w3.org/2000/svg">
<rect y="61.1914" width="576" height="180" rx="10" fill="#F2F2F2"/>
<path d="M78.4607 172.822C74.6147 172.822 71.2303 171.976 68.3073 170.284C65.3844 168.54 63.1024 166.156 61.4614 163.13C59.8205 160.105 59 156.566 59 152.515C59 148.515 59.8205 145.003 61.4614 141.977C63.1024 138.9 65.3844 136.516 68.3073 134.824C71.2303 133.131 74.6147 132.285 78.4607 132.285C81.3837 132.285 83.999 132.824 86.3066 133.9C88.6654 134.926 90.6654 136.413 92.3063 138.362C93.9986 140.259 95.2549 142.592 96.0754 145.362L90.3833 146.977H89.5372C88.6654 144.362 87.2296 142.31 85.2297 140.823C83.281 139.285 81.0247 138.516 78.4607 138.516C75.8455 138.516 73.5635 139.105 71.6149 140.285C69.7175 141.464 68.2304 143.105 67.1535 145.208C66.0766 147.31 65.5382 149.746 65.5382 152.515C65.5382 155.284 66.0766 157.746 67.1535 159.899C68.2304 162.002 69.7175 163.643 71.6149 164.822C73.5635 166.002 75.8455 166.591 78.4607 166.591C80.2555 166.591 81.8965 166.258 83.3836 165.591C84.8707 164.925 86.1527 163.951 87.2296 162.669C88.3578 161.387 89.2295 159.874 89.8449 158.13H90.691L96.46 159.746C95.537 162.515 94.2037 164.899 92.4602 166.899C90.7166 168.848 88.6654 170.335 86.3066 171.36C83.999 172.335 81.3837 172.822 78.4607 172.822Z" fill="#100F0F"/>
<path d="M456.297 171.822V133.285H462.604V143.977L460.989 142.515C461.707 140.413 462.809 138.618 464.297 137.131C465.784 135.593 467.527 134.413 469.527 133.593C471.527 132.721 473.629 132.285 475.835 132.285C479.168 132.285 482.065 133.234 484.526 135.131C486.988 137.029 488.603 139.772 489.372 143.362L486.68 143.285C487.347 141.08 488.449 139.157 489.988 137.516C491.577 135.875 493.475 134.593 495.68 133.67C497.885 132.747 500.269 132.285 502.833 132.285C505.449 132.285 507.808 132.875 509.91 134.054C512.013 135.234 513.679 136.977 514.91 139.285C516.141 141.592 516.756 144.49 516.756 147.977V171.822H510.218V149.515C510.218 146.746 509.807 144.567 508.987 142.977C508.167 141.387 507.09 140.259 505.756 139.593C504.423 138.926 502.91 138.593 501.218 138.593C499.475 138.593 497.731 139.054 495.988 139.977C494.244 140.9 492.783 142.31 491.603 144.208C490.424 146.054 489.834 148.438 489.834 151.361V171.822H483.296V149.515C483.296 146.746 482.886 144.567 482.065 142.977C481.245 141.387 480.142 140.259 478.757 139.593C477.424 138.926 475.937 138.593 474.296 138.593C472.553 138.593 470.783 139.08 468.989 140.054C467.245 140.977 465.784 142.387 464.604 144.285C463.425 146.131 462.835 148.49 462.835 151.361V171.822H456.297Z" fill="#100F0F"/>
<path d="M426.534 172.823C423.868 172.823 421.483 172.31 419.381 171.284C417.33 170.259 415.714 168.848 414.535 167.054C413.355 165.208 412.766 163.105 412.766 160.746C412.766 157.362 413.971 154.618 416.381 152.516C418.842 150.413 422.227 149.183 426.534 148.824L441.38 147.747V153.593L427.842 154.67C425.022 154.875 422.919 155.49 421.535 156.516C420.201 157.49 419.535 158.875 419.535 160.669C419.535 162.362 420.253 163.772 421.688 164.9C423.124 166.028 424.97 166.592 427.227 166.592C429.534 166.592 431.637 166.054 433.534 164.977C435.431 163.9 436.918 162.464 437.995 160.669C439.124 158.875 439.688 156.875 439.688 154.67V148.439C439.688 145.516 438.765 143.106 436.918 141.209C435.124 139.311 432.714 138.363 429.688 138.363C427.329 138.363 425.304 138.952 423.611 140.132C421.919 141.26 420.765 142.85 420.15 144.901H419.304L413.612 143.055C414.74 139.619 416.714 136.952 419.535 135.055C422.355 133.158 425.765 132.209 429.765 132.209C434.995 132.209 439.021 133.773 441.841 136.901C444.713 140.029 446.149 144.439 446.149 150.131V171.823H439.995V160.592L442.303 161.823C441.688 163.926 440.585 165.823 438.995 167.515C437.457 169.156 435.611 170.464 433.457 171.438C431.355 172.361 429.047 172.823 426.534 172.823Z" fill="#100F0F"/>
<path d="M388.111 172.822C384.368 172.822 381.06 171.976 378.189 170.284C375.317 168.54 373.061 166.156 371.42 163.13C369.83 160.105 369.035 156.566 369.035 152.515C369.035 148.515 369.83 145.003 371.42 141.977C373.009 138.9 375.214 136.516 378.035 134.824C380.906 133.131 384.188 132.285 387.881 132.285C391.521 132.285 394.701 133.157 397.419 134.9C400.188 136.593 402.341 139.003 403.88 142.131C405.418 145.259 406.187 148.9 406.187 153.054V153.977L405.034 155.053H372.65V148.977H402.649L399.572 150.207C399.419 147.746 398.803 145.644 397.726 143.9C396.649 142.157 395.265 140.823 393.573 139.9C391.88 138.926 389.983 138.439 387.881 138.439C385.624 138.439 383.547 139.003 381.65 140.131C379.753 141.208 378.266 142.746 377.189 144.746C376.112 146.746 375.573 149.054 375.573 151.669V153.207C375.573 155.771 376.112 158.079 377.189 160.13C378.266 162.13 379.753 163.72 381.65 164.899C383.547 166.079 385.701 166.668 388.111 166.668C390.47 166.668 392.521 166.104 394.265 164.976C396.008 163.797 397.367 162.207 398.342 160.207H399.265L404.649 162.592C403.213 165.771 401.034 168.284 398.111 170.13C395.239 171.925 391.906 172.822 388.111 172.822Z" fill="#100F0F"/>
<path d="M357.784 171.822C354.45 171.822 351.733 170.771 349.63 168.669C347.528 166.515 346.476 163.618 346.476 159.977V122.901H353.015V159.438C353.015 161.643 353.502 163.233 354.476 164.207C355.45 165.13 357.014 165.592 359.168 165.592H363.783L364.168 166.438V171.822H357.784ZM339.861 139.439V133.286H364.168V139.439H339.861Z" fill="#100F0F"/>
<path d="M318.937 172.822C315.091 172.822 311.707 171.976 308.784 170.284C305.861 168.54 303.579 166.156 301.938 163.13C300.297 160.105 299.477 156.566 299.477 152.515C299.477 148.515 300.297 145.003 301.938 141.977C303.579 138.9 305.861 136.516 308.784 134.824C311.707 133.131 315.091 132.285 318.937 132.285C321.86 132.285 324.476 132.824 326.783 133.9C329.142 134.926 331.142 136.413 332.783 138.362C334.475 140.259 335.731 142.592 336.552 145.362L330.86 146.977H330.014C329.142 144.362 327.706 142.31 325.706 140.823C323.758 139.285 321.501 138.516 318.937 138.516C316.322 138.516 314.04 139.105 312.091 140.285C310.194 141.464 308.707 143.105 307.63 145.208C306.553 147.31 306.015 149.746 306.015 152.515C306.015 155.284 306.553 157.746 307.63 159.899C308.707 162.002 310.194 163.643 312.091 164.822C314.04 166.002 316.322 166.591 318.937 166.591C320.732 166.591 322.373 166.258 323.86 165.591C325.347 164.925 326.629 163.951 327.706 162.669C328.834 161.387 329.706 159.874 330.321 158.13H331.168L336.937 159.746C336.014 162.515 334.68 164.899 332.937 166.899C331.193 168.848 329.142 170.335 326.783 171.36C324.476 172.335 321.86 172.822 318.937 172.822Z" fill="#100F0F"/>
<path d="M275.436 172.822C271.692 172.822 268.385 171.976 265.513 170.284C262.641 168.54 260.385 166.156 258.744 163.13C257.154 160.105 256.359 156.566 256.359 152.515C256.359 148.515 257.154 145.003 258.744 141.977C260.334 138.9 262.539 136.516 265.359 134.824C268.231 133.131 271.513 132.285 275.205 132.285C278.846 132.285 282.025 133.157 284.743 134.9C287.512 136.593 289.666 139.003 291.204 142.131C292.742 145.259 293.512 148.9 293.512 153.054V153.977L292.358 155.053H259.975V148.977H289.973L286.897 150.207C286.743 147.746 286.127 145.644 285.05 143.9C283.974 142.157 282.589 140.823 280.897 139.9C279.205 138.926 277.307 138.439 275.205 138.439C272.948 138.439 270.872 139.003 268.974 140.131C267.077 141.208 265.59 142.746 264.513 144.746C263.436 146.746 262.898 149.054 262.898 151.669V153.207C262.898 155.771 263.436 158.079 264.513 160.13C265.59 162.13 267.077 163.72 268.974 164.899C270.872 166.079 273.025 166.668 275.436 166.668C277.794 166.668 279.846 166.104 281.589 164.976C283.333 163.797 284.692 162.207 285.666 160.207H286.589L291.973 162.592C290.537 165.771 288.358 168.284 285.435 170.13C282.563 171.925 279.23 172.822 275.436 172.822Z" fill="#100F0F"/>
<path d="M214.195 171.822V133.285H220.503V144.131L218.657 142.977C219.375 140.772 220.503 138.875 222.041 137.285C223.58 135.695 225.374 134.465 227.426 133.593C229.528 132.721 231.759 132.285 234.118 132.285C236.887 132.285 239.348 132.875 241.502 134.054C243.707 135.234 245.425 136.977 246.656 139.285C247.886 141.592 248.502 144.49 248.502 147.977V171.822H241.963V149.592C241.963 146.823 241.553 144.644 240.733 143.054C239.912 141.413 238.784 140.259 237.348 139.593C235.964 138.926 234.374 138.593 232.579 138.593C230.631 138.593 228.733 139.08 226.887 140.054C225.092 140.977 223.605 142.387 222.426 144.285C221.298 146.182 220.734 148.541 220.734 151.361V171.822H214.195Z" fill="#100F0F"/>
<path d="M169.801 171.822V133.285H176.108V144.131L174.262 142.977C174.98 140.772 176.108 138.875 177.647 137.285C179.185 135.695 180.98 134.465 183.031 133.593C185.133 132.721 187.364 132.285 189.723 132.285C192.492 132.285 194.954 132.875 197.107 134.054C199.312 135.234 201.03 136.977 202.261 139.285C203.492 141.592 204.107 144.49 204.107 147.977V171.822H197.569V149.592C197.569 146.823 197.159 144.644 196.338 143.054C195.518 141.413 194.39 140.259 192.954 139.593C191.569 138.926 189.979 138.593 188.185 138.593C186.236 138.593 184.339 139.08 182.493 140.054C180.698 140.977 179.211 142.387 178.031 144.285C176.903 146.182 176.339 148.541 176.339 151.361V171.822H169.801Z" fill="#100F0F"/>
<rect x="161.436" y="148.594" width="4.87958" height="13.832" rx="2.43979" transform="rotate(90 161.436 148.594)" fill="#9F9F9F"/>
<rect x="158.039" y="165.066" width="4.87958" height="13.832" rx="2.43979" transform="rotate(122.678 158.039 165.066)" fill="#CDCDCD"/>
<rect x="146.252" y="177.113" width="4.87958" height="13.832" rx="2.43979" transform="rotate(155.365 146.252 177.113)" fill="#DFDFDF"/>
<rect x="129.732" y="180.856" width="4.87958" height="13.832" rx="2.43979" transform="rotate(-171.835 129.732 180.856)" fill="#100F0F"/>
<rect x="113.904" y="175.089" width="4.87958" height="13.832" rx="2.43979" transform="rotate(-138.957 113.904 175.089)" fill="#100F0F"/>
<rect x="103.721" y="161.709" width="4.87958" height="13.832" rx="2.43979" transform="rotate(-106.248 103.721 161.709)" fill="#100F0F"/>
<rect x="102.402" y="144.822" width="4.87958" height="13.832" rx="2.43979" transform="rotate(-73.3182 102.402 144.822)" fill="#100F0F"/>
<rect x="110.371" y="130.036" width="4.87958" height="13.832" rx="2.43979" transform="rotate(-40.6266 110.371 130.036)" fill="#100F0F"/>
<rect x="125.168" y="121.848" width="4.87958" height="13.832" rx="2.43979" transform="rotate(-7.72568 125.168 121.848)" fill="#100F0F"/>
<rect x="141.977" y="122.975" width="4.87958" height="13.832" rx="2.43979" transform="rotate(25.0617 141.977 122.975)" fill="#383838"/>
<rect x="155.531" y="133.061" width="4.87958" height="13.832" rx="2.43979" transform="rotate(57.743 155.531 133.061)" fill="#6A6A6A"/>
<rect x="575.916" y="148.594" width="4.87958" height="13.832" rx="2.43979" transform="rotate(90 575.916 148.594)" fill="#9F9F9F"/>
<rect x="572.518" y="165.066" width="4.87958" height="13.832" rx="2.43979" transform="rotate(122.678 572.518 165.066)" fill="#CDCDCD"/>
<rect x="560.732" y="177.113" width="4.87958" height="13.832" rx="2.43979" transform="rotate(155.365 560.732 177.113)" fill="#DFDFDF"/>
<rect x="544.213" y="180.856" width="4.87958" height="13.832" rx="2.43979" transform="rotate(-171.835 544.213 180.856)" fill="#100F0F"/>
<rect x="528.385" y="175.089" width="4.87958" height="13.832" rx="2.43979" transform="rotate(-138.957 528.385 175.089)" fill="#100F0F"/>
<rect x="518.201" y="161.709" width="4.87958" height="13.832" rx="2.43979" transform="rotate(-106.248 518.201 161.709)" fill="#100F0F"/>
<rect x="516.883" y="144.822" width="4.87958" height="13.832" rx="2.43979" transform="rotate(-73.3182 516.883 144.822)" fill="#100F0F"/>
<rect x="524.852" y="130.036" width="4.87958" height="13.832" rx="2.43979" transform="rotate(-40.6266 524.852 130.036)" fill="#100F0F"/>
<rect x="539.648" y="121.848" width="4.87958" height="13.832" rx="2.43979" transform="rotate(-7.72568 539.648 121.848)" fill="#100F0F"/>
<rect x="556.457" y="122.975" width="4.87958" height="13.832" rx="2.43979" transform="rotate(25.0617 556.457 122.975)" fill="#383838"/>
<rect x="570.012" y="133.061" width="4.87958" height="13.832" rx="2.43979" transform="rotate(57.743 570.012 133.061)" fill="#6A6A6A"/>
<rect x="59.0801" y="148.594" width="4.87958" height="13.832" rx="2.43979" transform="rotate(90 59.0801 148.594)" fill="#9F9F9F"/>
<rect x="55.6816" y="165.066" width="4.87958" height="13.832" rx="2.43979" transform="rotate(122.678 55.6816 165.066)" fill="#CDCDCD"/>
<rect x="43.8965" y="177.113" width="4.87958" height="13.832" rx="2.43979" transform="rotate(155.365 43.8965 177.113)" fill="#DFDFDF"/>
<rect x="27.377" y="180.856" width="4.87958" height="13.832" rx="2.43979" transform="rotate(-171.835 27.377 180.856)" fill="#100F0F"/>
<rect x="11.5488" y="175.089" width="4.87958" height="13.832" rx="2.43979" transform="rotate(-138.957 11.5488 175.089)" fill="#100F0F"/>
<rect x="1.36523" y="161.709" width="4.87958" height="13.832" rx="2.43979" transform="rotate(-106.248 1.36523 161.709)" fill="#100F0F"/>
<rect x="0.046875" y="144.822" width="4.87958" height="13.832" rx="2.43979" transform="rotate(-73.3182 0.046875 144.822)" fill="#100F0F"/>
<rect x="8.01562" y="130.036" width="4.87958" height="13.832" rx="2.43979" transform="rotate(-40.6266 8.01562 130.036)" fill="#100F0F"/>
<rect x="22.8125" y="121.848" width="4.87958" height="13.832" rx="2.43979" transform="rotate(-7.72568 22.8125 121.848)" fill="#100F0F"/>
<rect x="39.6211" y="122.975" width="4.87958" height="13.832" rx="2.43979" transform="rotate(25.0617 39.6211 122.975)" fill="#383838"/>
<rect x="53.1758" y="133.061" width="4.87958" height="13.832" rx="2.43979" transform="rotate(57.743 53.1758 133.061)" fill="#6A6A6A"/>
<rect x="317.08" y="208.594" width="4.87958" height="13.832" rx="2.43979" transform="rotate(90 317.08 208.594)" fill="#9F9F9F"/>
<rect x="313.684" y="225.066" width="4.87958" height="13.832" rx="2.43979" transform="rotate(122.678 313.684 225.066)" fill="#CDCDCD"/>
<rect x="301.896" y="237.113" width="4.87958" height="13.832" rx="2.43979" transform="rotate(155.365 301.896 237.113)" fill="#DFDFDF"/>
<rect x="285.377" y="240.856" width="4.87958" height="13.832" rx="2.43979" transform="rotate(-171.835 285.377 240.856)" fill="#100F0F"/>
<rect x="269.549" y="235.089" width="4.87958" height="13.832" rx="2.43979" transform="rotate(-138.957 269.549 235.089)" fill="#100F0F"/>
<rect x="259.365" y="221.709" width="4.87958" height="13.832" rx="2.43979" transform="rotate(-106.248 259.365 221.709)" fill="#100F0F"/>
<rect x="258.047" y="204.822" width="4.87958" height="13.832" rx="2.43979" transform="rotate(-73.3182 258.047 204.822)" fill="#100F0F"/>
<rect x="266.016" y="190.036" width="4.87958" height="13.832" rx="2.43979" transform="rotate(-40.6266 266.016 190.036)" fill="#100F0F"/>
<rect x="280.812" y="181.848" width="4.87958" height="13.832" rx="2.43979" transform="rotate(-7.72568 280.812 181.848)" fill="#100F0F"/>
<rect x="297.621" y="182.975" width="4.87958" height="13.832" rx="2.43979" transform="rotate(25.0617 297.621 182.975)" fill="#383838"/>
<rect x="311.176" y="193.061" width="4.87958" height="13.832" rx="2.43979" transform="rotate(57.743 311.176 193.061)" fill="#6A6A6A"/>
<rect x="317.08" y="88.5933" width="4.87958" height="13.832" rx="2.43979" transform="rotate(90 317.08 88.5933)" fill="#9F9F9F"/>
<rect x="313.684" y="105.066" width="4.87958" height="13.832" rx="2.43979" transform="rotate(122.678 313.684 105.066)" fill="#CDCDCD"/>
<rect x="301.896" y="117.113" width="4.87958" height="13.832" rx="2.43979" transform="rotate(155.365 301.896 117.113)" fill="#DFDFDF"/>
<rect x="285.377" y="120.856" width="4.87958" height="13.832" rx="2.43979" transform="rotate(-171.835 285.377 120.856)" fill="#100F0F"/>
<rect x="269.549" y="115.088" width="4.87958" height="13.832" rx="2.43979" transform="rotate(-138.957 269.549 115.088)" fill="#100F0F"/>
<rect x="259.365" y="101.708" width="4.87958" height="13.832" rx="2.43979" transform="rotate(-106.248 259.365 101.708)" fill="#100F0F"/>
<rect x="258.047" y="84.8218" width="4.87958" height="13.832" rx="2.43979" transform="rotate(-73.3182 258.047 84.8218)" fill="#100F0F"/>
<rect x="266.016" y="70.0356" width="4.87958" height="13.832" rx="2.43979" transform="rotate(-40.6266 266.016 70.0356)" fill="#100F0F"/>
<rect x="280.812" y="61.8472" width="4.87958" height="13.832" rx="2.43979" transform="rotate(-7.72568 280.812 61.8472)" fill="#100F0F"/>
<rect x="297.621" y="62.9741" width="4.87958" height="13.832" rx="2.43979" transform="rotate(25.0617 297.621 62.9741)" fill="#383838"/>
<rect x="311.176" y="73.0601" width="4.87958" height="13.832" rx="2.43979" transform="rotate(57.743 311.176 73.0601)" fill="#6A6A6A"/>
<line opacity="0.5" x1="58.75" y1="241.191" x2="58.75" y2="61.1914" stroke="#100F0F" stroke-width="0.5"/>
<line opacity="0.5" x1="516.75" y1="241.191" x2="516.75" y2="61.1914" stroke="#100F0F" stroke-width="0.5"/>
<line opacity="0.5" x1="576" y1="181.441" y2="181.441" stroke="#100F0F" stroke-width="0.5"/>
<line opacity="0.5" x1="576" y1="121.441" y2="121.441" stroke="#100F0F" stroke-width="0.5"/>
<path opacity="0.5" d="M595 121.191V62.1914M595 121.191L599 115.191M595 121.191L591 115.191M595 62.1914L591 68.1912M595 62.1914L599 68.1912" stroke="#100F0F" stroke-width="0.5" stroke-linecap="round" stroke-linejoin="round"/>
<path opacity="0.5" d="M619.259 90.2314C619.914 90.2314 620.514 90.3914 621.059 90.7114C621.604 91.0264 622.031 91.4564 622.341 92.0014C622.656 92.5464 622.814 93.1489 622.814 93.8089C622.814 94.4639 622.649 95.0689 622.319 95.6239C621.989 96.1739 621.541 96.6114 620.976 96.9364C620.416 97.2564 619.809 97.4164 619.154 97.4164C618.484 97.4164 617.869 97.2539 617.309 96.9289C616.754 96.5989 616.314 96.1489 615.989 95.5789C615.664 95.0089 615.501 94.3789 615.501 93.6889V89.9464C615.501 89.2364 615.664 88.5939 615.989 88.0189C616.314 87.4439 616.759 86.9939 617.324 86.6689C617.894 86.3389 618.531 86.1739 619.236 86.1739C619.851 86.1739 620.421 86.3089 620.946 86.5789C621.471 86.8489 621.904 87.2264 622.244 87.7114L621.396 88.4089C621.166 88.0489 620.859 87.7614 620.474 87.5464C620.089 87.3314 619.676 87.2239 619.236 87.2239C618.741 87.2239 618.294 87.3439 617.894 87.5839C617.494 87.8239 617.181 88.1464 616.956 88.5514C616.731 88.9514 616.619 89.3839 616.619 89.8489V91.5064C616.944 91.1114 617.336 90.8014 617.796 90.5764C618.256 90.3464 618.744 90.2314 619.259 90.2314ZM619.154 96.3439C619.619 96.3439 620.046 96.2314 620.436 96.0064C620.826 95.7814 621.134 95.4739 621.359 95.0839C621.589 94.6939 621.704 94.2689 621.704 93.8089C621.704 93.3439 621.589 92.9164 621.359 92.5264C621.134 92.1364 620.826 91.8289 620.436 91.6039C620.046 91.3739 619.621 91.2589 619.161 91.2589C618.701 91.2589 618.276 91.3739 617.886 91.6039C617.496 91.8289 617.186 92.1364 616.956 92.5264C616.731 92.9164 616.619 93.3439 616.619 93.8089C616.619 94.2689 616.731 94.6939 616.956 95.0839C617.181 95.4689 617.489 95.7764 617.879 96.0064C618.269 96.2314 618.694 96.3439 619.154 96.3439ZM628.328 97.4164C627.668 97.4164 627.068 97.2639 626.528 96.9589C625.993 96.6489 625.57 96.2264 625.26 95.6914C624.955 95.1514 624.803 94.5514 624.803 93.8914V89.6914C624.803 89.0314 624.955 88.4339 625.26 87.8989C625.57 87.3589 625.993 86.9364 626.528 86.6314C627.068 86.3214 627.668 86.1664 628.328 86.1664C628.988 86.1664 629.585 86.3214 630.12 86.6314C630.66 86.9364 631.083 87.3589 631.388 87.8989C631.698 88.4339 631.853 89.0314 631.853 89.6914V93.8914C631.853 94.5514 631.698 95.1514 631.388 95.6914C631.083 96.2264 630.66 96.6489 630.12 96.9589C629.585 97.2639 628.988 97.4164 628.328 97.4164ZM628.328 96.3514C628.763 96.3514 629.165 96.2439 629.535 96.0289C629.905 95.8139 630.198 95.5214 630.413 95.1514C630.628 94.7814 630.735 94.3789 630.735 93.9439V89.6389C630.735 89.1989 630.628 88.7964 630.413 88.4314C630.198 88.0614 629.905 87.7689 629.535 87.5539C629.165 87.3339 628.763 87.2239 628.328 87.2239C627.893 87.2239 627.49 87.3339 627.12 87.5539C626.75 87.7689 626.458 88.0614 626.243 88.4314C626.028 88.7964 625.92 89.1989 625.92 89.6389V93.9439C625.92 94.3789 626.028 94.7814 626.243 95.1514C626.458 95.5214 626.75 95.8139 627.12 96.0289C627.49 96.2439 627.893 96.3514 628.328 96.3514ZM637.641 88.8664C638.361 88.8664 638.988 89.0514 639.523 89.4214C640.063 89.7914 640.476 90.3014 640.761 90.9514C641.046 91.5964 641.188 92.3239 641.188 93.1339C641.188 93.9489 641.046 94.6814 640.761 95.3314C640.476 95.9814 640.061 96.4914 639.516 96.8614C638.976 97.2314 638.336 97.4164 637.596 97.4164C637.061 97.4164 636.578 97.3139 636.148 97.1089C635.723 96.8989 635.361 96.6039 635.061 96.2239V100.791H633.951V89.0914H634.941V90.2089C635.246 89.7789 635.626 89.4489 636.081 89.2189C636.536 88.9839 637.056 88.8664 637.641 88.8664ZM637.483 96.3889C638.028 96.3889 638.491 96.2489 638.871 95.9689C639.251 95.6889 639.536 95.3039 639.726 94.8139C639.921 94.3189 640.018 93.7589 640.018 93.1339C640.018 92.5089 639.923 91.9539 639.733 91.4689C639.548 90.9789 639.263 90.5939 638.878 90.3139C638.493 90.0339 638.021 89.8939 637.461 89.8939C636.911 89.8939 636.446 90.0289 636.066 90.2989C635.691 90.5689 635.408 90.9489 635.218 91.4389C635.033 91.9239 634.941 92.4889 634.941 93.1339C634.941 93.7739 635.033 94.3389 635.218 94.8289C635.408 95.3139 635.693 95.6964 636.073 95.9764C636.453 96.2514 636.923 96.3889 637.483 96.3889ZM643.116 97.1914H641.789L644.954 93.0964L641.856 89.0914H643.176L645.599 92.2489L647.999 89.0914H649.319L646.221 93.0964L649.394 97.1914H648.066L645.599 93.9439L643.116 97.1914Z" fill="#100F0F"/>
<path opacity="0.5" d="M533.759 10.2314C534.414 10.2314 535.014 10.3914 535.559 10.7114C536.104 11.0264 536.531 11.4564 536.841 12.0014C537.156 12.5464 537.314 13.1489 537.314 13.8089C537.314 14.4639 537.149 15.0689 536.819 15.6239C536.489 16.1739 536.041 16.6114 535.476 16.9364C534.916 17.2564 534.309 17.4164 533.654 17.4164C532.984 17.4164 532.369 17.2539 531.809 16.9289C531.254 16.5989 530.814 16.1489 530.489 15.5789C530.164 15.0089 530.001 14.3789 530.001 13.6889V9.94641C530.001 9.23641 530.164 8.59391 530.489 8.01891C530.814 7.44391 531.259 6.99391 531.824 6.66891C532.394 6.33891 533.031 6.17391 533.736 6.17391C534.351 6.17391 534.921 6.30891 535.446 6.57891C535.971 6.84891 536.404 7.22641 536.744 7.71141L535.896 8.40891C535.666 8.04891 535.359 7.76141 534.974 7.54641C534.589 7.33141 534.176 7.22391 533.736 7.22391C533.241 7.22391 532.794 7.34391 532.394 7.58391C531.994 7.82391 531.681 8.14641 531.456 8.55141C531.231 8.95141 531.119 9.38391 531.119 9.84891V11.5064C531.444 11.1114 531.836 10.8014 532.296 10.5764C532.756 10.3464 533.244 10.2314 533.759 10.2314ZM533.654 16.3439C534.119 16.3439 534.546 16.2314 534.936 16.0064C535.326 15.7814 535.634 15.4739 535.859 15.0839C536.089 14.6939 536.204 14.2689 536.204 13.8089C536.204 13.3439 536.089 12.9164 535.859 12.5264C535.634 12.1364 535.326 11.8289 534.936 11.6039C534.546 11.3739 534.121 11.2589 533.661 11.2589C533.201 11.2589 532.776 11.3739 532.386 11.6039C531.996 11.8289 531.686 12.1364 531.456 12.5264C531.231 12.9164 531.119 13.3439 531.119 13.8089C531.119 14.2689 531.231 14.6939 531.456 15.0839C531.681 15.4689 531.989 15.7764 532.379 16.0064C532.769 16.2314 533.194 16.3439 533.654 16.3439ZM542.828 17.4164C542.168 17.4164 541.568 17.2639 541.028 16.9589C540.493 16.6489 540.07 16.2264 539.76 15.6914C539.455 15.1514 539.303 14.5514 539.303 13.8914V9.69141C539.303 9.03141 539.455 8.43391 539.76 7.89891C540.07 7.35891 540.493 6.93641 541.028 6.63141C541.568 6.32141 542.168 6.16641 542.828 6.16641C543.488 6.16641 544.085 6.32141 544.62 6.63141C545.16 6.93641 545.583 7.35891 545.888 7.89891C546.198 8.43391 546.353 9.03141 546.353 9.69141V13.8914C546.353 14.5514 546.198 15.1514 545.888 15.6914C545.583 16.2264 545.16 16.6489 544.62 16.9589C544.085 17.2639 543.488 17.4164 542.828 17.4164ZM542.828 16.3514C543.263 16.3514 543.665 16.2439 544.035 16.0289C544.405 15.8139 544.698 15.5214 544.913 15.1514C545.128 14.7814 545.235 14.3789 545.235 13.9439V9.63891C545.235 9.19891 545.128 8.79641 544.913 8.43141C544.698 8.06141 544.405 7.76891 544.035 7.55391C543.665 7.33391 543.263 7.22391 542.828 7.22391C542.393 7.22391 541.99 7.33391 541.62 7.55391C541.25 7.76891 540.958 8.06141 540.743 8.43141C540.528 8.79641 540.42 9.19891 540.42 9.63891V13.9439C540.42 14.3789 540.528 14.7814 540.743 15.1514C540.958 15.5214 541.25 15.8139 541.62 16.0289C541.99 16.2439 542.393 16.3514 542.828 16.3514ZM552.141 8.86641C552.861 8.86641 553.488 9.05141 554.023 9.42141C554.563 9.79141 554.976 10.3014 555.261 10.9514C555.546 11.5964 555.688 12.3239 555.688 13.1339C555.688 13.9489 555.546 14.6814 555.261 15.3314C554.976 15.9814 554.561 16.4914 554.016 16.8614C553.476 17.2314 552.836 17.4164 552.096 17.4164C551.561 17.4164 551.078 17.3139 550.648 17.1089C550.223 16.8989 549.861 16.6039 549.561 16.2239V20.7914H548.451V9.09141H549.441V10.2089C549.746 9.77891 550.126 9.44891 550.581 9.21891C551.036 8.98391 551.556 8.86641 552.141 8.86641ZM551.983 16.3889C552.528 16.3889 552.991 16.2489 553.371 15.9689C553.751 15.6889 554.036 15.3039 554.226 14.8139C554.421 14.3189 554.518 13.7589 554.518 13.1339C554.518 12.5089 554.423 11.9539 554.233 11.4689C554.048 10.9789 553.763 10.5939 553.378 10.3139C552.993 10.0339 552.521 9.89391 551.961 9.89391C551.411 9.89391 550.946 10.0289 550.566 10.2989C550.191 10.5689 549.908 10.9489 549.718 11.4389C549.533 11.9239 549.441 12.4889 549.441 13.1339C549.441 13.7739 549.533 14.3389 549.718 14.8289C549.908 15.3139 550.193 15.6964 550.573 15.9764C550.953 16.2514 551.423 16.3889 551.983 16.3889ZM557.616 17.1914H556.289L559.454 13.0964L556.356 9.09141H557.676L560.099 12.2489L562.499 9.09141H563.819L560.721 13.0964L563.894 17.1914H562.566L560.099 13.9439L557.616 17.1914Z" fill="#100F0F"/>
<path opacity="0.5" d="M576 42.1914L517 42.1914M576 42.1914L570 38.1914M576 42.1914L570 46.1914M517 42.1914L523 46.1914M517 42.1914L523 38.1914" stroke="#100F0F" stroke-width="0.5" stroke-linecap="round" stroke-linejoin="round"/>
</svg>
