<svg width="90" height="89" viewBox="0 0 90 89" fill="none" xmlns="http://www.w3.org/2000/svg">
<rect x="89.0649" y="40.8773" width="7.27917" height="20.6341" rx="3.63959" transform="rotate(90 89.0649 40.8773)" fill="#F6D0E5"/>
<rect x="83.9995" y="65.4489" width="7.27917" height="20.6341" rx="3.63959" transform="rotate(122.678 83.9995 65.4489)" fill="#F2E1EC"/>
<rect x="66.4155" y="83.4221" width="7.27917" height="20.6341" rx="3.63959" transform="rotate(155.365 66.4155 83.4221)" fill="#F2EAEF"/>
<rect x="41.7739" y="89.0053" width="7.27917" height="20.6341" rx="3.63959" transform="rotate(-171.835 41.7739 89.0053)" fill="#FF3DA8"/>
<rect x="18.1626" y="80.3983" width="7.27917" height="20.6341" rx="3.63959" transform="rotate(-138.957 18.1626 80.3983)" fill="#FF3DA8"/>
<rect x="2.97119" y="60.4406" width="7.27917" height="20.6341" rx="3.63959" transform="rotate(-106.248 2.97119 60.4406)" fill="#FF3DA8"/>
<rect x="1.00439" y="35.2501" width="7.27917" height="20.6341" rx="3.63959" transform="rotate(-73.3182 1.00439 35.2501)" fill="#FF3DA8"/>
<rect x="12.8916" y="13.1913" width="7.27917" height="20.6341" rx="3.63959" transform="rotate(-40.6266 12.8916 13.1913)" fill="#FF3DA8"/>
<rect x="34.9629" y="0.978638" width="7.27917" height="20.6341" rx="3.63959" transform="rotate(-7.72568 34.9629 0.978638)" fill="#FF3DA8"/>
<rect x="60.0391" y="2.65863" width="7.27917" height="20.6341" rx="3.63959" transform="rotate(25.0617 60.0391 2.65863)" fill="#F480C0"/>
<rect x="80.2583" y="17.7049" width="7.27917" height="20.6341" rx="3.63959" transform="rotate(57.743 80.2583 17.7049)" fill="#F7BCDD"/>
</svg>
