<svg width="27" height="26" viewBox="0 0 27 26" fill="none" xmlns="http://www.w3.org/2000/svg">
<path fill-rule="evenodd" clip-rule="evenodd" d="M24.4278 0.803129C24.9264 0.325622 25.7177 0.342702 26.1952 0.841278C26.6727 1.33985 26.6556 2.13113 26.157 2.60863L15.3072 13L26.157 23.3914C26.6556 23.8689 26.6727 24.6601 26.1952 25.1587C25.7177 25.6573 24.9264 25.6744 24.4278 25.1969L13.5 14.7308L2.57213 25.1969C2.07355 25.6744 1.28228 25.6573 0.804769 25.1587C0.327262 24.6601 0.344342 23.8689 0.842919 23.3914L11.6928 13L0.84292 2.60863C0.344344 2.13113 0.327264 1.33985 0.804771 0.841278C1.28228 0.342702 2.07355 0.325622 2.57213 0.803129L13.5 11.2692L24.4278 0.803129Z" fill="white"/>
</svg>
