<svg width="655" height="276" viewBox="0 0 655 276" fill="none" xmlns="http://www.w3.org/2000/svg">
<g clip-path="url(#clip0_3116_4542)">
<rect x="0.920898" width="654" height="276" rx="15" fill="white"/>
<path opacity="0.9" d="M380.921 50.9106C380.921 38.9308 390.632 29.2192 402.612 29.2192H600.933C608.75 29.2192 612.659 29.2192 615.815 30.2702C621.949 32.3124 626.762 37.1253 628.804 43.259C629.855 46.4155 629.855 50.324 629.855 58.141V58.141C629.855 62.0496 629.855 64.0038 629.33 65.5821C628.308 68.6489 625.902 71.0554 622.835 72.0765C621.257 72.602 619.303 72.602 615.394 72.602H402.612C390.632 72.602 380.921 62.8904 380.921 50.9106V50.9106Z" fill="#D4C5FF"/>
<path d="M396.881 58.5154V43.4652H398.704V50.1672H406.728V43.4652H408.551V58.5154H406.728V51.784H398.704V58.5154H396.881ZM413.081 62.7482C412.787 62.7482 412.525 62.7237 412.295 62.6748C412.065 62.6307 411.906 62.5866 411.817 62.5425L412.258 61.0139C412.68 61.1217 413.052 61.1609 413.375 61.1315C413.699 61.1021 413.985 60.9576 414.235 60.698C414.49 60.4432 414.723 60.0292 414.933 59.456L415.257 58.5742L411.082 47.2277H412.964L416.08 56.2226H416.197L419.313 47.2277H421.194L416.403 60.1615C416.187 60.7445 415.92 61.2271 415.602 61.6092C415.283 61.9962 414.914 62.2828 414.492 62.469C414.076 62.6552 413.606 62.7482 413.081 62.7482ZM434.036 58.7505C432.949 58.7505 432.01 58.5105 431.222 58.0304C430.438 57.5453 429.833 56.8693 429.407 56.0021C428.985 55.1301 428.775 54.1159 428.775 52.9597C428.775 51.8035 428.985 50.7845 429.407 49.9027C429.833 49.0159 430.426 48.3252 431.185 47.8303C431.949 47.3306 432.841 47.0808 433.86 47.0808C434.448 47.0808 435.028 47.1788 435.601 47.3747C436.175 47.5707 436.696 47.8891 437.167 48.3301C437.637 48.7661 438.012 49.3442 438.291 50.0644C438.57 50.7845 438.71 51.6713 438.71 52.7246V53.4595H430.009V51.9603H436.946C436.946 51.3234 436.819 50.7551 436.564 50.2554C436.314 49.7557 435.957 49.3613 435.491 49.0723C435.031 48.7832 434.487 48.6387 433.86 48.6387C433.169 48.6387 432.571 48.8102 432.067 49.1531C431.567 49.4912 431.182 49.9321 430.913 50.4759C430.644 51.0197 430.509 51.6027 430.509 52.2249V53.2243C430.509 54.0768 430.656 54.7994 430.95 55.3922C431.249 55.9801 431.663 56.4283 432.192 56.737C432.721 57.0407 433.336 57.1926 434.036 57.1926C434.492 57.1926 434.903 57.1289 435.271 57.0015C435.643 56.8693 435.964 56.6733 436.233 56.4136C436.503 56.1491 436.711 55.8209 436.858 55.4289L438.534 55.8992C438.357 56.4675 438.061 56.9673 437.644 57.3984C437.228 57.8246 436.714 58.1577 436.101 58.3978C435.489 58.633 434.8 58.7505 434.036 58.7505ZM445.934 58.7505C444.876 58.7505 443.964 58.5007 443.2 58.001C442.436 57.5013 441.848 56.8129 441.436 55.936C441.025 55.059 440.819 54.0572 440.819 52.9304C440.819 51.784 441.03 50.7723 441.451 49.8953C441.877 49.0135 442.47 48.3252 443.229 47.8303C443.994 47.3306 444.885 47.0808 445.904 47.0808C446.698 47.0808 447.413 47.2277 448.05 47.5217C448.687 47.8156 449.209 48.2272 449.615 48.7563C450.022 49.2854 450.274 49.9027 450.372 50.6082H448.638C448.506 50.0937 448.212 49.6381 447.756 49.2413C447.306 48.8396 446.698 48.6387 445.934 48.6387C445.258 48.6387 444.665 48.8151 444.155 49.1678C443.651 49.5156 443.256 50.008 442.972 50.6449C442.693 51.2769 442.553 52.0191 442.553 52.8716C442.553 53.7436 442.691 54.503 442.965 55.1497C443.244 55.7964 443.636 56.2985 444.141 56.6562C444.65 57.0138 445.248 57.1926 445.934 57.1926C446.385 57.1926 446.794 57.1142 447.161 56.9575C447.528 56.8007 447.84 56.5753 448.094 56.2814C448.349 55.9874 448.53 55.6347 448.638 55.2232H450.372C450.274 55.8894 450.032 56.4896 449.645 57.0236C449.263 57.5527 448.756 57.974 448.124 58.2876C447.497 58.5962 446.767 58.7505 445.934 58.7505ZM451.908 58.5154V56.8987H452.32C452.658 56.8987 452.94 56.8325 453.165 56.7002C453.39 56.5631 453.572 56.3255 453.709 55.9874C453.851 55.6445 453.959 55.1693 454.032 54.5618C454.11 53.9494 454.167 53.1704 454.201 52.2249L454.407 47.2277H461.932V58.5154H460.198V48.8445H456.053L455.877 52.8716C455.837 53.7975 455.754 54.6132 455.627 55.3187C455.504 56.0193 455.316 56.6072 455.061 57.0824C454.811 57.5576 454.478 57.9152 454.061 58.1553C453.645 58.3954 453.123 58.5154 452.496 58.5154H451.908ZM466.848 55.958L472.286 47.2277H474.285V58.5154H472.551V49.7851L467.142 58.5154H465.114V47.2277H466.848V55.958ZM491.983 47.2277V58.5154H490.248V47.2277H491.983ZM491.307 52.607V54.2237C490.915 54.3707 490.525 54.5005 490.138 54.6132C489.751 54.721 489.345 54.8067 488.918 54.8704C488.492 54.9292 488.024 54.9586 487.515 54.9586C486.236 54.9586 485.21 54.6132 484.436 53.9224C483.666 53.2317 483.282 52.1955 483.282 50.8139V47.1984H485.016V50.8139C485.016 51.392 485.126 51.8672 485.347 52.2396C485.567 52.6119 485.866 52.8887 486.243 53.07C486.621 53.2512 487.044 53.3419 487.515 53.3419C488.25 53.3419 488.913 53.2757 489.506 53.1435C490.104 53.0063 490.704 52.8275 491.307 52.607ZM499.897 58.7505C498.81 58.7505 497.871 58.5105 497.083 58.0304C496.299 57.5453 495.694 56.8693 495.268 56.0021C494.846 55.1301 494.636 54.1159 494.636 52.9597C494.636 51.8035 494.846 50.7845 495.268 49.9027C495.694 49.0159 496.287 48.3252 497.046 47.8303C497.81 47.3306 498.702 47.0808 499.721 47.0808C500.309 47.0808 500.889 47.1788 501.463 47.3747C502.036 47.5707 502.558 47.8891 503.028 48.3301C503.498 48.7661 503.873 49.3442 504.152 50.0644C504.431 50.7845 504.571 51.6713 504.571 52.7246V53.4595H495.87V51.9603H502.807C502.807 51.3234 502.68 50.7551 502.425 50.2554C502.175 49.7557 501.818 49.3613 501.352 49.0723C500.892 48.7832 500.348 48.6387 499.721 48.6387C499.03 48.6387 498.432 48.8102 497.928 49.1531C497.428 49.4912 497.044 49.9321 496.774 50.4759C496.505 51.0197 496.37 51.6027 496.37 52.2249V53.2243C496.37 54.0768 496.517 54.7994 496.811 55.3922C497.11 55.9801 497.524 56.4283 498.053 56.737C498.582 57.0407 499.197 57.1926 499.897 57.1926C500.353 57.1926 500.764 57.1289 501.132 57.0015C501.504 56.8693 501.825 56.6733 502.095 56.4136C502.364 56.1491 502.572 55.8209 502.719 55.4289L504.395 55.8992C504.218 56.4675 503.922 56.9673 503.505 57.3984C503.089 57.8246 502.575 58.1577 501.962 58.3978C501.35 58.633 500.662 58.7505 499.897 58.7505ZM511.795 58.7505C510.737 58.7505 509.825 58.5007 509.061 58.001C508.297 57.5013 507.709 56.8129 507.297 55.936C506.886 55.059 506.68 54.0572 506.68 52.9304C506.68 51.784 506.891 50.7723 507.312 49.8953C507.738 49.0135 508.331 48.3252 509.091 47.8303C509.855 47.3306 510.746 47.0808 511.765 47.0808C512.559 47.0808 513.274 47.2277 513.911 47.5217C514.548 47.8156 515.07 48.2272 515.477 48.7563C515.883 49.2854 516.135 49.9027 516.233 50.6082H514.499C514.367 50.0937 514.073 49.6381 513.617 49.2413C513.167 48.8396 512.559 48.6387 511.795 48.6387C511.119 48.6387 510.526 48.8151 510.016 49.1678C509.512 49.5156 509.117 50.008 508.833 50.6449C508.554 51.2769 508.414 52.0191 508.414 52.8716C508.414 53.7436 508.552 54.503 508.826 55.1497C509.105 55.7964 509.497 56.2985 510.002 56.6562C510.511 57.0138 511.109 57.1926 511.795 57.1926C512.246 57.1926 512.655 57.1142 513.022 56.9575C513.39 56.8007 513.701 56.5753 513.955 56.2814C514.21 55.9874 514.391 55.6347 514.499 55.2232H516.233C516.135 55.8894 515.893 56.4896 515.506 57.0236C515.124 57.5527 514.617 57.974 513.985 58.2876C513.358 58.5962 512.628 58.7505 511.795 58.7505ZM517.88 48.8445V47.2277H527.051V48.8445H523.347V58.5154H521.613V48.8445H517.88ZM537.135 52.0779V53.6946H530.903V52.0779H537.135ZM531.315 47.2277V58.5154H529.581V47.2277H531.315ZM538.458 47.2277V58.5154H536.724V47.2277H538.458ZM546.211 58.7505C545.192 58.7505 544.298 58.508 543.528 58.023C542.764 57.538 542.166 56.8595 541.735 55.9874C541.309 55.1154 541.096 54.0964 541.096 52.9304C541.096 51.7546 541.309 50.7282 541.735 49.8512C542.166 48.9743 542.764 48.2933 543.528 47.8083C544.298 47.3233 545.192 47.0808 546.211 47.0808C547.23 47.0808 548.121 47.3233 548.886 47.8083C549.655 48.2933 550.253 48.9743 550.679 49.8512C551.11 50.7282 551.325 51.7546 551.325 52.9304C551.325 54.0964 551.11 55.1154 550.679 55.9874C550.253 56.8595 549.655 57.538 548.886 58.023C548.121 58.508 547.23 58.7505 546.211 58.7505ZM546.211 57.1926C546.985 57.1926 547.622 56.9942 548.121 56.5974C548.621 56.2005 548.991 55.6788 549.231 55.0321C549.471 54.3854 549.591 53.6848 549.591 52.9304C549.591 52.1759 549.471 51.4729 549.231 50.8213C548.991 50.1697 548.621 49.643 548.121 49.2413C547.622 48.8396 546.985 48.6387 546.211 48.6387C545.437 48.6387 544.8 48.8396 544.3 49.2413C543.8 49.643 543.43 50.1697 543.19 50.8213C542.95 51.4729 542.83 52.1759 542.83 52.9304C542.83 53.6848 542.95 54.3854 543.19 55.0321C543.43 55.6788 543.8 56.2005 544.3 56.5974C544.8 56.9942 545.437 57.1926 546.211 57.1926Z" fill="black"/>
<path d="M563.971 61.646V60.7741L567.245 57.1899C567.63 56.7701 567.946 56.4052 568.195 56.0952C568.443 55.782 568.627 55.4882 568.747 55.2137C568.87 54.936 568.931 54.6454 568.931 54.3418C568.931 53.9931 568.847 53.6912 568.679 53.4361C568.514 53.181 568.288 52.984 568.001 52.8452C567.714 52.7063 567.391 52.6369 567.032 52.6369C566.651 52.6369 566.319 52.716 566.035 52.8742C565.754 53.0292 565.536 53.2472 565.381 53.5281C565.229 53.809 565.153 54.1384 565.153 54.5162H564.01C564.01 53.935 564.144 53.4248 564.412 52.9856C564.68 52.5465 565.045 52.2042 565.507 51.9588C565.972 51.7134 566.493 51.5907 567.071 51.5907C567.652 51.5907 568.167 51.7134 568.616 51.9588C569.065 52.2042 569.417 52.5352 569.672 52.9517C569.927 53.3683 570.055 53.8317 570.055 54.3418C570.055 54.7067 569.989 55.0635 569.856 55.4123C569.727 55.7578 569.501 56.1437 569.178 56.5699C568.858 56.9929 568.414 57.5096 567.846 58.1199L565.618 60.5029V60.5804H570.229V61.646H563.971ZM575.192 61.7816C574.462 61.7816 573.841 61.583 573.327 61.1859C572.814 60.7854 572.422 60.2058 572.15 59.447C571.879 58.6849 571.744 57.7647 571.744 56.6861C571.744 55.6141 571.879 54.6987 572.15 53.9398C572.425 53.1778 572.819 52.5965 573.332 52.1961C573.849 51.7925 574.469 51.5907 575.192 51.5907C575.916 51.5907 576.534 51.7925 577.047 52.1961C577.564 52.5965 577.958 53.1778 578.229 53.9398C578.504 54.6987 578.641 55.6141 578.641 56.6861C578.641 57.7647 578.505 58.6849 578.234 59.447C577.963 60.2058 577.57 60.7854 577.057 61.1859C576.544 61.583 575.922 61.7816 575.192 61.7816ZM575.192 60.716C575.916 60.716 576.477 60.3673 576.878 59.6698C577.278 58.9723 577.478 57.9778 577.478 56.6861C577.478 55.8272 577.386 55.0958 577.202 54.492C577.022 53.8882 576.76 53.428 576.418 53.1116C576.079 52.7951 575.67 52.6369 575.192 52.6369C574.475 52.6369 573.915 52.9905 573.512 53.6976C573.108 54.4016 572.906 55.3977 572.906 56.6861C572.906 57.5451 572.996 58.2748 573.177 58.8755C573.358 59.4761 573.618 59.933 573.957 60.2462C574.299 60.5594 574.711 60.716 575.192 60.716ZM581.061 60.377C580.822 60.377 580.617 60.2914 580.446 60.1203C580.275 59.9491 580.189 59.7441 580.189 59.5051C580.189 59.2662 580.275 59.0611 580.446 58.89C580.617 58.7188 580.822 58.6333 581.061 58.6333C581.3 58.6333 581.505 58.7188 581.676 58.89C581.847 59.0611 581.933 59.2662 581.933 59.5051C581.933 59.6633 581.893 59.8087 581.812 59.941C581.734 60.0734 581.629 60.18 581.497 60.2607C581.368 60.3382 581.223 60.377 581.061 60.377ZM581.061 55.359C580.822 55.359 580.617 55.2734 580.446 55.1023C580.275 54.9311 580.189 54.7261 580.189 54.4872C580.189 54.2482 580.275 54.0432 580.446 53.872C580.617 53.7009 580.822 53.6153 581.061 53.6153C581.3 53.6153 581.505 53.7009 581.676 53.872C581.847 54.0432 581.933 54.2482 581.933 54.4872C581.933 54.6454 581.893 54.7907 581.812 54.9231C581.734 55.0555 581.629 55.162 581.497 55.2428C581.368 55.3203 581.223 55.359 581.061 55.359ZM583.46 59.6117V58.6236L587.819 51.7263H588.536V53.2569H588.051L584.758 58.4686V58.5461H590.628V59.6117H583.46ZM588.129 61.646V59.3114V58.8512V51.7263H589.272V61.646H588.129ZM595.406 61.7816C594.676 61.7816 594.055 61.583 593.541 61.1859C593.028 60.7854 592.635 60.2058 592.364 59.447C592.093 58.6849 591.957 57.7647 591.957 56.6861C591.957 55.6141 592.093 54.6987 592.364 53.9398C592.639 53.1778 593.033 52.5965 593.546 52.1961C594.063 51.7925 594.683 51.5907 595.406 51.5907C596.129 51.5907 596.748 51.7925 597.261 52.1961C597.778 52.5965 598.172 53.1778 598.443 53.9398C598.717 54.6987 598.855 55.6141 598.855 56.6861C598.855 57.7647 598.719 58.6849 598.448 59.447C598.177 60.2058 597.784 60.7854 597.271 61.1859C596.757 61.583 596.136 61.7816 595.406 61.7816ZM595.406 60.716C596.129 60.716 596.691 60.3673 597.092 59.6698C597.492 58.9723 597.692 57.9778 597.692 56.6861C597.692 55.8272 597.6 55.0958 597.416 54.492C597.235 53.8882 596.974 53.428 596.631 53.1116C596.292 52.7951 595.884 52.6369 595.406 52.6369C594.689 52.6369 594.129 52.9905 593.725 53.6976C593.322 54.4016 593.12 55.3977 593.12 56.6861C593.12 57.5451 593.21 58.2748 593.391 58.8755C593.572 59.4761 593.832 59.933 594.171 60.2462C594.513 60.5594 594.925 60.716 595.406 60.716Z" fill="#4200FF"/>
<path fill-rule="evenodd" clip-rule="evenodd" d="M616.473 52.1007C616.699 52.3194 616.706 52.6803 616.487 52.9068L607.614 62.0964C607.504 62.2105 607.351 62.2735 607.193 62.2704C607.034 62.2673 606.884 62.1984 606.779 62.0801L602.818 57.6437C602.608 57.4089 602.628 57.0485 602.863 56.8388C603.098 56.6291 603.459 56.6495 603.668 56.8843L607.22 60.8628L615.667 52.1148C615.885 51.8883 616.246 51.882 616.473 52.1007Z" fill="#4200FF"/>
<path opacity="0.9" d="M497.641 2.36323C497.641 -9.61657 507.352 -19.3281 519.332 -19.3281H602.999C610.816 -19.3281 614.724 -19.3281 617.881 -18.2772C624.014 -16.2349 628.827 -11.422 630.869 -5.28832C631.92 -2.13184 631.92 1.77667 631.92 9.59368V9.59368C631.92 13.5022 631.92 15.4564 631.395 17.0347C630.374 20.1015 627.967 22.508 624.901 23.5291C623.322 24.0546 621.368 24.0546 617.46 24.0546H519.332C507.352 24.0546 497.641 14.343 497.641 2.36323V2.36323Z" fill="#D4C5FF"/>
<path d="M524.773 -0.378858H522.951C522.843 -0.903067 522.655 -1.36359 522.385 -1.76042C522.121 -2.15725 521.797 -2.49039 521.415 -2.75984C521.038 -3.0342 520.619 -3.23996 520.158 -3.37714C519.698 -3.51431 519.218 -3.5829 518.718 -3.5829C517.807 -3.5829 516.981 -3.35264 516.242 -2.89212C515.507 -2.4316 514.921 -1.75307 514.485 -0.856524C514.054 0.0400194 513.839 1.13988 513.839 2.44305C513.839 3.74622 514.054 4.84608 514.485 5.74263C514.921 6.63917 515.507 7.3177 516.242 7.77822C516.981 8.23874 517.807 8.469 518.718 8.469C519.218 8.469 519.698 8.40041 520.158 8.26324C520.619 8.12606 521.038 7.92275 521.415 7.65329C521.797 7.37894 522.121 7.04335 522.385 6.64652C522.655 6.24479 522.843 5.78427 522.951 5.26496H524.773C524.636 6.03412 524.386 6.72246 524.024 7.32995C523.661 7.93744 523.211 8.4543 522.672 8.88053C522.133 9.30186 521.528 9.62275 520.857 9.84321C520.19 10.0637 519.477 10.1739 518.718 10.1739C517.434 10.1739 516.293 9.86036 515.294 9.23327C514.294 8.60618 513.508 7.71453 512.935 6.55833C512.361 5.40214 512.075 4.03037 512.075 2.44305C512.075 0.855727 512.361 -0.516034 512.935 -1.67223C513.508 -2.82843 514.294 -3.72008 515.294 -4.34717C516.293 -4.97426 517.434 -5.2878 518.718 -5.2878C519.477 -5.2878 520.19 -5.17757 520.857 -4.95711C521.528 -4.73665 522.133 -4.4133 522.672 -3.98708C523.211 -3.56575 523.661 -3.05134 524.024 -2.44385C524.386 -1.84125 524.636 -1.15292 524.773 -0.378858ZM530.805 10.2327C530.09 10.2327 529.44 10.098 528.857 9.82851C528.274 9.55416 527.811 9.15978 527.469 8.64537C527.126 8.12606 526.954 7.49897 526.954 6.7641C526.954 6.11741 527.082 5.5932 527.336 5.19147C527.591 4.78484 527.932 4.4664 528.358 4.23614C528.784 4.00588 529.254 3.83441 529.769 3.72173C530.288 3.60415 530.81 3.51106 531.334 3.44248C532.02 3.35429 532.576 3.28815 533.002 3.24406C533.433 3.19507 533.747 3.11423 533.943 3.00155C534.144 2.88887 534.244 2.69291 534.244 2.41366V2.35487C534.244 1.62979 534.046 1.06639 533.649 0.66466C533.257 0.26293 532.662 0.0620655 531.863 0.0620655C531.035 0.0620655 530.386 0.243334 529.916 0.605871C529.445 0.968407 529.115 1.35544 528.924 1.76697L527.277 1.17907C527.571 0.49319 527.963 -0.0408169 528.453 -0.42295C528.948 -0.809983 529.487 -1.07944 530.07 -1.23131C530.658 -1.38808 531.236 -1.46647 531.804 -1.46647C532.167 -1.46647 532.583 -1.42238 533.054 -1.33419C533.529 -1.25091 533.987 -1.07699 534.428 -0.812433C534.874 -0.547878 535.243 -0.148598 535.537 0.385409C535.831 0.919416 535.978 1.63469 535.978 2.53124V9.96814H534.244V8.43961H534.156C534.038 8.68456 533.842 8.94667 533.568 9.22592C533.294 9.50517 532.929 9.74278 532.473 9.93874C532.017 10.1347 531.461 10.2327 530.805 10.2327ZM531.069 8.67476C531.755 8.67476 532.333 8.54004 532.804 8.27059C533.279 8.00113 533.637 7.65329 533.877 7.22707C534.122 6.80084 534.244 6.35257 534.244 5.88225V4.29493C534.171 4.38311 534.009 4.46395 533.759 4.53744C533.514 4.60602 533.23 4.66726 532.907 4.72115C532.588 4.77015 532.277 4.81424 531.973 4.85343C531.674 4.88772 531.432 4.91712 531.246 4.94162C530.795 5.0004 530.374 5.09594 529.982 5.22822C529.595 5.35559 529.281 5.54911 529.041 5.80876C528.806 6.06352 528.688 6.41136 528.688 6.85228C528.688 7.45488 528.911 7.9105 529.357 8.21914C529.808 8.52289 530.379 8.67476 531.069 8.67476ZM539.144 -1.31949H540.878V8.35142H545.14V-1.31949H546.875V8.35142H551.137V-1.31949H552.871V9.96814H539.144V-1.31949Z" fill="black"/>
<path d="M566.037 13.0986V12.2268L569.311 8.64252C569.695 8.22274 570.012 7.85785 570.26 7.54786C570.509 7.23465 570.693 6.9408 570.812 6.66633C570.935 6.38863 570.996 6.09801 570.996 5.79448C570.996 5.44574 570.913 5.14382 570.745 4.88873C570.58 4.63363 570.354 4.43666 570.066 4.29781C569.779 4.15896 569.456 4.08953 569.098 4.08953C568.717 4.08953 568.384 4.16864 568.1 4.32687C567.819 4.48186 567.601 4.69983 567.446 4.98076C567.294 5.26168 567.218 5.59105 567.218 5.96885H566.075C566.075 5.38762 566.209 4.87743 566.477 4.43827C566.745 3.99912 567.11 3.65684 567.572 3.41143C568.037 3.16602 568.559 3.04331 569.137 3.04331C569.718 3.04331 570.233 3.16602 570.682 3.41143C571.13 3.65684 571.482 3.98782 571.738 4.40437C571.993 4.82092 572.12 5.28429 572.12 5.79448C572.12 6.15937 572.054 6.51618 571.922 6.86492C571.792 7.21043 571.566 7.5963 571.243 8.02254C570.924 8.44555 570.48 8.9622 569.911 9.57249L567.683 11.9555V12.033H572.295V13.0986H566.037ZM577.258 13.2343C576.528 13.2343 575.906 13.0357 575.393 12.6385C574.879 12.2381 574.487 11.6585 574.216 10.8996C573.945 10.1376 573.809 9.21729 573.809 8.13878C573.809 7.06673 573.945 6.15129 574.216 5.39246C574.49 4.6304 574.884 4.04917 575.398 3.64876C575.914 3.24513 576.534 3.04331 577.258 3.04331C577.981 3.04331 578.599 3.24513 579.113 3.64876C579.629 4.04917 580.023 4.6304 580.295 5.39246C580.569 6.15129 580.706 7.06673 580.706 8.13878C580.706 9.21729 580.571 10.1376 580.299 10.8996C580.028 11.6585 579.636 12.2381 579.122 12.6385C578.609 13.0357 577.987 13.2343 577.258 13.2343ZM577.258 12.1687C577.981 12.1687 578.543 11.8199 578.943 11.1224C579.344 10.425 579.544 9.43041 579.544 8.13878C579.544 7.27985 579.452 6.54847 579.268 5.94463C579.087 5.3408 578.825 4.88065 578.483 4.56421C578.144 4.24776 577.736 4.08953 577.258 4.08953C576.541 4.08953 575.981 4.44312 575.577 5.15028C575.173 5.85422 574.972 6.85039 574.972 8.13878C574.972 8.99772 575.062 9.72749 575.243 10.3281C575.424 10.9287 575.684 11.3856 576.023 11.6988C576.365 12.0121 576.777 12.1687 577.258 12.1687ZM583.127 11.8296C582.888 11.8296 582.683 11.744 582.511 11.5729C582.34 11.4018 582.255 11.1967 582.255 10.9578C582.255 10.7188 582.34 10.5138 582.511 10.3426C582.683 10.1715 582.888 10.0859 583.127 10.0859C583.366 10.0859 583.571 10.1715 583.742 10.3426C583.913 10.5138 583.998 10.7188 583.998 10.9578C583.998 11.116 583.958 11.2613 583.877 11.3937C583.8 11.5261 583.695 11.6326 583.563 11.7134C583.433 11.7909 583.288 11.8296 583.127 11.8296ZM583.127 6.81164C582.888 6.81164 582.683 6.72607 582.511 6.55493C582.34 6.38379 582.255 6.17874 582.255 5.93979C582.255 5.70084 582.34 5.49579 582.511 5.32465C582.683 5.15351 582.888 5.06794 583.127 5.06794C583.366 5.06794 583.571 5.15351 583.742 5.32465C583.913 5.49579 583.998 5.70084 583.998 5.93979C583.998 6.09801 583.958 6.24332 583.877 6.37571C583.8 6.5081 583.695 6.61466 583.563 6.69539C583.433 6.77289 583.288 6.81164 583.127 6.81164ZM585.525 11.0643V10.0762L589.884 3.17894H590.601V4.70951H590.117L586.823 9.92123V9.99873H592.694V11.0643H585.525ZM590.194 13.0986V10.764V10.3039V3.17894H591.337V13.0986H590.194ZM597.471 13.2343C596.742 13.2343 596.12 13.0357 595.607 12.6385C595.093 12.2381 594.701 11.6585 594.43 10.8996C594.158 10.1376 594.023 9.21729 594.023 8.13878C594.023 7.06673 594.158 6.15129 594.43 5.39246C594.704 4.6304 595.098 4.04917 595.611 3.64876C596.128 3.24513 596.748 3.04331 597.471 3.04331C598.195 3.04331 598.813 3.24513 599.327 3.64876C599.843 4.04917 600.237 4.6304 600.508 5.39246C600.783 6.15129 600.92 7.06673 600.92 8.13878C600.92 9.21729 600.784 10.1376 600.513 10.8996C600.242 11.6585 599.85 12.2381 599.336 12.6385C598.823 13.0357 598.201 13.2343 597.471 13.2343ZM597.471 12.1687C598.195 12.1687 598.757 11.8199 599.157 11.1224C599.557 10.425 599.758 9.43041 599.758 8.13878C599.758 7.27985 599.666 6.54847 599.482 5.94463C599.301 5.3408 599.039 4.88065 598.697 4.56421C598.358 4.24776 597.949 4.08953 597.471 4.08953C596.755 4.08953 596.194 4.44312 595.791 5.15028C595.387 5.85422 595.185 6.85039 595.185 8.13878C595.185 8.99772 595.276 9.72749 595.457 10.3281C595.637 10.9287 595.897 11.3856 596.236 11.6988C596.579 12.0121 596.99 12.1687 597.471 12.1687Z" fill="#4200FF"/>
<path fill-rule="evenodd" clip-rule="evenodd" d="M618.538 3.55338C618.765 3.77208 618.771 4.13298 618.553 4.35948L609.68 13.5491C609.57 13.6631 609.417 13.7262 609.259 13.7231C609.1 13.72 608.95 13.6511 608.844 13.5328L604.883 9.0964C604.674 8.86154 604.694 8.50116 604.929 8.29146C605.164 8.08177 605.524 8.10217 605.734 8.33702L609.286 12.3155L617.732 3.56752C617.951 3.34102 618.312 3.33469 618.538 3.55338Z" fill="#4200FF"/>
<path opacity="0.8" fill-rule="evenodd" clip-rule="evenodd" d="M395.702 97.7561C395.688 98.1395 395.688 98.593 395.688 99.5C395.688 100.407 395.688 100.861 395.702 101.244C396.103 111.976 404.711 120.584 415.444 120.986C415.827 121 416.28 121 417.187 121H600.509C607.499 121 610.994 121 613.854 120.201C615.985 119.605 617.98 118.697 619.788 117.528C620.941 118.401 622.583 119.492 624.364 120.195C628.514 121.832 639.208 121.738 639.208 121.738C639.208 121.738 633.372 120.195 631.203 113.162C630.173 109.822 629.976 89.9457 629.976 89.9457L629.687 90.5839C629.681 88.075 629.637 86.6745 629.309 85.5001C628.343 82.0445 625.643 79.3441 622.187 78.3785C620.833 78 619.177 78 615.866 78H417.187C416.28 78 415.827 78 415.444 78.0143C404.711 78.4157 396.103 87.0237 395.702 97.7561Z" fill="#D4C5FF"/>
<path d="M425.237 91.9796V107.03H423.415V93.5963H415.831V107.03H414.008V91.9796H425.237ZM433.264 107.265C432.245 107.265 431.351 107.022 430.582 106.537C429.817 106.052 429.22 105.374 428.788 104.502C428.362 103.63 428.149 102.611 428.149 101.445C428.149 100.269 428.362 99.2426 428.788 98.3656C429.22 97.4887 429.817 96.8077 430.582 96.3227C431.351 95.8377 432.245 95.5952 433.264 95.5952C434.283 95.5952 435.174 95.8377 435.939 96.3227C436.708 96.8077 437.306 97.4887 437.732 98.3656C438.163 99.2426 438.379 100.269 438.379 101.445C438.379 102.611 438.163 103.63 437.732 104.502C437.306 105.374 436.708 106.052 435.939 106.537C435.174 107.022 434.283 107.265 433.264 107.265ZM433.264 105.707C434.038 105.707 434.675 105.509 435.174 105.112C435.674 104.715 436.044 104.193 436.284 103.546C436.524 102.9 436.644 102.199 436.644 101.445C436.644 100.69 436.524 99.9873 436.284 99.3357C436.044 98.6841 435.674 98.1574 435.174 97.7557C434.675 97.354 434.038 97.1531 433.264 97.1531C432.49 97.1531 431.853 97.354 431.353 97.7557C430.853 98.1574 430.484 98.6841 430.243 99.3357C430.003 99.9873 429.883 100.69 429.883 101.445C429.883 102.199 430.003 102.9 430.243 103.546C430.484 104.193 430.853 104.715 431.353 105.112C431.853 105.509 432.49 105.707 433.264 105.707ZM440.026 107.03V105.413H440.438C440.776 105.413 441.058 105.347 441.283 105.215C441.508 105.077 441.69 104.84 441.827 104.502C441.969 104.159 442.077 103.684 442.15 103.076C442.229 102.464 442.285 101.685 442.319 100.739L442.525 95.7422H450.05V107.03H448.316V97.3589H444.171L443.995 101.386C443.956 102.312 443.872 103.128 443.745 103.833C443.622 104.534 443.434 105.122 443.179 105.597C442.929 106.072 442.596 106.43 442.18 106.67C441.763 106.91 441.241 107.03 440.614 107.03H440.026ZM460.787 100.592V102.209H454.555V100.592H460.787ZM454.966 95.7422V107.03H453.232V95.7422H454.966ZM462.109 95.7422V107.03H460.375V95.7422H462.109ZM468.598 107.294C467.883 107.294 467.234 107.16 466.651 106.89C466.068 106.616 465.605 106.221 465.262 105.707C464.919 105.188 464.748 104.561 464.748 103.826C464.748 103.179 464.875 102.655 465.13 102.253C465.384 101.846 465.725 101.528 466.151 101.298C466.577 101.068 467.048 100.896 467.562 100.783C468.081 100.666 468.603 100.573 469.127 100.504C469.813 100.416 470.369 100.35 470.796 100.306C471.227 100.257 471.54 100.176 471.736 100.063C471.937 99.9505 472.037 99.7546 472.037 99.4753V99.4165C472.037 98.6914 471.839 98.128 471.442 97.7263C471.05 97.3246 470.455 97.1237 469.657 97.1237C468.829 97.1237 468.179 97.305 467.709 97.6675C467.239 98.0301 466.908 98.4171 466.717 98.8286L465.071 98.2407C465.365 97.5548 465.757 97.0208 466.247 96.6387C466.742 96.2517 467.28 95.9822 467.863 95.8303C468.451 95.6736 469.029 95.5952 469.598 95.5952C469.96 95.5952 470.377 95.6393 470.847 95.7275C471.322 95.8107 471.78 95.9847 472.221 96.2492C472.667 96.5138 473.037 96.913 473.331 97.4471C473.625 97.9811 473.772 98.6963 473.772 99.5929V107.03H472.037V105.501H471.949C471.832 105.746 471.636 106.008 471.361 106.288C471.087 106.567 470.722 106.804 470.266 107C469.811 107.196 469.255 107.294 468.598 107.294ZM468.863 105.736C469.549 105.736 470.127 105.602 470.597 105.332C471.072 105.063 471.43 104.715 471.67 104.289C471.915 103.862 472.037 103.414 472.037 102.944V101.357C471.964 101.445 471.802 101.526 471.552 101.599C471.308 101.668 471.023 101.729 470.7 101.783C470.382 101.832 470.07 101.876 469.767 101.915C469.468 101.949 469.225 101.979 469.039 102.003C468.588 102.062 468.167 102.158 467.775 102.29C467.388 102.417 467.075 102.611 466.835 102.87C466.599 103.125 466.482 103.473 466.482 103.914C466.482 104.517 466.705 104.972 467.151 105.281C467.601 105.585 468.172 105.736 468.863 105.736ZM483.727 107.03V97.3295H480.729C480.053 97.3295 479.522 97.4862 479.135 97.7998C478.747 98.1133 478.554 98.5445 478.554 99.0932C478.554 99.6321 478.728 100.056 479.076 100.364C479.428 100.673 479.911 100.827 480.523 100.827H484.168V102.444H480.523C479.759 102.444 479.1 102.309 478.547 102.04C477.993 101.771 477.567 101.386 477.268 100.886C476.969 100.382 476.82 99.7839 476.82 99.0932C476.82 98.3975 476.976 97.7998 477.29 97.3001C477.604 96.8004 478.052 96.4158 478.635 96.1463C479.223 95.8769 479.921 95.7422 480.729 95.7422H485.374V107.03H483.727ZM476.202 107.03L479.406 101.415H481.288L478.084 107.03H476.202ZM498.963 110.881V91.9796H500.697V110.881H498.963ZM498.963 107.265C498.199 107.265 497.503 107.128 496.876 106.853C496.249 106.574 495.71 106.18 495.259 105.67C494.809 105.156 494.461 104.541 494.216 103.826C493.971 103.11 493.848 102.317 493.848 101.445C493.848 100.563 493.971 99.7644 494.216 99.0491C494.461 98.3289 494.809 97.7116 495.259 97.1972C495.71 96.6828 496.249 96.2884 496.876 96.0141C497.503 95.7348 498.199 95.5952 498.963 95.5952H499.492V107.265H498.963ZM498.963 105.707H499.257V97.1531H498.963C498.385 97.1531 497.883 97.2707 497.457 97.5058C497.03 97.7361 496.678 98.0521 496.398 98.4538C496.124 98.8507 495.918 99.3063 495.781 99.8207C495.649 100.335 495.583 100.876 495.583 101.445C495.583 102.199 495.703 102.9 495.943 103.546C496.183 104.193 496.553 104.715 497.053 105.112C497.552 105.509 498.189 105.707 498.963 105.707ZM500.697 107.265H500.168V95.5952H500.697C501.462 95.5952 502.157 95.7348 502.785 96.0141C503.412 96.2884 503.951 96.6828 504.401 97.1972C504.852 97.7116 505.2 98.3289 505.445 99.0491C505.69 99.7644 505.812 100.563 505.812 101.445C505.812 102.317 505.69 103.11 505.445 103.826C505.2 104.541 504.852 105.156 504.401 105.67C503.951 106.18 503.412 106.574 502.785 106.853C502.157 107.128 501.462 107.265 500.697 107.265ZM500.697 105.707C501.28 105.707 501.783 105.594 502.204 105.369C502.63 105.139 502.981 104.825 503.255 104.428C503.534 104.027 503.74 103.571 503.872 103.061C504.009 102.547 504.078 102.008 504.078 101.445C504.078 100.69 503.958 99.9873 503.718 99.3357C503.478 98.6841 503.108 98.1574 502.608 97.7557C502.108 97.354 501.472 97.1531 500.697 97.1531H500.404V105.707H500.697ZM510.198 104.472L515.636 95.7422H517.634V107.03H515.9V98.2995L510.492 107.03H508.463V95.7422H510.198V104.472ZM527.778 95.7422V97.3589H522.545V107.03H520.811V95.7422H527.778ZM537.864 100.592V102.209H531.632V100.592H537.864ZM532.043 95.7422V107.03H530.309V95.7422H532.043ZM539.186 95.7422V107.03H537.452V95.7422H539.186ZM549.144 107.03V97.3295H546.146C545.47 97.3295 544.938 97.4862 544.551 97.7998C544.164 98.1133 543.97 98.5445 543.97 99.0932C543.97 99.6321 544.144 100.056 544.492 100.364C544.845 100.673 545.327 100.827 545.94 100.827H549.585V102.444H545.94C545.176 102.444 544.517 102.309 543.963 102.04C543.409 101.771 542.983 101.386 542.684 100.886C542.386 100.382 542.236 99.7839 542.236 99.0932C542.236 98.3975 542.393 97.7998 542.706 97.3001C543.02 96.8004 543.468 96.4158 544.051 96.1463C544.639 95.8769 545.337 95.7422 546.146 95.7422H550.79V107.03H549.144ZM541.619 107.03L544.823 101.415H546.704L543.5 107.03H541.619Z" fill="black"/>
<path d="M566.038 110.343V109.471L569.312 105.887C569.696 105.467 570.013 105.102 570.261 104.792C570.51 104.479 570.694 104.185 570.813 103.911C570.936 103.633 570.997 103.343 570.997 103.039C570.997 102.69 570.913 102.388 570.746 102.133C570.581 101.878 570.355 101.681 570.067 101.542C569.78 101.404 569.457 101.334 569.099 101.334C568.718 101.334 568.385 101.413 568.101 101.571C567.82 101.726 567.602 101.944 567.447 102.225C567.295 102.506 567.219 102.836 567.219 103.213H566.076C566.076 102.632 566.21 102.122 566.478 101.683C566.746 101.244 567.111 100.901 567.573 100.656C568.038 100.411 568.559 100.288 569.137 100.288C569.719 100.288 570.234 100.411 570.683 100.656C571.131 100.901 571.483 101.232 571.739 101.649C571.994 102.066 572.121 102.529 572.121 103.039C572.121 103.404 572.055 103.761 571.923 104.11C571.793 104.455 571.567 104.841 571.244 105.267C570.925 105.69 570.481 106.207 569.912 106.817L567.684 109.2V109.278H572.296V110.343H566.038ZM577.259 110.479C576.529 110.479 575.907 110.28 575.394 109.883C574.88 109.483 574.488 108.903 574.217 108.144C573.946 107.382 573.81 106.462 573.81 105.383C573.81 104.311 573.946 103.396 574.217 102.637C574.491 101.875 574.885 101.294 575.399 100.893C575.915 100.49 576.535 100.288 577.259 100.288C577.982 100.288 578.6 100.49 579.114 100.893C579.63 101.294 580.024 101.875 580.296 102.637C580.57 103.396 580.707 104.311 580.707 105.383C580.707 106.462 580.572 107.382 580.3 108.144C580.029 108.903 579.637 109.483 579.123 109.883C578.61 110.28 577.988 110.479 577.259 110.479ZM577.259 109.413C577.982 109.413 578.544 109.065 578.944 108.367C579.345 107.67 579.545 106.675 579.545 105.383C579.545 104.524 579.453 103.793 579.269 103.189C579.088 102.585 578.826 102.125 578.484 101.809C578.145 101.492 577.737 101.334 577.259 101.334C576.542 101.334 575.982 101.688 575.578 102.395C575.174 103.099 574.972 104.095 574.972 105.383C574.972 106.242 575.063 106.972 575.244 107.573C575.425 108.173 575.684 108.63 576.024 108.943C576.366 109.257 576.778 109.413 577.259 109.413ZM583.128 109.074C582.889 109.074 582.684 108.989 582.512 108.818C582.341 108.646 582.256 108.441 582.256 108.202C582.256 107.963 582.341 107.758 582.512 107.587C582.684 107.416 582.889 107.331 583.128 107.331C583.367 107.331 583.572 107.416 583.743 107.587C583.914 107.758 583.999 107.963 583.999 108.202C583.999 108.361 583.959 108.506 583.878 108.638C583.801 108.771 583.696 108.877 583.563 108.958C583.434 109.035 583.289 109.074 583.128 109.074ZM583.128 104.056C582.889 104.056 582.684 103.971 582.512 103.8C582.341 103.628 582.256 103.423 582.256 103.184C582.256 102.945 582.341 102.74 582.512 102.569C582.684 102.398 582.889 102.313 583.128 102.313C583.367 102.313 583.572 102.398 583.743 102.569C583.914 102.74 583.999 102.945 583.999 103.184C583.999 103.343 583.959 103.488 583.878 103.62C583.801 103.753 583.696 103.859 583.563 103.94C583.434 104.018 583.289 104.056 583.128 104.056ZM585.526 108.309V107.321L589.885 100.424H590.602V101.954H590.118L586.824 107.166V107.243H592.695V108.309H585.526ZM590.195 110.343V108.009V107.549V100.424H591.338V110.343H590.195ZM597.472 110.479C596.743 110.479 596.121 110.28 595.608 109.883C595.094 109.483 594.702 108.903 594.431 108.144C594.159 107.382 594.024 106.462 594.024 105.383C594.024 104.311 594.159 103.396 594.431 102.637C594.705 101.875 595.099 101.294 595.612 100.893C596.129 100.49 596.749 100.288 597.472 100.288C598.196 100.288 598.814 100.49 599.328 100.893C599.844 101.294 600.238 101.875 600.509 102.637C600.784 103.396 600.921 104.311 600.921 105.383C600.921 106.462 600.785 107.382 600.514 108.144C600.243 108.903 599.851 109.483 599.337 109.883C598.824 110.28 598.202 110.479 597.472 110.479ZM597.472 109.413C598.196 109.413 598.758 109.065 599.158 108.367C599.558 107.67 599.759 106.675 599.759 105.383C599.759 104.524 599.667 103.793 599.483 103.189C599.302 102.585 599.04 102.125 598.698 101.809C598.359 101.492 597.95 101.334 597.472 101.334C596.756 101.334 596.195 101.688 595.792 102.395C595.388 103.099 595.186 104.095 595.186 105.383C595.186 106.242 595.277 106.972 595.457 107.573C595.638 108.173 595.898 108.63 596.237 108.943C596.58 109.257 596.991 109.413 597.472 109.413Z" fill="#4200FF"/>
<path fill-rule="evenodd" clip-rule="evenodd" d="M617.778 101.431C618.004 101.65 618.011 102.011 617.792 102.237L608.919 111.427C608.809 111.541 608.656 111.604 608.498 111.601C608.339 111.598 608.189 111.529 608.084 111.411L604.123 106.974C603.913 106.739 603.933 106.379 604.168 106.169C604.403 105.96 604.763 105.98 604.973 106.215L608.525 110.193L616.972 101.445C617.19 101.219 617.551 101.213 617.778 101.431Z" fill="#4200FF"/>
</g>
<defs>
<clipPath id="clip0_3116_4542">
<rect x="0.920898" width="654" height="276" rx="15" fill="white"/>
</clipPath>
</defs>
</svg>
