<svg width="69" height="68" viewBox="0 0 69 68" fill="none" xmlns="http://www.w3.org/2000/svg">
<rect x="0.5" width="68" height="68" rx="34" fill="#4200FF"/>
<path fill-rule="evenodd" clip-rule="evenodd" d="M15.8909 33.6389C25.8026 29.3206 32.4119 26.4736 35.7189 25.0981C45.1611 21.1708 47.1231 20.4886 48.4019 20.4661C48.6831 20.4611 49.312 20.5308 49.7194 20.8614C50.0633 21.1405 50.158 21.5175 50.2033 21.7821C50.2486 22.0467 50.305 22.6496 50.2601 23.1206C49.7484 28.4968 47.5344 41.5434 46.4081 47.5649C45.9315 50.1128 44.993 50.967 44.0845 51.0507C42.1101 51.2323 40.6108 49.7458 38.6984 48.4922C35.706 46.5307 34.0154 45.3096 31.1107 43.3954C27.7539 41.1833 29.93 39.9675 31.8431 37.9805C32.3437 37.4605 41.0432 29.5477 41.2115 28.8298C41.2326 28.7401 41.2521 28.4054 41.0533 28.2287C40.8545 28.052 40.5611 28.1125 40.3494 28.1605C40.0493 28.2286 35.2688 31.3883 26.008 37.6396C24.6511 38.5714 23.422 39.0254 22.3208 39.0016C21.1068 38.9754 18.7716 38.3152 17.0357 37.7509C14.9064 37.0588 13.2141 36.6928 13.3615 35.5174C13.4382 34.9051 14.2814 34.279 15.8909 33.6389Z" fill="#F2F2F2"/>
</svg>
