<svg width="489" height="147" viewBox="0 0 489 147" fill="none" xmlns="http://www.w3.org/2000/svg">
<path d="M4.17176 -21.7751L4.44126 -33.3219L6.33074 -33.2778L6.27929 -31.0734L6.32128 -31.0725C6.43657 -31.812 6.7652 -32.3925 7.30719 -32.8139C7.84917 -33.2354 8.56804 -33.4357 9.46379 -33.4148C10.6675 -33.3867 11.5827 -33.0012 12.2096 -32.2584C12.8507 -31.5292 13.1558 -30.4998 13.1247 -29.1702L13.1017 -28.1835L11.2122 -28.2276L11.2353 -29.2143C11.2745 -30.8938 10.4753 -31.7527 8.83773 -31.7909C8.01196 -31.8102 7.37658 -31.587 6.93159 -31.1212C6.4866 -30.6555 6.25365 -29.9747 6.23274 -29.079L6.06124 -21.731L4.17176 -21.7751ZM20.7022 -21.1792C19.3445 -21.2109 18.2553 -21.6424 17.4345 -22.4738C16.628 -23.3189 16.2415 -24.4622 16.2752 -25.9038L16.3389 -28.633C16.3725 -30.0747 16.8117 -31.1917 17.6564 -31.9842C18.5155 -32.7904 19.6238 -33.1776 20.9815 -33.1459C21.8912 -33.1247 22.6777 -32.9243 23.3411 -32.5447C24.0184 -32.1648 24.5383 -31.6415 24.9009 -30.9749C25.2634 -30.3083 25.4342 -29.5271 25.4133 -28.6313L25.3653 -26.5739L18.1433 -26.7424L18.1178 -25.6507C18.0979 -24.797 18.3269 -24.1124 18.8051 -23.5971C19.2835 -23.0958 19.9286 -22.8357 20.7404 -22.8168C21.4402 -22.8004 22.0171 -22.92 22.4712 -23.1755C22.9396 -23.4446 23.2282 -23.809 23.337 -24.2686L25.2264 -24.2245C25.0779 -23.2617 24.5911 -22.5028 23.7659 -21.9479C22.9411 -21.407 21.9198 -21.1508 20.7022 -21.1792ZM18.1776 -28.212L23.5521 -28.0866L23.5658 -28.6744C23.5871 -29.5842 23.3655 -30.2895 22.901 -30.7905C22.4509 -31.3052 21.799 -31.5724 20.9452 -31.5924C20.0914 -31.6123 19.4207 -31.3759 18.9331 -30.8831C18.4598 -30.404 18.2125 -29.7096 18.1913 -28.7999L18.1776 -28.212ZM34.4501 -21.0684C33.4984 -21.0906 32.7419 -21.3813 32.1808 -21.9406C31.6201 -22.5138 31.3505 -23.2623 31.372 -24.1861L31.5303 -30.9672L28.2132 -31.0446L28.2534 -32.7662L31.5705 -32.6887L31.6464 -35.9429L33.5359 -35.8988L33.46 -32.6446L38.1837 -32.5344L38.1435 -30.8129L33.4198 -30.9231L33.2615 -24.142C33.2524 -23.7501 33.3568 -23.4255 33.5749 -23.1684C33.8072 -22.9249 34.1124 -22.7987 34.4903 -22.7899L37.8494 -22.7115L37.8092 -20.99L34.4501 -21.0684ZM45.8579 -20.5921C44.5283 -20.6231 43.4737 -21.0398 42.6942 -21.8422C41.915 -22.6586 41.5413 -23.7457 41.573 -25.1033L41.7445 -32.4513L43.634 -32.4072L43.4625 -25.0592C43.4429 -24.2194 43.6511 -23.5424 44.0873 -23.0281C44.5237 -22.5277 45.1268 -22.2686 45.8966 -22.2506C46.6804 -22.2323 47.3019 -22.4629 47.7613 -22.9423C48.2349 -23.4354 48.4815 -24.1018 48.5011 -24.9416L48.6726 -32.2896L50.5621 -32.2455L50.3906 -24.8975C50.3589 -23.5399 49.9279 -22.4716 49.0975 -21.6928C48.2674 -20.9279 47.1875 -20.561 45.8579 -20.5921ZM54.5252 -20.5998L54.7947 -32.1467L56.6842 -32.1026L56.6328 -29.8982L56.6748 -29.8972C56.79 -30.6367 57.1187 -31.2172 57.6607 -31.6387C58.2026 -32.0601 58.9215 -32.2604 59.8173 -32.2395C61.0209 -32.2114 61.9362 -31.826 62.563 -31.0831C63.2042 -30.354 63.5093 -29.3246 63.4782 -27.9949L63.4552 -27.0082L61.5657 -27.0523L61.5887 -28.039C61.6279 -29.7186 60.8288 -30.5775 59.1912 -30.6157C58.3654 -30.635 57.73 -30.4117 57.2851 -29.946C56.8401 -29.4802 56.6071 -28.7995 56.5862 -27.9037L56.4147 -20.5557L54.5252 -20.5998ZM66.6937 -20.3158L66.9632 -31.8627L68.8527 -31.8186L68.8013 -29.6142L68.8222 -29.6137C68.9382 -30.3812 69.267 -30.9687 69.8086 -31.3762C70.3503 -31.7836 71.062 -31.9771 71.9438 -31.9565C73.1054 -31.9294 74.0209 -31.5509 74.69 -30.8211C75.3592 -30.0913 75.6794 -29.1106 75.6506 -27.8789L75.4693 -20.111L73.5798 -20.1551L73.7533 -27.5871C73.7739 -28.4688 73.5656 -29.1459 73.1285 -29.6182C72.7057 -30.1042 72.1165 -30.356 71.3607 -30.3737C70.5769 -30.392 69.9483 -30.1616 69.475 -29.6825C69.0157 -29.2031 68.7756 -28.5155 68.7547 -27.6197L68.5832 -20.2717L66.6937 -20.3158ZM100.062 -17.0163C98.0714 -17.5109 96.5397 -18.4849 95.4673 -19.9383C94.409 -21.3914 93.9049 -23.1957 93.9552 -25.3511L94.0434 -29.1301C94.0937 -31.2855 94.6814 -33.0642 95.8064 -34.4664C96.9454 -35.8682 98.5209 -36.7697 100.533 -37.1708L100.49 -35.3443C99.5895 -35.1553 98.7964 -34.7747 98.1109 -34.2025C97.4393 -33.63 96.9113 -32.9072 96.5269 -32.0339C96.1567 -31.1743 95.9587 -30.1917 95.9329 -29.086L95.8447 -25.307C95.8192 -24.2153 95.9711 -23.2245 96.3005 -22.3345C96.6438 -21.4443 97.1375 -20.6976 97.7816 -20.0944C98.4397 -19.4909 99.2142 -19.0737 100.105 -18.8428L100.062 -17.0163ZM62.4344 3.2262L53.5122 -1.49827L53.5612 -3.5977L62.6941 -7.90077L62.6515 -6.07427L56.0688 -3.03504C55.7999 -2.91528 55.5454 -2.80919 55.3052 -2.71677C55.0793 -2.63802 54.91 -2.58595 54.7974 -2.56057C54.9227 -2.52964 55.1032 -2.46241 55.3388 -2.35889C55.5748 -2.26936 55.8103 -2.15883 56.0453 -2.02731L62.4785 1.33671L62.4344 3.2262ZM65.6905 4.66757L66.0482 -10.6583L68.8404 -10.5931L70.6381 -3.91333L72.8293 -10.5L75.6216 -10.4348L75.2639 4.89101L73.4374 4.84838L73.6064 -2.39465C73.6224 -3.08046 73.6477 -3.86409 73.6823 -4.74552C73.7312 -5.64062 73.7873 -6.54256 73.8505 -7.45133C73.9137 -8.3601 73.9818 -9.17774 74.0548 -9.90423L71.3927 -2.04721L69.7552 -2.08543L67.5631 -9.86669C67.6509 -8.82836 67.7015 -7.69287 67.7147 -6.46023C67.7279 -5.22759 67.7184 -3.91845 67.686 -2.53283L67.517 4.7102L65.6905 4.66757ZM83.0616 5.24105C81.676 5.20871 80.5798 4.77702 79.773 3.94596C78.9801 3.11524 78.6007 1.97207 78.6347 0.51647L78.6964 -2.12881C78.7307 -3.59841 79.1631 -4.72263 79.9935 -5.50146C80.8242 -6.29429 81.9394 -6.67438 83.339 -6.64171C84.7386 -6.60904 85.8348 -6.17735 86.6277 -5.34662C87.4208 -4.52989 87.8002 -3.38673 87.7659 -1.91713L87.7042 0.728152C87.6702 2.18376 87.2309 3.30781 86.3862 4.10032C85.5554 4.89315 84.4473 5.27339 83.0616 5.24105ZM83.1008 3.56151C83.9266 3.58078 84.5758 3.36487 85.0485 2.91378C85.5351 2.46301 85.7889 1.78975 85.8098 0.893994L85.8814 -2.17117C85.9023 -3.06693 85.6802 -3.7513 85.2151 -4.22428C84.764 -4.69693 84.1256 -4.94289 83.2998 -4.96217C82.488 -4.98111 81.8388 -4.7652 81.3521 -4.31444C80.8655 -3.86367 80.6117 -3.19041 80.5908 -2.29465L80.5193 0.770514C80.4984 1.66627 80.7204 2.35064 81.1855 2.82362C81.6506 3.2966 82.2891 3.54256 83.1008 3.56151ZM94.9772 5.56117C93.8295 5.53439 92.9148 5.12793 92.2329 4.34181C91.5651 3.55601 91.2465 2.50529 91.2772 1.18965L91.3561 -2.19043C91.3871 -3.52007 91.7545 -4.56178 92.4583 -5.31556C93.1621 -6.06935 94.0948 -6.43268 95.2565 -6.40557C96.1243 -6.38531 96.833 -6.15171 97.3827 -5.70477C97.9465 -5.25749 98.2756 -4.66165 98.3703 -3.91724L98.3913 -3.91675L98.4106 -6.54201L98.489 -9.9011L100.378 -9.857L100.021 5.46883L98.1312 5.42473L98.1827 3.22033L98.1617 3.21984C98.0461 3.97335 97.7033 4.56051 97.1333 4.98132C96.5637 5.38814 95.845 5.58143 94.9772 5.56117ZM95.6453 3.93832C96.429 3.95661 97.0506 3.72605 97.5099 3.24664C97.9692 2.76723 98.209 2.09364 98.2293 1.22587L98.3028 -1.92327C98.323 -2.79103 98.1149 -3.47507 97.6785 -3.97539C97.242 -4.47571 96.6319 -4.73502 95.8481 -4.75331C95.0503 -4.77193 94.4226 -4.57653 93.9649 -4.1671C93.5076 -3.77166 93.2678 -3.09807 93.2456 -2.14633L93.1672 1.21275C93.1453 2.1505 93.3534 2.83454 93.7915 3.26488C94.2295 3.69522 94.8475 3.9197 95.6453 3.93832ZM107.23 5.84714C106.04 5.81938 105.103 5.46842 104.418 4.79426C103.734 4.10611 103.405 3.22318 103.43 2.14548C103.447 1.43167 103.622 0.812596 103.956 0.288255C104.291 -0.236087 104.748 -0.638521 105.329 -0.919048C105.91 -1.21357 106.571 -1.35218 107.313 -1.33486L110.882 -1.25156L110.903 -2.15432C110.938 -3.65191 110.137 -4.41981 108.499 -4.45803C107.772 -4.47502 107.181 -4.35578 106.727 -4.1003C106.273 -3.84483 106.026 -3.47948 105.987 -3.00427L104.097 -3.04837C104.189 -3.95649 104.626 -4.69548 105.409 -5.26535C106.207 -5.8489 107.25 -6.12564 108.538 -6.09559C109.937 -6.06292 111 -5.70202 111.726 -5.01289C112.466 -4.32343 112.822 -3.37687 112.794 -2.1732L112.609 5.76264L110.741 5.71903L110.79 3.6196L110.748 3.61862C110.619 4.32981 110.249 4.88833 109.637 5.29417C109.026 5.68601 108.223 5.87034 107.23 5.84714ZM107.729 4.26236C108.653 4.28392 109.393 4.07713 109.949 3.64199C110.505 3.20685 110.792 2.60439 110.81 1.8346L110.848 0.218038L107.489 0.139638C106.873 0.125264 106.365 0.302453 105.964 0.671203C105.578 1.02628 105.377 1.51174 105.363 2.12757C105.348 2.7714 105.546 3.28716 105.957 3.67486C106.382 4.04888 106.973 4.24472 107.729 4.26236ZM122.51 5.99373C121.488 5.96988 120.677 5.65685 120.074 5.05464C119.487 4.43876 119.204 3.64095 119.227 2.66122L119.469 -7.68896L115.48 -7.78206L115.52 -9.5036L121.398 -9.3664L121.117 2.70532C121.105 3.18119 121.23 3.56219 121.489 3.84832C121.749 4.12045 122.103 4.26175 122.55 4.2722L126.119 4.3555L126.079 6.07703L122.51 5.99373ZM102.62 30.5363L102.89 18.9895L104.527 19.0277L104.492 20.5603L104.534 20.5612C104.616 20.045 104.828 19.6299 105.172 19.3158C105.529 19.002 105.974 18.8514 106.506 18.8638C107.01 18.8756 107.433 19.0325 107.776 19.3346C108.119 19.6367 108.362 20.0414 108.504 20.5489L108.525 20.5494C108.635 20.0478 108.861 19.654 109.204 19.3679C109.56 19.0821 110.005 18.9455 110.537 18.9579C111.278 18.9752 111.86 19.2688 112.281 19.8388C112.716 20.3951 112.923 21.1141 112.902 21.9959L112.698 30.7715L110.934 30.7304L111.139 21.9337C111.15 21.4719 111.047 21.1054 110.829 20.8342C110.612 20.5491 110.307 20.4019 109.915 20.3928C109.537 20.3839 109.233 20.5099 109.003 20.7706C108.773 21.0313 108.652 21.3926 108.642 21.8544L108.436 30.672L106.882 30.6358L107.087 21.8392C107.098 21.3773 106.995 21.0108 106.777 20.7396C106.56 20.4545 106.262 20.3075 105.884 20.2987C105.492 20.2895 105.181 20.4153 104.951 20.676C104.721 20.9367 104.6 21.298 104.59 21.7599L104.384 30.5775L102.62 30.5363ZM120.243 31.1157C118.858 31.0833 117.762 30.6516 116.955 29.8206C116.162 28.9899 115.782 27.8467 115.816 26.3911L115.878 23.7458C115.912 22.2762 116.345 21.152 117.175 20.3732C118.006 19.5803 119.121 19.2002 120.521 19.2329C121.92 19.2656 123.017 19.6973 123.809 20.528C124.603 21.3447 124.982 22.4879 124.948 23.9575L124.886 26.6028C124.852 28.0584 124.413 29.1824 123.568 29.9749C122.737 30.7678 121.629 31.148 120.243 31.1157ZM120.283 29.4361C121.108 29.4554 121.758 29.2395 122.23 28.7884C122.717 28.3376 122.971 27.6644 122.992 26.7686L123.063 23.7035C123.084 22.8077 122.862 22.1233 122.397 21.6503C121.946 21.1777 121.307 20.9317 120.482 20.9125C119.67 20.8935 119.021 21.1094 118.534 21.5602C118.047 22.011 117.793 22.6842 117.773 23.58L117.701 26.6451C117.68 27.5409 117.902 28.2253 118.367 28.6982C118.832 29.1712 119.471 29.4172 120.283 29.4361ZM132.159 31.4358C131.011 31.409 130.097 31.0026 129.415 30.2164C128.747 29.4306 128.428 28.3799 128.459 27.0643L128.538 23.6842C128.569 22.3546 128.936 21.3128 129.64 20.5591C130.344 19.8053 131.277 19.4419 132.438 19.4691C133.306 19.4893 134.015 19.7229 134.565 20.1699C135.128 20.6171 135.457 21.213 135.552 21.9574L135.573 21.9579L135.592 19.3326L135.671 15.9735L137.56 16.0176L137.203 31.3435L135.313 31.2994L135.364 29.095L135.343 29.0945C135.228 29.848 134.885 30.4351 134.315 30.8559C133.745 31.2628 133.027 31.4561 132.159 31.4358ZM132.827 29.8129C133.611 29.8312 134.232 29.6007 134.692 29.1213C135.151 28.6419 135.391 27.9683 135.411 27.1005L135.485 23.9514C135.505 23.0836 135.297 22.3996 134.86 21.8992C134.424 21.3989 133.814 21.1396 133.03 21.1213C132.232 21.1027 131.604 21.2981 131.147 21.7075C130.689 22.103 130.45 22.7766 130.427 23.7283L130.349 27.0874C130.327 28.0251 130.535 28.7092 130.973 29.1395C131.411 29.5698 132.029 29.7943 132.827 29.8129ZM144.411 31.7218C143.222 31.694 142.285 31.343 141.6 30.6689C140.916 29.9807 140.587 29.0978 140.612 28.0201C140.628 27.3063 140.804 26.6872 141.138 26.1629C141.473 25.6385 141.93 25.2361 142.511 24.9556C143.092 24.6611 143.753 24.5224 144.495 24.5398L148.064 24.6231L148.085 23.7203C148.12 22.2227 147.319 21.4548 145.681 21.4166C144.953 21.3996 144.362 21.5188 143.908 21.7743C143.454 22.0298 143.208 22.3951 143.169 22.8704L141.279 22.8263C141.37 21.9181 141.808 21.1791 142.591 20.6093C143.389 20.0257 144.432 19.749 145.719 19.779C147.119 19.8117 148.182 20.1726 148.908 20.8617C149.648 21.5512 150.004 22.4978 149.976 23.7014L149.791 31.6373L147.922 31.5937L147.971 29.4942L147.929 29.4932C147.801 30.2044 147.431 30.763 146.819 31.1688C146.208 31.5606 145.405 31.745 144.411 31.7218ZM144.911 30.137C145.834 30.1585 146.574 29.9518 147.131 29.5166C147.687 29.0815 147.974 28.479 147.992 27.7092L148.03 26.0927L144.671 26.0143C144.055 25.9999 143.547 26.1771 143.146 26.5458C142.759 26.9009 142.559 27.3864 142.545 28.0022C142.53 28.646 142.728 29.1618 143.139 29.5495C143.564 29.9235 144.155 30.1193 144.911 30.137ZM159.692 31.8684C158.67 31.8445 157.858 31.5315 157.256 30.9293C156.668 30.3134 156.386 29.5156 156.409 28.5358L156.65 18.1857L152.661 18.0926L152.702 16.371L158.58 16.5082L158.298 28.5799C158.287 29.0558 158.411 29.4368 158.671 29.7229C158.93 29.9951 159.284 30.1364 159.732 30.1468L163.301 30.2301L163.261 31.9517L159.692 31.8684ZM166.288 23.41L166.327 21.7304L175.355 21.9411L175.315 23.6207L166.288 23.41ZM166.17 28.4486L166.21 26.769L175.237 26.9797L175.198 28.6593L166.17 28.4486ZM186.494 34.8045C185.263 34.7758 184.29 34.445 183.577 33.8122C182.863 33.1934 182.568 32.3323 182.692 31.2288L183.087 27.7931C183.174 27.053 183.082 26.5187 182.809 26.1902C182.537 25.8478 181.946 25.6659 181.037 25.6447L178.622 25.5884L178.661 23.9088L181.076 23.9652C181.986 23.9864 182.584 23.8393 182.872 23.5239C183.159 23.1946 183.277 22.6582 183.224 21.9147L182.99 18.4643C182.918 17.3563 183.252 16.5099 183.994 15.9251C184.736 15.3262 185.723 15.0412 186.955 15.0699L187.9 15.092L187.86 16.7715L186.916 16.7495C186.258 16.7341 185.743 16.8761 185.372 17.1756C185.002 17.461 184.837 17.9053 184.879 18.5084L185.114 21.9588C185.164 22.7862 184.953 23.4465 184.479 23.9396C184.006 24.4187 183.243 24.6949 182.191 24.7684C183.239 24.8909 183.987 25.2304 184.436 25.7871C184.885 26.3437 185.065 27.0271 184.977 27.8372L184.581 31.2729C184.511 31.8735 184.655 32.3249 185.012 32.6274C185.368 32.9438 185.876 33.1097 186.534 33.125L187.478 33.1471L187.439 34.8266L186.494 34.8045ZM190.991 32.5989L191.349 17.273L194.141 17.3382L195.938 24.018L198.13 17.4313L200.922 17.4965L200.564 32.8223L198.738 32.7797L198.907 25.5367C198.923 24.8508 198.948 24.0672 198.983 23.1858C199.032 22.2907 199.088 21.3887 199.151 20.48C199.214 19.5712 199.282 18.7536 199.355 18.0271L196.693 25.8841L195.056 25.8459L192.863 18.0646C192.951 19.1029 193.002 20.2384 193.015 21.4711C193.028 22.7037 193.019 24.0128 192.986 25.3985L192.817 32.6415L190.991 32.5989ZM208.362 33.1724C206.976 33.14 205.88 32.7083 205.073 31.8773C204.28 31.0465 203.901 29.9034 203.935 28.4478L203.997 25.8025C204.031 24.3329 204.463 23.2087 205.294 22.4298C206.125 21.637 207.24 21.2569 208.639 21.2896C210.039 21.3223 211.135 21.754 211.928 22.5847C212.721 23.4014 213.101 24.5446 213.066 26.0142L213.005 28.6595C212.971 30.1151 212.531 31.2391 211.687 32.0316C210.856 32.8244 209.748 33.2047 208.362 33.1724ZM208.401 31.4928C209.227 31.5121 209.876 31.2962 210.349 30.8451C210.835 30.3943 211.089 29.721 211.11 28.8253L211.182 25.7601C211.203 24.8644 210.981 24.18 210.515 23.707C210.064 23.2344 209.426 22.9884 208.6 22.9691C207.788 22.9502 207.139 23.1661 206.652 23.6169C206.166 24.0676 205.912 24.7409 205.891 25.6366L205.82 28.7018C205.799 29.5976 206.021 30.2819 206.486 30.7549C206.951 31.2279 207.589 31.4739 208.401 31.4928ZM220.278 33.4925C219.13 33.4657 218.215 33.0592 217.533 32.2731C216.865 31.4873 216.547 30.4366 216.578 29.1209L216.656 25.7409C216.687 24.4112 217.055 23.3695 217.759 22.6157C218.462 21.862 219.395 21.4986 220.557 21.5257C221.425 21.546 222.133 21.7796 222.683 22.2265C223.247 22.6738 223.576 23.2697 223.671 24.0141L223.692 24.0146L223.711 21.3893L223.789 18.0302L225.679 18.0743L225.321 33.4001L223.432 33.356L223.483 31.1516L223.462 31.1511C223.346 31.9046 223.004 32.4918 222.434 32.9126C221.864 33.3194 221.145 33.5127 220.278 33.4925ZM220.946 31.8696C221.729 31.8879 222.351 31.6574 222.81 31.1779C223.27 30.6985 223.509 30.0249 223.53 29.1572L223.603 26.008C223.623 25.1403 223.415 24.4562 222.979 23.9559C222.542 23.4556 221.932 23.1963 221.148 23.178C220.351 23.1594 219.723 23.3548 219.265 23.7642C218.808 24.1596 218.568 24.8332 218.546 25.785L218.468 29.1441C218.446 30.0818 218.654 30.7658 219.092 31.1962C219.53 31.6265 220.148 31.851 220.946 31.8696ZM232.53 33.7784C231.34 33.7507 230.403 33.3997 229.719 32.7256C229.035 32.0374 228.705 31.1545 228.73 30.0768C228.747 29.363 228.923 28.7439 229.257 28.2196C229.591 27.6952 230.049 27.2928 230.629 27.0123C231.21 26.7177 231.872 26.5791 232.614 26.5964L236.183 26.6797L236.204 25.777C236.239 24.2794 235.437 23.5115 233.8 23.4733C233.072 23.4563 232.481 23.5755 232.027 23.831C231.573 24.0865 231.326 24.4518 231.287 24.927L229.398 24.8829C229.489 23.9748 229.926 23.2358 230.71 22.6659C231.508 22.0824 232.55 21.8057 233.838 21.8357C235.238 21.8684 236.301 22.2293 237.027 22.9184C237.767 23.6079 238.123 24.5544 238.095 25.7581L237.909 33.6939L236.041 33.6503L236.09 31.5509L236.048 31.5499C235.919 32.2611 235.549 32.8196 234.938 33.2255C234.326 33.6173 233.524 33.8016 232.53 33.7784ZM233.029 32.1937C233.953 32.2152 234.693 32.0084 235.249 31.5733C235.806 31.1382 236.093 30.5357 236.111 29.7659L236.148 28.1493L232.789 28.0709C232.173 28.0566 231.665 28.2338 231.264 28.6025C230.878 28.9576 230.678 29.443 230.663 30.0589C230.648 30.7027 230.846 31.2185 231.257 31.6062C231.683 31.9802 232.273 32.176 233.029 32.1937ZM247.811 33.925C246.789 33.9012 245.977 33.5882 245.375 32.9859C244.787 32.3701 244.505 31.5722 244.527 30.5925L244.769 20.2423L240.78 20.1492L240.82 18.4277L246.699 18.5649L246.417 30.6366C246.406 31.1125 246.53 31.4935 246.789 31.7796C247.049 32.0518 247.403 32.193 247.851 32.2035L251.42 32.2868L251.38 34.0083L247.811 33.925ZM258.254 34.3368C256.966 34.3068 255.972 33.9965 255.271 33.406C254.585 32.8018 254.255 31.9679 254.28 30.9042L256.169 30.9483C256.157 31.4801 256.336 31.9044 256.707 32.2211C257.078 32.5239 257.606 32.6833 258.292 32.6993L259.216 32.7208C259.915 32.7372 260.458 32.5958 260.843 32.2967C261.242 31.9979 261.448 31.5686 261.461 31.0088C261.484 30.015 261.042 29.4446 260.136 29.2974L256.955 28.761C256.174 28.6307 255.573 28.2946 255.151 27.7526C254.73 27.1967 254.53 26.4778 254.551 25.596C254.574 24.5883 254.935 23.8055 255.635 23.2477C256.348 22.6902 257.313 22.4256 258.531 22.4541L259.455 22.4756C260.574 22.5017 261.478 22.8029 262.164 23.3791C262.865 23.9416 263.233 24.6714 263.269 25.5684L261.358 25.5239C261.34 25.1173 261.151 24.7768 260.794 24.5024C260.45 24.2283 259.991 24.0846 259.417 24.0712L258.494 24.0496C257.85 24.0346 257.343 24.1698 256.972 24.4552C256.601 24.7406 256.41 25.1353 256.398 25.6392C256.379 26.4509 256.739 26.9215 257.478 27.0507L260.45 27.5402C262.403 27.8659 263.356 29.0364 263.309 31.0519C263.283 32.1296 262.907 32.961 262.179 33.5462C261.466 34.1177 260.465 34.3884 259.177 34.3584L258.254 34.3368ZM271.303 34.6834C270.785 34.6713 270.369 34.5075 270.054 34.1921C269.753 33.877 269.609 33.4745 269.62 32.9847C269.632 32.4668 269.796 32.0505 270.111 31.7358C270.441 31.4214 270.864 31.2702 271.382 31.2823C271.9 31.2944 272.309 31.465 272.61 31.7941C272.924 32.1235 273.075 32.5472 273.063 33.065C273.052 33.5549 272.881 33.95 272.552 34.2504C272.237 34.5512 271.821 34.6955 271.303 34.6834ZM279.55 34.6658L279.908 19.34L281.797 19.3841L281.645 25.9343L286.557 26.049L286.71 19.4988L288.6 19.5429L288.242 34.8687L286.352 34.8246L286.517 27.7705L281.604 27.6559L281.44 34.7099L279.55 34.6658ZM291.236 34.9386L295.583 19.7058L298.123 19.7651L301.733 35.1836L299.823 35.139L298.91 31.0426L294.27 30.9343L293.167 34.9837L291.236 34.9386ZM294.685 29.3475L298.548 29.4377L297.483 24.6865C297.28 23.7856 297.122 23.0327 297.01 22.4279C296.898 21.8231 296.831 21.4294 296.807 21.2468C296.775 21.4281 296.689 21.8182 296.549 22.4171C296.409 23.016 296.216 23.7537 295.972 24.6303L294.685 29.3475ZM304.727 35.2535L305.085 19.9276L309.808 20.0379C310.718 20.0591 311.512 20.2667 312.189 20.6606C312.866 21.0405 313.386 21.5638 313.748 22.2304C314.111 22.897 314.282 23.6712 314.261 24.553C314.237 25.5887 313.95 26.4713 313.401 27.2007C312.852 27.93 312.133 28.4314 311.245 28.7047L314.216 35.4749L312.138 35.4264L309.288 28.8481L306.747 28.7888L306.596 35.2971L304.727 35.2535ZM306.787 27.0883L309.642 27.1549C310.426 27.1732 311.062 26.943 311.549 26.4642C312.037 25.9715 312.29 25.3192 312.309 24.5074C312.328 23.6817 312.106 23.0183 311.641 22.5173C311.177 22.0163 310.553 21.7567 309.769 21.7384L306.914 21.6718L306.787 27.0883ZM317.294 35.5468L317.652 20.2209L321.62 20.3136C322.614 20.3368 323.463 20.5456 324.168 20.9402C324.887 21.3351 325.435 21.88 325.81 22.5749C326.2 23.2702 326.384 24.0868 326.362 25.0245L326.22 31.1338C326.198 32.0716 325.976 32.8856 325.554 33.576C325.146 34.2526 324.573 34.7714 323.837 35.1323C323.114 35.4936 322.256 35.6626 321.262 35.6394L317.294 35.5468ZM319.223 33.9113L321.302 33.9598C322.225 33.9814 322.952 33.7393 323.482 33.2335C324.026 32.7281 324.309 32.0135 324.33 31.0897L324.473 24.9804C324.494 24.0706 324.245 23.3506 323.725 22.8204C323.219 22.2904 322.505 22.0147 321.581 21.9931L319.502 21.9446L319.223 33.9113ZM330.198 35.8479L328.729 20.4795L330.471 20.5201L331.403 31.885C331.449 32.3482 331.479 32.832 331.496 33.3365C331.512 33.8271 331.524 34.2194 331.531 34.5137C331.566 34.2204 331.61 33.8293 331.664 33.3405C331.731 32.8379 331.799 32.3563 331.865 31.8958L333.642 20.5941L335.678 20.6417L336.799 32.0109C336.844 32.4741 336.889 32.9583 336.933 33.4634C336.978 33.9546 337.011 34.3475 337.032 34.6421C337.067 34.3488 337.104 33.9576 337.143 33.4683C337.197 32.9655 337.257 32.4837 337.324 32.0232L338.827 20.7152L340.486 20.7539L338.259 36.0361L335.887 35.9807L334.771 24.4015C334.726 23.9244 334.695 23.4615 334.677 23.013C334.66 22.5504 334.641 22.1929 334.618 21.9403C334.585 22.1916 334.548 22.5478 334.509 23.009C334.471 23.4563 334.411 23.917 334.33 24.3912L332.57 35.9033L330.198 35.8479ZM341.589 36.1138L345.936 20.8811L348.476 20.9404L352.087 36.3588L350.176 36.3142L349.263 32.2178L344.624 32.1095L343.521 36.1589L341.589 36.1138ZM345.039 30.5228L348.902 30.6129L347.836 25.8618C347.633 24.9608 347.476 24.2079 347.364 23.6031C347.252 22.9984 347.184 22.6047 347.16 22.4221C347.128 22.6034 347.042 22.9935 346.902 23.5924C346.762 24.1913 346.57 24.929 346.325 25.8055L345.039 30.5228ZM355.081 36.4287L355.438 21.1029L360.162 21.2131C361.072 21.2344 361.865 21.4419 362.542 21.8358C363.219 22.2157 363.739 22.739 364.102 23.4056C364.464 24.0723 364.635 24.8465 364.615 25.7282C364.591 26.764 364.304 27.6465 363.755 28.3759C363.206 29.1053 362.487 29.6067 361.598 29.88L364.57 36.6502L362.491 36.6017L359.641 30.0234L357.101 29.9641L356.949 36.4723L355.081 36.4287ZM357.141 28.2635L359.996 28.3302C360.78 28.3485 361.415 28.1182 361.902 27.6395C362.39 27.1467 362.643 26.4945 362.662 25.6827C362.682 24.8569 362.459 24.1935 361.995 23.6926C361.53 23.1916 360.906 22.9319 360.122 22.9137L357.267 22.847L357.141 28.2635ZM367.816 36.7259L368.174 21.4001L376.991 21.6059L376.951 23.3274L370.002 23.1653L369.891 27.91L376.105 28.055L376.066 29.7345L369.852 29.5895L369.725 35.048L376.674 35.2102L376.633 36.9317L367.816 36.7259ZM379.515 39.0996L379.552 37.525L389.629 37.7602L389.593 39.3348L379.515 39.0996ZM397.354 37.6254C395.955 37.5928 394.858 37.1751 394.065 36.3723C393.271 35.5696 392.891 34.4824 392.923 33.1108L393.084 26.1827C393.116 24.811 393.547 23.7428 394.377 22.978C395.208 22.2131 396.322 21.847 397.722 21.8797C399.094 21.9117 400.176 22.3361 400.969 23.1528C401.763 23.9556 402.144 25.0357 402.112 26.3934L400.222 26.3493C400.243 25.4815 400.027 24.8113 399.576 24.3386C399.139 23.8523 398.508 23.5995 397.682 23.5802C396.857 23.561 396.2 23.7837 395.713 24.2485C395.241 24.6996 394.994 25.359 394.974 26.2268L394.812 33.1549C394.792 34.0226 395.007 34.6999 395.458 35.1865C395.923 35.6595 396.568 35.9056 397.394 35.9249C398.22 35.9442 398.862 35.7281 399.321 35.2767C399.794 34.8116 400.04 34.1451 400.061 33.2774L401.95 33.3215C401.918 34.6791 401.487 35.7473 400.657 36.5262C399.827 37.291 398.726 37.6574 397.354 37.6254ZM405.434 37.6039L405.792 22.2781L407.681 22.3222L407.528 28.8724L412.441 28.9871L412.594 22.4369L414.483 22.481L414.126 37.8068L412.236 37.7627L412.401 30.7086L407.488 30.594L407.323 37.648L405.434 37.6039ZM418.169 37.9012L418.527 22.5754L427.345 22.7812L427.304 24.5027L420.355 24.3405L420.245 29.0852L426.459 29.2302L426.42 30.9098L420.205 30.7647L420.078 36.2233L427.027 36.3854L426.987 38.107L418.169 37.9012ZM435.12 38.5069C433.72 38.4742 432.623 38.0565 431.83 37.2538C431.036 36.451 430.656 35.3638 430.688 33.9922L430.849 27.0641C430.881 25.6925 431.312 24.6242 432.143 23.8594C432.973 23.0946 434.087 22.7285 435.487 22.7611C436.859 22.7932 437.941 23.2175 438.734 24.0343C439.528 24.837 439.909 25.9172 439.877 27.2748L437.987 27.2307C438.008 26.3629 437.792 25.6927 437.341 25.2201C436.904 24.7337 436.273 24.481 435.447 24.4617C434.622 24.4424 433.965 24.6651 433.478 25.1299C433.006 25.581 432.759 26.2404 432.739 27.1082L432.577 34.0363C432.557 34.9041 432.772 35.5813 433.223 36.0679C433.688 36.5409 434.334 36.787 435.159 36.8063C435.985 36.8256 436.627 36.6095 437.086 36.1581C437.559 35.693 437.806 35.0266 437.826 34.1588L439.715 34.2029C439.684 35.5605 439.253 36.6288 438.422 37.4076C437.592 38.1725 436.491 38.5389 435.12 38.5069ZM443.178 38.4849L443.536 23.1591L445.425 23.2032L445.271 29.7954L447.539 29.8483L451.094 23.3355L453.151 23.3835L449.179 30.6848L453.003 38.7142L450.841 38.6637L447.437 31.5054L445.233 31.4539L445.068 38.529L443.178 38.4849ZM455.934 38.7826L456.292 23.4568L465.11 23.6626L465.07 25.3841L458.12 25.2219L458.01 29.9666L464.224 30.1117L464.185 31.7912L457.97 31.6462L457.843 37.1047L464.792 37.2669L464.752 38.9884L455.934 38.7826ZM468.376 39.073L468.734 23.7472L473.457 23.8574C474.367 23.8786 475.16 24.0862 475.837 24.4801C476.515 24.86 477.035 25.3833 477.397 26.0499C477.76 26.7166 477.931 27.4908 477.91 28.3725C477.886 29.4083 477.599 30.2908 477.05 31.0202C476.501 31.7496 475.782 32.2509 474.893 32.5243L477.865 39.2945L475.787 39.246L472.937 32.6677L470.396 32.6084L470.244 39.1166L468.376 39.073ZM470.436 30.9078L473.291 30.9745C474.075 30.9928 474.71 30.7625 475.198 30.2838C475.685 29.791 475.939 29.1388 475.958 28.327C475.977 27.5012 475.754 26.8378 475.29 26.3369C474.825 25.8359 474.201 25.5762 473.418 25.558L470.562 25.4913L470.436 30.9078ZM480.222 41.4501L480.259 39.8755L490.336 40.1107L490.3 41.6853L480.222 41.4501ZM493.112 39.6503L493.469 24.3245L496.262 24.3897L498.059 31.0694L500.251 24.4828L503.043 24.5479L502.685 39.8738L500.859 39.8311L501.028 32.5881C501.044 31.9023 501.069 31.1187 501.103 30.2372C501.152 29.3421 501.208 28.4402 501.272 27.5314C501.335 26.6227 501.403 25.805 501.476 25.0785L498.814 32.9355L497.176 32.8973L494.984 25.1161C495.072 26.1544 495.123 27.2899 495.136 28.5225C495.149 29.7552 495.14 31.0643 495.107 32.4499L494.938 39.693L493.112 39.6503ZM506.393 39.9603L506.433 38.2388L509.561 38.3118L509.839 26.429L506.71 26.356L506.751 24.6345L514.938 24.8256L514.898 26.5471L511.77 26.4741L511.493 38.3569L514.621 38.4299L514.581 40.1514L506.393 39.9603ZM523.238 40.5635C521.839 40.5309 520.742 40.1132 519.949 39.3104C519.155 38.5077 518.774 37.4205 518.806 36.0489L518.968 29.1208C519 27.7491 519.431 26.6809 520.261 25.9161C521.091 25.1512 522.206 24.7851 523.606 24.8178C524.977 24.8498 526.06 25.2742 526.853 26.0909C527.646 26.8937 528.027 27.9738 527.996 29.3315L526.106 29.2874C526.126 28.4196 525.911 27.7494 525.46 27.2767C525.023 26.7904 524.392 26.5376 523.566 26.5184C522.74 26.4991 522.084 26.7218 521.597 27.1866C521.124 27.6377 520.878 28.2971 520.857 29.1649L520.696 36.093C520.676 36.9608 520.891 37.638 521.342 38.1246C521.807 38.5976 522.452 38.8437 523.278 38.863C524.104 38.8823 524.746 38.6662 525.205 38.2148C525.677 37.7497 525.924 37.0833 525.944 36.2155L527.834 36.2596C527.802 37.6172 527.371 38.6855 526.541 39.4643C525.711 40.2291 524.61 40.5955 523.238 40.5635ZM531.318 40.542L531.675 25.2162L536.399 25.3265C537.309 25.3477 538.102 25.5553 538.779 25.9492C539.457 26.3291 539.976 26.8524 540.339 27.519C540.702 28.1856 540.873 28.9598 540.852 29.8416C540.828 30.8773 540.541 31.7599 539.992 32.4893C539.443 33.2186 538.724 33.72 537.835 33.9933L540.807 40.7635L538.729 40.715L535.878 34.1367L533.338 34.0774L533.186 40.5857L531.318 40.542ZM533.378 32.3769L536.233 32.4435C537.017 32.4618 537.652 32.2316 538.14 31.7528C538.627 31.2601 538.881 30.6078 538.899 29.796C538.919 28.9703 538.696 28.3069 538.232 27.8059C537.767 27.3049 537.143 27.0453 536.359 27.027L533.504 26.9604L533.378 32.3769ZM548.247 41.1472C546.875 41.1152 545.8 40.691 545.021 39.8746C544.242 39.0582 543.869 37.9082 543.904 36.4246L544.056 29.9164C544.09 28.4328 544.516 27.3014 545.332 26.5222C546.149 25.7431 547.243 25.3695 548.614 25.4015C549.986 25.4335 551.061 25.8577 551.841 26.6741C552.62 27.4905 552.992 28.6335 552.958 30.1031L552.806 36.6324C552.771 38.116 552.345 39.2473 551.529 40.0265C550.713 40.8057 549.619 41.1792 548.247 41.1472ZM548.287 39.4467C549.112 39.466 549.748 39.2497 550.192 38.798C550.651 38.3326 550.891 37.666 550.911 36.7982L551.073 29.8701C551.093 29.0023 550.885 28.3323 550.448 27.86C550.025 27.374 549.401 27.1213 548.575 27.1021C547.763 27.0831 547.128 27.3063 546.669 27.7718C546.21 28.2232 545.971 28.8828 545.95 29.7505L545.789 36.6786C545.768 37.5464 545.977 38.2235 546.413 38.7098C546.85 39.1821 547.475 39.4277 548.287 39.4467ZM556.473 41.1292L556.831 25.8033L561.765 25.9185C563.192 25.9518 564.316 26.3912 565.137 27.2365C565.972 28.0682 566.373 29.1699 566.341 30.5415C566.309 31.9132 565.857 33.0019 564.984 33.8078C564.125 34.5999 562.982 34.9794 561.554 34.946L558.51 34.875L558.363 41.1733L556.473 41.1292ZM558.55 33.1745L561.594 33.2455C562.42 33.2648 563.083 33.0282 563.585 32.5358C564.101 32.0297 564.369 31.3497 564.389 30.496C564.409 29.6282 564.173 28.9365 563.681 28.4209C563.203 27.9056 562.551 27.6383 561.725 27.619L558.681 27.548L558.55 33.1745ZM569.083 41.4235L569.44 26.0976L571.33 26.1418L571.177 32.692L576.09 32.8066L576.243 26.2564L578.132 26.3005L577.774 41.6263L575.885 41.5822L576.05 34.5282L571.137 34.4135L570.972 41.4676L569.083 41.4235ZM586.012 42.0287C584.64 41.9966 583.565 41.5724 582.786 40.756C582.007 39.9396 581.634 38.7896 581.669 37.306L581.821 30.7978C581.856 29.3142 582.281 28.1828 583.098 27.4037C583.914 26.6245 585.008 26.2509 586.38 26.2829C587.751 26.315 588.827 26.7392 589.606 27.5556C590.385 28.372 590.757 29.515 590.723 30.9846L590.571 37.5138C590.536 38.9974 590.111 40.1288 589.294 40.9079C588.478 41.6871 587.384 42.0607 586.012 42.0287ZM586.052 40.3281C586.878 40.3474 587.513 40.1312 587.957 39.6794C588.416 39.214 588.656 38.5474 588.676 37.6796L588.838 30.7515C588.858 29.8838 588.65 29.2137 588.213 28.7414C587.79 28.2554 587.166 28.0028 586.34 27.9835C585.528 27.9645 584.893 28.1878 584.434 28.6532C583.975 29.1046 583.736 29.7642 583.715 30.632L583.554 37.5601C583.533 38.4278 583.742 39.1049 584.178 39.5912C584.616 40.0635 585.24 40.3092 586.052 40.3281ZM594.197 42.0096L594.554 26.6838L597.074 26.7426L601.449 39.9733C601.429 39.6227 601.404 39.195 601.374 38.6902C601.358 38.1717 601.343 37.6322 601.328 37.0717C601.327 36.4975 601.333 35.9585 601.344 35.4546L601.545 26.847L603.372 26.8896L603.014 42.2154L600.495 42.1566L596.14 28.9264C596.16 29.263 596.179 29.6905 596.194 30.209C596.211 30.7135 596.219 31.2529 596.22 31.8271C596.235 32.3876 596.236 32.9267 596.224 33.4446L596.023 42.0523L594.197 42.0096ZM606.995 42.3083L607.353 26.9825L616.17 27.1883L616.13 28.9098L609.181 28.7477L609.07 33.4924L615.284 33.6374L615.245 35.3169L609.031 35.1719L608.904 40.6304L615.853 40.7926L615.812 42.5141L606.995 42.3083ZM619.424 44.9091L619.464 43.2295L620.408 43.2516C621.066 43.2669 621.588 43.1251 621.973 42.826C622.371 42.5412 622.529 42.0967 622.445 41.4926L622 38.0373C621.893 37.2366 622.049 36.568 622.467 36.0317C622.886 35.4813 623.454 35.1514 624.171 35.0421C623.46 34.9135 622.907 34.5995 622.512 34.1002C622.118 33.6008 621.993 32.9538 622.138 32.1589L622.743 28.7281C622.855 28.1285 622.718 27.6772 622.333 27.3742C621.963 27.0574 621.448 26.8914 620.79 26.876L619.846 26.854L619.885 25.1744L620.83 25.1965C621.655 25.2158 622.373 25.3726 622.982 25.6668C623.606 25.9475 624.066 26.3503 624.361 26.8754C624.671 27.4007 624.762 28.033 624.632 28.7722L624.027 32.203C623.898 32.9422 623.976 33.4832 624.262 33.8259C624.563 34.155 625.168 34.3302 626.077 34.3514L628.702 34.4127L628.663 36.0922L626.038 36.031C625.143 36.0101 624.537 36.164 624.221 36.4927C623.906 36.8074 623.795 37.337 623.89 38.0814L624.334 41.5367C624.429 42.2671 624.31 42.8875 623.976 43.3979C623.656 43.9225 623.177 44.3105 622.541 44.5617C621.919 44.8273 621.195 44.9504 620.369 44.9311L619.424 44.9091ZM106.61 55.8043C105.322 55.7742 104.328 55.4639 103.628 54.8734C102.942 54.2693 102.611 53.4353 102.636 52.3716L104.525 52.4157C104.513 52.9476 104.692 53.3719 105.063 53.6886C105.434 53.9913 105.962 54.1507 106.648 54.1667L107.572 54.1883C108.272 54.2046 108.814 54.0632 109.199 53.7641C109.598 53.4654 109.804 53.0361 109.817 52.4762C109.841 51.4825 109.399 50.912 108.492 50.7648L105.312 50.2285C104.53 50.0982 103.929 49.7621 103.508 49.2201C103.086 48.6641 102.886 47.9453 102.907 47.0635C102.93 46.0558 103.292 45.273 103.991 44.7152C104.704 44.1576 105.669 43.8931 106.887 43.9215L107.811 43.9431C108.931 43.9692 109.834 44.2704 110.521 44.8465C111.222 45.4091 111.59 46.1388 111.625 47.0359L109.714 46.9913C109.696 46.5848 109.508 46.2443 109.15 45.9699C108.806 45.6958 108.348 45.552 107.774 45.5386L106.85 45.5171C106.206 45.5021 105.699 45.6373 105.328 45.9227C104.957 46.2081 104.766 46.6028 104.754 47.1066C104.735 47.9184 105.095 48.3889 105.835 48.5182L108.806 49.0077C110.759 49.3333 111.712 50.5039 111.665 52.5193C111.64 53.597 111.263 54.4285 110.535 55.0137C109.822 55.5852 108.821 55.8559 107.534 55.8258L106.61 55.8043ZM115.15 55.8356L115.19 54.114L119.284 54.2096L119.473 46.1058L115.799 46.02L115.84 44.2985L121.403 44.4284L121.174 54.2537L125.058 54.3443L125.018 56.0659L115.15 55.8356ZM120.297 42.323C119.835 42.3122 119.474 42.1847 119.214 41.9406C118.953 41.6965 118.828 41.3714 118.837 40.9655C118.847 40.5457 118.988 40.2199 119.259 39.9881C119.531 39.7424 119.898 39.6249 120.36 39.6357C120.822 39.6465 121.182 39.7809 121.443 40.0391C121.703 40.2832 121.828 40.6152 121.818 41.0351C121.809 41.441 121.668 41.7598 121.397 41.9916C121.125 42.2233 120.759 42.3338 120.297 42.323ZM127.844 56.1318L127.888 54.2423L134.539 46.4574L128.241 46.3104L128.281 44.5889L136.7 44.7854L136.656 46.6749L129.878 54.4568L136.701 54.6161L136.661 56.3376L127.844 56.1318ZM144.836 56.7385C143.478 56.7068 142.389 56.2753 141.568 55.4439C140.762 54.5988 140.375 53.4555 140.409 52.0139L140.473 49.2846C140.506 47.843 140.945 46.726 141.79 45.9335C142.649 45.1273 143.757 44.7401 145.115 44.7717C146.025 44.793 146.811 44.9934 147.475 45.373C148.152 45.7529 148.672 46.2761 149.035 46.9428C149.397 47.6094 149.568 48.3906 149.547 49.2864L149.499 51.3438L142.277 51.1753L142.251 52.267C142.232 53.1207 142.461 53.8053 142.939 54.3206C143.417 54.8219 144.062 55.082 144.874 55.1009C145.574 55.1173 146.151 54.9977 146.605 54.7422C147.073 54.4731 147.362 54.1087 147.471 53.6491L149.36 53.6932C149.212 54.656 148.725 55.4149 147.9 55.9698C147.075 56.5107 146.053 56.7669 144.836 56.7385ZM142.311 49.7057L147.686 49.8311L147.699 49.2433C147.721 48.3335 147.499 47.6281 147.035 47.1272C146.585 46.6125 145.933 46.3452 145.079 46.3253C144.225 46.3054 143.554 46.5418 143.067 47.0346C142.593 47.5136 142.346 48.2081 142.325 49.1178L142.311 49.7057ZM153.116 48.1093L153.155 46.4298L162.183 46.6405L162.144 48.32L153.116 48.1093ZM152.999 53.148L153.038 51.4684L162.065 51.6791L162.026 53.3587L152.999 53.148ZM173.323 59.5039C172.091 59.4752 171.118 59.1444 170.405 58.5116C169.691 57.8928 169.396 57.0316 169.52 55.9282L169.915 52.4925C170.003 51.7524 169.91 51.218 169.638 50.8896C169.366 50.5472 168.775 50.3653 167.865 50.3441L165.451 50.2877L165.49 48.6082L167.904 48.6645C168.814 48.6858 169.412 48.5387 169.7 48.2233C169.988 47.894 170.105 47.3575 170.053 46.6141L169.818 43.1637C169.746 42.0557 170.081 41.2093 170.822 40.6245C171.565 40.0256 172.552 39.7406 173.783 39.7693L174.728 39.7914L174.689 41.4709L173.744 41.4488C173.086 41.4335 172.572 41.5755 172.201 41.875C171.83 42.1604 171.666 42.6047 171.707 43.2078L171.942 46.6582C171.993 47.4856 171.781 48.1459 171.308 48.639C170.834 49.118 170.072 49.3943 169.02 49.4678C170.067 49.5903 170.815 49.9298 171.264 50.4865C171.714 51.0431 171.894 51.7265 171.805 52.5366L171.41 55.9723C171.339 56.5729 171.483 57.0243 171.84 57.3267C172.197 57.6432 172.704 57.809 173.362 57.8244L174.307 57.8464L174.267 59.526L173.323 59.5039ZM182.685 57.6219C181.201 57.5872 180.028 57.1677 179.164 56.3634C178.301 55.559 177.885 54.471 177.917 53.0994L179.807 53.1435C179.787 53.9973 180.044 54.6754 180.578 55.1781C181.113 55.6667 181.828 55.9214 182.724 55.9423C183.592 55.9626 184.291 55.7268 184.82 55.235C185.35 54.7433 185.624 54.0915 185.643 53.2797C185.657 52.6639 185.502 52.1281 185.176 51.6724C184.865 51.203 184.404 50.8771 183.792 50.6948L181.477 49.9896C180.517 49.6871 179.766 49.1725 179.223 48.4456C178.694 47.7051 178.441 46.8449 178.464 45.8652C178.483 45.0534 178.682 44.3438 179.06 43.7365C179.438 43.1292 179.96 42.6652 180.626 42.3447C181.292 42.0101 182.052 41.8528 182.905 41.8727C183.773 41.893 184.532 42.0857 185.182 42.451C185.846 42.8026 186.359 43.2907 186.723 43.9154C187.087 44.526 187.259 45.2302 187.241 46.028L185.351 45.9839C185.368 45.2841 185.143 44.7117 184.677 44.2667C184.212 43.8077 183.608 43.5696 182.866 43.5523C182.124 43.535 181.517 43.7449 181.045 44.182C180.573 44.6051 180.329 45.1665 180.313 45.8663C180.299 46.4262 180.435 46.9125 180.72 47.3252C181.018 47.7243 181.439 48.0072 181.981 48.1739L184.359 48.9016C185.374 49.2053 186.152 49.7556 186.694 50.5525C187.25 51.3357 187.515 52.2591 187.491 53.3228C187.459 54.6665 187.007 55.7272 186.135 56.5051C185.263 57.2829 184.113 57.6552 182.685 57.6219ZM190.68 57.5984L190.721 55.8769L194.814 55.9724L195.004 47.8687L191.33 47.7829L191.37 46.0614L196.933 46.1912L196.704 56.0166L200.588 56.1072L200.548 57.8287L190.68 57.5984ZM195.827 44.0858C195.365 44.0751 195.004 43.9476 194.744 43.7035C194.483 43.4593 194.358 43.1343 194.367 42.7284C194.377 42.3085 194.518 41.9827 194.789 41.751C195.061 41.5053 195.428 41.3878 195.89 41.3986C196.352 41.4094 196.713 41.5438 196.973 41.8019C197.233 42.0461 197.358 42.3781 197.349 42.798C197.339 43.2039 197.199 43.5227 196.927 43.7544C196.656 43.9861 196.289 44.0966 195.827 44.0858ZM203.374 57.8947L203.418 56.0052L210.069 48.2203L203.771 48.0733L203.811 46.3518L212.23 46.5482L212.186 48.4377L205.408 56.2197L212.232 56.379L212.191 58.1005L203.374 57.8947ZM220.366 58.5013C219.008 58.4697 217.919 58.0381 217.098 57.2067C216.292 56.3617 215.905 55.2184 215.939 53.7768L216.003 51.0475C216.036 49.6059 216.476 48.4888 217.32 47.6963C218.179 46.8902 219.288 46.5029 220.645 46.5346C221.555 46.5558 222.342 46.7562 223.005 47.1358C223.682 47.5157 224.202 48.039 224.565 48.7056C224.927 49.3723 225.098 50.1535 225.077 51.0492L225.029 53.1067L217.807 52.9381L217.782 54.0298C217.762 54.8836 217.991 55.5681 218.469 56.0834C218.947 56.5847 219.592 56.8448 220.404 56.8638C221.104 56.8801 221.681 56.7606 222.135 56.5051C222.604 56.2359 222.892 55.8716 223.001 55.412L224.89 55.4561C224.742 56.4189 224.255 57.1777 223.43 57.7326C222.605 58.2735 221.584 58.5298 220.366 58.5013ZM217.841 51.4685L223.216 51.594L223.23 51.0061C223.251 50.0964 223.029 49.391 222.565 48.89C222.115 48.3754 221.463 48.1081 220.609 48.0882C219.755 48.0683 219.085 48.3047 218.597 48.7974C218.124 49.2765 217.876 49.9709 217.855 50.8807L217.841 51.4685ZM232.494 58.7424C231.206 58.7123 230.212 58.4021 229.511 57.8116C228.825 57.2074 228.495 56.3734 228.52 55.3097L230.409 55.3538C230.397 55.8857 230.576 56.31 230.946 56.6267C231.317 56.9295 231.846 57.0888 232.532 57.1048L233.455 57.1264C234.155 57.1427 234.698 57.0013 235.083 56.7022C235.482 56.4035 235.688 55.9742 235.701 55.4143C235.724 54.4206 235.282 53.8501 234.376 53.7029L231.195 53.1666C230.414 53.0363 229.813 52.7002 229.391 52.1582C228.97 51.6022 228.77 50.8834 228.79 50.0016C228.814 48.9939 229.175 48.2111 229.875 47.6533C230.588 47.0957 231.553 46.8312 232.771 46.8596L233.695 46.8812C234.814 46.9073 235.718 47.2085 236.404 47.7847C237.105 48.3472 237.473 49.077 237.508 49.974L235.598 49.9294C235.579 49.5229 235.391 49.1824 235.034 48.908C234.69 48.6339 234.231 48.4901 233.657 48.4767L232.734 48.4552C232.09 48.4402 231.582 48.5754 231.212 48.8608C230.841 49.1462 230.65 49.5409 230.638 50.0447C230.619 50.8565 230.979 51.327 231.718 51.4563L234.69 51.9458C236.643 52.2714 237.596 53.442 237.549 55.4574C237.523 56.5352 237.147 57.3666 236.419 57.9518C235.705 58.5233 234.705 58.794 233.417 58.7639L232.494 58.7424ZM245.543 59.089C245.025 59.0769 244.609 58.9131 244.294 58.5977C243.993 58.2826 243.849 57.8801 243.86 57.3902C243.872 56.8724 244.036 56.4561 244.351 56.1414C244.681 55.827 245.104 55.6758 245.622 55.6879C246.14 55.7 246.549 55.8706 246.85 56.1997C247.164 56.5291 247.315 56.9527 247.303 57.4706C247.292 57.9605 247.121 58.3556 246.792 58.656C246.477 58.9567 246.061 59.1011 245.543 59.089ZM253.349 59.0611L253.707 43.7353L256.499 43.8005L258.297 50.4802L260.488 43.8936L263.28 43.9587L262.923 59.2846L261.096 59.2419L261.265 51.9989C261.281 51.3131 261.307 50.5295 261.341 49.648C261.39 48.7529 261.446 47.851 261.509 46.9422C261.573 46.0334 261.641 45.2158 261.714 44.4893L259.052 52.3463L257.414 52.3081L255.222 44.5269C255.31 45.5652 255.36 46.7007 255.374 47.9333C255.387 49.166 255.377 50.4751 255.345 51.8607L255.176 59.1037L253.349 59.0611ZM266.367 61.6756L266.406 59.996L267.351 60.0181C268.008 60.0334 268.53 59.8916 268.915 59.5925C269.314 59.3077 269.471 58.8632 269.387 58.2591L268.943 54.8038C268.835 54.0031 268.991 53.3345 269.41 52.7982C269.829 52.2478 270.396 51.9179 271.113 51.8086C270.402 51.68 269.849 51.366 269.455 50.8667C269.06 50.3673 268.935 49.7202 269.08 48.9254L269.685 45.4946C269.797 44.895 269.661 44.4437 269.276 44.1407C268.905 43.8239 268.391 43.6579 267.733 43.6425L266.788 43.6205L266.827 41.9409L267.772 41.963C268.598 41.9823 269.315 42.139 269.925 42.4333C270.548 42.714 271.008 43.1168 271.304 43.6419C271.614 44.1672 271.704 44.7995 271.575 45.5387L270.969 48.9695C270.84 49.7087 270.919 50.2497 271.205 50.5924C271.505 50.9215 272.11 51.0967 273.02 51.1179L275.644 51.1792L275.605 52.8587L272.981 52.7975C272.085 52.7766 271.479 52.9305 271.163 53.2592C270.848 53.5739 270.738 54.1035 270.832 54.8479L271.277 58.3032C271.372 59.0336 271.252 59.654 270.918 60.1644C270.598 60.689 270.12 61.077 269.484 61.3282C268.861 61.5938 268.137 61.7169 267.311 61.6976L266.367 61.6756ZM107.647 80.6673C106.695 80.645 105.939 80.3543 105.378 79.7951C104.817 79.2218 104.547 78.4733 104.569 77.5496L104.727 70.7684L101.41 70.691L101.45 68.9695L104.767 69.0469L104.843 65.7928L106.733 65.8369L106.657 69.091L111.381 69.2012L111.34 70.9228L106.617 70.8125L106.458 77.5937C106.449 77.9856 106.554 78.3101 106.772 78.5673C107.004 78.8107 107.309 78.9369 107.687 78.9457L111.046 79.0241L111.006 80.7457L107.647 80.6673ZM114.567 80.8288L114.607 79.1072L118.701 79.2028L118.89 71.099L115.216 71.0132L115.256 69.2917L120.82 69.4216L120.59 79.2469L124.474 79.3375L124.434 81.0591L114.567 80.8288ZM119.714 67.3162C119.252 67.3054 118.891 67.1779 118.63 66.9338C118.37 66.6896 118.244 66.3646 118.254 65.9587C118.264 65.5389 118.404 65.213 118.676 64.9813C118.948 64.7356 119.314 64.6181 119.776 64.6289C120.238 64.6397 120.599 64.7741 120.859 65.0323C121.12 65.2764 121.245 65.6084 121.235 66.0283C121.226 66.4342 121.085 66.753 120.814 66.9847C120.542 67.2165 120.175 67.327 119.714 67.3162ZM132.824 81.2549C131.872 81.2327 131.116 80.9419 130.554 80.3827C129.994 79.8094 129.724 79.0609 129.746 78.1372L129.904 71.356L126.587 71.2786L126.627 69.5571L129.944 69.6345L130.02 66.3804L131.909 66.4245L131.834 69.6786L136.557 69.7889L136.517 71.5104L131.793 71.4001L131.635 78.1813C131.626 78.5732 131.73 78.8977 131.948 79.1549C132.181 79.3984 132.486 79.5245 132.864 79.5333L136.223 79.6117L136.183 81.3333L132.824 81.2549ZM145.937 81.5609C144.915 81.5371 144.103 81.2241 143.501 80.6218C142.913 80.006 142.631 79.2082 142.654 78.2284L142.895 67.8782L138.906 67.7851L138.947 66.0636L144.825 66.2008L144.543 78.2725C144.532 78.7484 144.656 79.1294 144.916 79.4155C145.175 79.6877 145.529 79.8289 145.977 79.8394L149.546 79.9227L149.506 81.6442L145.937 81.5609ZM156.841 82.0255C155.483 81.9938 154.394 81.5623 153.573 80.7309C152.767 79.8858 152.38 78.7425 152.414 77.3009L152.478 74.5716C152.511 73.13 152.95 72.013 153.795 71.2205C154.654 70.4143 155.763 70.0271 157.12 70.0587C158.03 70.08 158.816 70.2804 159.48 70.66C160.157 71.0399 160.677 71.5631 161.04 72.2298C161.402 72.8964 161.573 73.6776 161.552 74.5734L161.504 76.6308L154.282 76.4623L154.256 77.554C154.237 78.4077 154.466 79.0923 154.944 79.6076C155.422 80.1089 156.067 80.369 156.879 80.3879C157.579 80.4043 158.156 80.2847 158.61 80.0292C159.078 79.7601 159.367 79.3957 159.476 78.9361L161.365 78.9802C161.217 79.943 160.73 80.7019 159.905 81.2568C159.08 81.7977 158.059 82.0539 156.841 82.0255ZM154.316 74.9927L159.691 75.1181L159.705 74.5303C159.726 73.6205 159.504 72.9151 159.04 72.4142C158.59 71.8995 157.938 71.6322 157.084 71.6123C156.23 71.5924 155.559 71.8288 155.072 72.3216C154.598 72.8007 154.351 73.4951 154.33 74.4048L154.316 74.9927ZM165.121 73.3963L165.16 71.7168L174.188 71.9275L174.149 73.607L165.121 73.3963ZM165.004 78.435L165.043 76.7554L174.07 76.9661L174.031 78.6457L165.004 78.435ZM179.105 73.3026L179.084 67.0004L181.226 67.0504L180.932 73.3452L179.105 73.3026ZM183.556 73.4065L183.535 67.1043L185.676 67.1543L185.382 73.4491L183.556 73.4065ZM190.517 82.6014L190.557 80.8799L193.685 80.9529L193.963 69.0701L190.834 68.9971L190.875 67.2756L199.062 67.4667L199.022 69.1882L195.894 69.1152L195.617 80.998L198.745 81.071L198.705 82.7925L190.517 82.6014ZM206.733 83.148C205.446 83.1179 204.452 82.8076 203.751 82.2171C203.065 81.6129 202.735 80.779 202.759 79.7153L204.649 79.7594C204.637 80.2913 204.816 80.7155 205.186 81.0323C205.557 81.335 206.086 81.4944 206.772 81.5104L207.695 81.532C208.395 81.5483 208.938 81.4069 209.323 81.1078C209.722 80.8091 209.928 80.3797 209.941 79.8199C209.964 78.8262 209.522 78.2557 208.616 78.1085L205.435 77.5721C204.654 77.4419 204.053 77.1058 203.631 76.5638C203.21 76.0078 203.01 75.2889 203.03 74.4072C203.054 73.3994 203.415 72.6167 204.114 72.0588C204.828 71.5013 205.793 71.2368 207.011 71.2652L207.935 71.2868C209.054 71.3129 209.957 71.614 210.644 72.1902C211.345 72.7527 211.713 73.4825 211.748 74.3796L209.838 74.335C209.819 73.9285 209.631 73.588 209.274 73.3136C208.93 73.0395 208.471 72.8957 207.897 72.8823L206.974 72.8608C206.33 72.8457 205.822 72.9809 205.452 73.2664C205.081 73.5518 204.89 73.9464 204.878 74.4503C204.859 75.2621 205.219 75.7326 205.958 75.8619L208.93 76.3514C210.883 76.677 211.836 77.8476 211.788 79.863C211.763 80.9407 211.387 81.7722 210.659 82.3573C209.945 82.9288 208.945 83.1996 207.657 83.1695L206.733 83.148ZM233.531 83.6054C232.579 83.5831 231.822 83.2924 231.261 82.7332C230.701 82.1599 230.431 81.4114 230.453 80.4877L230.611 73.7065L227.294 73.6291L227.334 71.9076L230.651 71.985L230.727 68.7309L232.616 68.775L232.54 72.0291L237.264 72.1394L237.224 73.8609L232.5 73.7506L232.342 80.5318C232.333 80.9237 232.437 81.2482 232.655 81.5054C232.888 81.7489 233.193 81.875 233.571 81.8838L236.93 81.9622L236.89 83.6838L233.531 83.6054ZM240.598 83.7703L240.955 68.4445L242.845 68.4886L242.705 74.4719L242.726 74.4724C242.842 73.7049 243.171 73.1174 243.712 72.71C244.254 72.3025 244.966 72.109 245.848 72.1296C247.009 72.1567 247.925 72.5352 248.594 73.265C249.263 73.9948 249.583 74.9756 249.554 76.2072L249.373 83.9751L247.484 83.931L247.658 76.478C247.678 75.6103 247.469 74.9402 247.032 74.4679C246.61 73.9819 246.02 73.7301 245.264 73.7125C244.481 73.6942 243.852 73.9246 243.379 74.4036C242.92 74.8831 242.679 75.5706 242.659 76.4664L242.487 83.8144L240.598 83.7703ZM257.548 84.376C256.19 84.3443 255.101 83.9128 254.28 83.0814C253.474 82.2363 253.087 81.093 253.121 79.6514L253.185 76.9221C253.218 75.4805 253.657 74.3635 254.502 73.571C255.361 72.7648 256.469 72.3775 257.827 72.4092C258.737 72.4305 259.523 72.6309 260.187 73.0105C260.864 73.3904 261.384 73.9136 261.747 74.5803C262.109 75.2469 262.28 76.0281 262.259 76.9239L262.211 78.9813L254.989 78.8127L254.963 79.9045C254.944 80.7582 255.173 81.4427 255.651 81.958C256.129 82.4593 256.774 82.7195 257.586 82.7384C258.286 82.7547 258.863 82.6352 259.317 82.3797C259.785 82.1106 260.074 81.7462 260.183 81.2866L262.072 81.3307C261.924 82.2935 261.437 83.0524 260.612 83.6072C259.787 84.1482 258.765 84.4044 257.548 84.376ZM255.023 77.3431L260.398 77.4686L260.411 76.8807C260.433 75.971 260.211 75.2656 259.747 74.7647C259.297 74.25 258.645 73.9827 257.791 73.9628C256.937 73.9429 256.266 74.1793 255.779 74.672C255.305 75.1511 255.058 75.8456 255.037 76.7553L255.023 77.3431ZM277.691 84.636L277.96 73.0892L279.598 73.1274L279.562 74.66L279.604 74.661C279.686 74.1447 279.899 73.7296 280.242 73.4155C280.6 73.1018 281.044 72.9511 281.576 72.9635C282.08 72.9753 282.504 73.1322 282.847 73.4343C283.19 73.7364 283.432 74.1412 283.574 74.6486L283.595 74.6491C283.705 74.1475 283.931 73.7537 284.274 73.4676C284.631 73.1819 285.075 73.0452 285.607 73.0576C286.349 73.0749 286.93 73.3686 287.351 73.9385C287.786 74.4948 287.993 75.2139 287.973 76.0956L287.768 84.8712L286.005 84.8301L286.21 76.0335C286.221 75.5716 286.117 75.2051 285.899 74.9339C285.682 74.6488 285.377 74.5016 284.985 74.4925C284.608 74.4837 284.304 74.6096 284.073 74.8703C283.843 75.131 283.723 75.4923 283.712 75.9542L283.506 84.7718L281.953 84.7355L282.158 75.9389C282.169 75.477 282.065 75.1105 281.848 74.8394C281.63 74.5542 281.332 74.4072 280.955 74.3984C280.563 74.3893 280.252 74.515 280.022 74.7757C279.791 75.0364 279.671 75.3977 279.66 75.8596L279.454 84.6772L277.691 84.636ZM290.804 84.9421L290.844 83.2206L294.938 83.3161L295.127 75.2123L291.453 75.1266L291.493 73.4051L297.057 73.5349L296.828 83.3602L300.712 83.4509L300.671 85.1724L290.804 84.9421ZM295.951 71.4295C295.489 71.4187 295.128 71.2913 294.867 71.0471C294.607 70.803 294.482 70.478 294.491 70.0721C294.501 69.6522 294.641 69.3264 294.913 69.0947C295.185 68.8489 295.552 68.7315 296.013 68.7423C296.475 68.753 296.836 68.8875 297.096 69.1456C297.357 69.3898 297.482 69.7218 297.472 70.1417C297.463 70.5476 297.322 70.8664 297.051 71.0981C296.779 71.3298 296.413 71.4403 295.951 71.4295ZM308.069 85.5551C306.67 85.5225 305.559 85.1044 304.738 84.3011C303.916 83.4977 303.521 82.4102 303.553 81.0385L303.627 77.8894C303.659 76.5178 304.104 75.4499 304.962 74.6857C305.82 73.9215 306.949 73.5557 308.349 73.5884C309.678 73.6194 310.741 74.0013 311.536 74.7341C312.345 75.4671 312.756 76.45 312.769 77.6827L310.88 77.6386C310.855 76.8958 310.616 76.3231 310.164 75.9204C309.711 75.5037 309.093 75.2862 308.309 75.2679C307.484 75.2487 306.813 75.4711 306.298 75.9352C305.798 76.3856 305.537 77.0447 305.517 77.9125L305.443 81.0826C305.423 81.9504 305.652 82.6279 306.131 83.1152C306.623 83.6029 307.283 83.8563 308.108 83.8756C308.892 83.8939 309.52 83.7055 309.991 83.3104C310.462 82.9153 310.728 82.3543 310.787 81.6275L312.676 81.6716C312.605 82.9023 312.149 83.8649 311.306 84.5594C310.478 85.2543 309.399 85.5862 308.069 85.5551ZM316.548 85.543L316.817 73.9961L318.707 74.0402L318.655 76.2446L318.697 76.2456C318.812 75.5061 319.141 74.9256 319.683 74.5041C320.225 74.0826 320.944 73.8824 321.84 73.9033C323.043 73.9314 323.959 74.3168 324.585 75.0597C325.227 75.7888 325.532 76.8182 325.501 78.1479L325.478 79.1346L323.588 79.0905L323.611 78.1038C323.65 76.4242 322.851 75.5653 321.214 75.5271C320.388 75.5078 319.752 75.7311 319.307 76.1968C318.862 76.6626 318.63 77.3433 318.609 78.2391L318.437 85.5871L316.548 85.543ZM333.079 86.0968C331.693 86.0645 330.597 85.6328 329.79 84.8018C328.997 83.971 328.618 82.8279 328.652 81.3723L328.714 78.727C328.748 77.2574 329.18 76.1332 330.011 75.3543C330.842 74.5615 331.957 74.1814 333.356 74.2141C334.756 74.2467 335.852 74.6784 336.645 75.5092C337.438 76.3259 337.818 77.4691 337.783 78.9387L337.722 81.5839C337.688 83.0395 337.248 84.1636 336.404 84.9561C335.573 85.7489 334.465 86.1292 333.079 86.0968ZM333.118 84.4173C333.944 84.4366 334.593 84.2207 335.066 83.7696C335.552 83.3188 335.806 82.6455 335.827 81.7498L335.899 78.6846C335.92 77.7889 335.698 77.1045 335.232 76.6315C334.781 76.1589 334.143 75.9129 333.317 75.8936C332.505 75.8747 331.856 76.0906 331.369 76.5414C330.883 76.9921 330.629 77.6654 330.608 78.5611L330.537 81.6263C330.516 82.5221 330.738 83.2064 331.203 83.6794C331.668 84.1524 332.306 84.3984 333.118 84.4173ZM341.216 89.8998L341.574 74.5739L343.463 74.618L343.412 76.8224L343.433 76.8229C343.549 76.0694 343.891 75.4892 344.461 75.0824C345.031 74.6616 345.75 74.4613 346.618 74.4816C347.779 74.5087 348.694 74.9152 349.362 75.701C350.03 76.4728 350.349 77.5235 350.318 78.8531L350.239 82.2332C350.208 83.5628 349.84 84.6045 349.136 85.3583C348.433 86.1121 347.5 86.4754 346.338 86.4483C345.47 86.4281 344.762 86.1945 344.212 85.7475C343.662 85.3006 343.347 84.7051 343.266 83.961L343.203 83.9595L343.184 86.5848L343.106 89.9439L341.216 89.8998ZM345.747 84.7961C346.544 84.8147 347.172 84.6193 347.63 84.2099C348.087 83.8004 348.327 83.1268 348.349 82.1891L348.428 78.83C348.45 77.8783 348.242 77.1942 347.803 76.7779C347.365 76.3475 346.747 76.1231 345.949 76.1044C345.18 76.0865 344.558 76.317 344.085 76.7961C343.625 77.2755 343.386 77.9491 343.365 78.8169L343.292 81.966C343.272 82.8338 343.48 83.5178 343.916 84.0182C344.367 84.5188 344.977 84.7781 345.747 84.7961ZM353.893 86.4146L354.251 71.0888L356.14 71.1329L356 77.1162L356.021 77.1167C356.137 76.3492 356.466 75.7617 357.008 75.3543C357.549 74.9468 358.261 74.7533 359.143 74.7739C360.305 74.801 361.22 75.1795 361.889 75.9093C362.558 76.6391 362.878 77.6199 362.85 78.8515L362.668 86.6194L360.779 86.5753L360.953 79.1223C360.973 78.2546 360.765 77.5845 360.328 77.1122C359.905 76.6262 359.316 76.3744 358.56 76.3567C357.776 76.3385 357.147 76.5689 356.674 77.0479C356.215 77.5274 355.975 78.2149 355.954 79.1107L355.782 86.4587L353.893 86.4146ZM370.844 86.9783C369.458 86.9459 368.362 86.5142 367.555 85.6832C366.763 84.8525 366.383 83.7093 366.417 82.2537L366.479 79.6084C366.513 78.1388 366.946 77.0146 367.776 76.2358C368.607 75.4429 369.722 75.0628 371.121 75.0955C372.521 75.1282 373.617 75.5599 374.41 76.3906C375.203 77.2073 375.583 78.3505 375.548 79.8201L375.487 82.4654C375.453 83.921 375.013 85.045 374.169 85.8375C373.338 86.6304 372.23 87.0106 370.844 86.9783ZM370.883 85.2987C371.709 85.318 372.358 85.1021 372.831 84.651C373.318 84.2002 373.571 83.527 373.592 82.6312L373.664 79.5661C373.685 78.6703 373.463 77.9859 372.998 77.5129C372.546 77.0403 371.908 76.7943 371.082 76.7751C370.27 76.7561 369.621 76.972 369.135 77.4228C368.648 77.8736 368.394 78.5468 368.373 79.4426L368.302 82.5077C368.281 83.4035 368.503 84.0879 368.968 84.5608C369.433 85.0338 370.072 85.2798 370.883 85.2987ZM379.07 87.0022L379.339 75.4554L381.229 75.4995L381.177 77.7039L381.198 77.7043C381.314 76.9368 381.643 76.3494 382.185 75.9419C382.726 75.5344 383.438 75.341 384.32 75.3615C385.481 75.3887 386.397 75.7671 387.066 76.4969C387.735 77.2267 388.055 78.2075 388.026 79.4392L387.845 87.207L385.956 87.1629L386.129 79.731C386.15 78.8492 385.941 78.1722 385.504 77.6998C385.082 77.2138 384.492 76.962 383.737 76.9444C382.953 76.9261 382.324 77.1565 381.851 77.6356C381.392 78.115 381.151 78.8026 381.131 79.6983L380.959 87.0463L379.07 87.0022ZM396.02 87.6079C394.662 87.5762 393.573 87.1447 392.752 86.3133C391.946 85.4682 391.559 84.3249 391.593 82.8833L391.657 80.154C391.69 78.7124 392.129 77.5954 392.974 76.8029C393.833 75.9967 394.942 75.6095 396.299 75.6411C397.209 75.6624 397.995 75.8628 398.659 76.2424C399.336 76.6223 399.856 77.1455 400.219 77.8122C400.581 78.4788 400.752 79.26 400.731 80.1558L400.683 82.2132L393.461 82.0447L393.435 83.1364C393.416 83.9901 393.645 84.6747 394.123 85.19C394.601 85.6913 395.246 85.9514 396.058 85.9703C396.758 85.9867 397.335 85.8671 397.789 85.6116C398.257 85.3425 398.546 84.9781 398.655 84.5185L400.544 84.5626C400.396 85.5254 399.909 86.2843 399.084 86.8392C398.259 87.3801 397.238 87.6363 396.02 87.6079ZM393.495 80.5751L398.87 80.7005L398.884 80.1127C398.905 79.2029 398.683 78.4976 398.219 77.9966C397.769 77.4819 397.117 77.2146 396.263 77.1947C395.409 77.1748 394.738 77.4112 394.251 77.904C393.777 78.3831 393.53 79.0775 393.509 79.9872L393.495 80.5751ZM421.198 88.1535C419.812 88.1212 418.716 87.6895 417.909 86.8584C417.116 86.0277 416.737 84.8845 416.771 83.4289L416.832 80.7837C416.867 79.3141 417.299 78.1898 418.129 77.411C418.96 76.6182 420.075 76.2381 421.475 76.2708C422.875 76.3034 423.971 76.7351 424.764 77.5658C425.557 78.3826 425.936 79.5257 425.902 80.9953L425.84 83.6406C425.806 85.0962 425.367 86.2203 424.522 87.0128C423.691 87.8056 422.583 88.1859 421.198 88.1535ZM421.237 86.474C422.063 86.4933 422.712 86.2773 423.184 85.8262C423.671 85.3755 423.925 84.7022 423.946 83.8065L424.017 80.7413C424.038 79.8455 423.816 79.1612 423.351 78.6882C422.9 78.2155 422.261 77.9696 421.436 77.9503C420.624 77.9314 419.975 78.1473 419.488 78.598C419.001 79.0488 418.748 79.7221 418.727 80.6178L418.655 83.683C418.634 84.5787 418.856 85.2631 419.321 85.7361C419.787 86.2091 420.425 86.455 421.237 86.474ZM429.423 88.1775L429.693 76.6306L431.582 76.6747L431.531 78.8791L431.552 78.8796C431.668 78.1121 431.996 77.5246 432.538 77.1171C433.08 76.7097 433.791 76.5162 434.673 76.5368C435.835 76.5639 436.75 76.9424 437.419 77.6722C438.089 78.402 438.409 79.3827 438.38 80.6144L438.199 88.3823L436.309 88.3382L436.483 80.9062C436.503 80.0244 436.295 79.3474 435.858 78.8751C435.435 78.3891 434.846 78.1373 434.09 78.1196C433.306 78.1013 432.678 78.3317 432.204 78.8108C431.745 79.2902 431.505 79.9778 431.484 80.8736L431.313 88.2216L429.423 88.1775ZM444.51 84.0134L444.593 80.4443L445.643 80.4688C446.539 80.4897 447.251 80.2613 447.781 79.7835C448.324 79.2921 448.606 78.6335 448.625 77.8077C448.644 76.9819 448.394 76.3179 447.873 75.8156C447.367 75.2996 446.659 75.0311 445.75 75.0098L443.125 74.9486L443.167 73.1641L445.791 73.2253C446.771 73.2482 447.613 73.4569 448.318 73.8514C449.038 74.2323 449.585 74.7633 449.962 75.4442C450.352 76.1255 450.536 76.928 450.515 77.8518C450.496 78.6496 450.311 79.3664 449.96 80.0024C449.61 80.6244 449.129 81.1173 448.518 81.4812C447.922 81.8454 447.231 82.0393 446.446 82.063L446.4 84.0575L444.51 84.0134ZM445.011 88.6463C444.647 88.6378 444.349 88.5118 444.117 88.2683C443.884 88.0248 443.772 87.7212 443.781 87.3573C443.789 86.9934 443.915 86.6952 444.159 86.4628C444.402 86.2304 444.706 86.1185 445.07 86.127L445.7 86.1417C446.106 86.1512 446.411 86.2773 446.615 86.5202C446.834 86.7493 446.939 87.0459 446.931 87.4098C446.922 87.7737 446.796 88.0788 446.552 88.3252C446.309 88.5576 446.005 88.6695 445.641 88.661L445.011 88.6463ZM456.049 79.7664L456.028 73.4642L458.17 73.5142L457.876 79.8091L456.049 79.7664ZM460.5 79.8703L460.479 73.5681L462.62 73.6181L462.326 79.913L460.5 79.8703ZM51.0735 102.988L51.1162 101.162L57.6989 98.1225C57.9678 98.0028 58.2151 97.9035 58.441 97.8248C58.6813 97.7324 58.8577 97.6735 58.9703 97.6481C58.845 97.6171 58.6645 97.5499 58.4289 97.4464C58.1932 97.3429 57.9577 97.2323 57.7224 97.1148L51.2892 93.7508L51.3333 91.8613L60.2554 96.5858L60.2064 98.6852L51.0735 102.988ZM108.631 133.014C107.399 132.986 106.427 132.655 105.713 132.022C104.999 131.403 104.704 130.542 104.828 129.439L105.223 126.003C105.311 125.263 105.218 124.729 104.946 124.4C104.674 124.058 104.083 123.876 103.173 123.855L100.759 123.798L100.798 122.119L103.212 122.175C104.122 122.196 104.721 122.049 105.008 121.734C105.296 121.404 105.413 120.868 105.361 120.125L105.126 116.674C105.054 115.566 105.389 114.72 106.131 114.135C106.873 113.536 107.86 113.251 109.091 113.28L110.036 113.302L109.997 114.981L109.052 114.959C108.394 114.944 107.88 115.086 107.509 115.385C107.138 115.671 106.974 116.115 107.016 116.718L107.25 120.169C107.301 120.996 107.089 121.656 106.616 122.149C106.142 122.629 105.38 122.905 104.328 122.978C105.375 123.101 106.124 123.44 106.573 123.997C107.022 124.554 107.202 125.237 107.113 126.047L106.718 129.483C106.648 130.083 106.791 130.535 107.148 130.837C107.505 131.154 108.012 131.32 108.67 131.335L109.615 131.357L109.576 133.037L108.631 133.014ZM113.568 130.819L113.926 115.493L118.272 115.595C119.671 115.627 120.755 116.003 121.522 116.721C122.304 117.439 122.68 118.421 122.651 119.667C122.633 120.451 122.364 121.152 121.846 121.77C121.341 122.388 120.688 122.765 119.887 122.9L119.885 122.963C120.485 123.047 121.005 123.27 121.445 123.63C121.899 123.991 122.245 124.447 122.484 124.999C122.738 125.537 122.857 126.128 122.842 126.771C122.811 128.087 122.381 129.12 121.551 129.871C120.736 130.608 119.629 130.961 118.229 130.928L113.568 130.819ZM115.621 122.066L118.098 122.123C118.91 122.142 119.552 121.94 120.024 121.517C120.51 121.094 120.762 120.512 120.779 119.77C120.796 119.029 120.579 118.435 120.127 117.991C119.676 117.546 119.044 117.314 118.232 117.295L115.734 117.237L115.621 122.066ZM115.455 129.162L118.059 129.222C118.94 129.243 119.639 129.028 120.153 128.578C120.682 128.114 120.956 127.477 120.975 126.665C120.995 125.825 120.752 125.14 120.246 124.61C119.754 124.067 119.068 123.784 118.186 123.764L115.583 123.703L115.455 129.162ZM130.498 131.382C129.113 131.35 128.017 130.918 127.21 130.087C126.417 129.256 126.037 128.113 126.071 126.658L126.133 124.012C126.167 122.543 126.6 121.419 127.43 120.64C128.261 119.847 129.376 119.467 130.776 119.499C132.175 119.532 133.272 119.964 134.064 120.795C134.858 121.611 135.237 122.754 135.203 124.224L135.141 126.869C135.107 128.325 134.668 129.449 133.823 130.242C132.992 131.034 131.884 131.415 130.498 131.382ZM130.538 129.703C131.363 129.722 132.013 129.506 132.485 129.055C132.972 128.604 133.226 127.931 133.247 127.035L133.318 123.97C133.339 123.074 133.117 122.39 132.652 121.917C132.201 121.444 131.562 121.198 130.737 121.179C129.925 121.16 129.276 121.376 128.789 121.827C128.302 122.278 128.048 122.951 128.028 123.847L127.956 126.912C127.935 127.807 128.157 128.492 128.622 128.965C129.087 129.438 129.726 129.684 130.538 129.703ZM143.087 131.676C141.701 131.644 140.605 131.212 139.798 130.381C139.005 129.55 138.626 128.407 138.66 126.951L138.722 124.306C138.756 122.837 139.188 121.712 140.019 120.934C140.849 120.141 141.965 119.761 143.364 119.793C144.764 119.826 145.86 120.258 146.653 121.088C147.446 121.905 147.825 123.048 147.791 124.518L147.729 127.163C147.695 128.619 147.256 129.743 146.411 130.535C145.581 131.328 144.472 131.708 143.087 131.676ZM143.126 129.997C143.952 130.016 144.601 129.8 145.074 129.349C145.56 128.898 145.814 128.225 145.835 127.329L145.907 124.264C145.927 123.368 145.705 122.684 145.24 122.211C144.789 121.738 144.151 121.492 143.325 121.473C142.513 121.454 141.864 121.67 141.377 122.121C140.891 122.571 140.637 123.245 140.616 124.14L140.544 127.206C140.524 128.101 140.746 128.786 141.211 129.259C141.676 129.732 142.314 129.978 143.126 129.997ZM157.359 131.841C156.337 131.817 155.525 131.504 154.923 130.902C154.335 130.286 154.053 129.488 154.075 128.509L154.317 118.158L150.328 118.065L150.368 116.344L156.247 116.481L155.965 128.553C155.954 129.029 156.078 129.41 156.337 129.696C156.597 129.968 156.951 130.109 157.399 130.12L160.968 130.203L160.928 131.924L157.359 131.841ZM168.263 132.306C166.905 132.274 165.816 131.842 164.995 131.011C164.188 130.166 163.802 129.023 163.836 127.581L163.899 124.852C163.933 123.41 164.372 122.293 165.217 121.501C166.076 120.694 167.184 120.307 168.542 120.339C169.452 120.36 170.238 120.561 170.901 120.94C171.579 121.32 172.099 121.843 172.461 122.51C172.824 123.177 172.995 123.958 172.974 124.854L172.926 126.911L165.704 126.742L165.678 127.834C165.658 128.688 165.887 129.372 166.365 129.888C166.844 130.389 167.489 130.649 168.301 130.668C169.001 130.684 169.578 130.565 170.032 130.309C170.5 130.04 170.789 129.676 170.897 129.216L172.787 129.26C172.638 130.223 172.151 130.982 171.326 131.537C170.501 132.078 169.48 132.334 168.263 132.306ZM165.738 125.273L171.112 125.398L171.126 124.81C171.147 123.901 170.926 123.195 170.461 122.694C170.011 122.18 169.359 121.912 168.506 121.893C167.652 121.873 166.981 122.109 166.493 122.602C166.02 123.081 165.773 123.775 165.752 124.685L165.738 125.273ZM179.843 132.576C178.654 132.548 177.716 132.197 177.032 131.523C176.348 130.835 176.018 129.952 176.044 128.874C176.06 128.16 176.236 127.541 176.57 127.017C176.904 126.493 177.362 126.09 177.943 125.81C178.524 125.515 179.185 125.377 179.927 125.394L183.496 125.477L183.517 124.575C183.552 123.077 182.751 122.309 181.113 122.271C180.385 122.254 179.794 122.373 179.34 122.629C178.886 122.884 178.639 123.249 178.6 123.725L176.711 123.68C176.802 122.772 177.239 122.033 178.023 121.463C178.821 120.88 179.864 120.603 181.151 120.633C182.551 120.666 183.614 121.027 184.34 121.716C185.08 122.405 185.436 123.352 185.408 124.556L185.223 132.491L183.354 132.448L183.403 130.348L183.361 130.347C183.233 131.059 182.862 131.617 182.251 132.023C181.639 132.415 180.837 132.599 179.843 132.576ZM180.342 130.991C181.266 131.013 182.006 130.806 182.562 130.371C183.119 129.936 183.406 129.333 183.424 128.563L183.462 126.947L180.102 126.868C179.487 126.854 178.978 127.031 178.578 127.4C178.191 127.755 177.991 128.241 177.976 128.856C177.961 129.5 178.159 130.016 178.571 130.404C178.996 130.778 179.587 130.974 180.342 130.991ZM189.077 132.581L189.347 121.035L191.236 121.079L191.185 123.283L191.206 123.284C191.322 122.516 191.651 121.929 192.192 121.521C192.734 121.114 193.446 120.92 194.327 120.941C195.489 120.968 196.405 121.346 197.074 122.076C197.743 122.806 198.063 123.787 198.034 125.018L197.853 132.786L195.963 132.742L196.137 125.31C196.158 124.428 195.949 123.751 195.512 123.279C195.089 122.793 194.5 122.541 193.744 122.524C192.961 122.505 192.332 122.736 191.859 123.215C191.399 123.694 191.159 124.382 191.138 125.278L190.967 132.626L189.077 132.581ZM209.858 135.587C207.867 135.093 206.335 134.119 205.263 132.665C204.204 131.212 203.7 129.408 203.751 127.252L203.839 123.473C203.889 121.318 204.477 119.539 205.602 118.137C206.741 116.735 208.316 115.834 210.328 115.433L210.285 117.259C209.385 117.448 208.592 117.829 207.906 118.401C207.235 118.973 206.707 119.696 206.322 120.57C205.952 121.429 205.754 122.412 205.728 123.517L205.64 127.296C205.615 128.388 205.766 129.379 206.096 130.269C206.439 131.159 206.933 131.906 207.577 132.509C208.235 133.113 209.009 133.53 209.9 133.761L209.858 135.587ZM217.944 133.465C216.797 133.438 215.882 133.032 215.2 132.246C214.532 131.46 214.213 130.409 214.244 129.094L214.323 125.714C214.354 124.384 214.722 123.342 215.425 122.589C216.129 121.835 217.062 121.471 218.224 121.499C219.091 121.519 219.8 121.752 220.35 122.199C220.913 122.647 221.243 123.242 221.337 123.987L221.358 123.987L221.378 121.362L221.456 118.003L223.345 118.047L222.988 133.373L221.098 133.329L221.15 131.124L221.129 131.124C221.013 131.877 220.67 132.465 220.1 132.885C219.531 133.292 218.812 133.485 217.944 133.465ZM218.612 131.842C219.396 131.861 220.018 131.63 220.477 131.151C220.936 130.671 221.176 129.998 221.196 129.13L221.27 125.981C221.29 125.113 221.082 124.429 220.645 123.929C220.209 123.428 219.599 123.169 218.815 123.151C218.017 123.132 217.39 123.328 216.932 123.737C216.475 124.132 216.235 124.806 216.213 125.758L216.134 129.117C216.112 130.055 216.32 130.739 216.758 131.169C217.197 131.599 217.814 131.824 218.612 131.842ZM231.204 133.775C229.847 133.743 228.758 133.312 227.937 132.48C227.13 131.635 226.744 130.492 226.777 129.05L226.841 126.321C226.875 124.879 227.314 123.762 228.159 122.97C229.018 122.164 230.126 121.776 231.484 121.808C232.393 121.829 233.18 122.03 233.843 122.409C234.521 122.789 235.041 123.312 235.403 123.979C235.766 124.646 235.936 125.427 235.916 126.323L235.868 128.38L228.646 128.212L228.62 129.303C228.6 130.157 228.829 130.842 229.307 131.357C229.786 131.858 230.431 132.118 231.243 132.137C231.942 132.154 232.519 132.034 232.973 131.778C233.442 131.509 233.73 131.145 233.839 130.685L235.729 130.729C235.58 131.692 235.093 132.451 234.268 133.006C233.443 133.547 232.422 133.803 231.204 133.775ZM228.68 126.742L234.054 126.867L234.068 126.28C234.089 125.37 233.868 124.664 233.403 124.163C232.953 123.649 232.301 123.381 231.447 123.362C230.594 123.342 229.923 123.578 229.435 124.071C228.962 124.55 228.715 125.244 228.694 126.154L228.68 126.742ZM242.559 133.83L238.903 122.191L240.939 122.239L243.277 130.065C243.42 130.531 243.543 130.982 243.645 131.418C243.747 131.841 243.823 132.172 243.873 132.411C243.949 132.175 244.041 131.848 244.148 131.43C244.257 130.999 244.386 130.553 244.537 130.095L247.237 122.386L249.232 122.432L245.036 133.888L242.559 133.83ZM251.872 134.047L251.912 132.326L256.006 132.421L256.195 124.317L252.521 124.232L252.562 122.51L258.125 122.64L257.896 132.465L261.78 132.556L261.74 134.277L251.872 134.047ZM257.019 120.534C256.557 120.524 256.196 120.396 255.936 120.152C255.675 119.908 255.55 119.583 255.559 119.177C255.569 118.757 255.71 118.431 255.981 118.2C256.253 117.954 256.62 117.836 257.082 117.847C257.544 117.858 257.905 117.992 258.165 118.251C258.425 118.495 258.55 118.827 258.54 119.247C258.531 119.653 258.39 119.971 258.119 120.203C257.848 120.435 257.481 120.545 257.019 120.534ZM269.137 134.66C267.738 134.627 266.627 134.209 265.806 133.406C264.984 132.603 264.59 131.515 264.622 130.143L264.695 126.994C264.727 125.623 265.172 124.555 266.03 123.791C266.888 123.026 268.017 122.661 269.417 122.693C270.746 122.724 271.809 123.106 272.604 123.839C273.413 124.572 273.824 125.555 273.837 126.788L271.948 126.744C271.923 126.001 271.685 125.428 271.232 125.025C270.779 124.609 270.161 124.391 269.378 124.373C268.552 124.354 267.881 124.576 267.366 125.04C266.866 125.491 266.605 126.15 266.585 127.017L266.511 130.188C266.491 131.055 266.72 131.733 267.199 132.22C267.692 132.708 268.351 132.961 269.177 132.981C269.96 132.999 270.588 132.81 271.059 132.415C271.531 132.02 271.796 131.459 271.855 130.732L273.744 130.777C273.674 132.007 273.217 132.97 272.375 133.664C271.546 134.359 270.467 134.691 269.137 134.66ZM281.558 134.95C280.2 134.918 279.111 134.487 278.29 133.655C277.484 132.81 277.097 131.667 277.131 130.225L277.195 127.496C277.228 126.055 277.667 124.937 278.512 124.145C279.371 123.339 280.48 122.952 281.837 122.983C282.747 123.004 283.533 123.205 284.197 123.584C284.874 123.964 285.394 124.488 285.757 125.154C286.119 125.821 286.29 126.602 286.269 127.498L286.221 129.555L278.999 129.387L278.973 130.478C278.954 131.332 279.183 132.017 279.661 132.532C280.139 133.033 280.784 133.293 281.596 133.312C282.296 133.329 282.873 133.209 283.327 132.954C283.795 132.685 284.084 132.32 284.193 131.861L286.082 131.905C285.934 132.868 285.447 133.626 284.622 134.181C283.797 134.722 282.776 134.978 281.558 134.95ZM279.033 127.917L284.408 128.043L284.422 127.455C284.443 126.545 284.221 125.84 283.757 125.339C283.307 124.824 282.655 124.557 281.801 124.537C280.947 124.517 280.276 124.753 279.789 125.246C279.316 125.725 279.068 126.42 279.047 127.329L279.033 127.917ZM293.685 135.191C292.398 135.161 291.404 134.851 290.703 134.26C290.017 133.656 289.687 132.822 289.711 131.758L291.601 131.802C291.588 132.334 291.768 132.759 292.138 133.075C292.509 133.378 293.038 133.537 293.724 133.553L294.647 133.575C295.347 133.591 295.89 133.45 296.275 133.151C296.674 132.852 296.88 132.423 296.893 131.863C296.916 130.869 296.474 130.299 295.567 130.152L292.387 129.615C291.606 129.485 291.005 129.149 290.583 128.607C290.162 128.051 289.962 127.332 289.982 126.45C290.006 125.443 290.367 124.66 291.066 124.102C291.78 123.544 292.745 123.28 293.963 123.308L294.886 123.33C296.006 123.356 296.909 123.657 297.596 124.233C298.297 124.796 298.665 125.526 298.7 126.423L296.79 126.378C296.771 125.972 296.583 125.631 296.226 125.357C295.882 125.083 295.423 124.939 294.849 124.925L293.925 124.904C293.282 124.889 292.774 125.024 292.404 125.309C292.033 125.595 291.842 125.989 291.83 126.493C291.811 127.305 292.171 127.776 292.91 127.905L295.882 128.394C297.834 128.72 298.787 129.891 298.74 131.906C298.715 132.984 298.339 133.815 297.611 134.4C296.897 134.972 295.897 135.243 294.609 135.213L293.685 135.191ZM306.735 135.538C306.217 135.526 305.8 135.362 305.486 135.046C305.185 134.731 305.04 134.329 305.052 133.839C305.064 133.321 305.228 132.905 305.543 132.59C305.872 132.276 306.296 132.124 306.814 132.137C307.332 132.149 307.741 132.319 308.041 132.648C308.356 132.978 308.507 133.401 308.495 133.919C308.483 134.409 308.313 134.804 307.984 135.105C307.669 135.405 307.252 135.55 306.735 135.538ZM321.007 135.661C319.986 135.637 319.174 135.324 318.572 134.722C317.984 134.106 317.701 133.308 317.724 132.328L317.966 121.978L313.977 121.885L314.017 120.163L319.896 120.301L319.614 132.372C319.603 132.848 319.727 133.229 319.986 133.515C320.246 133.787 320.6 133.929 321.048 133.939L324.617 134.022L324.576 135.744L321.007 135.661ZM331.911 136.125C330.554 136.094 329.464 135.662 328.644 134.831C327.837 133.986 327.451 132.842 327.484 131.401L327.548 128.671C327.582 127.23 328.021 126.113 328.866 125.32C329.725 124.514 330.833 124.127 332.191 124.158C333.1 124.18 333.887 124.38 334.55 124.76C335.228 125.14 335.748 125.663 336.11 126.33C336.473 126.996 336.643 127.777 336.623 128.673L336.574 130.731L329.352 130.562L329.327 131.654C329.307 132.507 329.536 133.192 330.014 133.707C330.493 134.209 331.138 134.469 331.95 134.488C332.649 134.504 333.226 134.384 333.68 134.129C334.149 133.86 334.437 133.495 334.546 133.036L336.436 133.08C336.287 134.043 335.8 134.802 334.975 135.356C334.15 135.897 333.129 136.154 331.911 136.125ZM329.387 129.092L334.761 129.218L334.775 128.63C334.796 127.72 334.575 127.015 334.11 126.514C333.66 125.999 333.008 125.732 332.154 125.712C331.301 125.692 330.63 125.929 330.142 126.421C329.669 126.9 329.422 127.595 329.4 128.505L329.387 129.092ZM340.138 136.107L340.407 124.56L342.297 124.604L342.245 126.809L342.266 126.809C342.382 126.042 342.711 125.454 343.253 125.047C343.794 124.639 344.506 124.446 345.388 124.467C346.55 124.494 347.465 124.872 348.134 125.602C348.803 126.332 349.123 127.312 349.095 128.544L348.913 136.312L347.024 136.268L347.197 128.836C347.218 127.954 347.01 127.277 346.573 126.805C346.15 126.319 345.561 126.067 344.805 126.049C344.021 126.031 343.392 126.261 342.919 126.741C342.46 127.22 342.22 127.908 342.199 128.803L342.027 136.151L340.138 136.107ZM354.087 140.214L354.127 138.492L357.381 138.568C358.039 138.584 358.561 138.407 358.948 138.038C359.334 137.683 359.535 137.19 359.549 136.56L359.574 135.511L359.66 133.622L359.597 133.621C359.469 134.304 359.128 134.828 358.573 135.193C358.019 135.544 357.329 135.71 356.503 135.691C355.313 135.663 354.384 135.263 353.716 134.492C353.048 133.72 352.729 132.676 352.76 131.36L352.817 128.925C352.847 127.609 353.215 126.575 353.918 125.821C354.622 125.067 355.569 124.704 356.759 124.732C357.584 124.751 358.266 124.963 358.802 125.368C359.339 125.772 359.655 126.319 359.751 127.007L359.793 127.008L359.84 125.014L361.708 125.057L361.439 136.604C361.412 137.766 361.026 138.674 360.283 139.329C359.553 139.998 358.565 140.318 357.32 140.289L354.087 140.214ZM357.106 134.13C357.89 134.148 358.512 133.917 358.971 133.438C359.43 132.958 359.67 132.285 359.69 131.417L359.742 129.213C359.762 128.345 359.554 127.661 359.118 127.161C358.681 126.66 358.071 126.401 357.287 126.383C356.489 126.364 355.861 126.58 355.403 127.032C354.958 127.484 354.726 128.101 354.708 128.885L354.647 131.509C354.629 132.293 354.831 132.921 355.254 133.393C355.691 133.865 356.309 134.111 357.106 134.13ZM370.836 136.824C369.884 136.801 369.128 136.511 368.567 135.951C368.006 135.378 367.736 134.63 367.758 133.706L367.916 126.925L364.599 126.847L364.639 125.126L367.956 125.203L368.032 121.949L369.922 121.993L369.846 125.247L374.57 125.358L374.529 127.079L369.806 126.969L369.647 133.75C369.638 134.142 369.743 134.467 369.961 134.724C370.193 134.967 370.498 135.093 370.876 135.102L374.235 135.181L374.195 136.902L370.836 136.824ZM377.903 136.989L378.261 121.663L380.15 121.707L380.01 127.69L380.031 127.691C380.147 126.923 380.476 126.336 381.018 125.928C381.559 125.521 382.271 125.327 383.153 125.348C384.315 125.375 385.23 125.754 385.899 126.483C386.568 127.213 386.889 128.194 386.86 129.426L386.679 137.193L384.789 137.149L384.963 129.696C384.983 128.829 384.775 128.159 384.338 127.686C383.915 127.2 383.326 126.948 382.57 126.931C381.786 126.912 381.158 127.143 380.684 127.622C380.225 128.101 379.985 128.789 379.964 129.685L379.792 137.033L377.903 136.989ZM390.915 139.813L390.958 137.986C391.873 137.798 392.666 137.417 393.337 136.845C394.009 136.272 394.53 135.549 394.9 134.676C395.285 133.802 395.49 132.82 395.515 131.728L395.603 127.949C395.629 126.843 395.47 125.852 395.127 124.976C394.797 124.086 394.311 123.34 393.667 122.737C393.022 122.133 392.248 121.716 391.343 121.485L391.386 119.658C393.377 120.153 394.901 121.127 395.96 122.58C397.032 124.033 397.543 125.838 397.493 127.993L397.405 131.772C397.354 133.928 396.76 135.706 395.621 137.108C394.496 138.51 392.927 139.412 390.915 139.813ZM418.246 138.119C417.014 138.091 416.05 137.711 415.353 136.98C414.656 136.236 414.322 135.248 414.351 134.016L414.379 132.82C414.405 131.7 414.74 130.811 415.386 130.154C416.031 129.497 416.887 129.153 417.952 129.122L417.382 128.352C416.649 127.341 416.292 126.45 416.31 125.681C416.333 124.687 416.687 123.89 417.374 123.29C418.06 122.69 418.942 122.402 420.02 122.427C420.789 122.445 421.457 122.629 422.023 122.978C422.603 123.328 423.047 123.807 423.355 124.417C423.677 125.012 423.829 125.709 423.81 126.507L421.963 126.464C421.979 125.764 421.803 125.193 421.436 124.75C421.082 124.294 420.598 124.058 419.982 124.044C419.464 124.032 419.033 124.183 418.69 124.497C418.36 124.811 418.19 125.234 418.177 125.766C418.164 126.312 418.355 126.849 418.749 127.376L422.719 132.762L424.685 130.413L426.785 130.462L423.696 134.087L426.648 138.126L424.57 138.078L422.596 135.343L421.667 136.456C421.177 137.032 420.635 137.461 420.04 137.741C419.46 138.008 418.862 138.134 418.246 138.119ZM418.412 136.422C419.209 136.44 419.896 136.099 420.473 135.398L421.597 134.038L419.051 130.618L418.421 130.603C417.763 130.588 417.234 130.786 416.832 131.196C416.445 131.593 416.243 132.149 416.226 132.863L416.198 134.059C416.181 134.773 416.371 135.345 416.767 135.774C417.178 136.19 417.726 136.406 418.412 136.422ZM430.834 138.413C429.603 138.384 428.638 138.005 427.941 137.274C427.244 136.53 426.91 135.542 426.939 134.31L426.967 133.113C426.993 131.994 427.329 131.105 427.974 130.448C428.62 129.791 429.475 129.447 430.54 129.416L429.97 128.646C429.237 127.635 428.88 126.744 428.898 125.974C428.921 124.981 429.276 124.184 429.962 123.584C430.648 122.984 431.53 122.696 432.608 122.721C433.378 122.739 434.046 122.923 434.612 123.272C435.192 123.622 435.636 124.101 435.943 124.711C436.266 125.306 436.417 126.003 436.399 126.801L434.551 126.758C434.568 126.058 434.392 125.487 434.024 125.044C433.671 124.587 433.186 124.352 432.57 124.338C432.052 124.326 431.622 124.477 431.278 124.791C430.949 125.105 430.778 125.528 430.765 126.06C430.753 126.606 430.943 127.143 431.337 127.67L435.307 133.056L437.274 130.707L439.373 130.756L436.285 134.381L439.236 138.42L437.158 138.372L435.184 135.637L434.255 136.749C433.765 137.326 433.223 137.755 432.629 138.035C432.048 138.301 431.45 138.427 430.834 138.413ZM431 136.715C431.798 136.734 432.485 136.393 433.061 135.692L434.185 134.332L431.64 130.912L431.01 130.897C430.352 130.882 429.822 131.079 429.42 131.49C429.033 131.887 428.831 132.443 428.814 133.156L428.786 134.353C428.77 135.067 428.959 135.639 429.356 136.068C429.766 136.484 430.314 136.699 431 136.715ZM461.625 141.463C459.634 140.969 458.102 139.995 457.03 138.541C455.972 137.088 455.468 135.284 455.518 133.129L455.606 129.35C455.656 127.194 456.244 125.415 457.369 124.013C458.508 122.611 460.084 121.71 462.095 121.309L462.053 123.135C461.152 123.324 460.359 123.705 459.674 124.277C459.002 124.85 458.474 125.572 458.09 126.446C457.719 127.305 457.521 128.288 457.496 129.394L457.407 133.173C457.382 134.264 457.534 135.255 457.863 136.145C458.206 137.035 458.7 137.782 459.344 138.385C460.002 138.989 460.777 139.406 461.668 139.637L461.625 141.463Z" fill="#FFA659"/>
</svg>
