<svg width="919" height="298" viewBox="0 0 919 298" fill="none" xmlns="http://www.w3.org/2000/svg">
<rect y="0.191406" width="919" height="297" rx="15" fill="#F2F2F2"/>
<mask id="mask0_689_1695" style="mask-type:alpha" maskUnits="userSpaceOnUse" x="0" y="0" width="919" height="298">
<rect y="0.191406" width="919" height="297" rx="15" fill="#F2F2F2"/>
</mask>
<g mask="url(#mask0_689_1695)">
<path fill-rule="evenodd" clip-rule="evenodd" d="M993.998 116.851H-447.549V116.042H993.998V116.851ZM993.998 187.996H-447.549V187.565H993.998V187.996ZM993.998 152.329H-447.549V151.898H993.998V152.329ZM993.998 223.664H-447.549V223.233H993.998V223.664ZM993.998 259.52H-447.549V258.711H993.998V259.52ZM993.998 -203.586H-447.549V-204.017H993.998V-203.586ZM993.998 -132.251H-447.549V-132.682H993.998V-132.251ZM993.998 -167.729H-447.549V-168.538H993.998V-167.729ZM993.998 9.65953H-447.549V9.22816H993.998V9.65953ZM993.998 80.9943H-447.549V80.5629H993.998V80.9943ZM993.998 45.327H-447.549V44.8956H993.998V45.327ZM993.998 -96.5836H-447.549V-97.015H993.998V-96.5836ZM993.998 -25.0602H-447.549V-25.869H993.998V-25.0602ZM993.998 331.426H-447.549V330.992H993.998V331.426ZM993.998 402.947H-447.549V402.14H993.998V402.947ZM993.998 366.333H-447.549V365.902H993.998V366.333ZM993.998 437.668H-447.549V437.237H993.998V437.668ZM993.998 473.337H-447.549V472.903H993.998V473.337ZM993.998 294.999H-447.549V294.567H993.998V294.999ZM993.998 -61.6749H-447.549V-62.1063H993.998V-61.6749ZM993.998 545.618H-447.549V544.809H993.998V545.618ZM993.998 616.764H-447.549V616.332H993.998V616.764ZM993.998 581.096H-447.549V580.665H993.998V581.096ZM993.998 652.431H-447.549V651.999H993.998V652.431ZM993.998 688.287H-447.549V687.478H993.998V688.287ZM993.998 509.762H-447.549V509.33H993.998V509.762ZM993.998 760.193H-447.549V759.759H993.998V760.193ZM993.998 831.714H-447.549V830.907H993.998V831.714ZM993.998 904.834H-447.549V904.4H993.998V904.834ZM993.998 976.356H-447.549V975.549H993.998V976.356ZM993.998 939.742H-447.549V939.31H993.998V939.742ZM993.998 1011.08H-447.549V1010.64H993.998V1011.08ZM993.998 1046.75H-447.549V1046.31H993.998V1046.75ZM993.998 868.407H-447.549V867.976H993.998V868.407ZM993.998 1119.03H-447.549V1118.22H993.998V1119.03ZM993.998 1190.17H-447.549V1189.74H993.998V1190.17ZM993.998 1154.5H-447.549V1154.07H993.998V1154.5ZM993.998 1225.84H-447.549V1225.41H993.998V1225.84ZM993.998 1261.7H-447.549V1260.89H993.998V1261.7ZM993.998 1083.17H-447.549V1082.74H993.998V1083.17ZM993.998 1333.6H-447.549V1333.17H993.998V1333.6ZM993.998 1405.12H-447.549V1404.32H993.998V1405.12ZM989.978 1477.83H-451.569V1477.4H989.978V1477.83ZM989.978 1549.36H-451.569V1548.55H989.978V1549.36ZM989.978 1512.74H-451.569V1512.31H989.978V1512.74ZM989.978 1584.08H-451.569V1583.64H989.978V1584.08ZM989.978 1619.75H-451.569V1619.31H989.978V1619.75ZM989.978 1441.41H-451.569V1440.98H989.978V1441.41ZM989.978 1692.03H-451.569V1691.22H989.978V1692.03ZM989.978 1763.17H-451.569V1762.74H989.978V1763.17ZM989.978 1727.5H-451.569V1727.07H989.978V1727.5ZM989.978 1798.84H-451.569V1798.41H989.978V1798.84ZM989.978 1834.7H-451.569V1833.89H989.978V1834.7ZM989.978 1656.17H-451.569V1655.74H989.978V1656.17ZM989.978 1906.6H-451.569V1906.17H989.978V1906.6ZM989.978 1978.12H-451.569V1977.32H989.978V1978.12ZM989.978 1941.51H-451.569V1941.08H989.978V1941.51ZM989.978 1870.17H-451.569V1869.74H989.978V1870.17ZM993.998 1368.51H-447.549V1368.08H993.998V1368.51ZM993.998 1297.17H-447.549V1296.74H993.998V1297.17ZM993.998 795.1H-447.549V794.669H993.998V795.1ZM993.998 723.766H-447.549V723.334H993.998V723.766ZM-133.248 -225.809V1814.19H-133.679V-225.809H-133.248ZM-61.7747 -225.809V1814.19H-62.2061V-225.809H-61.7747ZM-97.0078 -225.809V1814.19H-97.4392V-225.809H-97.0078ZM82.1782 -225.809V1814.19H81.7468V-225.809H82.1782ZM153.651 -225.809V1814.19H153.22V-225.809H153.651ZM117.6 -225.809V1814.19H116.791V-225.809H117.6ZM-25.3461 -225.809V1814.19H-26.1549V-225.809H-25.3461ZM45.9382 -225.809V1814.19H45.5068V-225.809H45.9382ZM10.7051 -225.809V1814.19H10.2737V-225.809H10.7051ZM-455.191 -225.809V1814.19H-456V-225.809H-455.191ZM-383.907 -225.809V1814.19H-384.338V-225.809H-383.907ZM-420.147 -225.809V1814.19H-420.578V-225.809H-420.147ZM-240.961 -225.809V1814.19H-241.392V-225.809H-240.961ZM-169.299 -225.809V1814.19H-170.108V-225.809H-169.299ZM-204.721 -225.809V1814.19H-205.152V-225.809H-204.721ZM-347.667 -225.809V1814.19H-348.098V-225.809H-347.667ZM-276.194 -225.809V1814.19H-276.625V-225.809H-276.194ZM-312.245 -225.809V1814.19H-313.054V-225.809H-312.245ZM187.878 -225.809V1814.19H187.446V-225.809H187.878ZM260.546 -225.809V1814.19H259.737V-225.809H260.546ZM225.124 -225.809V1814.19H224.693V-225.809H225.124ZM295.591 -225.809V1814.19H295.159V-225.809H295.591ZM331.831 -225.809V1814.19H331.399V-225.809H331.831ZM367.064 -225.809V1814.19H366.632V-225.809H367.064ZM438.537 -225.809V1814.19H438.105V-225.809H438.537ZM402.486 -225.809V1814.19H401.677V-225.809H402.486ZM472.763 -225.809V1814.19H472.332V-225.809H472.763ZM545.432 -225.809V1814.19H544.623V-225.809H545.432ZM509.003 -225.809V1814.19H508.572V-225.809H509.003ZM580.476 -225.809V1814.19H580.045V-225.809H580.476ZM616.716 -225.809V1814.19H616.285V-225.809H616.716ZM652.956 -225.809V1814.19H652.525V-225.809H652.956ZM724.429 -225.809V1814.19H723.998V-225.809H724.429ZM688.378 -225.809V1814.19H687.569V-225.809H688.378ZM758.656 -225.809V1814.19H758.224V-225.809H758.656ZM831.324 -225.809V1814.19H830.515V-225.809H831.324ZM795.902 -225.809V1814.19H795.471V-225.809H795.902ZM866.368 -225.809V1814.19H865.937V-225.809H866.368ZM902.608 -225.809V1814.19H902.177V-225.809H902.608ZM937.841 -225.809V1814.19H937.41V-225.809H937.841ZM973.263 -225.809V1814.19H972.455V-225.809H973.263Z" fill="#E2E2E2"/>
</g>
<g opacity="0.3" filter="url(#filter0_f_689_1695)">
<path d="M165.309 107.186L267.496 106C267.448 153.18 268.275 176.098 270.027 212.799C231.785 215.55 209.745 216.833 166.111 215.783C167.434 175.281 167.582 150.973 165.309 107.186Z" fill="#100F0F"/>
</g>
<g filter="url(#filter1_d_689_1695)">
<path d="M154.625 82.1914L281.436 83.1449C280.238 139.349 280.712 166.671 282 210.433C234.487 212.823 207.111 213.842 153 211.581C155.618 163.361 156.389 134.406 154.625 82.1914Z" fill="#B3C4FF"/>
</g>
<path d="M197.642 138.401C196.657 138.401 195.822 138.182 195.136 137.743C194.45 137.3 193.932 136.684 193.582 135.895C193.232 135.107 193.057 134.192 193.057 133.151C193.057 132.111 193.232 131.196 193.582 130.407C193.932 129.619 194.45 129.005 195.136 128.566C195.822 128.123 196.657 127.901 197.642 127.901C198.785 127.901 199.725 128.198 200.463 128.79C201.205 129.383 201.711 130.202 201.982 131.247L201.149 131.45C200.925 130.582 200.514 129.906 199.917 129.42C199.324 128.935 198.566 128.692 197.642 128.692C196.825 128.692 196.139 128.884 195.584 129.266C195.028 129.644 194.611 130.176 194.331 130.862C194.055 131.544 193.918 132.335 193.918 133.235C193.918 134.108 194.06 134.873 194.345 135.531C194.629 136.185 195.049 136.696 195.605 137.064C196.165 137.428 196.844 137.61 197.642 137.61C198.566 137.61 199.324 137.368 199.917 136.882C200.514 136.397 200.925 135.72 201.149 134.852L201.982 135.055C201.711 136.101 201.205 136.92 200.463 137.512C199.725 138.105 198.785 138.401 197.642 138.401ZM204.32 138.191H203.515V130.631H209.339V138.191H208.534V131.415H204.32V138.191ZM214.682 130.421C215.35 130.421 215.928 130.594 216.418 130.939C216.908 131.285 217.282 131.761 217.538 132.367C217.8 132.969 217.93 133.646 217.93 134.397C217.93 135.163 217.8 135.849 217.538 136.455C217.277 137.057 216.897 137.533 216.397 137.883C215.898 138.229 215.301 138.401 214.605 138.401C214.059 138.401 213.574 138.282 213.149 138.044C212.725 137.802 212.375 137.463 212.099 137.029V141.551H211.294V130.631H212.029V131.891C212.305 131.425 212.666 131.063 213.114 130.806C213.562 130.55 214.085 130.421 214.682 130.421ZM214.556 137.631C215.098 137.631 215.555 137.491 215.928 137.211C216.306 136.931 216.591 136.549 216.782 136.063C216.974 135.573 217.069 135.018 217.069 134.397C217.069 133.777 216.976 133.226 216.789 132.745C216.603 132.26 216.32 131.88 215.942 131.604C215.564 131.329 215.098 131.191 214.542 131.191C214.001 131.191 213.541 131.327 213.163 131.597C212.785 131.868 212.501 132.246 212.309 132.731C212.123 133.212 212.029 133.767 212.029 134.397C212.029 135.027 212.123 135.587 212.309 136.077C212.501 136.563 212.785 136.943 213.163 137.218C213.541 137.494 214.006 137.631 214.556 137.631ZM224.587 130.631H225.294V138.191H224.503V131.982L220.177 138.191H219.47V130.631H220.261V136.812L224.587 130.631ZM228.055 138.191H227.25V130.631H228.055V134.019H232.612V130.631H233.417V138.191H232.612V134.803H228.055V138.191ZM238.283 138.191H237.478V131.401H234.741V130.631H241.02V131.401H238.283V138.191ZM196.372 152.286C196.097 152.426 195.768 152.543 195.385 152.636C195.003 152.73 194.606 152.776 194.195 152.776C193.435 152.776 192.812 152.608 192.326 152.272C191.846 151.932 191.533 151.444 191.388 150.809C191.3 150.417 191.255 149.895 191.255 149.241V147.631H192.067V149.241C192.067 149.694 192.093 150.065 192.144 150.354C192.336 151.493 193.068 152.062 194.342 152.062C194.725 152.062 195.096 152.013 195.455 151.915C195.819 151.817 196.125 151.682 196.372 151.509V147.631H197.184V155.191H196.372V152.286ZM199.588 151.642C199.625 152.59 199.873 153.322 200.33 153.84C200.792 154.358 201.429 154.617 202.241 154.617C202.82 154.617 203.328 154.482 203.767 154.211C204.206 153.941 204.553 153.549 204.81 153.035L205.538 153.357C205.235 154.006 204.796 154.51 204.222 154.869C203.648 155.224 202.992 155.401 202.255 155.401C201.536 155.401 200.911 155.24 200.379 154.918C199.847 154.592 199.436 154.13 199.147 153.532C198.862 152.935 198.72 152.233 198.72 151.425C198.72 150.604 198.862 149.892 199.147 149.29C199.432 148.688 199.838 148.226 200.365 147.904C200.897 147.582 201.522 147.421 202.241 147.421C202.974 147.421 203.601 147.589 204.124 147.925C204.647 148.257 205.041 148.74 205.307 149.374C205.578 150.009 205.708 150.765 205.699 151.642H199.588ZM202.255 148.184C201.476 148.184 200.857 148.422 200.4 148.898C199.943 149.37 199.677 150.042 199.602 150.914H204.831C204.752 150.023 204.493 149.346 204.054 148.884C203.615 148.418 203.016 148.184 202.255 148.184ZM210.105 155.191H209.3V148.401H206.563V147.631H212.842V148.401H210.105V155.191ZM214.166 155.191V147.631H217.169C217.64 147.631 218.041 147.676 218.373 147.764C218.811 147.881 219.157 148.114 219.409 148.464C219.661 148.814 219.787 149.227 219.787 149.703C219.787 150.203 219.642 150.623 219.353 150.963C219.231 151.113 219.075 151.234 218.884 151.327C219.014 151.355 219.173 151.428 219.36 151.544C219.626 151.712 219.824 151.934 219.955 152.209C220.09 152.48 220.158 152.797 220.158 153.161C220.158 153.665 220.036 154.083 219.794 154.414C219.551 154.741 219.224 154.96 218.814 155.072C218.641 155.124 218.457 155.156 218.261 155.17C218.069 155.184 217.855 155.191 217.617 155.191H214.166ZM217.33 151.047C217.46 151.047 217.6 151.038 217.75 151.019C217.904 151.001 218.034 150.973 218.142 150.935C218.398 150.847 218.594 150.693 218.73 150.473C218.87 150.249 218.94 150 218.94 149.724C218.94 149.43 218.867 149.174 218.723 148.954C218.583 148.735 218.382 148.581 218.121 148.492C217.869 148.408 217.547 148.366 217.155 148.366H214.978V151.047H217.33ZM217.596 154.463C217.698 154.463 217.829 154.456 217.988 154.442C218.146 154.424 218.284 154.4 218.401 154.372C218.699 154.302 218.923 154.155 219.073 153.931C219.227 153.707 219.304 153.446 219.304 153.147C219.304 152.783 219.194 152.485 218.975 152.251C218.755 152.013 218.457 151.869 218.079 151.817C217.934 151.794 217.71 151.782 217.407 151.782H214.978V154.463H217.596ZM222.01 151.642C222.047 152.59 222.295 153.322 222.752 153.84C223.214 154.358 223.851 154.617 224.663 154.617C225.242 154.617 225.75 154.482 226.189 154.211C226.628 153.941 226.975 153.549 227.232 153.035L227.96 153.357C227.657 154.006 227.218 154.51 226.644 154.869C226.07 155.224 225.414 155.401 224.677 155.401C223.958 155.401 223.333 155.24 222.801 154.918C222.269 154.592 221.858 154.13 221.569 153.532C221.284 152.935 221.142 152.233 221.142 151.425C221.142 150.604 221.284 149.892 221.569 149.29C221.854 148.688 222.26 148.226 222.787 147.904C223.319 147.582 223.944 147.421 224.663 147.421C225.396 147.421 226.023 147.589 226.546 147.925C227.069 148.257 227.463 148.74 227.729 149.374C228 150.009 228.13 150.765 228.121 151.642H222.01ZM224.677 148.184C223.898 148.184 223.279 148.422 222.822 148.898C222.365 149.37 222.099 150.042 222.024 150.914H227.253C227.174 150.023 226.915 149.346 226.476 148.884C226.037 148.418 225.438 148.184 224.677 148.184ZM233.057 147.421C233.725 147.421 234.303 147.594 234.793 147.939C235.283 148.285 235.657 148.761 235.913 149.367C236.175 149.969 236.305 150.646 236.305 151.397C236.305 152.163 236.175 152.849 235.913 153.455C235.652 154.057 235.272 154.533 234.772 154.883C234.273 155.229 233.676 155.401 232.98 155.401C232.434 155.401 231.949 155.282 231.524 155.044C231.1 154.802 230.75 154.463 230.474 154.029V158.551H229.669V147.631H230.404V148.891C230.68 148.425 231.041 148.063 231.489 147.806C231.937 147.55 232.46 147.421 233.057 147.421ZM232.931 154.631C233.473 154.631 233.93 154.491 234.303 154.211C234.681 153.931 234.966 153.549 235.157 153.063C235.349 152.573 235.444 152.018 235.444 151.397C235.444 150.777 235.351 150.226 235.164 149.745C234.978 149.26 234.695 148.88 234.317 148.604C233.939 148.329 233.473 148.191 232.917 148.191C232.376 148.191 231.916 148.327 231.538 148.597C231.16 148.868 230.876 149.246 230.684 149.731C230.498 150.212 230.404 150.767 230.404 151.397C230.404 152.027 230.498 152.587 230.684 153.077C230.876 153.563 231.16 153.943 231.538 154.218C231.916 154.494 232.381 154.631 232.931 154.631ZM238.65 155.191H237.845V147.631H242.955V148.415H238.65V155.191ZM203.904 172.191H203.092V163.028L201.188 164.169V163.245L203.092 162.111H203.904V172.191ZM211.898 172.191H211.086V170.147H206.284V169.356L209.707 162.111H210.61L207.187 169.356H211.086V166.311H211.898V169.356H213.053V170.147H211.898V172.191ZM215.797 171.064C215.624 171.064 215.477 171.006 215.356 170.889C215.239 170.768 215.181 170.621 215.181 170.448C215.181 170.276 215.239 170.131 215.356 170.014C215.477 169.893 215.624 169.832 215.797 169.832C215.97 169.832 216.114 169.893 216.231 170.014C216.352 170.131 216.413 170.276 216.413 170.448C216.413 170.621 216.352 170.768 216.231 170.889C216.114 171.006 215.97 171.064 215.797 171.064ZM215.797 166.899C215.624 166.899 215.477 166.841 215.356 166.724C215.239 166.603 215.181 166.456 215.181 166.283C215.181 166.111 215.239 165.966 215.356 165.849C215.477 165.728 215.624 165.667 215.797 165.667C215.97 165.667 216.114 165.728 216.231 165.849C216.352 165.966 216.413 166.111 216.413 166.283C216.413 166.456 216.352 166.603 216.231 166.724C216.114 166.841 215.97 166.899 215.797 166.899ZM221.218 165.947C221.274 165.943 221.358 165.94 221.47 165.94C222.062 165.94 222.587 166.076 223.045 166.346C223.502 166.612 223.857 166.988 224.109 167.473C224.365 167.959 224.494 168.514 224.494 169.139C224.494 169.783 224.361 170.353 224.095 170.847C223.829 171.337 223.458 171.718 222.982 171.988C222.506 172.259 221.962 172.394 221.351 172.394C220.609 172.394 219.965 172.205 219.419 171.827C218.873 171.449 218.495 170.927 218.285 170.259L219.048 170.014C219.225 170.532 219.512 170.929 219.909 171.204C220.305 171.475 220.765 171.61 221.288 171.61C221.782 171.61 222.205 171.51 222.555 171.309C222.909 171.104 223.18 170.817 223.367 170.448C223.553 170.075 223.647 169.639 223.647 169.139C223.647 168.645 223.551 168.213 223.36 167.844C223.168 167.471 222.895 167.184 222.541 166.983C222.191 166.783 221.782 166.682 221.316 166.682C221.124 166.682 220.921 166.71 220.707 166.766C220.492 166.818 220.291 166.888 220.105 166.976L219.671 166.332L223.297 162.902H218.691V162.111H224.396V162.909L221.218 165.947ZM229.498 172.401C228.915 172.401 228.38 172.261 227.895 171.981C227.41 171.697 227.025 171.312 226.74 170.826C226.46 170.341 226.32 169.807 226.32 169.223V165.079C226.32 164.496 226.46 163.962 226.74 163.476C227.025 162.991 227.41 162.608 227.895 162.328C228.38 162.044 228.915 161.901 229.498 161.901C230.081 161.901 230.616 162.044 231.101 162.328C231.586 162.608 231.969 162.991 232.249 163.476C232.534 163.962 232.676 164.496 232.676 165.079V169.223C232.676 169.807 232.534 170.341 232.249 170.826C231.969 171.312 231.586 171.697 231.101 171.981C230.616 172.261 230.081 172.401 229.498 172.401ZM229.498 171.61C229.923 171.61 230.317 171.505 230.681 171.295C231.045 171.081 231.332 170.791 231.542 170.427C231.757 170.063 231.864 169.669 231.864 169.244V165.051C231.864 164.627 231.757 164.235 231.542 163.875C231.332 163.511 231.045 163.224 230.681 163.014C230.317 162.8 229.923 162.692 229.498 162.692C229.073 162.692 228.679 162.8 228.315 163.014C227.951 163.224 227.662 163.511 227.447 163.875C227.237 164.235 227.132 164.627 227.132 165.051V169.244C227.132 169.669 227.237 170.063 227.447 170.427C227.662 170.791 227.951 171.081 228.315 171.295C228.679 171.505 229.073 171.61 229.498 171.61Z" fill="#100F0F"/>
<g opacity="0.3" filter="url(#filter2_f_689_1695)">
<path d="M326.309 107.186L428.496 106C428.448 153.18 429.275 176.098 431.027 212.799C392.785 215.55 370.745 216.833 327.111 215.783C328.434 175.281 328.582 150.973 326.309 107.186Z" fill="#100F0F"/>
</g>
<g filter="url(#filter3_d_689_1695)">
<path d="M315.625 82.1914L442.436 83.1449C441.238 139.349 441.712 166.671 443 210.433C395.487 212.823 368.111 213.842 314 211.581C316.618 163.361 317.389 134.406 315.625 82.1914Z" fill="#CBA4F3"/>
</g>
<path d="M352.533 147.191H351.728V140.401H348.991V139.631H355.27V140.401H352.533V147.191ZM361.01 143.25C361.36 143.4 361.624 143.647 361.801 143.992C361.983 144.338 362.074 144.711 362.074 145.112C362.074 145.565 361.955 145.966 361.717 146.316C361.479 146.662 361.15 146.93 360.73 147.121C360.315 147.308 359.846 147.401 359.323 147.401C358.558 147.401 357.895 147.233 357.335 146.897C356.775 146.557 356.334 146.074 356.012 145.448L356.67 145.049C356.946 145.563 357.3 145.952 357.734 146.218C358.173 146.484 358.679 146.617 359.253 146.617C359.65 146.617 359.998 146.554 360.296 146.428C360.6 146.302 360.833 146.12 360.996 145.882C361.164 145.64 361.248 145.355 361.248 145.028C361.248 144.548 361.092 144.198 360.779 143.978C360.467 143.754 359.958 143.642 359.253 143.642H358.245V142.921H359.246C359.811 142.921 360.254 142.809 360.576 142.585C360.903 142.361 361.066 142.039 361.066 141.619C361.066 141.311 360.987 141.052 360.828 140.842C360.67 140.628 360.455 140.469 360.184 140.366C359.914 140.259 359.61 140.205 359.274 140.205C358.808 140.205 358.367 140.301 357.951 140.492C357.536 140.684 357.193 140.94 356.922 141.262L356.362 140.716C356.722 140.287 357.151 139.965 357.65 139.75C358.154 139.531 358.719 139.421 359.344 139.421C359.83 139.421 360.266 139.51 360.653 139.687C361.041 139.86 361.344 140.11 361.563 140.436C361.783 140.758 361.892 141.139 361.892 141.577C361.892 142.296 361.598 142.854 361.01 143.25ZM370.448 147.401C369.464 147.401 368.628 147.182 367.942 146.743C367.256 146.3 366.738 145.684 366.388 144.895C366.038 144.107 365.863 143.192 365.863 142.151C365.863 141.111 366.038 140.196 366.388 139.407C366.738 138.619 367.256 138.005 367.942 137.566C368.628 137.123 369.464 136.901 370.448 136.901C371.592 136.901 372.532 137.198 373.269 137.79C374.011 138.383 374.518 139.202 374.788 140.247L373.955 140.45C373.731 139.582 373.321 138.906 372.723 138.42C372.131 137.935 371.372 137.692 370.448 137.692C369.632 137.692 368.946 137.884 368.39 138.266C367.835 138.644 367.417 139.176 367.137 139.862C366.862 140.544 366.724 141.335 366.724 142.235C366.724 143.108 366.867 143.873 367.151 144.531C367.436 145.185 367.856 145.696 368.411 146.064C368.971 146.428 369.65 146.61 370.448 146.61C371.372 146.61 372.131 146.368 372.723 145.882C373.321 145.397 373.731 144.72 373.955 143.852L374.788 144.055C374.518 145.101 374.011 145.92 373.269 146.512C372.532 147.105 371.592 147.401 370.448 147.401ZM379.423 147.401C378.69 147.401 378.058 147.233 377.526 146.897C376.998 146.561 376.595 146.092 376.315 145.49C376.039 144.884 375.902 144.186 375.902 143.397C375.902 142.609 376.042 141.916 376.322 141.318C376.606 140.716 377.012 140.25 377.54 139.918C378.072 139.587 378.699 139.421 379.423 139.421C380.16 139.421 380.792 139.589 381.32 139.925C381.852 140.257 382.255 140.723 382.531 141.325C382.806 141.923 382.944 142.613 382.944 143.397C382.944 144.195 382.804 144.895 382.524 145.497C382.248 146.099 381.845 146.568 381.313 146.904C380.785 147.236 380.155 147.401 379.423 147.401ZM379.423 146.617C380.006 146.617 380.496 146.484 380.893 146.218C381.289 145.948 381.586 145.572 381.782 145.091C381.982 144.611 382.083 144.046 382.083 143.397C382.083 142.403 381.856 141.624 381.404 141.059C380.951 140.49 380.291 140.205 379.423 140.205C378.835 140.205 378.342 140.338 377.946 140.604C377.549 140.87 377.253 141.244 377.057 141.724C376.861 142.2 376.763 142.758 376.763 143.397C376.763 144.051 376.863 144.62 377.064 145.105C377.269 145.586 377.57 145.959 377.967 146.225C378.363 146.487 378.849 146.617 379.423 146.617ZM388.082 147.338C387.886 147.371 387.678 147.387 387.459 147.387C386.815 147.387 386.236 147.229 385.723 146.911C385.21 146.594 384.804 146.137 384.505 145.539C384.211 144.942 384.064 144.237 384.064 143.425C384.064 142.609 384.211 141.899 384.505 141.297C384.804 140.695 385.21 140.236 385.723 139.918C386.241 139.596 386.822 139.435 387.466 139.435C387.681 139.435 387.886 139.452 388.082 139.484V137.146H388.852V139.484C389.048 139.452 389.253 139.435 389.468 139.435C390.112 139.435 390.691 139.596 391.204 139.918C391.722 140.236 392.128 140.695 392.422 141.297C392.721 141.899 392.87 142.609 392.87 143.425C392.87 144.237 392.721 144.942 392.422 145.539C392.128 146.137 391.724 146.594 391.211 146.911C390.698 147.229 390.119 147.387 389.475 147.387C389.256 147.387 389.048 147.371 388.852 147.338V150.341H388.082V147.338ZM388.082 140.254C387.919 140.226 387.755 140.212 387.592 140.212C387.116 140.212 386.675 140.329 386.269 140.562C385.863 140.791 385.534 141.146 385.282 141.626C385.035 142.107 384.911 142.707 384.911 143.425C384.911 144.135 385.035 144.73 385.282 145.21C385.534 145.686 385.863 146.039 386.269 146.267C386.675 146.496 387.116 146.61 387.592 146.61C387.76 146.61 387.923 146.596 388.082 146.568V140.254ZM388.852 146.568C389.015 146.596 389.181 146.61 389.349 146.61C389.82 146.61 390.259 146.498 390.665 146.274C391.071 146.046 391.398 145.693 391.645 145.217C391.897 144.737 392.023 144.139 392.023 143.425C392.023 142.707 391.897 142.107 391.645 141.626C391.398 141.146 391.071 140.791 390.665 140.562C390.259 140.329 389.818 140.212 389.342 140.212C389.174 140.212 389.011 140.226 388.852 140.254V146.568ZM394.417 147.191L394.41 139.631H395.229V142.585H397.133C397.641 142.585 398.029 142.611 398.295 142.662C398.873 142.765 399.335 142.994 399.681 143.348C400.026 143.703 400.199 144.216 400.199 144.888C400.199 145.5 400.04 145.994 399.723 146.372C399.405 146.746 398.995 146.986 398.491 147.093C398.192 147.159 397.779 147.191 397.252 147.191H394.417ZM397.147 146.456C397.399 146.456 397.618 146.452 397.805 146.442C397.996 146.433 398.162 146.407 398.302 146.365C398.61 146.281 398.862 146.123 399.058 145.889C399.254 145.656 399.352 145.322 399.352 144.888C399.352 144.445 399.251 144.107 399.051 143.873C398.855 143.64 398.57 143.484 398.197 143.404C397.935 143.348 397.585 143.32 397.147 143.32H395.229V146.456H397.147ZM407.373 147.191H406.554V144.237H404.643C404.554 144.237 404.426 144.233 404.258 144.223L402.235 147.191H401.318L403.397 144.111C402.86 144.004 402.424 143.768 402.088 143.404C401.752 143.04 401.584 142.56 401.584 141.962C401.584 141.566 401.658 141.216 401.808 140.912C401.962 140.604 402.167 140.355 402.424 140.163C402.68 139.967 402.967 139.827 403.285 139.743C403.476 139.692 403.67 139.662 403.866 139.652C404.062 139.638 404.283 139.631 404.531 139.631H407.359L407.373 147.191ZM406.554 143.502V140.366H404.636C404.127 140.366 403.744 140.406 403.488 140.485C403.198 140.569 402.949 140.735 402.739 140.982C402.533 141.225 402.431 141.547 402.431 141.948C402.431 142.34 402.536 142.66 402.746 142.907C402.956 143.15 403.238 143.316 403.593 143.404C403.859 143.47 404.206 143.502 404.636 143.502H406.554ZM342.261 157.156C342.471 156.96 342.727 156.811 343.031 156.708C343.339 156.606 343.644 156.554 343.948 156.554C344.158 156.554 344.354 156.58 344.536 156.631V157.394C344.326 157.348 344.127 157.324 343.941 157.324C343.437 157.324 343.003 157.478 342.639 157.786C342.396 157.996 342.214 158.246 342.093 158.535C341.971 158.82 341.892 159.114 341.855 159.417C341.822 159.721 341.806 160.064 341.806 160.446V164.191H340.994V156.631H341.729V157.821C341.883 157.551 342.06 157.329 342.261 157.156ZM346.172 160.642C346.209 161.59 346.457 162.322 346.914 162.84C347.376 163.358 348.013 163.617 348.825 163.617C349.404 163.617 349.912 163.482 350.351 163.211C350.79 162.941 351.137 162.549 351.394 162.035L352.122 162.357C351.819 163.006 351.38 163.51 350.806 163.869C350.232 164.224 349.576 164.401 348.839 164.401C348.12 164.401 347.495 164.24 346.963 163.918C346.431 163.592 346.02 163.13 345.731 162.532C345.446 161.935 345.304 161.233 345.304 160.425C345.304 159.604 345.446 158.892 345.731 158.29C346.016 157.688 346.422 157.226 346.949 156.904C347.481 156.582 348.106 156.421 348.825 156.421C349.558 156.421 350.185 156.589 350.708 156.925C351.231 157.257 351.625 157.74 351.891 158.374C352.162 159.009 352.292 159.765 352.283 160.642H346.172ZM348.839 157.184C348.06 157.184 347.441 157.422 346.984 157.898C346.527 158.37 346.261 159.042 346.186 159.914H351.415C351.336 159.023 351.077 158.346 350.638 157.884C350.199 157.418 349.6 157.184 348.839 157.184ZM356.933 164.401C356.2 164.401 355.568 164.233 355.036 163.897C354.508 163.561 354.105 163.092 353.825 162.49C353.549 161.884 353.412 161.186 353.412 160.397C353.412 159.609 353.552 158.916 353.832 158.318C354.116 157.716 354.522 157.25 355.05 156.918C355.582 156.587 356.209 156.421 356.933 156.421C357.67 156.421 358.302 156.589 358.83 156.925C359.362 157.257 359.765 157.723 360.041 158.325C360.316 158.923 360.454 159.613 360.454 160.397C360.454 161.195 360.314 161.895 360.034 162.497C359.758 163.099 359.355 163.568 358.823 163.904C358.295 164.236 357.665 164.401 356.933 164.401ZM356.933 163.617C357.516 163.617 358.006 163.484 358.403 163.218C358.799 162.948 359.096 162.572 359.292 162.091C359.492 161.611 359.593 161.046 359.593 160.397C359.593 159.403 359.366 158.624 358.914 158.059C358.461 157.49 357.801 157.205 356.933 157.205C356.345 157.205 355.852 157.338 355.456 157.604C355.059 157.87 354.763 158.244 354.567 158.724C354.371 159.2 354.273 159.758 354.273 160.397C354.273 161.051 354.373 161.62 354.574 162.105C354.779 162.586 355.08 162.959 355.477 163.225C355.873 163.487 356.359 163.617 356.933 163.617ZM364.086 164.191H363.33L361.02 156.631H361.846L363.743 162.84L365.64 156.631H366.417L368.321 162.84L370.225 156.631H371.037L368.727 164.191H367.971L366.032 157.898L364.086 164.191ZM372.477 160.642C372.514 161.59 372.761 162.322 373.219 162.84C373.681 163.358 374.318 163.617 375.13 163.617C375.708 163.617 376.217 163.482 376.656 163.211C377.094 162.941 377.442 162.549 377.699 162.035L378.427 162.357C378.123 163.006 377.685 163.51 377.111 163.869C376.537 164.224 375.881 164.401 375.144 164.401C374.425 164.401 373.8 164.24 373.268 163.918C372.736 163.592 372.325 163.13 372.036 162.532C371.751 161.935 371.609 161.233 371.609 160.425C371.609 159.604 371.751 158.892 372.036 158.29C372.32 157.688 372.726 157.226 373.254 156.904C373.786 156.582 374.411 156.421 375.13 156.421C375.862 156.421 376.49 156.589 377.013 156.925C377.535 157.257 377.93 157.74 378.196 158.374C378.466 159.009 378.597 159.765 378.588 160.642H372.477ZM375.144 157.184C374.364 157.184 373.746 157.422 373.289 157.898C372.831 158.37 372.565 159.042 372.491 159.914H377.72C377.64 159.023 377.381 158.346 376.943 157.884C376.504 157.418 375.904 157.184 375.144 157.184ZM382.929 164.387C382.351 164.387 381.835 164.306 381.382 164.142C380.93 163.974 380.561 163.734 380.276 163.421C379.992 163.104 379.805 162.728 379.716 162.294L380.542 162.154C380.664 162.607 380.939 162.966 381.368 163.232C381.802 163.494 382.334 163.624 382.964 163.624C383.38 163.624 383.741 163.566 384.049 163.449C384.357 163.328 384.593 163.155 384.756 162.931C384.924 162.703 385.008 162.437 385.008 162.133C385.008 161.867 384.95 161.657 384.833 161.503C384.717 161.349 384.497 161.207 384.175 161.076C383.858 160.941 383.354 160.78 382.663 160.593C381.945 160.402 381.392 160.215 381.004 160.033C380.622 159.847 380.349 159.637 380.185 159.403C380.027 159.17 379.947 158.876 379.947 158.521C379.947 158.111 380.066 157.747 380.304 157.429C380.542 157.112 380.876 156.865 381.305 156.687C381.735 156.51 382.227 156.421 382.782 156.421C383.338 156.421 383.839 156.515 384.287 156.701C384.74 156.883 385.104 157.14 385.379 157.471C385.655 157.803 385.813 158.183 385.855 158.612L385.029 158.766C384.978 158.444 384.847 158.164 384.637 157.926C384.427 157.688 384.154 157.506 383.818 157.38C383.487 157.25 383.109 157.184 382.684 157.184C382.311 157.184 381.98 157.24 381.69 157.352C381.401 157.46 381.175 157.611 381.011 157.807C380.853 158.003 380.773 158.227 380.773 158.479C380.773 158.708 380.839 158.899 380.969 159.053C381.1 159.203 381.324 159.343 381.641 159.473C381.963 159.604 382.428 159.746 383.034 159.9C383.772 160.087 384.341 160.278 384.742 160.474C385.144 160.67 385.428 160.899 385.596 161.16C385.769 161.417 385.855 161.744 385.855 162.14C385.855 162.607 385.739 163.008 385.505 163.344C385.272 163.68 384.934 163.939 384.49 164.121C384.052 164.299 383.531 164.387 382.929 164.387ZM388.089 164.254C387.916 164.254 387.769 164.196 387.648 164.079C387.531 163.958 387.473 163.811 387.473 163.638C387.473 163.466 387.531 163.321 387.648 163.204C387.769 163.083 387.916 163.022 388.089 163.022C388.261 163.022 388.406 163.083 388.523 163.204C388.644 163.321 388.705 163.466 388.705 163.638C388.705 163.811 388.644 163.958 388.523 164.079C388.406 164.196 388.261 164.254 388.089 164.254ZM393.805 164.401C393.068 164.401 392.438 164.236 391.915 163.904C391.393 163.568 390.996 163.102 390.725 162.504C390.455 161.902 390.312 161.205 390.298 160.411C390.312 159.604 390.455 158.902 390.725 158.304C391.001 157.707 391.4 157.245 391.922 156.918C392.445 156.587 393.075 156.421 393.812 156.421C394.298 156.421 394.748 156.503 395.163 156.666C395.579 156.825 395.936 157.054 396.234 157.352C396.538 157.646 396.762 157.996 396.906 158.402L396.122 158.689C395.931 158.223 395.63 157.859 395.219 157.597C394.809 157.336 394.337 157.205 393.805 157.205C392.942 157.205 392.286 157.495 391.838 158.073C391.395 158.647 391.169 159.427 391.159 160.411C391.169 161.065 391.271 161.632 391.467 162.112C391.668 162.588 391.964 162.959 392.356 163.225C392.753 163.487 393.236 163.617 393.805 163.617C394.337 163.617 394.799 163.494 395.191 163.246C395.588 162.999 395.894 162.64 396.108 162.168L396.906 162.441C396.608 163.085 396.195 163.573 395.667 163.904C395.145 164.236 394.524 164.401 393.805 164.401ZM401.27 164.401C400.538 164.401 399.905 164.233 399.373 163.897C398.846 163.561 398.442 163.092 398.162 162.49C397.887 161.884 397.749 161.186 397.749 160.397C397.749 159.609 397.889 158.916 398.169 158.318C398.454 157.716 398.86 157.25 399.387 156.918C399.919 156.587 400.547 156.421 401.27 156.421C402.008 156.421 402.64 156.589 403.167 156.925C403.699 157.257 404.103 157.723 404.378 158.325C404.654 158.923 404.791 159.613 404.791 160.397C404.791 161.195 404.651 161.895 404.371 162.497C404.096 163.099 403.692 163.568 403.16 163.904C402.633 164.236 402.003 164.401 401.27 164.401ZM401.27 163.617C401.854 163.617 402.344 163.484 402.74 163.218C403.137 162.948 403.433 162.572 403.629 162.091C403.83 161.611 403.93 161.046 403.93 160.397C403.93 159.403 403.704 158.624 403.251 158.059C402.799 157.49 402.138 157.205 401.27 157.205C400.682 157.205 400.19 157.338 399.793 157.604C399.397 157.87 399.1 158.244 398.904 158.724C398.708 159.2 398.61 159.758 398.61 160.397C398.61 161.051 398.711 161.62 398.911 162.105C399.117 162.586 399.418 162.959 399.814 163.225C400.211 163.487 400.696 163.617 401.27 163.617ZM413.654 156.428C414.144 156.428 414.578 156.533 414.956 156.743C415.334 156.949 415.625 157.245 415.831 157.632C416.041 158.02 416.146 158.472 416.146 158.99L416.132 164.191H415.327L415.341 159.109C415.341 158.713 415.261 158.367 415.103 158.073C414.944 157.775 414.727 157.546 414.452 157.387C414.176 157.229 413.866 157.149 413.521 157.149C413.203 157.149 412.902 157.222 412.618 157.366C412.333 157.506 412.1 157.733 411.918 158.045C411.736 158.358 411.645 158.757 411.645 159.242L411.631 164.191H410.833L410.847 159.186C410.847 158.776 410.77 158.416 410.616 158.108C410.462 157.8 410.245 157.565 409.965 157.401C409.689 157.233 409.37 157.149 409.006 157.149C408.637 157.149 408.31 157.236 408.026 157.408C407.746 157.581 407.526 157.826 407.368 158.143C407.214 158.461 407.137 158.827 407.137 159.242V164.191H406.332V156.631H407.067V157.422C407.3 157.11 407.599 156.867 407.963 156.694C408.327 156.517 408.73 156.428 409.174 156.428C409.668 156.428 410.109 156.538 410.497 156.757C410.889 156.977 411.183 157.299 411.379 157.723C411.593 157.317 411.899 157 412.296 156.771C412.697 156.543 413.15 156.428 413.654 156.428Z" fill="#100F0F"/>
<g opacity="0.3" filter="url(#filter4_f_689_1695)">
<path d="M487.309 107.186L589.496 106C589.448 153.18 590.275 176.098 592.027 212.799C553.785 215.55 531.745 216.833 488.111 215.783C489.434 175.281 489.582 150.973 487.309 107.186Z" fill="#100F0F"/>
</g>
<g filter="url(#filter5_d_689_1695)">
<path d="M476.625 82.1914L603.436 83.1449C602.238 139.349 602.712 166.671 604 210.433C556.487 212.823 529.111 213.842 475 211.581C477.618 163.361 478.389 134.406 476.625 82.1914Z" fill="#FFBBE1"/>
</g>
<path d="M516.75 144.191H515.896L514.993 141.657H510.359L509.463 144.191H508.609L512.179 134.111H513.18L516.75 144.191ZM512.669 135.105L510.625 140.894H514.727L512.669 135.105ZM517.864 144.191L520.552 134.111H521.392L518.704 144.191H517.864ZM526.209 144.401C525.131 144.401 524.298 144.056 523.71 143.365C523.122 142.675 522.819 141.634 522.8 140.243C522.791 139.655 522.828 139.007 522.912 138.297C522.996 137.583 523.099 137.04 523.22 136.666C523.332 136.312 523.503 135.98 523.731 135.672C523.96 135.364 524.226 135.115 524.529 134.923C524.781 134.755 525.075 134.618 525.411 134.51C525.752 134.403 526.093 134.319 526.433 134.258C526.779 134.198 527.199 134.137 527.693 134.076C528.291 133.997 528.685 133.939 528.876 133.901L528.974 134.65C528.764 134.688 528.48 134.73 528.12 134.776C527.364 134.879 526.727 134.986 526.209 135.098C525.696 135.21 525.269 135.374 524.928 135.588C524.546 135.822 524.247 136.179 524.032 136.659C523.822 137.14 523.689 137.719 523.633 138.395C523.918 137.938 524.308 137.586 524.802 137.338C525.297 137.086 525.845 136.96 526.447 136.96C527.119 136.96 527.705 137.117 528.204 137.429C528.704 137.737 529.089 138.174 529.359 138.738C529.63 139.298 529.765 139.947 529.765 140.684C529.765 141.436 529.623 142.091 529.338 142.651C529.054 143.211 528.643 143.643 528.106 143.946C527.57 144.25 526.937 144.401 526.209 144.401ZM526.279 143.617C526.844 143.617 527.322 143.498 527.714 143.26C528.111 143.018 528.41 142.677 528.61 142.238C528.811 141.795 528.911 141.277 528.911 140.684C528.911 140.082 528.806 139.562 528.596 139.123C528.386 138.68 528.083 138.342 527.686 138.108C527.29 137.87 526.816 137.751 526.265 137.751C525.715 137.751 525.243 137.87 524.851 138.108C524.464 138.342 524.168 138.678 523.962 139.116C523.762 139.555 523.661 140.078 523.661 140.684C523.661 141.286 523.762 141.809 523.962 142.252C524.163 142.691 524.459 143.029 524.851 143.267C525.243 143.501 525.719 143.617 526.279 143.617ZM537.022 144.191H536.217V137.401H533.48V136.631H539.759V137.401H537.022V144.191ZM541.531 140.642C541.568 141.59 541.815 142.322 542.273 142.84C542.735 143.358 543.372 143.617 544.184 143.617C544.762 143.617 545.271 143.482 545.71 143.211C546.148 142.941 546.496 142.549 546.753 142.035L547.481 142.357C547.177 143.006 546.739 143.51 546.165 143.869C545.591 144.224 544.935 144.401 544.198 144.401C543.479 144.401 542.854 144.24 542.322 143.918C541.79 143.592 541.379 143.13 541.09 142.532C540.805 141.935 540.663 141.233 540.663 140.425C540.663 139.604 540.805 138.892 541.09 138.29C541.374 137.688 541.78 137.226 542.308 136.904C542.84 136.582 543.465 136.421 544.184 136.421C544.916 136.421 545.544 136.589 546.067 136.925C546.589 137.257 546.984 137.74 547.25 138.374C547.52 139.009 547.651 139.765 547.642 140.642H541.531ZM544.198 137.184C543.418 137.184 542.8 137.422 542.343 137.898C541.885 138.37 541.619 139.042 541.545 139.914H546.774C546.694 139.023 546.435 138.346 545.997 137.884C545.558 137.418 544.958 137.184 544.198 137.184ZM552.277 144.401C551.54 144.401 550.91 144.236 550.387 143.904C549.864 143.568 549.468 143.102 549.197 142.504C548.926 141.902 548.784 141.205 548.77 140.411C548.784 139.604 548.926 138.902 549.197 138.304C549.472 137.707 549.871 137.245 550.394 136.918C550.917 136.587 551.547 136.421 552.284 136.421C552.769 136.421 553.22 136.503 553.635 136.666C554.05 136.825 554.407 137.054 554.706 137.352C555.009 137.646 555.233 137.996 555.378 138.402L554.594 138.689C554.403 138.223 554.102 137.859 553.691 137.597C553.28 137.336 552.809 137.205 552.277 137.205C551.414 137.205 550.758 137.495 550.31 138.073C549.867 138.647 549.64 139.427 549.631 140.411C549.64 141.065 549.743 141.632 549.939 142.112C550.14 142.588 550.436 142.959 550.828 143.225C551.225 143.487 551.708 143.617 552.277 143.617C552.809 143.617 553.271 143.494 553.663 143.246C554.06 142.999 554.365 142.64 554.58 142.168L555.378 142.441C555.079 143.085 554.666 143.573 554.139 143.904C553.616 144.236 552.996 144.401 552.277 144.401ZM559.526 144.191H558.721V137.401H555.984V136.631H562.263V137.401H559.526V144.191ZM563.593 144.191L563.586 136.631H564.405V139.585H565.868C566.377 139.585 566.764 139.611 567.03 139.662C568.3 139.896 568.934 140.638 568.934 141.888C568.934 142.5 568.776 142.994 568.458 143.372C568.141 143.746 567.733 143.986 567.233 144.093C566.93 144.159 566.515 144.191 565.987 144.191H563.593ZM570.684 144.191H569.879V136.631H570.684V144.191ZM565.882 143.456C566.134 143.456 566.354 143.452 566.54 143.442C566.732 143.433 566.9 143.407 567.044 143.365C567.348 143.281 567.597 143.123 567.793 142.889C567.989 142.656 568.087 142.322 568.087 141.888C568.087 141.445 567.987 141.107 567.786 140.873C567.59 140.64 567.306 140.484 566.932 140.404C566.676 140.348 566.326 140.32 565.882 140.32H564.405V143.456H565.882ZM515.76 153.421C516.427 153.421 517.006 153.594 517.496 153.939C517.986 154.285 518.359 154.761 518.616 155.367C518.877 155.969 519.008 156.646 519.008 157.397C519.008 158.163 518.877 158.849 518.616 159.455C518.354 160.057 517.974 160.533 517.475 160.883C516.975 161.229 516.378 161.401 515.683 161.401C515.137 161.401 514.651 161.282 514.227 161.044C513.802 160.802 513.452 160.463 513.177 160.029V164.551H512.372V153.631H513.107V154.891C513.382 154.425 513.744 154.063 514.192 153.806C514.64 153.55 515.162 153.421 515.76 153.421ZM515.634 160.631C516.175 160.631 516.632 160.491 517.006 160.211C517.384 159.931 517.668 159.549 517.86 159.063C518.051 158.573 518.147 158.018 518.147 157.397C518.147 156.777 518.053 156.226 517.867 155.745C517.68 155.26 517.398 154.88 517.02 154.604C516.642 154.329 516.175 154.191 515.62 154.191C515.078 154.191 514.619 154.327 514.241 154.597C513.863 154.868 513.578 155.246 513.387 155.731C513.2 156.212 513.107 156.767 513.107 157.397C513.107 158.027 513.2 158.587 513.387 159.077C513.578 159.563 513.863 159.943 514.241 160.218C514.619 160.494 515.083 160.631 515.634 160.631ZM520.995 157.642C521.033 158.59 521.28 159.322 521.737 159.84C522.199 160.358 522.836 160.617 523.648 160.617C524.227 160.617 524.736 160.482 525.174 160.211C525.613 159.941 525.961 159.549 526.217 159.035L526.945 159.357C526.642 160.006 526.203 160.51 525.629 160.869C525.055 161.224 524.4 161.401 523.662 161.401C522.944 161.401 522.318 161.24 521.786 160.918C521.254 160.592 520.844 160.13 520.554 159.532C520.27 158.935 520.127 158.233 520.127 157.425C520.127 156.604 520.27 155.892 520.554 155.29C520.839 154.688 521.245 154.226 521.772 153.904C522.304 153.582 522.93 153.421 523.648 153.421C524.381 153.421 525.009 153.589 525.531 153.925C526.054 154.257 526.448 154.74 526.714 155.374C526.985 156.009 527.116 156.765 527.106 157.642H520.995ZM523.662 154.184C522.883 154.184 522.265 154.422 521.807 154.898C521.35 155.37 521.084 156.042 521.009 156.914H526.238C526.159 156.023 525.9 155.346 525.461 154.884C525.023 154.418 524.423 154.184 523.662 154.184ZM532.798 157.25C533.148 157.4 533.412 157.647 533.589 157.992C533.771 158.338 533.862 158.711 533.862 159.112C533.862 159.565 533.743 159.966 533.505 160.316C533.267 160.662 532.938 160.93 532.518 161.121C532.103 161.308 531.634 161.401 531.111 161.401C530.346 161.401 529.683 161.233 529.123 160.897C528.563 160.557 528.122 160.074 527.8 159.448L528.458 159.049C528.734 159.563 529.088 159.952 529.522 160.218C529.961 160.484 530.467 160.617 531.041 160.617C531.438 160.617 531.786 160.554 532.084 160.428C532.388 160.302 532.621 160.12 532.784 159.882C532.952 159.64 533.036 159.355 533.036 159.028C533.036 158.548 532.88 158.198 532.567 157.978C532.255 157.754 531.746 157.642 531.041 157.642H530.033V156.921H531.034C531.599 156.921 532.042 156.809 532.364 156.585C532.691 156.361 532.854 156.039 532.854 155.619C532.854 155.311 532.775 155.052 532.616 154.842C532.458 154.628 532.243 154.469 531.972 154.366C531.702 154.259 531.398 154.205 531.062 154.205C530.596 154.205 530.155 154.301 529.739 154.492C529.324 154.684 528.981 154.94 528.71 155.262L528.15 154.716C528.51 154.287 528.939 153.965 529.438 153.75C529.942 153.531 530.507 153.421 531.132 153.421C531.618 153.421 532.054 153.51 532.441 153.687C532.829 153.86 533.132 154.11 533.351 154.436C533.571 154.758 533.68 155.139 533.68 155.577C533.68 156.296 533.386 156.854 532.798 157.25ZM535.416 161.191L535.409 153.631H536.228V156.585H537.691C538.199 156.585 538.587 156.611 538.853 156.662C540.122 156.896 540.757 157.638 540.757 158.888C540.757 159.5 540.598 159.994 540.281 160.372C539.963 160.746 539.555 160.986 539.056 161.093C538.752 161.159 538.337 161.191 537.81 161.191H535.416ZM542.507 161.191H541.702V153.631H542.507V161.191ZM537.705 160.456C537.957 160.456 538.176 160.452 538.363 160.442C538.554 160.433 538.722 160.407 538.867 160.365C539.17 160.281 539.42 160.123 539.616 159.889C539.812 159.656 539.91 159.322 539.91 158.888C539.91 158.445 539.809 158.107 539.609 157.873C539.413 157.64 539.128 157.484 538.755 157.404C538.498 157.348 538.148 157.32 537.705 157.32H536.228V160.456H537.705ZM547.276 161.191V153.631H550.279C550.75 153.631 551.152 153.676 551.483 153.764C551.922 153.881 552.267 154.114 552.519 154.464C552.771 154.814 552.897 155.227 552.897 155.703C552.897 156.203 552.752 156.623 552.463 156.963C552.342 157.113 552.185 157.234 551.994 157.327C552.125 157.355 552.283 157.428 552.47 157.544C552.736 157.712 552.934 157.934 553.065 158.209C553.2 158.48 553.268 158.797 553.268 159.161C553.268 159.665 553.147 160.083 552.904 160.414C552.661 160.741 552.335 160.96 551.924 161.072C551.751 161.124 551.567 161.156 551.371 161.17C551.18 161.184 550.965 161.191 550.727 161.191H547.276ZM550.44 157.047C550.571 157.047 550.711 157.038 550.86 157.019C551.014 157.001 551.145 156.973 551.252 156.935C551.509 156.847 551.705 156.693 551.84 156.473C551.98 156.249 552.05 156 552.05 155.724C552.05 155.43 551.978 155.174 551.833 154.954C551.693 154.735 551.492 154.581 551.231 154.492C550.979 154.408 550.657 154.366 550.265 154.366H548.088V157.047H550.44ZM550.706 160.463C550.809 160.463 550.939 160.456 551.098 160.442C551.257 160.424 551.394 160.4 551.511 160.372C551.81 160.302 552.034 160.155 552.183 159.931C552.337 159.707 552.414 159.446 552.414 159.147C552.414 158.783 552.304 158.485 552.085 158.251C551.866 158.013 551.567 157.869 551.189 157.817C551.044 157.794 550.82 157.782 550.517 157.782H548.088V160.463H550.706ZM560.051 161.191H559.239V152.028L557.335 153.169V152.245L559.239 151.111H560.051V161.191ZM564.132 161.191H563.264L567.044 151.909H562.291V151.111H567.912V151.909L564.132 161.191Z" fill="#100F0F"/>
<g opacity="0.3" filter="url(#filter6_f_689_1695)">
<path d="M648.309 107.186L750.496 106C750.448 153.18 751.275 176.098 753.027 212.799C714.785 215.55 692.745 216.833 649.111 215.783C650.434 175.281 650.582 150.973 648.309 107.186Z" fill="#100F0F"/>
</g>
<g filter="url(#filter7_d_689_1695)">
<path d="M637.625 82.1914L764.436 83.1449C763.238 139.349 763.712 166.671 765 210.433C717.487 212.823 690.111 213.842 636 211.581C638.618 163.361 639.389 134.406 637.625 82.1914Z" fill="#FFA558"/>
</g>
<path d="M678.3 144.416C677.33 144.416 676.508 144.2 675.832 143.768C675.157 143.331 674.647 142.725 674.302 141.948C673.957 141.172 673.785 140.271 673.785 139.246C673.785 138.221 673.957 137.321 674.302 136.544C674.647 135.768 675.157 135.163 675.832 134.731C676.508 134.295 677.33 134.077 678.3 134.077C679.426 134.077 680.351 134.368 681.077 134.952C681.808 135.536 682.307 136.342 682.573 137.371L681.753 137.571C681.532 136.717 681.128 136.05 680.54 135.572C679.956 135.094 679.21 134.856 678.3 134.856C677.496 134.856 676.82 135.044 676.273 135.421C675.726 135.793 675.315 136.317 675.039 136.992C674.768 137.663 674.633 138.442 674.633 139.329C674.633 140.188 674.773 140.942 675.053 141.59C675.334 142.233 675.747 142.736 676.294 143.099C676.845 143.458 677.514 143.637 678.3 143.637C679.21 143.637 679.956 143.398 680.54 142.92C681.128 142.442 681.532 141.776 681.753 140.921L682.573 141.121C682.307 142.15 681.808 142.957 681.077 143.54C680.351 144.124 679.426 144.416 678.3 144.416ZM684.883 144.209H684.083V136.765H684.883V140.349L688.405 136.765H689.515L685.827 140.487L690.038 144.209H688.805L684.883 140.625V144.209ZM695.772 136.765H696.468V144.209H695.689V138.095L691.43 144.209H690.734V136.765H691.512V142.851L695.772 136.765ZM699.186 144.209H698.394V136.765H699.186V140.101H703.674V136.765H704.466V144.209H703.674V140.873H699.186V144.209ZM709.092 143.154L711.429 136.765H712.263L708.306 147.517H707.479L708.706 144.209L705.68 136.765H706.528L709.092 143.154ZM716.379 144.209H715.587V137.523H712.892V136.765H719.074V137.523H716.379V144.209ZM720.385 144.209L720.378 136.765H721.184V139.674H723.059C723.56 139.674 723.941 139.699 724.203 139.749C724.773 139.85 725.228 140.076 725.568 140.425C725.908 140.774 726.078 141.28 726.078 141.941C726.078 142.543 725.922 143.03 725.609 143.403C725.297 143.77 724.892 144.007 724.396 144.112C724.102 144.177 723.695 144.209 723.176 144.209H720.385ZM723.073 143.485C723.321 143.485 723.537 143.481 723.721 143.471C723.909 143.462 724.072 143.437 724.21 143.396C724.513 143.313 724.762 143.157 724.955 142.927C725.148 142.697 725.244 142.369 725.244 141.941C725.244 141.505 725.145 141.172 724.948 140.942C724.755 140.712 724.474 140.558 724.107 140.48C723.849 140.425 723.505 140.397 723.073 140.397H721.184V143.485H723.073ZM657.751 160.485C658.032 160.485 658.259 160.428 658.434 160.313C658.608 160.193 658.748 160.014 658.854 159.775C658.96 159.536 659.056 159.212 659.144 158.803C659.259 158.247 659.348 157.609 659.412 156.887C659.477 156.161 659.539 155.12 659.599 153.765H664.313V160.485H665.009V162.863H664.237V161.209H658.53V162.863H657.751V160.485ZM663.514 160.485V154.489H660.364C660.304 155.564 660.24 156.487 660.171 157.259C660.102 158.027 660.008 158.647 659.888 159.12C659.796 159.488 659.709 159.775 659.626 159.982C659.548 160.189 659.44 160.357 659.302 160.485H663.514ZM671.432 153.765H672.128V161.209H671.349V155.095L667.09 161.209H666.394V153.765H667.172V159.851L671.432 153.765ZM678.403 157.328C678.748 157.475 679.007 157.719 679.182 158.059C679.361 158.399 679.451 158.767 679.451 159.162C679.451 159.608 679.334 160.003 679.099 160.347C678.865 160.687 678.541 160.952 678.127 161.14C677.718 161.324 677.257 161.416 676.742 161.416C675.988 161.416 675.336 161.25 674.784 160.919C674.233 160.584 673.799 160.108 673.482 159.493L674.13 159.1C674.401 159.605 674.75 159.989 675.177 160.251C675.609 160.513 676.108 160.644 676.673 160.644C677.064 160.644 677.406 160.582 677.7 160.458C677.999 160.334 678.228 160.154 678.389 159.92C678.555 159.681 678.637 159.401 678.637 159.079C678.637 158.606 678.483 158.261 678.176 158.045C677.868 157.825 677.367 157.714 676.673 157.714H675.68V157.004H676.666C677.222 157.004 677.659 156.894 677.976 156.674C678.297 156.453 678.458 156.136 678.458 155.722C678.458 155.419 678.38 155.164 678.224 154.957C678.068 154.746 677.856 154.59 677.59 154.489C677.323 154.383 677.024 154.33 676.694 154.33C676.234 154.33 675.8 154.424 675.391 154.613C674.982 154.801 674.644 155.054 674.378 155.371L673.826 154.833C674.18 154.41 674.603 154.093 675.094 153.882C675.591 153.666 676.147 153.558 676.763 153.558C677.24 153.558 677.67 153.645 678.051 153.82C678.433 153.99 678.732 154.236 678.948 154.557C679.164 154.875 679.271 155.249 679.271 155.681C679.271 156.389 678.982 156.938 678.403 157.328ZM686.55 155.081C686.683 155.431 686.749 155.927 686.749 156.57V161.209H686.026V159.913C685.741 160.396 685.348 160.768 684.847 161.03C684.346 161.287 683.772 161.416 683.124 161.416C682.572 161.416 682.104 161.317 681.718 161.119C681.332 160.922 681.042 160.658 680.849 160.327C680.656 159.991 680.56 159.624 680.56 159.224C680.56 158.631 680.737 158.16 681.091 157.811C681.449 157.462 681.925 157.218 682.517 157.08C682.917 156.993 683.342 156.917 683.792 156.853C684.247 156.788 684.815 156.713 685.495 156.625C685.559 156.616 685.631 156.609 685.709 156.605C685.787 156.595 685.869 156.584 685.957 156.57C685.957 155.798 685.791 155.231 685.461 154.868C685.13 154.505 684.583 154.323 683.82 154.323C682.662 154.323 681.941 154.845 681.656 155.888L680.842 155.66C681.012 154.985 681.355 154.466 681.869 154.103C682.384 153.74 683.043 153.558 683.848 153.558C684.528 153.558 685.102 153.691 685.571 153.958C686.04 154.224 686.366 154.599 686.55 155.081ZM683.165 160.685C683.662 160.685 684.103 160.596 684.489 160.416C684.875 160.233 685.185 159.977 685.419 159.651C685.658 159.32 685.81 158.932 685.874 158.486C685.929 158.188 685.957 157.792 685.957 157.301L685.674 157.328C684.976 157.402 684.411 157.469 683.979 157.528C683.547 157.588 683.149 157.664 682.786 157.756C682.386 157.861 682.051 158.031 681.78 158.266C681.509 158.496 681.373 158.817 681.373 159.231C681.373 159.479 681.433 159.713 681.552 159.934C681.672 160.154 681.865 160.336 682.131 160.478C682.402 160.616 682.747 160.685 683.165 160.685ZM691.51 152.869C691.207 152.869 690.926 152.795 690.669 152.648C690.412 152.497 690.207 152.292 690.056 152.035C689.909 151.777 689.835 151.497 689.835 151.194H690.524C690.524 151.368 690.568 151.532 690.655 151.683C690.747 151.835 690.869 151.957 691.021 152.049C691.172 152.136 691.335 152.179 691.51 152.179C691.689 152.179 691.855 152.136 692.006 152.049C692.158 151.957 692.277 151.835 692.365 151.683C692.452 151.532 692.496 151.368 692.496 151.194H693.185C693.185 151.497 693.109 151.777 692.957 152.035C692.81 152.292 692.608 152.497 692.351 152.648C692.094 152.795 691.813 152.869 691.51 152.869ZM693.578 153.765H694.274V161.209H693.495V155.095L689.235 161.209H688.539V153.765H689.318V159.851L693.578 153.765ZM696.992 161.209H696.199V153.765H696.992V157.101H701.479V153.765H702.272V161.209H701.479V157.873H696.992V161.209ZM704.637 157.714C704.674 158.647 704.917 159.369 705.368 159.879C705.823 160.389 706.45 160.644 707.249 160.644C707.819 160.644 708.32 160.511 708.752 160.244C709.184 159.977 709.526 159.591 709.779 159.086L710.496 159.403C710.197 160.042 709.765 160.538 709.2 160.892C708.635 161.241 707.989 161.416 707.263 161.416C706.556 161.416 705.94 161.257 705.416 160.94C704.892 160.619 704.488 160.164 704.203 159.575C703.923 158.987 703.782 158.296 703.782 157.501C703.782 156.692 703.923 155.991 704.203 155.398C704.483 154.806 704.883 154.351 705.402 154.034C705.926 153.717 706.542 153.558 707.249 153.558C707.971 153.558 708.589 153.723 709.104 154.054C709.618 154.381 710.007 154.856 710.268 155.481C710.535 156.106 710.664 156.85 710.654 157.714H704.637ZM707.263 154.309C706.496 154.309 705.887 154.544 705.437 155.012C704.986 155.477 704.724 156.138 704.651 156.998H709.8C709.722 156.12 709.467 155.454 709.035 154.999C708.603 154.539 708.012 154.309 707.263 154.309ZM715.515 153.558C716.172 153.558 716.742 153.728 717.225 154.068C717.707 154.408 718.075 154.877 718.327 155.474C718.585 156.067 718.713 156.733 718.713 157.473C718.713 158.227 718.585 158.902 718.327 159.5C718.07 160.092 717.696 160.561 717.204 160.906C716.712 161.246 716.124 161.416 715.439 161.416C714.902 161.416 714.424 161.299 714.006 161.064C713.588 160.825 713.243 160.492 712.972 160.065V164.517H712.179V153.765H712.903V155.006C713.174 154.546 713.53 154.19 713.971 153.937C714.412 153.684 714.927 153.558 715.515 153.558ZM715.391 160.658C715.924 160.658 716.375 160.52 716.742 160.244C717.114 159.968 717.395 159.591 717.583 159.114C717.771 158.631 717.866 158.084 717.866 157.473C717.866 156.862 717.774 156.32 717.59 155.846C717.406 155.369 717.128 154.994 716.756 154.723C716.384 154.452 715.924 154.316 715.377 154.316C714.844 154.316 714.392 154.45 714.02 154.716C713.647 154.983 713.367 155.355 713.179 155.833C712.995 156.306 712.903 156.853 712.903 157.473C712.903 158.093 712.995 158.645 713.179 159.127C713.367 159.605 713.647 159.98 714.02 160.251C714.392 160.522 714.849 160.658 715.391 160.658ZM722.662 160.154L724.999 153.765H725.833L721.877 164.517H721.049L722.276 161.209L719.25 153.765H720.098L722.662 160.154ZM732.709 161.209H731.916V154.523H729.221V153.765H735.404V154.523H732.709V161.209ZM741.057 157.328C741.402 157.475 741.661 157.719 741.836 158.059C742.015 158.399 742.105 158.767 742.105 159.162C742.105 159.608 741.987 160.003 741.753 160.347C741.519 160.687 741.195 160.952 740.781 161.14C740.372 161.324 739.91 161.416 739.396 161.416C738.642 161.416 737.99 161.25 737.438 160.919C736.887 160.584 736.453 160.108 736.136 159.493L736.783 159.1C737.055 159.605 737.404 159.989 737.831 160.251C738.263 160.513 738.762 160.644 739.327 160.644C739.717 160.644 740.06 160.582 740.354 160.458C740.653 160.334 740.882 160.154 741.043 159.92C741.209 159.681 741.291 159.401 741.291 159.079C741.291 158.606 741.137 158.261 740.829 158.045C740.522 157.825 740.021 157.714 739.327 157.714H738.334V157.004H739.32C739.876 157.004 740.312 156.894 740.63 156.674C740.951 156.453 741.112 156.136 741.112 155.722C741.112 155.419 741.034 155.164 740.878 154.957C740.721 154.746 740.51 154.59 740.244 154.489C739.977 154.383 739.678 154.33 739.348 154.33C738.888 154.33 738.454 154.424 738.045 154.613C737.636 154.801 737.298 155.054 737.032 155.371L736.48 154.833C736.834 154.41 737.257 154.093 737.748 153.882C738.245 153.666 738.801 153.558 739.416 153.558C739.894 153.558 740.324 153.645 740.705 153.82C741.087 153.99 741.385 154.236 741.601 154.557C741.817 154.875 741.925 155.249 741.925 155.681C741.925 156.389 741.636 156.938 741.057 157.328Z" fill="#100F0F"/>
<defs>
<filter id="filter0_f_689_1695" x="158.309" y="99" width="118.719" height="124.148" filterUnits="userSpaceOnUse" color-interpolation-filters="sRGB">
<feFlood flood-opacity="0" result="BackgroundImageFix"/>
<feBlend mode="normal" in="SourceGraphic" in2="BackgroundImageFix" result="shape"/>
<feGaussianBlur stdDeviation="3.5" result="effect1_foregroundBlur_689_1695"/>
</filter>
<filter id="filter1_d_689_1695" x="142" y="79.1914" width="149" height="150.651" filterUnits="userSpaceOnUse" color-interpolation-filters="sRGB">
<feFlood flood-opacity="0" result="BackgroundImageFix"/>
<feColorMatrix in="SourceAlpha" type="matrix" values="0 0 0 0 0 0 0 0 0 0 0 0 0 0 0 0 0 0 127 0" result="hardAlpha"/>
<feOffset dx="-1" dy="7"/>
<feGaussianBlur stdDeviation="5"/>
<feComposite in2="hardAlpha" operator="out"/>
<feColorMatrix type="matrix" values="0 0 0 0 0 0 0 0 0 0 0 0 0 0 0 0 0 0 0.25 0"/>
<feBlend mode="normal" in2="BackgroundImageFix" result="effect1_dropShadow_689_1695"/>
<feBlend mode="normal" in="SourceGraphic" in2="effect1_dropShadow_689_1695" result="shape"/>
</filter>
<filter id="filter2_f_689_1695" x="319.309" y="99" width="118.719" height="124.148" filterUnits="userSpaceOnUse" color-interpolation-filters="sRGB">
<feFlood flood-opacity="0" result="BackgroundImageFix"/>
<feBlend mode="normal" in="SourceGraphic" in2="BackgroundImageFix" result="shape"/>
<feGaussianBlur stdDeviation="3.5" result="effect1_foregroundBlur_689_1695"/>
</filter>
<filter id="filter3_d_689_1695" x="303" y="79.1914" width="149" height="150.651" filterUnits="userSpaceOnUse" color-interpolation-filters="sRGB">
<feFlood flood-opacity="0" result="BackgroundImageFix"/>
<feColorMatrix in="SourceAlpha" type="matrix" values="0 0 0 0 0 0 0 0 0 0 0 0 0 0 0 0 0 0 127 0" result="hardAlpha"/>
<feOffset dx="-1" dy="7"/>
<feGaussianBlur stdDeviation="5"/>
<feComposite in2="hardAlpha" operator="out"/>
<feColorMatrix type="matrix" values="0 0 0 0 0 0 0 0 0 0 0 0 0 0 0 0 0 0 0.25 0"/>
<feBlend mode="normal" in2="BackgroundImageFix" result="effect1_dropShadow_689_1695"/>
<feBlend mode="normal" in="SourceGraphic" in2="effect1_dropShadow_689_1695" result="shape"/>
</filter>
<filter id="filter4_f_689_1695" x="480.309" y="99" width="118.719" height="124.148" filterUnits="userSpaceOnUse" color-interpolation-filters="sRGB">
<feFlood flood-opacity="0" result="BackgroundImageFix"/>
<feBlend mode="normal" in="SourceGraphic" in2="BackgroundImageFix" result="shape"/>
<feGaussianBlur stdDeviation="3.5" result="effect1_foregroundBlur_689_1695"/>
</filter>
<filter id="filter5_d_689_1695" x="464" y="79.1914" width="149" height="150.651" filterUnits="userSpaceOnUse" color-interpolation-filters="sRGB">
<feFlood flood-opacity="0" result="BackgroundImageFix"/>
<feColorMatrix in="SourceAlpha" type="matrix" values="0 0 0 0 0 0 0 0 0 0 0 0 0 0 0 0 0 0 127 0" result="hardAlpha"/>
<feOffset dx="-1" dy="7"/>
<feGaussianBlur stdDeviation="5"/>
<feComposite in2="hardAlpha" operator="out"/>
<feColorMatrix type="matrix" values="0 0 0 0 0 0 0 0 0 0 0 0 0 0 0 0 0 0 0.25 0"/>
<feBlend mode="normal" in2="BackgroundImageFix" result="effect1_dropShadow_689_1695"/>
<feBlend mode="normal" in="SourceGraphic" in2="effect1_dropShadow_689_1695" result="shape"/>
</filter>
<filter id="filter6_f_689_1695" x="641.309" y="99" width="118.719" height="124.148" filterUnits="userSpaceOnUse" color-interpolation-filters="sRGB">
<feFlood flood-opacity="0" result="BackgroundImageFix"/>
<feBlend mode="normal" in="SourceGraphic" in2="BackgroundImageFix" result="shape"/>
<feGaussianBlur stdDeviation="3.5" result="effect1_foregroundBlur_689_1695"/>
</filter>
<filter id="filter7_d_689_1695" x="625" y="79.1914" width="149" height="150.651" filterUnits="userSpaceOnUse" color-interpolation-filters="sRGB">
<feFlood flood-opacity="0" result="BackgroundImageFix"/>
<feColorMatrix in="SourceAlpha" type="matrix" values="0 0 0 0 0 0 0 0 0 0 0 0 0 0 0 0 0 0 127 0" result="hardAlpha"/>
<feOffset dx="-1" dy="7"/>
<feGaussianBlur stdDeviation="5"/>
<feComposite in2="hardAlpha" operator="out"/>
<feColorMatrix type="matrix" values="0 0 0 0 0 0 0 0 0 0 0 0 0 0 0 0 0 0 0.25 0"/>
<feBlend mode="normal" in2="BackgroundImageFix" result="effect1_dropShadow_689_1695"/>
<feBlend mode="normal" in="SourceGraphic" in2="effect1_dropShadow_689_1695" result="shape"/>
</filter>
</defs>
</svg>
