<svg width="1342" height="368" viewBox="0 0 1342 368" fill="none" xmlns="http://www.w3.org/2000/svg">
<g clip-path="url(#clip0_3345_3057)">
<rect width="1342" height="368" rx="15" fill="white"/>
<rect x="1041.64" y="40.8247" width="477.415" height="138.684" rx="15.6667" transform="rotate(-2.50938 1041.64 40.8247)" stroke="#E2E2E2" stroke-width="1.22729"/>
<path d="M1073.67 76.522C1072.41 76.5775 1071.32 76.343 1070.4 75.8187C1069.48 75.2944 1068.77 74.5358 1068.26 73.543C1067.76 72.5442 1067.47 71.3765 1067.42 70.0398C1067.36 68.7031 1067.54 67.5181 1067.95 66.4848C1068.37 65.4456 1069.01 64.6246 1069.88 64.022C1070.75 63.4194 1071.82 63.0904 1073.08 63.035C1074.35 62.9796 1075.44 63.214 1076.36 63.7383C1077.28 64.2624 1077.99 65.0238 1078.5 66.0226C1079.01 67.0154 1079.29 68.1802 1079.35 69.5169C1079.41 70.8536 1079.23 72.0416 1078.81 73.0808C1078.39 74.1141 1077.75 74.9321 1076.87 75.535C1076 76.1376 1074.94 76.4666 1073.67 76.522ZM1073.64 75.2535C1074.62 75.2101 1075.45 74.9458 1076.1 74.4606C1076.77 73.9691 1077.25 73.3052 1077.56 72.4691C1077.86 71.6329 1077.99 70.6693 1077.94 69.5783C1077.9 68.4814 1077.68 67.5299 1077.3 66.724C1076.91 65.912 1076.37 65.2963 1075.66 64.877C1074.95 64.4514 1074.11 64.2602 1073.12 64.3036C1072.12 64.3472 1071.3 64.6177 1070.63 65.1152C1069.98 65.6065 1069.5 66.276 1069.2 67.124C1068.9 67.9719 1068.77 68.9503 1068.82 70.0592C1068.87 71.1442 1069.08 72.0837 1069.47 72.8776C1069.85 73.6716 1070.39 74.2784 1071.1 74.6981C1071.81 75.1114 1072.65 75.2966 1073.64 75.2535ZM1085.41 65.7378C1086.27 65.7 1087.03 65.8888 1087.7 66.3043C1088.36 66.7195 1088.88 67.3092 1089.26 68.0735C1089.63 68.8318 1089.84 69.6965 1089.89 70.6676C1089.93 71.6446 1089.8 72.5303 1089.49 73.3245C1089.18 74.1187 1088.71 74.7519 1088.08 75.2241C1087.45 75.6961 1086.69 75.9515 1085.8 75.9904C1085.16 76.0185 1084.58 75.921 1084.05 75.6978C1083.53 75.4683 1083.08 75.1337 1082.7 74.6939L1082.94 80.1697L1081.61 80.228L1081 66.2015L1082.18 66.1494L1082.24 67.4892C1082.59 66.9576 1083.02 66.542 1083.56 66.2424C1084.09 65.9368 1084.71 65.7686 1085.41 65.7378ZM1085.62 74.7645C1086.27 74.7358 1086.82 74.5437 1087.26 74.1881C1087.7 73.8324 1088.02 73.3559 1088.22 72.7585C1088.43 72.1548 1088.52 71.4783 1088.48 70.729C1088.45 69.9797 1088.31 69.3194 1088.05 68.7479C1087.81 68.1702 1087.44 67.7236 1086.97 67.4082C1086.49 67.0927 1085.92 66.9497 1085.25 66.9791C1084.59 67.008 1084.04 67.1943 1083.6 67.5379C1083.16 67.8813 1082.84 68.3517 1082.64 68.9492C1082.44 69.5403 1082.36 70.2225 1082.4 70.9958C1082.43 71.7631 1082.57 72.4355 1082.82 73.0133C1083.07 73.5847 1083.43 74.0283 1083.9 74.344C1084.37 74.6537 1084.94 74.7939 1085.62 74.7645ZM1099.09 67.0843C1099.3 67.5435 1099.42 68.2076 1099.46 69.0768L1099.73 75.11L1098.55 75.1616L1098.48 73.5522C1098.13 74.1861 1097.64 74.6758 1097.03 75.021C1096.41 75.3663 1095.69 75.5571 1094.86 75.5933C1094.16 75.6243 1093.55 75.522 1093.03 75.2863C1092.52 75.0504 1092.13 74.7191 1091.86 74.2926C1091.59 73.866 1091.44 73.389 1091.42 72.8615C1091.39 72.1062 1091.58 71.4882 1092 71.0075C1092.41 70.5268 1093 70.1675 1093.77 69.9298C1094.24 69.7952 1094.76 69.6702 1095.34 69.5548C1095.92 69.4391 1096.59 69.3135 1097.36 69.178L1098.16 69.0346C1098.11 68.142 1097.87 67.4949 1097.45 67.0931C1097.03 66.6911 1096.36 66.51 1095.46 66.5496C1094.78 66.5796 1094.21 66.7574 1093.77 67.0831C1093.33 67.4085 1093.04 67.8928 1092.89 68.5361L1091.59 68.2148C1091.78 67.3296 1092.2 66.6356 1092.85 66.1326C1093.5 65.6234 1094.36 65.3455 1095.42 65.299C1096.31 65.2602 1097.07 65.395 1097.7 65.7037C1098.34 66.012 1098.8 66.4722 1099.09 67.0843ZM1094.97 74.4447C1095.57 74.4185 1096.09 74.2872 1096.55 74.0509C1097.01 73.8086 1097.37 73.4895 1097.64 73.0935C1097.91 72.6913 1098.07 72.2426 1098.14 71.7474C1098.2 71.372 1098.22 70.8547 1098.19 70.1953C1097.96 70.2295 1097.8 70.2579 1097.69 70.2803C1096.88 70.412 1096.22 70.5279 1095.72 70.6282C1095.21 70.7224 1094.75 70.8356 1094.35 70.9676C1093.24 71.3464 1092.7 71.9584 1092.74 72.8036C1092.75 73.1033 1092.84 73.3819 1092.99 73.6393C1093.16 73.8965 1093.4 74.1019 1093.73 74.2556C1094.06 74.4032 1094.48 74.4663 1094.97 74.4447ZM1106.11 75.1006C1105.15 75.1427 1104.32 74.9629 1103.61 74.5612C1102.92 74.1593 1102.37 73.5796 1101.98 72.8221C1101.59 72.0644 1101.37 71.1823 1101.31 70.1757C1101.28 69.1502 1101.43 68.2459 1101.75 67.4629C1102.08 66.6739 1102.57 66.0516 1103.24 65.5961C1103.9 65.1405 1104.71 64.8919 1105.67 64.8501C1106.31 64.8217 1106.92 64.9033 1107.48 65.095C1108.04 65.2866 1108.52 65.5777 1108.93 65.9682C1109.34 66.3527 1109.64 66.8168 1109.85 67.3604L1108.57 67.8307C1108.32 67.2653 1107.94 66.8316 1107.42 66.5297C1106.92 66.2276 1106.35 66.0904 1105.71 66.1183C1104.68 66.1637 1103.91 66.5458 1103.4 67.2645C1102.91 67.983 1102.68 68.9329 1102.72 70.1143C1102.78 71.3066 1103.1 72.2356 1103.67 72.9013C1104.24 73.567 1105.03 73.8775 1106.05 73.8329C1106.71 73.804 1107.26 73.6295 1107.71 73.3096C1108.17 72.9834 1108.5 72.5243 1108.71 71.9324L1110.06 72.2697C1109.74 73.1489 1109.23 73.8315 1108.56 74.3175C1107.88 74.7976 1107.07 75.0586 1106.11 75.1006ZM1113.26 74.5168L1111.94 74.5747L1111.51 64.864L1112.84 64.8061L1113.26 74.5168ZM1112.1 63.1629C1111.84 63.1742 1111.62 63.0969 1111.43 62.9309C1111.25 62.7647 1111.15 62.5527 1111.14 62.295C1111.13 62.0312 1111.21 61.8086 1111.37 61.6272C1111.54 61.4454 1111.76 61.3489 1112.02 61.3376C1112.28 61.3261 1112.5 61.4064 1112.69 61.5786C1112.87 61.7446 1112.97 61.9564 1112.98 62.2142C1112.99 62.4719 1112.91 62.6917 1112.74 62.8734C1112.58 63.0548 1112.36 63.1513 1112.1 63.1629ZM1117.89 65.7196L1118.11 70.7278L1118.13 71.2583C1118.15 71.558 1118.17 71.8003 1118.2 71.985C1118.23 72.1638 1118.3 72.3233 1118.39 72.4635C1118.54 72.7329 1118.76 72.9217 1119.03 73.0297C1119.31 73.1378 1119.65 73.1829 1120.06 73.165C1120.4 73.15 1120.78 73.0974 1121.19 73.0071L1121.24 74.167C1120.77 74.2839 1120.32 74.3514 1119.91 74.3695C1119.29 74.3966 1118.75 74.3153 1118.28 74.1258C1117.81 73.9362 1117.45 73.6215 1117.21 73.1816C1117.07 72.9294 1116.98 72.6693 1116.92 72.4014C1116.88 72.1333 1116.84 71.7984 1116.83 71.3968L1116.8 70.8393L1116.58 65.7772L1114.5 65.8682L1114.45 64.7353L1116.53 64.6442L1116.41 61.9468L1117.72 61.8893L1117.84 64.5867L1120.82 64.4563L1120.87 65.5892L1117.89 65.7196ZM1126.45 72.2091L1129.04 64.0959L1130.39 64.0368L1125.79 78.2919L1124.47 78.3498L1125.88 73.9369L1121.51 64.4262L1122.91 64.3647L1126.45 72.2091Z" fill="black"/>
<path d="M1250.54 147.122L1249.21 147.18L1249.1 144.672L1243.04 144.937L1242.99 143.679L1246.92 134.309L1248.4 134.244L1244.47 143.614L1249.05 143.413L1248.88 139.637L1250.21 139.578L1250.38 143.355L1251.79 143.293L1251.85 144.552L1250.43 144.614L1250.54 147.122ZM1257.43 138.767C1258.2 138.727 1258.89 138.868 1259.51 139.189C1260.12 139.504 1260.61 139.967 1260.97 140.576C1261.32 141.185 1261.52 141.888 1261.55 142.685C1261.59 143.5 1261.45 144.236 1261.12 144.893C1260.79 145.544 1260.32 146.063 1259.71 146.45C1259.1 146.831 1258.4 147.039 1257.61 147.074C1256.98 147.102 1256.38 147.014 1255.83 146.81C1255.28 146.605 1254.8 146.299 1254.39 145.891C1253.98 145.482 1253.67 144.991 1253.47 144.418L1254.71 143.985C1254.95 144.593 1255.31 145.055 1255.8 145.369C1256.29 145.684 1256.85 145.828 1257.47 145.801C1258.05 145.775 1258.55 145.633 1258.96 145.375C1259.38 145.11 1259.7 144.751 1259.9 144.298C1260.12 143.844 1260.21 143.326 1260.19 142.745C1260.16 142.163 1260.02 141.656 1259.77 141.223C1259.52 140.789 1259.17 140.462 1258.74 140.241C1258.31 140.014 1257.81 139.912 1257.26 139.936C1257.03 139.946 1256.79 139.99 1256.53 140.067C1256.27 140.145 1256.04 140.242 1255.82 140.36L1255.11 139.337L1259.38 135.033L1253.58 135.287L1253.53 134.019L1261.01 133.691L1261.06 134.977L1257.43 138.767ZM1266.82 139.652C1266.23 139.678 1265.69 139.558 1265.18 139.292C1264.67 139.026 1264.26 138.65 1263.95 138.166C1263.64 137.681 1263.47 137.145 1263.44 136.557C1263.42 135.982 1263.54 135.439 1263.81 134.929C1264.09 134.418 1264.47 134.005 1264.96 133.689C1265.44 133.374 1265.97 133.203 1266.54 133.179C1267.13 133.153 1267.67 133.273 1268.18 133.539C1268.69 133.805 1269.1 134.181 1269.4 134.665C1269.72 135.15 1269.89 135.686 1269.92 136.274C1269.94 136.861 1269.82 137.41 1269.55 137.92C1269.28 138.43 1268.91 138.84 1268.42 139.15C1267.94 139.459 1267.41 139.627 1266.82 139.652ZM1276.87 133.888L1265.32 146.475L1264.38 145.615L1275.93 133.037L1276.87 133.888ZM1266.77 138.456C1267.13 138.441 1267.46 138.333 1267.76 138.134C1268.07 137.934 1268.31 137.674 1268.49 137.354C1268.66 137.028 1268.74 136.686 1268.72 136.326C1268.71 135.966 1268.6 135.635 1268.4 135.331C1268.2 135.022 1267.94 134.781 1267.61 134.609C1267.29 134.437 1266.95 134.359 1266.59 134.374C1266.23 134.39 1265.9 134.498 1265.59 134.698C1265.28 134.897 1265.05 135.16 1264.87 135.486C1264.7 135.805 1264.62 136.145 1264.64 136.505C1264.65 136.865 1264.76 137.199 1264.96 137.509C1265.16 137.812 1265.42 138.05 1265.74 138.222C1266.07 138.394 1266.41 138.472 1266.77 138.456ZM1274.71 146.333C1274.12 146.359 1273.57 146.239 1273.06 145.973C1272.56 145.707 1272.15 145.332 1271.83 144.847C1271.52 144.362 1271.36 143.826 1271.33 143.238C1271.3 142.663 1271.43 142.12 1271.7 141.61C1271.98 141.099 1272.36 140.686 1272.84 140.37C1273.33 140.055 1273.86 139.885 1274.43 139.86C1275.01 139.834 1275.56 139.954 1276.06 140.22C1276.57 140.486 1276.98 140.862 1277.29 141.347C1277.61 141.831 1277.78 142.367 1277.8 142.955C1277.83 143.542 1277.71 144.091 1277.43 144.601C1277.17 145.112 1276.79 145.521 1276.31 145.831C1275.83 146.14 1275.3 146.308 1274.71 146.333ZM1274.66 145.138C1275.02 145.122 1275.35 145.014 1275.65 144.815C1275.96 144.615 1276.2 144.355 1276.37 144.035C1276.55 143.709 1276.62 143.367 1276.61 143.007C1276.59 142.647 1276.48 142.316 1276.29 142.012C1276.09 141.703 1275.82 141.462 1275.5 141.29C1275.18 141.118 1274.84 141.04 1274.48 141.055C1274.11 141.071 1273.77 141.179 1273.46 141.379C1273.16 141.579 1272.92 141.841 1272.75 142.167C1272.58 142.487 1272.5 142.827 1272.52 143.186C1272.53 143.546 1272.64 143.881 1272.84 144.19C1273.04 144.494 1273.3 144.732 1273.62 144.904C1273.95 145.076 1274.29 145.154 1274.66 145.138Z" fill="black"/>
<rect x="1068.16" y="99.2432" width="429.551" height="28.2276" rx="14.1138" transform="rotate(-2.50938 1068.16 99.2432)" fill="#F2F2F2"/>
<rect x="1068.16" y="99.2432" width="204.957" height="28.2276" rx="14.1138" transform="rotate(-2.50938 1068.16 99.2432)" fill="#FFBBE1"/>
<rect x="1244.71" y="91.5051" width="28.2276" height="28.2276" rx="14.1138" transform="rotate(-2.50938 1244.71 91.5051)" fill="white"/>
<rect x="1251.11" y="97.3669" width="15.9548" height="15.9548" rx="7.97738" transform="rotate(-2.50938 1251.11 97.3669)" fill="#FFBBE1"/>
<rect x="62.5586" y="25.2822" width="285.041" height="44.6659" rx="5.2819" transform="rotate(2 62.5586 25.2822)" fill="#F2F2F2"/>
<path d="M76.7093 45.4005L86.6675 36.1144C87.4348 35.3988 88.6298 36.2557 88.1983 37.212L84.2426 45.9788C83.9616 46.6014 84.402 47.3101 85.0847 47.3339L87.544 47.4198C88.3679 47.4486 88.7752 48.4336 88.2122 49.0359L78.1512 59.7987C77.4171 60.584 76.1441 59.7548 76.5657 58.7659L80.9444 48.4965C81.2089 47.876 80.7684 47.1832 80.0942 47.1596L77.3309 47.0632C76.4756 47.0333 76.0834 45.9842 76.7093 45.4005Z" fill="black"/>
<path d="M105.622 55.6366L106.074 42.6845L110.067 42.824C110.751 42.8479 111.296 42.8939 111.702 42.9621C112.669 43.122 113.484 43.5106 114.146 44.1281C114.809 44.7397 115.299 45.5132 115.614 46.4488C115.93 47.3784 116.068 48.4008 116.029 49.5161C115.99 50.6375 115.781 51.6538 115.401 52.5651C115.021 53.4704 114.479 54.2049 113.775 54.7687C113.071 55.3324 112.231 55.6603 111.255 55.7523C110.851 55.7923 110.305 55.8002 109.615 55.7761L105.622 55.6366ZM109.668 54.247C110.328 54.2701 110.83 54.2546 111.174 54.2006C112.188 54.0498 112.956 53.5423 113.479 52.6781C114.001 51.8138 114.285 50.74 114.33 49.4568C114.375 48.1616 114.164 47.0675 113.697 46.1747C113.236 45.2761 112.508 44.7193 111.513 44.5045C111.173 44.4266 110.674 44.3761 110.014 44.3531L107.666 44.2711L107.321 54.1651L109.668 54.247ZM119.198 51.6981C119.229 52.7138 119.486 53.5032 119.971 54.0665C120.462 54.6299 121.154 54.9273 122.047 54.9585C122.683 54.9807 123.243 54.8531 123.727 54.5759C124.217 54.2988 124.606 53.8891 124.895 53.3469L126.415 53.9313C126.007 54.7696 125.417 55.4124 124.645 55.8597C123.873 56.307 123.013 56.5142 122.066 56.4811C121.119 56.448 120.292 56.209 119.588 55.7641C118.889 55.3195 118.355 54.7065 117.986 53.9251C117.623 53.144 117.459 52.2527 117.494 51.2513C117.53 50.2019 117.754 49.2942 118.165 48.5281C118.582 47.7562 119.149 47.1726 119.865 46.7774C120.588 46.3763 121.417 46.1921 122.352 46.2248C123.282 46.2573 124.075 46.4951 124.732 46.9383C125.395 47.3757 125.893 47.9904 126.225 48.7825C126.558 49.5686 126.706 50.4953 126.668 51.5627C126.662 51.7366 126.655 51.8684 126.646 51.9581L119.198 51.6981ZM122.356 47.6658C121.486 47.6354 120.791 47.8543 120.271 48.3224C119.75 48.7906 119.416 49.4873 119.27 50.4128L125.027 50.6138C124.895 48.7061 124.005 47.7234 122.356 47.6658ZM132.155 56.8244C131.387 56.7976 130.711 56.6599 130.125 56.4113C129.539 56.1627 129.068 55.816 128.712 55.3713C128.355 54.9266 128.133 54.3995 128.046 53.7901L129.692 53.5865C129.806 54.1247 130.094 54.5551 130.557 54.8774C131.02 55.1998 131.602 55.3732 132.304 55.3977C132.963 55.4207 133.487 55.3039 133.874 55.0473C134.267 54.7849 134.473 54.4138 134.489 53.9341C134.499 53.6463 134.441 53.4191 134.315 53.2526C134.195 53.0863 133.951 52.9247 133.584 52.7678C133.218 52.6049 132.625 52.3981 131.805 52.1473C130.944 51.8831 130.274 51.6226 129.797 51.3658C129.32 51.1029 128.982 50.809 128.783 50.4838C128.584 50.1587 128.493 49.7593 128.51 49.2856C128.53 48.7219 128.703 48.2327 129.029 47.8178C129.356 47.397 129.806 47.0794 130.377 46.8653C130.949 46.6451 131.604 46.5479 132.342 46.5737C133.073 46.5992 133.726 46.7421 134.299 47.0022C134.879 47.2566 135.338 47.6058 135.676 48.0499C136.021 48.4882 136.217 48.9904 136.263 49.5563L134.616 49.796C134.556 49.2656 134.307 48.8396 133.868 48.5181C133.435 48.1968 132.871 48.024 132.175 47.9997C131.779 47.9859 131.426 48.0306 131.117 48.1338C130.813 48.2313 130.574 48.379 130.399 48.5771C130.224 48.7691 130.132 48.997 130.123 49.2608C130.114 49.5067 130.179 49.7131 130.317 49.88C130.461 50.0471 130.726 50.2125 131.11 50.376C131.495 50.5335 132.074 50.7248 132.846 50.9499C133.708 51.2022 134.377 51.4627 134.854 51.7315C135.331 52.0003 135.669 52.3092 135.867 52.6584C136.071 53.0077 136.164 53.4372 136.146 53.9469C136.124 54.5705 135.949 55.1047 135.622 55.5496C135.294 55.9884 134.835 56.3176 134.245 56.5371C133.655 56.7567 132.958 56.8524 132.155 56.8244ZM139.814 56.8307L138.213 56.7748L138.553 47.0607L140.154 47.1166L139.814 56.8307ZM139.405 45.5866C139.112 45.5763 138.866 45.4687 138.669 45.2637C138.479 45.0529 138.388 44.8006 138.399 44.5068C138.409 44.2129 138.516 43.9706 138.721 43.7796C138.932 43.5828 139.185 43.4896 139.478 43.4998C139.778 43.5103 140.023 43.6209 140.214 43.8317C140.411 44.0367 140.505 44.2861 140.494 44.58C140.484 44.8738 140.373 45.1191 140.162 45.3158C139.958 45.5068 139.705 45.597 139.405 45.5866ZM149.706 47.4502L151.127 47.4998L150.786 57.2769C150.766 57.8585 150.709 58.3548 150.617 58.7659C150.396 59.7728 149.913 60.5154 149.17 60.9937C148.427 61.4721 147.465 61.6906 146.284 61.6494C145.486 61.6215 144.749 61.4127 144.072 61.0228C143.401 60.6392 142.883 60.0928 142.517 59.3836L144.01 58.6612C144.222 59.1249 144.537 59.4751 144.955 59.7119C145.379 59.9548 145.843 60.0851 146.347 60.1026C148.181 60.1667 149.125 59.2001 149.176 57.2026L149.209 56.2672C148.842 56.6266 148.416 56.8999 147.929 57.087C147.442 57.2682 146.905 57.3485 146.317 57.3279C145.43 57.2969 144.664 57.0481 144.02 56.5813C143.382 56.1088 142.9 55.4795 142.573 54.6937C142.252 53.902 142.109 53.0175 142.143 52.04C142.177 51.0686 142.382 50.2022 142.756 49.4409C143.137 48.6737 143.663 48.0797 144.332 47.6587C145.007 47.2381 145.785 47.0431 146.666 47.0739C147.314 47.0965 147.889 47.2336 148.39 47.4853C148.892 47.7369 149.318 48.088 149.668 48.5385L149.706 47.4502ZM146.566 55.8687C147.508 55.9016 148.227 55.5935 148.724 54.9445C149.227 54.2956 149.498 53.4136 149.537 52.2982C149.576 51.1829 149.37 50.2872 148.919 49.611C148.469 48.9349 147.785 48.5808 146.867 48.5488C146.231 48.5266 145.689 48.6667 145.24 48.9693C144.798 49.272 144.459 49.6954 144.223 50.2395C143.995 50.7779 143.868 51.3978 143.843 52.0994C143.819 52.807 143.902 53.4403 144.092 53.9993C144.289 54.5585 144.594 55.0044 145.009 55.3371C145.43 55.67 145.949 55.8472 146.566 55.8687ZM158.316 47.4987C159.287 47.5326 160.052 47.7995 160.611 48.2993C161.17 48.7991 161.551 49.4008 161.755 50.1043C161.959 50.8018 162.048 51.5104 162.023 52.2299L161.835 57.5997L160.216 57.5431L160.386 52.6771C160.423 51.6337 160.249 50.7691 159.864 50.0833C159.486 49.3977 158.823 49.0383 157.876 49.0053C157.048 48.9764 156.385 49.2354 155.885 49.7823C155.392 50.3234 155.127 51.1426 155.088 52.2399L154.91 57.3578L153.291 57.3013L153.63 47.5872L155.069 47.6375L155.025 48.8877C155.408 48.4148 155.877 48.0589 156.431 47.8201C156.992 47.5815 157.62 47.4744 158.316 47.4987ZM175.564 58.0791L167.955 57.8134L168.407 44.8613L170.008 44.9172L169.609 56.3492L175.617 56.559L175.564 58.0791ZM178.418 53.7661C178.449 54.7818 178.706 55.5712 179.191 56.1345C179.681 56.6979 180.373 56.9953 181.267 57.0265C181.903 57.0487 182.462 56.9211 182.946 56.6439C183.436 56.3668 183.826 55.9571 184.115 55.4149L185.634 55.9993C185.227 56.8376 184.637 57.4804 183.865 57.9277C183.093 58.375 182.233 58.5821 181.286 58.5491C180.338 58.516 179.512 58.277 178.807 57.8321C178.108 57.3875 177.574 56.7745 177.206 55.9931C176.843 55.212 176.679 54.3207 176.714 53.3193C176.75 52.2699 176.974 51.3622 177.385 50.5961C177.802 49.8242 178.369 49.2406 179.085 48.8454C179.808 48.4443 180.636 48.2601 181.572 48.2928C182.501 48.3253 183.295 48.5631 183.951 49.0063C184.615 49.4437 185.112 50.0584 185.445 50.8505C185.778 51.6366 185.926 52.5633 185.888 53.6307C185.882 53.8046 185.875 53.9364 185.865 54.0261L178.418 53.7661ZM181.576 49.7338C180.706 49.7034 180.011 49.9223 179.49 50.3904C178.97 50.8586 178.636 51.5553 178.49 52.4808L184.246 52.6818C184.115 50.7741 183.225 49.7914 181.576 49.7338ZM195.286 50.6719C195.403 50.9521 195.476 51.2608 195.506 51.5981C195.536 51.9294 195.544 52.3169 195.528 52.7606L195.319 58.7689L193.898 58.7193L193.95 57.2082C193.135 58.3685 191.915 58.9203 190.29 58.8635C189.589 58.839 188.994 58.6891 188.505 58.4139C188.016 58.1327 187.654 57.7688 187.417 57.3223C187.181 56.8758 187.072 56.3857 187.09 55.852C187.14 54.4189 187.968 53.4962 189.574 53.084C190.046 52.9744 190.586 52.8822 191.195 52.8074C191.804 52.7326 192.533 52.653 193.383 52.5686L193.961 52.5078C193.965 51.7214 193.787 51.1388 193.428 50.7601C193.069 50.3753 192.476 50.1685 191.649 50.1396C191.037 50.1182 190.507 50.2408 190.06 50.5074C189.618 50.7681 189.304 51.1834 189.116 51.7532L187.612 51.2414C187.876 50.3801 188.355 49.7244 189.049 49.2744C189.75 48.8185 190.639 48.6094 191.719 48.6471C192.612 48.6783 193.365 48.8667 193.977 49.2123C194.596 49.5521 195.032 50.0386 195.286 50.6719ZM190.58 57.5318C191.138 57.5513 191.633 57.4695 192.065 57.2865C192.498 57.0975 192.852 56.8397 193.128 56.5131C193.404 56.1805 193.588 55.8087 193.68 55.3977C193.747 55.1959 193.794 54.9694 193.821 54.7182C193.854 54.4672 193.879 54.1859 193.896 53.8743L193.453 53.9129C192.604 53.9973 191.95 54.0675 191.491 54.1235C191.039 54.1798 190.625 54.2554 190.25 54.3503C189.783 54.4781 189.407 54.6631 189.123 54.9053C188.844 55.1478 188.697 55.4789 188.683 55.8986C188.673 56.1804 188.733 56.4437 188.862 56.6883C188.992 56.927 189.201 57.1234 189.49 57.2776C189.779 57.4318 190.142 57.5165 190.58 57.5318ZM204.783 46.1316L206.393 46.1878L205.941 59.1399L204.511 59.0899L204.549 57.9926C204.168 58.4176 203.719 58.7411 203.201 58.9631C202.683 59.1792 202.103 59.276 201.461 59.2536C200.574 59.2226 199.808 58.9737 199.164 58.507C198.526 58.0344 198.044 57.4052 197.717 56.6193C197.397 55.8277 197.253 54.9431 197.287 53.9657C197.321 52.9943 197.526 52.1279 197.901 51.3665C198.282 50.5994 198.807 50.0053 199.476 49.5844C200.151 49.1637 200.929 48.9688 201.811 48.9996C202.404 49.0203 202.937 49.138 203.41 49.3526C203.889 49.5674 204.299 49.8669 204.64 50.251L204.783 46.1316ZM201.711 57.7944C202.652 57.8273 203.371 57.5192 203.868 56.8702C204.371 56.2213 204.642 55.3392 204.681 54.2239C204.72 53.1086 204.514 52.2129 204.063 51.5367C203.613 50.8606 202.929 50.5065 202.011 50.4745C201.376 50.4523 200.833 50.5924 200.385 50.8949C199.942 51.1977 199.603 51.6211 199.368 52.1652C199.139 52.7036 199.012 53.3235 198.987 54.0251C198.963 54.7327 199.046 55.3659 199.236 55.9249C199.433 56.4841 199.739 56.9301 200.153 57.2627C200.574 57.5956 201.093 57.7729 201.711 57.7944ZM212.122 59.6169C211.354 59.5901 210.678 59.4524 210.092 59.2038C209.506 58.9552 209.035 58.6085 208.678 58.1638C208.322 57.7191 208.1 57.192 208.013 56.5826L209.659 56.379C209.773 56.9172 210.061 57.3476 210.524 57.6699C210.987 57.9923 211.569 58.1657 212.271 58.1902C212.93 58.2132 213.454 58.0964 213.841 57.8398C214.234 57.5774 214.439 57.2063 214.456 56.7266C214.466 56.4388 214.408 56.2116 214.282 56.0451C214.162 55.8788 213.918 55.7172 213.551 55.5603C213.185 55.3974 212.592 55.1906 211.772 54.9398C210.911 54.6756 210.241 54.4151 209.764 54.1583C209.287 53.8955 208.949 53.6015 208.75 53.2763C208.551 52.9512 208.46 52.5518 208.477 52.0781C208.496 51.5144 208.67 51.0252 208.996 50.6103C209.323 50.1895 209.773 49.872 210.344 49.6578C210.916 49.4376 211.571 49.3404 212.309 49.3662C213.04 49.3917 213.693 49.5346 214.266 49.7947C214.845 50.0491 215.305 50.3983 215.643 50.8424C215.988 51.2807 216.184 51.7829 216.23 52.3488L214.583 52.5885C214.523 52.0581 214.274 51.6321 213.835 51.3106C213.402 50.9893 212.837 50.8165 212.142 50.7922C211.746 50.7784 211.393 50.8231 211.084 50.9263C210.78 51.0238 210.541 51.1715 210.366 51.3696C210.191 51.5616 210.099 51.7895 210.09 52.0533C210.081 52.2992 210.146 52.5056 210.284 52.6725C210.428 52.8396 210.693 53.005 211.077 53.1685C211.462 53.326 212.041 53.5173 212.813 53.7424C213.675 53.9947 214.344 54.2552 214.821 54.524C215.298 54.7928 215.636 55.1018 215.833 55.4509C216.037 55.8002 216.13 56.2297 216.113 56.7394C216.091 57.363 215.916 57.8973 215.588 58.3421C215.261 58.7809 214.802 59.1101 214.212 59.3297C213.622 59.5492 212.925 59.6449 212.122 59.6169ZM223.016 49.7581C223.988 49.792 224.753 50.0589 225.312 50.5587C225.871 51.0585 226.252 51.6602 226.456 52.3637C226.659 53.0612 226.749 53.7698 226.724 54.4893L226.536 59.8591L224.917 59.8025L225.087 54.9365C225.123 53.8931 224.95 53.0285 224.565 52.3427C224.187 51.6571 223.524 51.2977 222.577 51.2647C221.749 51.2358 221.086 51.4948 220.586 52.0417C220.093 52.5828 219.827 53.402 219.789 54.4993L219.61 59.6172L217.991 59.5607L218.444 46.6086L219.883 46.6588L219.726 51.1471C220.109 50.6742 220.577 50.3183 221.132 50.0795C221.693 49.8409 222.321 49.7338 223.016 49.7581ZM230.655 60.0029L229.054 59.947L229.394 50.2329L230.995 50.2888L230.655 60.0029ZM230.247 48.7588C229.953 48.7485 229.707 48.6409 229.51 48.4359C229.32 48.2251 229.229 47.9728 229.24 47.679C229.25 47.3852 229.357 47.1428 229.562 46.9518C229.773 46.7551 230.026 46.6618 230.319 46.6721C230.619 46.6826 230.865 46.7932 231.055 47.004C231.252 47.209 231.346 47.4584 231.335 47.7522C231.325 48.046 231.215 48.2913 231.004 48.4881C230.799 48.679 230.546 48.7693 230.247 48.7588ZM238.173 50.2694C239.055 50.3001 239.814 50.5488 240.452 51.0154C241.097 51.4821 241.579 52.1113 241.899 52.903C242.226 53.6889 242.373 54.5675 242.339 55.5389C242.305 56.5164 242.097 57.3886 241.716 58.1558C241.341 58.9172 240.816 59.5112 240.141 59.9379C239.472 60.3588 238.694 60.5538 237.806 60.5228C237.212 60.5021 236.679 60.3844 236.206 60.1698C235.734 59.9491 235.327 59.6438 234.987 59.2536L234.804 64.4704L233.194 64.4142L233.684 50.3828L235.115 50.4327L235.077 51.5211C235.458 51.0961 235.907 50.7756 236.425 50.5595C236.943 50.3435 237.526 50.2467 238.173 50.2694ZM237.659 59.0498C238.277 59.0713 238.804 58.9307 239.241 58.6277C239.684 58.325 240.02 57.9015 240.249 57.3571C240.484 56.813 240.614 56.1872 240.639 55.4796C240.663 54.778 240.577 54.1506 240.38 53.5974C240.19 53.0384 239.881 52.5924 239.454 52.2593C239.034 51.9264 238.506 51.7489 237.87 51.7267C236.953 51.6946 236.246 52.0001 235.749 52.6432C235.252 53.2863 234.984 54.1654 234.945 55.2808C234.906 56.3961 235.112 57.2948 235.563 57.9769C236.019 58.6593 236.718 59.0169 237.659 59.0498ZM249.343 60.6555L247.742 60.5996L248.194 47.6475L249.795 47.7034L249.596 53.4149L256.414 53.653L256.613 47.9415L258.214 47.9974L257.762 60.9495L256.161 60.8936L256.361 55.1731L249.543 54.935L249.343 60.6555ZM268.033 53.2122C268.149 53.4925 268.222 53.8012 268.253 54.1385C268.283 54.4697 268.291 54.8572 268.275 55.301L268.065 61.3093L266.644 61.2597L266.697 59.7486C265.882 60.9089 264.662 61.4606 263.037 61.4039C262.335 61.3794 261.74 61.2295 261.252 60.9543C260.763 60.6731 260.401 60.3092 260.164 59.8627C259.927 59.4161 259.818 58.926 259.837 58.3924C259.887 56.9592 260.715 56.0366 262.32 55.6243C262.792 55.5148 263.333 55.4226 263.942 55.3478C264.551 55.273 265.28 55.1934 266.13 55.109L266.708 55.0481C266.711 54.2618 266.534 53.6792 266.175 53.3004C265.816 52.9157 265.223 52.7089 264.395 52.68C263.784 52.6586 263.254 52.7812 262.806 53.0477C262.365 53.3085 262.05 53.7238 261.862 54.2936L260.358 53.7818C260.623 52.9204 261.102 52.2648 261.796 51.8147C262.496 51.3589 263.386 51.1498 264.465 51.1875C265.359 51.2187 266.112 51.4071 266.724 51.7527C267.343 52.0925 267.779 52.579 268.033 53.2122ZM263.327 60.0722C263.884 60.0917 264.379 60.0099 264.812 59.8269C265.245 59.6379 265.599 59.3801 265.875 59.0535C266.15 58.7209 266.335 58.3491 266.427 57.9381C266.494 57.7363 266.541 57.5098 266.568 57.2586C266.601 57.0076 266.625 56.7263 266.642 56.4147L266.2 56.4532C265.35 56.5376 264.696 56.6079 264.238 56.6639C263.786 56.7202 263.372 56.7958 262.996 56.8907C262.53 57.0185 262.154 57.2035 261.869 57.4457C261.591 57.6881 261.444 58.0192 261.429 58.439C261.42 58.7208 261.479 58.984 261.609 59.2287C261.739 59.4674 261.948 59.6638 262.237 59.818C262.526 59.9722 262.889 60.0569 263.327 60.0722ZM275.42 51.5881C276.391 51.622 277.157 51.8889 277.716 52.3887C278.274 52.8885 278.656 53.4901 278.859 54.1937C279.063 54.8912 279.152 55.5998 279.127 56.3193L278.94 61.689L277.321 61.6325L277.491 56.7665C277.527 55.7231 277.353 54.8585 276.969 54.1727C276.591 53.4871 275.928 53.1277 274.98 53.0946C274.153 53.0657 273.489 53.3247 272.99 53.8716C272.497 54.4128 272.231 55.232 272.193 56.3293L272.014 61.4472L270.395 61.3907L270.734 51.6766L272.173 51.7268L272.13 52.9771C272.512 52.5041 272.981 52.1483 273.536 51.9095C274.096 51.6709 274.724 51.5638 275.42 51.5881ZM288.317 49.0486L289.927 49.1048L289.474 62.0569L288.044 62.007L288.082 60.9097C287.701 61.3346 287.252 61.6581 286.734 61.8802C286.216 62.0962 285.636 62.1931 284.995 62.1707C284.107 62.1397 283.341 61.8908 282.697 61.424C282.059 60.9515 281.577 60.3223 281.25 59.5364C280.93 58.7447 280.786 57.8602 280.821 56.8828C280.854 55.9114 281.059 55.045 281.434 54.2836C281.815 53.5164 282.34 52.9224 283.009 52.5015C283.684 52.0808 284.462 51.8858 285.344 51.9166C285.937 51.9373 286.47 52.055 286.943 52.2696C287.422 52.4845 287.832 52.784 288.173 53.1681L288.317 49.0486ZM285.244 60.7115C286.185 60.7443 286.904 60.4362 287.401 59.7872C287.904 59.1384 288.175 58.2563 288.214 57.1409C288.253 56.0256 288.047 55.1299 287.596 54.4538C287.146 53.7776 286.462 53.4235 285.544 53.3915C284.909 53.3693 284.366 53.5095 283.918 53.812C283.475 54.1147 283.136 54.5381 282.901 55.0823C282.672 55.6206 282.545 56.2406 282.521 56.9421C282.496 57.6497 282.579 58.283 282.769 58.842C282.966 59.4012 283.272 59.8471 283.686 60.1798C284.107 60.5127 284.626 60.6899 285.244 60.7115ZM299.51 55.5452C300.154 55.8439 300.646 56.2753 300.987 56.8395C301.333 57.404 301.494 58.046 301.469 58.7655C301.443 59.5151 301.264 60.1632 300.933 60.71C300.601 61.2568 300.14 61.6729 299.547 61.9584C298.961 62.2381 298.275 62.3643 297.49 62.3368L291.994 62.1449L292.447 49.1928L297.492 49.369C298.242 49.3952 298.887 49.5738 299.428 49.9049C299.975 50.2362 300.386 50.6678 300.662 51.1997C300.943 51.7319 301.073 52.3008 301.052 52.9064C301.032 53.4941 300.884 54.0202 300.61 54.4849C300.342 54.9439 299.975 55.2973 299.51 55.5452ZM294.013 50.7604L293.877 54.6551L297.286 54.7741C297.669 54.7875 298.02 54.7187 298.338 54.5677C298.655 54.4107 298.909 54.1854 299.1 53.8919C299.29 53.5923 299.392 53.2447 299.406 52.8489C299.419 52.4832 299.343 52.1533 299.18 51.8594C299.016 51.5655 298.781 51.3322 298.475 51.1594C298.174 50.9868 297.823 50.8935 297.422 50.8795L294.013 50.7604ZM297.237 60.7971C297.717 60.8138 298.149 60.7419 298.533 60.5812C298.923 60.4147 299.232 60.1703 299.459 59.848C299.686 59.5258 299.808 59.1428 299.823 58.6991C299.838 58.2673 299.753 57.8711 299.568 57.5104C299.382 57.1497 299.116 56.8613 298.769 56.645C298.423 56.4288 298.024 56.3128 297.575 56.2971L293.824 56.1661L293.667 60.6724L297.237 60.7971ZM307.26 62.9482C306.307 62.9149 305.484 62.67 304.791 62.2136C304.105 61.7513 303.586 61.1269 303.236 60.3401C302.885 59.5474 302.727 58.6504 302.762 57.649C302.797 56.6416 303.02 55.7578 303.431 54.9977C303.842 54.2376 304.409 53.657 305.131 53.256C305.854 52.8489 306.683 52.6618 307.618 52.6944C308.572 52.7277 309.394 52.9726 310.087 53.429C310.779 53.8855 311.301 54.5071 311.652 55.2938C312.003 56.0805 312.161 56.9746 312.126 57.976C312.09 58.9893 311.867 59.8791 311.456 60.6452C311.051 61.4056 310.487 61.9892 309.765 62.3963C309.042 62.7973 308.207 62.9813 307.26 62.9482ZM307.313 61.4281C308.291 61.4622 309.042 61.1643 309.569 60.5343C310.101 59.8985 310.387 59.0259 310.426 57.9166C310.465 56.7953 310.241 55.9079 309.753 55.2545C309.266 54.5951 308.536 54.2484 307.565 54.2145C306.582 54.1802 305.827 54.478 305.3 55.108C304.78 55.7382 304.501 56.605 304.462 57.7083C304.423 58.8297 304.647 59.723 305.134 60.3884C305.627 61.048 306.354 61.3946 307.313 61.4281ZM318.064 63.3255C317.111 63.2922 316.288 63.0473 315.595 62.5909C314.909 62.1286 314.39 61.5041 314.04 60.7174C313.689 59.9247 313.531 59.0277 313.566 58.0263C313.601 57.0189 313.824 56.1351 314.235 55.375C314.646 54.6149 315.213 54.0343 315.935 53.6333C316.658 53.2262 317.487 53.0391 318.422 53.0717C319.375 53.105 320.198 53.3499 320.891 53.8063C321.583 54.2628 322.105 54.8844 322.456 55.6711C322.807 56.4578 322.964 57.3519 322.929 58.3532C322.894 59.3666 322.671 60.2564 322.26 61.0225C321.855 61.7828 321.291 62.3665 320.569 62.7735C319.846 63.1746 319.011 63.3586 318.064 63.3255ZM318.117 61.8054C319.094 61.8395 319.846 61.5416 320.373 60.9116C320.905 60.2758 321.191 59.4032 321.23 58.2939C321.269 57.1726 321.045 56.2852 320.557 55.6318C320.07 54.9724 319.34 54.6257 318.369 54.5918C317.386 54.5574 316.631 54.8553 316.104 55.4853C315.584 56.1155 315.305 56.9823 315.266 58.0856C315.227 59.2069 315.451 60.1003 315.938 60.7657C316.431 61.4253 317.158 61.7719 318.117 61.8054ZM332.7 63.5664L330.865 63.5023L327.374 58.7786L326.397 59.6721L326.269 63.3418L324.731 63.2881L325.192 50.3363L326.721 50.3897L326.467 57.6843L330.845 53.7757L332.787 53.8435L328.444 57.7983L332.7 63.5664Z" fill="black"/>
<path d="M1052.9 222.018C1008.74 266.298 996.757 327.205 992.656 367.538C991.609 377.828 999.395 386.853 1009.73 387.086C1080.45 388.682 1133.18 363.556 1162.31 338.456C1166.86 334.535 1168.86 328.447 1167.7 322.552C1153.5 250.2 1102.95 225.659 1068.63 217.509C1062.96 216.162 1057.01 217.888 1052.9 222.018Z" fill="#4200FF"/>
<path d="M1052.56 221.89C1027.55 246.975 1012.85 277.397 1004.07 306.391C1020.11 262.061 1070.12 191.388 1141.85 263.34C1120.23 235.105 1090.79 222.731 1068.31 217.391C1062.63 216.043 1056.68 217.761 1052.56 221.89Z" fill="#F2F2F2"/>
<path d="M994.185 358.706C993.797 361.821 993.459 364.843 993.163 367.758C992.116 378.047 999.9 387.094 1010.24 387.328C1081.42 388.934 1134.38 363.467 1163.38 338.204C1115.58 376.438 1004.65 399.165 994.185 358.706Z" fill="#4837FF"/>
<path fill-rule="evenodd" clip-rule="evenodd" d="M1066.35 275.987C1065.61 276.546 1064.9 277.177 1064.2 277.88C1061.89 280.219 1060.37 282.827 1059.65 285.705C1058.96 288.55 1059.05 291.439 1059.94 294.371C1060.87 297.272 1062.59 299.973 1065.13 302.476C1067.66 304.979 1070.38 306.673 1073.29 307.56C1076.24 308.413 1079.13 308.477 1081.96 307.749C1084.83 306.989 1087.42 305.44 1089.73 303.102C1090.43 302.398 1091.05 301.674 1091.6 300.928L1087.97 297.339C1087.48 298.123 1086.88 298.872 1086.17 299.588C1084.57 301.212 1082.77 302.288 1080.77 302.817C1078.77 303.281 1076.74 303.196 1074.67 302.563C1072.56 301.898 1070.59 300.651 1068.74 298.822C1066.85 296.961 1065.58 294.999 1064.92 292.937C1064.27 290.875 1064.17 288.857 1064.64 286.885C1065.12 284.848 1066.15 283.018 1067.76 281.394C1068.47 280.678 1069.21 280.075 1070 279.585L1066.35 275.987Z" fill="white"/>
<path fill-rule="evenodd" clip-rule="evenodd" d="M1103.42 314.746C1104.17 314.213 1104.91 313.607 1105.63 312.928C1108.02 310.671 1109.63 308.118 1110.45 305.267C1111.25 302.448 1111.25 299.557 1110.46 296.595C1109.64 293.665 1108.01 290.905 1105.57 288.315C1103.12 285.725 1100.46 283.937 1097.58 282.95C1094.67 281.994 1091.78 281.83 1088.92 282.458C1086.03 283.117 1083.39 284.575 1081 286.831C1080.28 287.511 1079.63 288.213 1079.06 288.939L1082.56 292.652C1083.08 291.886 1083.7 291.158 1084.43 290.467C1086.09 288.9 1087.93 287.887 1089.94 287.429C1091.96 287.034 1093.99 287.19 1096.03 287.895C1098.11 288.633 1100.04 289.948 1101.83 291.841C1103.65 293.767 1104.85 295.771 1105.44 297.855C1106.02 299.939 1106.04 301.958 1105.5 303.913C1104.96 305.932 1103.86 307.725 1102.2 309.292C1101.47 309.983 1100.7 310.56 1099.9 311.023L1103.42 314.746Z" fill="white"/>
<path fill-rule="evenodd" clip-rule="evenodd" d="M1023.02 289.517C1023.22 290.231 1023.61 290.883 1024.21 291.475C1024.67 291.925 1025.15 292.251 1025.66 292.455C1026.18 292.658 1026.73 292.742 1027.3 292.707C1027.88 292.663 1028.46 292.497 1029.03 292.208L1028.38 291.069L1028.25 290.938C1027.88 291.115 1027.51 291.217 1027.14 291.243C1026.78 291.277 1026.43 291.231 1026.09 291.106C1025.76 290.981 1025.45 290.781 1025.17 290.505C1024.76 290.102 1024.5 289.659 1024.38 289.176C1024.26 288.7 1024.28 288.216 1024.44 287.723C1024.6 287.221 1024.9 286.755 1025.32 286.324C1025.75 285.893 1026.21 285.596 1026.7 285.434C1027.19 285.273 1027.68 285.246 1028.15 285.354C1028.64 285.47 1029.08 285.73 1029.49 286.132C1029.89 286.527 1030.12 286.993 1030.19 287.533C1030.27 288.072 1030.18 288.613 1029.91 289.154L1030.05 289.284L1031.18 289.908C1031.48 289.351 1031.64 288.794 1031.67 288.238C1031.72 287.682 1031.63 287.143 1031.42 286.62C1031.23 286.098 1030.91 285.611 1030.45 285.162C1029.85 284.57 1029.19 284.181 1028.48 283.995C1027.76 283.809 1027.04 283.829 1026.31 284.055C1025.59 284.274 1024.92 284.695 1024.31 285.318C1023.68 285.949 1023.27 286.626 1023.06 287.35C1022.85 288.074 1022.84 288.796 1023.02 289.517ZM1045.08 299.922L1039.15 305.924L1040.17 306.93L1043.32 303.744C1043.75 303.304 1044.2 303.024 1044.67 302.902C1045.14 302.788 1045.59 302.797 1046.01 302.929C1046.45 303.062 1046.82 303.278 1047.13 303.578C1047.41 303.854 1047.6 304.15 1047.71 304.467C1047.84 304.792 1047.83 305.145 1047.71 305.527C1047.59 305.901 1047.32 306.303 1046.89 306.735L1043.47 310.197L1044.49 311.203L1048.16 307.489C1048.7 306.946 1049.05 306.4 1049.21 305.851C1049.37 305.302 1049.38 304.767 1049.21 304.244C1049.06 303.729 1048.77 303.258 1048.34 302.832C1047.97 302.469 1047.55 302.194 1047.09 302.006C1046.64 301.826 1046.17 301.742 1045.69 301.752C1045.51 301.756 1045.33 301.776 1045.16 301.81L1046.06 300.893L1045.08 299.922ZM1051.99 306.753L1046.06 312.755L1047.08 313.761L1050.23 310.574C1050.66 310.135 1051.12 309.854 1051.58 309.733C1052.06 309.618 1052.51 309.628 1052.93 309.76C1053.37 309.892 1053.74 310.108 1054.04 310.408C1054.32 310.684 1054.52 310.981 1054.63 311.298C1054.75 311.623 1054.75 311.976 1054.62 312.358C1054.51 312.731 1054.23 313.134 1053.81 313.565L1050.39 317.027L1051.41 318.033L1055.08 314.32C1055.61 313.777 1055.96 313.231 1056.13 312.682C1056.29 312.133 1056.29 311.597 1056.13 311.074C1055.97 310.559 1055.68 310.089 1055.25 309.663C1054.88 309.3 1054.47 309.024 1054.01 308.837C1053.55 308.657 1053.08 308.572 1052.6 308.583C1052.42 308.587 1052.24 308.606 1052.07 308.641L1052.98 307.724L1051.99 306.753ZM1054.29 320.411C1054.48 321.117 1054.86 321.757 1055.45 322.333C1056.04 322.917 1056.7 323.29 1057.42 323.453C1058.16 323.615 1058.88 323.559 1059.6 323.285L1059.13 322.085L1058.98 321.943C1058.52 322.104 1058.07 322.143 1057.61 322.058C1057.17 321.966 1056.76 321.738 1056.39 321.375C1056.02 321.004 1055.77 320.581 1055.66 320.105C1055.55 319.63 1055.56 319.153 1055.7 318.676C1055.81 318.31 1055.99 317.969 1056.24 317.652L1060.82 322.17L1061.16 322.18L1061.3 322.036C1061.94 321.389 1062.38 320.704 1062.63 319.98C1062.87 319.256 1062.9 318.549 1062.73 317.859C1062.58 317.17 1062.22 316.545 1061.65 315.985C1061.07 315.416 1060.43 315.043 1059.72 314.865C1059.03 314.694 1058.31 314.727 1057.59 314.961C1056.88 315.188 1056.22 315.613 1055.6 316.235C1054.98 316.866 1054.56 317.54 1054.34 318.256C1054.13 318.979 1054.11 319.698 1054.29 320.411ZM1057.2 316.722C1057.47 316.521 1057.76 316.374 1058.07 316.28C1058.54 316.134 1059.01 316.124 1059.47 316.248C1059.94 316.364 1060.35 316.596 1060.7 316.943C1061.03 317.266 1061.25 317.634 1061.36 318.046C1061.49 318.45 1061.5 318.871 1061.4 319.308C1061.31 319.671 1061.14 320.023 1060.88 320.365L1057.2 316.722ZM1061.03 327.069C1061.23 327.782 1061.62 328.435 1062.22 329.027C1062.68 329.476 1063.16 329.803 1063.67 330.006C1064.19 330.21 1064.74 330.294 1065.31 330.258C1065.89 330.215 1066.47 330.049 1067.04 329.76L1066.39 328.62L1066.26 328.49C1065.89 328.667 1065.52 328.769 1065.15 328.795C1064.79 328.829 1064.44 328.783 1064.1 328.658C1063.77 328.533 1063.46 328.333 1063.18 328.056C1062.77 327.654 1062.51 327.211 1062.39 326.727C1062.27 326.252 1062.29 325.767 1062.45 325.274C1062.61 324.773 1062.91 324.307 1063.33 323.876C1063.76 323.444 1064.22 323.148 1064.71 322.986C1065.2 322.824 1065.69 322.798 1066.16 322.906C1066.65 323.022 1067.09 323.281 1067.5 323.684C1067.9 324.078 1068.13 324.545 1068.2 325.085C1068.28 325.624 1068.19 326.164 1067.92 326.706L1068.06 326.836L1069.19 327.46C1069.49 326.903 1069.65 326.346 1069.68 325.79C1069.73 325.234 1069.64 324.695 1069.43 324.172C1069.24 323.649 1068.91 323.163 1068.46 322.713C1067.86 322.122 1067.2 321.733 1066.49 321.547C1065.77 321.36 1065.05 321.381 1064.32 321.607C1063.6 321.826 1062.93 322.247 1062.32 322.87C1061.69 323.501 1061.28 324.178 1061.07 324.902C1060.86 325.625 1060.84 326.348 1061.03 327.069ZM1067.64 333.103C1067.65 333.754 1067.91 334.335 1068.43 334.848L1069.42 335.831L1070.25 334.992L1070.32 334.801L1069.6 334.091C1069.27 333.76 1069.09 333.447 1069.08 333.153C1069.08 332.852 1069.25 332.529 1069.59 332.186L1072.67 329.071L1074.4 330.787L1075.35 329.829L1073.61 328.113L1075.21 326.495L1074.19 325.489L1072.6 327.107L1071.56 326.089L1070.62 327.047L1071.65 328.065L1068.49 331.264C1067.93 331.831 1067.65 332.444 1067.64 333.103ZM1071.84 337.748C1072.03 338.454 1072.41 339.094 1073 339.67C1073.59 340.254 1074.24 340.627 1074.97 340.79C1075.71 340.952 1076.43 340.896 1077.15 340.621L1076.67 339.422L1076.53 339.28C1076.07 339.441 1075.61 339.48 1075.16 339.395C1074.72 339.303 1074.31 339.075 1073.94 338.712C1073.57 338.341 1073.32 337.918 1073.21 337.442C1073.09 336.966 1073.11 336.49 1073.25 336.013C1073.36 335.647 1073.54 335.306 1073.79 334.989L1078.37 339.507L1078.71 339.516L1078.85 339.373C1079.49 338.726 1079.93 338.04 1080.17 337.317C1080.42 336.593 1080.45 335.886 1080.28 335.196C1080.13 334.507 1079.76 333.882 1079.2 333.321C1078.62 332.753 1077.98 332.38 1077.27 332.202C1076.57 332.031 1075.86 332.064 1075.14 332.298C1074.43 332.525 1073.76 332.949 1073.15 333.572C1072.53 334.203 1072.11 334.877 1071.89 335.592C1071.68 336.316 1071.66 337.035 1071.84 337.748ZM1074.74 334.059C1075.02 333.858 1075.31 333.711 1075.61 333.617C1076.09 333.471 1076.56 333.46 1077.02 333.585C1077.49 333.701 1077.9 333.933 1078.25 334.28C1078.58 334.603 1078.8 334.971 1078.91 335.383C1079.03 335.787 1079.04 336.208 1078.94 336.645C1078.86 337.008 1078.69 337.36 1078.43 337.702L1074.74 334.059ZM1078.1 344.242C1078.27 344.725 1078.56 345.172 1078.98 345.582C1079.37 345.969 1079.8 346.252 1080.27 346.432C1080.76 346.612 1081.25 346.692 1081.74 346.673C1081.85 346.669 1081.96 346.659 1082.07 346.644L1081.23 347.498L1082.19 348.445L1085.53 345.067C1086.4 344.18 1086.86 343.272 1086.89 342.343C1086.93 341.422 1086.55 340.559 1085.73 339.754C1085.11 339.139 1084.43 338.762 1083.7 338.623C1082.97 338.485 1082.25 338.597 1081.55 338.958L1082.15 340.121L1082.28 340.252C1082.69 340.027 1083.12 339.957 1083.55 340.041C1084 340.118 1084.41 340.338 1084.77 340.701C1085.24 341.166 1085.47 341.685 1085.46 342.257C1085.46 342.798 1085.26 343.285 1084.87 343.718L1082.67 341.845C1081.95 341.238 1081.23 340.909 1080.52 340.858C1079.82 340.814 1079.21 341.056 1078.69 341.583C1078.33 341.951 1078.1 342.369 1078 342.838C1077.91 343.299 1077.94 343.767 1078.1 344.242ZM1083.97 344.632L1083.82 344.779C1083.48 345.123 1083.09 345.347 1082.64 345.453C1082.19 345.567 1081.74 345.562 1081.28 345.438C1080.82 345.313 1080.41 345.074 1080.05 344.719C1079.7 344.371 1079.49 344 1079.44 343.603C1079.39 343.206 1079.5 342.876 1079.76 342.613C1080.04 342.333 1080.35 342.22 1080.71 342.274C1081.08 342.327 1081.51 342.554 1081.98 342.957L1083.97 344.632ZM1089.7 344.004L1083.77 350.006L1084.79 351.012L1087.94 347.826C1088.38 347.378 1088.83 347.102 1089.3 346.996C1089.78 346.882 1090.22 346.887 1090.63 347.011C1091.06 347.136 1091.41 347.332 1091.69 347.6C1091.94 347.853 1092.12 348.134 1092.23 348.443C1092.34 348.759 1092.34 349.105 1092.22 349.479C1092.1 349.852 1091.83 350.255 1091.41 350.686L1087.97 354.16L1088.99 355.166L1092.14 351.98C1092.59 351.525 1093.05 351.244 1093.52 351.138C1093.99 351.024 1094.44 351.029 1094.85 351.154C1095.26 351.278 1095.61 351.474 1095.88 351.743C1096.14 352.003 1096.33 352.288 1096.43 352.597C1096.54 352.906 1096.53 353.247 1096.41 353.621C1096.3 353.995 1096.03 354.397 1095.6 354.829L1092.17 358.303L1093.19 359.309L1096.85 355.595C1097.39 355.052 1097.74 354.506 1097.9 353.957C1098.07 353.409 1098.08 352.881 1097.93 352.373C1097.78 351.866 1097.51 351.411 1097.1 351.009C1096.7 350.614 1096.26 350.319 1095.77 350.124C1095.29 349.928 1094.79 349.836 1094.29 349.847C1094.08 349.855 1093.87 349.885 1093.66 349.935C1093.82 349.501 1093.87 349.068 1093.81 348.635C1093.72 347.961 1093.41 347.368 1092.9 346.855C1092.55 346.516 1092.16 346.26 1091.71 346.088C1091.27 345.908 1090.82 345.823 1090.35 345.834C1090.16 345.835 1089.96 345.856 1089.77 345.896L1090.68 344.975L1089.7 344.004ZM1040.77 301.454C1040.9 301.345 1041.04 301.227 1041.17 301.098C1041.75 300.534 1042.14 299.9 1042.33 299.196C1042.51 298.5 1042.5 297.789 1042.3 297.064C1042.08 296.346 1041.67 295.674 1041.06 295.047C1040.45 294.419 1039.79 293.99 1039.08 293.758C1038.36 293.534 1037.65 293.505 1036.95 293.67C1036.24 293.843 1035.59 294.212 1035.01 294.776C1034.88 294.905 1034.76 295.037 1034.65 295.172L1035.52 296.063C1035.62 295.923 1035.74 295.787 1035.87 295.657C1036.27 295.265 1036.72 295.009 1037.22 294.889C1037.71 294.784 1038.21 294.814 1038.72 294.98C1039.23 295.153 1039.71 295.469 1040.16 295.928C1040.61 296.394 1040.91 296.883 1041.07 297.393C1041.22 297.903 1041.23 298.399 1041.11 298.882C1040.98 299.38 1040.72 299.826 1040.31 300.217C1040.18 300.348 1040.04 300.462 1039.9 300.561L1040.77 301.454ZM1032.19 292.125C1032.05 292.229 1031.91 292.343 1031.77 292.467C1031.18 293.01 1030.77 293.63 1030.55 294.327C1030.34 295.017 1030.33 295.727 1030.51 296.459C1030.7 297.184 1031.09 297.87 1031.67 298.518C1032.26 299.166 1032.91 299.619 1033.61 299.875C1034.32 300.124 1035.03 300.178 1035.74 300.037C1036.45 299.889 1037.11 299.543 1037.71 299C1037.84 298.875 1037.97 298.748 1038.09 298.616L1037.25 297.695C1037.14 297.832 1037.02 297.964 1036.88 298.09C1036.46 298.467 1036.01 298.707 1035.51 298.81C1035.01 298.898 1034.51 298.85 1034.02 298.667C1033.51 298.475 1033.04 298.143 1032.61 297.669C1032.17 297.187 1031.89 296.688 1031.75 296.173C1031.62 295.658 1031.62 295.162 1031.76 294.684C1031.91 294.19 1032.19 293.754 1032.6 293.377C1032.74 293.251 1032.88 293.141 1033.03 293.048L1032.19 292.125Z" fill="white"/>
<path d="M276.161 291.209L364.855 269.597C395.961 262.017 427.323 281.089 434.903 312.196V312.196C442.483 343.302 423.41 374.664 392.304 382.244L303.61 403.856L276.161 291.209Z" fill="#F64704"/>
<path d="M303.61 403.856L214.917 425.469C183.81 433.049 152.449 413.976 144.869 382.87V382.87C137.289 351.763 156.361 320.402 187.468 312.822L276.161 291.209L303.61 403.856Z" fill="#FFA558"/>
<path d="M385.661 357.8L297.615 379.255L303.61 403.856L391.656 382.401C423.12 374.734 442.411 343.012 434.744 311.548C441.433 338.997 405.083 353.067 385.661 357.8Z" fill="#FF7733"/>
<path d="M193.966 336.675L282.012 315.22L276.017 290.619L187.971 312.074C156.507 319.741 137.216 351.463 144.883 382.927C138.194 355.477 174.544 341.407 193.966 336.675Z" fill="#FFC594"/>
<path d="M193.443 365.04L196.571 377.876L194.658 378.342L192.005 367.453L191.919 367.474L189.359 370.224L188.905 368.364L191.583 365.494L193.443 365.04ZM202.746 376.553C201.959 376.745 201.217 376.768 200.518 376.622C199.823 376.469 199.225 376.173 198.723 375.736C198.22 375.293 197.874 374.735 197.686 374.063L199.564 373.606C199.743 374.14 200.097 374.531 200.626 374.78C201.155 375.028 201.729 375.076 202.349 374.925C202.843 374.805 203.252 374.584 203.575 374.262C203.898 373.94 204.12 373.554 204.242 373.104C204.362 372.649 204.359 372.163 204.233 371.646C204.107 371.13 203.883 370.695 203.559 370.341C203.235 369.982 202.846 369.734 202.392 369.595C201.944 369.454 201.465 369.446 200.953 369.571C200.563 369.666 200.189 369.83 199.832 370.063C199.474 370.29 199.2 370.54 199.011 370.811L197.165 370.987L196.312 364.341L203.367 362.622L203.772 364.285L198.336 365.609L198.807 369.3L198.876 369.283C199.062 368.976 199.344 368.695 199.719 368.439C200.099 368.176 200.531 367.986 201.013 367.868C201.794 367.678 202.534 367.695 203.234 367.92C203.938 368.138 204.544 368.526 205.051 369.084C205.556 369.636 205.91 370.325 206.111 371.152C206.314 371.985 206.306 372.775 206.087 373.522C205.866 374.263 205.468 374.902 204.892 375.437C204.323 375.971 203.608 376.343 202.746 376.553ZM213.118 374.026C212.13 374.267 211.22 374.215 210.388 373.87C209.561 373.524 208.842 372.908 208.231 372.023C207.624 371.13 207.151 369.986 206.811 368.591C206.472 367.201 206.37 365.97 206.504 364.897C206.636 363.818 206.99 362.935 207.565 362.247C208.144 361.553 208.924 361.086 209.906 360.846C210.894 360.606 211.802 360.661 212.63 361.013C213.462 361.358 214.182 361.979 214.791 362.877C215.403 363.769 215.879 364.909 216.217 366.299C216.557 367.694 216.663 368.928 216.535 369.999C216.405 371.065 216.053 371.942 215.479 372.629C214.904 373.317 214.117 373.783 213.118 374.026ZM212.715 372.372C213.318 372.225 213.779 371.909 214.099 371.423C214.418 370.938 214.598 370.301 214.637 369.513C214.675 368.719 214.567 367.802 214.314 366.763C214.059 365.717 213.733 364.854 213.336 364.172C212.937 363.484 212.484 362.999 211.977 362.714C211.468 362.425 210.912 362.353 210.309 362.5C209.419 362.717 208.835 363.319 208.559 364.305C208.286 365.284 208.341 366.557 208.723 368.125C208.976 369.164 209.302 370.028 209.701 370.716C210.098 371.397 210.551 371.88 211.058 372.164C211.571 372.447 212.123 372.516 212.715 372.372ZM223.24 371.377L220.894 361.746L222.677 361.312L223.063 362.897L223.192 362.865C223.263 362.282 223.489 361.786 223.87 361.377C224.255 360.961 224.764 360.675 225.395 360.521C226.039 360.365 226.613 360.386 227.118 360.586C227.627 360.778 228.053 361.115 228.395 361.597L228.499 361.572C228.601 360.994 228.865 360.491 229.29 360.065C229.714 359.633 230.271 359.333 230.96 359.165C231.833 358.953 232.615 359.054 233.307 359.47C233.997 359.88 234.476 360.636 234.745 361.738L236.317 368.191L234.439 368.648L232.909 362.368C232.749 361.714 232.456 361.286 232.03 361.086C231.603 360.88 231.142 360.837 230.648 360.957C230.04 361.105 229.612 361.41 229.366 361.872C229.124 362.326 229.072 362.841 229.212 363.415L230.709 369.557L228.831 370.015L227.272 363.614C227.144 363.092 226.881 362.712 226.483 362.474C226.084 362.237 225.624 362.182 225.101 362.309C224.745 362.396 224.438 362.571 224.18 362.835C223.926 363.091 223.747 363.408 223.645 363.786C223.547 364.157 223.55 364.558 223.655 364.988L225.101 370.924L223.24 371.377ZM243.051 370.583C241.902 370.863 240.945 370.868 240.18 370.598C239.414 370.329 238.833 369.929 238.436 369.399L239.877 368.345C240.037 368.501 240.236 368.659 240.476 368.82C240.722 368.979 241.026 369.09 241.388 369.154C241.751 369.218 242.19 369.187 242.707 369.061C243.413 368.889 243.957 368.574 244.338 368.116C244.721 367.664 244.821 367.061 244.637 366.309L244.178 364.423L244.048 364.454C243.994 364.68 243.891 364.946 243.741 365.25C243.588 365.549 243.351 365.835 243.028 366.108C242.705 366.381 242.248 366.59 241.656 366.734C240.898 366.919 240.172 366.907 239.476 366.7C238.785 366.485 238.174 366.074 237.643 365.467C237.116 364.854 236.728 364.035 236.479 363.013C236.23 361.991 236.192 361.073 236.364 360.258C236.541 359.436 236.886 358.756 237.4 358.217C237.914 357.678 238.558 357.314 239.333 357.125C239.931 356.98 240.437 356.963 240.854 357.074C241.275 357.178 241.621 357.337 241.892 357.551C242.163 357.765 242.38 357.958 242.544 358.131L242.682 358.098L242.3 356.53L244.118 356.087L246.517 365.933C246.718 366.76 246.691 367.485 246.435 368.107C246.185 368.727 245.763 369.244 245.17 369.656C244.578 370.074 243.872 370.383 243.051 370.583ZM241.69 365.074C242.5 364.877 243.052 364.447 243.347 363.785C243.646 363.116 243.675 362.285 243.433 361.291C243.275 360.642 243.042 360.097 242.733 359.655C242.423 359.207 242.048 358.891 241.608 358.706C241.166 358.516 240.669 358.488 240.118 358.622C239.555 358.759 239.12 359.021 238.812 359.406C238.509 359.784 238.323 360.246 238.256 360.792C238.186 361.332 238.227 361.909 238.376 362.524C238.529 363.149 238.759 363.681 239.066 364.117C239.371 364.547 239.746 364.848 240.189 365.02C240.639 365.191 241.139 365.209 241.69 365.074Z" fill="black"/>
<path d="M312.4 324.092L315.528 336.927L313.615 337.393L310.488 324.558L312.4 324.092ZM306.293 339.178L308.767 331.466L303.45 326.273L305.819 325.696L310.358 330.467L315.285 329.266L317.086 322.95L319.446 322.375L317.14 329.426L322.858 335.141L320.593 335.693L316.038 331.008L310.456 332.368L308.516 338.636L306.293 339.178ZM327.558 334.206C326.617 334.435 325.751 334.43 324.963 334.19C324.174 333.95 323.503 333.506 322.949 332.856C322.4 332.199 322.004 331.374 321.762 330.38C321.521 329.392 321.49 328.478 321.669 327.638C321.853 326.796 322.224 326.085 322.782 325.505C323.345 324.917 324.074 324.515 324.97 324.296C325.516 324.163 326.066 324.124 326.62 324.177C327.175 324.23 327.703 324.4 328.204 324.685C328.706 324.971 329.149 325.392 329.534 325.949C329.925 326.505 330.226 327.216 330.438 328.083L330.601 328.755L322.943 330.621L322.601 329.217L329.294 327.586L328.538 328.264C328.394 327.672 328.174 327.172 327.88 326.763C327.586 326.354 327.224 326.068 326.795 325.905C326.37 325.735 325.888 325.715 325.348 325.847C324.808 325.978 324.377 326.22 324.056 326.572C323.74 326.923 323.533 327.336 323.435 327.809C323.338 328.283 323.351 328.773 323.474 329.278L323.707 330.235C323.868 330.895 324.119 331.427 324.461 331.83C324.802 332.234 325.207 332.507 325.673 332.648C326.145 332.789 326.654 332.793 327.2 332.66C327.556 332.573 327.865 332.443 328.127 332.269C328.395 332.095 328.609 331.878 328.772 331.62C328.934 331.361 329.032 331.066 329.067 330.735L330.924 330.639C330.906 331.191 330.764 331.706 330.497 332.185C330.23 332.663 329.848 333.079 329.35 333.432C328.856 333.777 328.259 334.035 327.558 334.206ZM332.179 332.87L331.776 331.253L332.112 331.171C332.472 331.077 332.73 330.901 332.887 330.644C333.048 330.38 333.114 329.965 333.086 329.4C333.063 328.834 332.949 328.053 332.743 327.056L331.874 322.742L338.584 321.107L340.931 330.737L339.096 331.184L337.144 323.173L333.991 323.941L334.636 327.261C334.795 328.062 334.886 328.773 334.909 329.394C334.933 330.015 334.875 330.552 334.736 331.006C334.596 331.454 334.366 331.82 334.046 332.105C333.726 332.39 333.302 332.596 332.773 332.725L332.179 332.87ZM346.906 329.491C345.964 329.721 345.099 329.716 344.31 329.476C343.522 329.236 342.851 328.791 342.297 328.141C341.748 327.484 341.352 326.659 341.11 325.665C340.869 324.678 340.838 323.764 341.016 322.923C341.201 322.081 341.572 321.37 342.13 320.79C342.693 320.203 343.422 319.8 344.318 319.582C344.863 319.449 345.413 319.409 345.968 319.462C346.522 319.516 347.05 319.685 347.552 319.971C348.053 320.256 348.497 320.678 348.882 321.235C349.273 321.79 349.574 322.502 349.785 323.369L349.949 324.041L342.291 325.907L341.949 324.503L348.642 322.872L347.885 323.549C347.741 322.957 347.522 322.457 347.228 322.048C346.933 321.639 346.572 321.353 346.143 321.19C345.718 321.02 345.235 321.001 344.696 321.132C344.156 321.264 343.725 321.506 343.403 321.858C343.087 322.209 342.88 322.621 342.783 323.095C342.686 323.569 342.698 324.059 342.822 324.564L343.055 325.52C343.215 326.181 343.467 326.712 343.808 327.116C344.15 327.519 344.554 327.792 345.021 327.934C345.493 328.074 346.002 328.078 346.547 327.945C346.903 327.858 347.212 327.728 347.474 327.555C347.742 327.38 347.957 327.164 348.119 326.905C348.281 326.647 348.38 326.352 348.415 326.021L350.271 325.924C350.253 326.476 350.111 326.991 349.845 327.47C349.578 327.949 349.196 328.364 348.698 328.717C348.204 329.062 347.607 329.321 346.906 329.491ZM351.474 325.467L353.378 325.003C353.509 325.391 353.764 325.651 354.143 325.784C354.528 325.915 354.988 325.919 355.523 325.794C356.056 325.659 356.484 325.43 356.807 325.107C357.13 324.785 357.233 324.374 357.117 323.873C357.047 323.586 356.911 323.351 356.709 323.169C356.512 322.986 356.267 322.866 355.973 322.81C355.684 322.747 355.365 322.761 355.016 322.852L353.448 323.234L353.089 321.761L354.657 321.379C355.18 321.251 355.544 321.038 355.751 320.738C355.957 320.432 356.015 320.096 355.925 319.728C355.828 319.332 355.61 319.048 355.27 318.875C354.93 318.702 354.508 318.68 354.004 318.809C353.503 318.925 353.111 319.14 352.828 319.452C352.544 319.758 352.436 320.092 352.506 320.452L350.611 320.914C350.492 320.377 350.538 319.867 350.749 319.383C350.965 318.899 351.316 318.479 351.801 318.123C352.285 317.762 352.869 317.498 353.552 317.331C354.264 317.158 354.91 317.122 355.488 317.225C356.067 317.327 356.549 317.547 356.936 317.885C357.321 318.217 357.575 318.648 357.698 319.178C357.833 319.705 357.78 320.177 357.541 320.594C357.308 321.01 356.956 321.351 356.486 321.618L356.509 321.712C356.889 321.65 357.247 321.684 357.583 321.816C357.924 321.939 358.215 322.148 358.457 322.442C358.703 322.729 358.878 323.082 358.98 323.501C359.122 324.087 359.083 324.635 358.86 325.146C358.644 325.655 358.28 326.096 357.769 326.47C357.256 326.838 356.633 327.115 355.899 327.3C355.186 327.468 354.52 327.508 353.903 327.421C353.291 327.333 352.772 327.125 352.345 326.797C351.917 326.463 351.627 326.02 351.474 325.467ZM365.601 318.767L365.996 320.386L360.784 321.656L360.39 320.037L365.601 318.767ZM359.93 315.905L362.277 325.536L360.46 325.979L358.113 316.348L359.93 315.905ZM365.934 314.442L368.281 324.073L366.455 324.518L364.108 314.887L365.934 314.442ZM369.941 316.988L372.74 316.306C373.91 316.015 374.883 316.085 375.657 316.517C376.437 316.948 376.943 317.624 377.174 318.548C377.321 319.151 377.309 319.725 377.138 320.272C376.967 320.819 376.643 321.299 376.166 321.713C375.687 322.122 375.058 322.421 374.277 322.612L370.073 323.636L367.726 314.005L369.544 313.563L371.496 321.574L373.882 320.992C374.416 320.862 374.822 320.617 375.099 320.258C375.375 319.892 375.462 319.488 375.36 319.044C375.241 318.58 374.974 318.244 374.558 318.035C374.142 317.826 373.668 317.79 373.135 317.926L370.335 318.608L369.941 316.988ZM379.316 321.384L376.969 311.753L378.83 311.3L381.177 320.93L379.316 321.384ZM387.152 319.684C386.21 319.914 385.345 319.909 384.556 319.669C383.768 319.429 383.096 318.984 382.543 318.334C381.993 317.677 381.597 316.852 381.355 315.859C381.115 314.871 381.084 313.957 381.262 313.116C381.446 312.274 381.818 311.563 382.376 310.983C382.938 310.396 383.668 309.993 384.564 309.775C385.109 309.642 385.659 309.602 386.214 309.656C386.768 309.709 387.296 309.879 387.798 310.164C388.299 310.449 388.742 310.871 389.128 311.428C389.519 311.983 389.82 312.695 390.031 313.562L390.195 314.234L382.537 316.1L382.195 314.696L388.888 313.065L388.131 313.742C387.987 313.151 387.768 312.65 387.473 312.242C387.179 311.833 386.817 311.547 386.388 311.383C385.963 311.213 385.481 311.194 384.941 311.325C384.402 311.457 383.971 311.699 383.649 312.051C383.333 312.402 383.126 312.814 383.029 313.288C382.931 313.762 382.944 314.252 383.067 314.757L383.3 315.713C383.461 316.374 383.712 316.906 384.054 317.309C384.396 317.712 384.8 317.985 385.266 318.127C385.739 318.267 386.248 318.271 386.793 318.138C387.149 318.051 387.458 317.921 387.72 317.748C387.988 317.573 388.203 317.357 388.365 317.098C388.527 316.84 388.625 316.545 388.66 316.214L390.517 316.118C390.499 316.669 390.357 317.185 390.09 317.663C389.824 318.142 389.441 318.558 388.943 318.91C388.449 319.256 387.852 319.514 387.152 319.684ZM317.419 353.151L317.813 354.771L312.602 356.041L312.207 354.421L317.419 353.151ZM311.748 350.29L314.095 359.92L312.277 360.363L309.93 350.733L311.748 350.29ZM317.752 348.827L320.099 358.457L318.272 358.902L315.926 349.272L317.752 348.827ZM326.082 357.209C325.14 357.439 324.275 357.434 323.487 357.194C322.698 356.954 322.027 356.509 321.473 355.859C320.924 355.202 320.528 354.377 320.286 353.383C320.045 352.396 320.014 351.482 320.193 350.641C320.377 349.799 320.748 349.088 321.306 348.508C321.869 347.921 322.598 347.518 323.494 347.3C324.04 347.167 324.59 347.127 325.144 347.18C325.699 347.234 326.227 347.403 326.728 347.689C327.23 347.974 327.673 348.395 328.058 348.953C328.449 349.508 328.75 350.22 328.961 351.087L329.125 351.759L321.467 353.625L321.125 352.221L327.818 350.59L327.062 351.267C326.917 350.675 326.698 350.175 326.404 349.766C326.11 349.357 325.748 349.071 325.319 348.908C324.894 348.738 324.412 348.719 323.872 348.85C323.332 348.982 322.901 349.224 322.579 349.576C322.263 349.927 322.057 350.339 321.959 350.813C321.862 351.287 321.875 351.777 321.998 352.282L322.231 353.238C322.392 353.898 322.643 354.43 322.985 354.834C323.326 355.237 323.73 355.51 324.197 355.652C324.669 355.792 325.178 355.796 325.724 355.663C326.08 355.576 326.389 355.446 326.651 355.273C326.918 355.098 327.133 354.882 327.295 354.623C327.457 354.365 327.556 354.07 327.591 353.739L329.447 353.642C329.43 354.194 329.288 354.709 329.021 355.188C328.754 355.667 328.372 356.082 327.874 356.435C327.38 356.78 326.783 357.038 326.082 357.209ZM332.347 359.287L329.123 346.056L330.932 345.615L331.314 347.183L331.469 347.145C331.535 346.916 331.636 346.645 331.772 346.332C331.915 346.017 332.146 345.718 332.466 345.433C332.785 345.142 333.24 344.925 333.831 344.781C334.606 344.592 335.343 344.619 336.041 344.863C336.745 345.105 337.363 345.554 337.893 346.209C338.424 346.865 338.817 347.715 339.072 348.76C339.324 349.794 339.368 350.726 339.205 351.557C339.041 352.381 338.704 353.069 338.193 353.619C337.687 354.162 337.043 354.529 336.262 354.719C335.682 354.861 335.182 354.879 334.761 354.775C334.344 354.664 333.998 354.502 333.721 354.289C333.45 354.076 333.232 353.882 333.068 353.709L332.965 353.734L334.208 358.834L332.347 359.287ZM335.469 353.225C336.026 353.089 336.455 352.826 336.755 352.437C337.056 352.047 337.238 351.573 337.303 351.016C337.373 350.452 337.329 349.848 337.172 349.205C337.017 348.567 336.783 348.019 336.47 347.56C336.158 347.101 335.779 346.77 335.334 346.568C334.89 346.366 334.386 346.334 333.823 346.471C333.278 346.604 332.852 346.857 332.548 347.229C332.242 347.596 332.053 348.055 331.98 348.608C331.913 349.154 331.961 349.763 332.124 350.435C332.288 351.107 332.53 351.674 332.85 352.138C333.169 352.602 333.551 352.931 333.994 353.128C334.443 353.322 334.935 353.355 335.469 353.225ZM341.6 353.218L339.253 343.587L343.233 342.618C344.32 342.359 345.238 342.384 345.989 342.694C346.739 342.998 347.207 343.547 347.394 344.341C347.537 344.903 347.468 345.391 347.186 345.807C346.902 346.216 346.482 346.553 345.926 346.816C346.362 346.759 346.783 346.79 347.19 346.91C347.602 347.028 347.96 347.236 348.263 347.533C348.571 347.823 348.783 348.207 348.9 348.683C349.024 349.194 349 349.681 348.826 350.143C348.657 350.598 348.352 350.995 347.912 351.333C347.471 351.672 346.898 351.927 346.191 352.099L341.6 353.218ZM342.973 351.213L345.807 350.523C346.268 350.417 346.604 350.222 346.815 349.94C347.024 349.651 347.08 349.318 346.982 348.941C346.879 348.491 346.664 348.173 346.338 347.984C346.011 347.79 345.618 347.749 345.158 347.861L342.324 348.552L342.973 351.213ZM341.991 347.182L344.23 346.636C344.757 346.502 345.143 346.289 345.389 345.998C345.639 345.7 345.715 345.362 345.616 344.984C345.531 344.61 345.311 344.356 344.956 344.223C344.6 344.085 344.155 344.081 343.621 344.211L341.399 344.753L341.991 347.182ZM350.719 344.316L353.519 343.634C354.689 343.342 355.661 343.413 356.436 343.845C357.216 344.275 357.721 344.952 357.952 345.875C358.099 346.478 358.087 347.053 357.916 347.599C357.745 348.146 357.421 348.627 356.944 349.041C356.466 349.45 355.836 349.749 355.055 349.939L350.851 350.964L348.505 341.333L350.322 340.89L352.274 348.901L354.661 348.32C355.195 348.19 355.6 347.945 355.878 347.585C356.154 347.22 356.241 346.815 356.139 346.372C356.02 345.908 355.752 345.572 355.336 345.363C354.92 345.154 354.446 345.117 353.913 345.253L351.114 345.935L350.719 344.316ZM360.095 348.711L357.748 339.081L359.608 338.627L361.955 348.258L360.095 348.711Z" fill="white"/>
<path opacity="0.8" d="M322.409 180.202C322.32 179.18 322.275 178.669 322.219 178.238C320.872 168.011 311.932 160.509 301.626 160.959C301.193 160.978 300.681 161.023 299.659 161.112L73.3983 180.908C67.0303 181.465 63.8463 181.743 61.2817 182.63C53.6092 185.281 48.0201 191.942 46.7415 199.958C46.3141 202.638 46.5927 205.822 47.1498 212.189V212.189C47.403 215.084 47.5296 216.531 47.9325 217.697C49.1376 221.185 52.1652 223.725 55.809 224.306C57.027 224.5 58.4742 224.374 61.3688 224.121L303.32 202.953C304.342 202.863 304.853 202.819 305.283 202.762C315.511 201.415 323.012 192.475 322.562 182.17C322.544 181.736 322.499 181.225 322.409 180.202V180.202Z" fill="#D4C5FF"/>
<path d="M279.992 185.271L280.816 194.69L279.675 194.79L278.956 186.567L278.901 186.572L276.735 188.3L276.633 187.141L278.851 185.371L279.992 185.271ZM286.294 194.341C285.662 194.396 285.094 194.333 284.59 194.151C284.089 193.967 283.686 193.688 283.382 193.316C283.077 192.941 282.904 192.499 282.863 191.99C282.825 191.592 282.871 191.217 283.001 190.866C283.13 190.511 283.323 190.209 283.579 189.958C283.838 189.703 284.137 189.531 284.475 189.439L284.47 189.384C284.009 189.307 283.628 189.085 283.327 188.719C283.026 188.35 282.855 187.916 282.815 187.416C282.77 186.938 282.853 186.499 283.066 186.101C283.278 185.702 283.589 185.375 283.999 185.12C284.413 184.865 284.895 184.713 285.447 184.664C285.993 184.617 286.49 184.683 286.938 184.863C287.386 185.043 287.75 185.311 288.028 185.667C288.309 186.022 288.472 186.439 288.517 186.917C288.558 187.417 288.46 187.875 288.225 188.291C287.992 188.704 287.66 188.988 287.229 189.143L287.234 189.198C287.58 189.229 287.899 189.348 288.192 189.554C288.485 189.757 288.727 190.022 288.919 190.348C289.111 190.671 289.226 191.032 289.264 191.43C289.306 191.939 289.207 192.405 288.969 192.827C288.734 193.247 288.386 193.591 287.924 193.86C287.466 194.125 286.922 194.286 286.294 194.341ZM286.205 193.329C286.631 193.291 286.993 193.19 287.291 193.025C287.588 192.86 287.81 192.645 287.957 192.378C288.104 192.112 288.164 191.81 288.137 191.473C288.103 191.118 287.984 190.811 287.779 190.554C287.574 190.297 287.309 190.104 286.982 189.975C286.659 189.846 286.298 189.799 285.899 189.834C285.498 189.869 285.146 189.978 284.844 190.162C284.545 190.346 284.317 190.582 284.16 190.871C284.006 191.159 283.946 191.481 283.98 191.837C284.006 192.174 284.113 192.461 284.301 192.698C284.492 192.935 284.749 193.109 285.074 193.219C285.399 193.33 285.776 193.366 286.205 193.329ZM285.814 188.859C286.151 188.829 286.444 188.736 286.693 188.578C286.945 188.42 287.135 188.213 287.264 187.958C287.393 187.702 287.445 187.412 287.42 187.087C287.389 186.768 287.29 186.497 287.122 186.274C286.954 186.048 286.734 185.882 286.462 185.776C286.19 185.667 285.88 185.627 285.534 185.658C285.181 185.689 284.879 185.782 284.627 185.936C284.374 186.088 284.187 186.29 284.063 186.542C283.94 186.79 283.894 187.074 283.925 187.393C283.95 187.718 284.047 187.995 284.215 188.225C284.387 188.454 284.61 188.624 284.886 188.736C285.161 188.848 285.471 188.889 285.814 188.859ZM291.691 192.524C291.464 192.544 291.262 192.48 291.085 192.332C290.909 192.184 290.81 191.996 290.79 191.769C290.771 191.542 290.835 191.34 290.983 191.164C291.131 190.987 291.319 190.889 291.546 190.869C291.773 190.849 291.975 190.913 292.151 191.062C292.328 191.21 292.426 191.397 292.446 191.624C292.459 191.774 292.433 191.916 292.367 192.048C292.305 192.18 292.214 192.29 292.095 192.378C291.979 192.462 291.844 192.511 291.691 192.524ZM291.274 187.76C291.047 187.78 290.845 187.716 290.668 187.567C290.492 187.419 290.393 187.231 290.374 187.005C290.354 186.778 290.418 186.576 290.566 186.399C290.715 186.223 290.902 186.124 291.129 186.104C291.356 186.085 291.558 186.149 291.734 186.297C291.911 186.445 292.009 186.633 292.029 186.86C292.042 187.01 292.016 187.151 291.95 187.284C291.888 187.416 291.797 187.526 291.678 187.613C291.562 187.698 291.427 187.747 291.274 187.76ZM297.249 193.382C296.709 193.429 296.214 193.365 295.763 193.188C295.312 193.011 294.939 192.747 294.646 192.396C294.353 192.044 294.173 191.631 294.107 191.155L295.21 191.058C295.29 191.48 295.514 191.816 295.882 192.065C296.253 192.311 296.679 192.412 297.16 192.37C297.546 192.337 297.882 192.216 298.167 192.009C298.454 191.801 298.67 191.532 298.814 191.201C298.961 190.867 299.017 190.499 298.982 190.098C298.946 189.687 298.823 189.329 298.614 189.022C298.408 188.713 298.14 188.478 297.811 188.319C297.482 188.159 297.117 188.095 296.715 188.127C296.426 188.15 296.134 188.22 295.839 188.338C295.543 188.454 295.303 188.591 295.119 188.749L294.041 188.713L294.206 184.028L299.099 183.6L299.188 184.612L295.251 184.956L295.163 187.763L295.218 187.758C295.398 187.588 295.629 187.439 295.911 187.313C296.194 187.186 296.493 187.109 296.809 187.081C297.385 187.031 297.911 187.124 298.386 187.36C298.863 187.593 299.252 187.936 299.551 188.389C299.853 188.841 300.031 189.373 300.084 189.983C300.137 190.584 300.049 191.132 299.82 191.628C299.594 192.12 299.259 192.523 298.814 192.837C298.368 193.148 297.847 193.33 297.249 193.382ZM305.053 192.699C304.666 192.727 304.273 192.687 303.874 192.58C303.476 192.473 303.102 192.266 302.754 191.96C302.406 191.65 302.11 191.217 301.867 190.661C301.623 190.102 301.463 189.386 301.387 188.516C301.314 187.682 301.328 186.936 301.428 186.278C301.528 185.618 301.707 185.054 301.966 184.586C302.224 184.116 302.553 183.747 302.953 183.48C303.356 183.213 303.823 183.057 304.353 183.01C304.881 182.964 305.359 183.029 305.788 183.205C306.221 183.377 306.583 183.639 306.877 183.99C307.17 184.341 307.376 184.757 307.496 185.238L306.373 185.336C306.232 184.922 305.999 184.589 305.674 184.336C305.349 184.083 304.939 183.979 304.442 184.022C303.712 184.086 303.165 184.454 302.801 185.125C302.439 185.796 302.307 186.705 302.404 187.852L302.478 187.846C302.627 187.57 302.811 187.33 303.031 187.125C303.254 186.917 303.505 186.75 303.784 186.624C304.064 186.497 304.364 186.42 304.686 186.392C305.226 186.345 305.731 186.436 306.203 186.667C306.673 186.895 307.065 187.233 307.376 187.681C307.686 188.127 307.868 188.653 307.922 189.26C307.973 189.843 307.889 190.387 307.671 190.895C307.452 191.399 307.119 191.814 306.672 192.141C306.228 192.464 305.688 192.65 305.053 192.699ZM304.964 191.688C305.351 191.654 305.689 191.527 305.978 191.307C306.271 191.087 306.492 190.806 306.641 190.466C306.794 190.125 306.853 189.755 306.818 189.357C306.784 188.967 306.665 188.621 306.463 188.317C306.263 188.01 306.003 187.775 305.683 187.612C305.366 187.448 305.014 187.383 304.628 187.417C304.336 187.442 304.07 187.524 303.829 187.663C303.587 187.798 303.38 187.974 303.208 188.19C303.038 188.405 302.911 188.647 302.826 188.913C302.741 189.177 302.711 189.45 302.736 189.732C302.768 190.106 302.886 190.448 303.089 190.758C303.296 191.067 303.561 191.308 303.885 191.481C304.212 191.653 304.572 191.722 304.964 191.688Z" fill="#4200FF"/>
<path d="M67.3536 209.543L65.514 209.704L69.5669 194.749L71.3781 194.59L77.9664 208.615L76.1269 208.776L70.7297 196.957L70.6165 196.967L67.3536 209.543ZM67.5376 203.824L74.9525 203.175L75.0886 204.732L67.6738 205.38L67.5376 203.824ZM80.8178 208.366L78.9782 208.526L83.0311 193.571L84.8423 193.412L91.4306 207.437L89.5911 207.598L84.1939 195.779L84.0807 195.789L80.8178 208.366ZM81.0018 202.646L88.4166 201.997L88.5528 203.554L81.138 204.202L81.0018 202.646ZM94.282 207.188L92.4424 207.348L96.4953 192.393L98.3065 192.234L104.895 206.259L103.055 206.42L97.6581 194.601L97.5449 194.611L94.282 207.188ZM94.466 201.468L101.881 200.819L102.017 202.376L94.6022 203.024L94.466 201.468ZM107.746 206.01L105.907 206.171L109.959 191.215L111.771 191.056L118.359 205.081L116.519 205.242L111.122 193.423L111.009 193.433L107.746 206.01ZM107.93 200.29L115.345 199.641L115.481 201.198L108.066 201.847L107.93 200.29ZM121.21 204.832L119.371 204.993L123.424 190.037L125.235 189.879L131.823 203.903L129.984 204.064L124.586 192.245L124.473 192.255L121.21 204.832ZM121.394 199.112L128.809 198.463L128.945 200.02L121.531 200.669L121.394 199.112ZM134.675 203.654L132.835 203.815L136.888 188.859L138.699 188.701L145.287 202.725L143.448 202.886L138.051 191.067L137.937 191.077L134.675 203.654ZM134.859 197.934L142.273 197.285L142.41 198.842L134.995 199.491L134.859 197.934ZM148.139 202.476L146.299 202.637L150.352 187.681L152.163 187.523L158.752 201.547L156.912 201.708L151.515 189.889L151.402 189.899L148.139 202.476ZM148.323 196.756L155.738 196.107L155.874 197.664L148.459 198.313L148.323 196.756ZM161.603 201.298L159.763 201.459L163.816 186.503L165.627 186.345L172.216 200.369L170.376 200.53L164.979 188.711L164.866 188.721L161.603 201.298ZM161.787 195.578L169.202 194.929L169.338 196.486L161.923 197.135L161.787 195.578ZM175.067 200.12L173.228 200.281L177.28 185.325L179.092 185.167L185.68 199.191L183.84 199.352L178.443 187.533L178.33 187.543L175.067 200.12ZM175.251 194.4L182.666 193.751L182.802 195.308L175.387 195.957L175.251 194.4ZM188.531 198.942L186.692 199.103L190.745 184.147L192.556 183.989L199.144 198.013L197.305 198.174L191.907 186.355L191.794 186.365L188.531 198.942ZM188.715 193.222L196.13 192.573L196.266 194.13L188.852 194.779L188.715 193.222ZM201.996 197.764L200.156 197.925L204.209 182.969L206.02 182.811L212.608 196.835L210.769 196.996L205.372 185.177L205.258 185.187L201.996 197.764ZM202.18 192.044L209.594 191.395L209.731 192.952L202.316 193.601L202.18 192.044ZM215.46 196.586L213.62 196.747L217.673 181.791L219.484 181.633L226.073 195.657L224.233 195.818L218.836 183.999L218.723 184.009L215.46 196.586ZM215.644 190.866L223.059 190.218L223.195 191.774L215.78 192.423L215.644 190.866ZM228.924 195.408L227.084 195.569L231.137 180.613L232.948 180.455L239.537 194.479L237.697 194.64L232.3 182.821L232.187 182.831L228.924 195.408ZM229.108 189.688L236.523 189.04L236.659 190.596L229.244 191.245L229.108 189.688ZM242.388 194.23L240.549 194.391L244.601 179.435L246.413 179.277L253.001 193.301L251.161 193.462L245.764 181.643L245.651 181.653L242.388 194.23ZM242.572 188.51L249.987 187.862L250.123 189.418L242.708 190.067L242.572 188.51ZM255.852 193.052L254.013 193.213L258.066 178.257L259.877 178.099L266.465 192.123L264.626 192.284L259.228 180.466L259.115 180.475L255.852 193.052ZM256.036 187.332L263.451 186.684L263.587 188.24L256.172 188.889L256.036 187.332Z" fill="black"/>
<path opacity="0.8" d="M302.597 229.115C302.507 228.093 302.463 227.582 302.406 227.151C301.06 216.924 292.119 209.422 281.814 209.872C281.38 209.891 280.869 209.936 279.847 210.025L64.6685 228.851C59.0892 229.339 56.2996 229.583 54.2636 230.855C52.4727 231.974 51.0821 233.632 50.291 235.59C49.3917 237.816 49.6357 240.605 50.1238 246.185L50.9954 256.147C51.4835 261.726 51.7276 264.515 52.9998 266.551C54.1189 268.342 55.7762 269.733 57.7342 270.524C59.9602 271.423 62.7498 271.179 68.329 270.691L283.507 251.866C284.529 251.776 285.041 251.731 285.471 251.675C295.698 250.328 303.2 241.388 302.75 231.082C302.731 230.649 302.686 230.137 302.597 229.115V229.115Z" fill="#D4C5FF"/>
<path d="M260.284 235.372L261.108 244.791L259.967 244.891L259.248 236.668L259.193 236.673L257.027 238.401L256.925 237.242L259.143 235.472L260.284 235.372ZM266.586 244.441C265.954 244.497 265.386 244.434 264.882 244.252C264.381 244.067 263.978 243.789 263.674 243.417C263.369 243.042 263.196 242.6 263.155 242.091C263.117 241.693 263.163 241.318 263.293 240.967C263.422 240.612 263.615 240.31 263.871 240.059C264.13 239.804 264.429 239.631 264.767 239.54L264.762 239.485C264.301 239.408 263.92 239.186 263.619 238.82C263.318 238.451 263.147 238.017 263.107 237.517C263.062 237.039 263.145 236.6 263.358 236.202C263.57 235.803 263.881 235.476 264.291 235.221C264.705 234.965 265.187 234.814 265.739 234.765C266.285 234.718 266.782 234.784 267.23 234.964C267.678 235.144 268.042 235.412 268.32 235.768C268.601 236.123 268.764 236.54 268.809 237.018C268.85 237.518 268.752 237.976 268.517 238.392C268.284 238.804 267.952 239.088 267.521 239.243L267.526 239.299C267.872 239.33 268.191 239.449 268.484 239.655C268.777 239.858 269.019 240.123 269.211 240.449C269.403 240.772 269.518 241.132 269.556 241.531C269.598 242.04 269.499 242.506 269.261 242.928C269.026 243.347 268.678 243.691 268.216 243.96C267.758 244.226 267.214 244.386 266.586 244.441ZM266.497 243.43C266.923 243.392 267.285 243.291 267.583 243.126C267.88 242.961 268.102 242.745 268.249 242.479C268.396 242.213 268.456 241.911 268.429 241.574C268.395 241.218 268.276 240.912 268.071 240.655C267.866 240.398 267.601 240.205 267.274 240.076C266.951 239.947 266.59 239.9 266.191 239.934C265.79 239.97 265.438 240.079 265.136 240.263C264.837 240.447 264.609 240.683 264.452 240.972C264.298 241.26 264.238 241.582 264.272 241.937C264.298 242.275 264.405 242.562 264.593 242.799C264.784 243.036 265.041 243.209 265.366 243.32C265.691 243.431 266.068 243.467 266.497 243.43ZM266.106 238.959C266.443 238.93 266.736 238.836 266.985 238.679C267.237 238.521 267.427 238.314 267.556 238.059C267.685 237.803 267.737 237.513 267.712 237.188C267.681 236.869 267.582 236.598 267.414 236.375C267.246 236.149 267.026 235.983 266.754 235.877C266.482 235.768 266.172 235.728 265.826 235.759C265.473 235.789 265.171 235.882 264.919 236.037C264.666 236.189 264.479 236.391 264.355 236.643C264.232 236.891 264.186 237.175 264.217 237.494C264.242 237.819 264.339 238.096 264.507 238.325C264.679 238.555 264.902 238.725 265.178 238.837C265.453 238.949 265.763 238.99 266.106 238.959ZM271.983 242.625C271.756 242.645 271.554 242.581 271.377 242.433C271.201 242.284 271.102 242.097 271.082 241.87C271.063 241.643 271.127 241.441 271.275 241.265C271.423 241.088 271.611 240.99 271.838 240.97C272.065 240.95 272.267 241.014 272.443 241.162C272.62 241.311 272.718 241.498 272.738 241.725C272.751 241.875 272.725 242.017 272.659 242.149C272.597 242.281 272.506 242.391 272.387 242.479C272.271 242.563 272.136 242.612 271.983 242.625ZM271.566 237.861C271.339 237.881 271.137 237.816 270.96 237.668C270.784 237.52 270.685 237.332 270.666 237.105C270.646 236.879 270.71 236.677 270.858 236.5C271.007 236.323 271.194 236.225 271.421 236.205C271.648 236.185 271.85 236.25 272.026 236.398C272.203 236.546 272.301 236.734 272.321 236.961C272.334 237.111 272.308 237.252 272.242 237.385C272.18 237.517 272.089 237.627 271.97 237.714C271.854 237.799 271.719 237.847 271.566 237.861ZM277.541 243.483C277.001 243.53 276.506 243.465 276.055 243.289C275.604 243.112 275.231 242.848 274.938 242.496C274.645 242.145 274.465 241.732 274.399 241.255L275.502 241.159C275.582 241.581 275.806 241.917 276.174 242.166C276.545 242.412 276.971 242.513 277.452 242.471C277.838 242.437 278.174 242.317 278.459 242.11C278.746 241.902 278.962 241.633 279.106 241.302C279.253 240.968 279.309 240.6 279.274 240.199C279.238 239.788 279.115 239.429 278.906 239.123C278.7 238.814 278.432 238.579 278.103 238.42C277.774 238.26 277.409 238.196 277.007 238.228C276.718 238.25 276.426 238.321 276.131 238.439C275.835 238.555 275.595 238.692 275.411 238.85L274.333 238.814L274.498 234.129L279.391 233.701L279.48 234.712L275.543 235.057L275.455 237.863L275.51 237.859C275.69 237.688 275.921 237.54 276.203 237.413C276.486 237.287 276.785 237.21 277.101 237.182C277.677 237.132 278.203 237.225 278.677 237.461C279.155 237.694 279.544 238.037 279.843 238.49C280.145 238.942 280.323 239.474 280.376 240.084C280.429 240.685 280.341 241.233 280.112 241.729C279.886 242.221 279.551 242.624 279.106 242.938C278.66 243.249 278.139 243.431 277.541 243.483ZM285.345 242.8C284.958 242.828 284.565 242.788 284.166 242.681C283.768 242.574 283.394 242.367 283.046 242.061C282.698 241.751 282.402 241.318 282.159 240.762C281.915 240.202 281.755 239.487 281.679 238.616C281.606 237.783 281.62 237.037 281.72 236.379C281.82 235.719 281.999 235.155 282.258 234.687C282.516 234.217 282.845 233.848 283.245 233.581C283.648 233.314 284.115 233.158 284.645 233.111C285.173 233.065 285.651 233.13 286.08 233.305C286.513 233.478 286.875 233.739 287.169 234.091C287.462 234.442 287.668 234.858 287.788 235.339L286.665 235.437C286.524 235.023 286.291 234.69 285.966 234.437C285.641 234.184 285.231 234.079 284.734 234.123C284.004 234.187 283.457 234.554 283.093 235.226C282.731 235.897 282.599 236.806 282.696 237.953L282.77 237.946C282.919 237.671 283.103 237.431 283.323 237.226C283.546 237.018 283.797 236.851 284.076 236.725C284.356 236.598 284.656 236.521 284.978 236.493C285.518 236.446 286.023 236.537 286.495 236.768C286.965 236.995 287.357 237.334 287.668 237.782C287.978 238.228 288.16 238.754 288.214 239.361C288.265 239.943 288.181 240.488 287.963 240.996C287.744 241.5 287.411 241.915 286.964 242.241C286.52 242.565 285.98 242.751 285.345 242.8ZM285.256 241.788C285.643 241.755 285.981 241.628 286.27 241.408C286.563 241.187 286.784 240.907 286.933 240.567C287.086 240.226 287.145 239.856 287.11 239.457C287.076 239.068 286.957 238.722 286.755 238.418C286.555 238.111 286.295 237.876 285.975 237.712C285.658 237.549 285.306 237.484 284.92 237.517C284.628 237.543 284.362 237.625 284.121 237.763C283.879 237.899 283.672 238.074 283.5 238.29C283.33 238.506 283.203 238.747 283.118 239.014C283.033 239.278 283.003 239.551 283.028 239.833C283.06 240.207 283.178 240.549 283.381 240.859C283.588 241.168 283.853 241.409 284.177 241.582C284.504 241.754 284.864 241.823 285.256 241.788Z" fill="#4200FF"/>
<path d="M68.932 243.552L68.7958 241.996L79.6634 241.045L79.7995 242.602L75.2431 243L76.3746 255.934L74.62 256.087L73.4884 243.154L68.932 243.552ZM84.2495 248.258L87.3626 247.986C88.6361 247.874 89.6384 248.112 90.3694 248.699C91.1005 249.286 91.5093 250.075 91.596 251.066C91.6529 251.717 91.5538 252.322 91.2986 252.881C91.0429 253.436 90.6364 253.897 90.0792 254.264C89.5216 254.627 88.8182 254.845 87.9692 254.919L83.4127 255.318L82.4619 244.45L84.1317 244.304L84.9463 253.615L87.833 253.363C88.4934 253.305 89.0205 253.083 89.4145 252.697C89.8085 252.311 89.9815 251.844 89.9337 251.297C89.8833 250.721 89.63 250.271 89.1737 249.945C88.7174 249.618 88.1591 249.484 87.4987 249.542L84.3856 249.814L84.2495 248.258ZM93.6294 254.424L92.6786 243.557L94.3484 243.41L95.2991 254.278L93.6294 254.424ZM103.959 253.52L103.008 242.653L111.555 241.905L112.506 252.773L110.836 252.919L110.022 243.608L104.814 244.063L105.629 253.374L103.959 253.52ZM115.912 256.581L114.605 241.638L116.218 241.497L116.369 243.223L116.567 243.206C116.673 243.007 116.822 242.751 117.013 242.44C117.209 242.123 117.502 241.832 117.892 241.565C118.287 241.292 118.838 241.125 119.545 241.063C120.46 240.983 121.287 241.142 122.025 241.538C122.763 241.934 123.365 242.535 123.829 243.341C124.294 244.146 124.577 245.119 124.677 246.261C124.777 247.412 124.669 248.427 124.351 249.305C124.033 250.179 123.548 250.877 122.895 251.4C122.241 251.918 121.462 252.217 120.556 252.296C119.858 252.358 119.289 252.291 118.849 252.096C118.409 251.897 118.062 251.659 117.81 251.382C117.557 251.1 117.361 250.865 117.221 250.678L117.079 250.69L117.582 256.435L115.912 256.581ZM116.722 246.928C116.793 247.749 116.977 248.463 117.273 249.069C117.568 249.671 117.962 250.128 118.455 250.441C118.948 250.75 119.529 250.875 120.199 250.816C120.897 250.755 121.463 250.52 121.898 250.112C122.337 249.698 122.647 249.167 122.828 248.519C123.013 247.866 123.072 247.152 123.004 246.379C122.938 245.615 122.759 244.936 122.47 244.344C122.185 243.746 121.791 243.289 121.288 242.971C120.789 242.649 120.186 242.519 119.478 242.581C118.799 242.64 118.243 242.862 117.811 243.247C117.379 243.627 117.071 244.134 116.889 244.768C116.706 245.397 116.651 246.117 116.722 246.928ZM132.131 251.284C131.15 251.37 130.269 251.211 129.488 250.809C128.711 250.407 128.078 249.804 127.59 249C127.106 248.197 126.815 247.234 126.717 246.111C126.618 244.979 126.737 243.973 127.073 243.093C127.414 242.212 127.932 241.506 128.627 240.975C129.327 240.443 130.167 240.134 131.148 240.048C132.13 239.962 133.008 240.121 133.785 240.523C134.567 240.926 135.199 241.531 135.684 242.339C136.173 243.147 136.467 244.117 136.566 245.249C136.664 246.372 136.542 247.371 136.2 248.247C135.864 249.123 135.345 249.826 134.646 250.358C133.951 250.889 133.113 251.198 132.131 251.284ZM132 249.784C132.745 249.719 133.342 249.474 133.79 249.05C134.237 248.626 134.55 248.092 134.726 247.449C134.903 246.806 134.959 246.122 134.896 245.395C134.832 244.669 134.657 244.002 134.371 243.395C134.085 242.788 133.685 242.312 133.17 241.967C132.655 241.623 132.025 241.483 131.28 241.548C130.534 241.613 129.938 241.86 129.491 242.289C129.044 242.718 128.732 243.256 128.556 243.904C128.379 244.552 128.323 245.239 128.387 245.965C128.45 246.691 128.625 247.356 128.91 247.958C129.196 248.56 129.596 249.032 130.111 249.372C130.625 249.712 131.255 249.849 132 249.784ZM144.02 250.244C143.001 250.333 142.102 250.169 141.325 249.752C140.547 249.336 139.923 248.722 139.453 247.913C138.982 247.103 138.7 246.156 138.605 245.071C138.508 243.967 138.626 242.975 138.958 242.096C139.294 241.211 139.807 240.498 140.496 239.958C141.19 239.412 142.027 239.096 143.008 239.011C143.772 238.944 144.474 239.025 145.111 239.254C145.749 239.484 146.286 239.836 146.722 240.311C147.159 240.786 147.453 241.359 147.607 242.03L145.937 242.176C145.767 241.692 145.445 241.278 144.973 240.935C144.506 240.586 143.904 240.444 143.168 240.508C142.517 240.565 141.961 240.785 141.5 241.167C141.044 241.545 140.705 242.052 140.486 242.689C140.27 243.321 140.198 244.047 140.27 244.868C140.343 245.708 140.539 246.427 140.858 247.027C141.181 247.626 141.601 248.076 142.117 248.378C142.638 248.68 143.228 248.801 143.888 248.744C144.322 248.706 144.71 248.596 145.05 248.414C145.391 248.232 145.671 247.989 145.892 247.684C146.112 247.38 146.257 247.025 146.326 246.62L147.996 246.474C147.958 247.123 147.775 247.722 147.447 248.268C147.124 248.81 146.671 249.258 146.089 249.613C145.511 249.963 144.822 250.174 144.02 250.244ZM149.044 240.194L148.907 238.637L157.737 237.865L157.873 239.421L154.308 239.733L155.122 249.044L153.452 249.19L152.638 239.879L149.044 240.194ZM164.994 248.409C164.013 248.494 163.132 248.336 162.35 247.934C161.574 247.532 160.941 246.929 160.453 246.125C159.969 245.322 159.678 244.358 159.58 243.236C159.481 242.104 159.599 241.098 159.936 240.217C160.277 239.337 160.795 238.631 161.49 238.1C162.19 237.568 163.03 237.259 164.011 237.173C164.992 237.087 165.871 237.246 166.648 237.648C167.429 238.05 168.062 238.656 168.546 239.464C169.035 240.272 169.329 241.242 169.428 242.374C169.527 243.497 169.405 244.496 169.063 245.372C168.726 246.247 168.208 246.951 167.508 247.483C166.813 248.014 165.975 248.323 164.994 248.409ZM164.863 246.909C165.608 246.843 166.205 246.599 166.652 246.175C167.1 245.75 167.412 245.217 167.589 244.574C167.766 243.931 167.822 243.247 167.759 242.52C167.695 241.794 167.52 241.127 167.234 240.52C166.948 239.913 166.548 239.437 166.033 239.092C165.518 238.748 164.888 238.608 164.142 238.673C163.397 238.738 162.801 238.985 162.354 239.414C161.906 239.843 161.595 240.381 161.418 241.029C161.242 241.676 161.186 242.363 161.249 243.09C161.313 243.816 161.487 244.481 161.773 245.083C162.059 245.685 162.459 246.157 162.973 246.497C163.488 246.836 164.118 246.974 164.863 246.909ZM177.089 247.122L176.953 245.566L177.349 245.531C177.674 245.503 177.94 245.415 178.146 245.269C178.351 245.118 178.506 244.874 178.609 244.537C178.717 244.195 178.781 243.728 178.801 243.137C178.825 242.541 178.813 241.786 178.767 240.873L178.544 236.044L185.789 235.41L186.74 246.278L185.07 246.424L184.255 237.113L180.265 237.462L180.434 241.354C180.474 242.249 180.463 243.041 180.4 243.731C180.341 244.416 180.209 244.998 180.004 245.477C179.803 245.956 179.512 246.328 179.132 246.594C178.751 246.86 178.259 247.02 177.655 247.073L177.089 247.122ZM190.846 250.025C190.563 250.05 190.309 250.049 190.083 250.021C189.857 249.998 189.7 249.969 189.612 249.934L189.908 248.425C190.322 248.493 190.684 248.5 190.993 248.444C191.302 248.388 191.565 248.225 191.784 247.954C192.008 247.687 192.197 247.269 192.352 246.7L192.589 245.823L187.614 235.251L189.426 235.092L193.183 243.49L193.296 243.48L195.539 234.557L197.35 234.399L193.826 247.255C193.668 247.834 193.451 248.322 193.177 248.716C192.903 249.116 192.571 249.423 192.181 249.638C191.796 249.852 191.351 249.981 190.846 250.025ZM207.6 233.502L208.551 244.37L206.881 244.516L205.93 233.648L207.6 233.502ZM207.402 238.738L207.538 240.295C207.173 240.469 206.809 240.627 206.446 240.768C206.083 240.905 205.698 241.021 205.293 241.119C204.888 241.211 204.44 241.279 203.949 241.322C202.718 241.429 201.701 241.183 200.898 240.583C200.099 239.983 199.641 239.018 199.525 237.688L199.22 234.207L200.89 234.061L201.195 237.542C201.243 238.098 201.39 238.547 201.633 238.886C201.877 239.226 202.188 239.468 202.566 239.61C202.945 239.753 203.36 239.805 203.813 239.765C204.521 239.703 205.154 239.584 205.714 239.406C206.278 239.224 206.841 239.001 207.402 238.738ZM210.664 233.234L212.333 233.088L213.148 242.399L217.252 242.04L216.437 232.729L218.107 232.583L218.921 241.894L223.025 241.535L222.21 232.224L223.88 232.078L224.831 242.945L211.614 244.102L210.664 233.234ZM229.335 240.07L233.835 231.207L235.76 231.039L236.71 241.906L235.041 242.052L234.305 233.647L229.833 242.508L227.88 242.679L226.93 231.811L228.599 231.665L229.335 240.07ZM241.223 239.03L245.723 230.167L247.648 229.998L248.599 240.866L246.929 241.012L246.193 232.607L241.721 241.468L239.769 241.639L238.818 230.771L240.488 230.625L241.223 239.03ZM244.303 226.641L245.859 226.505C245.926 227.269 245.717 227.917 245.231 228.449C244.745 228.981 244.049 229.287 243.144 229.366C242.252 229.444 241.521 229.263 240.95 228.823C240.384 228.383 240.068 227.781 240.001 227.017L241.557 226.881C241.59 227.249 241.719 227.563 241.946 227.824C242.178 228.084 242.542 228.192 243.037 228.149C243.532 228.106 243.874 227.936 244.062 227.639C244.255 227.341 244.335 227.009 244.303 226.641Z" fill="black"/>
</g>
<rect x="0.25" y="0.25" width="1341.5" height="367.5" rx="14.75" stroke="#E6E6E6" stroke-width="0.5"/>
<defs>
<clipPath id="clip0_3345_3057">
<rect width="1342" height="368" rx="15" fill="white"/>
</clipPath>
</defs>
</svg>
