<svg width="42" height="42" viewBox="0 0 42 42" fill="none" xmlns="http://www.w3.org/2000/svg">
<path d="M20.7331 41.3535H20.8963C29.0264 41.3535 33.7456 40.5349 37.0883 37.2897C40.4968 33.8471 41.2837 29.0962 41.2837 20.9978V20.7688C41.2837 12.6728 40.4968 7.95359 37.0883 4.47692C33.7481 1.2317 28.9947 0.413086 20.8988 0.413086H20.7355C12.6054 0.413086 7.88377 1.2317 4.5411 4.47692C1.13264 7.91948 0.345703 12.6728 0.345703 20.7688V20.9978C0.345703 29.0938 1.13264 33.813 4.5411 37.2897C7.8521 40.5349 12.6054 41.3535 20.7331 41.3535Z" fill="white"/>
<path d="M36.4138 20.5742C36.4138 20.4183 36.2871 20.2892 36.1312 20.2819C30.5349 20.0699 27.1288 19.3561 24.7461 16.9733C22.3585 14.5857 21.6471 11.1772 21.4351 5.56875C21.4302 5.41282 21.3011 5.28613 21.1427 5.28613H20.4898C20.3339 5.28613 20.2047 5.41282 20.1974 5.56875C19.9855 11.1748 19.2741 14.5857 16.8864 16.9733C14.5012 19.3585 11.0977 20.0699 5.50137 20.2819C5.34544 20.2867 5.21875 20.4159 5.21875 20.5742V21.2272C5.21875 21.3831 5.34544 21.5122 5.50137 21.5195C11.0977 21.7315 14.5037 22.4453 16.8864 24.8281C19.2692 27.2108 19.9806 30.6096 20.195 36.1961C20.1999 36.352 20.329 36.4787 20.4874 36.4787H21.1427C21.2987 36.4787 21.4278 36.352 21.4351 36.1961C21.6495 30.6096 22.3609 27.2108 24.7437 24.8281C27.1288 22.4429 30.5324 21.7315 36.1287 21.5195C36.2847 21.5147 36.4113 21.3855 36.4113 21.2272V20.5742H36.4138Z" fill="#FF3DA8"/>
</svg>
