<svg width="391" height="114" viewBox="0 0 391 114" fill="none" xmlns="http://www.w3.org/2000/svg">
<rect x="1.11719" y="0.5" width="389" height="113" rx="14.5" stroke="#E2E2E2"/>
<path d="M27.9372 36.3C26.5305 36.3 25.3205 35.9867 24.3072 35.36C23.3005 34.7333 22.5339 33.8567 22.0072 32.73C21.4805 31.5967 21.2172 30.2867 21.2172 28.8C21.2172 27.3133 21.4805 26.0067 22.0072 24.88C22.5339 23.7467 23.3005 22.8667 24.3072 22.24C25.3205 21.6133 26.5305 21.3 27.9372 21.3C29.3505 21.3 30.5605 21.6133 31.5672 22.24C32.5805 22.8667 33.3472 23.7467 33.8672 24.88C34.3939 26.0067 34.6572 27.3133 34.6572 28.8C34.6572 30.2867 34.3939 31.5967 33.8672 32.73C33.3472 33.8567 32.5805 34.7333 31.5672 35.36C30.5605 35.9867 29.3505 36.3 27.9372 36.3ZM27.9372 34.6C28.9905 34.6067 29.8772 34.37 30.5972 33.89C31.3172 33.4033 31.8572 32.7267 32.2172 31.86C32.5839 30.9867 32.7672 29.9667 32.7672 28.8C32.7672 27.6333 32.5839 26.6167 32.2172 25.75C31.8572 24.8833 31.3172 24.21 30.5972 23.73C29.8772 23.25 28.9905 23.0067 27.9372 23C26.8905 22.9933 26.0072 23.23 25.2872 23.71C24.5672 24.19 24.0239 24.8667 23.6572 25.74C23.2972 26.6067 23.1139 27.6267 23.1072 28.8C23.1005 29.96 23.2772 30.9767 23.6372 31.85C24.0039 32.7167 24.5472 33.39 25.2672 33.87C25.9939 34.35 26.8839 34.5933 27.9372 34.6ZM41.6256 36.3C40.6456 36.3 39.8023 36.0533 39.0956 35.56C38.3956 35.06 37.8623 34.38 37.4956 33.52C37.1356 32.66 36.9556 31.6833 36.9556 30.59C36.9556 29.49 37.1356 28.51 37.4956 27.65C37.8556 26.79 38.389 26.1167 39.0956 25.63C39.8023 25.1433 40.649 24.9 41.6356 24.9C42.6156 24.9 43.469 25.1467 44.1956 25.64C44.929 26.1267 45.489 26.8033 45.8756 27.67C46.269 28.53 46.4656 29.5033 46.4656 30.59C46.4656 31.67 46.269 32.6433 45.8756 33.51C45.489 34.3767 44.929 35.06 44.1956 35.56C43.469 36.0533 42.6123 36.3 41.6256 36.3ZM36.6556 40.8V25.2H38.2456V33.15H38.4456V40.8H36.6556ZM41.4056 34.67C42.099 34.67 42.6823 34.4933 43.1556 34.14C43.629 33.7867 43.9823 33.3033 44.2156 32.69C44.4556 32.07 44.5756 31.37 44.5756 30.59C44.5756 29.81 44.4556 29.1133 44.2156 28.5C43.9823 27.8867 43.6256 27.4067 43.1456 27.06C42.6656 26.7067 42.069 26.53 41.3556 26.53C40.669 26.53 40.0923 26.7 39.6256 27.04C39.1656 27.38 38.819 27.8533 38.5856 28.46C38.359 29.0667 38.2456 29.7767 38.2456 30.59C38.2456 31.3967 38.359 32.1067 38.5856 32.72C38.819 33.3333 39.1723 33.8133 39.6456 34.16C40.119 34.5 40.7056 34.67 41.4056 34.67ZM51.7278 36.3C50.9545 36.3 50.2911 36.1567 49.7378 35.87C49.1845 35.5767 48.7645 35.1867 48.4778 34.7C48.1978 34.2133 48.0578 33.6733 48.0578 33.08C48.0578 32.2467 48.2845 31.57 48.7378 31.05C49.1978 30.53 49.8545 30.15 50.7078 29.91C51.2478 29.7567 51.8478 29.63 52.5078 29.53C53.1678 29.4233 54.0778 29.2933 55.2378 29.14C55.4111 29.1133 55.5778 29.09 55.7378 29.07C55.9045 29.05 56.0578 29.03 56.1978 29.01L55.5578 29.38C55.5711 28.7267 55.4911 28.1933 55.3178 27.78C55.1445 27.3667 54.8611 27.06 54.4678 26.86C54.0745 26.66 53.5511 26.56 52.8978 26.56C52.2178 26.56 51.6345 26.7133 51.1478 27.02C50.6678 27.3267 50.3345 27.8033 50.1478 28.45L48.4578 27.94C48.7178 26.9733 49.2245 26.2267 49.9778 25.7C50.7378 25.1667 51.7178 24.9 52.9178 24.9C53.9178 24.9 54.7645 25.08 55.4578 25.44C56.1578 25.7933 56.6578 26.3167 56.9578 27.01C57.0978 27.3167 57.1911 27.6567 57.2378 28.03C57.2845 28.4033 57.3078 28.8333 57.3078 29.32V36H55.7278V33.41L56.0978 33.65C55.8245 34.23 55.4778 34.72 55.0578 35.12C54.6445 35.5133 54.1578 35.8067 53.5978 36C53.0445 36.2 52.4211 36.3 51.7278 36.3ZM51.9978 34.81C52.6178 34.81 53.1645 34.7 53.6378 34.48C54.1111 34.2533 54.4911 33.9533 54.7778 33.58C55.0711 33.2 55.2645 32.78 55.3578 32.32C55.4378 32.0667 55.4878 31.79 55.5078 31.49C55.5278 31.1833 55.5378 30.8367 55.5378 30.45V30.26L56.1578 30.53L55.4178 30.63C54.4711 30.75 53.6978 30.8567 53.0978 30.95C52.4978 31.0433 51.9678 31.1567 51.5078 31.29C51.0011 31.4433 50.5945 31.66 50.2878 31.94C49.9811 32.22 49.8278 32.5967 49.8278 33.07C49.8278 33.3833 49.9045 33.6733 50.0578 33.94C50.2111 34.2 50.4511 34.41 50.7778 34.57C51.1045 34.73 51.5111 34.81 51.9978 34.81ZM64.4578 36.3C63.3911 36.3 62.4711 36.06 61.6978 35.58C60.9245 35.0933 60.3345 34.42 59.9278 33.56C59.5278 32.7 59.3211 31.7133 59.3078 30.6C59.3211 29.4667 59.5311 28.4733 59.9378 27.62C60.3511 26.76 60.9445 26.0933 61.7178 25.62C62.4978 25.14 63.4178 24.9 64.4778 24.9C65.2311 24.9 65.9211 25.0267 66.5478 25.28C67.1745 25.5333 67.7045 25.8967 68.1378 26.37C68.5778 26.8433 68.8911 27.4 69.0778 28.04L67.3178 28.57C67.0911 27.95 66.7211 27.4667 66.2078 27.12C65.7011 26.7667 65.1178 26.59 64.4578 26.59C63.3911 26.59 62.5845 26.9533 62.0378 27.68C61.4911 28.4 61.2111 29.3733 61.1978 30.6C61.2045 31.4133 61.3311 32.12 61.5778 32.72C61.8245 33.32 62.1911 33.7867 62.6778 34.12C63.1645 34.4467 63.7578 34.61 64.4578 34.61C65.1511 34.61 65.7311 34.45 66.1978 34.13C66.6711 33.81 67.0311 33.34 67.2778 32.72L69.0778 33.19C68.7045 34.1967 68.1211 34.9667 67.3278 35.5C66.5345 36.0333 65.5778 36.3 64.4578 36.3ZM71.0258 36V25.2H72.8058V36H71.0258ZM71.9158 23.53C71.6958 23.53 71.4958 23.48 71.3158 23.38C71.1424 23.2733 71.0058 23.1333 70.9058 22.96C70.8058 22.78 70.7558 22.5833 70.7558 22.37C70.7558 22.1567 70.8058 21.9633 70.9058 21.79C71.0058 21.61 71.1424 21.47 71.3158 21.37C71.4958 21.2633 71.6958 21.21 71.9158 21.21C72.1358 21.21 72.3324 21.2633 72.5058 21.37C72.6858 21.47 72.8258 21.61 72.9258 21.79C73.0324 21.9633 73.0858 22.1567 73.0858 22.37C73.0858 22.5833 73.0324 22.78 72.9258 22.96C72.8258 23.1333 72.6858 23.2733 72.5058 23.38C72.3324 23.48 72.1358 23.53 71.9158 23.53ZM81.8363 36C80.7763 36.2133 79.8196 36.22 78.9663 36.02C78.1196 35.8267 77.5196 35.3867 77.1663 34.7C76.9996 34.36 76.8929 34.0167 76.8463 33.67C76.8063 33.3167 76.7896 32.8467 76.7963 32.26V31.92V22.2H78.5763V31.84V32.15C78.5696 32.5833 78.5763 32.92 78.5963 33.16C78.6229 33.3933 78.6896 33.6 78.7963 33.78C79.0229 34.1867 79.3829 34.4367 79.8763 34.53C80.3696 34.6167 81.0229 34.5967 81.8363 34.47V36ZM74.6063 26.67V25.2H81.8363V26.67H74.6063ZM85.2359 40.8L87.3259 35.12L87.3559 36.8L82.6359 25.2H84.5059L88.2059 34.53H87.5659L91.0359 25.2H92.8459L86.9659 40.8H85.2359Z" fill="black"/>
<path d="M166.332 95V93.0125H161.367V91.745L164.93 84.2H166.445L162.882 91.745H166.332V88.7075H167.682V91.745H168.807V93.0125H167.682V95H166.332ZM173.565 95.21C173.035 95.21 172.538 95.1125 172.073 94.9175C171.613 94.7175 171.215 94.435 170.88 94.07C170.545 93.705 170.303 93.275 170.153 92.78L171.435 92.4125C171.595 92.9025 171.865 93.28 172.245 93.545C172.63 93.81 173.068 93.94 173.558 93.935C173.993 93.925 174.373 93.825 174.698 93.635C175.023 93.445 175.273 93.18 175.448 92.84C175.628 92.5 175.718 92.1125 175.718 91.6775C175.718 91.2325 175.628 90.84 175.448 90.5C175.268 90.16 175.013 89.895 174.683 89.705C174.353 89.515 173.973 89.42 173.543 89.42C173.363 89.42 173.175 89.445 172.98 89.495C172.785 89.545 172.6 89.615 172.425 89.705L171.78 88.6475L175.785 85.025L175.958 85.475H170.58V84.2H176.948V85.4825L173.535 88.7525L173.52 88.28C174.22 88.23 174.84 88.3475 175.38 88.6325C175.925 88.9125 176.345 89.32 176.64 89.855C176.94 90.385 177.09 90.9925 177.09 91.6775C177.09 92.3525 176.935 92.96 176.625 93.5C176.32 94.035 175.9 94.455 175.365 94.76C174.83 95.06 174.23 95.21 173.565 95.21ZM180.24 95L179.34 94.1L189.255 84.2L190.155 85.1L180.24 95ZM187.905 95.225C187.415 95.225 186.963 95.105 186.548 94.865C186.138 94.625 185.81 94.2975 185.565 93.8825C185.325 93.4675 185.205 93.015 185.205 92.525C185.205 92.045 185.328 91.5975 185.573 91.1825C185.823 90.7675 186.155 90.4375 186.57 90.1925C186.985 89.9475 187.43 89.825 187.905 89.825C188.395 89.825 188.845 89.945 189.255 90.185C189.67 90.425 189.998 90.7525 190.238 91.1675C190.483 91.5825 190.605 92.035 190.605 92.525C190.605 93.015 190.483 93.4675 190.238 93.8825C189.998 94.2975 189.67 94.625 189.255 94.865C188.845 95.105 188.395 95.225 187.905 95.225ZM187.905 94.0475C188.175 94.0475 188.428 93.9775 188.663 93.8375C188.898 93.6975 189.083 93.5125 189.218 93.2825C189.358 93.0475 189.428 92.795 189.428 92.525C189.428 92.255 189.358 92.0025 189.218 91.7675C189.083 91.5325 188.898 91.3475 188.663 91.2125C188.428 91.0725 188.175 91.0025 187.905 91.0025C187.635 91.0025 187.383 91.0725 187.148 91.2125C186.918 91.3475 186.733 91.5325 186.593 91.7675C186.453 92.0025 186.383 92.255 186.383 92.525C186.383 92.795 186.453 93.0475 186.593 93.2825C186.733 93.5125 186.918 93.6975 187.148 93.8375C187.383 93.9775 187.635 94.0475 187.905 94.0475ZM181.59 89.375C181.1 89.375 180.648 89.255 180.233 89.015C179.823 88.775 179.495 88.4475 179.25 88.0325C179.01 87.6175 178.89 87.165 178.89 86.675C178.89 86.195 179.013 85.7475 179.258 85.3325C179.508 84.9175 179.84 84.5875 180.255 84.3425C180.67 84.0975 181.115 83.975 181.59 83.975C182.08 83.975 182.53 84.095 182.94 84.335C183.355 84.575 183.683 84.9025 183.923 85.3175C184.168 85.7325 184.29 86.185 184.29 86.675C184.29 87.165 184.168 87.6175 183.923 88.0325C183.683 88.4475 183.355 88.775 182.94 89.015C182.53 89.255 182.08 89.375 181.59 89.375ZM181.59 88.1975C181.86 88.1975 182.113 88.1275 182.348 87.9875C182.583 87.8475 182.768 87.6625 182.903 87.4325C183.043 87.1975 183.113 86.945 183.113 86.675C183.113 86.405 183.043 86.1525 182.903 85.9175C182.768 85.6825 182.583 85.4975 182.348 85.3625C182.113 85.2225 181.86 85.1525 181.59 85.1525C181.32 85.1525 181.068 85.2225 180.833 85.3625C180.603 85.4975 180.418 85.6825 180.278 85.9175C180.138 86.1525 180.068 86.405 180.068 86.675C180.068 86.945 180.138 87.1975 180.278 87.4325C180.418 87.6625 180.603 87.8475 180.833 87.9875C181.068 88.1275 181.32 88.1975 181.59 88.1975Z" fill="black"/>
<rect x="20.6172" y="49" width="350" height="23" rx="11.5" fill="#F2F2F2"/>
<rect x="20.6172" y="49" width="167" height="23" rx="11.5" fill="#FFBBE1"/>
<rect x="164.617" y="49" width="23" height="23" rx="11.5" fill="white"/>
<rect x="169.617" y="54" width="13" height="13" rx="6.5" fill="#FFBBE1"/>
</svg>
