<svg width="27" height="26" viewBox="0 0 27 26" fill="none" xmlns="http://www.w3.org/2000/svg">
<path fill-rule="evenodd" clip-rule="evenodd" d="M1.2694 0.20896C0.970591 -0.0778956 0.495817 -0.0682063 0.20896 0.230602C-0.0778956 0.52941 -0.0682063 1.00419 0.230602 1.29104L12.167 12.75L0.230603 24.209C-0.0682062 24.4958 -0.0778956 24.9706 0.20896 25.2694C0.495818 25.5682 0.970591 25.5779 1.2694 25.291L13.25 13.7897L25.2306 25.291C25.5294 25.5779 26.0042 25.5682 26.291 25.2694C26.5779 24.9706 26.5682 24.4958 26.2694 24.209L14.333 12.75L26.2694 1.29104C26.5682 1.00419 26.5779 0.52941 26.291 0.230602C26.0042 -0.0682063 25.5294 -0.0778956 25.2306 0.20896L13.25 11.7103L1.2694 0.20896Z" fill="white"/>
</svg>
