<svg width="922" height="207" viewBox="0 0 922 207" fill="none" xmlns="http://www.w3.org/2000/svg">
<g clip-path="url(#clip0_689_1960)">
<mask id="path-1-outside-1_689_1960" maskUnits="userSpaceOnUse" x="0" y="56.1914" width="1385" height="151" fill="black">
<rect fill="white" y="56.1914" width="1385" height="151"/>
<path d="M0 56.1914H1385V206.191H0V56.1914Z"/>
</mask>
<path d="M1385 205.191H0V207.191H1385V205.191Z" fill="#4A4A4A" mask="url(#path-1-outside-1_689_1960)"/>
<mask id="path-3-inside-2_689_1960" fill="white">
<path d="M0 56.1914H918V131.191H0V56.1914Z"/>
</mask>
<path d="M0 56.1914H918V131.191H0V56.1914Z" fill="#F2F2F2"/>
<path d="M0 57.1914H918V55.1914H0V57.1914Z" fill="#4A4A4A" mask="url(#path-3-inside-2_689_1960)"/>
<path d="M18.3025 86.1914H17.2V78.0914H18.3025V86.1914ZM17.7475 76.6964C17.5325 76.6964 17.35 76.6239 17.2 76.4789C17.055 76.3339 16.9825 76.1539 16.9825 75.9389C16.9825 75.7189 17.055 75.5364 17.2 75.3914C17.35 75.2464 17.5325 75.1739 17.7475 75.1739C17.9675 75.1739 18.15 75.2489 18.295 75.3989C18.445 75.5439 18.52 75.7239 18.52 75.9389C18.52 76.1539 18.445 76.3339 18.295 76.4789C18.15 76.6239 17.9675 76.6964 17.7475 76.6964ZM23.5735 86.4089C22.9435 86.4089 22.3835 86.3164 21.8935 86.1314C21.4035 85.9464 21.0035 85.6814 20.6935 85.3364C20.3885 84.9864 20.191 84.5689 20.101 84.0839L21.226 83.8964C21.341 84.3614 21.6135 84.7289 22.0435 84.9989C22.4735 85.2689 23.0035 85.4039 23.6335 85.4039C24.2485 85.4039 24.7335 85.2764 25.0885 85.0214C25.4435 84.7614 25.621 84.4089 25.621 83.9639C25.621 83.7039 25.561 83.4989 25.441 83.3489C25.326 83.1939 25.106 83.0514 24.781 82.9214C24.456 82.7914 23.936 82.6289 23.221 82.4339C22.476 82.2339 21.8985 82.0339 21.4885 81.8339C21.0785 81.6289 20.786 81.3989 20.611 81.1439C20.436 80.8839 20.3485 80.5614 20.3485 80.1764C20.3485 79.7214 20.476 79.3189 20.731 78.9689C20.991 78.6189 21.3535 78.3489 21.8185 78.1589C22.2835 77.9639 22.8185 77.8664 23.4235 77.8664C24.0285 77.8664 24.5735 77.9664 25.0585 78.1664C25.5435 78.3614 25.9335 78.6389 26.2285 78.9989C26.5235 79.3539 26.6985 79.7639 26.7535 80.2289L25.6285 80.4314C25.5485 79.9464 25.3035 79.5664 24.8935 79.2914C24.4835 79.0114 23.9635 78.8714 23.3335 78.8714C22.9685 78.8714 22.6435 78.9239 22.3585 79.0289C22.0785 79.1339 21.8585 79.2814 21.6985 79.4714C21.5435 79.6614 21.466 79.8789 21.466 80.1239C21.466 80.3489 21.531 80.5364 21.661 80.6864C21.796 80.8314 22.0285 80.9714 22.3585 81.1064C22.6935 81.2364 23.186 81.3839 23.836 81.5489C24.596 81.7439 25.1835 81.9464 25.5985 82.1564C26.0185 82.3614 26.3185 82.6064 26.4985 82.8914C26.6785 83.1714 26.7685 83.5239 26.7685 83.9489C26.7685 84.4539 26.641 84.8914 26.386 85.2614C26.131 85.6314 25.7635 85.9164 25.2835 86.1164C24.8035 86.3114 24.2335 86.4089 23.5735 86.4089ZM32.7818 81.9389H28.2818V80.9939H32.7818V81.9389ZM36.6582 79.0364V83.2139V83.6564C36.6582 83.9064 36.6682 84.1089 36.6882 84.2639C36.7082 84.4139 36.7532 84.5489 36.8232 84.6689C36.9432 84.8989 37.1157 85.0639 37.3407 85.1639C37.5657 85.2639 37.8482 85.3139 38.1882 85.3139C38.4732 85.3139 38.7907 85.2839 39.1407 85.2239V86.1914C38.7407 86.2714 38.3682 86.3114 38.0232 86.3114C37.5082 86.3114 37.0582 86.2239 36.6732 86.0489C36.2882 85.8739 36.0032 85.5989 35.8182 85.2239C35.7132 85.0089 35.6432 84.7889 35.6082 84.5639C35.5782 84.3389 35.5632 84.0589 35.5632 83.7239V83.2589V79.0364H33.8307V78.0914H35.5632V75.8414H36.6582V78.0914H39.1407V79.0364H36.6582ZM41.164 86.1914H39.8365L43.0015 82.0964L39.904 78.0914H41.224L43.6465 81.2489L46.0465 78.0914H47.3665L44.269 82.0964L47.4415 86.1914H46.114L43.6465 82.9439L41.164 86.1914ZM50.5742 79.0364V83.2139V83.6564C50.5742 83.9064 50.5842 84.1089 50.6042 84.2639C50.6242 84.4139 50.6692 84.5489 50.7392 84.6689C50.8592 84.8989 51.0317 85.0639 51.2567 85.1639C51.4817 85.2639 51.7642 85.3139 52.1042 85.3139C52.3892 85.3139 52.7067 85.2839 53.0567 85.2239V86.1914C52.6567 86.2714 52.2842 86.3114 51.9392 86.3114C51.4242 86.3114 50.9742 86.2239 50.5892 86.0489C50.2042 85.8739 49.9192 85.5989 49.7342 85.2239C49.6292 85.0089 49.5592 84.7889 49.5242 84.5639C49.4942 84.3389 49.4792 84.0589 49.4792 83.7239V83.2589V79.0364H47.7467V78.0914H49.4792V75.8414H50.5742V78.0914H53.0567V79.0364H50.5742ZM59.0025 81.9389H54.5025V80.9939H59.0025V81.9389ZM62.2039 86.1914H61.1014V75.1664H62.2039V86.1914ZM70.5948 79.4864C70.7548 79.8764 70.8348 80.4339 70.8348 81.1589V86.1914H69.8523V84.8489C69.5373 85.3639 69.1173 85.7539 68.5923 86.0189C68.0673 86.2839 67.4598 86.4164 66.7698 86.4164C66.1798 86.4164 65.6748 86.3089 65.2548 86.0939C64.8398 85.8789 64.5273 85.5889 64.3173 85.2239C64.1073 84.8589 64.0023 84.4564 64.0023 84.0164C64.0023 83.3864 64.1848 82.8789 64.5498 82.4939C64.9148 82.1089 65.4198 81.8314 66.0648 81.6614C66.4598 81.5664 66.8998 81.4814 67.3848 81.4064C67.8748 81.3314 68.4398 81.2514 69.0798 81.1664L69.7548 81.0764C69.7448 80.3314 69.5698 79.7839 69.2298 79.4339C68.8948 79.0839 68.3498 78.9089 67.5948 78.9089C67.0248 78.9089 66.5498 79.0364 66.1698 79.2914C65.7948 79.5464 65.5323 79.9389 65.3823 80.4689L64.3098 80.1539C64.4998 79.4239 64.8748 78.8614 65.4348 78.4664C65.9998 78.0664 66.7248 77.8664 67.6098 77.8664C68.3498 77.8664 68.9773 78.0064 69.4923 78.2864C70.0123 78.5664 70.3798 78.9664 70.5948 79.4864ZM66.8973 85.4639C67.3973 85.4639 67.8423 85.3739 68.2323 85.1939C68.6223 85.0089 68.9348 84.7564 69.1698 84.4364C69.4098 84.1114 69.5648 83.7439 69.6348 83.3339C69.7048 83.0239 69.7398 82.5939 69.7398 82.0439C69.5448 82.0639 69.4048 82.0814 69.3198 82.0964C68.6398 82.1764 68.0873 82.2489 67.6623 82.3139C67.2373 82.3739 66.8523 82.4514 66.5073 82.5464C65.5723 82.8214 65.1048 83.3114 65.1048 84.0164C65.1048 84.2664 65.1648 84.5014 65.2848 84.7214C65.4098 84.9414 65.6073 85.1214 65.8773 85.2614C66.1473 85.3964 66.4873 85.4639 66.8973 85.4639ZM74.4073 78.6239C74.6323 78.4239 74.8998 78.2739 75.2098 78.1739C75.5248 78.0739 75.8423 78.0239 76.1623 78.0239C76.3773 78.0239 76.5798 78.0464 76.7698 78.0914V79.1264C76.5548 79.0764 76.3473 79.0514 76.1473 79.0514C75.6273 79.0514 75.1898 79.1989 74.8348 79.4939C74.4648 79.7839 74.2148 80.1539 74.0848 80.6039C73.9548 81.0539 73.8898 81.5689 73.8898 82.1489V86.1914H72.7873V78.0914H73.7773V79.3739C73.9523 79.0639 74.1623 78.8139 74.4073 78.6239ZM83.6971 78.0914H84.6796V86.0789C84.6796 86.5739 84.6496 87.0039 84.5896 87.3689C84.3046 89.1339 83.1471 90.0164 81.1171 90.0164C80.4521 90.0164 79.8346 89.8689 79.2646 89.5739C78.6996 89.2789 78.2521 88.8314 77.9221 88.2314L78.9196 87.6764C79.1296 88.1014 79.4321 88.4189 79.8271 88.6289C80.2271 88.8389 80.6571 88.9439 81.1171 88.9439C81.9771 88.9439 82.6021 88.7064 82.9921 88.2314C83.3821 87.7564 83.5746 87.0339 83.5696 86.0639V85.2314C83.2696 85.6114 82.9071 85.9039 82.4821 86.1089C82.0571 86.3139 81.5771 86.4164 81.0421 86.4164C80.3021 86.4164 79.6596 86.2314 79.1146 85.8614C78.5746 85.4914 78.1621 84.9814 77.8771 84.3314C77.5921 83.6814 77.4496 82.9489 77.4496 82.1339C77.4496 81.3239 77.5921 80.5964 77.8771 79.9514C78.1621 79.3014 78.5721 78.7914 79.1071 78.4214C79.6471 78.0514 80.2771 77.8664 80.9971 77.8664C81.5821 77.8664 82.1021 77.9839 82.5571 78.2189C83.0121 78.4489 83.3921 78.7789 83.6971 79.2089V78.0914ZM81.1546 85.3889C81.7146 85.3889 82.1846 85.2514 82.5646 84.9764C82.9446 84.6964 83.2271 84.3139 83.4121 83.8289C83.6021 83.3389 83.6971 82.7739 83.6971 82.1339C83.6971 81.4889 83.6021 80.9239 83.4121 80.4389C83.2271 79.9489 82.9446 79.5689 82.5646 79.2989C82.1896 79.0289 81.7271 78.8939 81.1771 78.8939C80.6171 78.8939 80.1446 79.0339 79.7596 79.3139C79.3746 79.5939 79.0871 79.9789 78.8971 80.4689C78.7121 80.9539 78.6196 81.5089 78.6196 82.1339C78.6196 82.7589 78.7146 83.3189 78.9046 83.8139C79.0996 84.3039 79.3871 84.6889 79.7671 84.9689C80.1471 85.2489 80.6096 85.3889 81.1546 85.3889ZM87.5041 82.4489C87.5491 83.3789 87.8016 84.0964 88.2616 84.6014C88.7216 85.1064 89.3541 85.3589 90.1591 85.3589C90.7341 85.3589 91.2391 85.2264 91.6741 84.9614C92.1091 84.6914 92.4516 84.3039 92.7016 83.7989L93.7291 84.1964C93.4091 84.9014 92.9391 85.4489 92.3191 85.8389C91.6991 86.2239 90.9941 86.4164 90.2041 86.4164C89.4241 86.4164 88.7416 86.2414 88.1566 85.8914C87.5716 85.5414 87.1191 85.0489 86.7991 84.4139C86.4841 83.7739 86.3266 83.0289 86.3266 82.1789C86.3266 81.3039 86.4816 80.5414 86.7916 79.8914C87.1066 79.2414 87.5516 78.7414 88.1266 78.3914C88.7066 78.0414 89.3841 77.8664 90.1591 77.8664C90.9341 77.8664 91.5991 78.0414 92.1541 78.3914C92.7141 78.7364 93.1416 79.2364 93.4366 79.8914C93.7366 80.5414 93.8866 81.3164 93.8866 82.2164V82.4489H87.5041ZM90.1891 78.8789C89.4141 78.8789 88.7966 79.1064 88.3366 79.5614C87.8816 80.0164 87.6116 80.6714 87.5266 81.5264H92.7316C92.6516 80.6514 92.3966 79.9914 91.9666 79.5464C91.5366 79.1014 90.9441 78.8789 90.1891 78.8789Z" fill="#100F0F"/>
<path d="M190.43 85.1264H195.8V86.1839H188.75L188.758 85.1789L193.64 80.7689C194.035 80.4139 194.308 80.0664 194.458 79.7264C194.608 79.3864 194.683 79.0139 194.683 78.6089C194.683 78.1689 194.578 77.7689 194.368 77.4089C194.163 77.0439 193.88 76.7564 193.52 76.5464C193.16 76.3314 192.763 76.2239 192.328 76.2239C191.878 76.2239 191.47 76.3339 191.105 76.5539C190.74 76.7689 190.453 77.0589 190.243 77.4239C190.038 77.7889 189.938 78.1814 189.943 78.6014H188.818C188.818 77.9564 188.97 77.3714 189.275 76.8464C189.585 76.3214 190.008 75.9114 190.543 75.6164C191.083 75.3164 191.683 75.1664 192.343 75.1664C192.988 75.1664 193.573 75.3189 194.098 75.6239C194.628 75.9289 195.043 76.3464 195.343 76.8764C195.648 77.4014 195.8 77.9814 195.8 78.6164C195.8 79.0614 195.745 79.4539 195.635 79.7939C195.53 80.1289 195.368 80.4414 195.148 80.7314C194.933 81.0214 194.64 81.3314 194.27 81.6614L190.43 85.1264ZM201.13 86.4164C200.47 86.4164 199.87 86.2639 199.33 85.9589C198.795 85.6489 198.372 85.2264 198.062 84.6914C197.757 84.1514 197.605 83.5514 197.605 82.8914V78.6914C197.605 78.0314 197.757 77.4339 198.062 76.8989C198.372 76.3589 198.795 75.9364 199.33 75.6314C199.87 75.3214 200.47 75.1664 201.13 75.1664C201.79 75.1664 202.387 75.3214 202.922 75.6314C203.462 75.9364 203.885 76.3589 204.19 76.8989C204.5 77.4339 204.655 78.0314 204.655 78.6914V82.8914C204.655 83.5514 204.5 84.1514 204.19 84.6914C203.885 85.2264 203.462 85.6489 202.922 85.9589C202.387 86.2639 201.79 86.4164 201.13 86.4164ZM201.13 85.3514C201.565 85.3514 201.967 85.2439 202.337 85.0289C202.707 84.8139 203 84.5214 203.215 84.1514C203.43 83.7814 203.537 83.3789 203.537 82.9439V78.6389C203.537 78.1989 203.43 77.7964 203.215 77.4314C203 77.0614 202.707 76.7689 202.337 76.5539C201.967 76.3339 201.565 76.2239 201.13 76.2239C200.695 76.2239 200.292 76.3339 199.922 76.5539C199.552 76.7689 199.26 77.0614 199.045 77.4314C198.83 77.7964 198.722 78.1989 198.722 78.6389V82.9439C198.722 83.3789 198.83 83.7814 199.045 84.1514C199.26 84.5214 199.552 84.8139 199.922 85.0289C200.292 85.2439 200.695 85.3514 201.13 85.3514ZM210.442 77.8664C211.162 77.8664 211.79 78.0514 212.325 78.4214C212.865 78.7914 213.277 79.3014 213.562 79.9514C213.847 80.5964 213.99 81.3239 213.99 82.1339C213.99 82.9489 213.847 83.6814 213.562 84.3314C213.277 84.9814 212.862 85.4914 212.317 85.8614C211.777 86.2314 211.137 86.4164 210.397 86.4164C209.862 86.4164 209.38 86.3139 208.95 86.1089C208.525 85.8989 208.162 85.6039 207.862 85.2239V89.7914H206.752V78.0914H207.742V79.2089C208.047 78.7789 208.427 78.4489 208.882 78.2189C209.337 77.9839 209.857 77.8664 210.442 77.8664ZM210.285 85.3889C210.83 85.3889 211.292 85.2489 211.672 84.9689C212.052 84.6889 212.337 84.3039 212.527 83.8139C212.722 83.3189 212.82 82.7589 212.82 82.1339C212.82 81.5089 212.725 80.9539 212.535 80.4689C212.35 79.9789 212.065 79.5939 211.68 79.3139C211.295 79.0339 210.822 78.8939 210.262 78.8939C209.712 78.8939 209.247 79.0289 208.867 79.2989C208.492 79.5689 208.21 79.9489 208.02 80.4389C207.835 80.9239 207.742 81.4889 207.742 82.1339C207.742 82.7739 207.835 83.3389 208.02 83.8289C208.21 84.3139 208.495 84.6964 208.875 84.9764C209.255 85.2514 209.725 85.3889 210.285 85.3889ZM215.918 86.1914H214.59L217.755 82.0964L214.658 78.0914H215.978L218.4 81.2489L220.8 78.0914H222.12L219.023 82.0964L222.195 86.1914H220.868L218.4 82.9439L215.918 86.1914Z" fill="#100F0F"/>
<path d="M322.05 86.1914H320.933V76.6214L318.9 77.8439V76.6064L320.933 75.3914H322.05V86.1914ZM328.42 86.4164C327.76 86.4164 327.16 86.2639 326.62 85.9589C326.085 85.6489 325.662 85.2264 325.352 84.6914C325.047 84.1514 324.895 83.5514 324.895 82.8914V78.6914C324.895 78.0314 325.047 77.4339 325.352 76.8989C325.662 76.3589 326.085 75.9364 326.62 75.6314C327.16 75.3214 327.76 75.1664 328.42 75.1664C329.08 75.1664 329.677 75.3214 330.212 75.6314C330.752 75.9364 331.175 76.3589 331.48 76.8989C331.79 77.4339 331.945 78.0314 331.945 78.6914V82.8914C331.945 83.5514 331.79 84.1514 331.48 84.6914C331.175 85.2264 330.752 85.6489 330.212 85.9589C329.677 86.2639 329.08 86.4164 328.42 86.4164ZM328.42 85.3514C328.855 85.3514 329.257 85.2439 329.627 85.0289C329.997 84.8139 330.29 84.5214 330.505 84.1514C330.72 83.7814 330.827 83.3789 330.827 82.9439V78.6389C330.827 78.1989 330.72 77.7964 330.505 77.4314C330.29 77.0614 329.997 76.7689 329.627 76.5539C329.257 76.3339 328.855 76.2239 328.42 76.2239C327.985 76.2239 327.582 76.3339 327.212 76.5539C326.842 76.7689 326.55 77.0614 326.335 77.4314C326.12 77.7964 326.012 78.1989 326.012 78.6389V82.9439C326.012 83.3789 326.12 83.7814 326.335 84.1514C326.55 84.5214 326.842 84.8139 327.212 85.0289C327.582 85.2439 327.985 85.3514 328.42 85.3514ZM335.43 85.1264H340.8V86.1839H333.75L333.758 85.1789L338.64 80.7689C339.035 80.4139 339.308 80.0664 339.458 79.7264C339.608 79.3864 339.683 79.0139 339.683 78.6089C339.683 78.1689 339.578 77.7689 339.368 77.4089C339.163 77.0439 338.88 76.7564 338.52 76.5464C338.16 76.3314 337.763 76.2239 337.328 76.2239C336.878 76.2239 336.47 76.3339 336.105 76.5539C335.74 76.7689 335.453 77.0589 335.243 77.4239C335.038 77.7889 334.938 78.1814 334.943 78.6014H333.818C333.818 77.9564 333.97 77.3714 334.275 76.8464C334.585 76.3214 335.008 75.9114 335.543 75.6164C336.083 75.3164 336.683 75.1664 337.343 75.1664C337.988 75.1664 338.573 75.3189 339.098 75.6239C339.628 75.9289 340.043 76.3464 340.343 76.8764C340.648 77.4014 340.8 77.9814 340.8 78.6164C340.8 79.0614 340.745 79.4539 340.635 79.7939C340.53 80.1289 340.368 80.4414 340.148 80.7314C339.933 81.0214 339.64 81.3314 339.27 81.6614L335.43 85.1264ZM345.155 80.5664C344.665 80.5664 344.212 80.4464 343.797 80.2064C343.387 79.9664 343.06 79.6389 342.815 79.2239C342.575 78.8089 342.455 78.3564 342.455 77.8664C342.455 77.3864 342.577 76.9389 342.822 76.5239C343.072 76.1089 343.405 75.7789 343.82 75.5339C344.235 75.2889 344.68 75.1664 345.155 75.1664C345.645 75.1664 346.095 75.2864 346.505 75.5264C346.92 75.7664 347.247 76.0939 347.487 76.5089C347.732 76.9239 347.855 77.3764 347.855 77.8664C347.855 78.3564 347.732 78.8089 347.487 79.2239C347.247 79.6389 346.92 79.9664 346.505 80.2064C346.095 80.4464 345.645 80.5664 345.155 80.5664ZM353.727 76.1339L343.655 86.1914L342.905 85.4414L352.977 75.3914L353.727 76.1339ZM345.155 79.5689C345.455 79.5689 345.735 79.4914 345.995 79.3364C346.26 79.1814 346.47 78.9739 346.625 78.7139C346.78 78.4489 346.857 78.1664 346.857 77.8664C346.857 77.5664 346.78 77.2864 346.625 77.0264C346.47 76.7614 346.26 76.5514 345.995 76.3964C345.735 76.2414 345.455 76.1639 345.155 76.1639C344.855 76.1639 344.572 76.2414 344.307 76.3964C344.047 76.5514 343.84 76.7614 343.685 77.0264C343.53 77.2864 343.452 77.5664 343.452 77.8664C343.452 78.1664 343.53 78.4489 343.685 78.7139C343.84 78.9739 344.047 79.1814 344.307 79.3364C344.572 79.4914 344.855 79.5689 345.155 79.5689ZM351.477 86.4164C350.987 86.4164 350.535 86.2964 350.12 86.0564C349.71 85.8164 349.382 85.4889 349.137 85.0739C348.897 84.6589 348.777 84.2064 348.777 83.7164C348.777 83.2364 348.9 82.7889 349.145 82.3739C349.395 81.9589 349.727 81.6289 350.142 81.3839C350.557 81.1389 351.002 81.0164 351.477 81.0164C351.967 81.0164 352.417 81.1364 352.827 81.3764C353.242 81.6164 353.57 81.9439 353.81 82.3589C354.055 82.7739 354.177 83.2264 354.177 83.7164C354.177 84.2064 354.055 84.6589 353.81 85.0739C353.57 85.4889 353.242 85.8164 352.827 86.0564C352.417 86.2964 351.967 86.4164 351.477 86.4164ZM351.477 85.4189C351.777 85.4189 352.057 85.3414 352.317 85.1864C352.582 85.0314 352.792 84.8239 352.947 84.5639C353.102 84.2989 353.18 84.0164 353.18 83.7164C353.18 83.4164 353.102 83.1364 352.947 82.8764C352.792 82.6114 352.582 82.4014 352.317 82.2464C352.057 82.0914 351.777 82.0139 351.477 82.0139C351.172 82.0139 350.887 82.0914 350.622 82.2464C350.362 82.4014 350.155 82.6114 350 82.8764C349.845 83.1364 349.767 83.4164 349.767 83.7164C349.767 84.0164 349.845 84.2989 350 84.5639C350.155 84.8239 350.362 85.0314 350.622 85.1864C350.887 85.3414 351.172 85.4189 351.477 85.4189Z" fill="#100F0F"/>
<path d="M448.108 86.1914H447.05V75.3914H448.063L452.308 84.4739L456.53 75.3914H457.558V86.1839H456.508V77.8514L452.66 86.1914H451.948L448.108 77.8514V86.1914ZM460.39 82.4489C460.435 83.3789 460.687 84.0964 461.147 84.6014C461.607 85.1064 462.24 85.3589 463.045 85.3589C463.62 85.3589 464.125 85.2264 464.56 84.9614C464.995 84.6914 465.337 84.3039 465.587 83.7989L466.615 84.1964C466.295 84.9014 465.825 85.4489 465.205 85.8389C464.585 86.2239 463.88 86.4164 463.09 86.4164C462.31 86.4164 461.627 86.2414 461.042 85.8914C460.457 85.5414 460.005 85.0489 459.685 84.4139C459.37 83.7739 459.212 83.0289 459.212 82.1789C459.212 81.3039 459.367 80.5414 459.677 79.8914C459.992 79.2414 460.437 78.7414 461.012 78.3914C461.592 78.0414 462.27 77.8664 463.045 77.8664C463.82 77.8664 464.485 78.0414 465.04 78.3914C465.6 78.7364 466.027 79.2364 466.322 79.8914C466.622 80.5414 466.772 81.3164 466.772 82.2164V82.4489H460.39ZM463.075 78.8789C462.3 78.8789 461.682 79.1064 461.222 79.5614C460.767 80.0164 460.497 80.6714 460.412 81.5264H465.617C465.537 80.6514 465.282 79.9914 464.852 79.5464C464.422 79.1014 463.83 78.8789 463.075 78.8789ZM474.114 75.3914H475.224V86.1914H474.234V85.0589C473.934 85.4889 473.559 85.8239 473.109 86.0639C472.664 86.2989 472.154 86.4164 471.579 86.4164C470.839 86.4164 470.197 86.2314 469.652 85.8614C469.112 85.4914 468.699 84.9814 468.414 84.3314C468.129 83.6814 467.987 82.9489 467.987 82.1339C467.987 81.3239 468.129 80.5964 468.414 79.9514C468.699 79.3014 469.109 78.7914 469.644 78.4214C470.184 78.0514 470.814 77.8664 471.534 77.8664C472.084 77.8664 472.574 77.9689 473.004 78.1739C473.439 78.3789 473.809 78.6689 474.114 79.0439V75.3914ZM471.692 85.3889C472.252 85.3889 472.722 85.2514 473.102 84.9764C473.482 84.6964 473.764 84.3139 473.949 83.8289C474.139 83.3389 474.234 82.7739 474.234 82.1339C474.234 81.4889 474.139 80.9239 473.949 80.4389C473.764 79.9489 473.482 79.5689 473.102 79.2989C472.727 79.0289 472.264 78.8939 471.714 78.8939C471.154 78.8939 470.682 79.0339 470.297 79.3139C469.912 79.5939 469.624 79.9789 469.434 80.4689C469.249 80.9539 469.157 81.5089 469.157 82.1339C469.157 82.7589 469.252 83.3189 469.442 83.8139C469.637 84.3039 469.924 84.6889 470.304 84.9689C470.684 85.2489 471.147 85.3889 471.692 85.3889ZM478.581 86.1914H477.478V78.0914H478.581V86.1914ZM478.026 76.6964C477.811 76.6964 477.628 76.6239 477.478 76.4789C477.333 76.3339 477.261 76.1539 477.261 75.9389C477.261 75.7189 477.333 75.5364 477.478 75.3914C477.628 75.2464 477.811 75.1739 478.026 75.1739C478.246 75.1739 478.428 75.2489 478.573 75.3989C478.723 75.5439 478.798 75.7239 478.798 75.9389C478.798 76.1539 478.723 76.3339 478.573 76.4789C478.428 76.6239 478.246 76.6964 478.026 76.6964ZM486.537 78.0914H487.639V86.1914H486.649V85.0664C486.349 85.5014 485.967 85.8314 485.502 86.0564C485.037 86.2814 484.512 86.3939 483.927 86.3939C483.162 86.3939 482.537 86.2089 482.052 85.8389C481.567 85.4689 481.217 84.9939 481.002 84.4139C480.787 83.8289 480.679 83.2064 480.679 82.5464V78.0914H481.789V82.2239C481.789 83.1789 481.979 83.9389 482.359 84.5039C482.739 85.0639 483.332 85.3439 484.137 85.3439C484.907 85.3439 485.499 85.0864 485.914 84.5714C486.329 84.0564 486.537 83.3364 486.537 82.4114V78.0914ZM497.813 77.8739C498.353 77.8739 498.826 77.9889 499.231 78.2189C499.641 78.4439 499.956 78.7664 500.176 79.1864C500.396 79.6064 500.506 80.0989 500.506 80.6639L500.498 86.1914H499.396L499.403 80.8739C499.403 80.4639 499.323 80.1089 499.163 79.8089C499.008 79.5039 498.791 79.2714 498.511 79.1114C498.231 78.9464 497.913 78.8639 497.558 78.8639C497.228 78.8639 496.921 78.9389 496.636 79.0889C496.351 79.2339 496.118 79.4639 495.938 79.7789C495.758 80.0939 495.668 80.4889 495.668 80.9639L495.661 86.1914H494.573L494.581 80.9489C494.581 80.5239 494.503 80.1539 494.348 79.8389C494.193 79.5239 493.973 79.2839 493.688 79.1189C493.408 78.9489 493.083 78.8639 492.713 78.8639C492.343 78.8639 492.016 78.9514 491.731 79.1264C491.446 79.2964 491.226 79.5414 491.071 79.8614C490.916 80.1764 490.838 80.5439 490.838 80.9639V86.1914H489.728V78.0914H490.718V78.9464C490.973 78.6114 491.298 78.3489 491.693 78.1589C492.088 77.9689 492.523 77.8739 492.998 77.8739C493.533 77.8739 494.006 77.9914 494.416 78.2264C494.831 78.4614 495.146 78.7989 495.361 79.2389C495.596 78.8089 495.928 78.4739 496.358 78.2339C496.788 77.9939 497.273 77.8739 497.813 77.8739Z" fill="#100F0F"/>
<path d="M575.172 89.1914V74.6406H577.369V87.3066H583.961V89.1914H575.172ZM590.045 89.416C589.023 89.416 588.128 89.1816 587.359 88.7129C586.598 88.2441 586.005 87.5866 585.582 86.7402C585.165 85.8939 584.957 84.9108 584.957 83.791C584.957 82.6582 585.165 81.6686 585.582 80.8223C586.005 79.9694 586.598 79.3086 587.359 78.8398C588.128 78.3711 589.023 78.1367 590.045 78.1367C591.074 78.1367 591.969 78.3711 592.73 78.8398C593.492 79.3086 594.085 79.9694 594.508 80.8223C594.931 81.6686 595.143 82.6582 595.143 83.791C595.143 84.9108 594.931 85.8939 594.508 86.7402C594.085 87.5866 593.492 88.2441 592.73 88.7129C591.969 89.1816 591.074 89.416 590.045 89.416ZM590.045 87.6289C590.715 87.6289 591.269 87.4531 591.705 87.1016C592.141 86.75 592.464 86.2845 592.672 85.7051C592.887 85.1191 592.994 84.4811 592.994 83.791C592.994 83.0879 592.887 82.4434 592.672 81.8574C592.464 81.2715 592.141 80.8027 591.705 80.4512C591.269 80.0996 590.715 79.9238 590.045 79.9238C589.381 79.9238 588.831 80.0996 588.395 80.4512C587.965 80.8027 587.643 81.2715 587.428 81.8574C587.213 82.4434 587.105 83.0879 587.105 83.791C587.105 84.4811 587.213 85.1191 587.428 85.7051C587.643 86.2845 587.965 86.75 588.395 87.1016C588.831 87.4531 589.381 87.6289 590.045 87.6289ZM596.676 89.1914V78.2734H598.717V80.0215H598.834C599.036 79.4355 599.387 78.9733 599.889 78.6348C600.396 78.2897 600.969 78.1172 601.607 78.1172C601.738 78.1172 601.891 78.1237 602.066 78.1367C602.249 78.1432 602.395 78.153 602.506 78.166V80.1973C602.421 80.1712 602.268 80.1452 602.047 80.1191C601.832 80.0931 601.614 80.0801 601.393 80.0801C600.891 80.0801 600.442 80.1875 600.045 80.4023C599.654 80.6107 599.345 80.9004 599.117 81.2715C598.896 81.6361 598.785 82.0592 598.785 82.541V89.1914H596.676ZM607.838 89.416C606.77 89.416 605.846 89.1849 605.064 88.7227C604.283 88.2604 603.681 87.6094 603.258 86.7695C602.841 85.9232 602.633 84.9368 602.633 83.8105C602.633 82.6908 602.838 81.7044 603.248 80.8516C603.665 79.9987 604.247 79.3346 604.996 78.8594C605.751 78.3776 606.637 78.1367 607.652 78.1367C608.271 78.1367 608.87 78.2376 609.449 78.4395C610.029 78.6413 610.549 78.9603 611.012 79.3965C611.474 79.8327 611.839 80.3991 612.105 81.0957C612.379 81.7923 612.516 82.6322 612.516 83.6152V84.377H603.834V82.7852H611.422L610.436 83.3125C610.436 82.6419 610.331 82.0495 610.123 81.5352C609.915 81.0208 609.602 80.6204 609.186 80.334C608.775 80.041 608.264 79.8945 607.652 79.8945C607.04 79.8945 606.516 80.041 606.08 80.334C605.65 80.627 605.322 81.0143 605.094 81.4961C604.866 81.9779 604.752 82.5052 604.752 83.0781V84.1621C604.752 84.9108 604.882 85.5456 605.143 86.0664C605.403 86.5872 605.764 86.9844 606.227 87.2578C606.695 87.5312 607.239 87.668 607.857 87.668C608.261 87.668 608.626 87.6094 608.951 87.4922C609.283 87.375 609.57 87.1992 609.811 86.9648C610.051 86.7305 610.234 86.4408 610.357 86.0957L612.369 86.4766C612.206 87.0625 611.92 87.5768 611.51 88.0195C611.1 88.4622 610.582 88.8073 609.957 89.0547C609.339 89.2956 608.632 89.416 607.838 89.416ZM614 89.1914V78.2734H616.021V80.0703H616.168C616.396 79.4648 616.767 78.9928 617.281 78.6543C617.802 78.3092 618.421 78.1367 619.137 78.1367C619.866 78.1367 620.475 78.3092 620.963 78.6543C621.458 78.9928 621.826 79.4648 622.066 80.0703H622.184C622.444 79.4779 622.857 79.0091 623.424 78.6641C623.99 78.3125 624.664 78.1367 625.445 78.1367C626.435 78.1367 627.245 78.4492 627.877 79.0742C628.508 79.6927 628.824 80.627 628.824 81.877V89.1914H626.695V82.0723C626.695 81.3301 626.493 80.7962 626.09 80.4707C625.686 80.1387 625.204 79.9727 624.645 79.9727C623.954 79.9727 623.417 80.1875 623.033 80.6172C622.656 81.0404 622.467 81.5775 622.467 82.2285V89.1914H620.338V81.9355C620.338 81.3431 620.156 80.8678 619.791 80.5098C619.426 80.1517 618.948 79.9727 618.355 79.9727C617.952 79.9727 617.577 80.0801 617.232 80.2949C616.894 80.5033 616.62 80.7962 616.412 81.1738C616.21 81.5449 616.109 81.9746 616.109 82.4629V89.1914H614ZM637.662 74.6406V89.1914H635.465V74.6406H637.662ZM639.859 93.2734V78.2734H641.91V80.0508H642.086C642.216 79.8229 642.395 79.5592 642.623 79.2598C642.857 78.9603 643.183 78.6999 643.6 78.4785C644.016 78.2507 644.56 78.1367 645.23 78.1367C646.109 78.1367 646.891 78.3581 647.574 78.8008C648.264 79.2435 648.808 79.8848 649.205 80.7246C649.602 81.5645 649.801 82.5768 649.801 83.7617C649.801 84.9336 649.605 85.9427 649.215 86.7891C648.824 87.6289 648.284 88.2767 647.594 88.7324C646.91 89.1816 646.126 89.4062 645.24 89.4062C644.583 89.4062 644.042 89.2956 643.619 89.0742C643.202 88.8464 642.874 88.5827 642.633 88.2832C642.398 87.9837 642.216 87.7201 642.086 87.4922H641.969V93.2734H639.859ZM644.781 87.5996C645.413 87.5996 645.94 87.4303 646.363 87.0918C646.786 86.7533 647.105 86.2943 647.32 85.7148C647.542 85.1289 647.652 84.4714 647.652 83.7422C647.652 83.0195 647.545 82.3717 647.33 81.7988C647.115 81.2259 646.796 80.7734 646.373 80.4414C645.95 80.1094 645.419 79.9434 644.781 79.9434C644.163 79.9434 643.642 80.1029 643.219 80.4219C642.796 80.7344 642.473 81.1771 642.252 81.75C642.037 82.3164 641.93 82.9805 641.93 83.7422C641.93 84.5039 642.04 85.1745 642.262 85.7539C642.483 86.3333 642.805 86.7858 643.229 87.1113C643.658 87.4368 644.176 87.5996 644.781 87.5996ZM659.508 80.9492L657.584 81.2812C657.46 80.9167 657.229 80.5814 656.891 80.2754C656.559 79.9694 656.061 79.8164 655.396 79.8164C654.798 79.8164 654.296 79.9531 653.893 80.2266C653.495 80.4935 653.297 80.8353 653.297 81.252C653.297 81.6165 653.43 81.9128 653.697 82.1406C653.971 82.3685 654.404 82.5508 654.996 82.6875L656.744 83.0781C657.74 83.306 658.486 83.6641 658.98 84.1523C659.475 84.6406 659.723 85.2656 659.723 86.0273C659.723 86.6849 659.534 87.2708 659.156 87.7852C658.779 88.293 658.255 88.6934 657.584 88.9863C656.913 89.2728 656.139 89.416 655.26 89.416C654.036 89.416 653.04 89.1523 652.271 88.625C651.503 88.0977 651.031 87.3555 650.855 86.3984L652.896 86.0859C653.027 86.6198 653.29 87.0234 653.688 87.2969C654.091 87.5703 654.612 87.707 655.25 87.707C655.94 87.707 656.493 87.5605 656.91 87.2676C657.333 86.9746 657.545 86.6198 657.545 86.2031C657.545 85.513 657.031 85.0475 656.002 84.8066L654.156 84.3965C653.134 84.1621 652.379 83.7943 651.891 83.293C651.409 82.7852 651.168 82.1471 651.168 81.3789C651.168 80.7344 651.347 80.168 651.705 79.6797C652.07 79.1914 652.568 78.8138 653.199 78.5469C653.837 78.2734 654.563 78.1367 655.377 78.1367C656.562 78.1367 657.49 78.3939 658.16 78.9082C658.837 79.4225 659.286 80.1029 659.508 80.9492ZM668.121 84.6797V78.2734H670.23V89.1914H668.16V87.2969H668.043C667.783 87.8763 667.379 88.3613 666.832 88.752C666.285 89.1426 665.602 89.3346 664.781 89.3281C664.078 89.3281 663.456 89.1751 662.916 88.8691C662.382 88.5632 661.962 88.1042 661.656 87.4922C661.357 86.8802 661.207 86.1217 661.207 85.2168V78.2734H663.316V84.9727C663.316 85.7083 663.525 86.2975 663.941 86.7402C664.358 87.1829 664.895 87.401 665.553 87.3945C665.95 87.3945 666.344 87.2969 666.734 87.1016C667.132 86.9062 667.46 86.6068 667.721 86.2031C667.988 85.7995 668.121 85.2917 668.121 84.6797ZM672.262 89.1914V78.2734H674.283V80.0703H674.43C674.658 79.4648 675.029 78.9928 675.543 78.6543C676.064 78.3092 676.682 78.1367 677.398 78.1367C678.128 78.1367 678.736 78.3092 679.225 78.6543C679.719 78.9928 680.087 79.4648 680.328 80.0703H680.445C680.706 79.4779 681.119 79.0091 681.686 78.6641C682.252 78.3125 682.926 78.1367 683.707 78.1367C684.697 78.1367 685.507 78.4492 686.139 79.0742C686.77 79.6927 687.086 80.627 687.086 81.877V89.1914H684.957V82.0723C684.957 81.3301 684.755 80.7962 684.352 80.4707C683.948 80.1387 683.466 79.9727 682.906 79.9727C682.216 79.9727 681.679 80.1875 681.295 80.6172C680.917 81.0404 680.729 81.5775 680.729 82.2285V89.1914H678.6V81.9355C678.6 81.3431 678.417 80.8678 678.053 80.5098C677.688 80.1517 677.21 79.9727 676.617 79.9727C676.214 79.9727 675.839 80.0801 675.494 80.2949C675.156 80.5033 674.882 80.7962 674.674 81.1738C674.472 81.5449 674.371 81.9746 674.371 82.4629V89.1914H672.262Z" fill="#100F0F"/>
<mask id="path-10-inside-3_689_1960" fill="white">
<path d="M0 131.191H918V206.191H0V131.191Z"/>
</mask>
<path d="M0 131.191H918V206.191H0V131.191Z" fill="#F2F2F2"/>
<path d="M0 132.191H918V130.191H0V132.191Z" fill="#4A4A4A" mask="url(#path-10-inside-3_689_1960)"/>
<path d="M18.3025 161.191H17.2V153.091H18.3025V161.191ZM17.7475 151.696C17.5325 151.696 17.35 151.624 17.2 151.479C17.055 151.334 16.9825 151.154 16.9825 150.939C16.9825 150.719 17.055 150.536 17.2 150.391C17.35 150.246 17.5325 150.174 17.7475 150.174C17.9675 150.174 18.15 150.249 18.295 150.399C18.445 150.544 18.52 150.724 18.52 150.939C18.52 151.154 18.445 151.334 18.295 151.479C18.15 151.624 17.9675 151.696 17.7475 151.696ZM23.5735 161.409C22.9435 161.409 22.3835 161.316 21.8935 161.131C21.4035 160.946 21.0035 160.681 20.6935 160.336C20.3885 159.986 20.191 159.569 20.101 159.084L21.226 158.896C21.341 159.361 21.6135 159.729 22.0435 159.999C22.4735 160.269 23.0035 160.404 23.6335 160.404C24.2485 160.404 24.7335 160.276 25.0885 160.021C25.4435 159.761 25.621 159.409 25.621 158.964C25.621 158.704 25.561 158.499 25.441 158.349C25.326 158.194 25.106 158.051 24.781 157.921C24.456 157.791 23.936 157.629 23.221 157.434C22.476 157.234 21.8985 157.034 21.4885 156.834C21.0785 156.629 20.786 156.399 20.611 156.144C20.436 155.884 20.3485 155.561 20.3485 155.176C20.3485 154.721 20.476 154.319 20.731 153.969C20.991 153.619 21.3535 153.349 21.8185 153.159C22.2835 152.964 22.8185 152.866 23.4235 152.866C24.0285 152.866 24.5735 152.966 25.0585 153.166C25.5435 153.361 25.9335 153.639 26.2285 153.999C26.5235 154.354 26.6985 154.764 26.7535 155.229L25.6285 155.431C25.5485 154.946 25.3035 154.566 24.8935 154.291C24.4835 154.011 23.9635 153.871 23.3335 153.871C22.9685 153.871 22.6435 153.924 22.3585 154.029C22.0785 154.134 21.8585 154.281 21.6985 154.471C21.5435 154.661 21.466 154.879 21.466 155.124C21.466 155.349 21.531 155.536 21.661 155.686C21.796 155.831 22.0285 155.971 22.3585 156.106C22.6935 156.236 23.186 156.384 23.836 156.549C24.596 156.744 25.1835 156.946 25.5985 157.156C26.0185 157.361 26.3185 157.606 26.4985 157.891C26.6785 158.171 26.7685 158.524 26.7685 158.949C26.7685 159.454 26.641 159.891 26.386 160.261C26.131 160.631 25.7635 160.916 25.2835 161.116C24.8035 161.311 24.2335 161.409 23.5735 161.409ZM32.7818 156.939H28.2818V155.994H32.7818V156.939ZM36.6582 154.036V158.214V158.656C36.6582 158.906 36.6682 159.109 36.6882 159.264C36.7082 159.414 36.7532 159.549 36.8232 159.669C36.9432 159.899 37.1157 160.064 37.3407 160.164C37.5657 160.264 37.8482 160.314 38.1882 160.314C38.4732 160.314 38.7907 160.284 39.1407 160.224V161.191C38.7407 161.271 38.3682 161.311 38.0232 161.311C37.5082 161.311 37.0582 161.224 36.6732 161.049C36.2882 160.874 36.0032 160.599 35.8182 160.224C35.7132 160.009 35.6432 159.789 35.6082 159.564C35.5782 159.339 35.5632 159.059 35.5632 158.724V158.259V154.036H33.8307V153.091H35.5632V150.841H36.6582V153.091H39.1407V154.036H36.6582ZM41.164 161.191H39.8365L43.0015 157.096L39.904 153.091H41.224L43.6465 156.249L46.0465 153.091H47.3665L44.269 157.096L47.4415 161.191H46.114L43.6465 157.944L41.164 161.191ZM50.5742 154.036V158.214V158.656C50.5742 158.906 50.5842 159.109 50.6042 159.264C50.6242 159.414 50.6692 159.549 50.7392 159.669C50.8592 159.899 51.0317 160.064 51.2567 160.164C51.4817 160.264 51.7642 160.314 52.1042 160.314C52.3892 160.314 52.7067 160.284 53.0567 160.224V161.191C52.6567 161.271 52.2842 161.311 51.9392 161.311C51.4242 161.311 50.9742 161.224 50.5892 161.049C50.2042 160.874 49.9192 160.599 49.7342 160.224C49.6292 160.009 49.5592 159.789 49.5242 159.564C49.4942 159.339 49.4792 159.059 49.4792 158.724V158.259V154.036H47.7467V153.091H49.4792V150.841H50.5742V153.091H53.0567V154.036H50.5742ZM59.0025 156.939H54.5025V155.994H59.0025V156.939ZM69.0289 152.874C69.5689 152.874 70.0414 152.989 70.4464 153.219C70.8564 153.444 71.1714 153.766 71.3914 154.186C71.6114 154.606 71.7214 155.099 71.7214 155.664L71.7139 161.191H70.6114L70.6189 155.874C70.6189 155.464 70.5389 155.109 70.3789 154.809C70.2239 154.504 70.0064 154.271 69.7264 154.111C69.4464 153.946 69.1289 153.864 68.7739 153.864C68.4439 153.864 68.1364 153.939 67.8514 154.089C67.5664 154.234 67.3339 154.464 67.1539 154.779C66.9739 155.094 66.8839 155.489 66.8839 155.964L66.8764 161.191H65.7889L65.7964 155.949C65.7964 155.524 65.7189 155.154 65.5639 154.839C65.4089 154.524 65.1889 154.284 64.9039 154.119C64.6239 153.949 64.2989 153.864 63.9289 153.864C63.5589 153.864 63.2314 153.951 62.9464 154.126C62.6614 154.296 62.4414 154.541 62.2864 154.861C62.1314 155.176 62.0539 155.544 62.0539 155.964V161.191H60.9439V153.091H61.9339V153.946C62.1889 153.611 62.5139 153.349 62.9089 153.159C63.3039 152.969 63.7389 152.874 64.2139 152.874C64.7489 152.874 65.2214 152.991 65.6314 153.226C66.0464 153.461 66.3614 153.799 66.5764 154.239C66.8114 153.809 67.1439 153.474 67.5739 153.234C68.0039 152.994 68.4889 152.874 69.0289 152.874ZM74.3351 157.449C74.3801 158.379 74.6326 159.096 75.0926 159.601C75.5526 160.106 76.1851 160.359 76.9901 160.359C77.5651 160.359 78.0701 160.226 78.5051 159.961C78.9401 159.691 79.2826 159.304 79.5326 158.799L80.5601 159.196C80.2401 159.901 79.7701 160.449 79.1501 160.839C78.5301 161.224 77.8251 161.416 77.0351 161.416C76.2551 161.416 75.5726 161.241 74.9876 160.891C74.4026 160.541 73.9501 160.049 73.6301 159.414C73.3151 158.774 73.1576 158.029 73.1576 157.179C73.1576 156.304 73.3126 155.541 73.6226 154.891C73.9376 154.241 74.3826 153.741 74.9576 153.391C75.5376 153.041 76.2151 152.866 76.9901 152.866C77.7651 152.866 78.4301 153.041 78.9851 153.391C79.5451 153.736 79.9726 154.236 80.2676 154.891C80.5676 155.541 80.7176 156.316 80.7176 157.216V157.449H74.3351ZM77.0201 153.879C76.2451 153.879 75.6276 154.106 75.1676 154.561C74.7126 155.016 74.4426 155.671 74.3576 156.526H79.5626C79.4826 155.651 79.2276 154.991 78.7976 154.546C78.3676 154.101 77.7751 153.879 77.0201 153.879ZM88.0595 150.391H89.1695V161.191H88.1795V160.059C87.8795 160.489 87.5045 160.824 87.0545 161.064C86.6095 161.299 86.0995 161.416 85.5245 161.416C84.7845 161.416 84.142 161.231 83.597 160.861C83.057 160.491 82.6445 159.981 82.3595 159.331C82.0745 158.681 81.932 157.949 81.932 157.134C81.932 156.324 82.0745 155.596 82.3595 154.951C82.6445 154.301 83.0545 153.791 83.5895 153.421C84.1295 153.051 84.7595 152.866 85.4795 152.866C86.0295 152.866 86.5195 152.969 86.9495 153.174C87.3845 153.379 87.7545 153.669 88.0595 154.044V150.391ZM85.637 160.389C86.197 160.389 86.667 160.251 87.047 159.976C87.427 159.696 87.7095 159.314 87.8945 158.829C88.0845 158.339 88.1795 157.774 88.1795 157.134C88.1795 156.489 88.0845 155.924 87.8945 155.439C87.7095 154.949 87.427 154.569 87.047 154.299C86.672 154.029 86.2095 153.894 85.6595 153.894C85.0995 153.894 84.627 154.034 84.242 154.314C83.857 154.594 83.5695 154.979 83.3795 155.469C83.1945 155.954 83.102 156.509 83.102 157.134C83.102 157.759 83.197 158.319 83.387 158.814C83.582 159.304 83.8695 159.689 84.2495 159.969C84.6295 160.249 85.092 160.389 85.637 160.389ZM92.5261 161.191H91.4236V153.091H92.5261V161.191ZM91.9711 151.696C91.7561 151.696 91.5736 151.624 91.4236 151.479C91.2786 151.334 91.2061 151.154 91.2061 150.939C91.2061 150.719 91.2786 150.536 91.4236 150.391C91.5736 150.246 91.7561 150.174 91.9711 150.174C92.1911 150.174 92.3736 150.249 92.5186 150.399C92.6686 150.544 92.7436 150.724 92.7436 150.939C92.7436 151.154 92.6686 151.334 92.5186 151.479C92.3736 151.624 92.1911 151.696 91.9711 151.696ZM100.482 153.091H101.585V161.191H100.595V160.066C100.295 160.501 99.9121 160.831 99.4471 161.056C98.9821 161.281 98.4571 161.394 97.8721 161.394C97.1071 161.394 96.4821 161.209 95.9971 160.839C95.5121 160.469 95.1621 159.994 94.9471 159.414C94.7321 158.829 94.6246 158.206 94.6246 157.546V153.091H95.7346V157.224C95.7346 158.179 95.9246 158.939 96.3046 159.504C96.6846 160.064 97.2771 160.344 98.0821 160.344C98.8521 160.344 99.4446 160.086 99.8596 159.571C100.275 159.056 100.482 158.336 100.482 157.411V153.091ZM111.758 152.874C112.298 152.874 112.771 152.989 113.176 153.219C113.586 153.444 113.901 153.766 114.121 154.186C114.341 154.606 114.451 155.099 114.451 155.664L114.443 161.191H113.341L113.348 155.874C113.348 155.464 113.268 155.109 113.108 154.809C112.953 154.504 112.736 154.271 112.456 154.111C112.176 153.946 111.858 153.864 111.503 153.864C111.173 153.864 110.866 153.939 110.581 154.089C110.296 154.234 110.063 154.464 109.883 154.779C109.703 155.094 109.613 155.489 109.613 155.964L109.606 161.191H108.518L108.526 155.949C108.526 155.524 108.448 155.154 108.293 154.839C108.138 154.524 107.918 154.284 107.633 154.119C107.353 153.949 107.028 153.864 106.658 153.864C106.288 153.864 105.961 153.951 105.676 154.126C105.391 154.296 105.171 154.541 105.016 154.861C104.861 155.176 104.783 155.544 104.783 155.964V161.191H103.673V153.091H104.663V153.946C104.918 153.611 105.243 153.349 105.638 153.159C106.033 152.969 106.468 152.874 106.943 152.874C107.478 152.874 107.951 152.991 108.361 153.226C108.776 153.461 109.091 153.799 109.306 154.239C109.541 153.809 109.873 153.474 110.303 153.234C110.733 152.994 111.218 152.874 111.758 152.874Z" fill="#100F0F"/>
<path d="M192.05 161.191H190.933V151.621L188.9 152.844V151.606L190.933 150.391H192.05V161.191ZM200.13 155.416C200.625 155.706 201.002 156.089 201.262 156.564C201.522 157.039 201.652 157.571 201.652 158.161C201.652 158.811 201.505 159.381 201.21 159.871C200.92 160.361 200.512 160.741 199.987 161.011C199.462 161.281 198.862 161.416 198.187 161.416C197.517 161.416 196.92 161.281 196.395 161.011C195.875 160.741 195.47 160.361 195.18 159.871C194.89 159.381 194.745 158.811 194.745 158.161C194.745 157.561 194.87 157.024 195.12 156.549C195.375 156.074 195.755 155.694 196.26 155.409C195.85 155.164 195.537 154.836 195.322 154.426C195.107 154.016 195 153.564 195 153.069C195 152.479 195.135 151.966 195.405 151.531C195.675 151.091 196.05 150.754 196.53 150.519C197.015 150.284 197.567 150.166 198.187 150.166C198.807 150.166 199.357 150.284 199.837 150.519C200.322 150.754 200.7 151.091 200.97 151.531C201.245 151.966 201.382 152.479 201.382 153.069C201.382 153.569 201.275 154.026 201.06 154.441C200.85 154.851 200.54 155.176 200.13 155.416ZM198.187 151.254C197.567 151.254 197.075 151.409 196.71 151.719C196.35 152.029 196.17 152.479 196.17 153.069C196.17 153.659 196.352 154.111 196.717 154.426C197.082 154.741 197.572 154.899 198.187 154.899C198.807 154.899 199.3 154.741 199.665 154.426C200.03 154.111 200.212 153.659 200.212 153.069C200.212 152.479 200.03 152.029 199.665 151.719C199.3 151.409 198.807 151.254 198.187 151.254ZM198.187 160.359C198.647 160.359 199.05 160.274 199.395 160.104C199.74 159.934 200.007 159.684 200.197 159.354C200.387 159.024 200.482 158.626 200.482 158.161C200.482 157.456 200.275 156.914 199.86 156.534C199.45 156.154 198.892 155.964 198.187 155.964C197.482 155.964 196.925 156.154 196.515 156.534C196.11 156.914 195.907 157.456 195.907 158.161C195.907 158.626 196.002 159.024 196.192 159.354C196.382 159.684 196.647 159.934 196.987 160.104C197.332 160.274 197.732 160.359 198.187 160.359ZM207.278 152.866C207.998 152.866 208.626 153.051 209.161 153.421C209.701 153.791 210.113 154.301 210.398 154.951C210.683 155.596 210.826 156.324 210.826 157.134C210.826 157.949 210.683 158.681 210.398 159.331C210.113 159.981 209.698 160.491 209.153 160.861C208.613 161.231 207.973 161.416 207.233 161.416C206.698 161.416 206.216 161.314 205.786 161.109C205.361 160.899 204.998 160.604 204.698 160.224V164.791H203.588V153.091H204.578V154.209C204.883 153.779 205.263 153.449 205.718 153.219C206.173 152.984 206.693 152.866 207.278 152.866ZM207.121 160.389C207.666 160.389 208.128 160.249 208.508 159.969C208.888 159.689 209.173 159.304 209.363 158.814C209.558 158.319 209.656 157.759 209.656 157.134C209.656 156.509 209.561 155.954 209.371 155.469C209.186 154.979 208.901 154.594 208.516 154.314C208.131 154.034 207.658 153.894 207.098 153.894C206.548 153.894 206.083 154.029 205.703 154.299C205.328 154.569 205.046 154.949 204.856 155.439C204.671 155.924 204.578 156.489 204.578 157.134C204.578 157.774 204.671 158.339 204.856 158.829C205.046 159.314 205.331 159.696 205.711 159.976C206.091 160.251 206.561 160.389 207.121 160.389ZM212.754 161.191H211.426L214.591 157.096L211.494 153.091H212.814L215.236 156.249L217.636 153.091H218.956L215.859 157.096L219.031 161.191H217.704L215.236 157.944L212.754 161.191Z" fill="#100F0F"/>
<path d="M322.05 161.191H320.933V151.621L318.9 152.844V151.606L320.933 150.391H322.05V161.191ZM326.275 160.126H331.645V161.184H324.595L324.602 160.179L329.485 155.769C329.88 155.414 330.152 155.066 330.302 154.726C330.452 154.386 330.527 154.014 330.527 153.609C330.527 153.169 330.422 152.769 330.212 152.409C330.007 152.044 329.725 151.756 329.365 151.546C329.005 151.331 328.607 151.224 328.172 151.224C327.722 151.224 327.315 151.334 326.95 151.554C326.585 151.769 326.297 152.059 326.087 152.424C325.882 152.789 325.782 153.181 325.787 153.601H324.662C324.662 152.956 324.815 152.371 325.12 151.846C325.43 151.321 325.852 150.911 326.387 150.616C326.927 150.316 327.527 150.166 328.187 150.166C328.832 150.166 329.417 150.319 329.942 150.624C330.472 150.929 330.887 151.346 331.187 151.876C331.492 152.401 331.645 152.981 331.645 153.616C331.645 154.061 331.59 154.454 331.48 154.794C331.375 155.129 331.212 155.441 330.992 155.731C330.777 156.021 330.485 156.331 330.115 156.661L326.275 160.126ZM336.449 161.191H335.332V151.621L333.299 152.844V151.606L335.332 150.391H336.449V161.191ZM339.541 161.274C339.326 161.274 339.144 161.201 338.994 161.056C338.849 160.911 338.776 160.731 338.776 160.516C338.776 160.296 338.849 160.114 338.994 159.969C339.144 159.824 339.326 159.751 339.541 159.751C339.761 159.751 339.944 159.826 340.089 159.976C340.239 160.121 340.314 160.301 340.314 160.516C340.314 160.731 340.239 160.911 340.089 161.056C339.944 161.201 339.761 161.274 339.541 161.274ZM343.882 160.126H349.252V161.184H342.202L342.21 160.179L347.092 155.769C347.487 155.414 347.76 155.066 347.91 154.726C348.06 154.386 348.135 154.014 348.135 153.609C348.135 153.169 348.03 152.769 347.82 152.409C347.615 152.044 347.332 151.756 346.972 151.546C346.612 151.331 346.215 151.224 345.78 151.224C345.33 151.224 344.922 151.334 344.557 151.554C344.192 151.769 343.905 152.059 343.695 152.424C343.49 152.789 343.39 153.181 343.395 153.601H342.27C342.27 152.956 342.422 152.371 342.727 151.846C343.037 151.321 343.46 150.911 343.995 150.616C344.535 150.316 345.135 150.166 345.795 150.166C346.44 150.166 347.025 150.319 347.55 150.624C348.08 150.929 348.495 151.346 348.795 151.876C349.1 152.401 349.252 152.981 349.252 153.616C349.252 154.061 349.197 154.454 349.087 154.794C348.982 155.129 348.82 155.441 348.6 155.731C348.385 156.021 348.092 156.331 347.722 156.661L343.882 160.126ZM353.607 155.566C353.117 155.566 352.664 155.446 352.249 155.206C351.839 154.966 351.512 154.639 351.267 154.224C351.027 153.809 350.907 153.356 350.907 152.866C350.907 152.386 351.029 151.939 351.274 151.524C351.524 151.109 351.857 150.779 352.272 150.534C352.687 150.289 353.132 150.166 353.607 150.166C354.097 150.166 354.547 150.286 354.957 150.526C355.372 150.766 355.699 151.094 355.939 151.509C356.184 151.924 356.307 152.376 356.307 152.866C356.307 153.356 356.184 153.809 355.939 154.224C355.699 154.639 355.372 154.966 354.957 155.206C354.547 155.446 354.097 155.566 353.607 155.566ZM362.179 151.134L352.107 161.191L351.357 160.441L361.429 150.391L362.179 151.134ZM353.607 154.569C353.907 154.569 354.187 154.491 354.447 154.336C354.712 154.181 354.922 153.974 355.077 153.714C355.232 153.449 355.309 153.166 355.309 152.866C355.309 152.566 355.232 152.286 355.077 152.026C354.922 151.761 354.712 151.551 354.447 151.396C354.187 151.241 353.907 151.164 353.607 151.164C353.307 151.164 353.024 151.241 352.759 151.396C352.499 151.551 352.292 151.761 352.137 152.026C351.982 152.286 351.904 152.566 351.904 152.866C351.904 153.166 351.982 153.449 352.137 153.714C352.292 153.974 352.499 154.181 352.759 154.336C353.024 154.491 353.307 154.569 353.607 154.569ZM359.929 161.416C359.439 161.416 358.987 161.296 358.572 161.056C358.162 160.816 357.834 160.489 357.589 160.074C357.349 159.659 357.229 159.206 357.229 158.716C357.229 158.236 357.352 157.789 357.597 157.374C357.847 156.959 358.179 156.629 358.594 156.384C359.009 156.139 359.454 156.016 359.929 156.016C360.419 156.016 360.869 156.136 361.279 156.376C361.694 156.616 362.022 156.944 362.262 157.359C362.507 157.774 362.629 158.226 362.629 158.716C362.629 159.206 362.507 159.659 362.262 160.074C362.022 160.489 361.694 160.816 361.279 161.056C360.869 161.296 360.419 161.416 359.929 161.416ZM359.929 160.419C360.229 160.419 360.509 160.341 360.769 160.186C361.034 160.031 361.244 159.824 361.399 159.564C361.554 159.299 361.632 159.016 361.632 158.716C361.632 158.416 361.554 158.136 361.399 157.876C361.244 157.611 361.034 157.401 360.769 157.246C360.509 157.091 360.229 157.014 359.929 157.014C359.624 157.014 359.339 157.091 359.074 157.246C358.814 157.401 358.607 157.611 358.452 157.876C358.297 158.136 358.219 158.416 358.219 158.716C358.219 159.016 358.297 159.299 358.452 159.564C358.607 159.824 358.814 160.031 359.074 160.186C359.339 160.341 359.624 160.419 359.929 160.419Z" fill="#100F0F"/>
<path d="M454.783 161.191H453.508L451.19 156.691H448.153V161.191H447.05V150.391H451.22C451.485 150.391 451.738 150.411 451.978 150.451C452.528 150.536 453 150.724 453.395 151.014C453.79 151.304 454.09 151.666 454.295 152.101C454.505 152.536 454.61 153.016 454.61 153.541C454.61 153.991 454.523 154.421 454.348 154.831C454.173 155.236 453.915 155.589 453.575 155.889C453.24 156.189 452.84 156.406 452.375 156.541L454.783 161.191ZM448.153 151.449V155.634H451.19C451.485 155.634 451.708 155.614 451.858 155.574C452.388 155.439 452.79 155.184 453.065 154.809C453.34 154.434 453.478 154.011 453.478 153.541C453.478 153.236 453.418 152.944 453.298 152.664C453.178 152.384 452.995 152.141 452.75 151.936C452.51 151.726 452.213 151.584 451.858 151.509C451.658 151.469 451.435 151.449 451.19 151.449H448.153ZM457.24 157.449C457.285 158.379 457.538 159.096 457.998 159.601C458.458 160.106 459.09 160.359 459.895 160.359C460.47 160.359 460.975 160.226 461.41 159.961C461.845 159.691 462.188 159.304 462.438 158.799L463.465 159.196C463.145 159.901 462.675 160.449 462.055 160.839C461.435 161.224 460.73 161.416 459.94 161.416C459.16 161.416 458.478 161.241 457.893 160.891C457.308 160.541 456.855 160.049 456.535 159.414C456.22 158.774 456.063 158.029 456.063 157.179C456.063 156.304 456.218 155.541 456.528 154.891C456.843 154.241 457.288 153.741 457.863 153.391C458.443 153.041 459.12 152.866 459.895 152.866C460.67 152.866 461.335 153.041 461.89 153.391C462.45 153.736 462.878 154.236 463.173 154.891C463.473 155.541 463.623 156.316 463.623 157.216V157.449H457.24ZM459.925 153.879C459.15 153.879 458.533 154.106 458.073 154.561C457.618 155.016 457.348 155.671 457.263 156.526H462.468C462.388 155.651 462.133 154.991 461.703 154.546C461.273 154.101 460.68 153.879 459.925 153.879ZM471.085 153.091H472.067V161.079C472.067 161.574 472.037 162.004 471.977 162.369C471.692 164.134 470.535 165.016 468.505 165.016C467.84 165.016 467.222 164.869 466.652 164.574C466.087 164.279 465.64 163.831 465.31 163.231L466.307 162.676C466.517 163.101 466.82 163.419 467.215 163.629C467.615 163.839 468.045 163.944 468.505 163.944C469.365 163.944 469.99 163.706 470.38 163.231C470.77 162.756 470.962 162.034 470.957 161.064V160.231C470.657 160.611 470.295 160.904 469.87 161.109C469.445 161.314 468.965 161.416 468.43 161.416C467.69 161.416 467.047 161.231 466.502 160.861C465.962 160.491 465.55 159.981 465.265 159.331C464.98 158.681 464.837 157.949 464.837 157.134C464.837 156.324 464.98 155.596 465.265 154.951C465.55 154.301 465.96 153.791 466.495 153.421C467.035 153.051 467.665 152.866 468.385 152.866C468.97 152.866 469.49 152.984 469.945 153.219C470.4 153.449 470.78 153.779 471.085 154.209V153.091ZM468.542 160.389C469.102 160.389 469.572 160.251 469.952 159.976C470.332 159.696 470.615 159.314 470.8 158.829C470.99 158.339 471.085 157.774 471.085 157.134C471.085 156.489 470.99 155.924 470.8 155.439C470.615 154.949 470.332 154.569 469.952 154.299C469.577 154.029 469.115 153.894 468.565 153.894C468.005 153.894 467.532 154.034 467.147 154.314C466.762 154.594 466.475 154.979 466.285 155.469C466.1 155.954 466.007 156.509 466.007 157.134C466.007 157.759 466.102 158.319 466.292 158.814C466.487 159.304 466.775 159.689 467.155 159.969C467.535 160.249 467.997 160.389 468.542 160.389ZM479.872 153.091H480.974V161.191H479.984V160.066C479.684 160.501 479.302 160.831 478.837 161.056C478.372 161.281 477.847 161.394 477.262 161.394C476.497 161.394 475.872 161.209 475.387 160.839C474.902 160.469 474.552 159.994 474.337 159.414C474.122 158.829 474.014 158.206 474.014 157.546V153.091H475.124V157.224C475.124 158.179 475.314 158.939 475.694 159.504C476.074 160.064 476.667 160.344 477.472 160.344C478.242 160.344 478.834 160.086 479.249 159.571C479.664 159.056 479.872 158.336 479.872 157.411V153.091ZM484.323 161.191H483.221V150.166H484.323V161.191ZM492.714 154.486C492.874 154.876 492.954 155.434 492.954 156.159V161.191H491.971V159.849C491.656 160.364 491.236 160.754 490.711 161.019C490.186 161.284 489.579 161.416 488.889 161.416C488.299 161.416 487.794 161.309 487.374 161.094C486.959 160.879 486.646 160.589 486.436 160.224C486.226 159.859 486.121 159.456 486.121 159.016C486.121 158.386 486.304 157.879 486.669 157.494C487.034 157.109 487.539 156.831 488.184 156.661C488.579 156.566 489.019 156.481 489.504 156.406C489.994 156.331 490.559 156.251 491.199 156.166L491.874 156.076C491.864 155.331 491.689 154.784 491.349 154.434C491.014 154.084 490.469 153.909 489.714 153.909C489.144 153.909 488.669 154.036 488.289 154.291C487.914 154.546 487.651 154.939 487.501 155.469L486.429 155.154C486.619 154.424 486.994 153.861 487.554 153.466C488.119 153.066 488.844 152.866 489.729 152.866C490.469 152.866 491.096 153.006 491.611 153.286C492.131 153.566 492.499 153.966 492.714 154.486ZM489.016 160.464C489.516 160.464 489.961 160.374 490.351 160.194C490.741 160.009 491.054 159.756 491.289 159.436C491.529 159.111 491.684 158.744 491.754 158.334C491.824 158.024 491.859 157.594 491.859 157.044C491.664 157.064 491.524 157.081 491.439 157.096C490.759 157.176 490.206 157.249 489.781 157.314C489.356 157.374 488.971 157.451 488.626 157.546C487.691 157.821 487.224 158.311 487.224 159.016C487.224 159.266 487.284 159.501 487.404 159.721C487.529 159.941 487.726 160.121 487.996 160.261C488.266 160.396 488.606 160.464 489.016 160.464ZM496.526 153.624C496.751 153.424 497.019 153.274 497.329 153.174C497.644 153.074 497.961 153.024 498.281 153.024C498.496 153.024 498.699 153.046 498.889 153.091V154.126C498.674 154.076 498.466 154.051 498.266 154.051C497.746 154.051 497.309 154.199 496.954 154.494C496.584 154.784 496.334 155.154 496.204 155.604C496.074 156.054 496.009 156.569 496.009 157.149V161.191H494.906V153.091H495.896V154.374C496.071 154.064 496.281 153.814 496.526 153.624Z" fill="#100F0F"/>
<path d="M583.054 164.191H575.44V151.231H577.042V162.67H583.054V164.191ZM588.716 164.461C587.762 164.461 586.931 164.245 586.223 163.813C585.521 163.375 584.981 162.769 584.603 161.995C584.225 161.215 584.036 160.324 584.036 159.322C584.036 158.314 584.228 157.423 584.612 156.649C584.996 155.875 585.542 155.275 586.25 154.849C586.958 154.417 587.78 154.201 588.716 154.201C589.67 154.201 590.501 154.417 591.209 154.849C591.917 155.281 592.46 155.884 592.838 156.658C593.216 157.432 593.405 158.32 593.405 159.322C593.405 160.336 593.213 161.233 592.829 162.013C592.451 162.787 591.908 163.39 591.2 163.822C590.492 164.248 589.664 164.461 588.716 164.461ZM588.716 162.94C589.694 162.94 590.435 162.616 590.939 161.968C591.449 161.314 591.704 160.432 591.704 159.322C591.704 158.2 591.449 157.321 590.939 156.685C590.429 156.043 589.688 155.722 588.716 155.722C587.732 155.722 586.988 156.046 586.484 156.694C585.986 157.342 585.737 158.218 585.737 159.322C585.737 160.444 585.992 161.329 586.502 161.977C587.018 162.619 587.756 162.94 588.716 162.94ZM597.646 155.065C597.916 154.849 598.234 154.684 598.6 154.57C598.966 154.456 599.335 154.399 599.707 154.399C599.941 154.399 600.172 154.423 600.4 154.471V155.974C600.148 155.914 599.905 155.884 599.671 155.884C599.089 155.884 598.591 156.037 598.177 156.343C597.739 156.655 597.433 157.066 597.259 157.576C597.085 158.08 596.998 158.659 596.998 159.313V164.191H595.387V154.471H596.818V156.01C597.046 155.614 597.322 155.299 597.646 155.065ZM603.105 159.781C603.171 160.795 603.456 161.575 603.96 162.121C604.47 162.667 605.172 162.94 606.066 162.94C606.702 162.94 607.257 162.793 607.731 162.499C608.211 162.205 608.586 161.782 608.856 161.23L610.395 161.761C610.017 162.613 609.45 163.276 608.694 163.75C607.938 164.224 607.086 164.461 606.138 164.461C605.19 164.461 604.356 164.251 603.636 163.831C602.922 163.411 602.367 162.817 601.971 162.049C601.581 161.281 601.386 160.396 601.386 159.394C601.386 158.344 601.578 157.429 601.962 156.649C602.352 155.863 602.898 155.26 603.6 154.84C604.308 154.414 605.13 154.201 606.066 154.201C606.996 154.201 607.797 154.411 608.469 154.831C609.147 155.245 609.666 155.842 610.026 156.622C610.386 157.396 610.566 158.317 610.566 159.385C610.566 159.559 610.563 159.691 610.557 159.781H603.105ZM606.12 155.641C605.25 155.641 604.563 155.884 604.059 156.37C603.555 156.856 603.246 157.564 603.132 158.494H608.892C608.694 156.592 607.77 155.641 606.12 155.641ZM622.26 154.219C622.926 154.219 623.505 154.36 623.997 154.642C624.489 154.918 624.867 155.314 625.131 155.83C625.395 156.34 625.527 156.937 625.527 157.621L625.518 164.191H623.916L623.925 157.972C623.925 157.498 623.835 157.087 623.655 156.739C623.481 156.385 623.235 156.115 622.917 155.929C622.605 155.743 622.245 155.65 621.837 155.65C621.459 155.65 621.108 155.737 620.784 155.911C620.46 156.085 620.199 156.349 620.001 156.703C619.809 157.057 619.713 157.495 619.713 158.017L619.704 164.191H618.111L618.12 158.035C618.12 157.549 618.033 157.126 617.859 156.766C617.685 156.406 617.439 156.13 617.121 155.938C616.803 155.746 616.434 155.65 616.014 155.65C615.594 155.65 615.225 155.749 614.907 155.947C614.589 156.145 614.34 156.424 614.16 156.784C613.986 157.138 613.899 157.549 613.899 158.017V164.191H612.288V154.471H613.719V155.506C614.031 155.104 614.427 154.789 614.907 154.561C615.387 154.333 615.912 154.219 616.482 154.219C617.136 154.219 617.706 154.36 618.192 154.642C618.678 154.918 619.053 155.311 619.317 155.821C619.605 155.317 620.007 154.924 620.523 154.642C621.045 154.36 621.624 154.219 622.26 154.219ZM633.257 164.191H631.655V151.231H633.257V164.191ZM640.43 154.201C641.312 154.201 642.08 154.423 642.734 154.867C643.394 155.311 643.898 155.923 644.246 156.703C644.6 157.477 644.777 158.35 644.777 159.322C644.777 160.3 644.6 161.179 644.246 161.959C643.898 162.733 643.394 163.345 642.734 163.795C642.08 164.239 641.309 164.461 640.421 164.461C639.827 164.461 639.29 164.362 638.81 164.164C638.33 163.96 637.913 163.669 637.559 163.291V168.511H635.948V154.471H637.379V155.56C637.745 155.122 638.183 154.786 638.693 154.552C639.203 154.318 639.782 154.201 640.43 154.201ZM640.223 162.994C640.841 162.994 641.363 162.835 641.789 162.517C642.221 162.199 642.542 161.764 642.752 161.212C642.968 160.66 643.076 160.03 643.076 159.322C643.076 158.62 642.968 157.996 642.752 157.45C642.542 156.898 642.218 156.463 641.78 156.145C641.348 155.827 640.814 155.668 640.178 155.668C639.26 155.668 638.564 155.998 638.09 156.658C637.616 157.318 637.379 158.206 637.379 159.322C637.379 160.438 637.616 161.329 638.09 161.995C638.57 162.661 639.281 162.994 640.223 162.994ZM650.282 164.452C649.514 164.452 648.833 164.338 648.239 164.11C647.645 163.882 647.162 163.552 646.79 163.12C646.418 162.688 646.178 162.169 646.07 161.563L647.708 161.302C647.84 161.836 648.143 162.256 648.617 162.562C649.091 162.868 649.679 163.021 650.381 163.021C651.041 163.021 651.56 162.886 651.938 162.616C652.322 162.34 652.514 161.962 652.514 161.482C652.514 161.194 652.448 160.969 652.316 160.807C652.19 160.645 651.941 160.492 651.569 160.348C651.197 160.198 650.597 160.012 649.769 159.79C648.899 159.556 648.221 159.319 647.735 159.079C647.249 158.833 646.901 158.551 646.691 158.233C646.481 157.915 646.376 157.519 646.376 157.045C646.376 156.481 646.532 155.986 646.844 155.56C647.156 155.128 647.594 154.795 648.158 154.561C648.722 154.321 649.373 154.201 650.111 154.201C650.843 154.201 651.5 154.321 652.082 154.561C652.67 154.795 653.141 155.128 653.495 155.56C653.855 155.986 654.068 156.481 654.134 157.045L652.496 157.342C652.418 156.814 652.154 156.397 651.704 156.091C651.26 155.785 650.69 155.632 649.994 155.632C649.598 155.632 649.247 155.689 648.941 155.803C648.641 155.911 648.407 156.067 648.239 156.271C648.071 156.469 647.987 156.7 647.987 156.964C647.987 157.21 648.059 157.414 648.203 157.576C648.353 157.738 648.623 157.894 649.013 158.044C649.403 158.188 649.988 158.359 650.768 158.557C651.638 158.779 652.316 159.016 652.802 159.268C653.288 159.52 653.636 159.817 653.846 160.159C654.062 160.501 654.17 160.927 654.17 161.437C654.17 162.061 654.014 162.601 653.702 163.057C653.39 163.507 652.943 163.852 652.361 164.092C651.779 164.332 651.086 164.452 650.282 164.452ZM662.905 154.471H664.516V164.191H663.085V162.94C662.719 163.426 662.26 163.798 661.708 164.056C661.162 164.314 660.541 164.443 659.845 164.443C658.873 164.443 658.099 164.203 657.523 163.723C656.947 163.243 656.545 162.658 656.317 161.968C656.089 161.272 655.975 160.564 655.975 159.844V154.471H657.595V159.34C657.595 160.384 657.796 161.242 658.198 161.914C658.606 162.586 659.284 162.922 660.232 162.922C661.06 162.922 661.711 162.643 662.185 162.085C662.665 161.521 662.905 160.69 662.905 159.592V154.471ZM676.998 154.219C677.664 154.219 678.243 154.36 678.735 154.642C679.227 154.918 679.605 155.314 679.869 155.83C680.133 156.34 680.265 156.937 680.265 157.621L680.256 164.191H678.654L678.663 157.972C678.663 157.498 678.573 157.087 678.393 156.739C678.219 156.385 677.973 156.115 677.655 155.929C677.343 155.743 676.983 155.65 676.575 155.65C676.197 155.65 675.846 155.737 675.522 155.911C675.198 156.085 674.937 156.349 674.739 156.703C674.547 157.057 674.451 157.495 674.451 158.017L674.442 164.191H672.849L672.858 158.035C672.858 157.549 672.771 157.126 672.597 156.766C672.423 156.406 672.177 156.13 671.859 155.938C671.541 155.746 671.172 155.65 670.752 155.65C670.332 155.65 669.963 155.749 669.645 155.947C669.327 156.145 669.078 156.424 668.898 156.784C668.724 157.138 668.637 157.549 668.637 158.017V164.191H667.026V154.471H668.457V155.506C668.769 155.104 669.165 154.789 669.645 154.561C670.125 154.333 670.65 154.219 671.22 154.219C671.874 154.219 672.444 154.36 672.93 154.642C673.416 154.918 673.791 155.311 674.055 155.821C674.343 155.317 674.745 154.924 675.261 154.642C675.783 154.36 676.362 154.219 676.998 154.219Z" fill="#100F0F"/>
<rect width="918" height="56" transform="translate(0 0.191406)" fill="#F2F2F2"/>
<path d="M21.49 34.4164C20.435 34.4164 19.5275 34.1814 18.7675 33.7114C18.0125 33.2414 17.4375 32.5839 17.0425 31.7389C16.6475 30.8889 16.45 29.9064 16.45 28.7914C16.45 27.6764 16.6475 26.6964 17.0425 25.8514C17.4375 25.0014 18.0125 24.3414 18.7675 23.8714C19.5275 23.4014 20.435 23.1664 21.49 23.1664C22.31 23.1664 23.04 23.3089 23.68 23.5939C24.32 23.8789 24.855 24.2839 25.285 24.8089C25.72 25.3339 26.04 25.9589 26.245 26.6839L24.8875 27.0439C24.6625 26.2189 24.2625 25.5789 23.6875 25.1239C23.1125 24.6689 22.38 24.4414 21.49 24.4414C20.705 24.4414 20.04 24.6214 19.495 24.9814C18.955 25.3414 18.5475 25.8464 18.2725 26.4964C18.0025 27.1464 17.865 27.9114 17.86 28.7914C17.855 29.6614 17.99 30.4239 18.265 31.0789C18.54 31.7289 18.9475 32.2364 19.4875 32.6014C20.0325 32.9614 20.7 33.1414 21.49 33.1414C22.38 33.1414 23.1125 32.9139 23.6875 32.4589C24.2625 31.9989 24.6625 31.3589 24.8875 30.5389L26.245 30.8989C26.04 31.6189 25.72 32.2439 25.285 32.7739C24.855 33.2989 24.32 33.7039 23.68 33.9889C23.04 34.2739 22.31 34.4164 21.49 34.4164ZM28.0398 34.1914V23.1664H29.3748V34.1914H28.0398ZM33.9277 34.4164C33.3477 34.4164 32.8502 34.3089 32.4352 34.0939C32.0202 33.8739 31.7052 33.5814 31.4902 33.2164C31.2802 32.8514 31.1752 32.4464 31.1752 32.0014C31.1752 31.3764 31.3452 30.8689 31.6852 30.4789C32.0302 30.0889 32.5227 29.8039 33.1627 29.6239C33.5677 29.5089 34.0177 29.4139 34.5127 29.3389C35.0077 29.2589 35.6902 29.1614 36.5602 29.0464C36.6902 29.0264 36.8152 29.0089 36.9352 28.9939C37.0602 28.9789 37.1752 28.9639 37.2802 28.9489L36.8002 29.2264C36.8102 28.7364 36.7502 28.3364 36.6202 28.0264C36.4902 27.7164 36.2777 27.4864 35.9827 27.3364C35.6877 27.1864 35.2952 27.1114 34.8052 27.1114C34.2952 27.1114 33.8577 27.2264 33.4927 27.4564C33.1327 27.6864 32.8827 28.0439 32.7427 28.5289L31.4752 28.1464C31.6702 27.4214 32.0502 26.8614 32.6152 26.4664C33.1852 26.0664 33.9202 25.8664 34.8202 25.8664C35.5702 25.8664 36.2052 26.0014 36.7252 26.2714C37.2502 26.5364 37.6252 26.9289 37.8502 27.4489C37.9552 27.6789 38.0252 27.9339 38.0602 28.2139C38.0952 28.4939 38.1127 28.8164 38.1127 29.1814V34.1914H36.9277V32.2489L37.2052 32.4289C37.0002 32.8639 36.7402 33.2314 36.4252 33.5314C36.1152 33.8264 35.7502 34.0464 35.3302 34.1914C34.9152 34.3414 34.4477 34.4164 33.9277 34.4164ZM34.1302 33.2989C34.5952 33.2989 35.0052 33.2164 35.3602 33.0514C35.7152 32.8814 36.0002 32.6564 36.2152 32.3764C36.4352 32.0914 36.5802 31.7764 36.6502 31.4314C36.7102 31.2414 36.7477 31.0339 36.7627 30.8089C36.7777 30.5789 36.7852 30.3189 36.7852 30.0289V29.8864L37.2502 30.0889L36.6952 30.1639C35.9852 30.2539 35.4052 30.3339 34.9552 30.4039C34.5052 30.4739 34.1077 30.5589 33.7627 30.6589C33.3827 30.7739 33.0777 30.9364 32.8477 31.1464C32.6177 31.3564 32.5027 31.6389 32.5027 31.9939C32.5027 32.2289 32.5602 32.4464 32.6752 32.6464C32.7902 32.8414 32.9702 32.9989 33.2152 33.1189C33.4602 33.2389 33.7652 33.2989 34.1302 33.2989ZM43.1227 34.4089C42.4827 34.4089 41.9152 34.3139 41.4202 34.1239C40.9252 33.9339 40.5227 33.6589 40.2127 33.2989C39.9077 32.9389 39.7077 32.5064 39.6127 32.0014L40.9777 31.7839C41.0527 32.0789 41.1902 32.3339 41.3902 32.5489C41.5952 32.7639 41.8527 32.9289 42.1627 33.0439C42.4727 33.1589 42.8202 33.2164 43.2052 33.2164C43.5702 33.2164 43.8852 33.1639 44.1502 33.0589C44.4202 32.9539 44.6252 32.8064 44.7652 32.6164C44.9102 32.4214 44.9827 32.1939 44.9827 31.9339C44.9827 31.6939 44.9277 31.5064 44.8177 31.3714C44.7127 31.2314 44.5052 31.1014 44.1952 30.9814C43.8902 30.8614 43.3902 30.7089 42.6952 30.5239C41.9702 30.3289 41.4052 30.1314 41.0002 29.9314C40.5952 29.7264 40.3052 29.4914 40.1302 29.2264C39.9552 28.9614 39.8677 28.6314 39.8677 28.2364C39.8677 27.7664 39.9977 27.3514 40.2577 26.9914C40.5177 26.6314 40.8827 26.3539 41.3527 26.1589C41.8227 25.9639 42.3652 25.8664 42.9802 25.8664C43.5902 25.8664 44.1377 25.9639 44.6227 26.1589C45.1127 26.3539 45.5052 26.6314 45.8002 26.9914C46.1002 27.3514 46.2777 27.7664 46.3327 28.2364L44.9677 28.4839C44.9227 28.1989 44.8127 27.9514 44.6377 27.7414C44.4627 27.5264 44.2327 27.3614 43.9477 27.2464C43.6677 27.1314 43.3452 27.0689 42.9802 27.0589C42.6352 27.0489 42.3277 27.0889 42.0577 27.1789C41.7927 27.2689 41.5852 27.3989 41.4352 27.5689C41.2852 27.7389 41.2102 27.9389 41.2102 28.1689C41.2102 28.3689 41.2727 28.5389 41.3977 28.6789C41.5227 28.8139 41.7452 28.9439 42.0652 29.0689C42.3852 29.1889 42.8727 29.3314 43.5277 29.4964C44.2527 29.6814 44.8177 29.8789 45.2227 30.0889C45.6277 30.2989 45.9177 30.5464 46.0927 30.8314C46.2727 31.1164 46.3627 31.4714 46.3627 31.8964C46.3627 32.4114 46.2327 32.8589 45.9727 33.2389C45.7177 33.6189 45.3452 33.9089 44.8552 34.1089C44.3702 34.3089 43.7927 34.4089 43.1227 34.4089ZM51.0768 34.4089C50.4368 34.4089 49.8693 34.3139 49.3743 34.1239C48.8793 33.9339 48.4768 33.6589 48.1668 33.2989C47.8618 32.9389 47.6618 32.5064 47.5668 32.0014L48.9318 31.7839C49.0068 32.0789 49.1443 32.3339 49.3443 32.5489C49.5493 32.7639 49.8068 32.9289 50.1168 33.0439C50.4268 33.1589 50.7743 33.2164 51.1593 33.2164C51.5243 33.2164 51.8393 33.1639 52.1043 33.0589C52.3743 32.9539 52.5793 32.8064 52.7193 32.6164C52.8643 32.4214 52.9368 32.1939 52.9368 31.9339C52.9368 31.6939 52.8818 31.5064 52.7718 31.3714C52.6668 31.2314 52.4593 31.1014 52.1493 30.9814C51.8443 30.8614 51.3443 30.7089 50.6493 30.5239C49.9243 30.3289 49.3593 30.1314 48.9543 29.9314C48.5493 29.7264 48.2593 29.4914 48.0843 29.2264C47.9093 28.9614 47.8218 28.6314 47.8218 28.2364C47.8218 27.7664 47.9518 27.3514 48.2118 26.9914C48.4718 26.6314 48.8368 26.3539 49.3068 26.1589C49.7768 25.9639 50.3193 25.8664 50.9343 25.8664C51.5443 25.8664 52.0918 25.9639 52.5768 26.1589C53.0668 26.3539 53.4593 26.6314 53.7543 26.9914C54.0543 27.3514 54.2318 27.7664 54.2868 28.2364L52.9218 28.4839C52.8768 28.1989 52.7668 27.9514 52.5918 27.7414C52.4168 27.5264 52.1868 27.3614 51.9018 27.2464C51.6218 27.1314 51.2993 27.0689 50.9343 27.0589C50.5893 27.0489 50.2818 27.0889 50.0118 27.1789C49.7468 27.2689 49.5393 27.3989 49.3893 27.5689C49.2393 27.7389 49.1643 27.9389 49.1643 28.1689C49.1643 28.3689 49.2268 28.5389 49.3518 28.6789C49.4768 28.8139 49.6993 28.9439 50.0193 29.0689C50.3393 29.1889 50.8268 29.3314 51.4818 29.4964C52.2068 29.6814 52.7718 29.8789 53.1768 30.0889C53.5818 30.2989 53.8718 30.5464 54.0468 30.8314C54.2268 31.1164 54.3168 31.4714 54.3168 31.8964C54.3168 32.4114 54.1868 32.8589 53.9268 33.2389C53.6718 33.6189 53.2993 33.9089 52.8093 34.1089C52.3243 34.3089 51.7468 34.4089 51.0768 34.4089Z" fill="#4200FF"/>
<path d="M189.05 34.1914V23.3914H193.318C193.603 23.3914 193.868 23.4114 194.113 23.4514C194.683 23.5364 195.168 23.7339 195.568 24.0439C195.968 24.3539 196.27 24.7464 196.475 25.2214C196.68 25.6914 196.783 26.2164 196.783 26.7964C196.783 27.3764 196.68 27.9014 196.475 28.3714C196.27 28.8414 195.968 29.2314 195.568 29.5414C195.168 29.8514 194.683 30.0514 194.113 30.1414C193.868 30.1814 193.603 30.2014 193.318 30.2014H190.385V34.1914H189.05ZM193.273 28.9339C193.528 28.9339 193.753 28.9114 193.948 28.8664C194.278 28.7914 194.553 28.6489 194.773 28.4389C194.993 28.2289 195.155 27.9814 195.26 27.6964C195.365 27.4114 195.418 27.1114 195.418 26.7964C195.418 26.4814 195.365 26.1814 195.26 25.8964C195.155 25.6064 194.993 25.3589 194.773 25.1539C194.553 24.9439 194.278 24.8014 193.948 24.7264C193.753 24.6814 193.528 24.6589 193.273 24.6589H190.385V28.9339H193.273ZM200.581 34.4164C200.001 34.4164 199.504 34.3089 199.089 34.0939C198.674 33.8739 198.359 33.5814 198.144 33.2164C197.934 32.8514 197.829 32.4464 197.829 32.0014C197.829 31.3764 197.999 30.8689 198.339 30.4789C198.684 30.0889 199.176 29.8039 199.816 29.6239C200.221 29.5089 200.671 29.4139 201.166 29.3389C201.661 29.2589 202.344 29.1614 203.214 29.0464C203.344 29.0264 203.469 29.0089 203.589 28.9939C203.714 28.9789 203.829 28.9639 203.934 28.9489L203.454 29.2264C203.464 28.7364 203.404 28.3364 203.274 28.0264C203.144 27.7164 202.931 27.4864 202.636 27.3364C202.341 27.1864 201.949 27.1114 201.459 27.1114C200.949 27.1114 200.511 27.2264 200.146 27.4564C199.786 27.6864 199.536 28.0439 199.396 28.5289L198.129 28.1464C198.324 27.4214 198.704 26.8614 199.269 26.4664C199.839 26.0664 200.574 25.8664 201.474 25.8664C202.224 25.8664 202.859 26.0014 203.379 26.2714C203.904 26.5364 204.279 26.9289 204.504 27.4489C204.609 27.6789 204.679 27.9339 204.714 28.2139C204.749 28.4939 204.766 28.8164 204.766 29.1814V34.1914H203.581V32.2489L203.859 32.4289C203.654 32.8639 203.394 33.2314 203.079 33.5314C202.769 33.8264 202.404 34.0464 201.984 34.1914C201.569 34.3414 201.101 34.4164 200.581 34.4164ZM200.784 33.2989C201.249 33.2989 201.659 33.2164 202.014 33.0514C202.369 32.8814 202.654 32.6564 202.869 32.3764C203.089 32.0914 203.234 31.7764 203.304 31.4314C203.364 31.2414 203.401 31.0339 203.416 30.8089C203.431 30.5789 203.439 30.3189 203.439 30.0289V29.8864L203.904 30.0889L203.349 30.1639C202.639 30.2539 202.059 30.3339 201.609 30.4039C201.159 30.4739 200.761 30.5589 200.416 30.6589C200.036 30.7739 199.731 30.9364 199.501 31.1464C199.271 31.3564 199.156 31.6389 199.156 31.9939C199.156 32.2289 199.214 32.4464 199.329 32.6464C199.444 32.8414 199.624 32.9989 199.869 33.1189C200.114 33.2389 200.419 33.2989 200.784 33.2989ZM209.619 34.4164C208.824 34.4164 208.116 34.2464 207.496 33.9064C206.881 33.5614 206.396 33.0789 206.041 32.4589L207.106 31.7689C207.406 32.2189 207.761 32.5614 208.171 32.7964C208.581 33.0314 209.046 33.1489 209.566 33.1489C209.931 33.1489 210.249 33.0939 210.519 32.9839C210.789 32.8689 210.996 32.7064 211.141 32.4964C211.291 32.2814 211.366 32.0314 211.366 31.7464C211.366 31.4614 211.304 31.2364 211.179 31.0714C211.054 30.9064 210.874 30.7864 210.639 30.7114C210.409 30.6314 210.104 30.5839 209.724 30.5689C209.669 30.5639 209.609 30.5614 209.544 30.5614C209.484 30.5614 209.424 30.5614 209.364 30.5614H208.524V29.4589H209.356C209.736 29.4589 210.054 29.4214 210.309 29.3464C210.569 29.2714 210.771 29.1514 210.916 28.9864C211.061 28.8164 211.134 28.5989 211.134 28.3339C211.134 28.0639 211.064 27.8389 210.924 27.6589C210.789 27.4789 210.604 27.3464 210.369 27.2614C210.134 27.1714 209.869 27.1264 209.574 27.1264C209.144 27.1264 208.721 27.2164 208.306 27.3964C207.896 27.5764 207.536 27.8164 207.226 28.1164L206.416 27.2089C206.841 26.7739 207.326 26.4414 207.871 26.2114C208.421 25.9814 209.016 25.8664 209.656 25.8664C210.186 25.8664 210.666 25.9589 211.096 26.1439C211.531 26.3289 211.874 26.6014 212.124 26.9614C212.379 27.3164 212.506 27.7389 212.506 28.2289C212.506 28.6589 212.406 29.0439 212.206 29.3839C212.006 29.7189 211.711 30.0089 211.321 30.2539L211.269 29.7814C211.589 29.8614 211.856 30.0064 212.071 30.2164C212.291 30.4264 212.456 30.6764 212.566 30.9664C212.676 31.2564 212.731 31.5614 212.731 31.8814C212.731 32.3964 212.594 32.8464 212.319 33.2314C212.049 33.6114 211.676 33.9039 211.201 34.1089C210.731 34.3139 210.204 34.4164 209.619 34.4164ZM214.37 34.1914V26.0914H215.517L218.592 32.3764L221.667 26.0914H222.815V34.1914H221.525V28.8739L218.945 34.1914H218.24L215.66 28.8739V34.1914H214.37ZM228.419 34.4164C227.629 34.4164 226.934 34.2414 226.334 33.8914C225.739 33.5414 225.277 33.0464 224.947 32.4064C224.622 31.7664 224.459 31.0289 224.459 30.1939C224.459 29.3189 224.619 28.5564 224.939 27.9064C225.264 27.2514 225.719 26.7489 226.304 26.3989C226.894 26.0439 227.579 25.8664 228.359 25.8664C229.164 25.8664 229.854 26.0539 230.429 26.4289C231.009 26.7989 231.442 27.3339 231.727 28.0339C232.017 28.7339 232.142 29.5614 232.102 30.5164H230.752V30.0364C230.742 29.3714 230.649 28.8214 230.474 28.3864C230.299 27.9464 230.039 27.6164 229.694 27.3964C229.349 27.1764 228.919 27.0664 228.404 27.0664C227.859 27.0664 227.397 27.1864 227.017 27.4264C226.642 27.6614 226.357 28.0089 226.162 28.4689C225.972 28.9239 225.877 29.4814 225.877 30.1414C225.877 30.7764 225.972 31.3189 226.162 31.7689C226.357 32.2139 226.639 32.5564 227.009 32.7964C227.384 33.0314 227.834 33.1489 228.359 33.1489C228.889 33.1489 229.352 33.0264 229.747 32.7814C230.147 32.5364 230.459 32.1839 230.684 31.7239L231.967 32.1664C231.757 32.6364 231.474 33.0414 231.119 33.3814C230.764 33.7164 230.357 33.9739 229.897 34.1539C229.437 34.3289 228.944 34.4164 228.419 34.4164ZM225.427 30.5164V29.4439H231.412V30.5164H225.427ZM237.492 34.4164C236.757 34.4164 236.124 34.2314 235.594 33.8614C235.069 33.4864 234.669 32.9764 234.394 32.3314C234.124 31.6864 233.989 30.9539 233.989 30.1339C233.989 29.3089 234.124 28.5739 234.394 27.9289C234.664 27.2839 235.064 26.7789 235.594 26.4139C236.124 26.0489 236.759 25.8664 237.499 25.8664C238.234 25.8664 238.874 26.0514 239.419 26.4214C239.969 26.7864 240.389 27.2939 240.679 27.9439C240.974 28.5889 241.122 29.3189 241.122 30.1339C241.122 30.9439 240.974 31.6739 240.679 32.3239C240.389 32.9739 239.969 33.4864 239.419 33.8614C238.874 34.2314 238.232 34.4164 237.492 34.4164ZM233.764 37.7914V26.0914H234.957V32.0539H235.107V37.7914H233.764ZM237.327 33.1939C237.847 33.1939 238.284 33.0614 238.639 32.7964C238.994 32.5314 239.259 32.1689 239.434 31.7089C239.614 31.2439 239.704 30.7189 239.704 30.1339C239.704 29.5489 239.614 29.0264 239.434 28.5664C239.259 28.1064 238.992 27.7464 238.632 27.4864C238.272 27.2214 237.824 27.0889 237.289 27.0889C236.774 27.0889 236.342 27.2164 235.992 27.4714C235.647 27.7264 235.387 28.0814 235.212 28.5364C235.042 28.9914 234.957 29.5239 234.957 30.1339C234.957 30.7389 235.042 31.2714 235.212 31.7314C235.387 32.1914 235.652 32.5514 236.007 32.8114C236.362 33.0664 236.802 33.1939 237.327 33.1939Z" fill="#4200FF"/>
<path d="M320.2 34.1914V23.3914H321.535V32.9239H326.545V34.1914H320.2ZM327.964 34.1914V26.0914H329.299V34.1914H327.964ZM328.631 24.8389C328.466 24.8389 328.316 24.8014 328.181 24.7264C328.051 24.6464 327.949 24.5414 327.874 24.4114C327.799 24.2764 327.761 24.1289 327.761 23.9689C327.761 23.8089 327.799 23.6639 327.874 23.5339C327.949 23.3989 328.051 23.2939 328.181 23.2189C328.316 23.1389 328.466 23.0989 328.631 23.0989C328.796 23.0989 328.944 23.1389 329.074 23.2189C329.209 23.2939 329.314 23.3989 329.389 23.5339C329.469 23.6639 329.509 23.8089 329.509 23.9689C329.509 24.1289 329.469 24.2764 329.389 24.4114C329.314 24.5414 329.209 24.6464 329.074 24.7264C328.944 24.8014 328.796 24.8389 328.631 24.8389ZM337.317 30.1339C337.317 29.5489 337.249 29.0414 337.114 28.6114C336.984 28.1814 336.754 27.8314 336.424 27.5614C336.099 27.2864 335.664 27.1489 335.119 27.1489C334.659 27.1489 334.264 27.2514 333.934 27.4564C333.604 27.6564 333.347 27.9639 333.162 28.3789C332.982 28.7939 332.892 29.3089 332.892 29.9239L332.014 29.6539C332.014 28.8789 332.154 28.2089 332.434 27.6439C332.714 27.0739 333.112 26.6389 333.627 26.3389C334.142 26.0339 334.747 25.8814 335.442 25.8814C336.257 25.8814 336.904 26.0814 337.384 26.4814C337.864 26.8764 338.197 27.3539 338.382 27.9139C338.572 28.4739 338.667 29.0739 338.667 29.7139V34.1914H337.317V30.1339ZM331.542 34.1914V26.0914H332.742V28.2589H332.892V34.1914H331.542ZM344.053 34.4164C343.263 34.4164 342.568 34.2414 341.968 33.8914C341.373 33.5414 340.911 33.0464 340.581 32.4064C340.256 31.7664 340.093 31.0289 340.093 30.1939C340.093 29.3189 340.253 28.5564 340.573 27.9064C340.898 27.2514 341.353 26.7489 341.938 26.3989C342.528 26.0439 343.213 25.8664 343.993 25.8664C344.798 25.8664 345.488 26.0539 346.063 26.4289C346.643 26.7989 347.076 27.3339 347.361 28.0339C347.651 28.7339 347.776 29.5614 347.736 30.5164H346.386V30.0364C346.376 29.3714 346.283 28.8214 346.108 28.3864C345.933 27.9464 345.673 27.6164 345.328 27.3964C344.983 27.1764 344.553 27.0664 344.038 27.0664C343.493 27.0664 343.031 27.1864 342.651 27.4264C342.276 27.6614 341.991 28.0089 341.796 28.4689C341.606 28.9239 341.511 29.4814 341.511 30.1414C341.511 30.7764 341.606 31.3189 341.796 31.7689C341.991 32.2139 342.273 32.5564 342.643 32.7964C343.018 33.0314 343.468 33.1489 343.993 33.1489C344.523 33.1489 344.986 33.0264 345.381 32.7814C345.781 32.5364 346.093 32.1839 346.318 31.7239L347.601 32.1664C347.391 32.6364 347.108 33.0414 346.753 33.3814C346.398 33.7164 345.991 33.9739 345.531 34.1539C345.071 34.3289 344.578 34.4164 344.053 34.4164ZM341.061 30.5164V29.4439H347.046V30.5164H341.061ZM352.408 34.1914V23.3914H353.743V28.1539H359.428V23.3914H360.763V34.1914H359.428V29.4214H353.743V34.1914H352.408ZM366.377 34.4164C365.587 34.4164 364.892 34.2414 364.292 33.8914C363.697 33.5414 363.235 33.0464 362.905 32.4064C362.58 31.7664 362.417 31.0289 362.417 30.1939C362.417 29.3189 362.577 28.5564 362.897 27.9064C363.222 27.2514 363.677 26.7489 364.262 26.3989C364.852 26.0439 365.537 25.8664 366.317 25.8664C367.122 25.8664 367.812 26.0539 368.387 26.4289C368.967 26.7989 369.4 27.3339 369.685 28.0339C369.975 28.7339 370.1 29.5614 370.06 30.5164H368.71V30.0364C368.7 29.3714 368.607 28.8214 368.432 28.3864C368.257 27.9464 367.997 27.6164 367.652 27.3964C367.307 27.1764 366.877 27.0664 366.362 27.0664C365.817 27.0664 365.355 27.1864 364.975 27.4264C364.6 27.6614 364.315 28.0089 364.12 28.4689C363.93 28.9239 363.835 29.4814 363.835 30.1414C363.835 30.7764 363.93 31.3189 364.12 31.7689C364.315 32.2139 364.597 32.5564 364.967 32.7964C365.342 33.0314 365.792 33.1489 366.317 33.1489C366.847 33.1489 367.31 33.0264 367.705 32.7814C368.105 32.5364 368.417 32.1839 368.642 31.7239L369.925 32.1664C369.715 32.6364 369.432 33.0414 369.077 33.3814C368.722 33.7164 368.315 33.9739 367.855 34.1539C367.395 34.3289 366.902 34.4164 366.377 34.4164ZM363.385 30.5164V29.4439H369.37V30.5164H363.385ZM371.88 34.1914V26.0914H373.215V34.1914H371.88ZM372.547 24.8389C372.382 24.8389 372.232 24.8014 372.097 24.7264C371.967 24.6464 371.865 24.5414 371.79 24.4114C371.715 24.2764 371.677 24.1289 371.677 23.9689C371.677 23.8089 371.715 23.6639 371.79 23.5339C371.865 23.3989 371.967 23.2939 372.097 23.2189C372.232 23.1389 372.382 23.0989 372.547 23.0989C372.712 23.0989 372.86 23.1389 372.99 23.2189C373.125 23.2939 373.23 23.3989 373.305 23.5339C373.385 23.6639 373.425 23.8089 373.425 23.9689C373.425 24.1289 373.385 24.2764 373.305 24.4114C373.23 24.5414 373.125 24.6464 372.99 24.7264C372.86 24.8014 372.712 24.8389 372.547 24.8389ZM378.743 38.0164C378.078 38.0164 377.458 37.8639 376.883 37.5589C376.313 37.2589 375.865 36.8189 375.54 36.2389L376.763 35.5939C376.953 35.9689 377.225 36.2514 377.58 36.4414C377.94 36.6314 378.33 36.7264 378.75 36.7264C379.265 36.7264 379.69 36.6314 380.025 36.4414C380.365 36.2564 380.618 35.9814 380.783 35.6164C380.948 35.2514 381.028 34.7889 381.023 34.2289V32.0164H381.18V26.0914H382.365V34.2439C382.365 34.7339 382.333 35.1489 382.268 35.4889C382.113 36.3389 381.733 36.9714 381.128 37.3864C380.528 37.8064 379.733 38.0164 378.743 38.0164ZM378.645 34.4164C377.91 34.4164 377.268 34.2314 376.718 33.8614C376.168 33.4864 375.745 32.9739 375.45 32.3239C375.16 31.6739 375.015 30.9439 375.015 30.1339C375.015 29.3189 375.163 28.5889 375.458 27.9439C375.753 27.2939 376.173 26.7864 376.718 26.4214C377.268 26.0514 377.908 25.8664 378.638 25.8664C379.383 25.8664 380.018 26.0489 380.543 26.4139C381.073 26.7789 381.473 27.2839 381.743 27.9289C382.013 28.5739 382.148 29.3089 382.148 30.1339C382.148 30.9539 382.013 31.6864 381.743 32.3314C381.473 32.9764 381.073 33.4864 380.543 33.8614C380.018 34.2314 379.385 34.4164 378.645 34.4164ZM378.81 33.1939C379.34 33.1939 379.78 33.0664 380.13 32.8114C380.485 32.5514 380.748 32.1914 380.918 31.7314C381.093 31.2714 381.18 30.7389 381.18 30.1339C381.18 29.5239 381.095 28.9914 380.925 28.5364C380.755 28.0814 380.495 27.7264 380.145 27.4714C379.795 27.2164 379.363 27.0889 378.848 27.0889C378.318 27.0889 377.87 27.2214 377.505 27.4864C377.145 27.7464 376.875 28.1064 376.695 28.5664C376.52 29.0264 376.433 29.5489 376.433 30.1339C376.433 30.7189 376.52 31.2439 376.695 31.7089C376.875 32.1689 377.143 32.5314 377.498 32.7964C377.858 33.0614 378.295 33.1939 378.81 33.1939ZM390.227 30.1339C390.227 29.5489 390.159 29.0414 390.024 28.6114C389.894 28.1814 389.664 27.8314 389.334 27.5614C389.009 27.2864 388.574 27.1489 388.029 27.1489C387.569 27.1489 387.174 27.2514 386.844 27.4564C386.514 27.6564 386.257 27.9639 386.072 28.3789C385.892 28.7939 385.802 29.3089 385.802 29.9239L384.924 29.6539C384.924 28.8789 385.064 28.2089 385.344 27.6439C385.624 27.0739 386.022 26.6389 386.537 26.3389C387.052 26.0339 387.657 25.8814 388.352 25.8814C389.167 25.8814 389.814 26.0814 390.294 26.4814C390.774 26.8764 391.107 27.3539 391.292 27.9139C391.482 28.4739 391.577 29.0739 391.577 29.7139V34.1914H390.227V30.1339ZM384.452 34.1914V23.3914H385.652V29.3539H385.802V34.1914H384.452ZM398.049 34.1914C397.254 34.3514 396.537 34.3564 395.897 34.2064C395.262 34.0614 394.812 33.7314 394.547 33.2164C394.422 32.9614 394.342 32.7039 394.307 32.4439C394.277 32.1789 394.264 31.8264 394.269 31.3864V31.1314V23.8414H395.604V31.0714V31.3039C395.599 31.6289 395.604 31.8814 395.619 32.0614C395.639 32.2364 395.689 32.3914 395.769 32.5264C395.939 32.8314 396.209 33.0189 396.579 33.0889C396.949 33.1539 397.439 33.1389 398.049 33.0439V34.1914ZM392.627 27.1939V26.0914H398.049V27.1939H392.627Z" fill="#4200FF"/>
<path d="M447.05 34.1914V23.3914H448.385V28.1539H454.07V23.3914H455.405V34.1914H454.07V29.4214H448.385V34.1914H447.05ZM459.811 34.4164C459.231 34.4164 458.734 34.3089 458.319 34.0939C457.904 33.8739 457.589 33.5814 457.374 33.2164C457.164 32.8514 457.059 32.4464 457.059 32.0014C457.059 31.3764 457.229 30.8689 457.569 30.4789C457.914 30.0889 458.406 29.8039 459.046 29.6239C459.451 29.5089 459.901 29.4139 460.396 29.3389C460.891 29.2589 461.574 29.1614 462.444 29.0464C462.574 29.0264 462.699 29.0089 462.819 28.9939C462.944 28.9789 463.059 28.9639 463.164 28.9489L462.684 29.2264C462.694 28.7364 462.634 28.3364 462.504 28.0264C462.374 27.7164 462.161 27.4864 461.866 27.3364C461.571 27.1864 461.179 27.1114 460.689 27.1114C460.179 27.1114 459.741 27.2264 459.376 27.4564C459.016 27.6864 458.766 28.0439 458.626 28.5289L457.359 28.1464C457.554 27.4214 457.934 26.8614 458.499 26.4664C459.069 26.0664 459.804 25.8664 460.704 25.8664C461.454 25.8664 462.089 26.0014 462.609 26.2714C463.134 26.5364 463.509 26.9289 463.734 27.4489C463.839 27.6789 463.909 27.9339 463.944 28.2139C463.979 28.4939 463.996 28.8164 463.996 29.1814V34.1914H462.811V32.2489L463.089 32.4289C462.884 32.8639 462.624 33.2314 462.309 33.5314C461.999 33.8264 461.634 34.0464 461.214 34.1914C460.799 34.3414 460.331 34.4164 459.811 34.4164ZM460.014 33.2989C460.479 33.2989 460.889 33.2164 461.244 33.0514C461.599 32.8814 461.884 32.6564 462.099 32.3764C462.319 32.0914 462.464 31.7764 462.534 31.4314C462.594 31.2414 462.631 31.0339 462.646 30.8089C462.661 30.5789 462.669 30.3189 462.669 30.0289V29.8864L463.134 30.0889L462.579 30.1639C461.869 30.2539 461.289 30.3339 460.839 30.4039C460.389 30.4739 459.991 30.5589 459.646 30.6589C459.266 30.7739 458.961 30.9364 458.731 31.1464C458.501 31.3564 458.386 31.6389 458.386 31.9939C458.386 32.2289 458.444 32.4464 458.559 32.6464C458.674 32.8414 458.854 32.9989 459.099 33.1189C459.344 33.2389 459.649 33.2989 460.014 33.2989ZM470.821 31.2739C470.531 31.4189 470.194 31.5364 469.809 31.6264C469.429 31.7164 469.031 31.7614 468.616 31.7614C467.796 31.7614 467.131 31.5789 466.621 31.2139C466.111 30.8439 465.781 30.3089 465.631 29.6089C465.541 29.1939 465.496 28.6364 465.496 27.9364V26.0914H466.846V27.9364C466.846 28.4064 466.876 28.7914 466.936 29.0914C467.036 29.5914 467.246 29.9664 467.566 30.2164C467.886 30.4614 468.334 30.5839 468.909 30.5839C469.289 30.5839 469.644 30.5364 469.974 30.4414C470.304 30.3414 470.586 30.2064 470.821 30.0364V26.0914H472.164V34.1914H470.821V31.2739ZM477.777 34.4164C476.987 34.4164 476.292 34.2414 475.692 33.8914C475.097 33.5414 474.634 33.0464 474.304 32.4064C473.979 31.7664 473.817 31.0289 473.817 30.1939C473.817 29.3189 473.977 28.5564 474.297 27.9064C474.622 27.2514 475.077 26.7489 475.662 26.3989C476.252 26.0439 476.937 25.8664 477.717 25.8664C478.522 25.8664 479.212 26.0539 479.787 26.4289C480.367 26.7989 480.799 27.3339 481.084 28.0339C481.374 28.7339 481.499 29.5614 481.459 30.5164H480.109V30.0364C480.099 29.3714 480.007 28.8214 479.832 28.3864C479.657 27.9464 479.397 27.6164 479.052 27.3964C478.707 27.1764 478.277 27.0664 477.762 27.0664C477.217 27.0664 476.754 27.1864 476.374 27.4264C475.999 27.6614 475.714 28.0089 475.519 28.4689C475.329 28.9239 475.234 29.4814 475.234 30.1414C475.234 30.7764 475.329 31.3189 475.519 31.7689C475.714 32.2139 475.997 32.5564 476.367 32.7964C476.742 33.0314 477.192 33.1489 477.717 33.1489C478.247 33.1489 478.709 33.0264 479.104 32.7814C479.504 32.5364 479.817 32.1839 480.042 31.7239L481.324 32.1664C481.114 32.6364 480.832 33.0414 480.477 33.3814C480.122 33.7164 479.714 33.9739 479.254 34.1539C478.794 34.3289 478.302 34.4164 477.777 34.4164ZM474.784 30.5164V29.4439H480.769V30.5164H474.784ZM486.849 34.4164C486.114 34.4164 485.482 34.2314 484.952 33.8614C484.427 33.4864 484.027 32.9764 483.752 32.3314C483.482 31.6864 483.347 30.9539 483.347 30.1339C483.347 29.3089 483.482 28.5739 483.752 27.9289C484.022 27.2839 484.422 26.7789 484.952 26.4139C485.482 26.0489 486.117 25.8664 486.857 25.8664C487.592 25.8664 488.232 26.0514 488.777 26.4214C489.327 26.7864 489.747 27.2939 490.037 27.9439C490.332 28.5889 490.479 29.3189 490.479 30.1339C490.479 30.9439 490.332 31.6739 490.037 32.3239C489.747 32.9739 489.327 33.4864 488.777 33.8614C488.232 34.2314 487.589 34.4164 486.849 34.4164ZM483.122 37.7914V26.0914H484.314V32.0539H484.464V37.7914H483.122ZM486.684 33.1939C487.204 33.1939 487.642 33.0614 487.997 32.7964C488.352 32.5314 488.617 32.1689 488.792 31.7089C488.972 31.2439 489.062 30.7189 489.062 30.1339C489.062 29.5489 488.972 29.0264 488.792 28.5664C488.617 28.1064 488.349 27.7464 487.989 27.4864C487.629 27.2214 487.182 27.0889 486.647 27.0889C486.132 27.0889 485.699 27.2164 485.349 27.4714C485.004 27.7264 484.744 28.0814 484.569 28.5364C484.399 28.9914 484.314 29.5239 484.314 30.1339C484.314 30.7389 484.399 31.2714 484.569 31.7314C484.744 32.1914 485.009 32.5514 485.364 32.8114C485.719 33.0664 486.159 33.1939 486.684 33.1939ZM494.268 34.1914V27.3064H491.448V26.0914H498.423V27.3064H495.603V34.1914H494.268ZM501.882 34.4164C501.302 34.4164 500.804 34.3089 500.389 34.0939C499.974 33.8739 499.659 33.5814 499.444 33.2164C499.234 32.8514 499.129 32.4464 499.129 32.0014C499.129 31.3764 499.299 30.8689 499.639 30.4789C499.984 30.0889 500.477 29.8039 501.117 29.6239C501.522 29.5089 501.972 29.4139 502.467 29.3389C502.962 29.2589 503.644 29.1614 504.514 29.0464C504.644 29.0264 504.769 29.0089 504.889 28.9939C505.014 28.9789 505.129 28.9639 505.234 28.9489L504.754 29.2264C504.764 28.7364 504.704 28.3364 504.574 28.0264C504.444 27.7164 504.232 27.4864 503.937 27.3364C503.642 27.1864 503.249 27.1114 502.759 27.1114C502.249 27.1114 501.812 27.2264 501.447 27.4564C501.087 27.6864 500.837 28.0439 500.697 28.5289L499.429 28.1464C499.624 27.4214 500.004 26.8614 500.569 26.4664C501.139 26.0664 501.874 25.8664 502.774 25.8664C503.524 25.8664 504.159 26.0014 504.679 26.2714C505.204 26.5364 505.579 26.9289 505.804 27.4489C505.909 27.6789 505.979 27.9339 506.014 28.2139C506.049 28.4939 506.067 28.8164 506.067 29.1814V34.1914H504.882V32.2489L505.159 32.4289C504.954 32.8639 504.694 33.2314 504.379 33.5314C504.069 33.8264 503.704 34.0464 503.284 34.1914C502.869 34.3414 502.402 34.4164 501.882 34.4164ZM502.084 33.2989C502.549 33.2989 502.959 33.2164 503.314 33.0514C503.669 32.8814 503.954 32.6564 504.169 32.3764C504.389 32.0914 504.534 31.7764 504.604 31.4314C504.664 31.2414 504.702 31.0339 504.717 30.8089C504.732 30.5789 504.739 30.3189 504.739 30.0289V29.8864L505.204 30.0889L504.649 30.1639C503.939 30.2539 503.359 30.3339 502.909 30.4039C502.459 30.4739 502.062 30.5589 501.717 30.6589C501.337 30.7739 501.032 30.9364 500.802 31.1464C500.572 31.3564 500.457 31.6389 500.457 31.9939C500.457 32.2289 500.514 32.4464 500.629 32.6464C500.744 32.8414 500.924 32.9989 501.169 33.1189C501.414 33.2389 501.719 33.2989 502.084 33.2989ZM508.009 34.1914V26.0914H509.344V29.5039H513.604V26.0914H514.939V34.1914H513.604V30.7714H509.344V34.1914H508.009ZM523.67 26.0914V34.1914H522.38V28.2214L518.135 34.1914H517.033V26.0914H518.323V31.9789L522.575 26.0914H523.67ZM529.281 34.4164C528.491 34.4164 527.796 34.2414 527.196 33.8914C526.601 33.5414 526.138 33.0464 525.808 32.4064C525.483 31.7664 525.321 31.0289 525.321 30.1939C525.321 29.3189 525.481 28.5564 525.801 27.9064C526.126 27.2514 526.581 26.7489 527.166 26.3989C527.756 26.0439 528.441 25.8664 529.221 25.8664C530.026 25.8664 530.716 26.0539 531.291 26.4289C531.871 26.7989 532.303 27.3339 532.588 28.0339C532.878 28.7339 533.003 29.5614 532.963 30.5164H531.613V30.0364C531.603 29.3714 531.511 28.8214 531.336 28.3864C531.161 27.9464 530.901 27.6164 530.556 27.3964C530.211 27.1764 529.781 27.0664 529.266 27.0664C528.721 27.0664 528.258 27.1864 527.878 27.4264C527.503 27.6614 527.218 28.0089 527.023 28.4689C526.833 28.9239 526.738 29.4814 526.738 30.1414C526.738 30.7764 526.833 31.3189 527.023 31.7689C527.218 32.2139 527.501 32.5564 527.871 32.7964C528.246 33.0314 528.696 33.1489 529.221 33.1489C529.751 33.1489 530.213 33.0264 530.608 32.7814C531.008 32.5364 531.321 32.1839 531.546 31.7239L532.828 32.1664C532.618 32.6364 532.336 33.0414 531.981 33.3814C531.626 33.7164 531.218 33.9739 530.758 34.1539C530.298 34.3289 529.806 34.4164 529.281 34.4164ZM526.288 30.5164V29.4439H532.273V30.5164H526.288Z" fill="#4200FF"/>
<path d="M577.05 34.1914V23.3914H585.48V34.1914H584.145V24.6589H578.385V34.1914H577.05ZM591.302 34.4164C590.567 34.4164 589.935 34.2314 589.405 33.8614C588.88 33.4864 588.48 32.9764 588.205 32.3314C587.935 31.6864 587.8 30.9539 587.8 30.1339C587.8 29.3089 587.935 28.5739 588.205 27.9289C588.475 27.2839 588.875 26.7789 589.405 26.4139C589.935 26.0489 590.57 25.8664 591.31 25.8664C592.045 25.8664 592.685 26.0514 593.23 26.4214C593.78 26.7864 594.2 27.2939 594.49 27.9439C594.785 28.5889 594.932 29.3189 594.932 30.1339C594.932 30.9439 594.785 31.6739 594.49 32.3239C594.2 32.9739 593.78 33.4864 593.23 33.8614C592.685 34.2314 592.042 34.4164 591.302 34.4164ZM587.575 37.7914V26.0914H588.767V32.0539H588.917V37.7914H587.575ZM591.137 33.1939C591.657 33.1939 592.095 33.0614 592.45 32.7964C592.805 32.5314 593.07 32.1689 593.245 31.7089C593.425 31.2439 593.515 30.7189 593.515 30.1339C593.515 29.5489 593.425 29.0264 593.245 28.5664C593.07 28.1064 592.802 27.7464 592.442 27.4864C592.082 27.2214 591.635 27.0889 591.1 27.0889C590.585 27.0889 590.152 27.2164 589.802 27.4714C589.457 27.7264 589.197 28.0814 589.022 28.5364C588.852 28.9914 588.767 29.5239 588.767 30.1339C588.767 30.7389 588.852 31.2714 589.022 31.7314C589.197 32.1914 589.462 32.5514 589.817 32.8114C590.172 33.0664 590.612 33.1939 591.137 33.1939ZM603.206 26.0914V34.1914H601.916V28.2214L597.671 34.1914H596.569V26.0914H597.859V31.9789L602.111 26.0914H603.206ZM605.299 34.1914V26.0914H606.447L609.522 32.3764L612.597 26.0914H613.744V34.1914H612.454V28.8739L609.874 34.1914H609.169L606.589 28.8739V34.1914H605.299ZM619.349 34.4164C618.559 34.4164 617.864 34.2414 617.264 33.8914C616.669 33.5414 616.207 33.0464 615.877 32.4064C615.552 31.7664 615.389 31.0289 615.389 30.1939C615.389 29.3189 615.549 28.5564 615.869 27.9064C616.194 27.2514 616.649 26.7489 617.234 26.3989C617.824 26.0439 618.509 25.8664 619.289 25.8664C620.094 25.8664 620.784 26.0539 621.359 26.4289C621.939 26.7989 622.372 27.3339 622.657 28.0339C622.947 28.7339 623.072 29.5614 623.032 30.5164H621.682V30.0364C621.672 29.3714 621.579 28.8214 621.404 28.3864C621.229 27.9464 620.969 27.6164 620.624 27.3964C620.279 27.1764 619.849 27.0664 619.334 27.0664C618.789 27.0664 618.327 27.1864 617.947 27.4264C617.572 27.6614 617.287 28.0089 617.092 28.4689C616.902 28.9239 616.807 29.4814 616.807 30.1414C616.807 30.7764 616.902 31.3189 617.092 31.7689C617.287 32.2139 617.569 32.5564 617.939 32.7964C618.314 33.0314 618.764 33.1489 619.289 33.1489C619.819 33.1489 620.282 33.0264 620.677 32.7814C621.077 32.5364 621.389 32.1839 621.614 31.7239L622.897 32.1664C622.687 32.6364 622.404 33.0414 622.049 33.3814C621.694 33.7164 621.287 33.9739 620.827 34.1539C620.367 34.3289 619.874 34.4164 619.349 34.4164ZM616.357 30.5164V29.4439H622.342V30.5164H616.357ZM628.421 34.4164C627.686 34.4164 627.054 34.2314 626.524 33.8614C625.999 33.4864 625.599 32.9764 625.324 32.3314C625.054 31.6864 624.919 30.9539 624.919 30.1339C624.919 29.3089 625.054 28.5739 625.324 27.9289C625.594 27.2839 625.994 26.7789 626.524 26.4139C627.054 26.0489 627.689 25.8664 628.429 25.8664C629.164 25.8664 629.804 26.0514 630.349 26.4214C630.899 26.7864 631.319 27.2939 631.609 27.9439C631.904 28.5889 632.051 29.3189 632.051 30.1339C632.051 30.9439 631.904 31.6739 631.609 32.3239C631.319 32.9739 630.899 33.4864 630.349 33.8614C629.804 34.2314 629.161 34.4164 628.421 34.4164ZM624.694 37.7914V26.0914H625.886V32.0539H626.036V37.7914H624.694ZM628.256 33.1939C628.776 33.1939 629.214 33.0614 629.569 32.7964C629.924 32.5314 630.189 32.1689 630.364 31.7089C630.544 31.2439 630.634 30.7189 630.634 30.1339C630.634 29.5489 630.544 29.0264 630.364 28.5664C630.189 28.1064 629.921 27.7464 629.561 27.4864C629.201 27.2214 628.754 27.0889 628.219 27.0889C627.704 27.0889 627.271 27.2164 626.921 27.4714C626.576 27.7264 626.316 28.0814 626.141 28.5364C625.971 28.9914 625.886 29.5239 625.886 30.1339C625.886 30.7389 625.971 31.2714 626.141 31.7314C626.316 32.1914 626.581 32.5514 626.936 32.8114C627.291 33.0664 627.731 33.1939 628.256 33.1939Z" fill="#4200FF"/>
</g>
<defs>
<clipPath id="clip0_689_1960">
<rect width="922" height="206" fill="white" transform="translate(0 0.191406)"/>
</clipPath>
</defs>
</svg>
