<svg width="70" height="53" viewBox="0 0 70 53" fill="none" xmlns="http://www.w3.org/2000/svg">
<rect x="27" y="33" width="43" height="20" rx="10" fill="#FF3DA8"/>
<path d="M35.9794 47.5V39.4124H38.8069C39.3703 39.4124 39.8349 39.5098 40.2009 39.7046C40.5668 39.8968 40.8393 40.1561 41.0183 40.4826C41.1974 40.8064 41.2869 41.1657 41.2869 41.5607C41.2869 41.9082 41.225 42.1951 41.1013 42.4215C40.9802 42.648 40.8196 42.827 40.6195 42.9586C40.422 43.0902 40.2075 43.1877 39.9758 43.2508V43.3298C40.2233 43.3456 40.472 43.4325 40.7222 43.5905C40.9723 43.7484 41.1816 43.9748 41.35 44.2697C41.5185 44.5646 41.6028 44.9252 41.6028 45.3517C41.6028 45.7572 41.5106 46.1218 41.3264 46.4456C41.1421 46.7694 40.8512 47.0261 40.4536 47.2157C40.0561 47.4052 39.5388 47.5 38.9016 47.5H35.9794ZM36.9587 46.6312H38.9016C39.5414 46.6312 39.9955 46.5075 40.2641 46.26C40.5352 46.0099 40.6708 45.7071 40.6708 45.3517C40.6708 45.0779 40.601 44.8252 40.4615 44.5935C40.322 44.3592 40.1232 44.1723 39.8652 44.0327C39.6072 43.8906 39.3018 43.8195 38.949 43.8195H36.9587V46.6312ZM36.9587 42.9665H38.7753C39.0701 42.9665 39.336 42.9086 39.573 42.7927C39.8126 42.6769 40.0021 42.5137 40.1416 42.3031C40.2838 42.0925 40.3549 41.845 40.3549 41.5607C40.3549 41.2052 40.2312 40.9038 39.9837 40.6563C39.7362 40.4062 39.3439 40.2812 38.8069 40.2812H36.9587V42.9665ZM44.8706 47.6422C44.4862 47.6422 44.1374 47.5698 43.8241 47.425C43.5108 47.2775 43.262 47.0656 43.0778 46.7892C42.8935 46.5101 42.8013 46.1731 42.8013 45.7782C42.8013 45.4307 42.8698 45.149 43.0067 44.9331C43.1436 44.7146 43.3265 44.5435 43.5556 44.4198C43.7846 44.296 44.0374 44.2039 44.3138 44.1433C44.5929 44.0801 44.8732 44.0301 45.1549 43.9933C45.5235 43.9459 45.8223 43.9103 46.0514 43.8866C46.2831 43.8603 46.4515 43.8169 46.5569 43.7563C46.6648 43.6958 46.7188 43.5905 46.7188 43.4404V43.4088C46.7188 43.0192 46.6121 42.7164 46.3989 42.5005C46.1883 42.2846 45.8684 42.1767 45.4393 42.1767C44.9944 42.1767 44.6455 42.2741 44.3928 42.4689C44.14 42.6637 43.9623 42.8717 43.8597 43.0929L42.9751 42.777C43.133 42.4084 43.3437 42.1214 43.6069 41.9161C43.8728 41.7081 44.1624 41.5633 44.4757 41.4817C44.7916 41.3974 45.1023 41.3553 45.4077 41.3553C45.6025 41.3553 45.8263 41.379 46.079 41.4264C46.3344 41.4711 46.5805 41.5646 46.8175 41.7068C47.0571 41.8489 47.2558 42.0635 47.4138 42.3505C47.5718 42.6374 47.6507 43.0218 47.6507 43.5036V47.5H46.7188V46.6786H46.6714C46.6082 46.8102 46.5029 46.9511 46.3555 47.1011C46.208 47.2512 46.0119 47.3789 45.767 47.4842C45.5222 47.5895 45.2234 47.6422 44.8706 47.6422ZM45.0128 46.805C45.3814 46.805 45.692 46.7326 45.9448 46.5878C46.2001 46.443 46.3923 46.2561 46.5213 46.027C46.6529 45.798 46.7188 45.5571 46.7188 45.3043V44.4513C46.6793 44.4987 46.5924 44.5422 46.4581 44.5817C46.3265 44.6185 46.1738 44.6514 46 44.6804C45.8289 44.7067 45.6617 44.7304 45.4985 44.7515C45.3379 44.7699 45.2076 44.7857 45.1076 44.7989C44.8653 44.8305 44.6389 44.8818 44.4283 44.9529C44.2203 45.0213 44.0518 45.1253 43.9228 45.2648C43.7965 45.4017 43.7333 45.5887 43.7333 45.8256C43.7333 46.1494 43.8531 46.3943 44.0927 46.5601C44.3349 46.7234 44.6416 46.805 45.0128 46.805ZM53.4114 44.0406V44.9094H50.0626V44.0406H53.4114ZM50.2838 41.4343V47.5H49.3518V41.4343H50.2838ZM54.1222 41.4343V47.5H53.1902V41.4343H54.1222ZM59.4732 47.5V42.2873H57.862C57.4986 42.2873 57.213 42.3715 57.005 42.54C56.797 42.7085 56.693 42.9402 56.693 43.235C56.693 43.5246 56.7865 43.7524 56.9734 43.9182C57.163 44.0841 57.4223 44.167 57.7514 44.167H59.7101V45.0358H57.7514C57.3407 45.0358 56.9866 44.9634 56.6891 44.8186C56.3916 44.6738 56.1626 44.4671 56.002 44.1986C55.8414 43.9274 55.7611 43.6063 55.7611 43.235C55.7611 42.8612 55.8453 42.54 56.0138 42.2715C56.1823 42.0029 56.4232 41.7963 56.7365 41.6515C57.0524 41.5067 57.4276 41.4343 57.862 41.4343H60.3577V47.5H59.4732ZM55.4293 47.5L57.1511 44.4829H58.1621L56.4403 47.5H55.4293Z" fill="white"/>
<path d="M11.6023 9.87783L33.6359 18.3463C34.8351 18.8071 34.7543 20.5301 33.5174 20.8768L24.3666 23.4417C23.9181 23.5675 23.5676 23.918 23.4418 24.3665L20.8769 33.5173C20.5302 34.7542 18.8072 34.835 18.3463 33.6358L9.87792 11.6022C9.4632 10.5231 10.5232 9.4631 11.6023 9.87783Z" fill="#FF3DA8"/>
</svg>
