<svg width="102" height="58" viewBox="0 0 102 58" fill="none" xmlns="http://www.w3.org/2000/svg">
<rect x="31.207" y="36.3269" width="70.3565" height="21.4338" rx="10.7169" fill="#FF3DA8"/>
<path d="M49.5128 51.5437L46.6672 47.7683H46.0271V51.5437H44.1546V42.6868H46.0271V46.2244H46.4034L49.3442 42.6868H51.6752L48.2197 46.7952L51.8352 51.5437H49.5128ZM54.5024 49.1132L56.894 44.901H58.7103V51.5437H56.9545V47.3185L54.5716 51.5437H52.7423V44.901H54.5024V49.1132ZM60.1872 54.0347V44.901H62.0036V46.0168H62.0857C62.1664 45.838 62.2832 45.6564 62.436 45.4719C62.5917 45.2845 62.7935 45.1288 63.0415 45.0048C63.2923 44.8779 63.6037 44.8145 63.9756 44.8145C64.46 44.8145 64.9068 44.9414 65.3163 45.1951C65.7257 45.4459 66.0529 45.825 66.298 46.3325C66.543 46.837 66.6655 47.4699 66.6655 48.231C66.6655 48.972 66.5459 49.5976 66.3066 50.1079C66.0702 50.6153 65.7473 51.0002 65.3379 51.2626C64.9314 51.5221 64.4758 51.6518 63.9713 51.6518C63.6138 51.6518 63.3096 51.5927 63.0588 51.4745C62.8108 51.3563 62.6076 51.2078 62.449 51.0291C62.2904 50.8474 62.1693 50.6644 62.0857 50.4798H62.0295V54.0347H60.1872ZM61.9906 48.2224C61.9906 48.6173 62.0454 48.9619 62.1549 49.256C62.2645 49.55 62.423 49.7792 62.6306 49.9436C62.8382 50.105 63.0905 50.1858 63.3874 50.1858C63.6873 50.1858 63.941 50.1036 64.1486 49.9392C64.3562 49.772 64.5133 49.5414 64.62 49.2473C64.7295 48.9503 64.7843 48.6087 64.7843 48.2224C64.7843 47.8389 64.731 47.5016 64.6243 47.2104C64.5176 46.9192 64.3605 46.6914 64.1529 46.5271C63.9453 46.3627 63.6902 46.2806 63.3874 46.2806C63.0876 46.2806 62.8339 46.3599 62.6263 46.5184C62.4216 46.677 62.2645 46.9019 62.1549 47.1931C62.0454 47.4843 61.9906 47.8274 61.9906 48.2224ZM69.6539 49.1132L72.0454 44.901H73.8618V51.5437H72.106V47.3185L69.7231 51.5437H67.8938V44.901H69.6539V49.1132ZM74.9495 51.5437L74.9408 50.082H75.1614C75.3171 50.082 75.4511 50.0445 75.5636 49.9695C75.6789 49.8917 75.774 49.7663 75.849 49.5933C75.9239 49.4203 75.9831 49.1911 76.0263 48.9057C76.0695 48.6173 76.0984 48.2627 76.1128 47.8418L76.2209 44.901H81.2721V51.5437H79.5163V46.3498H77.8773L77.7735 48.378C77.7475 48.9345 77.6798 49.4131 77.5702 49.8138C77.4635 50.2146 77.315 50.5433 77.1248 50.7999C76.9345 51.0536 76.7053 51.241 76.4371 51.3621C76.169 51.4832 75.8576 51.5437 75.503 51.5437H74.9495ZM82.3111 51.5437L82.3025 50.082H82.523C82.6787 50.082 82.8128 50.0445 82.9252 49.9695C83.0406 49.8917 83.1357 49.7663 83.2107 49.5933C83.2856 49.4203 83.3447 49.1911 83.388 48.9057C83.4312 48.6173 83.46 48.2627 83.4745 47.8418L83.5826 44.901H88.6338V51.5437H86.878V46.3498H85.2389L85.1351 48.378C85.1092 48.9345 85.0414 49.4131 84.9319 49.8138C84.8252 50.2146 84.6767 50.5433 84.4864 50.7999C84.2962 51.0536 84.0669 51.241 83.7988 51.3621C83.5307 51.4832 83.2193 51.5437 82.8647 51.5437H82.3111Z" fill="white"/>
<path d="M12.7059 10.8169L36.8354 20.0908C38.1486 20.5955 38.0602 22.4824 36.7056 22.8621L26.6844 25.671C26.1932 25.8087 25.8093 26.1925 25.6716 26.6837L22.8627 36.7049C22.483 38.0595 20.5962 38.1479 20.0915 36.8348L10.8175 12.7052C10.3633 11.5236 11.5242 10.3627 12.7059 10.8169Z" fill="#FF3DA8"/>
</svg>
