<svg width="655" height="277" viewBox="0 0 655 277" fill="none" xmlns="http://www.w3.org/2000/svg">
<g clip-path="url(#clip0_3294_3661)">
<rect x="0.827148" y="0.915039" width="654" height="276" rx="15" fill="white"/>
<g clip-path="url(#clip1_3294_3661)">
<rect x="-11.0332" y="37.2856" width="165.6" height="71.6004" rx="7.4001" transform="rotate(12.1423 -11.0332 37.2856)" fill="#FF3DA8"/>
<path d="M-2.26346 71.7002L0.378921 59.4189L4.76393 60.3623C5.71456 60.5668 6.46526 60.9123 7.01602 61.3988C7.56797 61.8798 7.93552 62.4562 8.11869 63.128C8.30303 63.7943 8.31422 64.5039 8.15225 65.2567C7.99028 66.0095 7.68766 66.6545 7.2444 67.1915C6.80231 67.7231 6.22748 68.0968 5.51989 68.3125C4.81898 68.5239 3.99046 68.5267 3.03433 68.321L0.0340613 67.6755L0.371009 66.1094L3.19818 66.7177C3.80813 66.8489 4.32239 66.8503 4.74098 66.7219C5.16506 66.5947 5.50129 66.3681 5.74966 66.042C6.00471 65.7117 6.18189 65.3157 6.28121 64.8542C6.3817 64.3871 6.38245 63.9561 6.28346 63.561C6.19114 63.1617 5.97728 62.8196 5.64187 62.5347C5.30646 62.2498 4.83378 62.0418 4.22384 61.9105L1.89121 61.4087L-0.408898 72.0992L-2.26346 71.7002ZM7.67698 73.8389L9.65966 64.6238L11.3823 64.9944L11.0649 66.4698L11.1638 66.4911C11.4406 66.0332 11.8212 65.7069 12.3058 65.5122C12.7971 65.3132 13.312 65.2716 13.8505 65.3875C13.9604 65.4111 14.0883 65.4444 14.2343 65.4873C14.387 65.5259 14.5089 65.5608 14.5999 65.5918L14.2311 67.3063C14.1644 67.2689 14.04 67.2192 13.8579 67.157C13.6812 67.096 13.4995 67.0454 13.3127 67.0052C12.8896 66.9142 12.4909 66.9233 12.1167 67.0325C11.7492 67.1374 11.4356 67.3258 11.1758 67.5976C10.9228 67.8651 10.7525 68.2022 10.6651 68.6088L9.45736 74.2219L7.67698 73.8389ZM13.4632 75.0838L15.4459 65.8687L17.2263 66.2518L15.2436 75.4669L13.4632 75.0838ZM16.6493 64.6443C16.3361 64.5769 16.0921 64.4152 15.9172 64.1591C15.7423 63.903 15.6862 63.6293 15.7489 63.3381C15.8127 63.0413 15.977 62.8122 16.2417 62.6507C16.5065 62.4892 16.7954 62.4421 17.1087 62.5095C17.4164 62.5757 17.6577 62.7369 17.8325 62.993C18.0129 63.2503 18.0712 63.5273 18.0073 63.824C17.9447 64.1152 17.7782 64.341 17.508 64.5013C17.2433 64.6629 16.9571 64.7105 16.6493 64.6443ZM19.9142 70.754L18.7384 76.2188L16.958 75.8358L18.9407 66.6206L20.6716 66.9931L20.3453 68.5097L20.469 68.5363C20.7853 68.0812 21.1974 67.7559 21.7052 67.5604C22.2141 67.3594 22.8175 67.334 23.5154 67.4842C24.1418 67.619 24.6602 67.8685 25.0705 68.2327C25.4875 68.5927 25.7696 69.0587 25.9167 69.6308C26.0693 70.2041 26.0635 70.8726 25.8991 71.6364L24.64 77.4886L22.8596 77.1055L24.0727 71.4677C24.2157 70.8028 24.1522 70.2429 23.8821 69.7881C23.6132 69.3278 23.1765 69.0326 22.572 68.9025C22.1599 68.8139 21.7689 68.8275 21.399 68.9434C21.0358 69.0549 20.7241 69.261 20.464 69.5615C20.2038 69.862 20.0206 70.2595 19.9142 70.754ZM30.1794 78.8787C29.2947 78.6884 28.5747 78.3207 28.0192 77.7758C27.4638 77.2308 27.0898 76.5639 26.8974 75.7751C26.7049 74.9863 26.7079 74.1303 26.9066 73.2071C27.1087 72.2675 27.4625 71.4783 27.9679 70.8396C28.4799 70.1966 29.0978 69.7431 29.8215 69.4792C30.5519 69.2108 31.3485 69.1695 32.2112 69.3551C32.9146 69.5065 33.5105 69.7698 33.9989 70.1451C34.494 70.5161 34.8589 70.9712 35.0936 71.5104C35.3338 72.0507 35.4173 72.6379 35.3442 73.2718L33.5968 72.8959C33.599 72.5916 33.5382 72.2997 33.4144 72.0201C33.2961 71.7417 33.1121 71.5009 32.8626 71.2977C32.6131 71.0945 32.296 70.9516 31.9114 70.8688C31.4114 70.7612 30.9461 70.7991 30.5157 70.9825C30.092 71.1615 29.7237 71.4704 29.4108 71.909C29.098 72.3476 28.8706 72.8967 28.7288 73.5561C28.5857 74.221 28.5626 74.8225 28.6595 75.3608C28.7565 75.8991 28.9628 76.3431 29.2785 76.6928C29.6009 77.0381 30.0121 77.2646 30.5122 77.3721C31.0287 77.4833 31.499 77.435 31.9232 77.2273C32.3528 77.0208 32.6731 76.6814 32.8839 76.2094L34.6313 76.5853C34.442 77.1713 34.135 77.6629 33.7103 78.0602C33.2856 78.4575 32.7723 78.7323 32.1703 78.8845C31.5684 79.0367 30.9047 79.0348 30.1794 78.8787ZM35.2728 79.7763L37.2555 70.5612L39.0359 70.9442L37.0532 80.1593L35.2728 79.7763ZM38.459 69.3368C38.1458 69.2694 37.9017 69.1076 37.7268 68.8515C37.552 68.5954 37.4959 68.3218 37.5585 68.0305C37.6224 67.7338 37.7866 67.5047 38.0514 67.3431C38.3161 67.1816 38.6051 67.1346 38.9183 67.202C39.226 67.2682 39.4673 67.4293 39.6422 67.6854C39.8225 67.9427 39.8808 68.2197 39.817 68.5164C39.7543 68.8077 39.5879 69.0335 39.3176 69.1938C39.0529 69.3553 38.7667 69.403 38.459 69.3368ZM38.0264 83.9736L40.7503 71.3131L42.4812 71.6855L42.1585 73.1856L42.3069 73.2176C42.4581 73.0489 42.6571 72.8588 42.9038 72.6475C43.156 72.4372 43.4781 72.2766 43.87 72.1654C44.263 72.0487 44.7425 72.0513 45.3085 72.1731C46.0503 72.3327 46.6695 72.6614 47.1661 73.1592C47.6682 73.6582 48.0106 74.2981 48.1933 75.0791C48.3759 75.8601 48.3597 76.7506 48.1445 77.7507C47.9317 78.7398 47.5836 79.5561 47.1002 80.1995C46.618 80.8374 46.0443 81.286 45.3791 81.5453C44.7205 81.8004 44.0176 81.8475 43.2702 81.6867C42.7153 81.5673 42.2793 81.3757 41.9623 81.112C41.652 80.8441 41.4224 80.5618 41.2734 80.2653C41.13 79.97 41.024 79.7143 40.9555 79.4983L40.8566 79.4771L39.8067 84.3566L38.0264 83.9736ZM43.2109 80.0785C43.7439 80.1931 44.2198 80.146 44.6384 79.9371C45.0571 79.7283 45.4097 79.3988 45.6962 78.9488C45.9895 78.4944 46.2023 77.9595 46.3347 77.3441C46.466 76.7341 46.4929 76.1679 46.4156 75.6453C46.3383 75.1227 46.1512 74.6829 45.8544 74.3258C45.5575 73.9687 45.1398 73.7322 44.6013 73.6164C44.0793 73.504 43.6107 73.5441 43.1956 73.7365C42.7817 73.9234 42.4293 74.2385 42.1384 74.6819C41.8542 75.1209 41.6429 75.6619 41.5046 76.3048C41.3663 76.9478 41.3379 77.5338 41.4195 78.0631C41.5012 78.5923 41.691 79.0328 41.989 79.3844C42.2926 79.7371 42.6999 79.9685 43.2109 80.0785ZM52.8836 70.7155L50.2412 82.9968L48.4608 82.6137L51.1032 70.3324L52.8836 70.7155ZM55.8795 84.4082C54.9783 84.2143 54.24 83.8514 53.6645 83.3194C53.0891 82.7874 52.699 82.1285 52.4943 81.3428C52.2964 80.5528 52.2996 79.6825 52.5042 78.7318C52.7075 77.7867 53.0597 76.9914 53.5608 76.3461C54.0673 75.7019 54.6797 75.2472 55.398 74.982C56.1229 74.7126 56.9139 74.67 57.7712 74.8545C58.2932 74.9668 58.7804 75.1607 59.2328 75.4363C59.6852 75.7119 60.0669 76.0757 60.3778 76.5278C60.6887 76.9799 60.8936 77.5242 60.9924 78.1606C61.0967 78.7982 61.0596 79.5319 60.881 80.3617L60.7427 81.0046L53.4151 79.428L53.7042 78.0845L60.1086 79.4624L59.1804 79.7284C59.3021 79.1624 59.3218 78.6435 59.2394 78.1715C59.1569 77.6996 58.9659 77.3049 58.6662 76.9874C58.3732 76.6657 57.9685 76.4492 57.4519 76.3381C56.9354 76.227 56.4665 76.2554 56.0451 76.4235C55.6292 76.5927 55.2814 76.86 55.0016 77.2252C54.7218 77.5905 54.5298 78.0149 54.4258 78.4985L54.229 79.4134C54.093 80.0453 54.0876 80.6047 54.2128 81.0916C54.3381 81.5785 54.5709 81.9793 54.9114 82.294C55.2574 82.6099 55.6914 82.8241 56.2134 82.9364C56.5541 83.0097 56.8725 83.0264 57.1685 82.9866C57.47 82.948 57.7437 82.8517 57.9896 82.6976C58.2355 82.5435 58.4419 82.3321 58.609 82.0633L60.2378 82.7501C59.994 83.2151 59.6588 83.5972 59.2323 83.8964C58.8057 84.1955 58.3062 84.3928 57.7337 84.4881C57.168 84.5791 56.5499 84.5525 55.8795 84.4082ZM69.5088 79.8636L67.8247 79.7945C67.7865 79.4643 67.6523 79.1393 67.4221 78.8196C67.1975 78.501 66.8049 78.2814 66.2444 78.1609C65.7389 78.0521 65.2909 78.0764 64.9006 78.2339C64.5169 78.3871 64.2872 78.6395 64.2116 78.9912C64.1454 79.2989 64.2042 79.5732 64.3881 79.814C64.5775 80.056 64.9098 80.2885 65.3851 80.5114L66.7895 81.1586C67.5889 81.5318 68.153 81.9694 68.482 82.4714C68.8109 82.9733 68.9063 83.5458 68.7679 84.1887C68.6485 84.7437 68.3828 85.204 67.9706 85.5695C67.5597 85.9295 67.0447 86.1723 66.4255 86.2978C65.8075 86.4178 65.1276 86.398 64.3857 86.2384C63.3527 86.0161 62.5598 85.6127 62.0072 85.0281C61.4545 84.4435 61.1909 83.7313 61.2164 82.8917L62.9958 82.9985C63.0087 83.4728 63.158 83.8613 63.4435 84.1643C63.7346 84.4683 64.1493 84.6783 64.6878 84.7942C65.2703 84.9195 65.764 84.8964 66.1689 84.7248C66.5792 84.5543 66.8223 84.2933 66.8979 83.9416C67.0232 83.3591 66.6737 82.8728 65.8492 82.4827L64.3659 81.8014C63.5457 81.4179 62.9751 80.9703 62.654 80.4585C62.3396 79.9424 62.2521 79.3602 62.3916 78.7118C62.5087 78.1678 62.7627 77.7222 63.1536 77.3751C63.5499 77.0292 64.0389 76.8009 64.6204 76.6903C65.2085 76.5754 65.8461 76.5918 66.5329 76.7396C67.533 76.9548 68.2694 77.3403 68.7419 77.8962C69.22 78.4532 69.4756 79.109 69.5088 79.8636ZM-2.98756 93.2233C-3.85028 93.0377 -4.56328 92.6773 -5.12656 92.1421C-5.68435 91.6082 -6.06499 90.9456 -6.26847 90.1544C-6.46645 89.3644 -6.46377 88.4968 -6.26042 87.5517C-6.0547 86.5955 -5.69916 85.7981 -5.19378 85.1594C-4.68173 84.5164 -4.06168 84.0663 -3.33365 83.809C-2.60011 83.5528 -1.80199 83.5176 -0.939275 83.7032C-0.0710663 83.89 0.641933 84.2504 1.19972 84.7844C1.75751 85.3183 2.13756 85.9836 2.33985 86.7803C2.54333 87.5715 2.54222 88.4452 2.3365 89.4013C2.13315 90.3465 1.77604 91.1378 1.26517 91.7753C0.754299 92.4128 0.134845 92.8602 -0.593193 93.1175C-1.32123 93.3748 -2.11935 93.4101 -2.98756 93.2233ZM-2.66303 91.7149C-2.09704 91.8367 -1.59805 91.7888 -1.16604 91.5713C-0.734034 91.3538 -0.3775 91.0194 -0.0964376 90.5682C0.191302 90.1126 0.397832 89.5936 0.523153 89.0112C0.650838 88.4177 0.677216 87.8542 0.602286 87.3206C0.53285 86.7883 0.345972 86.3341 0.0416501 85.9582C-0.262672 85.5822 -0.697825 85.3334 -1.26381 85.2116C-1.8243 85.091 -2.32055 85.1395 -2.75255 85.357C-3.17907 85.5757 -3.53619 85.9128 -3.82393 86.3683C-4.11167 86.8239 -4.31938 87.3484 -4.44707 87.9418C-4.57239 88.5243 -4.59758 89.0823 -4.52265 89.6159C-4.44654 90.1439 -4.25907 90.5953 -3.96025 90.9701C-3.65592 91.346 -3.22352 91.5943 -2.66303 91.7149ZM9.01755 85.9662L8.70721 87.4086L3.50619 86.2896L3.81654 84.8472L9.01755 85.9662ZM3.25158 94.3673L5.46479 84.0807C5.58775 83.5092 5.8164 83.0611 6.15075 82.7363C6.49177 82.4072 6.88844 82.1936 7.34076 82.0954C7.79976 81.993 8.2683 81.9932 8.74636 82.096C9.11452 82.1752 9.42124 82.2728 9.6665 82.3889C9.91176 82.5049 10.0901 82.5979 10.2015 82.6678L9.4608 84.0263C9.38429 83.9811 9.28364 83.9278 9.15885 83.8665C9.03956 83.8063 8.88376 83.7555 8.69143 83.7142C8.25733 83.6208 7.92047 83.6633 7.68085 83.8417C7.44242 84.0146 7.27886 84.3071 7.19019 84.7193L5.03196 94.7504L3.25158 94.3673ZM12.0628 96.2631L14.7052 83.9818L19.0902 84.9252C20.0408 85.1298 20.7915 85.4753 21.3423 85.9617C21.8942 86.4427 22.2618 87.0191 22.4449 87.6909C22.6293 88.3573 22.6405 89.0668 22.4785 89.8197C22.3165 90.5725 22.0139 91.2174 21.5707 91.7545C21.1286 92.286 20.5537 92.6597 19.8461 92.8754C19.1452 93.0868 18.3167 93.0896 17.3606 92.8839L14.3603 92.2384L14.6973 90.6723L17.5244 91.2806C18.1344 91.4118 18.6487 91.4133 19.0672 91.2848C19.4913 91.1576 19.8275 90.931 20.0759 90.605C20.331 90.2746 20.5082 89.8787 20.6075 89.4171C20.708 88.95 20.7087 88.519 20.6097 88.124C20.5174 87.7246 20.3035 87.3825 19.9681 87.0977C19.6327 86.8128 19.16 86.6047 18.5501 86.4735L16.2175 85.9716L13.9174 96.6621L12.0628 96.2631ZM22.0032 98.4018L23.9859 89.1867L25.7086 89.5574L25.3912 91.0328L25.4901 91.054C25.7668 90.5961 26.1475 90.2698 26.6321 90.0751C27.1233 89.8761 27.6382 89.8345 28.1767 89.9504C28.2866 89.974 28.4146 90.0073 28.5606 90.0502C28.7133 90.0888 28.8351 90.1237 28.9262 90.1548L28.5573 91.8692C28.4906 91.8319 28.3662 91.7821 28.1841 91.7199C28.0075 91.6589 27.8258 91.6083 27.639 91.5681C27.2158 91.4771 26.8172 91.4862 26.443 91.5954C26.0754 91.7003 25.7618 91.8887 25.5021 92.1605C25.2491 92.428 25.0788 92.7651 24.9913 93.1717L23.7836 98.7849L22.0032 98.4018ZM31.2847 100.597C30.422 100.412 29.709 100.051 29.1457 99.516C28.5879 98.982 28.2073 98.3194 28.0038 97.5282C27.8058 96.7382 27.8085 95.8706 28.0119 94.9255C28.2176 93.9694 28.5731 93.172 29.0785 92.5333C29.5905 91.8903 30.2106 91.4401 30.9386 91.1828C31.6722 90.9267 32.4703 90.8914 33.333 91.077C34.2012 91.2638 34.9142 91.6242 35.472 92.1582C36.0298 92.6922 36.4098 93.3575 36.6121 94.1542C36.8156 94.9454 36.8145 95.819 36.6088 96.7752C36.4054 97.7203 36.0483 98.5116 35.5374 99.1491C35.0266 99.7866 34.4071 100.234 33.6791 100.491C32.951 100.749 32.1529 100.784 31.2847 100.597ZM31.6092 99.0887C32.1752 99.2105 32.6742 99.1626 33.1062 98.9451C33.5382 98.7276 33.8948 98.3932 34.1758 97.942C34.4636 97.4865 34.6701 96.9675 34.7954 96.385C34.9231 95.7916 34.9495 95.228 34.8746 94.6945C34.8051 94.1621 34.6182 93.7079 34.3139 93.332C34.0096 92.956 33.5744 92.7072 33.0085 92.5854C32.448 92.4648 31.9517 92.5133 31.5197 92.7308C31.0932 92.9495 30.7361 93.2866 30.4483 93.7422C30.1606 94.1977 29.9529 94.7222 29.8252 95.3156C29.6999 95.8981 29.6747 96.4561 29.7496 96.9897C29.8257 97.5178 30.0132 97.9692 30.312 98.3439C30.6163 98.7199 31.0488 98.9681 31.6092 99.0887ZM40.312 102.531C39.5647 102.37 38.9406 102.037 38.4397 101.533C37.94 101.023 37.6015 100.378 37.4243 99.5982C37.2483 98.8129 37.2667 97.9257 37.4796 96.9366C37.6947 95.9366 38.0462 95.1181 38.5339 94.4814C39.0216 93.8447 39.5969 93.4021 40.2597 93.1538C40.9226 92.9055 41.6222 92.8605 42.3585 93.0189C42.9355 93.1431 43.3764 93.3385 43.6812 93.6053C43.9927 93.8678 44.2174 94.1462 44.3553 94.4403C44.4988 94.7356 44.602 94.9907 44.665 95.2055L44.7722 95.2285L45.7546 90.6622L47.535 91.0453L44.8926 103.327L43.1535 102.952L43.462 101.518L43.3137 101.486C43.1679 101.656 42.9662 101.846 42.7085 102.055C42.4508 102.264 42.1254 102.426 41.7323 102.543C41.3459 102.655 40.8725 102.651 40.312 102.531ZM41.0275 101.089C41.544 101.2 42.0104 101.157 42.4267 100.959C42.843 100.761 43.1944 100.437 43.481 99.9872C43.773 99.5383 43.9882 98.9924 44.1265 98.3495C44.2649 97.7066 44.2948 97.1266 44.2163 96.6095C44.139 96.087 43.9502 95.6554 43.6497 95.3148C43.3505 94.9687 42.9399 94.7395 42.4178 94.6271C41.8793 94.5113 41.4013 94.555 40.9839 94.7584C40.5664 94.9618 40.215 95.2858 39.9296 95.7303C39.6442 96.1749 39.4359 96.7021 39.3047 97.3121C39.1723 97.9275 39.1435 98.502 39.2185 99.0356C39.2946 99.5637 39.4805 100.009 39.7762 100.372C40.0774 100.735 40.4945 100.975 41.0275 101.089ZM53.2703 101.145L54.4337 95.7377L56.214 96.1207L54.2314 105.336L52.484 104.96L52.828 103.361L52.7291 103.34C52.4041 103.781 51.9753 104.117 51.4428 104.348C50.9103 104.578 50.2984 104.616 49.6072 104.462C49.0138 104.334 48.5168 104.092 48.1163 103.736C47.7212 103.38 47.4502 102.917 47.303 102.345C47.1614 101.774 47.1728 101.106 47.3371 100.343L48.598 94.4821L50.3784 94.8652L49.1618 100.52C49.0282 101.14 49.0971 101.676 49.3683 102.125C49.6396 102.574 50.0534 102.856 50.6095 102.97C50.9447 103.042 51.2949 103.031 51.6601 102.937C52.0307 102.844 52.3626 102.651 52.6557 102.358C52.9543 102.066 53.1592 101.661 53.2703 101.145ZM59.7707 106.726C58.8861 106.536 58.166 106.168 57.6106 105.623C57.0551 105.078 56.6812 104.411 56.4887 103.622C56.2962 102.834 56.2993 101.978 56.4979 101.054C56.7001 100.115 57.0538 99.3256 57.5592 98.6869C58.0713 98.0439 58.6892 97.5904 59.4129 97.3264C60.1433 97.0581 60.9398 97.0168 61.8026 97.2024C62.5059 97.3537 63.1018 97.617 63.5902 97.9924C64.0854 98.3634 64.4503 98.8184 64.685 99.3576C64.9252 99.898 65.0087 100.485 64.9355 101.119L63.1881 100.743C63.1903 100.439 63.1295 100.147 63.0057 99.8674C62.8874 99.5889 62.7035 99.3481 62.454 99.145C62.2045 98.9418 61.8874 98.7989 61.5027 98.7161C61.0027 98.6085 60.5375 98.6464 60.1071 98.8298C59.6833 99.0088 59.315 99.3177 59.0022 99.7563C58.6893 100.195 58.462 100.744 58.3201 101.403C58.1771 102.068 58.154 102.67 58.2509 103.208C58.3478 103.746 58.5541 104.19 58.8698 104.54C59.1923 104.885 59.6035 105.112 60.1035 105.219C60.6201 105.331 61.0904 105.282 61.5145 105.075C61.9442 104.868 62.2644 104.529 62.4752 104.057L64.2226 104.433C64.0333 105.019 63.7263 105.51 63.3016 105.907C62.8769 106.305 62.3636 106.58 61.7617 106.732C61.1597 106.884 60.4961 106.882 59.7707 106.726ZM71.133 99.3306L70.8226 100.773L65.7947 99.6913L66.105 98.2488L71.133 99.3306ZM67.9203 96.3454L69.7089 96.7302L67.8362 105.434C67.7452 105.857 67.7663 106.187 67.8996 106.422C68.034 106.653 68.2963 106.81 68.6865 106.894C68.7799 106.914 68.88 106.929 68.9867 106.941C69.099 106.954 69.2124 106.961 69.3271 106.962L69.3458 108.519C69.1515 108.54 68.9436 108.544 68.7222 108.531C68.5008 108.518 68.2829 108.488 68.0686 108.442C67.2719 108.271 66.6823 107.911 66.3 107.363C65.9189 106.81 65.8087 106.159 65.9695 105.412L67.9203 96.3454ZM78.3077 110.516L75.2745 109.863L75.6238 108.24L78.5499 108.869C79.484 109.07 80.2988 109.064 80.9942 108.852C81.6908 108.634 82.2657 108.22 82.7189 107.61C83.1732 106.995 83.5044 106.204 83.7125 105.237C83.9194 104.275 83.9411 103.426 83.7776 102.689C83.6196 101.954 83.2756 101.348 82.7456 100.872C82.2169 100.39 81.5046 100.053 80.6089 99.8602L77.5015 99.1916L77.8509 97.5679L81.0737 98.2613C82.2771 98.5202 83.2576 98.987 84.015 99.6616C84.7725 100.336 85.2834 101.182 85.5475 102.199C85.8128 103.211 85.8083 104.354 85.534 105.629C85.2586 106.909 84.7886 107.958 84.1241 108.775C83.4651 109.593 82.6427 110.155 81.6571 110.46C80.6715 110.766 79.555 110.784 78.3077 110.516ZM78.8235 97.7771L76.1811 110.058L74.3266 109.659L76.9689 97.3781L78.8235 97.7771ZM89.5921 113.142C88.6909 112.948 87.9526 112.585 87.3771 112.053C86.8017 111.521 86.4116 110.862 86.2069 110.077C86.009 109.287 86.0122 108.416 86.2168 107.466C86.4201 106.521 86.7723 105.725 87.2734 105.08C87.7799 104.436 88.3923 103.981 89.1106 103.716C89.8355 103.447 90.6265 103.404 91.4838 103.588C92.0058 103.701 92.493 103.895 92.9454 104.17C93.3978 104.446 93.7795 104.81 94.0904 105.262C94.4013 105.714 94.6062 106.258 94.705 106.895C94.8093 107.532 94.7722 108.266 94.5936 109.096L94.4553 109.739L87.1277 108.162L87.4168 106.818L93.8212 108.196L92.893 108.462C93.0147 107.896 93.0344 107.377 92.952 106.906C92.8695 106.434 92.6785 106.039 92.3788 105.721C92.0858 105.4 91.6811 105.183 91.1645 105.072C90.648 104.961 90.1791 104.989 89.7577 105.157C89.3418 105.327 88.994 105.594 88.7142 105.959C88.4344 106.324 88.2424 106.749 88.1384 107.232L87.9415 108.147C87.8056 108.779 87.8002 109.339 87.9254 109.826C88.0507 110.312 88.2835 110.713 88.624 111.028C88.97 111.344 89.404 111.558 89.926 111.67C90.2667 111.744 90.5851 111.76 90.8811 111.721C91.1826 111.682 91.4563 111.586 91.7022 111.432C91.9481 111.278 92.1545 111.066 92.3216 110.797L93.9504 111.484C93.7066 111.949 93.3714 112.331 92.9449 112.63C92.5183 112.93 92.0188 113.127 91.4463 113.222C90.8805 113.313 90.2625 113.286 89.5921 113.142ZM103.221 108.598L101.537 108.528C101.499 108.198 101.365 107.873 101.135 107.554C100.91 107.235 100.517 107.015 99.957 106.895C99.4514 106.786 99.0035 106.81 98.6132 106.968C98.2295 107.121 97.9998 107.374 97.9242 107.725C97.8579 108.033 97.9168 108.307 98.1007 108.548C98.2901 108.79 98.6224 109.022 99.0977 109.245L100.502 109.893C101.301 110.266 101.866 110.703 102.195 111.205C102.524 111.707 102.619 112.28 102.481 112.923C102.361 113.478 102.095 113.938 101.683 114.303C101.272 114.664 100.757 114.906 100.138 115.032C99.5201 115.152 98.8401 115.132 98.0983 114.972C97.0653 114.75 96.2724 114.347 95.7198 113.762C95.1671 113.177 94.9035 112.465 94.9289 111.626L96.7084 111.733C96.7213 112.207 96.8706 112.595 97.1561 112.898C97.4471 113.202 97.8619 113.412 98.4004 113.528C98.9829 113.653 99.4766 113.63 99.8815 113.459C100.292 113.288 100.535 113.027 100.611 112.676C100.736 112.093 100.386 111.607 99.5618 111.217L98.0785 110.535C97.2583 110.152 96.6877 109.704 96.3666 109.193C96.0522 108.676 95.9647 108.094 96.1042 107.446C96.2213 106.902 96.4753 106.456 96.8661 106.109C97.2625 105.763 97.7515 105.535 98.333 105.424C98.9211 105.309 99.5586 105.326 100.246 105.474C101.246 105.689 101.982 106.074 102.455 106.63C102.933 107.187 103.188 107.843 103.221 108.598ZM103.159 115.863L105.141 106.648L106.922 107.031L104.939 116.246L103.159 115.863ZM106.345 105.423C106.032 105.356 105.788 105.194 105.613 104.938C105.438 104.682 105.382 104.408 105.444 104.117C105.508 103.82 105.673 103.591 105.937 103.43C106.202 103.268 106.491 103.221 106.804 103.288C107.112 103.355 107.353 103.516 107.528 103.772C107.708 104.029 107.767 104.306 107.703 104.603C107.64 104.894 107.474 105.12 107.204 105.28C106.939 105.442 106.653 105.489 106.345 105.423ZM109.711 121.084C108.612 120.848 107.791 120.456 107.247 119.908C106.704 119.359 106.372 118.776 106.252 118.158L107.922 117.854C107.994 118.053 108.1 118.271 108.238 118.508C108.383 118.746 108.597 118.967 108.88 119.172C109.164 119.377 109.553 119.533 110.048 119.639C110.723 119.784 111.319 119.74 111.835 119.506C112.35 119.278 112.685 118.804 112.84 118.084L113.228 116.279L113.105 116.252C112.965 116.423 112.767 116.608 112.511 116.806C112.257 116.998 111.935 117.145 111.546 117.245C111.156 117.345 110.679 117.334 110.113 117.212C109.387 117.056 108.77 116.745 108.261 116.279C107.758 115.809 107.406 115.204 107.202 114.465C107.006 113.721 107.013 112.86 107.223 111.882C107.434 110.904 107.782 110.102 108.267 109.476C108.759 108.846 109.337 108.407 109.999 108.159C110.662 107.91 111.365 107.866 112.106 108.026C112.678 108.148 113.119 108.344 113.429 108.612C113.746 108.876 113.976 109.155 114.12 109.45C114.263 109.746 114.369 110.001 114.438 110.217L114.57 110.246L114.892 108.746L116.631 109.12L114.604 118.541C114.434 119.332 114.111 119.941 113.634 120.367C113.162 120.795 112.587 121.062 111.909 121.169C111.229 121.282 110.497 121.253 109.711 121.084ZM110.829 115.806C111.604 115.972 112.255 115.833 112.782 115.389C113.315 114.94 113.684 114.241 113.889 113.29C114.022 112.669 114.049 112.106 113.968 111.6C113.888 111.088 113.698 110.662 113.398 110.321C113.098 109.975 112.685 109.745 112.158 109.632C111.619 109.516 111.138 109.559 110.715 109.761C110.299 109.959 109.949 110.278 109.665 110.717C109.382 111.15 109.177 111.661 109.05 112.249C108.921 112.848 108.898 113.398 108.98 113.899C109.063 114.394 109.259 114.807 109.567 115.137C109.881 115.469 110.302 115.692 110.829 115.806ZM119.319 113.622L118.144 119.087L116.363 118.704L118.346 109.489L120.077 109.861L119.751 111.378L119.874 111.404C120.191 110.949 120.603 110.624 121.11 110.428C121.619 110.227 122.223 110.202 122.921 110.352C123.547 110.487 124.065 110.737 124.476 111.101C124.893 111.461 125.175 111.927 125.322 112.499C125.475 113.072 125.469 113.741 125.304 114.504L124.045 120.357L122.265 119.974L123.478 114.336C123.621 113.671 123.557 113.111 123.287 112.656C123.018 112.196 122.582 111.901 121.977 111.771C121.565 111.682 121.174 111.696 120.804 111.811C120.441 111.923 120.129 112.129 119.869 112.43C119.609 112.73 119.426 113.128 119.319 113.622Z" fill="white"/>
</g>
<rect x="474.833" y="103.286" width="169.324" height="26.56" rx="3.14082" transform="rotate(2 474.833 103.286)" fill="#F2F2F2"/>
<path d="M483.248 115.249L489.17 109.727C489.626 109.302 490.336 109.811 490.08 110.38L487.728 115.593C487.561 115.963 487.822 116.384 488.228 116.399L489.691 116.45C490.181 116.467 490.423 117.053 490.088 117.411L484.105 123.811C483.669 124.278 482.912 123.785 483.163 123.197L485.766 117.09C485.924 116.721 485.662 116.309 485.261 116.295L483.618 116.238C483.109 116.22 482.876 115.596 483.248 115.249Z" fill="black"/>
<path d="M500.418 121.97L500.687 114.268L503.062 114.351C503.468 114.365 503.792 114.393 504.033 114.433C504.608 114.528 505.093 114.759 505.487 115.127C505.881 115.49 506.172 115.95 506.36 116.507C506.548 117.059 506.63 117.667 506.607 118.331C506.584 118.997 506.459 119.602 506.233 120.144C506.007 120.682 505.685 121.119 505.266 121.454C504.847 121.789 504.348 121.984 503.768 122.039C503.528 122.063 503.203 122.067 502.793 122.053L500.418 121.97ZM502.824 121.144C503.217 121.157 503.515 121.148 503.72 121.116C504.323 121.026 504.779 120.725 505.09 120.211C505.401 119.697 505.569 119.058 505.596 118.295C505.623 117.525 505.497 116.874 505.22 116.344C504.946 115.809 504.513 115.478 503.921 115.35C503.719 115.304 503.422 115.274 503.03 115.26L501.634 115.212L501.428 121.095L502.824 121.144ZM508.491 119.628C508.509 120.232 508.662 120.701 508.951 121.036C509.242 121.371 509.654 121.548 510.185 121.567C510.563 121.58 510.896 121.504 511.184 121.339C511.475 121.174 511.707 120.931 511.879 120.608L512.782 120.956C512.54 121.454 512.189 121.837 511.73 122.103C511.271 122.369 510.76 122.492 510.196 122.472C509.633 122.452 509.142 122.31 508.723 122.046C508.307 121.781 507.99 121.417 507.77 120.952C507.554 120.488 507.457 119.958 507.478 119.362C507.499 118.738 507.632 118.199 507.877 117.743C508.125 117.284 508.462 116.937 508.888 116.702C509.317 116.463 509.81 116.354 510.367 116.373C510.919 116.393 511.391 116.534 511.782 116.798C512.176 117.058 512.472 117.423 512.67 117.894C512.868 118.362 512.955 118.913 512.933 119.547C512.93 119.651 512.925 119.729 512.92 119.783L508.491 119.628ZM510.369 117.23C509.852 117.212 509.438 117.342 509.129 117.621C508.819 117.899 508.621 118.313 508.534 118.864L511.957 118.983C511.879 117.849 511.349 117.264 510.369 117.23ZM516.196 122.676C515.739 122.66 515.337 122.578 514.989 122.431C514.64 122.283 514.36 122.077 514.148 121.812C513.936 121.548 513.804 121.234 513.753 120.872L514.731 120.751C514.799 121.071 514.97 121.327 515.245 121.519C515.521 121.71 515.867 121.813 516.284 121.828C516.676 121.842 516.988 121.772 517.218 121.62C517.452 121.464 517.574 121.243 517.584 120.958C517.59 120.786 517.555 120.651 517.48 120.552C517.409 120.453 517.264 120.357 517.046 120.264C516.828 120.167 516.475 120.044 515.988 119.895C515.475 119.738 515.077 119.583 514.794 119.43C514.51 119.274 514.309 119.099 514.191 118.906C514.073 118.713 514.018 118.475 514.028 118.193C514.04 117.858 514.143 117.567 514.337 117.321C514.531 117.07 514.799 116.882 515.139 116.754C515.479 116.623 515.868 116.565 516.307 116.581C516.742 116.596 517.13 116.681 517.471 116.836C517.815 116.987 518.088 117.195 518.29 117.459C518.495 117.719 518.611 118.018 518.639 118.354L517.659 118.497C517.624 118.182 517.475 117.928 517.214 117.737C516.957 117.546 516.621 117.443 516.208 117.429C515.972 117.421 515.762 117.447 515.578 117.509C515.398 117.567 515.255 117.654 515.151 117.772C515.047 117.886 514.993 118.022 514.987 118.179C514.982 118.325 515.021 118.448 515.103 118.547C515.189 118.646 515.346 118.745 515.575 118.842C515.803 118.935 516.147 119.049 516.607 119.183C517.119 119.333 517.517 119.488 517.801 119.648C518.084 119.808 518.285 119.991 518.403 120.199C518.524 120.407 518.579 120.662 518.569 120.965C518.556 121.336 518.452 121.654 518.257 121.918C518.062 122.179 517.79 122.375 517.439 122.505C517.088 122.636 516.673 122.693 516.196 122.676ZM520.75 122.68L519.798 122.647L520 116.87L520.952 116.904L520.75 122.68ZM520.507 115.994C520.332 115.988 520.186 115.924 520.069 115.802C519.956 115.677 519.902 115.526 519.908 115.352C519.914 115.177 519.978 115.033 520.1 114.919C520.226 114.802 520.376 114.747 520.55 114.753C520.729 114.759 520.875 114.825 520.988 114.95C521.105 115.072 521.161 115.221 521.155 115.395C521.148 115.57 521.083 115.716 520.957 115.833C520.835 115.946 520.685 116 520.507 115.994ZM526.632 117.102L527.477 117.132L527.274 122.945C527.262 123.291 527.229 123.586 527.174 123.831C527.042 124.429 526.755 124.871 526.314 125.156C525.872 125.44 525.3 125.57 524.597 125.545C524.123 125.529 523.684 125.405 523.282 125.173C522.883 124.945 522.575 124.62 522.358 124.198L523.245 123.769C523.371 124.044 523.559 124.253 523.807 124.393C524.059 124.538 524.335 124.615 524.635 124.626C525.726 124.664 526.287 124.089 526.317 122.901L526.337 122.345C526.119 122.559 525.865 122.721 525.575 122.832C525.286 122.94 524.967 122.988 524.617 122.976C524.089 122.957 523.634 122.809 523.251 122.532C522.872 122.251 522.585 121.877 522.391 121.409C522.2 120.939 522.115 120.413 522.135 119.831C522.155 119.254 522.277 118.739 522.5 118.286C522.726 117.83 523.039 117.476 523.436 117.226C523.838 116.976 524.301 116.86 524.825 116.878C525.21 116.892 525.552 116.973 525.85 117.123C526.148 117.273 526.401 117.481 526.61 117.749L526.632 117.102ZM524.765 122.108C525.325 122.128 525.753 121.944 526.048 121.558C526.347 121.173 526.508 120.648 526.532 119.985C526.555 119.322 526.432 118.789 526.164 118.387C525.896 117.985 525.49 117.774 524.944 117.755C524.566 117.742 524.244 117.825 523.977 118.005C523.713 118.185 523.512 118.437 523.372 118.761C523.236 119.081 523.161 119.449 523.146 119.867C523.131 120.287 523.181 120.664 523.294 120.996C523.411 121.329 523.593 121.594 523.839 121.792C524.089 121.99 524.398 122.095 524.765 122.108ZM531.752 117.131C532.329 117.151 532.784 117.31 533.117 117.607C533.449 117.904 533.676 118.262 533.797 118.68C533.918 119.095 533.971 119.516 533.956 119.944L533.845 123.137L532.882 123.104L532.983 120.21C533.005 119.59 532.901 119.076 532.673 118.668C532.448 118.26 532.054 118.046 531.49 118.027C530.998 118.01 530.604 118.164 530.307 118.489C530.014 118.811 529.855 119.298 529.833 119.95L529.726 122.993L528.764 122.96L528.965 117.184L529.821 117.213L529.795 117.957C530.023 117.676 530.302 117.464 530.631 117.322C530.965 117.18 531.338 117.116 531.752 117.131ZM542.009 123.422L537.484 123.264L537.753 115.563L538.705 115.596L538.467 122.394L542.04 122.518L542.009 123.422ZM543.705 120.858C543.724 121.462 543.877 121.931 544.165 122.266C544.457 122.601 544.868 122.778 545.4 122.796C545.778 122.81 546.11 122.734 546.398 122.569C546.69 122.404 546.921 122.161 547.093 121.838L547.997 122.186C547.754 122.684 547.404 123.066 546.945 123.332C546.485 123.598 545.974 123.722 545.411 123.702C544.847 123.682 544.356 123.54 543.937 123.276C543.521 123.011 543.204 122.647 542.984 122.182C542.769 121.717 542.671 121.187 542.692 120.592C542.714 119.968 542.847 119.428 543.091 118.973C543.339 118.514 543.676 118.167 544.102 117.932C544.532 117.693 545.025 117.584 545.581 117.603C546.134 117.622 546.605 117.764 546.996 118.027C547.39 118.287 547.686 118.653 547.884 119.124C548.082 119.591 548.17 120.143 548.148 120.777C548.144 120.881 548.139 120.959 548.134 121.012L543.705 120.858ZM545.583 118.46C545.066 118.442 544.653 118.572 544.343 118.85C544.034 119.129 543.835 119.543 543.748 120.093L547.171 120.213C547.093 119.079 546.564 118.494 545.583 118.46ZM553.736 119.018C553.805 119.184 553.849 119.368 553.867 119.569C553.885 119.766 553.889 119.996 553.88 120.26L553.755 123.833L552.91 123.803L552.942 122.905C552.457 123.594 551.731 123.923 550.765 123.889C550.348 123.874 549.994 123.785 549.704 123.621C549.413 123.454 549.197 123.238 549.057 122.972C548.916 122.707 548.851 122.415 548.862 122.098C548.892 121.246 549.384 120.697 550.339 120.452C550.62 120.387 550.941 120.332 551.303 120.288C551.665 120.243 552.099 120.196 552.604 120.146L552.948 120.109C552.95 119.642 552.844 119.295 552.631 119.07C552.418 118.841 552.065 118.718 551.573 118.701C551.209 118.689 550.894 118.761 550.628 118.92C550.366 119.075 550.179 119.322 550.067 119.661L549.172 119.356C549.33 118.844 549.614 118.454 550.027 118.187C550.444 117.916 550.973 117.791 551.615 117.814C552.146 117.832 552.594 117.944 552.958 118.15C553.325 118.352 553.585 118.641 553.736 119.018ZM550.937 123.097C551.269 123.109 551.563 123.06 551.821 122.951C552.078 122.839 552.289 122.685 552.453 122.491C552.617 122.293 552.726 122.072 552.781 121.828C552.821 121.708 552.849 121.573 552.865 121.424C552.884 121.275 552.899 121.107 552.909 120.922L552.646 120.945C552.141 120.995 551.752 121.037 551.479 121.07C551.211 121.104 550.964 121.149 550.741 121.205C550.464 121.281 550.24 121.391 550.071 121.535C549.905 121.679 549.818 121.876 549.809 122.126C549.803 122.293 549.839 122.45 549.916 122.595C549.993 122.737 550.118 122.854 550.289 122.946C550.461 123.037 550.677 123.088 550.937 123.097ZM559.383 116.318L560.341 116.351L560.072 124.053L559.221 124.023L559.244 123.371C559.018 123.624 558.75 123.816 558.442 123.948C558.134 124.077 557.79 124.134 557.408 124.121C556.88 124.102 556.425 123.954 556.042 123.677C555.663 123.396 555.376 123.022 555.181 122.554C554.991 122.084 554.906 121.558 554.926 120.976C554.946 120.399 555.068 119.884 555.291 119.431C555.517 118.975 555.829 118.621 556.227 118.371C556.629 118.121 557.091 118.005 557.616 118.023C557.969 118.036 558.286 118.106 558.567 118.233C558.852 118.361 559.095 118.539 559.298 118.768L559.383 116.318ZM557.556 123.253C558.116 123.273 558.544 123.089 558.839 122.704C559.138 122.318 559.299 121.793 559.322 121.13C559.346 120.467 559.223 119.934 558.955 119.532C558.687 119.13 558.28 118.919 557.735 118.9C557.357 118.887 557.035 118.971 556.768 119.15C556.504 119.33 556.303 119.582 556.163 119.906C556.027 120.226 555.951 120.595 555.937 121.012C555.922 121.432 555.971 121.809 556.085 122.141C556.202 122.474 556.383 122.739 556.63 122.937C556.88 123.135 557.189 123.24 557.556 123.253ZM563.747 124.337C563.291 124.321 562.888 124.239 562.54 124.091C562.192 123.943 561.912 123.737 561.7 123.473C561.487 123.208 561.356 122.895 561.304 122.533L562.283 122.411C562.35 122.732 562.522 122.987 562.797 123.179C563.072 123.371 563.418 123.474 563.836 123.488C564.228 123.502 564.539 123.433 564.769 123.28C565.003 123.124 565.125 122.903 565.135 122.618C565.141 122.447 565.107 122.312 565.031 122.213C564.96 122.114 564.815 122.018 564.597 121.925C564.379 121.828 564.026 121.705 563.539 121.556C563.027 121.399 562.629 121.244 562.345 121.091C562.061 120.935 561.86 120.76 561.742 120.566C561.624 120.373 561.57 120.136 561.58 119.854C561.591 119.519 561.694 119.228 561.888 118.981C562.083 118.731 562.35 118.542 562.69 118.415C563.03 118.284 563.42 118.226 563.858 118.241C564.293 118.257 564.681 118.341 565.022 118.496C565.367 118.647 565.64 118.855 565.841 119.119C566.046 119.38 566.162 119.678 566.19 120.015L565.21 120.157C565.175 119.842 565.027 119.589 564.766 119.398C564.508 119.207 564.173 119.104 563.759 119.089C563.524 119.081 563.314 119.108 563.13 119.169C562.949 119.227 562.807 119.315 562.703 119.433C562.599 119.547 562.544 119.682 562.539 119.839C562.534 119.985 562.572 120.108 562.654 120.207C562.74 120.307 562.897 120.405 563.126 120.502C563.355 120.596 563.699 120.71 564.158 120.844C564.671 120.994 565.069 121.149 565.352 121.308C565.636 121.468 565.836 121.652 565.954 121.86C566.075 122.067 566.131 122.323 566.12 122.626C566.107 122.997 566.003 123.314 565.808 123.579C565.614 123.84 565.341 124.035 564.99 124.166C564.639 124.297 564.225 124.353 563.747 124.337ZM570.225 118.474C570.803 118.495 571.258 118.653 571.59 118.95C571.923 119.248 572.149 119.605 572.271 120.024C572.392 120.439 572.445 120.86 572.43 121.288L572.318 124.481L571.356 124.447L571.457 121.554C571.478 120.933 571.375 120.419 571.146 120.011C570.921 119.604 570.527 119.39 569.964 119.37C569.472 119.353 569.077 119.507 568.78 119.832C568.487 120.154 568.329 120.641 568.306 121.294L568.2 124.337L567.237 124.303L567.506 116.602L568.362 116.631L568.269 119.3C568.496 119.019 568.775 118.808 569.105 118.666C569.438 118.524 569.812 118.46 570.225 118.474ZM574.768 124.566L573.816 124.533L574.018 118.757L574.97 118.79L574.768 124.566ZM574.525 117.88C574.35 117.874 574.204 117.81 574.087 117.688C573.974 117.563 573.92 117.413 573.926 117.238C573.932 117.063 573.996 116.919 574.118 116.806C574.243 116.689 574.393 116.633 574.568 116.639C574.746 116.646 574.892 116.711 575.006 116.837C575.123 116.959 575.178 117.107 575.172 117.282C575.166 117.456 575.1 117.602 574.975 117.719C574.853 117.833 574.703 117.886 574.525 117.88ZM579.238 118.778C579.762 118.797 580.214 118.945 580.594 119.222C580.977 119.5 581.263 119.874 581.454 120.344C581.648 120.812 581.735 121.334 581.715 121.912C581.695 122.493 581.572 123.012 581.345 123.468C581.122 123.921 580.81 124.274 580.408 124.528C580.01 124.778 579.548 124.894 579.02 124.876C578.667 124.863 578.35 124.793 578.069 124.666C577.788 124.534 577.546 124.353 577.343 124.121L577.235 127.223L576.278 127.189L576.569 118.846L577.419 118.876L577.397 119.523C577.623 119.27 577.891 119.079 578.199 118.951C578.507 118.822 578.853 118.765 579.238 118.778ZM578.933 124C579.3 124.012 579.613 123.929 579.873 123.749C580.137 123.569 580.336 123.317 580.473 122.993C580.612 122.67 580.69 122.297 580.704 121.877C580.719 121.459 580.668 121.086 580.551 120.757C580.437 120.425 580.254 120.16 580 119.962C579.75 119.764 579.436 119.658 579.058 119.645C578.512 119.626 578.092 119.808 577.797 120.19C577.501 120.572 577.342 121.095 577.319 121.758C577.296 122.422 577.418 122.956 577.686 123.362C577.957 123.767 578.373 123.98 578.933 124ZM585.88 124.954L584.928 124.921L585.197 117.219L586.149 117.253L586.031 120.649L590.085 120.79L590.203 117.394L591.155 117.427L590.886 125.129L589.934 125.096L590.053 121.694L585.999 121.553L585.88 124.954ZM596.994 120.528C597.063 120.695 597.107 120.879 597.125 121.079C597.143 121.276 597.147 121.507 597.138 121.77L597.013 125.343L596.168 125.314L596.2 124.415C595.715 125.105 594.989 125.433 594.023 125.399C593.606 125.385 593.252 125.296 592.962 125.132C592.671 124.965 592.455 124.748 592.315 124.483C592.174 124.217 592.109 123.926 592.12 123.609C592.15 122.756 592.642 122.208 593.597 121.963C593.878 121.898 594.199 121.843 594.561 121.798C594.923 121.754 595.357 121.706 595.862 121.656L596.206 121.62C596.208 121.152 596.102 120.806 595.889 120.581C595.676 120.352 595.323 120.229 594.831 120.212C594.467 120.199 594.152 120.272 593.886 120.431C593.624 120.586 593.437 120.833 593.325 121.171L592.43 120.867C592.587 120.355 592.872 119.965 593.285 119.697C593.702 119.426 594.231 119.302 594.873 119.324C595.404 119.343 595.852 119.455 596.216 119.66C596.583 119.863 596.843 120.152 596.994 120.528ZM594.195 124.608C594.527 124.619 594.821 124.571 595.079 124.462C595.336 124.349 595.547 124.196 595.711 124.002C595.875 123.804 595.984 123.583 596.039 123.339C596.079 123.219 596.107 123.084 596.123 122.934C596.142 122.785 596.157 122.618 596.167 122.433L595.904 122.456C595.399 122.506 595.01 122.548 594.737 122.581C594.469 122.614 594.222 122.659 593.999 122.716C593.722 122.792 593.498 122.902 593.329 123.046C593.163 123.19 593.076 123.387 593.067 123.636C593.061 123.804 593.097 123.961 593.174 124.106C593.251 124.248 593.376 124.365 593.547 124.456C593.719 124.548 593.935 124.598 594.195 124.608ZM601.387 119.563C601.964 119.583 602.419 119.741 602.752 120.039C603.084 120.336 603.311 120.694 603.432 121.112C603.553 121.527 603.606 121.948 603.591 122.376L603.48 125.569L602.517 125.535L602.618 122.642C602.64 122.021 602.536 121.507 602.308 121.099C602.083 120.692 601.688 120.478 601.125 120.458C600.633 120.441 600.239 120.595 599.942 120.92C599.648 121.242 599.49 121.729 599.467 122.382L599.361 125.425L598.398 125.392L598.6 119.615L599.456 119.645L599.43 120.389C599.658 120.107 599.936 119.896 600.266 119.754C600.6 119.612 600.973 119.548 601.387 119.563ZM609.055 118.053L610.013 118.086L609.744 125.788L608.893 125.758L608.916 125.106C608.69 125.358 608.422 125.551 608.114 125.683C607.806 125.811 607.462 125.869 607.08 125.855C606.552 125.837 606.097 125.689 605.714 125.411C605.335 125.13 605.048 124.756 604.853 124.289C604.663 123.818 604.578 123.292 604.598 122.711C604.618 122.133 604.74 121.618 604.963 121.165C605.189 120.709 605.501 120.356 605.899 120.106C606.301 119.856 606.763 119.74 607.288 119.758C607.641 119.77 607.958 119.84 608.239 119.968C608.524 120.096 608.767 120.274 608.97 120.502L609.055 118.053ZM607.228 124.988C607.788 125.007 608.216 124.824 608.511 124.438C608.81 124.052 608.971 123.528 608.994 122.865C609.018 122.201 608.895 121.669 608.627 121.267C608.359 120.865 607.952 120.654 607.407 120.635C607.029 120.622 606.707 120.705 606.44 120.885C606.176 121.065 605.975 121.317 605.835 121.64C605.699 121.96 605.623 122.329 605.609 122.746C605.594 123.167 605.643 123.544 605.757 123.876C605.874 124.209 606.055 124.474 606.302 124.672C606.552 124.869 606.861 124.975 607.228 124.988ZM615.712 121.916C616.094 122.093 616.387 122.35 616.59 122.685C616.796 123.021 616.891 123.403 616.876 123.831C616.861 124.276 616.754 124.662 616.558 124.987C616.361 125.312 616.086 125.559 615.734 125.729C615.385 125.896 614.977 125.971 614.51 125.954L611.242 125.84L611.511 118.138L614.512 118.243C614.957 118.259 615.341 118.365 615.663 118.562C615.988 118.759 616.232 119.015 616.396 119.332C616.564 119.648 616.641 119.986 616.629 120.347C616.616 120.696 616.529 121.009 616.365 121.285C616.206 121.558 615.988 121.768 615.712 121.916ZM612.443 119.07L612.362 121.386L614.389 121.457C614.617 121.465 614.826 121.424 615.014 121.334C615.203 121.241 615.354 121.107 615.467 120.932C615.581 120.754 615.642 120.548 615.65 120.312C615.657 120.095 615.612 119.899 615.515 119.724C615.418 119.549 615.278 119.41 615.096 119.308C614.917 119.205 614.709 119.15 614.47 119.141L612.443 119.07ZM614.36 125.039C614.645 125.049 614.902 125.006 615.13 124.91C615.362 124.811 615.546 124.666 615.681 124.474C615.816 124.283 615.889 124.055 615.898 123.791C615.907 123.534 615.856 123.299 615.746 123.084C615.635 122.87 615.477 122.698 615.271 122.57C615.065 122.441 614.828 122.372 614.561 122.363L612.33 122.285L612.237 124.964L614.36 125.039ZM620.32 126.318C619.753 126.298 619.264 126.152 618.852 125.881C618.444 125.606 618.135 125.235 617.927 124.767C617.718 124.296 617.625 123.762 617.645 123.167C617.666 122.568 617.799 122.042 618.043 121.59C618.287 121.138 618.624 120.793 619.054 120.554C619.484 120.312 619.977 120.201 620.533 120.22C621.1 120.24 621.589 120.386 622.001 120.657C622.413 120.929 622.723 121.298 622.931 121.766C623.14 122.234 623.234 122.766 623.213 123.361C623.192 123.964 623.059 124.493 622.815 124.948C622.574 125.4 622.239 125.748 621.809 125.99C621.38 126.228 620.883 126.337 620.32 126.318ZM620.352 125.414C620.933 125.434 621.38 125.257 621.693 124.882C622.009 124.504 622.179 123.985 622.202 123.326C622.226 122.659 622.092 122.131 621.802 121.743C621.513 121.351 621.079 121.145 620.501 121.124C619.917 121.104 619.468 121.281 619.155 121.656C618.845 122.03 618.679 122.546 618.656 123.202C618.633 123.869 618.766 124.4 619.056 124.796C619.349 125.188 619.781 125.394 620.352 125.414ZM626.744 126.542C626.177 126.522 625.688 126.377 625.276 126.105C624.868 125.83 624.56 125.459 624.351 124.991C624.143 124.52 624.049 123.986 624.07 123.391C624.091 122.792 624.223 122.266 624.468 121.814C624.712 121.362 625.049 121.017 625.478 120.779C625.908 120.537 626.401 120.425 626.957 120.445C627.524 120.465 628.014 120.61 628.425 120.882C628.837 121.153 629.147 121.523 629.356 121.99C629.565 122.458 629.658 122.99 629.638 123.585C629.617 124.188 629.484 124.717 629.239 125.173C628.999 125.625 628.664 125.972 628.234 126.214C627.804 126.452 627.308 126.562 626.744 126.542ZM626.776 125.638C627.357 125.658 627.804 125.481 628.117 125.107C628.434 124.729 628.604 124.21 628.627 123.55C628.65 122.883 628.517 122.356 628.227 121.967C627.937 121.575 627.503 121.369 626.926 121.349C626.341 121.328 625.892 121.505 625.579 121.88C625.27 122.255 625.104 122.77 625.081 123.426C625.057 124.093 625.191 124.624 625.48 125.02C625.774 125.412 626.205 125.618 626.776 125.638ZM635.448 126.685L634.356 126.647L632.28 123.838L631.7 124.37L631.623 126.552L630.709 126.52L630.983 118.818L631.892 118.85L631.741 123.188L634.344 120.863L635.5 120.904L632.917 123.255L635.448 126.685Z" fill="black"/>
<path d="M351.308 43.6922L351.735 47.1021L340.573 48.501L340.145 45.0912L351.308 43.6922ZM334.018 52.2025L338.128 51.6875C338.566 53.4312 339.315 54.7105 340.377 55.5253C341.44 56.34 342.976 56.6215 344.986 56.3696C346.469 56.1836 347.634 55.6366 348.48 54.7285C349.339 53.8189 349.916 52.6589 350.213 51.2484C350.511 49.838 350.548 48.296 350.326 46.6224L349.989 43.9304C349.772 42.0984 349.316 40.5513 348.624 39.2892C347.941 38.0137 347.052 37.074 345.955 36.4701C344.871 35.8647 343.611 35.658 342.177 35.8499C340.883 35.9999 339.846 36.3487 339.064 36.8963C338.292 37.4305 337.737 38.1381 337.397 39.0191C337.07 39.8986 336.907 40.9277 336.909 42.1062L332.799 42.6213C332.763 40.8759 333.055 39.2777 333.675 37.8268C334.294 36.3639 335.266 35.1544 336.593 34.1983C337.929 33.2287 339.645 32.6127 341.739 32.3503C343.952 32.0729 345.925 32.3482 347.657 33.1762C349.4 33.9908 350.83 35.2698 351.948 37.0134C353.064 38.7449 353.773 40.8617 354.074 43.3638L354.423 46.1455C354.748 48.6446 354.589 50.8701 353.947 52.8221C353.316 54.7726 352.275 56.3553 350.823 57.5702C349.37 58.7731 347.567 59.5095 345.413 59.7794C343.271 60.0478 341.417 59.8914 339.849 59.3101C338.28 58.7168 337.011 57.8064 336.043 56.5788C335.074 55.3392 334.399 53.8805 334.018 52.2025ZM369.709 51.4666L374.278 35.4179L377.634 34.9973L371.767 56.112L368.86 56.4764L358.126 37.4421L361.446 37.0261L369.709 51.4666ZM360.351 37.1632L362.866 57.2276L359.079 57.7022L356.565 37.6378L360.351 37.1632ZM377.851 55.3496L375.337 35.2852L379.106 34.8129L381.62 54.8773L377.851 55.3496ZM393.822 53.7674C391.943 54.0028 390.244 53.7782 388.725 53.0937C387.217 52.4077 385.977 51.3358 385.004 49.8779C384.043 48.4184 383.434 46.6598 383.176 44.6019C382.915 42.5201 383.07 40.6535 383.641 39.0022C384.222 37.3374 385.159 35.9865 386.451 34.9497C387.755 33.9113 389.346 33.2744 391.224 33.039C393.114 32.8021 394.814 33.0267 396.321 33.7127C397.829 34.3987 399.07 35.4766 400.044 36.9465C401.017 38.4044 401.634 40.1743 401.894 42.2561C402.152 44.314 401.99 46.1693 401.407 47.8222C400.824 49.475 399.887 50.8198 398.595 51.8567C397.303 52.8936 395.712 53.5305 393.822 53.7674ZM393.41 50.4831C394.643 50.3287 395.619 49.8782 396.34 49.1317C397.06 48.3851 397.545 47.4555 397.795 46.3426C398.055 45.2164 398.105 44.0191 397.946 42.7509C397.784 41.4587 397.438 40.299 396.909 39.2717C396.391 38.2429 395.691 37.4556 394.808 36.91C393.925 36.3644 392.868 36.1688 391.636 36.3232C390.415 36.4762 389.445 36.9259 388.724 37.6725C388.015 38.4175 387.531 39.3532 387.271 40.4794C387.011 41.6057 386.962 42.8149 387.124 44.1071C387.283 45.3753 387.628 46.5231 388.157 47.5504C388.686 48.5658 389.385 49.347 390.256 49.8941C391.138 50.4397 392.19 50.6361 393.41 50.4831ZM419.773 29.7164L422.287 49.7808L405.956 51.8275L403.441 31.7631L407.264 31.284L409.356 47.9744L418.096 46.8791L416.004 30.1887L419.773 29.7164ZM424.848 46.2152L426.058 55.8704L422.2 56.354L420.99 46.6987L424.848 46.2152ZM430.77 43.1398L437.791 27.4583L441.991 26.932L444.505 46.9963L440.701 47.4732L438.872 32.8825L431.889 48.5775L427.671 49.106L425.157 29.0417L428.944 28.5671L430.77 43.1398ZM456.707 45.8865C454.828 46.1219 453.129 45.8973 451.61 45.2128C450.102 44.5268 448.862 43.4549 447.889 41.9969C446.928 40.5375 446.319 38.7789 446.061 36.721C445.8 34.6392 445.955 32.7726 446.526 31.1213C447.107 29.4565 448.044 28.1056 449.336 27.0688C450.64 26.0304 452.231 25.3935 454.109 25.1581C455.999 24.9212 457.699 25.1457 459.206 25.8317C460.714 26.5178 461.955 27.5957 462.929 29.0656C463.902 30.5235 464.519 32.2934 464.779 34.3752C465.037 36.433 464.875 38.2884 464.292 39.9412C463.709 41.5941 462.772 42.9389 461.48 43.9758C460.188 45.0127 458.597 45.6496 456.707 45.8865ZM456.295 42.6022C457.528 42.4478 458.504 41.9973 459.225 41.2508C459.945 40.5042 460.43 39.5745 460.68 38.4617C460.94 37.3355 460.99 36.1382 460.831 34.87C460.669 33.5778 460.323 32.4181 459.794 31.3908C459.276 30.3619 458.576 29.5747 457.693 29.0291C456.81 28.4835 455.753 28.2879 454.521 28.4423C453.3 28.5953 452.33 29.045 451.609 29.7916C450.9 30.5366 450.416 31.4723 450.156 32.5985C449.896 33.7248 449.847 34.934 450.009 36.2262C450.168 37.4944 450.513 38.6422 451.042 39.6695C451.571 40.6849 452.27 41.4661 453.141 42.0132C454.023 42.5588 455.075 42.7552 456.295 42.6022ZM480.94 30.5271L481.363 33.901L470.505 35.2617L470.082 31.8878L480.94 30.5271ZM470.113 23.4076L472.628 43.472L468.841 43.9465L466.326 23.8822L470.113 23.4076ZM482.622 21.84L485.136 41.9043L481.332 42.3812L478.817 22.3168L482.622 21.84ZM494.738 41.1385C493.47 41.2975 492.292 41.2081 491.205 40.8704C490.116 40.5208 489.215 39.9288 488.503 39.0945C487.791 38.2602 487.353 37.191 487.189 35.8868C487.047 34.7502 487.146 33.796 487.487 33.0241C487.838 32.2388 488.358 31.5843 489.046 31.0607C489.733 30.537 490.518 30.1105 491.401 29.7812C492.283 29.4518 493.195 29.1674 494.137 28.9278C495.329 28.6447 496.29 28.4089 497.02 28.2202C497.75 28.0315 498.269 27.8145 498.579 27.5691C498.899 27.3103 499.03 26.9475 498.971 26.4809L498.96 26.3912C498.818 25.2546 498.384 24.4157 497.66 23.8745C496.948 23.3318 495.964 23.1392 494.708 23.2966C493.404 23.4601 492.405 23.8769 491.711 24.5472C491.028 25.204 490.587 25.9093 490.39 26.6631L486.605 26.2807C486.895 25.0049 487.412 23.9436 488.157 23.0968C488.912 22.2366 489.812 21.5648 490.857 21.0813C491.915 20.5964 493.041 20.279 494.238 20.1291C495.039 20.0286 495.901 20.0179 496.822 20.0968C497.742 20.1638 498.628 20.3991 499.481 20.8027C500.344 21.1928 501.085 21.8169 501.702 22.6752C502.32 23.5335 502.721 24.6925 502.904 26.1521L504.573 39.4685L500.75 39.9476L500.406 37.2018L500.262 37.2198C500.085 37.7403 499.769 38.2781 499.316 38.8331C498.875 39.3866 498.28 39.8744 497.531 40.2964C496.782 40.7184 495.851 40.9991 494.738 41.1385ZM495.19 37.9101C496.279 37.7737 497.18 37.4481 497.893 36.9334C498.605 36.4067 499.121 35.7709 499.441 35.026C499.76 34.281 499.872 33.5197 499.774 32.7421L499.448 30.1398C499.321 30.2894 499.067 30.4488 498.688 30.6179C498.308 30.787 497.872 30.9449 497.38 31.0917C496.888 31.2384 496.407 31.3776 495.937 31.5094C495.466 31.6292 495.072 31.7273 494.753 31.8037C494.013 32.0058 493.346 32.2595 492.752 32.5648C492.157 32.8581 491.695 33.2442 491.366 33.7229C491.048 34.1881 490.932 34.7677 491.019 35.4616C491.14 36.4307 491.591 37.1156 492.37 37.5162C493.149 37.9167 494.089 38.0481 495.19 37.9101ZM506.726 39.1987L506.285 35.8269L506.985 35.7392C507.738 35.6328 508.302 35.3372 508.679 34.8525C509.066 34.3544 509.297 33.5295 509.371 32.3778C509.458 31.2247 509.408 29.6147 509.222 27.5478L508.465 18.6013L522.446 16.8492L524.96 36.9135L521.137 37.3926L519.046 20.7022L512.477 21.5254L513.011 28.4036C513.146 30.0637 513.165 31.5256 513.069 32.7894C512.972 34.0533 512.73 35.1287 512.343 36.0157C511.954 36.8908 511.403 37.5797 510.688 38.0824C509.973 38.5852 509.065 38.9055 507.965 39.0435L506.726 39.1987ZM529.954 22.9444L535.787 22.2135C538.226 21.8956 540.18 22.2644 541.649 23.3199C543.13 24.3738 543.997 25.8631 544.251 27.7879C544.408 29.0442 544.25 30.2063 543.776 31.2743C543.302 32.3424 542.534 33.2407 541.471 33.9694C540.406 34.6862 539.06 35.1465 537.433 35.3504L528.675 36.448L526.16 16.3836L529.947 15.9091L532.039 32.5994L537.01 31.9764C538.123 31.837 539.002 31.4351 539.648 30.7709C540.292 30.0947 540.563 29.2952 540.459 28.3724C540.326 27.4048 539.862 26.6609 539.068 26.1407C538.273 25.6204 537.321 25.436 536.209 25.5874L530.377 26.3184L529.954 22.9444ZM559.977 20.6219L560.4 23.9959L549.542 25.3566L549.119 21.9826L559.977 20.6219ZM549.15 13.5025L551.665 33.5669L547.878 34.0414L545.363 13.9771L549.15 13.5025ZM561.659 11.9349L564.173 31.9992L560.369 32.476L557.854 12.4117L561.659 11.9349ZM569.185 18.0279L575.018 17.2969C577.457 16.979 579.411 17.3478 580.88 18.4033C582.361 19.4572 583.229 20.9466 583.482 22.8713C583.639 24.1276 583.481 25.2898 583.007 26.3578C582.534 27.4258 581.765 28.3241 580.702 29.0529C579.637 29.7696 578.291 30.2299 576.664 30.4338L567.906 31.5314L565.392 11.4671L569.179 10.9925L571.27 27.6829L576.241 27.0599C577.354 26.9204 578.233 26.5186 578.879 25.8543C579.524 25.1781 579.794 24.3786 579.691 23.4558C579.557 22.4882 579.093 21.7443 578.299 21.2241C577.505 20.7039 576.552 20.5195 575.441 20.6709L569.608 21.4018L569.185 18.0279ZM587.163 29.1181L584.649 9.05375L588.525 8.56794L591.04 28.6323L587.163 29.1181ZM597.853 22.2005L604.874 6.519L609.074 5.9927L611.588 26.0571L607.784 26.5339L605.955 11.9432L598.972 27.6382L594.755 28.1667L592.24 8.10238L596.027 7.62781L597.853 22.2005ZM600.329 4.71898C598.618 4.93339 597.171 4.64071 595.99 3.84093C594.806 3.02919 594.12 1.86956 593.931 0.362043L597.144 -0.0405491C597.24 0.725174 597.551 1.31809 598.078 1.73819C598.603 2.14632 599.248 2.30241 600.014 2.20645C600.78 2.11048 601.366 1.79996 601.775 1.27487C602.181 0.737813 602.337 0.0864245 602.241 -0.679299L605.453 -1.08189C605.642 0.425627 605.263 1.7187 604.317 2.79734C603.369 3.86402 602.04 4.50456 600.329 4.71898ZM339.987 111.316L338.84 102.164L340.455 101.961C340.826 101.526 341.128 101.026 341.361 100.462C341.592 99.8865 341.758 99.2216 341.858 98.4678C341.969 97.7005 342.035 96.8233 342.057 95.8362C342.079 94.8491 342.065 93.7147 342.013 92.433L341.701 84.8525L355.323 83.1455L357.414 99.8358L360.501 99.449L361.648 108.602L357.826 109.081L357.101 103.302L343.139 105.052L343.863 110.831L339.987 111.316ZM344.654 101.435L353.61 100.313L351.936 86.9603L345.601 87.7543L345.692 91.9719C345.778 94.1121 345.762 95.9734 345.645 97.5558C345.538 99.1247 345.207 100.418 344.654 101.435ZM366.302 96.5711L373.323 80.8896L377.523 80.3633L380.037 100.428L376.233 100.904L374.404 86.3138L367.421 102.009L363.203 102.537L360.689 82.473L364.476 81.9984L366.302 96.5711ZM382.692 94.6994L386.658 94.2023C386.833 95.0188 387.289 95.6057 388.027 95.9629C388.776 96.3187 389.708 96.4328 390.822 96.3053C391.934 96.1539 392.854 95.7894 393.584 95.2119C394.313 94.6343 394.619 93.8244 394.5 92.782C394.425 92.1837 394.204 91.6768 393.836 91.2611C393.48 90.844 393.011 90.5443 392.429 90.362C391.858 90.1662 391.208 90.1201 390.479 90.2235L387.213 90.6328L386.829 87.564L390.095 87.1546C391.184 87.0182 391.972 86.6702 392.461 86.1107C392.949 85.5392 393.144 84.8706 393.048 84.1049C392.945 83.2793 392.569 82.652 391.919 82.223C391.27 81.794 390.42 81.6514 389.368 81.7953C388.326 81.9138 387.482 82.2566 386.836 82.8236C386.189 83.3787 385.893 84.0294 385.95 84.7757L382.002 85.2705C381.887 84.1548 382.099 83.1317 382.638 82.2013C383.19 81.2693 383.999 80.4996 385.065 79.892C386.13 79.2725 387.374 78.8735 388.798 78.6951C390.281 78.5092 391.597 78.5873 392.746 78.9294C393.895 79.2715 394.822 79.8299 395.526 80.6044C396.229 81.3669 396.644 82.2993 396.77 83.4015C396.92 84.5007 396.704 85.4453 396.123 86.2351C395.553 87.0235 394.761 87.6332 393.745 88.0643L393.77 88.2617C394.555 88.2241 395.273 88.3771 395.924 88.7209C396.585 89.0512 397.126 89.5424 397.548 90.1943C397.981 90.8328 398.252 91.5888 398.361 92.4622C398.514 93.6825 398.306 94.7841 397.736 95.7669C397.179 96.7482 396.339 97.5584 395.216 98.1974C394.091 98.8244 392.764 99.2398 391.234 99.4437C389.749 99.6177 388.391 99.5448 387.16 99.2252C385.941 98.904 384.937 98.3614 384.149 97.5974C383.359 96.8214 382.873 95.8554 382.692 94.6994ZM406.652 97.5297C405.384 97.6886 404.206 97.5992 403.119 97.2616C402.03 96.912 401.129 96.32 400.417 95.4856C399.705 94.6513 399.267 93.5821 399.104 92.278C398.961 91.1414 399.06 90.1871 399.401 89.4153C399.752 88.63 400.272 87.9755 400.96 87.4518C401.648 86.9281 402.433 86.5016 403.315 86.1723C404.197 85.843 405.11 85.5585 406.052 85.3189C407.244 85.0359 408.204 84.8 408.934 84.6113C409.664 84.4227 410.184 84.2056 410.493 83.9602C410.813 83.7014 410.944 83.3387 410.885 82.8721L410.874 82.7823C410.732 81.6457 410.299 80.8068 409.574 80.2656C408.862 79.7229 407.878 79.5303 406.622 79.6878C405.318 79.8512 404.319 80.268 403.625 80.9383C402.942 81.5951 402.502 82.3004 402.304 83.0543L398.52 82.6718C398.809 81.396 399.327 80.3347 400.071 79.4879C400.826 78.6277 401.726 77.9559 402.772 77.4725C403.829 76.9876 404.956 76.6701 406.152 76.5202C406.954 76.4197 407.815 76.409 408.736 76.488C409.656 76.555 410.543 76.7903 411.395 77.1938C412.258 77.5839 412.999 78.2081 413.617 79.0664C414.235 79.9246 414.635 81.0836 414.818 82.5433L416.487 95.8597L412.664 96.3387L412.32 93.5929L412.177 93.6109C411.999 94.1314 411.683 94.6692 411.23 95.2242C410.789 95.7777 410.194 96.2655 409.445 96.6875C408.696 97.1095 407.765 97.3902 406.652 97.5297ZM407.104 94.3012C408.193 94.1648 409.094 93.8392 409.807 93.3245C410.519 92.7978 411.035 92.162 411.355 91.4171C411.675 90.6722 411.786 89.9109 411.688 89.1332L411.362 86.5309C411.235 86.6805 410.982 86.8399 410.602 87.009C410.222 87.1781 409.786 87.3361 409.294 87.4828C408.802 87.6295 408.321 87.7688 407.852 87.9005C407.381 88.0203 406.986 88.1184 406.667 88.1948C405.927 88.3969 405.26 88.6507 404.666 88.9559C404.071 89.2493 403.609 89.6353 403.28 90.114C402.962 90.5792 402.846 91.1588 402.933 91.8528C403.055 92.8219 403.505 93.5067 404.284 93.9073C405.064 94.3079 406.004 94.4392 407.104 94.3012ZM423.336 89.4234L430.358 73.7419L434.557 73.2156L437.072 93.2799L433.267 93.7568L431.438 79.1661L424.455 94.8611L420.238 95.3896L417.723 75.3253L421.51 74.8507L423.336 89.4234ZM425.812 71.9419C424.101 72.1563 422.655 71.8636 421.473 71.0638C420.29 70.2521 419.603 69.0925 419.415 67.5849L422.627 67.1823C422.723 67.9481 423.034 68.541 423.561 68.9611C424.086 69.3692 424.731 69.5253 425.497 69.4293C426.263 69.3334 426.85 69.0228 427.258 68.4978C427.664 67.9607 427.82 67.3093 427.724 66.5436L430.936 66.141C431.125 67.6485 430.747 68.9416 429.8 70.0202C428.852 71.0869 427.523 71.7275 425.812 71.9419ZM452.904 79.3926L453.326 82.7666L442.469 84.1273L442.046 80.7534L452.904 79.3926ZM442.077 72.2732L444.591 92.3376L440.805 92.8121L438.29 72.7478L442.077 72.2732ZM454.586 70.7056L457.1 90.7699L453.295 91.2467L450.781 71.1824L454.586 70.7056Z" fill="#4200FF"/>
<rect x="328.124" y="25.7146" width="283.167" height="88.0782" transform="rotate(-7.14321 328.124 25.7146)" stroke="#4200FF" stroke-width="0.823161"/>
<rect x="618.207" y="76.4685" width="4.1158" height="4.1158" transform="rotate(-7.14321 618.207 76.4685)" fill="white" stroke="#4200FF" stroke-width="0.823161"/>
<rect x="336.422" y="111.782" width="4.1158" height="4.1158" transform="rotate(-7.14321 336.422 111.782)" fill="white" stroke="#4200FF" stroke-width="0.823161"/>
<rect x="325.366" y="23.5716" width="4.1158" height="4.1158" transform="rotate(-7.14321 325.366 23.5716)" fill="white" stroke="#4200FF" stroke-width="0.823161"/>
<line x1="334.567" y1="60.5794" x2="611.453" y2="25.8794" stroke="#4200FF" stroke-width="0.823161"/>
<line x1="340.094" y1="104.685" x2="458.526" y2="89.8432" stroke="#4200FF" stroke-width="0.823161"/>
<g clip-path="url(#clip2_3294_3661)">
<rect x="149.64" y="42.6826" width="70.2501" height="14.9849" rx="7.49247" fill="#4200FF"/>
<path d="M156.768 53.1753H155.982L158.256 46.9832H159.03L161.304 53.1753H160.518L158.667 47.9628H158.619L156.768 53.1753ZM157.059 50.7565H160.227V51.4217H157.059V50.7565ZM163.538 53.2841C163.244 53.2841 162.977 53.2287 162.737 53.1178C162.497 53.005 162.306 52.8427 162.165 52.6311C162.024 52.4174 161.954 52.1594 161.954 51.857C161.954 51.591 162.006 51.3753 162.111 51.21C162.216 51.0427 162.356 50.9117 162.531 50.817C162.707 50.7222 162.9 50.6517 163.112 50.6053C163.325 50.5569 163.54 50.5186 163.756 50.4904C164.038 50.4541 164.267 50.4269 164.442 50.4088C164.619 50.3886 164.748 50.3554 164.829 50.309C164.912 50.2627 164.953 50.182 164.953 50.0671V50.043C164.953 49.7446 164.871 49.5128 164.708 49.3475C164.547 49.1823 164.302 49.0996 163.973 49.0996C163.633 49.0996 163.366 49.1742 163.172 49.3234C162.979 49.4725 162.843 49.6318 162.764 49.8011L162.087 49.5592C162.208 49.277 162.369 49.0573 162.571 48.9001C162.774 48.7408 162.996 48.63 163.236 48.5675C163.478 48.503 163.715 48.4707 163.949 48.4707C164.098 48.4707 164.27 48.4889 164.463 48.5252C164.659 48.5594 164.847 48.631 165.029 48.7398C165.212 48.8487 165.364 49.0129 165.485 49.2327C165.606 49.4524 165.667 49.7466 165.667 50.1155V53.1753H164.953V52.5464H164.917C164.868 52.6472 164.788 52.755 164.675 52.8699C164.562 52.9848 164.412 53.0826 164.224 53.1632C164.037 53.2438 163.808 53.2841 163.538 53.2841ZM163.647 52.6432C163.929 52.6432 164.167 52.5877 164.36 52.4769C164.556 52.366 164.703 52.2229 164.802 52.0475C164.903 51.8722 164.953 51.6877 164.953 51.4942V50.8412C164.923 50.8774 164.856 50.9107 164.754 50.9409C164.653 50.9691 164.536 50.9943 164.403 51.0165C164.272 51.0367 164.144 51.0548 164.019 51.0709C163.896 51.085 163.796 51.0971 163.719 51.1072C163.534 51.1314 163.361 51.1707 163.199 51.2251C163.04 51.2775 162.911 51.3572 162.812 51.464C162.716 51.5688 162.667 51.7119 162.667 51.8933C162.667 52.1413 162.759 52.3287 162.942 52.4557C163.128 52.5807 163.363 52.6432 163.647 52.6432ZM166.969 54.9168V48.5312H167.658V49.2689H167.743C167.795 49.1883 167.868 49.0855 167.961 48.9605C168.055 48.8336 168.19 48.7207 168.366 48.6219C168.543 48.5211 168.783 48.4707 169.085 48.4707C169.476 48.4707 169.821 48.5685 170.119 48.764C170.418 48.9595 170.651 49.2367 170.818 49.5955C170.985 49.9543 171.069 50.3776 171.069 50.8653C171.069 51.3572 170.985 51.7835 170.818 52.1443C170.651 52.5031 170.419 52.7812 170.122 52.9788C169.826 53.1743 169.485 53.272 169.098 53.272C168.799 53.272 168.56 53.2227 168.381 53.1239C168.202 53.0231 168.063 52.9092 167.967 52.7822C167.87 52.6532 167.795 52.5464 167.743 52.4617H167.683V54.9168H166.969ZM167.67 50.8532C167.67 51.204 167.722 51.5134 167.825 51.7815C167.927 52.0475 168.078 52.2562 168.275 52.4073C168.473 52.5565 168.715 52.6311 169.001 52.6311C169.299 52.6311 169.548 52.5525 169.748 52.3952C169.949 52.236 170.1 52.0223 170.201 51.7542C170.304 51.4842 170.355 51.1838 170.355 50.8532C170.355 50.5267 170.305 50.2324 170.204 49.9704C170.105 49.7063 169.955 49.4977 169.754 49.3445C169.554 49.1893 169.303 49.1117 169.001 49.1117C168.711 49.1117 168.467 49.1853 168.269 49.3324C168.072 49.4776 167.922 49.6811 167.822 49.9432C167.721 50.2032 167.67 50.5066 167.67 50.8532ZM174.044 53.272C173.625 53.272 173.257 53.1723 172.94 52.9727C172.626 52.7732 172.38 52.494 172.203 52.1352C172.027 51.7764 171.94 51.3572 171.94 50.8774C171.94 50.3937 172.027 49.9714 172.203 49.6106C172.38 49.2498 172.626 48.9696 172.94 48.7701C173.257 48.5705 173.625 48.4707 174.044 48.4707C174.463 48.4707 174.83 48.5705 175.145 48.7701C175.461 48.9696 175.707 49.2498 175.882 49.6106C176.06 49.9714 176.148 50.3937 176.148 50.8774C176.148 51.3572 176.06 51.7764 175.882 52.1352C175.707 52.494 175.461 52.7732 175.145 52.9727C174.83 53.1723 174.463 53.272 174.044 53.272ZM174.044 52.6311C174.362 52.6311 174.624 52.5494 174.83 52.3862C175.036 52.2229 175.188 52.0082 175.287 51.7422C175.385 51.4761 175.435 51.1878 175.435 50.8774C175.435 50.567 175.385 50.2778 175.287 50.0097C175.188 49.7416 175.036 49.5249 174.83 49.3596C174.624 49.1944 174.362 49.1117 174.044 49.1117C173.725 49.1117 173.463 49.1944 173.258 49.3596C173.052 49.5249 172.9 49.7416 172.801 50.0097C172.703 50.2778 172.653 50.567 172.653 50.8774C172.653 51.1878 172.703 51.4761 172.801 51.7422C172.9 52.0082 173.052 52.2229 173.258 52.3862C173.463 52.5494 173.725 52.6311 174.044 52.6311ZM180.346 50.5267V51.1919H177.782V50.5267H180.346ZM177.951 48.5312V53.1753H177.238V48.5312H177.951ZM180.89 48.5312V53.1753H180.176V48.5312H180.89ZM185.011 53.26V52.5585H185.398C185.547 52.5585 185.672 52.5293 185.773 52.4708C185.876 52.4124 185.96 52.3368 186.027 52.2441C186.095 52.1513 186.152 52.0546 186.196 51.9538L186.293 51.724L184.152 46.9832H184.963L186.668 50.8291L188.228 46.9832H189.026L186.885 52.1715C186.801 52.365 186.704 52.5444 186.595 52.7097C186.488 52.875 186.342 53.008 186.157 53.1088C185.973 53.2096 185.724 53.26 185.41 53.26H185.011ZM191.13 53.272C190.711 53.272 190.343 53.1723 190.027 52.9727C189.712 52.7732 189.467 52.494 189.289 52.1352C189.114 51.7764 189.026 51.3572 189.026 50.8774C189.026 50.3937 189.114 49.9714 189.289 49.6106C189.467 49.2498 189.712 48.9696 190.027 48.7701C190.343 48.5705 190.711 48.4707 191.13 48.4707C191.55 48.4707 191.917 48.5705 192.231 48.7701C192.547 48.9696 192.793 49.2498 192.969 49.6106C193.146 49.9714 193.235 50.3937 193.235 50.8774C193.235 51.3572 193.146 51.7764 192.969 52.1352C192.793 52.494 192.547 52.7732 192.231 52.9727C191.917 53.1723 191.55 53.272 191.13 53.272ZM191.13 52.6311C191.449 52.6311 191.711 52.5494 191.917 52.3862C192.122 52.2229 192.274 52.0082 192.373 51.7422C192.472 51.4761 192.521 51.1878 192.521 50.8774C192.521 50.567 192.472 50.2778 192.373 50.0097C192.274 49.7416 192.122 49.5249 191.917 49.3596C191.711 49.1944 191.449 49.1117 191.13 49.1117C190.812 49.1117 190.55 49.1944 190.344 49.3596C190.139 49.5249 189.987 49.7416 189.888 50.0097C189.789 50.2778 189.74 50.567 189.74 50.8774C189.74 51.1878 189.789 51.4761 189.888 51.7422C189.987 52.0082 190.139 52.2229 190.344 52.3862C190.55 52.5494 190.812 52.6311 191.13 52.6311ZM193.913 53.1753V52.5101H194.082C194.221 52.5101 194.337 52.4829 194.43 52.4285C194.523 52.3721 194.597 52.2743 194.654 52.1352C194.712 51.9941 194.756 51.7986 194.787 51.5487C194.819 51.2967 194.842 50.9762 194.856 50.5872L194.941 48.5312H198.037V53.1753H197.323V49.1964H195.618L195.546 50.8532C195.529 51.2342 195.495 51.5698 195.443 51.8601C195.392 52.1483 195.315 52.3902 195.21 52.5857C195.107 52.7812 194.97 52.9284 194.799 53.0271C194.627 53.1259 194.413 53.1753 194.155 53.1753H193.913ZM198.714 49.1964V48.5312H202.487V49.1964H200.964V53.1753H200.25V49.1964H198.714ZM205.234 53.272C204.787 53.272 204.401 53.1733 204.076 52.9757C203.754 52.7762 203.505 52.498 203.33 52.1413C203.156 51.7825 203.07 51.3652 203.07 50.8895C203.07 50.4138 203.156 49.9946 203.33 49.6318C203.505 49.2669 203.749 48.9827 204.061 48.7791C204.376 48.5735 204.743 48.4707 205.162 48.4707C205.404 48.4707 205.643 48.511 205.878 48.5917C206.114 48.6723 206.329 48.8033 206.522 48.9847C206.716 49.1641 206.87 49.402 206.985 49.6983C207.1 49.9946 207.157 50.3594 207.157 50.7928V51.0951H203.577V50.4783H206.432C206.432 50.2163 206.379 49.9825 206.274 49.7769C206.172 49.5713 206.024 49.409 205.833 49.2901C205.644 49.1712 205.42 49.1117 205.162 49.1117C204.878 49.1117 204.632 49.1823 204.424 49.3234C204.218 49.4624 204.06 49.6438 203.949 49.8676C203.838 50.0913 203.783 50.3312 203.783 50.5872V50.9984C203.783 51.3491 203.844 51.6464 203.964 51.8903C204.087 52.1322 204.258 52.3166 204.475 52.4436C204.693 52.5686 204.946 52.6311 205.234 52.6311C205.422 52.6311 205.591 52.6049 205.742 52.5525C205.895 52.498 206.028 52.4174 206.138 52.3106C206.249 52.2017 206.335 52.0667 206.395 51.9054L207.085 52.0989C207.012 52.3327 206.89 52.5383 206.719 52.7157C206.548 52.8911 206.336 53.0281 206.084 53.1269C205.832 53.2237 205.549 53.272 205.234 53.272ZM208.243 54.9168V48.5312H208.932V49.2689H209.017C209.069 49.1883 209.142 49.0855 209.234 48.9605C209.329 48.8336 209.464 48.7207 209.64 48.6219C209.817 48.5211 210.057 48.4707 210.359 48.4707C210.75 48.4707 211.095 48.5685 211.393 48.764C211.692 48.9595 211.924 49.2367 212.092 49.5955C212.259 49.9543 212.343 50.3776 212.343 50.8653C212.343 51.3572 212.259 51.7835 212.092 52.1443C211.924 52.5031 211.693 52.7812 211.396 52.9788C211.1 53.1743 210.758 53.272 210.371 53.272C210.073 53.272 209.834 53.2227 209.655 53.1239C209.475 53.0231 209.337 52.9092 209.24 52.7822C209.144 52.6532 209.069 52.5464 209.017 52.4617H208.956V54.9168H208.243ZM208.944 50.8532C208.944 51.204 208.996 51.5134 209.098 51.7815C209.201 52.0475 209.351 52.2562 209.549 52.4073C209.746 52.5565 209.988 52.6311 210.275 52.6311C210.573 52.6311 210.822 52.5525 211.021 52.3952C211.223 52.236 211.374 52.0223 211.475 51.7542C211.578 51.4842 211.629 51.1838 211.629 50.8532C211.629 50.5267 211.579 50.2324 211.478 49.9704C211.379 49.7063 211.229 49.4977 211.027 49.3445C210.828 49.1893 210.577 49.1117 210.275 49.1117C209.984 49.1117 209.74 49.1853 209.543 49.3324C209.345 49.4776 209.196 49.6811 209.095 49.9432C208.995 50.2032 208.944 50.5066 208.944 50.8532Z" fill="white"/>
<path d="M134.789 24.8487L151.659 31.3324C152.577 31.6853 152.515 33.0044 151.568 33.2699L144.562 35.2337C144.219 35.3299 143.95 35.5983 143.854 35.9417L141.89 42.9478C141.625 43.8948 140.306 43.9566 139.953 43.0386L133.469 26.169C133.152 25.3428 133.963 24.5312 134.789 24.8487Z" fill="#4200FF"/>
</g>
</g>
<defs>
<clipPath id="clip0_3294_3661">
<rect x="0.827148" y="0.915039" width="654" height="276" rx="15" fill="white"/>
</clipPath>
<clipPath id="clip1_3294_3661">
<rect x="-11.0332" y="37.2856" width="165.6" height="71.6004" rx="7.4001" transform="rotate(12.1423 -11.0332 37.2856)" fill="white"/>
</clipPath>
<clipPath id="clip2_3294_3661">
<rect width="93.4067" height="40.5783" fill="white" transform="translate(125.906 17.2856)"/>
</clipPath>
</defs>
</svg>
