<svg width="214" height="42" viewBox="0 0 214 42" fill="none" xmlns="http://www.w3.org/2000/svg">
<path opacity="0.8" fill-rule="evenodd" clip-rule="evenodd" d="M213.981 19.0269C214 19.4606 214 19.9738 214 21C214 22.0262 214 22.5394 213.981 22.9731C213.531 33.2788 205.279 41.5311 194.973 41.9811C194.539 42 194.026 42 193 42H29.9091C27.1094 42 25.7096 42 24.5329 41.8593C21.103 41.4492 17.9462 40.1761 15.2846 38.2618C14.3929 39.0363 13.2324 39.9118 11.9882 40.5032C8.64873 42.0904 0.0440063 41.9991 0.0440063 41.9991C0.0440063 41.9991 4.73975 40.5032 6.48474 33.6862C6.84821 32.2663 7.08284 28.6957 7.23175 25.1338C7.19778 24.9128 7.1674 24.6905 7.1407 24.4671C7 23.2904 7 21.8906 7 19.0909C7 16.7579 7 15.5913 7.11725 14.6107C8.02553 7.01411 14.0141 1.02553 21.6107 0.117248C22.5913 0 23.7579 0 26.0909 0H193C194.026 0 194.539 0 194.973 0.0189354C205.279 0.468892 213.531 8.72124 213.981 19.0269Z" fill="#D6C8FC"/>
<path d="M168.303 22.3531V31.8076H167.158V23.5534H167.102L164.794 25.086V23.9227L167.158 22.3531H168.303ZM173.79 31.9369C173.156 31.9369 172.596 31.8245 172.11 31.5999C171.626 31.3721 171.249 31.0597 170.979 30.6627C170.708 30.2626 170.574 29.8071 170.577 29.2963C170.574 28.8962 170.652 28.5268 170.812 28.1883C170.972 27.8467 171.191 27.562 171.468 27.3343C171.748 27.1034 172.06 26.9572 172.405 26.8957V26.8403C171.953 26.7233 171.593 26.4694 171.325 26.0786C171.057 25.6846 170.925 25.2368 170.928 24.7352C170.925 24.2551 171.046 23.8257 171.293 23.4472C171.539 23.0686 171.877 22.7701 172.308 22.5516C172.742 22.3331 173.236 22.2238 173.79 22.2238C174.338 22.2238 174.827 22.3331 175.258 22.5516C175.689 22.7701 176.028 23.0686 176.274 23.4472C176.523 23.8257 176.649 24.2551 176.652 24.7352C176.649 25.2368 176.512 25.6846 176.241 26.0786C175.974 26.4694 175.618 26.7233 175.175 26.8403V26.8957C175.517 26.9572 175.824 27.1034 176.098 27.3343C176.372 27.562 176.591 27.8467 176.754 28.1883C176.917 28.5268 177 28.8962 177.003 29.2963C177 29.8071 176.862 30.2626 176.588 30.6627C176.317 31.0597 175.94 31.3721 175.457 31.5999C174.977 31.8245 174.421 31.9369 173.79 31.9369ZM173.79 30.9213C174.218 30.9213 174.587 30.852 174.898 30.7135C175.209 30.575 175.449 30.3796 175.618 30.1272C175.787 29.8749 175.874 29.5794 175.877 29.2409C175.874 28.8838 175.781 28.5684 175.6 28.2945C175.418 28.0206 175.17 27.8051 174.856 27.6482C174.546 27.4912 174.19 27.4127 173.79 27.4127C173.387 27.4127 173.027 27.4912 172.71 27.6482C172.396 27.8051 172.148 28.0206 171.967 28.2945C171.788 28.5684 171.7 28.8838 171.703 29.2409C171.7 29.5794 171.782 29.8749 171.948 30.1272C172.117 30.3796 172.359 30.575 172.673 30.7135C172.987 30.852 173.359 30.9213 173.79 30.9213ZM173.79 26.434C174.129 26.434 174.429 26.3663 174.69 26.2309C174.955 26.0955 175.163 25.9062 175.314 25.6631C175.464 25.42 175.541 25.1353 175.544 24.809C175.541 24.489 175.466 24.2104 175.318 23.9735C175.17 23.7334 174.966 23.5487 174.704 23.4195C174.443 23.2871 174.138 23.221 173.79 23.221C173.436 23.221 173.127 23.2871 172.862 23.4195C172.597 23.5487 172.393 23.7334 172.248 23.9735C172.104 24.2104 172.033 24.489 172.036 24.809C172.033 25.1353 172.105 25.42 172.253 25.6631C172.404 25.9062 172.611 26.0955 172.876 26.2309C173.141 26.3663 173.445 26.434 173.79 26.434ZM179.325 30.5981C179.097 30.5981 178.902 30.5165 178.739 30.3534C178.575 30.1903 178.494 29.9949 178.494 29.7671C178.494 29.5394 178.575 29.344 178.739 29.1808C178.902 29.0177 179.097 28.9362 179.325 28.9362C179.553 28.9362 179.748 29.0177 179.911 29.1808C180.074 29.344 180.156 29.5394 180.156 29.7671C180.156 29.9179 180.117 30.0564 180.04 30.1826C179.967 30.3088 179.867 30.4104 179.74 30.4873C179.617 30.5612 179.479 30.5981 179.325 30.5981ZM179.325 25.8154C179.097 25.8154 178.902 25.7339 178.739 25.5708C178.575 25.4076 178.494 25.2122 178.494 24.9845C178.494 24.7567 178.575 24.5613 178.739 24.3982C178.902 24.2351 179.097 24.1535 179.325 24.1535C179.553 24.1535 179.748 24.2351 179.911 24.3982C180.074 24.5613 180.156 24.7567 180.156 24.9845C180.156 25.1353 180.117 25.2738 180.04 25.3999C179.967 25.5261 179.867 25.6277 179.74 25.7046C179.617 25.7785 179.479 25.8154 179.325 25.8154ZM184.787 31.9369C184.245 31.9369 183.758 31.8292 183.324 31.6137C182.89 31.3983 182.542 31.1028 182.28 30.7274C182.019 30.3519 181.876 29.9241 181.851 29.444H182.959C183.002 29.8718 183.196 30.2257 183.541 30.5058C183.888 30.7828 184.304 30.9213 184.787 30.9213C185.175 30.9213 185.52 30.8305 185.821 30.6489C186.126 30.4673 186.364 30.218 186.537 29.901C186.712 29.5809 186.8 29.2193 186.8 28.8161C186.8 28.4037 186.709 28.036 186.527 27.7128C186.349 27.3866 186.103 27.1296 185.789 26.9419C185.475 26.7541 185.116 26.6587 184.713 26.6556C184.424 26.6526 184.127 26.6972 183.822 26.7895C183.517 26.8788 183.267 26.9942 183.07 27.1357L181.999 27.0065L182.571 22.3531H187.483V23.3687H183.531L183.199 26.157H183.254C183.448 26.0032 183.691 25.8754 183.984 25.7739C184.276 25.6723 184.581 25.6215 184.898 25.6215C185.476 25.6215 185.992 25.76 186.444 26.037C186.9 26.3109 187.257 26.6864 187.515 27.1634C187.777 27.6405 187.908 28.1852 187.908 28.7977C187.908 29.4009 187.772 29.9395 187.502 30.4134C187.234 30.8843 186.864 31.2567 186.394 31.5306C185.923 31.8015 185.387 31.9369 184.787 31.9369ZM192.621 31.9369C192.233 31.9307 191.845 31.8569 191.458 31.7153C191.07 31.5737 190.716 31.3352 190.396 30.9997C190.076 30.6612 189.819 30.2042 189.625 29.6286C189.431 29.05 189.334 28.3237 189.334 27.4497C189.334 26.6125 189.412 25.8708 189.569 25.2245C189.726 24.5751 189.954 24.0289 190.253 23.5857C190.551 23.1394 190.911 22.8009 191.333 22.57C191.758 22.3392 192.236 22.2238 192.769 22.2238C193.298 22.2238 193.769 22.33 194.181 22.5423C194.597 22.7516 194.935 23.044 195.197 23.4195C195.458 23.795 195.628 24.2274 195.705 24.7167H194.578C194.474 24.292 194.27 23.9396 193.969 23.6595C193.667 23.3795 193.267 23.2394 192.769 23.2394C192.036 23.2394 191.459 23.558 191.037 24.195C190.619 24.8321 190.408 25.7262 190.405 26.8772H190.479C190.651 26.6156 190.856 26.3925 191.093 26.2078C191.333 26.0201 191.598 25.8754 191.887 25.7739C192.176 25.6723 192.482 25.6215 192.806 25.6215C193.347 25.6215 193.843 25.757 194.292 26.0278C194.741 26.2955 195.101 26.6664 195.372 27.1404C195.643 27.6112 195.779 28.1514 195.779 28.7607C195.779 29.3455 195.648 29.881 195.386 30.3673C195.125 30.8505 194.757 31.2352 194.283 31.5214C193.812 31.8045 193.258 31.943 192.621 31.9369ZM192.621 30.9213C193.009 30.9213 193.356 30.8243 193.664 30.6304C193.975 30.4365 194.22 30.1765 194.398 29.8502C194.58 29.524 194.671 29.1608 194.671 28.7607C194.671 28.3699 194.583 28.0144 194.407 27.6943C194.235 27.3712 193.997 27.1142 193.692 26.9234C193.39 26.7326 193.046 26.6372 192.658 26.6372C192.365 26.6372 192.093 26.6956 191.841 26.8126C191.588 26.9265 191.367 27.0834 191.176 27.2835C190.988 27.4835 190.84 27.7128 190.733 27.9713C190.625 28.2268 190.571 28.4961 190.571 28.7792C190.571 29.1547 190.659 29.5055 190.834 29.8318C191.013 30.158 191.256 30.4211 191.564 30.6212C191.875 30.8212 192.227 30.9213 192.621 30.9213Z" fill="#4200FF"/>
<path d="M26.7614 28V13.4545H31.8466C32.8598 13.4545 33.6955 13.6297 34.3537 13.9801C35.0118 14.3258 35.5019 14.7921 35.8239 15.3793C36.1458 15.9616 36.3068 16.608 36.3068 17.3182C36.3068 17.9432 36.1955 18.4593 35.973 18.8665C35.7552 19.2737 35.4664 19.5956 35.1065 19.8324C34.7514 20.0691 34.3655 20.2443 33.9489 20.358V20.5C34.3939 20.5284 34.8414 20.6847 35.2912 20.9688C35.741 21.2528 36.1174 21.66 36.4205 22.1903C36.7235 22.7206 36.875 23.3693 36.875 24.1364C36.875 24.8655 36.7093 25.5213 36.3778 26.1037C36.0464 26.6861 35.5232 27.1477 34.8082 27.4886C34.0933 27.8295 33.1629 28 32.017 28H26.7614ZM28.5227 26.4375H32.017C33.1676 26.4375 33.9844 26.215 34.4673 25.7699C34.955 25.3201 35.1989 24.7756 35.1989 24.1364C35.1989 23.6439 35.0734 23.1894 34.8224 22.7727C34.5715 22.3513 34.214 22.0152 33.75 21.7642C33.286 21.5085 32.7367 21.3807 32.1023 21.3807H28.5227V26.4375ZM28.5227 19.8466H31.7898C32.3201 19.8466 32.7983 19.7424 33.2244 19.5341C33.6553 19.3258 33.9962 19.0322 34.2472 18.6534C34.5028 18.2746 34.6307 17.8295 34.6307 17.3182C34.6307 16.679 34.4081 16.1368 33.9631 15.6918C33.518 15.242 32.8125 15.017 31.8466 15.017H28.5227V19.8466ZM43.9737 28.2273C42.951 28.2273 42.0703 27.9858 41.3317 27.5028C40.593 27.0199 40.0249 26.3546 39.6271 25.5071C39.2294 24.6596 39.0305 23.6913 39.0305 22.6023C39.0305 21.4943 39.2341 20.5166 39.6413 19.669C40.0533 18.8168 40.6262 18.1515 41.3601 17.6733C42.0987 17.1903 42.9605 16.9489 43.9453 16.9489C44.7124 16.9489 45.4036 17.0909 46.0192 17.375C46.6347 17.6591 47.139 18.0568 47.532 18.5682C47.925 19.0795 48.1688 19.6761 48.2635 20.358H46.5874C46.4595 19.8608 46.1754 19.4205 45.7351 19.0369C45.2995 18.6487 44.7124 18.4545 43.9737 18.4545C43.3203 18.4545 42.7474 18.625 42.255 18.9659C41.7673 19.3021 41.3861 19.7779 41.1115 20.3935C40.8416 21.0043 40.7067 21.7216 40.7067 22.5455C40.7067 23.3883 40.8393 24.1222 41.1044 24.7472C41.3743 25.3722 41.7531 25.8575 42.2408 26.2031C42.7332 26.5488 43.3108 26.7216 43.9737 26.7216C44.4093 26.7216 44.8047 26.6458 45.1598 26.4943C45.5149 26.3428 45.8156 26.125 46.0618 25.8409C46.308 25.5568 46.4832 25.2159 46.5874 24.8182H48.2635C48.1688 25.4621 47.9344 26.0421 47.5604 26.5582C47.1911 27.0696 46.701 27.4768 46.0902 27.7798C45.4841 28.0781 44.7786 28.2273 43.9737 28.2273ZM55.2876 28.2273C54.2365 28.2273 53.3298 27.9953 52.5675 27.5312C51.8099 27.0625 51.2251 26.4091 50.8132 25.571C50.406 24.7282 50.2024 23.7481 50.2024 22.6307C50.2024 21.5133 50.406 20.5284 50.8132 19.6761C51.2251 18.8191 51.7981 18.1515 52.532 17.6733C53.2706 17.1903 54.1323 16.9489 55.1172 16.9489C55.6854 16.9489 56.2464 17.0436 56.8004 17.233C57.3544 17.4223 57.8587 17.7301 58.3132 18.1562C58.7678 18.5777 59.13 19.1364 59.3999 19.8324C59.6697 20.5284 59.8047 21.3854 59.8047 22.4034V23.1136H51.3956V21.6648H58.1001C58.1001 21.0492 57.977 20.5 57.7308 20.017C57.4893 19.5341 57.1437 19.1529 56.6939 18.8736C56.2488 18.5942 55.7232 18.4545 55.1172 18.4545C54.4496 18.4545 53.8719 18.6203 53.3842 18.9517C52.9013 19.2784 52.5296 19.7045 52.2692 20.2301C52.0088 20.7557 51.8786 21.3191 51.8786 21.9205V22.8864C51.8786 23.7102 52.0206 24.4086 52.3047 24.9815C52.5935 25.5497 52.9936 25.983 53.505 26.2812C54.0163 26.5748 54.6106 26.7216 55.2876 26.7216C55.728 26.7216 56.1257 26.66 56.4808 26.5369C56.8407 26.4091 57.1508 26.2197 57.4112 25.9688C57.6716 25.7131 57.8729 25.3958 58.0149 25.017L59.6342 25.4716C59.4638 26.0208 59.1773 26.5038 58.7749 26.9205C58.3724 27.3324 57.8752 27.6544 57.2834 27.8864C56.6915 28.1136 56.0263 28.2273 55.2876 28.2273ZM52.9865 15.2727C52.6882 15.2727 52.4231 15.1591 52.1911 14.9318C51.9638 14.6998 51.8501 14.4347 51.8501 14.1364C51.8501 13.8097 51.9638 13.5398 52.1911 13.3267C52.4231 13.1089 52.6882 13 52.9865 13C53.3132 13 53.5831 13.1089 53.7962 13.3267C54.014 13.5398 54.1229 13.8097 54.1229 14.1364C54.1229 14.4347 54.014 14.6998 53.7962 14.9318C53.5831 15.1591 53.3132 15.2727 52.9865 15.2727ZM57.0774 15.2727C56.7791 15.2727 56.514 15.1591 56.282 14.9318C56.0547 14.6998 55.9411 14.4347 55.9411 14.1364C55.9411 13.8097 56.0547 13.5398 56.282 13.3267C56.514 13.1089 56.7791 13 57.0774 13C57.4041 13 57.674 13.1089 57.8871 13.3267C58.1049 13.5398 58.2138 13.8097 58.2138 14.1364C58.2138 14.4347 58.1049 14.6998 57.8871 14.9318C57.674 15.1591 57.4041 15.2727 57.0774 15.2727ZM67.9794 28V17.0909H76.5589V28H74.8828V18.6534H69.6555V28H67.9794ZM84.0518 28.2273C83.067 28.2273 82.2029 27.9929 81.4595 27.5241C80.7209 27.0554 80.1432 26.3996 79.7266 25.5568C79.3146 24.714 79.1087 23.7292 79.1087 22.6023C79.1087 21.4659 79.3146 20.474 79.7266 19.6264C80.1432 18.7789 80.7209 18.1207 81.4595 17.652C82.2029 17.1832 83.067 16.9489 84.0518 16.9489C85.0367 16.9489 85.8984 17.1832 86.6371 17.652C87.3804 18.1207 87.9581 18.7789 88.37 19.6264C88.7867 20.474 88.995 21.4659 88.995 22.6023C88.995 23.7292 88.7867 24.714 88.37 25.5568C87.9581 26.3996 87.3804 27.0554 86.6371 27.5241C85.8984 27.9929 85.0367 28.2273 84.0518 28.2273ZM84.0518 26.7216C84.8 26.7216 85.4155 26.5298 85.8984 26.1463C86.3814 25.7628 86.7389 25.2585 86.9709 24.6335C87.2029 24.0085 87.3189 23.3314 87.3189 22.6023C87.3189 21.8731 87.2029 21.1937 86.9709 20.5639C86.7389 19.9342 86.3814 19.4252 85.8984 19.0369C85.4155 18.6487 84.8 18.4545 84.0518 18.4545C83.3037 18.4545 82.6882 18.6487 82.2053 19.0369C81.7223 19.4252 81.3648 19.9342 81.1328 20.5639C80.9008 21.1937 80.7848 21.8731 80.7848 22.6023C80.7848 23.3314 80.9008 24.0085 81.1328 24.6335C81.3648 25.2585 81.7223 25.7628 82.2053 26.1463C82.6882 26.5298 83.3037 26.7216 84.0518 26.7216ZM98.8548 21.7784V23.3409H92.832V21.7784H98.8548ZM93.2298 17.0909V28H91.5536V17.0909H93.2298ZM100.133 17.0909V28H98.457V17.0909H100.133ZM109.757 28V18.625H106.859C106.206 18.625 105.692 18.7765 105.318 19.0795C104.944 19.3826 104.757 19.7992 104.757 20.3295C104.757 20.8504 104.925 21.2599 105.261 21.5582C105.602 21.8565 106.068 22.0057 106.66 22.0057H110.183V23.5682H106.66C105.922 23.5682 105.285 23.438 104.75 23.1776C104.215 22.9171 103.803 22.5455 103.514 22.0625C103.225 21.5748 103.081 20.9972 103.081 20.3295C103.081 19.6572 103.232 19.0795 103.535 18.5966C103.838 18.1136 104.271 17.742 104.835 17.4815C105.403 17.2211 106.078 17.0909 106.859 17.0909H111.348V28H109.757ZM102.484 28L105.581 22.5739H107.399L104.302 28H102.484ZM112.94 18.6534V17.0909H121.804V18.6534H118.224V28H116.548V18.6534H112.94ZM131.55 21.7784V23.3409H125.527V21.7784H131.55ZM125.925 17.0909V28H124.249V17.0909H125.925ZM132.828 17.0909V28H131.152V17.0909H132.828ZM140.321 28.2273C139.337 28.2273 138.472 27.9929 137.729 27.5241C136.99 27.0554 136.413 26.3996 135.996 25.5568C135.584 24.714 135.378 23.7292 135.378 22.6023C135.378 21.4659 135.584 20.474 135.996 19.6264C136.413 18.7789 136.99 18.1207 137.729 17.652C138.472 17.1832 139.337 16.9489 140.321 16.9489C141.306 16.9489 142.168 17.1832 142.907 17.652C143.65 18.1207 144.228 18.7789 144.64 19.6264C145.056 20.474 145.265 21.4659 145.265 22.6023C145.265 23.7292 145.056 24.714 144.64 25.5568C144.228 26.3996 143.65 27.0554 142.907 27.5241C142.168 27.9929 141.306 28.2273 140.321 28.2273ZM140.321 26.7216C141.069 26.7216 141.685 26.5298 142.168 26.1463C142.651 25.7628 143.008 25.2585 143.24 24.6335C143.472 24.0085 143.588 23.3314 143.588 22.6023C143.588 21.8731 143.472 21.1937 143.24 20.5639C143.008 19.9342 142.651 19.4252 142.168 19.0369C141.685 18.6487 141.069 18.4545 140.321 18.4545C139.573 18.4545 138.958 18.6487 138.475 19.0369C137.992 19.4252 137.634 19.9342 137.402 20.5639C137.17 21.1937 137.054 21.8731 137.054 22.6023C137.054 23.3314 137.17 24.0085 137.402 24.6335C137.634 25.2585 137.992 25.7628 138.475 26.1463C138.958 26.5298 139.573 26.7216 140.321 26.7216ZM150.011 23.9091V23.8239C150.02 22.9195 150.115 22.1998 150.295 21.6648C150.475 21.1297 150.73 20.6965 151.062 20.3651C151.393 20.0336 151.791 19.7282 152.255 19.4489C152.534 19.2784 152.785 19.0772 153.008 18.8452C153.23 18.6084 153.406 18.3362 153.533 18.0284C153.666 17.7206 153.732 17.3797 153.732 17.0057C153.732 16.5417 153.623 16.1392 153.406 15.7983C153.188 15.4574 152.897 15.1946 152.532 15.0099C152.167 14.8253 151.763 14.733 151.317 14.733C150.929 14.733 150.555 14.8134 150.195 14.9744C149.835 15.1354 149.535 15.3887 149.293 15.7344C149.052 16.08 148.912 16.5322 148.874 17.0909H147.085C147.122 16.286 147.331 15.5971 147.71 15.0241C148.093 14.4512 148.597 14.0133 149.222 13.7102C149.852 13.4072 150.55 13.2557 151.317 13.2557C152.151 13.2557 152.875 13.4214 153.491 13.7528C154.111 14.0843 154.589 14.5388 154.925 15.1165C155.266 15.6941 155.437 16.3523 155.437 17.0909C155.437 17.6117 155.356 18.0829 155.195 18.5043C155.039 18.9257 154.812 19.3021 154.513 19.6335C154.22 19.965 153.865 20.2585 153.448 20.5142C153.031 20.7746 152.698 21.0492 152.447 21.3381C152.196 21.6222 152.013 21.9607 151.9 22.3537C151.786 22.7467 151.725 23.2367 151.715 23.8239V23.9091H150.011ZM150.92 28.1136C150.569 28.1136 150.269 27.9882 150.018 27.7372C149.767 27.4863 149.641 27.1856 149.641 26.8352C149.641 26.4848 149.767 26.1842 150.018 25.9332C150.269 25.6823 150.569 25.5568 150.92 25.5568C151.27 25.5568 151.571 25.6823 151.822 25.9332C152.073 26.1842 152.198 26.4848 152.198 26.8352C152.198 27.0672 152.139 27.2803 152.021 27.4744C151.907 27.6686 151.753 27.8248 151.559 27.9432C151.37 28.0568 151.156 28.1136 150.92 28.1136Z" fill="black"/>
</svg>
