<svg width="43" height="44" viewBox="0 0 43 44" fill="none" xmlns="http://www.w3.org/2000/svg">
<rect x="42.8105" y="19.8569" width="3.53596" height="10.0233" rx="1.76798" transform="rotate(90 42.8105 19.8569)" fill="#6C38FF"/>
<rect x="40.3496" y="31.793" width="3.53596" height="10.0233" rx="1.76798" transform="rotate(122.678 40.3496 31.793)" fill="#5F27FF"/>
<rect x="31.8086" y="40.5234" width="3.53596" height="10.0233" rx="1.76798" transform="rotate(155.365 31.8086 40.5234)" fill="#5114FF"/>
<rect x="19.8389" y="43.2356" width="3.53596" height="10.0233" rx="1.76798" transform="rotate(-171.835 19.8389 43.2356)" fill="white"/>
<rect x="8.36914" y="39.0547" width="3.53596" height="10.0233" rx="1.76798" transform="rotate(-138.957 8.36914 39.0547)" fill="white"/>
<rect x="0.989258" y="29.3599" width="3.53596" height="10.0233" rx="1.76798" transform="rotate(-106.248 0.989258 29.3599)" fill="white"/>
<rect x="0.0332031" y="17.1233" width="3.53596" height="10.0233" rx="1.76798" transform="rotate(-73.3182 0.0332031 17.1233)" fill="white"/>
<rect x="5.80859" y="6.40771" width="3.53596" height="10.0233" rx="1.76798" transform="rotate(-40.6266 5.80859 6.40771)" fill="white"/>
<rect x="16.5303" y="0.475342" width="3.53596" height="10.0233" rx="1.76798" transform="rotate(-7.72568 16.5303 0.475342)" fill="white"/>
<rect x="28.7109" y="1.2915" width="3.53596" height="10.0233" rx="1.76798" transform="rotate(25.0617 28.7109 1.2915)" fill="#BBA2FF"/>
<rect x="38.5332" y="8.60059" width="3.53596" height="10.0233" rx="1.76798" transform="rotate(57.743 38.5332 8.60059)" fill="#8F68FF"/>
</svg>
