<svg width="251" height="250" viewBox="0 0 251 250" fill="none" xmlns="http://www.w3.org/2000/svg">
<path d="M181.523 46.7548C175.844 43.5779 175.84 35.6295 181.516 32.4475L237.389 1.12499C243.065 -2.05697 250.164 1.91407 250.167 8.27286L250.198 70.8672C250.201 77.226 243.106 81.2035 237.427 78.0266L181.523 46.7548Z" fill="#FF3DA8"/>
<path d="M68.8606 32.5719C74.5382 35.7513 74.5382 43.6998 68.8606 46.8792L12.9722 78.1764C7.29468 81.3558 0.197753 77.3815 0.197754 71.0227L0.197765 8.42833C0.197766 2.06953 7.29471 -1.90469 12.9723 1.27471L68.8606 32.5719Z" fill="#0D00CA"/>
<path d="M161.288 126.491C161.288 145.975 144.935 161.77 124.761 161.77C104.588 161.77 88.2341 145.975 88.2341 126.491C88.2341 107.007 104.588 91.2116 124.761 91.2116C144.935 91.2116 161.288 107.007 161.288 126.491Z" fill="#4200FF"/>
<path d="M87.2602 187.495C87.2602 181.08 92.6441 175.88 99.2855 175.88H150.14C156.781 175.88 162.165 181.08 162.165 187.495V238.39C162.165 244.804 156.781 250.004 150.14 250.004H99.2855C92.6441 250.004 87.2602 244.804 87.2602 238.39V187.495Z" fill="#F64704"/>
<path d="M87.2602 14.5922C87.2602 8.17772 92.6441 2.97776 99.2855 2.97776H150.14C156.781 2.97776 162.165 8.17773 162.165 14.5922V65.4872C162.165 71.9017 156.781 77.1017 150.14 77.1017H99.2855C92.6441 77.1017 87.2602 71.9017 87.2602 65.4872V14.5922Z" fill="#952AFF"/>
</svg>
