<svg width="17" height="17" viewBox="0 0 17 17" fill="none" xmlns="http://www.w3.org/2000/svg">
<path fill-rule="evenodd" clip-rule="evenodd" d="M7.10004 1.81956C4.24531 1.81956 1.82176 4.35221 1.82176 7.61681C1.82176 10.8814 4.24531 13.4141 7.10004 13.4141C9.95476 13.4141 12.3783 10.8814 12.3783 7.61681C12.3783 4.35221 9.95476 1.81956 7.10004 1.81956ZM0.25 7.61681C0.25 3.6111 3.25648 0.25 7.10004 0.25C10.9436 0.25 13.9501 3.6111 13.9501 7.61681C13.9501 9.14498 13.5125 10.5793 12.7578 11.769L16.25 15.1179L15.1613 16.25L11.7751 13.0027C10.5599 14.2265 8.92425 14.9836 7.10004 14.9836C3.25648 14.9836 0.25 11.6225 0.25 7.61681Z" fill="#5F5F5F"/>
</svg>
