<svg width="38" height="38" viewBox="0 0 38 38" fill="none" xmlns="http://www.w3.org/2000/svg">
<path fill-rule="evenodd" clip-rule="evenodd" d="M2.6123 16.7758C12.8128 12.2599 19.6148 9.28267 23.0181 7.84424C32.7355 3.73724 34.7546 3.02381 36.0707 3.00025C36.3602 2.99507 37.0074 3.06796 37.4266 3.41363C37.7806 3.70551 37.878 4.09979 37.9246 4.37652C37.9712 4.65325 38.0292 5.28365 37.9831 5.77623C37.4565 11.3984 35.178 25.0419 34.0188 31.3389C33.5283 34.0033 32.5625 34.8967 31.6275 34.9841C29.5955 35.1741 28.0525 33.6196 26.0845 32.3087C23.0048 30.2573 21.265 28.9804 18.2757 26.9787C14.821 24.6653 17.0605 23.3939 19.0294 21.316C19.5446 20.7722 28.4976 12.4974 28.6708 11.7467C28.6925 11.6528 28.7126 11.3029 28.508 11.1181C28.3034 10.9333 28.0015 10.9965 27.7836 11.0467C27.4747 11.118 22.5549 14.4222 13.0242 20.9596C11.6278 21.9339 10.3629 22.4087 9.22963 22.3838C7.98028 22.3564 5.57702 21.666 3.79045 21.0759C1.59915 20.3521 -0.142449 19.9694 0.00920586 18.7402C0.0881969 18.0999 0.955895 17.4451 2.6123 16.7758Z" fill="url(#paint0_linear_402_181)"/>
<defs>
<linearGradient id="paint0_linear_402_181" x1="37.3702" y1="3.21333" x2="16.2956" y2="25.7749" gradientUnits="userSpaceOnUse">
<stop stop-color="#475361"/>
<stop offset="1" stop-color="#1D1D1D"/>
</linearGradient>
</defs>
</svg>
