<svg width="36" height="29" viewBox="0 0 36 29" fill="none" xmlns="http://www.w3.org/2000/svg">
<path fill-rule="evenodd" clip-rule="evenodd" d="M3.28699 12.5498C12.488 8.5411 18.6234 5.89831 21.6933 4.62144C30.4584 0.975724 32.2797 0.342424 33.4668 0.321512C33.7279 0.316913 34.3117 0.381619 34.6898 0.688463C35.0092 0.947556 35.097 1.29755 35.139 1.5432C35.1811 1.78885 35.2334 2.34845 35.1918 2.7857C34.7168 7.7764 32.6616 19.8875 31.616 25.4772C31.1736 27.8424 30.3024 28.6355 29.459 28.7131C27.6262 28.8817 26.2344 27.5018 24.4591 26.3381C21.6813 24.5172 20.1119 23.3836 17.4155 21.6067C14.2994 19.5532 16.3194 18.4246 18.0953 16.5801C18.5601 16.0974 26.6358 8.75192 26.7921 8.08558C26.8116 8.00224 26.8298 7.6916 26.6452 7.52756C26.4607 7.36353 26.1883 7.41963 25.9917 7.46424C25.7131 7.52747 21.2754 10.4606 12.6787 16.2637C11.419 17.1286 10.2781 17.5501 9.25589 17.528C8.12896 17.5036 5.9612 16.8908 4.34969 16.367C2.37312 15.7245 0.802174 15.3848 0.938968 14.2936C1.01022 13.7252 1.79289 13.144 3.28699 12.5498Z" fill="#4200FF"/>
</svg>
