<svg width="919" height="201" viewBox="0 0 919 201" fill="none" xmlns="http://www.w3.org/2000/svg">
<rect width="919" height="37.1581" transform="translate(0 0.191406)" fill="#F2F2F2"/>
<path d="M191.873 25.0326C190.818 25.0326 189.91 24.7976 189.15 24.3276C188.395 23.8576 187.82 23.2001 187.425 22.3551C187.03 21.5051 186.833 20.5226 186.833 19.4076C186.833 18.2926 187.03 17.3126 187.425 16.4676C187.82 15.6176 188.395 14.9576 189.15 14.4876C189.91 14.0176 190.818 13.7826 191.873 13.7826C192.693 13.7826 193.423 13.9251 194.063 14.2101C194.703 14.4951 195.238 14.9026 195.668 15.4326C196.103 15.9576 196.423 16.5801 196.628 17.3001L195.27 17.6601C195.045 16.8351 194.645 16.1951 194.07 15.7401C193.495 15.2851 192.763 15.0576 191.873 15.0576C191.083 15.0576 190.415 15.2401 189.87 15.6051C189.325 15.9701 188.918 16.4826 188.648 17.1426C188.378 17.8026 188.243 18.5726 188.243 19.4526C188.243 20.3176 188.38 21.0726 188.655 21.7176C188.93 22.3626 189.338 22.8651 189.878 23.2251C190.423 23.5801 191.088 23.7576 191.873 23.7576C192.763 23.7576 193.495 23.5301 194.07 23.0751C194.645 22.6201 195.045 21.9801 195.27 21.1551L196.628 21.5151C196.423 22.2351 196.103 22.8601 195.668 23.3901C195.238 23.9151 194.703 24.3201 194.063 24.6051C193.423 24.8901 192.693 25.0326 191.873 25.0326ZM201.723 25.0326C200.928 25.0326 200.235 24.8526 199.645 24.4926C199.06 24.1276 198.61 23.6226 198.295 22.9776C197.98 22.3276 197.823 21.5851 197.823 20.7501C197.823 19.9101 197.983 19.1676 198.303 18.5226C198.623 17.8776 199.078 17.3776 199.668 17.0226C200.258 16.6626 200.943 16.4826 201.723 16.4826C202.518 16.4826 203.21 16.6626 203.8 17.0226C204.39 17.3826 204.843 17.8851 205.158 18.5301C205.473 19.1751 205.63 19.9151 205.63 20.7501C205.63 21.5951 205.47 22.3426 205.15 22.9926C204.835 23.6376 204.383 24.1401 203.793 24.5001C203.203 24.8551 202.513 25.0326 201.723 25.0326ZM201.723 23.7651C202.538 23.7651 203.155 23.4951 203.575 22.9551C204 22.4101 204.213 21.6751 204.213 20.7501C204.213 19.8151 204 19.0826 203.575 18.5526C203.15 18.0176 202.533 17.7501 201.723 17.7501C200.903 17.7501 200.283 18.0201 199.863 18.5601C199.448 19.1001 199.24 19.8301 199.24 20.7501C199.24 21.6851 199.453 22.4226 199.878 22.9626C200.308 23.4976 200.923 23.7651 201.723 23.7651ZM208.766 24.8076H207.431V13.7826H208.766V24.8076ZM214.467 25.0326C213.672 25.0326 212.979 24.8526 212.389 24.4926C211.804 24.1276 211.354 23.6226 211.039 22.9776C210.724 22.3276 210.567 21.5851 210.567 20.7501C210.567 19.9101 210.727 19.1676 211.047 18.5226C211.367 17.8776 211.822 17.3776 212.412 17.0226C213.002 16.6626 213.687 16.4826 214.467 16.4826C215.262 16.4826 215.954 16.6626 216.544 17.0226C217.134 17.3826 217.587 17.8851 217.902 18.5301C218.217 19.1751 218.374 19.9151 218.374 20.7501C218.374 21.5951 218.214 22.3426 217.894 22.9926C217.579 23.6376 217.127 24.1401 216.537 24.5001C215.947 24.8551 215.257 25.0326 214.467 25.0326ZM214.467 23.7651C215.282 23.7651 215.899 23.4951 216.319 22.9551C216.744 22.4101 216.957 21.6751 216.957 20.7501C216.957 19.8151 216.744 19.0826 216.319 18.5526C215.894 18.0176 215.277 17.7501 214.467 17.7501C213.647 17.7501 213.027 18.0201 212.607 18.5601C212.192 19.1001 211.984 19.8301 211.984 20.7501C211.984 21.6851 212.197 22.4226 212.622 22.9626C213.052 23.4976 213.667 23.7651 214.467 23.7651ZM221.908 17.2026C222.133 17.0226 222.398 16.8851 222.703 16.7901C223.008 16.6951 223.316 16.6476 223.626 16.6476C223.821 16.6476 224.013 16.6676 224.203 16.7076V17.9601C223.993 17.9101 223.791 17.8851 223.596 17.8851C223.111 17.8851 222.696 18.0126 222.351 18.2676C221.986 18.5276 221.731 18.8701 221.586 19.2951C221.441 19.7151 221.368 20.1976 221.368 20.7426V24.8076H220.026V16.7076H221.218V17.9901C221.408 17.6601 221.638 17.3976 221.908 17.2026ZM231.864 24.8076H230.507V15.4851L228.474 16.7151V15.2226L230.507 14.0076H231.864V24.8076Z" fill="#4200FF"/>
<path d="M386.873 25.0326C385.818 25.0326 384.91 24.7976 384.15 24.3276C383.395 23.8576 382.82 23.2001 382.425 22.3551C382.03 21.5051 381.833 20.5226 381.833 19.4076C381.833 18.2926 382.03 17.3126 382.425 16.4676C382.82 15.6176 383.395 14.9576 384.15 14.4876C384.91 14.0176 385.818 13.7826 386.873 13.7826C387.693 13.7826 388.423 13.9251 389.063 14.2101C389.703 14.4951 390.238 14.9026 390.668 15.4326C391.103 15.9576 391.423 16.5801 391.628 17.3001L390.27 17.6601C390.045 16.8351 389.645 16.1951 389.07 15.7401C388.495 15.2851 387.763 15.0576 386.873 15.0576C386.083 15.0576 385.415 15.2401 384.87 15.6051C384.325 15.9701 383.918 16.4826 383.648 17.1426C383.378 17.8026 383.243 18.5726 383.243 19.4526C383.243 20.3176 383.38 21.0726 383.655 21.7176C383.93 22.3626 384.338 22.8651 384.878 23.2251C385.423 23.5801 386.088 23.7576 386.873 23.7576C387.763 23.7576 388.495 23.5301 389.07 23.0751C389.645 22.6201 390.045 21.9801 390.27 21.1551L391.628 21.5151C391.423 22.2351 391.103 22.8601 390.668 23.3901C390.238 23.9151 389.703 24.3201 389.063 24.6051C388.423 24.8901 387.693 25.0326 386.873 25.0326ZM396.723 25.0326C395.928 25.0326 395.235 24.8526 394.645 24.4926C394.06 24.1276 393.61 23.6226 393.295 22.9776C392.98 22.3276 392.823 21.5851 392.823 20.7501C392.823 19.9101 392.983 19.1676 393.303 18.5226C393.623 17.8776 394.078 17.3776 394.668 17.0226C395.258 16.6626 395.943 16.4826 396.723 16.4826C397.518 16.4826 398.21 16.6626 398.8 17.0226C399.39 17.3826 399.843 17.8851 400.158 18.5301C400.473 19.1751 400.63 19.9151 400.63 20.7501C400.63 21.5951 400.47 22.3426 400.15 22.9926C399.835 23.6376 399.383 24.1401 398.793 24.5001C398.203 24.8551 397.513 25.0326 396.723 25.0326ZM396.723 23.7651C397.538 23.7651 398.155 23.4951 398.575 22.9551C399 22.4101 399.213 21.6751 399.213 20.7501C399.213 19.8151 399 19.0826 398.575 18.5526C398.15 18.0176 397.533 17.7501 396.723 17.7501C395.903 17.7501 395.283 18.0201 394.863 18.5601C394.448 19.1001 394.24 19.8301 394.24 20.7501C394.24 21.6851 394.453 22.4226 394.878 22.9626C395.308 23.4976 395.923 23.7651 396.723 23.7651ZM403.766 24.8076H402.431V13.7826H403.766V24.8076ZM409.467 25.0326C408.672 25.0326 407.979 24.8526 407.389 24.4926C406.804 24.1276 406.354 23.6226 406.039 22.9776C405.724 22.3276 405.567 21.5851 405.567 20.7501C405.567 19.9101 405.727 19.1676 406.047 18.5226C406.367 17.8776 406.822 17.3776 407.412 17.0226C408.002 16.6626 408.687 16.4826 409.467 16.4826C410.262 16.4826 410.954 16.6626 411.544 17.0226C412.134 17.3826 412.587 17.8851 412.902 18.5301C413.217 19.1751 413.374 19.9151 413.374 20.7501C413.374 21.5951 413.214 22.3426 412.894 22.9926C412.579 23.6376 412.127 24.1401 411.537 24.5001C410.947 24.8551 410.257 25.0326 409.467 25.0326ZM409.467 23.7651C410.282 23.7651 410.899 23.4951 411.319 22.9551C411.744 22.4101 411.957 21.6751 411.957 20.7501C411.957 19.8151 411.744 19.0826 411.319 18.5526C410.894 18.0176 410.277 17.7501 409.467 17.7501C408.647 17.7501 408.027 18.0201 407.607 18.5601C407.192 19.1001 406.984 19.8301 406.984 20.7501C406.984 21.6851 407.197 22.4226 407.622 22.9626C408.052 23.4976 408.667 23.7651 409.467 23.7651ZM416.908 17.2026C417.133 17.0226 417.398 16.8851 417.703 16.7901C418.008 16.6951 418.316 16.6476 418.626 16.6476C418.821 16.6476 419.013 16.6676 419.203 16.7076V17.9601C418.993 17.9101 418.791 17.8851 418.596 17.8851C418.111 17.8851 417.696 18.0126 417.351 18.2676C416.986 18.5276 416.731 18.8701 416.586 19.2951C416.441 19.7151 416.368 20.1976 416.368 20.7426V24.8076H415.026V16.7076H416.218V17.9901C416.408 17.6601 416.638 17.3976 416.908 17.2026ZM425.379 23.5251H430.502V24.8001H423.324L423.332 23.6001L428.124 19.2876C428.499 18.9476 428.762 18.6176 428.912 18.2976C429.062 17.9776 429.137 17.6351 429.137 17.2701C429.137 16.8601 429.042 16.4876 428.852 16.1526C428.662 15.8126 428.402 15.5451 428.072 15.3501C427.742 15.1551 427.372 15.0576 426.962 15.0576C426.542 15.0576 426.162 15.1601 425.822 15.3651C425.482 15.5651 425.214 15.8351 425.019 16.1751C424.829 16.5101 424.737 16.8726 424.742 17.2626H423.377C423.377 16.5926 423.532 15.9951 423.842 15.4701C424.157 14.9401 424.587 14.5276 425.132 14.2326C425.682 13.9326 426.299 13.7826 426.984 13.7826C427.644 13.7826 428.242 13.9376 428.777 14.2476C429.312 14.5526 429.732 14.9726 430.037 15.5076C430.347 16.0376 430.502 16.6301 430.502 17.2851C430.502 17.7451 430.442 18.1476 430.322 18.4926C430.207 18.8326 430.034 19.1476 429.804 19.4376C429.574 19.7226 429.259 20.0426 428.859 20.3976L425.379 23.5251Z" fill="#4200FF"/>
<path d="M580.805 25.0326C579.75 25.0326 578.85 24.7976 578.105 24.3276C577.36 23.8576 576.795 23.2001 576.41 22.3551C576.025 21.5051 575.833 20.5226 575.833 19.4076C575.833 18.2926 576.025 17.3126 576.41 16.4676C576.795 15.6176 577.36 14.9576 578.105 14.4876C578.85 14.0176 579.75 13.7826 580.805 13.7826C581.625 13.7826 582.353 13.9276 582.988 14.2176C583.628 14.5026 584.158 14.9101 584.578 15.4401C585.003 15.9701 585.315 16.6001 585.515 17.3301L584.39 17.6226C584.155 16.7476 583.735 16.0651 583.13 15.5751C582.525 15.0851 581.75 14.8401 580.805 14.8401C579.975 14.8401 579.275 15.0326 578.705 15.4176C578.135 15.8026 577.708 16.3426 577.423 17.0376C577.138 17.7276 576.995 18.5326 576.995 19.4526C576.995 20.3576 577.138 21.1501 577.423 21.8301C577.713 22.5051 578.143 23.0326 578.713 23.4126C579.288 23.7876 579.985 23.9751 580.805 23.9751C581.75 23.9751 582.525 23.7301 583.13 23.2401C583.735 22.7501 584.155 22.0676 584.39 21.1926L585.515 21.4851C585.315 22.2151 585.003 22.8451 584.578 23.3751C584.158 23.9051 583.628 24.3151 582.988 24.6051C582.353 24.8901 581.625 25.0326 580.805 25.0326ZM590.553 25.0326C589.763 25.0326 589.078 24.8526 588.498 24.4926C587.923 24.1276 587.483 23.6226 587.178 22.9776C586.873 22.3326 586.72 21.5901 586.72 20.7501C586.72 19.9051 586.875 19.1601 587.185 18.5151C587.495 17.8701 587.938 17.3701 588.513 17.0151C589.093 16.6601 589.773 16.4826 590.553 16.4826C591.348 16.4826 592.033 16.6626 592.608 17.0226C593.188 17.3826 593.63 17.8851 593.935 18.5301C594.24 19.1751 594.393 19.9151 594.393 20.7501C594.393 21.6001 594.238 22.3476 593.928 22.9926C593.623 23.6376 593.18 24.1401 592.6 24.5001C592.025 24.8551 591.343 25.0326 590.553 25.0326ZM590.553 23.9751C591.138 23.9751 591.63 23.8426 592.03 23.5776C592.43 23.3076 592.728 22.9326 592.923 22.4526C593.123 21.9676 593.223 21.4001 593.223 20.7501C593.223 19.7501 592.995 18.9651 592.54 18.3951C592.09 17.8251 591.428 17.5401 590.553 17.5401C589.673 17.5401 589.008 17.8301 588.558 18.4101C588.113 18.9851 587.89 19.7651 587.89 20.7501C587.89 21.4051 587.99 21.9751 588.19 22.4601C588.395 22.9451 588.695 23.3201 589.09 23.5851C589.49 23.8451 589.978 23.9751 590.553 23.9751ZM597.3 24.8076H596.197V13.7826H597.3V24.8076ZM602.931 25.0326C602.141 25.0326 601.456 24.8526 600.876 24.4926C600.301 24.1276 599.861 23.6226 599.556 22.9776C599.251 22.3326 599.098 21.5901 599.098 20.7501C599.098 19.9051 599.253 19.1601 599.563 18.5151C599.873 17.8701 600.316 17.3701 600.891 17.0151C601.471 16.6601 602.151 16.4826 602.931 16.4826C603.726 16.4826 604.411 16.6626 604.986 17.0226C605.566 17.3826 606.008 17.8851 606.313 18.5301C606.618 19.1751 606.771 19.9151 606.771 20.7501C606.771 21.6001 606.616 22.3476 606.306 22.9926C606.001 23.6376 605.558 24.1401 604.978 24.5001C604.403 24.8551 603.721 25.0326 602.931 25.0326ZM602.931 23.9751C603.516 23.9751 604.008 23.8426 604.408 23.5776C604.808 23.3076 605.106 22.9326 605.301 22.4526C605.501 21.9676 605.601 21.4001 605.601 20.7501C605.601 19.7501 605.373 18.9651 604.918 18.3951C604.468 17.8251 603.806 17.5401 602.931 17.5401C602.051 17.5401 601.386 17.8301 600.936 18.4101C600.491 18.9851 600.268 19.7651 600.268 20.7501C600.268 21.4051 600.368 21.9751 600.568 22.4601C600.773 22.9451 601.073 23.3201 601.468 23.5851C601.868 23.8451 602.356 23.9751 602.931 23.9751ZM610.045 17.2401C610.27 17.0401 610.538 16.8901 610.848 16.7901C611.163 16.6901 611.48 16.6401 611.8 16.6401C612.015 16.6401 612.218 16.6626 612.408 16.7076V17.7426C612.193 17.6926 611.985 17.6676 611.785 17.6676C611.265 17.6676 610.828 17.8151 610.473 18.1101C610.103 18.4001 609.853 18.7701 609.723 19.2201C609.593 19.6701 609.528 20.1851 609.528 20.7651V24.8076H608.425V16.7076H609.415V17.9901C609.59 17.6801 609.8 17.4301 610.045 17.2401ZM619.886 18.1026C620.531 18.0976 621.103 18.2401 621.603 18.5301C622.103 18.8151 622.491 19.2176 622.766 19.7376C623.041 20.2576 623.178 20.8501 623.178 21.5151C623.178 22.1951 623.031 22.8026 622.736 23.3376C622.441 23.8676 622.031 24.2826 621.506 24.5826C620.981 24.8776 620.391 25.0251 619.736 25.0251C619.206 25.0251 618.713 24.9301 618.258 24.7401C617.808 24.5501 617.421 24.2776 617.096 23.9226C616.771 23.5676 616.533 23.1476 616.383 22.6626L617.433 22.3476C617.608 22.8626 617.893 23.2601 618.288 23.5401C618.688 23.8201 619.146 23.9601 619.661 23.9601C620.146 23.9601 620.566 23.8601 620.921 23.6601C621.281 23.4551 621.556 23.1676 621.746 22.7976C621.941 22.4276 622.038 22.0001 622.038 21.5151C622.038 21.0301 621.941 20.6026 621.746 20.2326C621.551 19.8626 621.276 19.5776 620.921 19.3776C620.571 19.1726 620.166 19.0701 619.706 19.0701C619.516 19.0701 619.311 19.0976 619.091 19.1526C618.876 19.2076 618.676 19.2801 618.491 19.3701L617.936 18.4926L621.648 15.0651H616.811V14.0076H623.051V15.0801L619.886 18.1026Z" fill="#4200FF"/>
<path d="M776.805 25.0326C775.75 25.0326 774.85 24.7976 774.105 24.3276C773.36 23.8576 772.795 23.2001 772.41 22.3551C772.025 21.5051 771.833 20.5226 771.833 19.4076C771.833 18.2926 772.025 17.3126 772.41 16.4676C772.795 15.6176 773.36 14.9576 774.105 14.4876C774.85 14.0176 775.75 13.7826 776.805 13.7826C777.625 13.7826 778.353 13.9276 778.988 14.2176C779.628 14.5026 780.158 14.9101 780.578 15.4401C781.003 15.9701 781.315 16.6001 781.515 17.3301L780.39 17.6226C780.155 16.7476 779.735 16.0651 779.13 15.5751C778.525 15.0851 777.75 14.8401 776.805 14.8401C775.975 14.8401 775.275 15.0326 774.705 15.4176C774.135 15.8026 773.708 16.3426 773.423 17.0376C773.138 17.7276 772.995 18.5326 772.995 19.4526C772.995 20.3576 773.138 21.1501 773.423 21.8301C773.713 22.5051 774.143 23.0326 774.713 23.4126C775.288 23.7876 775.985 23.9751 776.805 23.9751C777.75 23.9751 778.525 23.7301 779.13 23.2401C779.735 22.7501 780.155 22.0676 780.39 21.1926L781.515 21.4851C781.315 22.2151 781.003 22.8451 780.578 23.3751C780.158 23.9051 779.628 24.3151 778.988 24.6051C778.353 24.8901 777.625 25.0326 776.805 25.0326ZM786.553 25.0326C785.763 25.0326 785.078 24.8526 784.498 24.4926C783.923 24.1276 783.483 23.6226 783.178 22.9776C782.873 22.3326 782.72 21.5901 782.72 20.7501C782.72 19.9051 782.875 19.1601 783.185 18.5151C783.495 17.8701 783.938 17.3701 784.513 17.0151C785.093 16.6601 785.773 16.4826 786.553 16.4826C787.348 16.4826 788.033 16.6626 788.608 17.0226C789.188 17.3826 789.63 17.8851 789.935 18.5301C790.24 19.1751 790.393 19.9151 790.393 20.7501C790.393 21.6001 790.238 22.3476 789.928 22.9926C789.623 23.6376 789.18 24.1401 788.6 24.5001C788.025 24.8551 787.343 25.0326 786.553 25.0326ZM786.553 23.9751C787.138 23.9751 787.63 23.8426 788.03 23.5776C788.43 23.3076 788.728 22.9326 788.923 22.4526C789.123 21.9676 789.223 21.4001 789.223 20.7501C789.223 19.7501 788.995 18.9651 788.54 18.3951C788.09 17.8251 787.428 17.5401 786.553 17.5401C785.673 17.5401 785.008 17.8301 784.558 18.4101C784.113 18.9851 783.89 19.7651 783.89 20.7501C783.89 21.4051 783.99 21.9751 784.19 22.4601C784.395 22.9451 784.695 23.3201 785.09 23.5851C785.49 23.8451 785.978 23.9751 786.553 23.9751ZM793.3 24.8076H792.197V13.7826H793.3V24.8076ZM798.931 25.0326C798.141 25.0326 797.456 24.8526 796.876 24.4926C796.301 24.1276 795.861 23.6226 795.556 22.9776C795.251 22.3326 795.098 21.5901 795.098 20.7501C795.098 19.9051 795.253 19.1601 795.563 18.5151C795.873 17.8701 796.316 17.3701 796.891 17.0151C797.471 16.6601 798.151 16.4826 798.931 16.4826C799.726 16.4826 800.411 16.6626 800.986 17.0226C801.566 17.3826 802.008 17.8851 802.313 18.5301C802.618 19.1751 802.771 19.9151 802.771 20.7501C802.771 21.6001 802.616 22.3476 802.306 22.9926C802.001 23.6376 801.558 24.1401 800.978 24.5001C800.403 24.8551 799.721 25.0326 798.931 25.0326ZM798.931 23.9751C799.516 23.9751 800.008 23.8426 800.408 23.5776C800.808 23.3076 801.106 22.9326 801.301 22.4526C801.501 21.9676 801.601 21.4001 801.601 20.7501C801.601 19.7501 801.373 18.9651 800.918 18.3951C800.468 17.8251 799.806 17.5401 798.931 17.5401C798.051 17.5401 797.386 17.8301 796.936 18.4101C796.491 18.9851 796.268 19.7651 796.268 20.7501C796.268 21.4051 796.368 21.9751 796.568 22.4601C796.773 22.9451 797.073 23.3201 797.468 23.5851C797.868 23.8451 798.356 23.9751 798.931 23.9751ZM806.045 17.2401C806.27 17.0401 806.538 16.8901 806.848 16.7901C807.163 16.6901 807.48 16.6401 807.8 16.6401C808.015 16.6401 808.218 16.6626 808.408 16.7076V17.7426C808.193 17.6926 807.985 17.6676 807.785 17.6676C807.265 17.6676 806.828 17.8151 806.473 18.1101C806.103 18.4001 805.853 18.7701 805.723 19.2201C805.593 19.6701 805.528 20.1851 805.528 20.7651V24.8076H804.425V16.7076H805.415V17.9901C805.59 17.6801 805.8 17.4301 806.045 17.2401ZM818.698 24.8076H817.588V22.7151H812.533V21.6651L816.148 14.0076H817.386L813.771 21.6651H817.588V18.5151H818.698V21.6651H819.876V22.7151H818.698V24.8076Z" fill="#4200FF"/>
<rect width="919" height="162.925" transform="translate(0 37.3496)" fill="#F2F2F2"/>
<path d="M13.1525 167.315H12.05V156.515H13.1525V161.383H19.1225V156.515H20.2175V167.315H19.1225V162.44H13.1525V167.315ZM23.0461 163.573C23.0911 164.503 23.3436 165.22 23.8036 165.725C24.2636 166.23 24.8961 166.483 25.7011 166.483C26.2761 166.483 26.7811 166.35 27.2161 166.085C27.6511 165.815 27.9936 165.428 28.2436 164.923L29.2711 165.32C28.9511 166.025 28.4811 166.573 27.8611 166.963C27.2411 167.348 26.5361 167.54 25.7461 167.54C24.9661 167.54 24.2836 167.365 23.6986 167.015C23.1136 166.665 22.6611 166.173 22.3411 165.538C22.0261 164.898 21.8686 164.153 21.8686 163.303C21.8686 162.428 22.0236 161.665 22.3336 161.015C22.6486 160.365 23.0936 159.865 23.6686 159.515C24.2486 159.165 24.9261 158.99 25.7011 158.99C26.4761 158.99 27.1411 159.165 27.6961 159.515C28.2561 159.86 28.6836 160.36 28.9786 161.015C29.2786 161.665 29.4286 162.44 29.4286 163.34V163.573H23.0461ZM25.7311 160.003C24.9561 160.003 24.3386 160.23 23.8786 160.685C23.4236 161.14 23.1536 161.795 23.0686 162.65H28.2736C28.1936 161.775 27.9386 161.115 27.5086 160.67C27.0786 160.225 26.4861 160.003 25.7311 160.003ZM31.2275 167.315H29.9L33.065 163.22L29.9675 159.215H31.2875L33.71 162.373L36.11 159.215H37.43L34.3325 163.22L37.505 167.315H36.1775L33.71 164.068L31.2275 167.315Z" fill="#100F0F"/>
<rect x="185.828" y="58.3496" width="139" height="95" rx="5.67161" fill="#4200FF"/>
<path d="M190.006 177.342H188.911L189.781 174.095H186.728L187.006 173.037H190.066L190.703 170.63H187.651L187.936 169.572H190.996L191.798 166.55H192.901L192.083 169.572H194.596L195.398 166.55H196.501L195.683 169.572H198.736L198.451 170.63H195.406L194.753 173.037H197.806L197.521 174.095H194.476L193.606 177.342H192.511L193.373 174.095H190.876L190.006 177.342ZM191.806 170.63L191.161 173.037H193.666L194.303 170.63H191.806ZM206.557 177.35H205.447V175.257H200.392V174.207L204.007 166.55H205.244L201.629 174.207H205.447V171.057H206.557V174.207H207.734V175.257H206.557V177.35ZM210.919 176.285H216.289V177.342H209.239L209.247 176.337L214.129 171.927C214.524 171.572 214.797 171.225 214.947 170.885C215.097 170.545 215.172 170.172 215.172 169.767C215.172 169.327 215.067 168.927 214.857 168.567C214.652 168.202 214.369 167.915 214.009 167.705C213.649 167.49 213.252 167.382 212.817 167.382C212.367 167.382 211.959 167.492 211.594 167.712C211.229 167.927 210.942 168.217 210.732 168.582C210.527 168.947 210.427 169.34 210.432 169.76H209.307C209.307 169.115 209.459 168.53 209.764 168.005C210.074 167.48 210.497 167.07 211.032 166.775C211.572 166.475 212.172 166.325 212.832 166.325C213.477 166.325 214.062 166.477 214.587 166.782C215.117 167.087 215.532 167.505 215.832 168.035C216.137 168.56 216.289 169.14 216.289 169.775C216.289 170.22 216.234 170.612 216.124 170.952C216.019 171.287 215.857 171.6 215.637 171.89C215.422 172.18 215.129 172.49 214.759 172.82L210.919 176.285ZM221.619 177.575C220.959 177.575 220.359 177.422 219.819 177.117C219.284 176.807 218.861 176.385 218.551 175.85C218.246 175.31 218.094 174.71 218.094 174.05V169.85C218.094 169.19 218.246 168.592 218.551 168.057C218.861 167.517 219.284 167.095 219.819 166.79C220.359 166.48 220.959 166.325 221.619 166.325C222.279 166.325 222.876 166.48 223.411 166.79C223.951 167.095 224.374 167.517 224.679 168.057C224.989 168.592 225.144 169.19 225.144 169.85V174.05C225.144 174.71 224.989 175.31 224.679 175.85C224.374 176.385 223.951 176.807 223.411 177.117C222.876 177.422 222.279 177.575 221.619 177.575ZM221.619 176.51C222.054 176.51 222.456 176.402 222.826 176.187C223.196 175.972 223.489 175.68 223.704 175.31C223.919 174.94 224.026 174.537 224.026 174.102V169.797C224.026 169.357 223.919 168.955 223.704 168.59C223.489 168.22 223.196 167.927 222.826 167.712C222.456 167.492 222.054 167.382 221.619 167.382C221.184 167.382 220.781 167.492 220.411 167.712C220.041 167.927 219.749 168.22 219.534 168.59C219.319 168.955 219.211 169.357 219.211 169.797V174.102C219.211 174.537 219.319 174.94 219.534 175.31C219.749 175.68 220.041 175.972 220.411 176.187C220.781 176.402 221.184 176.51 221.619 176.51ZM230.774 177.575C230.114 177.575 229.514 177.422 228.974 177.117C228.439 176.807 228.017 176.385 227.707 175.85C227.402 175.31 227.249 174.71 227.249 174.05V169.85C227.249 169.19 227.402 168.592 227.707 168.057C228.017 167.517 228.439 167.095 228.974 166.79C229.514 166.48 230.114 166.325 230.774 166.325C231.434 166.325 232.032 166.48 232.567 166.79C233.107 167.095 233.529 167.517 233.834 168.057C234.144 168.592 234.299 169.19 234.299 169.85V174.05C234.299 174.71 234.144 175.31 233.834 175.85C233.529 176.385 233.107 176.807 232.567 177.117C232.032 177.422 231.434 177.575 230.774 177.575ZM230.774 176.51C231.209 176.51 231.612 176.402 231.982 176.187C232.352 175.972 232.644 175.68 232.859 175.31C233.074 174.94 233.182 174.537 233.182 174.102V169.797C233.182 169.357 233.074 168.955 232.859 168.59C232.644 168.22 232.352 167.927 231.982 167.712C231.612 167.492 231.209 167.382 230.774 167.382C230.339 167.382 229.937 167.492 229.567 167.712C229.197 167.927 228.904 168.22 228.689 168.59C228.474 168.955 228.367 169.357 228.367 169.797V174.102C228.367 174.537 228.474 174.94 228.689 175.31C228.904 175.68 229.197 175.972 229.567 176.187C229.937 176.402 230.339 176.51 230.774 176.51ZM237.507 177.35H236.404V166.55H242.607V167.652H237.507V171.402H241.707V172.497H237.507V177.35ZM245.066 177.35H243.963V166.55H250.166V167.652H245.066V171.402H249.266V172.497H245.066V177.35Z" fill="#100F0F"/>
<rect x="380.219" y="58.3496" width="139" height="95" rx="5.67161" fill="#952AFF"/>
<path d="M384.396 177.342H383.301L384.171 174.095H381.119L381.396 173.037H384.456L385.094 170.63H382.041L382.326 169.572H385.386L386.189 166.55H387.291L386.474 169.572H388.986L389.789 166.55H390.891L390.074 169.572H393.126L392.841 170.63H389.796L389.144 173.037H392.196L391.911 174.095H388.866L387.996 177.342H386.901L387.764 174.095H385.266L384.396 177.342ZM386.196 170.63L385.551 173.037H388.056L388.694 170.63H386.196ZM398.637 166.332C399.307 166.332 399.92 166.497 400.475 166.827C401.035 167.152 401.477 167.6 401.802 168.17C402.127 168.74 402.29 169.37 402.29 170.06V173.802C402.29 174.512 402.127 175.155 401.802 175.73C401.477 176.305 401.03 176.757 400.46 177.087C399.895 177.412 399.26 177.575 398.555 177.575C397.94 177.575 397.37 177.44 396.845 177.17C396.32 176.9 395.887 176.522 395.547 176.037L396.395 175.34C396.625 175.7 396.932 175.987 397.317 176.202C397.702 176.417 398.115 176.525 398.555 176.525C399.05 176.525 399.497 176.405 399.897 176.165C400.297 175.925 400.61 175.605 400.835 175.205C401.06 174.8 401.172 174.365 401.172 173.9V172.242C400.847 172.637 400.455 172.95 399.995 173.18C399.535 173.405 399.047 173.517 398.532 173.517C397.877 173.517 397.277 173.36 396.732 173.045C396.187 172.725 395.757 172.292 395.442 171.747C395.132 171.202 394.977 170.6 394.977 169.94C394.977 169.285 395.142 168.682 395.472 168.132C395.802 167.577 396.247 167.14 396.807 166.82C397.372 166.495 397.982 166.332 398.637 166.332ZM398.63 172.49C399.09 172.49 399.515 172.377 399.905 172.152C400.295 171.922 400.602 171.612 400.827 171.222C401.057 170.832 401.172 170.405 401.172 169.94C401.172 169.48 401.06 169.057 400.835 168.672C400.61 168.282 400.302 167.975 399.912 167.75C399.522 167.52 399.097 167.405 398.637 167.405C398.172 167.405 397.745 167.517 397.355 167.742C396.965 167.967 396.655 168.275 396.425 168.665C396.2 169.055 396.087 169.48 396.087 169.94C396.087 170.405 396.2 170.832 396.425 171.222C396.655 171.612 396.965 171.922 397.355 172.152C397.745 172.377 398.17 172.49 398.63 172.49ZM407.699 170.382C408.349 170.382 408.944 170.542 409.484 170.862C410.029 171.177 410.459 171.607 410.774 172.152C411.089 172.697 411.246 173.297 411.246 173.952C411.246 174.602 411.079 175.205 410.744 175.76C410.414 176.315 409.966 176.757 409.401 177.087C408.836 177.412 408.226 177.575 407.571 177.575C407.021 177.575 406.506 177.462 406.026 177.237C405.546 177.007 405.136 176.69 404.796 176.285C404.461 175.875 404.224 175.407 404.084 174.882L405.141 174.597C405.236 174.977 405.406 175.312 405.651 175.602C405.901 175.887 406.196 176.107 406.536 176.262C406.876 176.417 407.231 176.495 407.601 176.495C408.071 176.495 408.499 176.38 408.884 176.15C409.274 175.92 409.581 175.61 409.806 175.22C410.031 174.83 410.144 174.407 410.144 173.952C410.144 173.487 410.026 173.062 409.791 172.677C409.561 172.287 409.251 171.98 408.861 171.755C408.471 171.53 408.051 171.417 407.601 171.417C407.111 171.417 406.679 171.522 406.304 171.732C405.934 171.942 405.631 172.227 405.396 172.587L404.391 172.167L404.721 166.55H410.489V167.607H405.726L405.509 171.2C405.809 170.94 406.146 170.74 406.521 170.6C406.901 170.455 407.294 170.382 407.699 170.382ZM413.996 176.285H419.366V177.342H412.316L412.324 176.337L417.206 171.927C417.601 171.572 417.874 171.225 418.024 170.885C418.174 170.545 418.249 170.172 418.249 169.767C418.249 169.327 418.144 168.927 417.934 168.567C417.729 168.202 417.446 167.915 417.086 167.705C416.726 167.49 416.329 167.382 415.894 167.382C415.444 167.382 415.036 167.492 414.671 167.712C414.306 167.927 414.019 168.217 413.809 168.582C413.604 168.947 413.504 169.34 413.509 169.76H412.384C412.384 169.115 412.536 168.53 412.841 168.005C413.151 167.48 413.574 167.07 414.109 166.775C414.649 166.475 415.249 166.325 415.909 166.325C416.554 166.325 417.139 166.477 417.664 166.782C418.194 167.087 418.609 167.505 418.909 168.035C419.214 168.56 419.366 169.14 419.366 169.775C419.366 170.22 419.311 170.612 419.201 170.952C419.096 171.287 418.934 171.6 418.714 171.89C418.499 172.18 418.206 172.49 417.836 172.82L413.996 176.285ZM429.031 177.35H427.883L426.976 174.732H422.176L421.276 177.35H420.128L423.848 166.55H425.311L429.031 177.35ZM424.568 167.795L422.536 173.697H426.616L424.568 167.795ZM431.487 177.35H430.385V166.55H436.587V167.652H431.487V171.402H435.687V172.497H431.487V177.35ZM439.046 177.35H437.944V166.55H444.146V167.652H439.046V171.402H443.246V172.497H439.046V177.35Z" fill="#100F0F"/>
<rect x="574.609" y="58.3496" width="139" height="95" rx="5.67161" fill="#FF3DA8"/>
<path d="M578.787 177.342H577.692L578.562 174.095H575.509L575.787 173.037H578.847L579.484 170.63H576.432L576.717 169.572H579.777L580.579 166.55H581.682L580.864 169.572H583.377L584.179 166.55H585.282L584.464 169.572H587.517L587.232 170.63H584.187L583.534 173.037H586.587L586.302 174.095H583.257L582.387 177.342H581.292L582.154 174.095H579.657L578.787 177.342ZM580.587 170.63L579.942 173.037H582.447L583.084 170.63H580.587ZM590.575 177.35H589.473V166.55H595.675V167.652H590.575V171.402H594.775V172.497H590.575V177.35ZM598.134 177.35H597.031V166.55H603.234V167.652H598.134V171.402H602.334V172.497H598.134V177.35ZM607.643 170.645C608.288 170.64 608.86 170.782 609.36 171.072C609.86 171.357 610.248 171.76 610.523 172.28C610.798 172.8 610.935 173.392 610.935 174.057C610.935 174.737 610.788 175.345 610.493 175.88C610.198 176.41 609.788 176.825 609.263 177.125C608.738 177.42 608.148 177.567 607.493 177.567C606.963 177.567 606.47 177.472 606.015 177.282C605.565 177.092 605.178 176.82 604.853 176.465C604.528 176.11 604.29 175.69 604.14 175.205L605.19 174.89C605.365 175.405 605.65 175.802 606.045 176.082C606.445 176.362 606.903 176.502 607.418 176.502C607.903 176.502 608.323 176.402 608.678 176.202C609.038 175.997 609.313 175.71 609.503 175.34C609.698 174.97 609.795 174.542 609.795 174.057C609.795 173.572 609.698 173.145 609.503 172.775C609.308 172.405 609.033 172.12 608.678 171.92C608.328 171.715 607.923 171.612 607.463 171.612C607.273 171.612 607.068 171.64 606.848 171.695C606.633 171.75 606.433 171.822 606.248 171.912L605.693 171.035L609.405 167.607H604.568V166.55H610.808V167.622L607.643 170.645ZM612.881 177.35V166.55H616.159C616.739 166.55 617.201 166.572 617.546 166.617C618.341 166.727 619.016 167.027 619.571 167.517C620.131 168.007 620.551 168.635 620.831 169.4C621.111 170.165 621.251 171.015 621.251 171.95C621.251 172.89 621.111 173.742 620.831 174.507C620.551 175.272 620.134 175.9 619.579 176.39C619.024 176.875 618.346 177.172 617.546 177.282C617.211 177.327 616.749 177.35 616.159 177.35H612.881ZM616.159 176.292C616.704 176.292 617.129 176.262 617.434 176.202C618.334 176.047 618.999 175.587 619.429 174.822C619.864 174.057 620.081 173.1 620.081 171.95C620.081 170.795 619.864 169.837 619.429 169.077C618.994 168.317 618.329 167.857 617.434 167.697C617.129 167.637 616.704 167.607 616.159 167.607H614.021V176.292H616.159ZM630.819 177.35H629.671L628.764 174.732H623.964L623.064 177.35H621.916L625.636 166.55H627.099L630.819 177.35ZM626.356 167.795L624.324 173.697H628.404L626.356 167.795ZM637.408 171.575C637.903 171.865 638.281 172.247 638.541 172.722C638.801 173.197 638.931 173.73 638.931 174.32C638.931 174.97 638.783 175.54 638.488 176.03C638.198 176.52 637.791 176.9 637.266 177.17C636.741 177.44 636.141 177.575 635.466 177.575C634.796 177.575 634.198 177.44 633.673 177.17C633.153 176.9 632.748 176.52 632.458 176.03C632.168 175.54 632.023 174.97 632.023 174.32C632.023 173.72 632.148 173.182 632.398 172.707C632.653 172.232 633.033 171.852 633.538 171.567C633.128 171.322 632.816 170.995 632.601 170.585C632.386 170.175 632.278 169.722 632.278 169.227C632.278 168.637 632.413 168.125 632.683 167.69C632.953 167.25 633.328 166.912 633.808 166.677C634.293 166.442 634.846 166.325 635.466 166.325C636.086 166.325 636.636 166.442 637.116 166.677C637.601 166.912 637.978 167.25 638.248 167.69C638.523 168.125 638.661 168.637 638.661 169.227C638.661 169.727 638.553 170.185 638.338 170.6C638.128 171.01 637.818 171.335 637.408 171.575ZM635.466 167.412C634.846 167.412 634.353 167.567 633.988 167.877C633.628 168.187 633.448 168.637 633.448 169.227C633.448 169.817 633.631 170.27 633.996 170.585C634.361 170.9 634.851 171.057 635.466 171.057C636.086 171.057 636.578 170.9 636.943 170.585C637.308 170.27 637.491 169.817 637.491 169.227C637.491 168.637 637.308 168.187 636.943 167.877C636.578 167.567 636.086 167.412 635.466 167.412ZM635.466 176.517C635.926 176.517 636.328 176.432 636.673 176.262C637.018 176.092 637.286 175.842 637.476 175.512C637.666 175.182 637.761 174.785 637.761 174.32C637.761 173.615 637.553 173.072 637.138 172.692C636.728 172.312 636.171 172.122 635.466 172.122C634.761 172.122 634.203 172.312 633.793 172.692C633.388 173.072 633.186 173.615 633.186 174.32C633.186 174.785 633.281 175.182 633.471 175.512C633.661 175.842 633.926 176.092 634.266 176.262C634.611 176.432 635.011 176.517 635.466 176.517Z" fill="#100F0F"/>
<rect x="769" y="58.3496" width="139" height="95" rx="5.67161" fill="#F64704"/>
<path d="M773.178 177.342H772.083L772.953 174.095H769.9L770.178 173.037H773.237L773.875 170.63H770.823L771.108 169.572H774.168L774.97 166.55H776.073L775.255 169.572H777.768L778.57 166.55H779.673L778.855 169.572H781.908L781.623 170.63H778.578L777.925 173.037H780.978L780.693 174.095H777.647L776.778 177.342H775.683L776.545 174.095H774.048L773.178 177.342ZM774.978 170.63L774.333 173.037H776.838L777.475 170.63H774.978ZM784.966 177.35H783.863V166.55H790.066V167.652H784.966V171.402H789.166V172.497H784.966V177.35ZM795.18 170.39C795.835 170.39 796.435 170.55 796.98 170.87C797.525 171.185 797.952 171.615 798.262 172.16C798.577 172.705 798.735 173.307 798.735 173.967C798.735 174.622 798.57 175.227 798.24 175.782C797.91 176.332 797.462 176.77 796.897 177.095C796.337 177.415 795.73 177.575 795.075 177.575C794.405 177.575 793.79 177.412 793.23 177.087C792.675 176.757 792.235 176.307 791.91 175.737C791.585 175.167 791.422 174.537 791.422 173.847V170.105C791.422 169.395 791.585 168.752 791.91 168.177C792.235 167.602 792.68 167.152 793.245 166.827C793.815 166.497 794.452 166.332 795.157 166.332C795.772 166.332 796.342 166.467 796.867 166.737C797.392 167.007 797.825 167.385 798.165 167.87L797.317 168.567C797.087 168.207 796.78 167.92 796.395 167.705C796.01 167.49 795.597 167.382 795.157 167.382C794.662 167.382 794.215 167.502 793.815 167.742C793.415 167.982 793.102 168.305 792.877 168.71C792.652 169.11 792.54 169.542 792.54 170.007V171.665C792.865 171.27 793.257 170.96 793.717 170.735C794.177 170.505 794.665 170.39 795.18 170.39ZM795.075 176.502C795.54 176.502 795.967 176.39 796.357 176.165C796.747 175.94 797.055 175.632 797.28 175.242C797.51 174.852 797.625 174.427 797.625 173.967C797.625 173.502 797.51 173.075 797.28 172.685C797.055 172.295 796.747 171.987 796.357 171.762C795.967 171.532 795.542 171.417 795.082 171.417C794.622 171.417 794.197 171.532 793.807 171.762C793.417 171.987 793.107 172.295 792.877 172.685C792.652 173.075 792.54 173.502 792.54 173.967C792.54 174.427 792.652 174.852 792.877 175.242C793.102 175.627 793.41 175.935 793.8 176.165C794.19 176.39 794.615 176.502 795.075 176.502ZM806.589 177.35H805.479V175.257H800.424V174.207L804.039 166.55H805.276L801.661 174.207H805.479V171.057H806.589V174.207H807.766V175.257H806.589V177.35ZM811.334 177.35H810.149L814.124 167.622H809.121V166.55H815.301V167.622L811.334 177.35ZM820.626 177.575C819.966 177.575 819.366 177.422 818.826 177.117C818.291 176.807 817.868 176.385 817.558 175.85C817.253 175.31 817.101 174.71 817.101 174.05V169.85C817.101 169.19 817.253 168.592 817.558 168.057C817.868 167.517 818.291 167.095 818.826 166.79C819.366 166.48 819.966 166.325 820.626 166.325C821.286 166.325 821.883 166.48 822.418 166.79C822.958 167.095 823.381 167.517 823.686 168.057C823.996 168.592 824.151 169.19 824.151 169.85V174.05C824.151 174.71 823.996 175.31 823.686 175.85C823.381 176.385 822.958 176.807 822.418 177.117C821.883 177.422 821.286 177.575 820.626 177.575ZM820.626 176.51C821.061 176.51 821.463 176.402 821.833 176.187C822.203 175.972 822.496 175.68 822.711 175.31C822.926 174.94 823.033 174.537 823.033 174.102V169.797C823.033 169.357 822.926 168.955 822.711 168.59C822.496 168.22 822.203 167.927 821.833 167.712C821.463 167.492 821.061 167.382 820.626 167.382C820.191 167.382 819.788 167.492 819.418 167.712C819.048 167.927 818.756 168.22 818.541 168.59C818.326 168.955 818.218 169.357 818.218 169.797V174.102C818.218 174.537 818.326 174.94 818.541 175.31C818.756 175.68 819.048 175.972 819.418 176.187C819.788 176.402 820.191 176.51 820.626 176.51ZM832.121 177.35H831.011V175.257H825.956V174.207L829.571 166.55H830.809L827.194 174.207H831.011V171.057H832.121V174.207H833.299V175.257H832.121V177.35Z" fill="#100F0F"/>
<path d="M0 37.3486H919" stroke="#100F0F"/>
</svg>
