<svg width="919" height="201" viewBox="0 0 919 201" fill="none" xmlns="http://www.w3.org/2000/svg">
<rect width="919" height="37.1581" transform="translate(0 0.191406)" fill="#F2F2F2"/>
<path d="M191.873 25.0326C190.818 25.0326 189.91 24.7976 189.15 24.3276C188.395 23.8576 187.82 23.2001 187.425 22.3551C187.03 21.5051 186.833 20.5226 186.833 19.4076C186.833 18.2926 187.03 17.3126 187.425 16.4676C187.82 15.6176 188.395 14.9576 189.15 14.4876C189.91 14.0176 190.818 13.7826 191.873 13.7826C192.693 13.7826 193.423 13.9251 194.063 14.2101C194.703 14.4951 195.238 14.9026 195.668 15.4326C196.103 15.9576 196.423 16.5801 196.628 17.3001L195.27 17.6601C195.045 16.8351 194.645 16.1951 194.07 15.7401C193.495 15.2851 192.763 15.0576 191.873 15.0576C191.083 15.0576 190.415 15.2401 189.87 15.6051C189.325 15.9701 188.918 16.4826 188.648 17.1426C188.378 17.8026 188.243 18.5726 188.243 19.4526C188.243 20.3176 188.38 21.0726 188.655 21.7176C188.93 22.3626 189.338 22.8651 189.878 23.2251C190.423 23.5801 191.088 23.7576 191.873 23.7576C192.763 23.7576 193.495 23.5301 194.07 23.0751C194.645 22.6201 195.045 21.9801 195.27 21.1551L196.628 21.5151C196.423 22.2351 196.103 22.8601 195.668 23.3901C195.238 23.9151 194.703 24.3201 194.063 24.6051C193.423 24.8901 192.693 25.0326 191.873 25.0326ZM201.723 25.0326C200.928 25.0326 200.235 24.8526 199.645 24.4926C199.06 24.1276 198.61 23.6226 198.295 22.9776C197.98 22.3276 197.823 21.5851 197.823 20.7501C197.823 19.9101 197.983 19.1676 198.303 18.5226C198.623 17.8776 199.078 17.3776 199.668 17.0226C200.258 16.6626 200.943 16.4826 201.723 16.4826C202.518 16.4826 203.21 16.6626 203.8 17.0226C204.39 17.3826 204.843 17.8851 205.158 18.5301C205.473 19.1751 205.63 19.9151 205.63 20.7501C205.63 21.5951 205.47 22.3426 205.15 22.9926C204.835 23.6376 204.383 24.1401 203.793 24.5001C203.203 24.8551 202.513 25.0326 201.723 25.0326ZM201.723 23.7651C202.538 23.7651 203.155 23.4951 203.575 22.9551C204 22.4101 204.213 21.6751 204.213 20.7501C204.213 19.8151 204 19.0826 203.575 18.5526C203.15 18.0176 202.533 17.7501 201.723 17.7501C200.903 17.7501 200.283 18.0201 199.863 18.5601C199.448 19.1001 199.24 19.8301 199.24 20.7501C199.24 21.6851 199.453 22.4226 199.878 22.9626C200.308 23.4976 200.923 23.7651 201.723 23.7651ZM208.766 24.8076H207.431V13.7826H208.766V24.8076ZM214.467 25.0326C213.672 25.0326 212.979 24.8526 212.389 24.4926C211.804 24.1276 211.354 23.6226 211.039 22.9776C210.724 22.3276 210.567 21.5851 210.567 20.7501C210.567 19.9101 210.727 19.1676 211.047 18.5226C211.367 17.8776 211.822 17.3776 212.412 17.0226C213.002 16.6626 213.687 16.4826 214.467 16.4826C215.262 16.4826 215.954 16.6626 216.544 17.0226C217.134 17.3826 217.587 17.8851 217.902 18.5301C218.217 19.1751 218.374 19.9151 218.374 20.7501C218.374 21.5951 218.214 22.3426 217.894 22.9926C217.579 23.6376 217.127 24.1401 216.537 24.5001C215.947 24.8551 215.257 25.0326 214.467 25.0326ZM214.467 23.7651C215.282 23.7651 215.899 23.4951 216.319 22.9551C216.744 22.4101 216.957 21.6751 216.957 20.7501C216.957 19.8151 216.744 19.0826 216.319 18.5526C215.894 18.0176 215.277 17.7501 214.467 17.7501C213.647 17.7501 213.027 18.0201 212.607 18.5601C212.192 19.1001 211.984 19.8301 211.984 20.7501C211.984 21.6851 212.197 22.4226 212.622 22.9626C213.052 23.4976 213.667 23.7651 214.467 23.7651ZM221.908 17.2026C222.133 17.0226 222.398 16.8851 222.703 16.7901C223.008 16.6951 223.316 16.6476 223.626 16.6476C223.821 16.6476 224.013 16.6676 224.203 16.7076V17.9601C223.993 17.9101 223.791 17.8851 223.596 17.8851C223.111 17.8851 222.696 18.0126 222.351 18.2676C221.986 18.5276 221.731 18.8701 221.586 19.2951C221.441 19.7151 221.368 20.1976 221.368 20.7426V24.8076H220.026V16.7076H221.218V17.9901C221.408 17.6601 221.638 17.3976 221.908 17.2026ZM231.864 24.8076H230.507V15.4851L228.474 16.7151V15.2226L230.507 14.0076H231.864V24.8076Z" fill="#4200FF"/>
<path d="M386.873 25.0326C385.818 25.0326 384.91 24.7976 384.15 24.3276C383.395 23.8576 382.82 23.2001 382.425 22.3551C382.03 21.5051 381.833 20.5226 381.833 19.4076C381.833 18.2926 382.03 17.3126 382.425 16.4676C382.82 15.6176 383.395 14.9576 384.15 14.4876C384.91 14.0176 385.818 13.7826 386.873 13.7826C387.693 13.7826 388.423 13.9251 389.063 14.2101C389.703 14.4951 390.238 14.9026 390.668 15.4326C391.103 15.9576 391.423 16.5801 391.628 17.3001L390.27 17.6601C390.045 16.8351 389.645 16.1951 389.07 15.7401C388.495 15.2851 387.763 15.0576 386.873 15.0576C386.083 15.0576 385.415 15.2401 384.87 15.6051C384.325 15.9701 383.918 16.4826 383.648 17.1426C383.378 17.8026 383.243 18.5726 383.243 19.4526C383.243 20.3176 383.38 21.0726 383.655 21.7176C383.93 22.3626 384.338 22.8651 384.878 23.2251C385.423 23.5801 386.088 23.7576 386.873 23.7576C387.763 23.7576 388.495 23.5301 389.07 23.0751C389.645 22.6201 390.045 21.9801 390.27 21.1551L391.628 21.5151C391.423 22.2351 391.103 22.8601 390.668 23.3901C390.238 23.9151 389.703 24.3201 389.063 24.6051C388.423 24.8901 387.693 25.0326 386.873 25.0326ZM396.723 25.0326C395.928 25.0326 395.235 24.8526 394.645 24.4926C394.06 24.1276 393.61 23.6226 393.295 22.9776C392.98 22.3276 392.823 21.5851 392.823 20.7501C392.823 19.9101 392.983 19.1676 393.303 18.5226C393.623 17.8776 394.078 17.3776 394.668 17.0226C395.258 16.6626 395.943 16.4826 396.723 16.4826C397.518 16.4826 398.21 16.6626 398.8 17.0226C399.39 17.3826 399.843 17.8851 400.158 18.5301C400.473 19.1751 400.63 19.9151 400.63 20.7501C400.63 21.5951 400.47 22.3426 400.15 22.9926C399.835 23.6376 399.383 24.1401 398.793 24.5001C398.203 24.8551 397.513 25.0326 396.723 25.0326ZM396.723 23.7651C397.538 23.7651 398.155 23.4951 398.575 22.9551C399 22.4101 399.213 21.6751 399.213 20.7501C399.213 19.8151 399 19.0826 398.575 18.5526C398.15 18.0176 397.533 17.7501 396.723 17.7501C395.903 17.7501 395.283 18.0201 394.863 18.5601C394.448 19.1001 394.24 19.8301 394.24 20.7501C394.24 21.6851 394.453 22.4226 394.878 22.9626C395.308 23.4976 395.923 23.7651 396.723 23.7651ZM403.766 24.8076H402.431V13.7826H403.766V24.8076ZM409.467 25.0326C408.672 25.0326 407.979 24.8526 407.389 24.4926C406.804 24.1276 406.354 23.6226 406.039 22.9776C405.724 22.3276 405.567 21.5851 405.567 20.7501C405.567 19.9101 405.727 19.1676 406.047 18.5226C406.367 17.8776 406.822 17.3776 407.412 17.0226C408.002 16.6626 408.687 16.4826 409.467 16.4826C410.262 16.4826 410.954 16.6626 411.544 17.0226C412.134 17.3826 412.587 17.8851 412.902 18.5301C413.217 19.1751 413.374 19.9151 413.374 20.7501C413.374 21.5951 413.214 22.3426 412.894 22.9926C412.579 23.6376 412.127 24.1401 411.537 24.5001C410.947 24.8551 410.257 25.0326 409.467 25.0326ZM409.467 23.7651C410.282 23.7651 410.899 23.4951 411.319 22.9551C411.744 22.4101 411.957 21.6751 411.957 20.7501C411.957 19.8151 411.744 19.0826 411.319 18.5526C410.894 18.0176 410.277 17.7501 409.467 17.7501C408.647 17.7501 408.027 18.0201 407.607 18.5601C407.192 19.1001 406.984 19.8301 406.984 20.7501C406.984 21.6851 407.197 22.4226 407.622 22.9626C408.052 23.4976 408.667 23.7651 409.467 23.7651ZM416.908 17.2026C417.133 17.0226 417.398 16.8851 417.703 16.7901C418.008 16.6951 418.316 16.6476 418.626 16.6476C418.821 16.6476 419.013 16.6676 419.203 16.7076V17.9601C418.993 17.9101 418.791 17.8851 418.596 17.8851C418.111 17.8851 417.696 18.0126 417.351 18.2676C416.986 18.5276 416.731 18.8701 416.586 19.2951C416.441 19.7151 416.368 20.1976 416.368 20.7426V24.8076H415.026V16.7076H416.218V17.9901C416.408 17.6601 416.638 17.3976 416.908 17.2026ZM425.379 23.5251H430.502V24.8001H423.324L423.332 23.6001L428.124 19.2876C428.499 18.9476 428.762 18.6176 428.912 18.2976C429.062 17.9776 429.137 17.6351 429.137 17.2701C429.137 16.8601 429.042 16.4876 428.852 16.1526C428.662 15.8126 428.402 15.5451 428.072 15.3501C427.742 15.1551 427.372 15.0576 426.962 15.0576C426.542 15.0576 426.162 15.1601 425.822 15.3651C425.482 15.5651 425.214 15.8351 425.019 16.1751C424.829 16.5101 424.737 16.8726 424.742 17.2626H423.377C423.377 16.5926 423.532 15.9951 423.842 15.4701C424.157 14.9401 424.587 14.5276 425.132 14.2326C425.682 13.9326 426.299 13.7826 426.984 13.7826C427.644 13.7826 428.242 13.9376 428.777 14.2476C429.312 14.5526 429.732 14.9726 430.037 15.5076C430.347 16.0376 430.502 16.6301 430.502 17.2851C430.502 17.7451 430.442 18.1476 430.322 18.4926C430.207 18.8326 430.034 19.1476 429.804 19.4376C429.574 19.7226 429.259 20.0426 428.859 20.3976L425.379 23.5251Z" fill="#4200FF"/>
<path d="M580.805 25.0326C579.75 25.0326 578.85 24.7976 578.105 24.3276C577.36 23.8576 576.795 23.2001 576.41 22.3551C576.025 21.5051 575.833 20.5226 575.833 19.4076C575.833 18.2926 576.025 17.3126 576.41 16.4676C576.795 15.6176 577.36 14.9576 578.105 14.4876C578.85 14.0176 579.75 13.7826 580.805 13.7826C581.625 13.7826 582.353 13.9276 582.988 14.2176C583.628 14.5026 584.158 14.9101 584.578 15.4401C585.003 15.9701 585.315 16.6001 585.515 17.3301L584.39 17.6226C584.155 16.7476 583.735 16.0651 583.13 15.5751C582.525 15.0851 581.75 14.8401 580.805 14.8401C579.975 14.8401 579.275 15.0326 578.705 15.4176C578.135 15.8026 577.708 16.3426 577.423 17.0376C577.138 17.7276 576.995 18.5326 576.995 19.4526C576.995 20.3576 577.138 21.1501 577.423 21.8301C577.713 22.5051 578.143 23.0326 578.713 23.4126C579.288 23.7876 579.985 23.9751 580.805 23.9751C581.75 23.9751 582.525 23.7301 583.13 23.2401C583.735 22.7501 584.155 22.0676 584.39 21.1926L585.515 21.4851C585.315 22.2151 585.003 22.8451 584.578 23.3751C584.158 23.9051 583.628 24.3151 582.988 24.6051C582.353 24.8901 581.625 25.0326 580.805 25.0326ZM590.553 25.0326C589.763 25.0326 589.078 24.8526 588.498 24.4926C587.923 24.1276 587.483 23.6226 587.178 22.9776C586.873 22.3326 586.72 21.5901 586.72 20.7501C586.72 19.9051 586.875 19.1601 587.185 18.5151C587.495 17.8701 587.938 17.3701 588.513 17.0151C589.093 16.6601 589.773 16.4826 590.553 16.4826C591.348 16.4826 592.033 16.6626 592.608 17.0226C593.188 17.3826 593.63 17.8851 593.935 18.5301C594.24 19.1751 594.393 19.9151 594.393 20.7501C594.393 21.6001 594.238 22.3476 593.928 22.9926C593.623 23.6376 593.18 24.1401 592.6 24.5001C592.025 24.8551 591.343 25.0326 590.553 25.0326ZM590.553 23.9751C591.138 23.9751 591.63 23.8426 592.03 23.5776C592.43 23.3076 592.728 22.9326 592.923 22.4526C593.123 21.9676 593.223 21.4001 593.223 20.7501C593.223 19.7501 592.995 18.9651 592.54 18.3951C592.09 17.8251 591.428 17.5401 590.553 17.5401C589.673 17.5401 589.008 17.8301 588.558 18.4101C588.113 18.9851 587.89 19.7651 587.89 20.7501C587.89 21.4051 587.99 21.9751 588.19 22.4601C588.395 22.9451 588.695 23.3201 589.09 23.5851C589.49 23.8451 589.978 23.9751 590.553 23.9751ZM597.3 24.8076H596.197V13.7826H597.3V24.8076ZM602.931 25.0326C602.141 25.0326 601.456 24.8526 600.876 24.4926C600.301 24.1276 599.861 23.6226 599.556 22.9776C599.251 22.3326 599.098 21.5901 599.098 20.7501C599.098 19.9051 599.253 19.1601 599.563 18.5151C599.873 17.8701 600.316 17.3701 600.891 17.0151C601.471 16.6601 602.151 16.4826 602.931 16.4826C603.726 16.4826 604.411 16.6626 604.986 17.0226C605.566 17.3826 606.008 17.8851 606.313 18.5301C606.618 19.1751 606.771 19.9151 606.771 20.7501C606.771 21.6001 606.616 22.3476 606.306 22.9926C606.001 23.6376 605.558 24.1401 604.978 24.5001C604.403 24.8551 603.721 25.0326 602.931 25.0326ZM602.931 23.9751C603.516 23.9751 604.008 23.8426 604.408 23.5776C604.808 23.3076 605.106 22.9326 605.301 22.4526C605.501 21.9676 605.601 21.4001 605.601 20.7501C605.601 19.7501 605.373 18.9651 604.918 18.3951C604.468 17.8251 603.806 17.5401 602.931 17.5401C602.051 17.5401 601.386 17.8301 600.936 18.4101C600.491 18.9851 600.268 19.7651 600.268 20.7501C600.268 21.4051 600.368 21.9751 600.568 22.4601C600.773 22.9451 601.073 23.3201 601.468 23.5851C601.868 23.8451 602.356 23.9751 602.931 23.9751ZM610.045 17.2401C610.27 17.0401 610.538 16.8901 610.848 16.7901C611.163 16.6901 611.48 16.6401 611.8 16.6401C612.015 16.6401 612.218 16.6626 612.408 16.7076V17.7426C612.193 17.6926 611.985 17.6676 611.785 17.6676C611.265 17.6676 610.828 17.8151 610.473 18.1101C610.103 18.4001 609.853 18.7701 609.723 19.2201C609.593 19.6701 609.528 20.1851 609.528 20.7651V24.8076H608.425V16.7076H609.415V17.9901C609.59 17.6801 609.8 17.4301 610.045 17.2401ZM619.886 18.1026C620.531 18.0976 621.103 18.2401 621.603 18.5301C622.103 18.8151 622.491 19.2176 622.766 19.7376C623.041 20.2576 623.178 20.8501 623.178 21.5151C623.178 22.1951 623.031 22.8026 622.736 23.3376C622.441 23.8676 622.031 24.2826 621.506 24.5826C620.981 24.8776 620.391 25.0251 619.736 25.0251C619.206 25.0251 618.713 24.9301 618.258 24.7401C617.808 24.5501 617.421 24.2776 617.096 23.9226C616.771 23.5676 616.533 23.1476 616.383 22.6626L617.433 22.3476C617.608 22.8626 617.893 23.2601 618.288 23.5401C618.688 23.8201 619.146 23.9601 619.661 23.9601C620.146 23.9601 620.566 23.8601 620.921 23.6601C621.281 23.4551 621.556 23.1676 621.746 22.7976C621.941 22.4276 622.038 22.0001 622.038 21.5151C622.038 21.0301 621.941 20.6026 621.746 20.2326C621.551 19.8626 621.276 19.5776 620.921 19.3776C620.571 19.1726 620.166 19.0701 619.706 19.0701C619.516 19.0701 619.311 19.0976 619.091 19.1526C618.876 19.2076 618.676 19.2801 618.491 19.3701L617.936 18.4926L621.648 15.0651H616.811V14.0076H623.051V15.0801L619.886 18.1026Z" fill="#4200FF"/>
<path d="M776.805 25.0326C775.75 25.0326 774.85 24.7976 774.105 24.3276C773.36 23.8576 772.795 23.2001 772.41 22.3551C772.025 21.5051 771.833 20.5226 771.833 19.4076C771.833 18.2926 772.025 17.3126 772.41 16.4676C772.795 15.6176 773.36 14.9576 774.105 14.4876C774.85 14.0176 775.75 13.7826 776.805 13.7826C777.625 13.7826 778.353 13.9276 778.988 14.2176C779.628 14.5026 780.158 14.9101 780.578 15.4401C781.003 15.9701 781.315 16.6001 781.515 17.3301L780.39 17.6226C780.155 16.7476 779.735 16.0651 779.13 15.5751C778.525 15.0851 777.75 14.8401 776.805 14.8401C775.975 14.8401 775.275 15.0326 774.705 15.4176C774.135 15.8026 773.708 16.3426 773.423 17.0376C773.138 17.7276 772.995 18.5326 772.995 19.4526C772.995 20.3576 773.138 21.1501 773.423 21.8301C773.713 22.5051 774.143 23.0326 774.713 23.4126C775.288 23.7876 775.985 23.9751 776.805 23.9751C777.75 23.9751 778.525 23.7301 779.13 23.2401C779.735 22.7501 780.155 22.0676 780.39 21.1926L781.515 21.4851C781.315 22.2151 781.003 22.8451 780.578 23.3751C780.158 23.9051 779.628 24.3151 778.988 24.6051C778.353 24.8901 777.625 25.0326 776.805 25.0326ZM786.553 25.0326C785.763 25.0326 785.078 24.8526 784.498 24.4926C783.923 24.1276 783.483 23.6226 783.178 22.9776C782.873 22.3326 782.72 21.5901 782.72 20.7501C782.72 19.9051 782.875 19.1601 783.185 18.5151C783.495 17.8701 783.938 17.3701 784.513 17.0151C785.093 16.6601 785.773 16.4826 786.553 16.4826C787.348 16.4826 788.033 16.6626 788.608 17.0226C789.188 17.3826 789.63 17.8851 789.935 18.5301C790.24 19.1751 790.393 19.9151 790.393 20.7501C790.393 21.6001 790.238 22.3476 789.928 22.9926C789.623 23.6376 789.18 24.1401 788.6 24.5001C788.025 24.8551 787.343 25.0326 786.553 25.0326ZM786.553 23.9751C787.138 23.9751 787.63 23.8426 788.03 23.5776C788.43 23.3076 788.728 22.9326 788.923 22.4526C789.123 21.9676 789.223 21.4001 789.223 20.7501C789.223 19.7501 788.995 18.9651 788.54 18.3951C788.09 17.8251 787.428 17.5401 786.553 17.5401C785.673 17.5401 785.008 17.8301 784.558 18.4101C784.113 18.9851 783.89 19.7651 783.89 20.7501C783.89 21.4051 783.99 21.9751 784.19 22.4601C784.395 22.9451 784.695 23.3201 785.09 23.5851C785.49 23.8451 785.978 23.9751 786.553 23.9751ZM793.3 24.8076H792.197V13.7826H793.3V24.8076ZM798.931 25.0326C798.141 25.0326 797.456 24.8526 796.876 24.4926C796.301 24.1276 795.861 23.6226 795.556 22.9776C795.251 22.3326 795.098 21.5901 795.098 20.7501C795.098 19.9051 795.253 19.1601 795.563 18.5151C795.873 17.8701 796.316 17.3701 796.891 17.0151C797.471 16.6601 798.151 16.4826 798.931 16.4826C799.726 16.4826 800.411 16.6626 800.986 17.0226C801.566 17.3826 802.008 17.8851 802.313 18.5301C802.618 19.1751 802.771 19.9151 802.771 20.7501C802.771 21.6001 802.616 22.3476 802.306 22.9926C802.001 23.6376 801.558 24.1401 800.978 24.5001C800.403 24.8551 799.721 25.0326 798.931 25.0326ZM798.931 23.9751C799.516 23.9751 800.008 23.8426 800.408 23.5776C800.808 23.3076 801.106 22.9326 801.301 22.4526C801.501 21.9676 801.601 21.4001 801.601 20.7501C801.601 19.7501 801.373 18.9651 800.918 18.3951C800.468 17.8251 799.806 17.5401 798.931 17.5401C798.051 17.5401 797.386 17.8301 796.936 18.4101C796.491 18.9851 796.268 19.7651 796.268 20.7501C796.268 21.4051 796.368 21.9751 796.568 22.4601C796.773 22.9451 797.073 23.3201 797.468 23.5851C797.868 23.8451 798.356 23.9751 798.931 23.9751ZM806.045 17.2401C806.27 17.0401 806.538 16.8901 806.848 16.7901C807.163 16.6901 807.48 16.6401 807.8 16.6401C808.015 16.6401 808.218 16.6626 808.408 16.7076V17.7426C808.193 17.6926 807.985 17.6676 807.785 17.6676C807.265 17.6676 806.828 17.8151 806.473 18.1101C806.103 18.4001 805.853 18.7701 805.723 19.2201C805.593 19.6701 805.528 20.1851 805.528 20.7651V24.8076H804.425V16.7076H805.415V17.9901C805.59 17.6801 805.8 17.4301 806.045 17.2401ZM818.698 24.8076H817.588V22.7151H812.533V21.6651L816.148 14.0076H817.386L813.771 21.6651H817.588V18.5151H818.698V21.6651H819.876V22.7151H818.698V24.8076Z" fill="#4200FF"/>
<rect width="919" height="162.925" transform="translate(0 37.3496)" fill="#F2F2F2"/>
<path d="M13.1525 167.315H12.05V156.515H13.1525V161.383H19.1225V156.515H20.2175V167.315H19.1225V162.44H13.1525V167.315ZM23.0461 163.573C23.0911 164.503 23.3436 165.22 23.8036 165.725C24.2636 166.23 24.8961 166.483 25.7011 166.483C26.2761 166.483 26.7811 166.35 27.2161 166.085C27.6511 165.815 27.9936 165.428 28.2436 164.923L29.2711 165.32C28.9511 166.025 28.4811 166.573 27.8611 166.963C27.2411 167.348 26.5361 167.54 25.7461 167.54C24.9661 167.54 24.2836 167.365 23.6986 167.015C23.1136 166.665 22.6611 166.173 22.3411 165.538C22.0261 164.898 21.8686 164.153 21.8686 163.303C21.8686 162.428 22.0236 161.665 22.3336 161.015C22.6486 160.365 23.0936 159.865 23.6686 159.515C24.2486 159.165 24.9261 158.99 25.7011 158.99C26.4761 158.99 27.1411 159.165 27.6961 159.515C28.2561 159.86 28.6836 160.36 28.9786 161.015C29.2786 161.665 29.4286 162.44 29.4286 163.34V163.573H23.0461ZM25.7311 160.003C24.9561 160.003 24.3386 160.23 23.8786 160.685C23.4236 161.14 23.1536 161.795 23.0686 162.65H28.2736C28.1936 161.775 27.9386 161.115 27.5086 160.67C27.0786 160.225 26.4861 160.003 25.7311 160.003ZM31.2275 167.315H29.9L33.065 163.22L29.9675 159.215H31.2875L33.71 162.373L36.11 159.215H37.43L34.3325 163.22L37.505 167.315H36.1775L33.71 164.068L31.2275 167.315Z" fill="#100F0F"/>
<rect x="185.828" y="58.3496" width="139" height="95" rx="5.67161" fill="#B3C4FF"/>
<path d="M190.006 177.342H188.911L189.781 174.095H186.728L187.006 173.037H190.066L190.703 170.63H187.651L187.936 169.572H190.996L191.798 166.55H192.901L192.083 169.572H194.596L195.398 166.55H196.501L195.683 169.572H198.736L198.451 170.63H195.406L194.753 173.037H197.806L197.521 174.095H194.476L193.606 177.342H192.511L193.373 174.095H190.876L190.006 177.342ZM191.806 170.63L191.161 173.037H193.666L194.303 170.63H191.806ZM206.602 171.62C207.172 171.865 207.612 172.222 207.922 172.692C208.237 173.157 208.394 173.7 208.394 174.32C208.394 174.935 208.262 175.472 207.997 175.932C207.732 176.387 207.359 176.737 206.879 176.982C206.399 177.227 205.842 177.35 205.207 177.35H200.692V166.55H204.862C205.452 166.55 205.974 166.675 206.429 166.925C206.884 167.17 207.237 167.505 207.487 167.93C207.742 168.355 207.869 168.822 207.869 169.332C207.869 169.822 207.754 170.27 207.524 170.675C207.299 171.08 206.992 171.395 206.602 171.62ZM201.802 167.592V171.155H204.854C205.199 171.155 205.514 171.077 205.799 170.922C206.084 170.762 206.309 170.542 206.474 170.262C206.644 169.982 206.729 169.667 206.729 169.317C206.729 168.982 206.649 168.685 206.489 168.425C206.329 168.16 206.107 167.955 205.822 167.81C205.537 167.665 205.214 167.592 204.854 167.592H201.802ZM204.937 176.292C205.377 176.292 205.772 176.215 206.122 176.06C206.472 175.9 206.747 175.672 206.947 175.377C207.152 175.082 207.254 174.735 207.254 174.335C207.254 173.94 207.162 173.58 206.977 173.255C206.792 172.93 206.539 172.672 206.219 172.482C205.899 172.292 205.539 172.197 205.139 172.197H201.802V176.292H204.937ZM212.943 170.645C213.588 170.64 214.161 170.782 214.661 171.072C215.161 171.357 215.548 171.76 215.823 172.28C216.098 172.8 216.236 173.392 216.236 174.057C216.236 174.737 216.088 175.345 215.793 175.88C215.498 176.41 215.088 176.825 214.563 177.125C214.038 177.42 213.448 177.567 212.793 177.567C212.263 177.567 211.771 177.472 211.316 177.282C210.866 177.092 210.478 176.82 210.153 176.465C209.828 176.11 209.591 175.69 209.441 175.205L210.491 174.89C210.666 175.405 210.951 175.802 211.346 176.082C211.746 176.362 212.203 176.502 212.718 176.502C213.203 176.502 213.623 176.402 213.978 176.202C214.338 175.997 214.613 175.71 214.803 175.34C214.998 174.97 215.096 174.542 215.096 174.057C215.096 173.572 214.998 173.145 214.803 172.775C214.608 172.405 214.333 172.12 213.978 171.92C213.628 171.715 213.223 171.612 212.763 171.612C212.573 171.612 212.368 171.64 212.148 171.695C211.933 171.75 211.733 171.822 211.548 171.912L210.993 171.035L214.706 167.607H209.868V166.55H216.108V167.622L212.943 170.645ZM222.554 177.575C221.499 177.575 220.599 177.34 219.854 176.87C219.109 176.4 218.544 175.742 218.159 174.897C217.774 174.047 217.582 173.065 217.582 171.95C217.582 170.835 217.774 169.855 218.159 169.01C218.544 168.16 219.109 167.5 219.854 167.03C220.599 166.56 221.499 166.325 222.554 166.325C223.374 166.325 224.102 166.47 224.737 166.76C225.377 167.045 225.907 167.452 226.327 167.982C226.752 168.512 227.064 169.142 227.264 169.872L226.139 170.165C225.904 169.29 225.484 168.607 224.879 168.117C224.274 167.627 223.499 167.382 222.554 167.382C221.724 167.382 221.024 167.575 220.454 167.96C219.884 168.345 219.457 168.885 219.172 169.58C218.887 170.27 218.744 171.075 218.744 171.995C218.744 172.9 218.887 173.692 219.172 174.372C219.462 175.047 219.892 175.575 220.462 175.955C221.037 176.33 221.734 176.517 222.554 176.517C223.499 176.517 224.274 176.272 224.879 175.782C225.484 175.292 225.904 174.61 226.139 173.735L227.264 174.027C227.064 174.757 226.752 175.387 226.327 175.917C225.907 176.447 225.377 176.857 224.737 177.147C224.102 177.432 223.374 177.575 222.554 177.575ZM234.491 177.35H233.381V175.257H228.326V174.207L231.941 166.55H233.179L229.564 174.207H233.381V171.057H234.491V174.207H235.669V175.257H234.491V177.35ZM238.576 177.35H237.474V166.55H243.676V167.652H238.576V171.402H242.776V172.497H238.576V177.35ZM246.135 177.35H245.032V166.55H251.235V167.652H246.135V171.402H250.335V172.497H246.135V177.35Z" fill="#100F0F"/>
<rect x="380.219" y="58.3496" width="139" height="95" rx="5.67161" fill="#D4C5FF"/>
<path d="M384.396 177.342H383.301L384.171 174.095H381.119L381.396 173.037H384.456L385.094 170.63H382.041L382.326 169.572H385.386L386.189 166.55H387.291L386.474 169.572H388.986L389.789 166.55H390.891L390.074 169.572H393.126L392.841 170.63H389.796L389.144 173.037H392.196L391.911 174.095H388.866L387.996 177.342H386.901L387.764 174.095H385.266L384.396 177.342ZM386.196 170.63L385.551 173.037H388.056L388.694 170.63H386.196ZM395.082 177.35V166.55H398.36C398.94 166.55 399.402 166.572 399.747 166.617C400.542 166.727 401.217 167.027 401.772 167.517C402.332 168.007 402.752 168.635 403.032 169.4C403.312 170.165 403.452 171.015 403.452 171.95C403.452 172.89 403.312 173.742 403.032 174.507C402.752 175.272 402.335 175.9 401.78 176.39C401.225 176.875 400.547 177.172 399.747 177.282C399.412 177.327 398.95 177.35 398.36 177.35H395.082ZM398.36 176.292C398.905 176.292 399.33 176.262 399.635 176.202C400.535 176.047 401.2 175.587 401.63 174.822C402.065 174.057 402.282 173.1 402.282 171.95C402.282 170.795 402.065 169.837 401.63 169.077C401.195 168.317 400.53 167.857 399.635 167.697C399.33 167.637 398.905 167.607 398.36 167.607H396.222V176.292H398.36ZM410.732 177.35H409.622V175.257H404.567V174.207L408.182 166.55H409.42L405.805 174.207H409.622V171.057H410.732V174.207H411.91V175.257H410.732V177.35ZM418.088 177.575C417.033 177.575 416.133 177.34 415.388 176.87C414.643 176.4 414.078 175.742 413.693 174.897C413.308 174.047 413.115 173.065 413.115 171.95C413.115 170.835 413.308 169.855 413.693 169.01C414.078 168.16 414.643 167.5 415.388 167.03C416.133 166.56 417.033 166.325 418.088 166.325C418.908 166.325 419.635 166.47 420.27 166.76C420.91 167.045 421.44 167.452 421.86 167.982C422.285 168.512 422.598 169.142 422.798 169.872L421.673 170.165C421.438 169.29 421.018 168.607 420.413 168.117C419.808 167.627 419.033 167.382 418.088 167.382C417.258 167.382 416.558 167.575 415.988 167.96C415.418 168.345 414.99 168.885 414.705 169.58C414.42 170.27 414.278 171.075 414.278 171.995C414.278 172.9 414.42 173.692 414.705 174.372C414.995 175.047 415.425 175.575 415.995 175.955C416.57 176.33 417.268 176.517 418.088 176.517C419.033 176.517 419.808 176.272 420.413 175.782C421.018 175.292 421.438 174.61 421.673 173.735L422.798 174.027C422.598 174.757 422.285 175.387 421.86 175.917C421.44 176.447 420.91 176.857 420.27 177.147C419.635 177.432 418.908 177.575 418.088 177.575ZM427.767 170.382C428.417 170.382 429.012 170.542 429.552 170.862C430.097 171.177 430.527 171.607 430.842 172.152C431.157 172.697 431.315 173.297 431.315 173.952C431.315 174.602 431.147 175.205 430.812 175.76C430.482 176.315 430.035 176.757 429.47 177.087C428.905 177.412 428.295 177.575 427.64 177.575C427.09 177.575 426.575 177.462 426.095 177.237C425.615 177.007 425.205 176.69 424.865 176.285C424.53 175.875 424.292 175.407 424.152 174.882L425.21 174.597C425.305 174.977 425.475 175.312 425.72 175.602C425.97 175.887 426.265 176.107 426.605 176.262C426.945 176.417 427.3 176.495 427.67 176.495C428.14 176.495 428.567 176.38 428.952 176.15C429.342 175.92 429.65 175.61 429.875 175.22C430.1 174.83 430.212 174.407 430.212 173.952C430.212 173.487 430.095 173.062 429.86 172.677C429.63 172.287 429.32 171.98 428.93 171.755C428.54 171.53 428.12 171.417 427.67 171.417C427.18 171.417 426.747 171.522 426.372 171.732C426.002 171.942 425.7 172.227 425.465 172.587L424.46 172.167L424.79 166.55H430.557V167.607H425.795L425.577 171.2C425.877 170.94 426.215 170.74 426.59 170.6C426.97 170.455 427.362 170.382 427.767 170.382ZM434.212 177.35H433.11V166.55H439.312V167.652H434.212V171.402H438.412V172.497H434.212V177.35ZM441.771 177.35H440.668V166.55H446.871V167.652H441.771V171.402H445.971V172.497H441.771V177.35Z" fill="#100F0F"/>
<rect x="574.609" y="58.3496" width="139" height="95" rx="5.67161" fill="#FFBBE1"/>
<path d="M578.787 177.342H577.692L578.562 174.095H575.509L575.787 173.037H578.847L579.484 170.63H576.432L576.717 169.572H579.777L580.579 166.55H581.682L580.864 169.572H583.377L584.179 166.55H585.282L584.464 169.572H587.517L587.232 170.63H584.187L583.534 173.037H586.587L586.302 174.095H583.257L582.387 177.342H581.292L582.154 174.095H579.657L578.787 177.342ZM580.587 170.63L579.942 173.037H582.447L583.084 170.63H580.587ZM590.575 177.35H589.473V166.55H595.675V167.652H590.575V171.402H594.775V172.497H590.575V177.35ZM598.134 177.35H597.031V166.55H603.234V167.652H598.134V171.402H602.334V172.497H598.134V177.35ZM610.5 171.62C611.07 171.865 611.51 172.222 611.82 172.692C612.135 173.157 612.293 173.7 612.293 174.32C612.293 174.935 612.16 175.472 611.895 175.932C611.63 176.387 611.258 176.737 610.778 176.982C610.298 177.227 609.74 177.35 609.105 177.35H604.59V166.55H608.76C609.35 166.55 609.873 166.675 610.328 166.925C610.783 167.17 611.135 167.505 611.385 167.93C611.64 168.355 611.768 168.822 611.768 169.332C611.768 169.822 611.653 170.27 611.423 170.675C611.198 171.08 610.89 171.395 610.5 171.62ZM605.7 167.592V171.155H608.753C609.098 171.155 609.413 171.077 609.698 170.922C609.983 170.762 610.208 170.542 610.373 170.262C610.543 169.982 610.628 169.667 610.628 169.317C610.628 168.982 610.548 168.685 610.388 168.425C610.228 168.16 610.005 167.955 609.72 167.81C609.435 167.665 609.113 167.592 608.753 167.592H605.7ZM608.835 176.292C609.275 176.292 609.67 176.215 610.02 176.06C610.37 175.9 610.645 175.672 610.845 175.377C611.05 175.082 611.153 174.735 611.153 174.335C611.153 173.94 611.06 173.58 610.875 173.255C610.69 172.93 610.438 172.672 610.118 172.482C609.798 172.292 609.438 172.197 609.038 172.197H605.7V176.292H608.835ZM619.699 171.62C620.269 171.865 620.709 172.222 621.019 172.692C621.334 173.157 621.492 173.7 621.492 174.32C621.492 174.935 621.359 175.472 621.094 175.932C620.829 176.387 620.457 176.737 619.977 176.982C619.497 177.227 618.939 177.35 618.304 177.35H613.789V166.55H617.959C618.549 166.55 619.072 166.675 619.527 166.925C619.982 167.17 620.334 167.505 620.584 167.93C620.839 168.355 620.967 168.822 620.967 169.332C620.967 169.822 620.852 170.27 620.622 170.675C620.397 171.08 620.089 171.395 619.699 171.62ZM614.899 167.592V171.155H617.952C618.297 171.155 618.612 171.077 618.897 170.922C619.182 170.762 619.407 170.542 619.572 170.262C619.742 169.982 619.827 169.667 619.827 169.317C619.827 168.982 619.747 168.685 619.587 168.425C619.427 168.16 619.204 167.955 618.919 167.81C618.634 167.665 618.312 167.592 617.952 167.592H614.899ZM618.034 176.292C618.474 176.292 618.869 176.215 619.219 176.06C619.569 175.9 619.844 175.672 620.044 175.377C620.249 175.082 620.352 174.735 620.352 174.335C620.352 173.94 620.259 173.58 620.074 173.255C619.889 172.93 619.637 172.672 619.317 172.482C618.997 172.292 618.637 172.197 618.237 172.197H614.899V176.292H618.034ZM629.738 177.35H622.988V166.55H629.738V167.607H624.091V171.342H628.838V172.4H624.091V176.292H629.738V177.35ZM634.543 177.35H633.426V167.78L631.393 169.002V167.765L633.426 166.55H634.543V177.35Z" fill="#100F0F"/>
<rect x="769" y="58.3496" width="139" height="95" rx="5.67161" fill="#FFA558"/>
<path d="M773.178 177.342H772.083L772.953 174.095H769.9L770.178 173.037H773.237L773.875 170.63H770.823L771.108 169.572H774.168L774.97 166.55H776.073L775.255 169.572H777.768L778.57 166.55H779.673L778.855 169.572H781.908L781.623 170.63H778.578L777.925 173.037H780.978L780.693 174.095H777.647L776.778 177.342H775.683L776.545 174.095H774.048L773.178 177.342ZM774.978 170.63L774.333 173.037H776.838L777.475 170.63H774.978ZM784.966 177.35H783.863V166.55H790.066V167.652H784.966V171.402H789.166V172.497H784.966V177.35ZM792.525 177.35H791.422V166.55H797.625V167.652H792.525V171.402H796.725V172.497H792.525V177.35ZM806.987 177.35H805.839L804.932 174.732H800.132L799.232 177.35H798.084L801.804 166.55H803.267L806.987 177.35ZM802.524 167.795L800.492 173.697H804.572L802.524 167.795ZM811.656 170.382C812.306 170.382 812.901 170.542 813.441 170.862C813.986 171.177 814.416 171.607 814.731 172.152C815.046 172.697 815.204 173.297 815.204 173.952C815.204 174.602 815.036 175.205 814.701 175.76C814.371 176.315 813.924 176.757 813.359 177.087C812.794 177.412 812.184 177.575 811.529 177.575C810.979 177.575 810.464 177.462 809.984 177.237C809.504 177.007 809.094 176.69 808.754 176.285C808.419 175.875 808.181 175.407 808.041 174.882L809.099 174.597C809.194 174.977 809.364 175.312 809.609 175.602C809.859 175.887 810.154 176.107 810.494 176.262C810.834 176.417 811.189 176.495 811.559 176.495C812.029 176.495 812.456 176.38 812.841 176.15C813.231 175.92 813.539 175.61 813.764 175.22C813.989 174.83 814.101 174.407 814.101 173.952C814.101 173.487 813.984 173.062 813.749 172.677C813.519 172.287 813.209 171.98 812.819 171.755C812.429 171.53 812.009 171.417 811.559 171.417C811.069 171.417 810.636 171.522 810.261 171.732C809.891 171.942 809.589 172.227 809.354 172.587L808.349 172.167L808.679 166.55H814.446V167.607H809.684L809.466 171.2C809.766 170.94 810.104 170.74 810.479 170.6C810.859 170.455 811.251 170.382 811.656 170.382ZM820.313 170.382C820.963 170.382 821.558 170.542 822.098 170.862C822.643 171.177 823.073 171.607 823.388 172.152C823.703 172.697 823.861 173.297 823.861 173.952C823.861 174.602 823.693 175.205 823.358 175.76C823.028 176.315 822.581 176.757 822.016 177.087C821.451 177.412 820.841 177.575 820.186 177.575C819.636 177.575 819.121 177.462 818.641 177.237C818.161 177.007 817.751 176.69 817.411 176.285C817.076 175.875 816.838 175.407 816.698 174.882L817.756 174.597C817.851 174.977 818.021 175.312 818.266 175.602C818.516 175.887 818.811 176.107 819.151 176.262C819.491 176.417 819.846 176.495 820.216 176.495C820.686 176.495 821.113 176.38 821.498 176.15C821.888 175.92 822.196 175.61 822.421 175.22C822.646 174.83 822.758 174.407 822.758 173.952C822.758 173.487 822.641 173.062 822.406 172.677C822.176 172.287 821.866 171.98 821.476 171.755C821.086 171.53 820.666 171.417 820.216 171.417C819.726 171.417 819.293 171.522 818.918 171.732C818.548 171.942 818.246 172.227 818.011 172.587L817.006 172.167L817.336 166.55H823.103V167.607H818.341L818.123 171.2C818.423 170.94 818.761 170.74 819.136 170.6C819.516 170.455 819.908 170.382 820.313 170.382ZM830.89 171.575C831.385 171.865 831.763 172.247 832.023 172.722C832.283 173.197 832.413 173.73 832.413 174.32C832.413 174.97 832.265 175.54 831.97 176.03C831.68 176.52 831.273 176.9 830.748 177.17C830.223 177.44 829.623 177.575 828.948 177.575C828.278 177.575 827.68 177.44 827.155 177.17C826.635 176.9 826.23 176.52 825.94 176.03C825.65 175.54 825.505 174.97 825.505 174.32C825.505 173.72 825.63 173.182 825.88 172.707C826.135 172.232 826.515 171.852 827.02 171.567C826.61 171.322 826.298 170.995 826.083 170.585C825.868 170.175 825.76 169.722 825.76 169.227C825.76 168.637 825.895 168.125 826.165 167.69C826.435 167.25 826.81 166.912 827.29 166.677C827.775 166.442 828.328 166.325 828.948 166.325C829.568 166.325 830.118 166.442 830.598 166.677C831.083 166.912 831.46 167.25 831.73 167.69C832.005 168.125 832.143 168.637 832.143 169.227C832.143 169.727 832.035 170.185 831.82 170.6C831.61 171.01 831.3 171.335 830.89 171.575ZM828.948 167.412C828.328 167.412 827.835 167.567 827.47 167.877C827.11 168.187 826.93 168.637 826.93 169.227C826.93 169.817 827.113 170.27 827.478 170.585C827.843 170.9 828.333 171.057 828.948 171.057C829.568 171.057 830.06 170.9 830.425 170.585C830.79 170.27 830.973 169.817 830.973 169.227C830.973 168.637 830.79 168.187 830.425 167.877C830.06 167.567 829.568 167.412 828.948 167.412ZM828.948 176.517C829.408 176.517 829.81 176.432 830.155 176.262C830.5 176.092 830.768 175.842 830.958 175.512C831.148 175.182 831.243 174.785 831.243 174.32C831.243 173.615 831.035 173.072 830.62 172.692C830.21 172.312 829.653 172.122 828.948 172.122C828.243 172.122 827.685 172.312 827.275 172.692C826.87 173.072 826.668 173.615 826.668 174.32C826.668 174.785 826.763 175.182 826.953 175.512C827.143 175.842 827.408 176.092 827.748 176.262C828.093 176.432 828.493 176.517 828.948 176.517Z" fill="#100F0F"/>
<path d="M0 37.3486H919" stroke="#100F0F"/>
</svg>
