<svg width="922" height="226" viewBox="0 0 922 226" fill="none" xmlns="http://www.w3.org/2000/svg">
<g opacity="0.5">
<path d="M4.1775 41.1839H3.0825L3.9525 37.9364H0.9L1.1775 36.8789H4.2375L4.875 34.4714H1.8225L2.1075 33.4139H5.1675L5.97 30.3914H7.0725L6.255 33.4139H8.7675L9.57 30.3914H10.6725L9.855 33.4139H12.9075L12.6225 34.4714H9.5775L8.925 36.8789H11.9775L11.6925 37.9364H8.6475L7.7775 41.1839H6.6825L7.545 37.9364H5.0475L4.1775 41.1839ZM5.9775 34.4714L5.3325 36.8789H7.8375L8.475 34.4714H5.9775ZM15.966 41.1914H14.8635V30.3914H21.066V31.4939H15.966V35.2439H20.166V36.3389H15.966V41.1914ZM28.3321 35.4614C28.9021 35.7064 29.3421 36.0639 29.6521 36.5339C29.9671 36.9989 30.1246 37.5414 30.1246 38.1614C30.1246 38.7764 29.9921 39.3139 29.7271 39.7739C29.4621 40.2289 29.0896 40.5789 28.6096 40.8239C28.1296 41.0689 27.5721 41.1914 26.9371 41.1914H22.4221V30.3914H26.5921C27.1821 30.3914 27.7046 30.5164 28.1596 30.7664C28.6146 31.0114 28.9671 31.3464 29.2171 31.7714C29.4721 32.1964 29.5996 32.6639 29.5996 33.1739C29.5996 33.6639 29.4846 34.1114 29.2546 34.5164C29.0296 34.9214 28.7221 35.2364 28.3321 35.4614ZM23.5321 31.4339V34.9964H26.5846C26.9296 34.9964 27.2446 34.9189 27.5296 34.7639C27.8146 34.6039 28.0396 34.3839 28.2046 34.1039C28.3746 33.8239 28.4596 33.5089 28.4596 33.1589C28.4596 32.8239 28.3796 32.5264 28.2196 32.2664C28.0596 32.0014 27.8371 31.7964 27.5521 31.6514C27.2671 31.5064 26.9446 31.4339 26.5846 31.4339H23.5321ZM26.6671 40.1339C27.1071 40.1339 27.5021 40.0564 27.8521 39.9014C28.2021 39.7414 28.4771 39.5139 28.6771 39.2189C28.8821 38.9239 28.9846 38.5764 28.9846 38.1764C28.9846 37.7814 28.8921 37.4214 28.7071 37.0964C28.5221 36.7714 28.2696 36.5139 27.9496 36.3239C27.6296 36.1339 27.2696 36.0389 26.8696 36.0389H23.5321V40.1339H26.6671ZM32.7238 41.1914H31.6213V30.3914H37.8238V31.4939H32.7238V35.2439H36.9238V36.3389H32.7238V41.1914ZM45.0899 35.4614C45.6599 35.7064 46.0999 36.0639 46.4099 36.5339C46.7249 36.9989 46.8824 37.5414 46.8824 38.1614C46.8824 38.7764 46.7499 39.3139 46.4849 39.7739C46.2199 40.2289 45.8474 40.5789 45.3674 40.8239C44.8874 41.0689 44.3299 41.1914 43.6949 41.1914H39.1799V30.3914H43.3499C43.9399 30.3914 44.4624 30.5164 44.9174 30.7664C45.3724 31.0114 45.7249 31.3464 45.9749 31.7714C46.2299 32.1964 46.3574 32.6639 46.3574 33.1739C46.3574 33.6639 46.2424 34.1114 46.0124 34.5164C45.7874 34.9214 45.4799 35.2364 45.0899 35.4614ZM40.2899 31.4339V34.9964H43.3424C43.6874 34.9964 44.0024 34.9189 44.2874 34.7639C44.5724 34.6039 44.7974 34.3839 44.9624 34.1039C45.1324 33.8239 45.2174 33.5089 45.2174 33.1589C45.2174 32.8239 45.1374 32.5264 44.9774 32.2664C44.8174 32.0014 44.5949 31.7964 44.3099 31.6514C44.0249 31.5064 43.7024 31.4339 43.3424 31.4339H40.2899ZM43.4249 40.1339C43.8649 40.1339 44.2599 40.0564 44.6099 39.9014C44.9599 39.7414 45.2349 39.5139 45.4349 39.2189C45.6399 38.9239 45.7424 38.5764 45.7424 38.1764C45.7424 37.7814 45.6499 37.4214 45.4649 37.0964C45.2799 36.7714 45.0274 36.5139 44.7074 36.3239C44.3874 36.1339 44.0274 36.0389 43.6274 36.0389H40.2899V40.1339H43.4249ZM49.4816 41.1914H48.3791V30.3914H54.5816V31.4939H49.4816V35.2439H53.6816V36.3389H49.4816V41.1914ZM61.8477 35.4614C62.4177 35.7064 62.8577 36.0639 63.1677 36.5339C63.4827 36.9989 63.6402 37.5414 63.6402 38.1614C63.6402 38.7764 63.5077 39.3139 63.2427 39.7739C62.9777 40.2289 62.6052 40.5789 62.1252 40.8239C61.6452 41.0689 61.0877 41.1914 60.4527 41.1914H55.9377V30.3914H60.1077C60.6977 30.3914 61.2202 30.5164 61.6752 30.7664C62.1302 31.0114 62.4827 31.3464 62.7327 31.7714C62.9877 32.1964 63.1152 32.6639 63.1152 33.1739C63.1152 33.6639 63.0002 34.1114 62.7702 34.5164C62.5452 34.9214 62.2377 35.2364 61.8477 35.4614ZM57.0477 31.4339V34.9964H60.1002C60.4452 34.9964 60.7602 34.9189 61.0452 34.7639C61.3302 34.6039 61.5552 34.3839 61.7202 34.1039C61.8902 33.8239 61.9752 33.5089 61.9752 33.1589C61.9752 32.8239 61.8952 32.5264 61.7352 32.2664C61.5752 32.0014 61.3527 31.7964 61.0677 31.6514C60.7827 31.5064 60.4602 31.4339 60.1002 31.4339H57.0477ZM60.1827 40.1339C60.6227 40.1339 61.0177 40.0564 61.3677 39.9014C61.7177 39.7414 61.9927 39.5139 62.1927 39.2189C62.3977 38.9239 62.5002 38.5764 62.5002 38.1764C62.5002 37.7814 62.4077 37.4214 62.2227 37.0964C62.0377 36.7714 61.7852 36.5139 61.4652 36.3239C61.1452 36.1339 60.7852 36.0389 60.3852 36.0389H57.0477V40.1339H60.1827Z" fill="#100F0F"/>
<path d="M84.575 41.4164C83.915 41.4164 83.315 41.2639 82.775 40.9589C82.24 40.6489 81.8175 40.2264 81.5075 39.6914C81.2025 39.1514 81.05 38.5514 81.05 37.8914V33.6914C81.05 33.0314 81.2025 32.4339 81.5075 31.8989C81.8175 31.3589 82.24 30.9364 82.775 30.6314C83.315 30.3214 83.915 30.1664 84.575 30.1664C85.235 30.1664 85.8325 30.3214 86.3675 30.6314C86.9075 30.9364 87.33 31.3589 87.635 31.8989C87.945 32.4339 88.1 33.0314 88.1 33.6914V37.8914C88.1 38.5514 87.945 39.1514 87.635 39.6914C87.33 40.2264 86.9075 40.6489 86.3675 40.9589C85.8325 41.2639 85.235 41.4164 84.575 41.4164ZM84.575 40.3514C85.01 40.3514 85.4125 40.2439 85.7825 40.0289C86.1525 39.8139 86.445 39.5214 86.66 39.1514C86.875 38.7814 86.9825 38.3789 86.9825 37.9439V33.6389C86.9825 33.1989 86.875 32.7964 86.66 32.4314C86.445 32.0614 86.1525 31.7689 85.7825 31.5539C85.4125 31.3339 85.01 31.2239 84.575 31.2239C84.14 31.2239 83.7375 31.3339 83.3675 31.5539C82.9975 31.7689 82.705 32.0614 82.49 32.4314C82.275 32.7964 82.1675 33.1989 82.1675 33.6389V37.9439C82.1675 38.3789 82.275 38.7814 82.49 39.1514C82.705 39.5214 82.9975 39.8139 83.3675 40.0289C83.7375 40.2439 84.14 40.3514 84.575 40.3514ZM92.7553 35.5664C92.2653 35.5664 91.8128 35.4464 91.3978 35.2064C90.9878 34.9664 90.6603 34.6389 90.4153 34.2239C90.1753 33.8089 90.0553 33.3564 90.0553 32.8664C90.0553 32.3864 90.1778 31.9389 90.4228 31.5239C90.6728 31.1089 91.0053 30.7789 91.4203 30.5339C91.8353 30.2889 92.2803 30.1664 92.7553 30.1664C93.2453 30.1664 93.6953 30.2864 94.1053 30.5264C94.5203 30.7664 94.8478 31.0939 95.0878 31.5089C95.3328 31.9239 95.4553 32.3764 95.4553 32.8664C95.4553 33.3564 95.3328 33.8089 95.0878 34.2239C94.8478 34.6389 94.5203 34.9664 94.1053 35.2064C93.6953 35.4464 93.2453 35.5664 92.7553 35.5664ZM101.328 31.1339L91.2553 41.1914L90.5053 40.4414L100.578 30.3914L101.328 31.1339ZM92.7553 34.5689C93.0553 34.5689 93.3353 34.4914 93.5953 34.3364C93.8603 34.1814 94.0703 33.9739 94.2253 33.7139C94.3803 33.4489 94.4578 33.1664 94.4578 32.8664C94.4578 32.5664 94.3803 32.2864 94.2253 32.0264C94.0703 31.7614 93.8603 31.5514 93.5953 31.3964C93.3353 31.2414 93.0553 31.1639 92.7553 31.1639C92.4553 31.1639 92.1728 31.2414 91.9078 31.3964C91.6478 31.5514 91.4403 31.7614 91.2853 32.0264C91.1303 32.2864 91.0528 32.5664 91.0528 32.8664C91.0528 33.1664 91.1303 33.4489 91.2853 33.7139C91.4403 33.9739 91.6478 34.1814 91.9078 34.3364C92.1728 34.4914 92.4553 34.5689 92.7553 34.5689ZM99.0778 41.4164C98.5878 41.4164 98.1353 41.2964 97.7203 41.0564C97.3103 40.8164 96.9828 40.4889 96.7378 40.0739C96.4978 39.6589 96.3778 39.2064 96.3778 38.7164C96.3778 38.2364 96.5003 37.7889 96.7453 37.3739C96.9953 36.9589 97.3278 36.6289 97.7428 36.3839C98.1578 36.1389 98.6028 36.0164 99.0778 36.0164C99.5678 36.0164 100.018 36.1364 100.428 36.3764C100.843 36.6164 101.17 36.9439 101.41 37.3589C101.655 37.7739 101.778 38.2264 101.778 38.7164C101.778 39.2064 101.655 39.6589 101.41 40.0739C101.17 40.4889 100.843 40.8164 100.428 41.0564C100.018 41.2964 99.5678 41.4164 99.0778 41.4164ZM99.0778 40.4189C99.3778 40.4189 99.6578 40.3414 99.9178 40.1864C100.183 40.0314 100.393 39.8239 100.548 39.5639C100.703 39.2989 100.78 39.0164 100.78 38.7164C100.78 38.4164 100.703 38.1364 100.548 37.8764C100.393 37.6114 100.183 37.4014 99.9178 37.2464C99.6578 37.0914 99.3778 37.0139 99.0778 37.0139C98.7728 37.0139 98.4878 37.0914 98.2228 37.2464C97.9628 37.4014 97.7553 37.6114 97.6003 37.8764C97.4453 38.1364 97.3678 38.4164 97.3678 38.7164C97.3678 39.0164 97.4453 39.2989 97.6003 39.5639C97.7553 39.8239 97.9628 40.0314 98.2228 40.1864C98.4878 40.3414 98.7728 40.4189 99.0778 40.4189Z" fill="#100F0F"/>
</g>
<g opacity="0.5">
<path d="M4.1775 132.184H3.0825L3.9525 128.936H0.9L1.1775 127.879H4.2375L4.875 125.471H1.8225L2.1075 124.414H5.1675L5.97 121.391H7.0725L6.255 124.414H8.7675L9.57 121.391H10.6725L9.855 124.414H12.9075L12.6225 125.471H9.5775L8.925 127.879H11.9775L11.6925 128.936H8.6475L7.7775 132.184H6.6825L7.545 128.936H5.0475L4.1775 132.184ZM5.9775 125.471L5.3325 127.879H7.8375L8.475 125.471H5.9775ZM15.966 132.191H14.8635V121.391H21.066V122.494H15.966V126.244H20.166V127.339H15.966V132.191ZM28.3321 126.461C28.9021 126.706 29.3421 127.064 29.6521 127.534C29.9671 127.999 30.1246 128.541 30.1246 129.161C30.1246 129.776 29.9921 130.314 29.7271 130.774C29.4621 131.229 29.0896 131.579 28.6096 131.824C28.1296 132.069 27.5721 132.191 26.9371 132.191H22.4221V121.391H26.5921C27.1821 121.391 27.7046 121.516 28.1596 121.766C28.6146 122.011 28.9671 122.346 29.2171 122.771C29.4721 123.196 29.5996 123.664 29.5996 124.174C29.5996 124.664 29.4846 125.111 29.2546 125.516C29.0296 125.921 28.7221 126.236 28.3321 126.461ZM23.5321 122.434V125.996H26.5846C26.9296 125.996 27.2446 125.919 27.5296 125.764C27.8146 125.604 28.0396 125.384 28.2046 125.104C28.3746 124.824 28.4596 124.509 28.4596 124.159C28.4596 123.824 28.3796 123.526 28.2196 123.266C28.0596 123.001 27.8371 122.796 27.5521 122.651C27.2671 122.506 26.9446 122.434 26.5846 122.434H23.5321ZM26.6671 131.134C27.1071 131.134 27.5021 131.056 27.8521 130.901C28.2021 130.741 28.4771 130.514 28.6771 130.219C28.8821 129.924 28.9846 129.576 28.9846 129.176C28.9846 128.781 28.8921 128.421 28.7071 128.096C28.5221 127.771 28.2696 127.514 27.9496 127.324C27.6296 127.134 27.2696 127.039 26.8696 127.039H23.5321V131.134H26.6671ZM32.7238 132.191H31.6213V121.391H37.8238V122.494H32.7238V126.244H36.9238V127.339H32.7238V132.191ZM45.0899 126.461C45.6599 126.706 46.0999 127.064 46.4099 127.534C46.7249 127.999 46.8824 128.541 46.8824 129.161C46.8824 129.776 46.7499 130.314 46.4849 130.774C46.2199 131.229 45.8474 131.579 45.3674 131.824C44.8874 132.069 44.3299 132.191 43.6949 132.191H39.1799V121.391H43.3499C43.9399 121.391 44.4624 121.516 44.9174 121.766C45.3724 122.011 45.7249 122.346 45.9749 122.771C46.2299 123.196 46.3574 123.664 46.3574 124.174C46.3574 124.664 46.2424 125.111 46.0124 125.516C45.7874 125.921 45.4799 126.236 45.0899 126.461ZM40.2899 122.434V125.996H43.3424C43.6874 125.996 44.0024 125.919 44.2874 125.764C44.5724 125.604 44.7974 125.384 44.9624 125.104C45.1324 124.824 45.2174 124.509 45.2174 124.159C45.2174 123.824 45.1374 123.526 44.9774 123.266C44.8174 123.001 44.5949 122.796 44.3099 122.651C44.0249 122.506 43.7024 122.434 43.3424 122.434H40.2899ZM43.4249 131.134C43.8649 131.134 44.2599 131.056 44.6099 130.901C44.9599 130.741 45.2349 130.514 45.4349 130.219C45.6399 129.924 45.7424 129.576 45.7424 129.176C45.7424 128.781 45.6499 128.421 45.4649 128.096C45.2799 127.771 45.0274 127.514 44.7074 127.324C44.3874 127.134 44.0274 127.039 43.6274 127.039H40.2899V131.134H43.4249ZM49.4816 132.191H48.3791V121.391H54.5816V122.494H49.4816V126.244H53.6816V127.339H49.4816V132.191ZM61.8477 126.461C62.4177 126.706 62.8577 127.064 63.1677 127.534C63.4827 127.999 63.6402 128.541 63.6402 129.161C63.6402 129.776 63.5077 130.314 63.2427 130.774C62.9777 131.229 62.6052 131.579 62.1252 131.824C61.6452 132.069 61.0877 132.191 60.4527 132.191H55.9377V121.391H60.1077C60.6977 121.391 61.2202 121.516 61.6752 121.766C62.1302 122.011 62.4827 122.346 62.7327 122.771C62.9877 123.196 63.1152 123.664 63.1152 124.174C63.1152 124.664 63.0002 125.111 62.7702 125.516C62.5452 125.921 62.2377 126.236 61.8477 126.461ZM57.0477 122.434V125.996H60.1002C60.4452 125.996 60.7602 125.919 61.0452 125.764C61.3302 125.604 61.5552 125.384 61.7202 125.104C61.8902 124.824 61.9752 124.509 61.9752 124.159C61.9752 123.824 61.8952 123.526 61.7352 123.266C61.5752 123.001 61.3527 122.796 61.0677 122.651C60.7827 122.506 60.4602 122.434 60.1002 122.434H57.0477ZM60.1827 131.134C60.6227 131.134 61.0177 131.056 61.3677 130.901C61.7177 130.741 61.9927 130.514 62.1927 130.219C62.3977 129.924 62.5002 129.576 62.5002 129.176C62.5002 128.781 62.4077 128.421 62.2227 128.096C62.0377 127.771 61.7852 127.514 61.4652 127.324C61.1452 127.134 60.7852 127.039 60.3852 127.039H57.0477V131.134H60.1827Z" fill="#100F0F"/>
<path d="M84.365 125.224C85.015 125.224 85.61 125.384 86.15 125.704C86.695 126.019 87.125 126.449 87.44 126.994C87.755 127.539 87.9125 128.139 87.9125 128.794C87.9125 129.444 87.745 130.046 87.41 130.601C87.08 131.156 86.6325 131.599 86.0675 131.929C85.5025 132.254 84.8925 132.416 84.2375 132.416C83.6875 132.416 83.1725 132.304 82.6925 132.079C82.2125 131.849 81.8025 131.531 81.4625 131.126C81.1275 130.716 80.89 130.249 80.75 129.724L81.8075 129.439C81.9025 129.819 82.0725 130.154 82.3175 130.444C82.5675 130.729 82.8625 130.949 83.2025 131.104C83.5425 131.259 83.8975 131.336 84.2675 131.336C84.7375 131.336 85.165 131.221 85.55 130.991C85.94 130.761 86.2475 130.451 86.4725 130.061C86.6975 129.671 86.81 129.249 86.81 128.794C86.81 128.329 86.6925 127.904 86.4575 127.519C86.2275 127.129 85.9175 126.821 85.5275 126.596C85.1375 126.371 84.7175 126.259 84.2675 126.259C83.7775 126.259 83.345 126.364 82.97 126.574C82.6 126.784 82.2975 127.069 82.0625 127.429L81.0575 127.009L81.3875 121.391H87.155V122.449H82.3925L82.175 126.041C82.475 125.781 82.8125 125.581 83.1875 125.441C83.5675 125.296 83.96 125.224 84.365 125.224ZM93.2322 132.416C92.5722 132.416 91.9722 132.264 91.4322 131.959C90.8972 131.649 90.4747 131.226 90.1647 130.691C89.8597 130.151 89.7072 129.551 89.7072 128.891V124.691C89.7072 124.031 89.8597 123.434 90.1647 122.899C90.4747 122.359 90.8972 121.936 91.4322 121.631C91.9722 121.321 92.5722 121.166 93.2322 121.166C93.8922 121.166 94.4897 121.321 95.0247 121.631C95.5647 121.936 95.9872 122.359 96.2922 122.899C96.6022 123.434 96.7572 124.031 96.7572 124.691V128.891C96.7572 129.551 96.6022 130.151 96.2922 130.691C95.9872 131.226 95.5647 131.649 95.0247 131.959C94.4897 132.264 93.8922 132.416 93.2322 132.416ZM93.2322 131.351C93.6672 131.351 94.0697 131.244 94.4397 131.029C94.8097 130.814 95.1022 130.521 95.3172 130.151C95.5322 129.781 95.6397 129.379 95.6397 128.944V124.639C95.6397 124.199 95.5322 123.796 95.3172 123.431C95.1022 123.061 94.8097 122.769 94.4397 122.554C94.0697 122.334 93.6672 122.224 93.2322 122.224C92.7972 122.224 92.3947 122.334 92.0247 122.554C91.6547 122.769 91.3622 123.061 91.1472 123.431C90.9322 123.796 90.8247 124.199 90.8247 124.639V128.944C90.8247 129.379 90.9322 129.781 91.1472 130.151C91.3622 130.521 91.6547 130.814 92.0247 131.029C92.3947 131.244 92.7972 131.351 93.2322 131.351ZM101.413 126.566C100.923 126.566 100.47 126.446 100.055 126.206C99.645 125.966 99.3175 125.639 99.0725 125.224C98.8325 124.809 98.7125 124.356 98.7125 123.866C98.7125 123.386 98.835 122.939 99.08 122.524C99.33 122.109 99.6625 121.779 100.078 121.534C100.493 121.289 100.938 121.166 101.413 121.166C101.903 121.166 102.353 121.286 102.763 121.526C103.178 121.766 103.505 122.094 103.745 122.509C103.99 122.924 104.113 123.376 104.113 123.866C104.113 124.356 103.99 124.809 103.745 125.224C103.505 125.639 103.178 125.966 102.763 126.206C102.353 126.446 101.903 126.566 101.413 126.566ZM109.985 122.134L99.9125 132.191L99.1625 131.441L109.235 121.391L109.985 122.134ZM101.413 125.569C101.713 125.569 101.993 125.491 102.253 125.336C102.518 125.181 102.728 124.974 102.883 124.714C103.038 124.449 103.115 124.166 103.115 123.866C103.115 123.566 103.038 123.286 102.883 123.026C102.728 122.761 102.518 122.551 102.253 122.396C101.993 122.241 101.713 122.164 101.413 122.164C101.113 122.164 100.83 122.241 100.565 122.396C100.305 122.551 100.098 122.761 99.9425 123.026C99.7875 123.286 99.71 123.566 99.71 123.866C99.71 124.166 99.7875 124.449 99.9425 124.714C100.098 124.974 100.305 125.181 100.565 125.336C100.83 125.491 101.113 125.569 101.413 125.569ZM107.735 132.416C107.245 132.416 106.793 132.296 106.378 132.056C105.968 131.816 105.64 131.489 105.395 131.074C105.155 130.659 105.035 130.206 105.035 129.716C105.035 129.236 105.158 128.789 105.403 128.374C105.653 127.959 105.985 127.629 106.4 127.384C106.815 127.139 107.26 127.016 107.735 127.016C108.225 127.016 108.675 127.136 109.085 127.376C109.5 127.616 109.828 127.944 110.068 128.359C110.313 128.774 110.435 129.226 110.435 129.716C110.435 130.206 110.313 130.659 110.068 131.074C109.828 131.489 109.5 131.816 109.085 132.056C108.675 132.296 108.225 132.416 107.735 132.416ZM107.735 131.419C108.035 131.419 108.315 131.341 108.575 131.186C108.84 131.031 109.05 130.824 109.205 130.564C109.36 130.299 109.438 130.016 109.438 129.716C109.438 129.416 109.36 129.136 109.205 128.876C109.05 128.611 108.84 128.401 108.575 128.246C108.315 128.091 108.035 128.014 107.735 128.014C107.43 128.014 107.145 128.091 106.88 128.246C106.62 128.401 106.413 128.611 106.258 128.876C106.103 129.136 106.025 129.416 106.025 129.716C106.025 130.016 106.103 130.299 106.258 130.564C106.413 130.824 106.62 131.031 106.88 131.186C107.145 131.341 107.43 131.419 107.735 131.419Z" fill="#100F0F"/>
</g>
<g opacity="0.5">
<path d="M4.1775 223.184H3.0825L3.9525 219.936H0.9L1.1775 218.879H4.2375L4.875 216.471H1.8225L2.1075 215.414H5.1675L5.97 212.391H7.0725L6.255 215.414H8.7675L9.57 212.391H10.6725L9.855 215.414H12.9075L12.6225 216.471H9.5775L8.925 218.879H11.9775L11.6925 219.936H8.6475L7.7775 223.184H6.6825L7.545 219.936H5.0475L4.1775 223.184ZM5.9775 216.471L5.3325 218.879H7.8375L8.475 216.471H5.9775ZM15.966 223.191H14.8635V212.391H21.066V213.494H15.966V217.244H20.166V218.339H15.966V223.191ZM28.3321 217.461C28.9021 217.706 29.3421 218.064 29.6521 218.534C29.9671 218.999 30.1246 219.541 30.1246 220.161C30.1246 220.776 29.9921 221.314 29.7271 221.774C29.4621 222.229 29.0896 222.579 28.6096 222.824C28.1296 223.069 27.5721 223.191 26.9371 223.191H22.4221V212.391H26.5921C27.1821 212.391 27.7046 212.516 28.1596 212.766C28.6146 213.011 28.9671 213.346 29.2171 213.771C29.4721 214.196 29.5996 214.664 29.5996 215.174C29.5996 215.664 29.4846 216.111 29.2546 216.516C29.0296 216.921 28.7221 217.236 28.3321 217.461ZM23.5321 213.434V216.996H26.5846C26.9296 216.996 27.2446 216.919 27.5296 216.764C27.8146 216.604 28.0396 216.384 28.2046 216.104C28.3746 215.824 28.4596 215.509 28.4596 215.159C28.4596 214.824 28.3796 214.526 28.2196 214.266C28.0596 214.001 27.8371 213.796 27.5521 213.651C27.2671 213.506 26.9446 213.434 26.5846 213.434H23.5321ZM26.6671 222.134C27.1071 222.134 27.5021 222.056 27.8521 221.901C28.2021 221.741 28.4771 221.514 28.6771 221.219C28.8821 220.924 28.9846 220.576 28.9846 220.176C28.9846 219.781 28.8921 219.421 28.7071 219.096C28.5221 218.771 28.2696 218.514 27.9496 218.324C27.6296 218.134 27.2696 218.039 26.8696 218.039H23.5321V222.134H26.6671ZM32.7238 223.191H31.6213V212.391H37.8238V213.494H32.7238V217.244H36.9238V218.339H32.7238V223.191ZM45.0899 217.461C45.6599 217.706 46.0999 218.064 46.4099 218.534C46.7249 218.999 46.8824 219.541 46.8824 220.161C46.8824 220.776 46.7499 221.314 46.4849 221.774C46.2199 222.229 45.8474 222.579 45.3674 222.824C44.8874 223.069 44.3299 223.191 43.6949 223.191H39.1799V212.391H43.3499C43.9399 212.391 44.4624 212.516 44.9174 212.766C45.3724 213.011 45.7249 213.346 45.9749 213.771C46.2299 214.196 46.3574 214.664 46.3574 215.174C46.3574 215.664 46.2424 216.111 46.0124 216.516C45.7874 216.921 45.4799 217.236 45.0899 217.461ZM40.2899 213.434V216.996H43.3424C43.6874 216.996 44.0024 216.919 44.2874 216.764C44.5724 216.604 44.7974 216.384 44.9624 216.104C45.1324 215.824 45.2174 215.509 45.2174 215.159C45.2174 214.824 45.1374 214.526 44.9774 214.266C44.8174 214.001 44.5949 213.796 44.3099 213.651C44.0249 213.506 43.7024 213.434 43.3424 213.434H40.2899ZM43.4249 222.134C43.8649 222.134 44.2599 222.056 44.6099 221.901C44.9599 221.741 45.2349 221.514 45.4349 221.219C45.6399 220.924 45.7424 220.576 45.7424 220.176C45.7424 219.781 45.6499 219.421 45.4649 219.096C45.2799 218.771 45.0274 218.514 44.7074 218.324C44.3874 218.134 44.0274 218.039 43.6274 218.039H40.2899V222.134H43.4249ZM49.4816 223.191H48.3791V212.391H54.5816V213.494H49.4816V217.244H53.6816V218.339H49.4816V223.191ZM61.8477 217.461C62.4177 217.706 62.8577 218.064 63.1677 218.534C63.4827 218.999 63.6402 219.541 63.6402 220.161C63.6402 220.776 63.5077 221.314 63.2427 221.774C62.9777 222.229 62.6052 222.579 62.1252 222.824C61.6452 223.069 61.0877 223.191 60.4527 223.191H55.9377V212.391H60.1077C60.6977 212.391 61.2202 212.516 61.6752 212.766C62.1302 213.011 62.4827 213.346 62.7327 213.771C62.9877 214.196 63.1152 214.664 63.1152 215.174C63.1152 215.664 63.0002 216.111 62.7702 216.516C62.5452 216.921 62.2377 217.236 61.8477 217.461ZM57.0477 213.434V216.996H60.1002C60.4452 216.996 60.7602 216.919 61.0452 216.764C61.3302 216.604 61.5552 216.384 61.7202 216.104C61.8902 215.824 61.9752 215.509 61.9752 215.159C61.9752 214.824 61.8952 214.526 61.7352 214.266C61.5752 214.001 61.3527 213.796 61.0677 213.651C60.7827 213.506 60.4602 213.434 60.1002 213.434H57.0477ZM60.1827 222.134C60.6227 222.134 61.0177 222.056 61.3677 221.901C61.7177 221.741 61.9927 221.514 62.1927 221.219C62.3977 220.924 62.5002 220.576 62.5002 220.176C62.5002 219.781 62.4077 219.421 62.2227 219.096C62.0377 218.771 61.7852 218.514 61.4652 218.324C61.1452 218.134 60.7852 218.039 60.3852 218.039H57.0477V222.134H60.1827Z" fill="#100F0F"/>
<path d="M84.05 223.191H82.9325V213.621L80.9 214.844V213.606L82.9325 212.391H84.05V223.191ZM90.4197 223.416C89.7597 223.416 89.1597 223.264 88.6197 222.959C88.0847 222.649 87.6622 222.226 87.3522 221.691C87.0472 221.151 86.8947 220.551 86.8947 219.891V215.691C86.8947 215.031 87.0472 214.434 87.3522 213.899C87.6622 213.359 88.0847 212.936 88.6197 212.631C89.1597 212.321 89.7597 212.166 90.4197 212.166C91.0797 212.166 91.6772 212.321 92.2122 212.631C92.7522 212.936 93.1747 213.359 93.4797 213.899C93.7897 214.434 93.9447 215.031 93.9447 215.691V219.891C93.9447 220.551 93.7897 221.151 93.4797 221.691C93.1747 222.226 92.7522 222.649 92.2122 222.959C91.6772 223.264 91.0797 223.416 90.4197 223.416ZM90.4197 222.351C90.8547 222.351 91.2572 222.244 91.6272 222.029C91.9972 221.814 92.2897 221.521 92.5047 221.151C92.7197 220.781 92.8272 220.379 92.8272 219.944V215.639C92.8272 215.199 92.7197 214.796 92.5047 214.431C92.2897 214.061 91.9972 213.769 91.6272 213.554C91.2572 213.334 90.8547 213.224 90.4197 213.224C89.9847 213.224 89.5822 213.334 89.2122 213.554C88.8422 213.769 88.5497 214.061 88.3347 214.431C88.1197 214.796 88.0122 215.199 88.0122 215.639V219.944C88.0122 220.379 88.1197 220.781 88.3347 221.151C88.5497 221.521 88.8422 221.814 89.2122 222.029C89.5822 222.244 89.9847 222.351 90.4197 222.351ZM99.575 223.416C98.915 223.416 98.315 223.264 97.775 222.959C97.24 222.649 96.8175 222.226 96.5075 221.691C96.2025 221.151 96.05 220.551 96.05 219.891V215.691C96.05 215.031 96.2025 214.434 96.5075 213.899C96.8175 213.359 97.24 212.936 97.775 212.631C98.315 212.321 98.915 212.166 99.575 212.166C100.235 212.166 100.833 212.321 101.368 212.631C101.908 212.936 102.33 213.359 102.635 213.899C102.945 214.434 103.1 215.031 103.1 215.691V219.891C103.1 220.551 102.945 221.151 102.635 221.691C102.33 222.226 101.908 222.649 101.368 222.959C100.833 223.264 100.235 223.416 99.575 223.416ZM99.575 222.351C100.01 222.351 100.413 222.244 100.783 222.029C101.153 221.814 101.445 221.521 101.66 221.151C101.875 220.781 101.983 220.379 101.983 219.944V215.639C101.983 215.199 101.875 214.796 101.66 214.431C101.445 214.061 101.153 213.769 100.783 213.554C100.413 213.334 100.01 213.224 99.575 213.224C99.14 213.224 98.7375 213.334 98.3675 213.554C97.9975 213.769 97.705 214.061 97.49 214.431C97.275 214.796 97.1675 215.199 97.1675 215.639V219.944C97.1675 220.379 97.275 220.781 97.49 221.151C97.705 221.521 97.9975 221.814 98.3675 222.029C98.7375 222.244 99.14 222.351 99.575 222.351ZM107.755 217.566C107.265 217.566 106.813 217.446 106.398 217.206C105.988 216.966 105.66 216.639 105.415 216.224C105.175 215.809 105.055 215.356 105.055 214.866C105.055 214.386 105.178 213.939 105.423 213.524C105.673 213.109 106.005 212.779 106.42 212.534C106.835 212.289 107.28 212.166 107.755 212.166C108.245 212.166 108.695 212.286 109.105 212.526C109.52 212.766 109.848 213.094 110.088 213.509C110.333 213.924 110.455 214.376 110.455 214.866C110.455 215.356 110.333 215.809 110.088 216.224C109.848 216.639 109.52 216.966 109.105 217.206C108.695 217.446 108.245 217.566 107.755 217.566ZM116.328 213.134L106.255 223.191L105.505 222.441L115.578 212.391L116.328 213.134ZM107.755 216.569C108.055 216.569 108.335 216.491 108.595 216.336C108.86 216.181 109.07 215.974 109.225 215.714C109.38 215.449 109.458 215.166 109.458 214.866C109.458 214.566 109.38 214.286 109.225 214.026C109.07 213.761 108.86 213.551 108.595 213.396C108.335 213.241 108.055 213.164 107.755 213.164C107.455 213.164 107.173 213.241 106.908 213.396C106.648 213.551 106.44 213.761 106.285 214.026C106.13 214.286 106.053 214.566 106.053 214.866C106.053 215.166 106.13 215.449 106.285 215.714C106.44 215.974 106.648 216.181 106.908 216.336C107.173 216.491 107.455 216.569 107.755 216.569ZM114.078 223.416C113.588 223.416 113.135 223.296 112.72 223.056C112.31 222.816 111.983 222.489 111.738 222.074C111.498 221.659 111.378 221.206 111.378 220.716C111.378 220.236 111.5 219.789 111.745 219.374C111.995 218.959 112.328 218.629 112.743 218.384C113.158 218.139 113.603 218.016 114.078 218.016C114.568 218.016 115.018 218.136 115.428 218.376C115.843 218.616 116.17 218.944 116.41 219.359C116.655 219.774 116.778 220.226 116.778 220.716C116.778 221.206 116.655 221.659 116.41 222.074C116.17 222.489 115.843 222.816 115.428 223.056C115.018 223.296 114.568 223.416 114.078 223.416ZM114.078 222.419C114.378 222.419 114.658 222.341 114.918 222.186C115.183 222.031 115.393 221.824 115.548 221.564C115.703 221.299 115.78 221.016 115.78 220.716C115.78 220.416 115.703 220.136 115.548 219.876C115.393 219.611 115.183 219.401 114.918 219.246C114.658 219.091 114.378 219.014 114.078 219.014C113.773 219.014 113.488 219.091 113.223 219.246C112.963 219.401 112.755 219.611 112.6 219.876C112.445 220.136 112.368 220.416 112.368 220.716C112.368 221.016 112.445 221.299 112.6 221.564C112.755 221.824 112.963 222.031 113.223 222.186C113.488 222.341 113.773 222.419 114.078 222.419Z" fill="#100F0F"/>
</g>
<path opacity="0.5" d="M137 223.191V27.1914M137 223.191L141 212.259M137 223.191L133 212.259M137 27.1914L133 38.1231M137 27.1914L141 38.1231" stroke="#100F0F" stroke-width="0.5" stroke-linecap="round" stroke-linejoin="round"/>
<rect x="156" y="0.191406" width="762" height="225" rx="15" fill="#100F0F"/>
<rect x="156" y="0.191406" width="762" height="225" rx="15" fill="url(#paint0_linear_689_2024)"/>
<defs>
<linearGradient id="paint0_linear_689_2024" x1="537" y1="0.191406" x2="537" y2="225.191" gradientUnits="userSpaceOnUse">
<stop stop-color="white" stop-opacity="0"/>
<stop offset="0.132981" stop-color="white" stop-opacity="0"/>
<stop offset="0.528955" stop-color="white" stop-opacity="0.578057"/>
<stop offset="0.75719" stop-color="white" stop-opacity="0.802419"/>
<stop offset="0.855095" stop-color="white" stop-opacity="0.909202"/>
<stop offset="1" stop-color="white"/>
</linearGradient>
</defs>
</svg>
