<svg width="922" height="207" viewBox="0 0 922 207" fill="none" xmlns="http://www.w3.org/2000/svg">
<g clip-path="url(#clip0_689_1936)">
<mask id="path-1-outside-1_689_1936" maskUnits="userSpaceOnUse" x="0" y="56.1914" width="918" height="151" fill="black">
<rect fill="white" y="56.1914" width="918" height="151"/>
<path d="M0 56.1914H918V206.191H0V56.1914Z"/>
</mask>
<path d="M918 205.191H0V207.191H918V205.191Z" fill="#4A4A4A" mask="url(#path-1-outside-1_689_1936)"/>
<mask id="path-3-inside-2_689_1936" fill="white">
<path d="M0 56.1914H918V131.191H0V56.1914Z"/>
</mask>
<path d="M0 56.1914H918V131.191H0V56.1914Z" fill="#F2F2F2"/>
<path d="M0 57.1914H918V55.1914H0V57.1914Z" fill="#4A4A4A" mask="url(#path-3-inside-2_689_1936)"/>
<path d="M18.3025 86.1914H17.2V78.0914H18.3025V86.1914ZM17.7475 76.6964C17.5325 76.6964 17.35 76.6239 17.2 76.4789C17.055 76.3339 16.9825 76.1539 16.9825 75.9389C16.9825 75.7189 17.055 75.5364 17.2 75.3914C17.35 75.2464 17.5325 75.1739 17.7475 75.1739C17.9675 75.1739 18.15 75.2489 18.295 75.3989C18.445 75.5439 18.52 75.7239 18.52 75.9389C18.52 76.1539 18.445 76.3339 18.295 76.4789C18.15 76.6239 17.9675 76.6964 17.7475 76.6964ZM23.5735 86.4089C22.9435 86.4089 22.3835 86.3164 21.8935 86.1314C21.4035 85.9464 21.0035 85.6814 20.6935 85.3364C20.3885 84.9864 20.191 84.5689 20.101 84.0839L21.226 83.8964C21.341 84.3614 21.6135 84.7289 22.0435 84.9989C22.4735 85.2689 23.0035 85.4039 23.6335 85.4039C24.2485 85.4039 24.7335 85.2764 25.0885 85.0214C25.4435 84.7614 25.621 84.4089 25.621 83.9639C25.621 83.7039 25.561 83.4989 25.441 83.3489C25.326 83.1939 25.106 83.0514 24.781 82.9214C24.456 82.7914 23.936 82.6289 23.221 82.4339C22.476 82.2339 21.8985 82.0339 21.4885 81.8339C21.0785 81.6289 20.786 81.3989 20.611 81.1439C20.436 80.8839 20.3485 80.5614 20.3485 80.1764C20.3485 79.7214 20.476 79.3189 20.731 78.9689C20.991 78.6189 21.3535 78.3489 21.8185 78.1589C22.2835 77.9639 22.8185 77.8664 23.4235 77.8664C24.0285 77.8664 24.5735 77.9664 25.0585 78.1664C25.5435 78.3614 25.9335 78.6389 26.2285 78.9989C26.5235 79.3539 26.6985 79.7639 26.7535 80.2289L25.6285 80.4314C25.5485 79.9464 25.3035 79.5664 24.8935 79.2914C24.4835 79.0114 23.9635 78.8714 23.3335 78.8714C22.9685 78.8714 22.6435 78.9239 22.3585 79.0289C22.0785 79.1339 21.8585 79.2814 21.6985 79.4714C21.5435 79.6614 21.466 79.8789 21.466 80.1239C21.466 80.3489 21.531 80.5364 21.661 80.6864C21.796 80.8314 22.0285 80.9714 22.3585 81.1064C22.6935 81.2364 23.186 81.3839 23.836 81.5489C24.596 81.7439 25.1835 81.9464 25.5985 82.1564C26.0185 82.3614 26.3185 82.6064 26.4985 82.8914C26.6785 83.1714 26.7685 83.5239 26.7685 83.9489C26.7685 84.4539 26.641 84.8914 26.386 85.2614C26.131 85.6314 25.7635 85.9164 25.2835 86.1164C24.8035 86.3114 24.2335 86.4089 23.5735 86.4089ZM32.7818 81.9389H28.2818V80.9939H32.7818V81.9389ZM36.6582 79.0364V83.2139V83.6564C36.6582 83.9064 36.6682 84.1089 36.6882 84.2639C36.7082 84.4139 36.7532 84.5489 36.8232 84.6689C36.9432 84.8989 37.1157 85.0639 37.3407 85.1639C37.5657 85.2639 37.8482 85.3139 38.1882 85.3139C38.4732 85.3139 38.7907 85.2839 39.1407 85.2239V86.1914C38.7407 86.2714 38.3682 86.3114 38.0232 86.3114C37.5082 86.3114 37.0582 86.2239 36.6732 86.0489C36.2882 85.8739 36.0032 85.5989 35.8182 85.2239C35.7132 85.0089 35.6432 84.7889 35.6082 84.5639C35.5782 84.3389 35.5632 84.0589 35.5632 83.7239V83.2589V79.0364H33.8307V78.0914H35.5632V75.8414H36.6582V78.0914H39.1407V79.0364H36.6582ZM41.164 86.1914H39.8365L43.0015 82.0964L39.904 78.0914H41.224L43.6465 81.2489L46.0465 78.0914H47.3665L44.269 82.0964L47.4415 86.1914H46.114L43.6465 82.9439L41.164 86.1914ZM50.5742 79.0364V83.2139V83.6564C50.5742 83.9064 50.5842 84.1089 50.6042 84.2639C50.6242 84.4139 50.6692 84.5489 50.7392 84.6689C50.8592 84.8989 51.0317 85.0639 51.2567 85.1639C51.4817 85.2639 51.7642 85.3139 52.1042 85.3139C52.3892 85.3139 52.7067 85.2839 53.0567 85.2239V86.1914C52.6567 86.2714 52.2842 86.3114 51.9392 86.3114C51.4242 86.3114 50.9742 86.2239 50.5892 86.0489C50.2042 85.8739 49.9192 85.5989 49.7342 85.2239C49.6292 85.0089 49.5592 84.7889 49.5242 84.5639C49.4942 84.3389 49.4792 84.0589 49.4792 83.7239V83.2589V79.0364H47.7467V78.0914H49.4792V75.8414H50.5742V78.0914H53.0567V79.0364H50.5742ZM59.0025 81.9389H54.5025V80.9939H59.0025V81.9389ZM62.2039 86.1914H61.1014V75.1664H62.2039V86.1914ZM70.5948 79.4864C70.7548 79.8764 70.8348 80.4339 70.8348 81.1589V86.1914H69.8523V84.8489C69.5373 85.3639 69.1173 85.7539 68.5923 86.0189C68.0673 86.2839 67.4598 86.4164 66.7698 86.4164C66.1798 86.4164 65.6748 86.3089 65.2548 86.0939C64.8398 85.8789 64.5273 85.5889 64.3173 85.2239C64.1073 84.8589 64.0023 84.4564 64.0023 84.0164C64.0023 83.3864 64.1848 82.8789 64.5498 82.4939C64.9148 82.1089 65.4198 81.8314 66.0648 81.6614C66.4598 81.5664 66.8998 81.4814 67.3848 81.4064C67.8748 81.3314 68.4398 81.2514 69.0798 81.1664L69.7548 81.0764C69.7448 80.3314 69.5698 79.7839 69.2298 79.4339C68.8948 79.0839 68.3498 78.9089 67.5948 78.9089C67.0248 78.9089 66.5498 79.0364 66.1698 79.2914C65.7948 79.5464 65.5323 79.9389 65.3823 80.4689L64.3098 80.1539C64.4998 79.4239 64.8748 78.8614 65.4348 78.4664C65.9998 78.0664 66.7248 77.8664 67.6098 77.8664C68.3498 77.8664 68.9773 78.0064 69.4923 78.2864C70.0123 78.5664 70.3798 78.9664 70.5948 79.4864ZM66.8973 85.4639C67.3973 85.4639 67.8423 85.3739 68.2323 85.1939C68.6223 85.0089 68.9348 84.7564 69.1698 84.4364C69.4098 84.1114 69.5648 83.7439 69.6348 83.3339C69.7048 83.0239 69.7398 82.5939 69.7398 82.0439C69.5448 82.0639 69.4048 82.0814 69.3198 82.0964C68.6398 82.1764 68.0873 82.2489 67.6623 82.3139C67.2373 82.3739 66.8523 82.4514 66.5073 82.5464C65.5723 82.8214 65.1048 83.3114 65.1048 84.0164C65.1048 84.2664 65.1648 84.5014 65.2848 84.7214C65.4098 84.9414 65.6073 85.1214 65.8773 85.2614C66.1473 85.3964 66.4873 85.4639 66.8973 85.4639ZM74.4073 78.6239C74.6323 78.4239 74.8998 78.2739 75.2098 78.1739C75.5248 78.0739 75.8423 78.0239 76.1623 78.0239C76.3773 78.0239 76.5798 78.0464 76.7698 78.0914V79.1264C76.5548 79.0764 76.3473 79.0514 76.1473 79.0514C75.6273 79.0514 75.1898 79.1989 74.8348 79.4939C74.4648 79.7839 74.2148 80.1539 74.0848 80.6039C73.9548 81.0539 73.8898 81.5689 73.8898 82.1489V86.1914H72.7873V78.0914H73.7773V79.3739C73.9523 79.0639 74.1623 78.8139 74.4073 78.6239ZM83.6971 78.0914H84.6796V86.0789C84.6796 86.5739 84.6496 87.0039 84.5896 87.3689C84.3046 89.1339 83.1471 90.0164 81.1171 90.0164C80.4521 90.0164 79.8346 89.8689 79.2646 89.5739C78.6996 89.2789 78.2521 88.8314 77.9221 88.2314L78.9196 87.6764C79.1296 88.1014 79.4321 88.4189 79.8271 88.6289C80.2271 88.8389 80.6571 88.9439 81.1171 88.9439C81.9771 88.9439 82.6021 88.7064 82.9921 88.2314C83.3821 87.7564 83.5746 87.0339 83.5696 86.0639V85.2314C83.2696 85.6114 82.9071 85.9039 82.4821 86.1089C82.0571 86.3139 81.5771 86.4164 81.0421 86.4164C80.3021 86.4164 79.6596 86.2314 79.1146 85.8614C78.5746 85.4914 78.1621 84.9814 77.8771 84.3314C77.5921 83.6814 77.4496 82.9489 77.4496 82.1339C77.4496 81.3239 77.5921 80.5964 77.8771 79.9514C78.1621 79.3014 78.5721 78.7914 79.1071 78.4214C79.6471 78.0514 80.2771 77.8664 80.9971 77.8664C81.5821 77.8664 82.1021 77.9839 82.5571 78.2189C83.0121 78.4489 83.3921 78.7789 83.6971 79.2089V78.0914ZM81.1546 85.3889C81.7146 85.3889 82.1846 85.2514 82.5646 84.9764C82.9446 84.6964 83.2271 84.3139 83.4121 83.8289C83.6021 83.3389 83.6971 82.7739 83.6971 82.1339C83.6971 81.4889 83.6021 80.9239 83.4121 80.4389C83.2271 79.9489 82.9446 79.5689 82.5646 79.2989C82.1896 79.0289 81.7271 78.8939 81.1771 78.8939C80.6171 78.8939 80.1446 79.0339 79.7596 79.3139C79.3746 79.5939 79.0871 79.9789 78.8971 80.4689C78.7121 80.9539 78.6196 81.5089 78.6196 82.1339C78.6196 82.7589 78.7146 83.3189 78.9046 83.8139C79.0996 84.3039 79.3871 84.6889 79.7671 84.9689C80.1471 85.2489 80.6096 85.3889 81.1546 85.3889ZM87.5041 82.4489C87.5491 83.3789 87.8016 84.0964 88.2616 84.6014C88.7216 85.1064 89.3541 85.3589 90.1591 85.3589C90.7341 85.3589 91.2391 85.2264 91.6741 84.9614C92.1091 84.6914 92.4516 84.3039 92.7016 83.7989L93.7291 84.1964C93.4091 84.9014 92.9391 85.4489 92.3191 85.8389C91.6991 86.2239 90.9941 86.4164 90.2041 86.4164C89.4241 86.4164 88.7416 86.2414 88.1566 85.8914C87.5716 85.5414 87.1191 85.0489 86.7991 84.4139C86.4841 83.7739 86.3266 83.0289 86.3266 82.1789C86.3266 81.3039 86.4816 80.5414 86.7916 79.8914C87.1066 79.2414 87.5516 78.7414 88.1266 78.3914C88.7066 78.0414 89.3841 77.8664 90.1591 77.8664C90.9341 77.8664 91.5991 78.0414 92.1541 78.3914C92.7141 78.7364 93.1416 79.2364 93.4366 79.8914C93.7366 80.5414 93.8866 81.3164 93.8866 82.2164V82.4489H87.5041ZM90.1891 78.8789C89.4141 78.8789 88.7966 79.1064 88.3366 79.5614C87.8816 80.0164 87.6116 80.6714 87.5266 81.5264H92.7316C92.6516 80.6514 92.3966 79.9914 91.9666 79.5464C91.5366 79.1014 90.9441 78.8789 90.1891 78.8789Z" fill="#100F0F"/>
<path d="M190.43 85.1264H195.8V86.1839H188.75L188.758 85.1789L193.64 80.7689C194.035 80.4139 194.308 80.0664 194.458 79.7264C194.608 79.3864 194.683 79.0139 194.683 78.6089C194.683 78.1689 194.578 77.7689 194.368 77.4089C194.163 77.0439 193.88 76.7564 193.52 76.5464C193.16 76.3314 192.763 76.2239 192.328 76.2239C191.878 76.2239 191.47 76.3339 191.105 76.5539C190.74 76.7689 190.453 77.0589 190.243 77.4239C190.038 77.7889 189.938 78.1814 189.943 78.6014H188.818C188.818 77.9564 188.97 77.3714 189.275 76.8464C189.585 76.3214 190.008 75.9114 190.543 75.6164C191.083 75.3164 191.683 75.1664 192.343 75.1664C192.988 75.1664 193.573 75.3189 194.098 75.6239C194.628 75.9289 195.043 76.3464 195.343 76.8764C195.648 77.4014 195.8 77.9814 195.8 78.6164C195.8 79.0614 195.745 79.4539 195.635 79.7939C195.53 80.1289 195.368 80.4414 195.148 80.7314C194.933 81.0214 194.64 81.3314 194.27 81.6614L190.43 85.1264ZM200.92 79.2239C201.57 79.2239 202.165 79.3839 202.705 79.7039C203.25 80.0189 203.68 80.4489 203.995 80.9939C204.31 81.5389 204.467 82.1389 204.467 82.7939C204.467 83.4439 204.3 84.0464 203.965 84.6014C203.635 85.1564 203.187 85.5989 202.622 85.9289C202.057 86.2539 201.447 86.4164 200.792 86.4164C200.242 86.4164 199.727 86.3039 199.247 86.0789C198.767 85.8489 198.357 85.5314 198.017 85.1264C197.682 84.7164 197.445 84.2489 197.305 83.7239L198.362 83.4389C198.457 83.8189 198.627 84.1539 198.872 84.4439C199.122 84.7289 199.417 84.9489 199.757 85.1039C200.097 85.2589 200.452 85.3364 200.822 85.3364C201.292 85.3364 201.72 85.2214 202.105 84.9914C202.495 84.7614 202.802 84.4514 203.027 84.0614C203.252 83.6714 203.365 83.2489 203.365 82.7939C203.365 82.3289 203.247 81.9039 203.012 81.5189C202.782 81.1289 202.472 80.8214 202.082 80.5964C201.692 80.3714 201.272 80.2589 200.822 80.2589C200.332 80.2589 199.9 80.3639 199.525 80.5739C199.155 80.7839 198.852 81.0689 198.617 81.4289L197.612 81.0089L197.942 75.3914H203.71V76.4489H198.947L198.73 80.0414C199.03 79.7814 199.367 79.5814 199.742 79.4414C200.122 79.2964 200.515 79.2239 200.92 79.2239ZM209.944 77.8664C210.664 77.8664 211.292 78.0514 211.827 78.4214C212.367 78.7914 212.779 79.3014 213.064 79.9514C213.349 80.5964 213.492 81.3239 213.492 82.1339C213.492 82.9489 213.349 83.6814 213.064 84.3314C212.779 84.9814 212.364 85.4914 211.819 85.8614C211.279 86.2314 210.639 86.4164 209.899 86.4164C209.364 86.4164 208.882 86.3139 208.452 86.1089C208.027 85.8989 207.664 85.6039 207.364 85.2239V89.7914H206.254V78.0914H207.244V79.2089C207.549 78.7789 207.929 78.4489 208.384 78.2189C208.839 77.9839 209.359 77.8664 209.944 77.8664ZM209.787 85.3889C210.332 85.3889 210.794 85.2489 211.174 84.9689C211.554 84.6889 211.839 84.3039 212.029 83.8139C212.224 83.3189 212.322 82.7589 212.322 82.1339C212.322 81.5089 212.227 80.9539 212.037 80.4689C211.852 79.9789 211.567 79.5939 211.182 79.3139C210.797 79.0339 210.324 78.8939 209.764 78.8939C209.214 78.8939 208.749 79.0289 208.369 79.2989C207.994 79.5689 207.712 79.9489 207.522 80.4389C207.337 80.9239 207.244 81.4889 207.244 82.1339C207.244 82.7739 207.337 83.3389 207.522 83.8289C207.712 84.3139 207.997 84.6964 208.377 84.9764C208.757 85.2514 209.227 85.3889 209.787 85.3889ZM215.42 86.1914H214.092L217.257 82.0964L214.16 78.0914H215.48L217.902 81.2489L220.302 78.0914H221.622L218.525 82.0964L221.697 86.1914H220.37L217.902 82.9439L215.42 86.1914Z" fill="#100F0F"/>
<path d="M322.05 86.1914H320.933V76.6214L318.9 77.8439V76.6064L320.933 75.3914H322.05V86.1914ZM326.275 85.1264H331.645V86.1839H324.595L324.602 85.1789L329.485 80.7689C329.88 80.4139 330.152 80.0664 330.302 79.7264C330.452 79.3864 330.527 79.0139 330.527 78.6089C330.527 78.1689 330.422 77.7689 330.212 77.4089C330.007 77.0439 329.725 76.7564 329.365 76.5464C329.005 76.3314 328.607 76.2239 328.172 76.2239C327.722 76.2239 327.315 76.3339 326.95 76.5539C326.585 76.7689 326.297 77.0589 326.087 77.4239C325.882 77.7889 325.782 78.1814 325.787 78.6014H324.662C324.662 77.9564 324.815 77.3714 325.12 76.8464C325.43 76.3214 325.852 75.9114 326.387 75.6164C326.927 75.3164 327.527 75.1664 328.187 75.1664C328.832 75.1664 329.417 75.3189 329.942 75.6239C330.472 75.9289 330.887 76.3464 331.187 76.8764C331.492 77.4014 331.645 77.9814 331.645 78.6164C331.645 79.0614 331.59 79.4539 331.48 79.7939C331.375 80.1289 331.212 80.4414 330.992 80.7314C330.777 81.0214 330.485 81.3314 330.115 81.6614L326.275 85.1264ZM336.974 86.4164C336.314 86.4164 335.714 86.2639 335.174 85.9589C334.639 85.6489 334.217 85.2264 333.907 84.6914C333.602 84.1514 333.449 83.5514 333.449 82.8914V78.6914C333.449 78.0314 333.602 77.4339 333.907 76.8989C334.217 76.3589 334.639 75.9364 335.174 75.6314C335.714 75.3214 336.314 75.1664 336.974 75.1664C337.634 75.1664 338.232 75.3214 338.767 75.6314C339.307 75.9364 339.729 76.3589 340.034 76.8989C340.344 77.4339 340.499 78.0314 340.499 78.6914V82.8914C340.499 83.5514 340.344 84.1514 340.034 84.6914C339.729 85.2264 339.307 85.6489 338.767 85.9589C338.232 86.2639 337.634 86.4164 336.974 86.4164ZM336.974 85.3514C337.409 85.3514 337.812 85.2439 338.182 85.0289C338.552 84.8139 338.844 84.5214 339.059 84.1514C339.274 83.7814 339.382 83.3789 339.382 82.9439V78.6389C339.382 78.1989 339.274 77.7964 339.059 77.4314C338.844 77.0614 338.552 76.7689 338.182 76.5539C337.812 76.3339 337.409 76.2239 336.974 76.2239C336.539 76.2239 336.137 76.3339 335.767 76.5539C335.397 76.7689 335.104 77.0614 334.889 77.4314C334.674 77.7964 334.567 78.1989 334.567 78.6389V82.9439C334.567 83.3789 334.674 83.7814 334.889 84.1514C335.104 84.5214 335.397 84.8139 335.767 85.0289C336.137 85.2439 336.539 85.3514 336.974 85.3514ZM345.155 80.5664C344.665 80.5664 344.212 80.4464 343.797 80.2064C343.387 79.9664 343.06 79.6389 342.815 79.2239C342.575 78.8089 342.455 78.3564 342.455 77.8664C342.455 77.3864 342.577 76.9389 342.822 76.5239C343.072 76.1089 343.405 75.7789 343.82 75.5339C344.235 75.2889 344.68 75.1664 345.155 75.1664C345.645 75.1664 346.095 75.2864 346.505 75.5264C346.92 75.7664 347.247 76.0939 347.487 76.5089C347.732 76.9239 347.855 77.3764 347.855 77.8664C347.855 78.3564 347.732 78.8089 347.487 79.2239C347.247 79.6389 346.92 79.9664 346.505 80.2064C346.095 80.4464 345.645 80.5664 345.155 80.5664ZM353.727 76.1339L343.655 86.1914L342.905 85.4414L352.977 75.3914L353.727 76.1339ZM345.155 79.5689C345.455 79.5689 345.735 79.4914 345.995 79.3364C346.26 79.1814 346.47 78.9739 346.625 78.7139C346.78 78.4489 346.857 78.1664 346.857 77.8664C346.857 77.5664 346.78 77.2864 346.625 77.0264C346.47 76.7614 346.26 76.5514 345.995 76.3964C345.735 76.2414 345.455 76.1639 345.155 76.1639C344.855 76.1639 344.572 76.2414 344.307 76.3964C344.047 76.5514 343.84 76.7614 343.685 77.0264C343.53 77.2864 343.452 77.5664 343.452 77.8664C343.452 78.1664 343.53 78.4489 343.685 78.7139C343.84 78.9739 344.047 79.1814 344.307 79.3364C344.572 79.4914 344.855 79.5689 345.155 79.5689ZM351.477 86.4164C350.987 86.4164 350.535 86.2964 350.12 86.0564C349.71 85.8164 349.382 85.4889 349.137 85.0739C348.897 84.6589 348.777 84.2064 348.777 83.7164C348.777 83.2364 348.9 82.7889 349.145 82.3739C349.395 81.9589 349.727 81.6289 350.142 81.3839C350.557 81.1389 351.002 81.0164 351.477 81.0164C351.967 81.0164 352.417 81.1364 352.827 81.3764C353.242 81.6164 353.57 81.9439 353.81 82.3589C354.055 82.7739 354.177 83.2264 354.177 83.7164C354.177 84.2064 354.055 84.6589 353.81 85.0739C353.57 85.4889 353.242 85.8164 352.827 86.0564C352.417 86.2964 351.967 86.4164 351.477 86.4164ZM351.477 85.4189C351.777 85.4189 352.057 85.3414 352.317 85.1864C352.582 85.0314 352.792 84.8239 352.947 84.5639C353.102 84.2989 353.18 84.0164 353.18 83.7164C353.18 83.4164 353.102 83.1364 352.947 82.8764C352.792 82.6114 352.582 82.4014 352.317 82.2464C352.057 82.0914 351.777 82.0139 351.477 82.0139C351.172 82.0139 350.887 82.0914 350.622 82.2464C350.362 82.4014 350.155 82.6114 350 82.8764C349.845 83.1364 349.767 83.4164 349.767 83.7164C349.767 84.0164 349.845 84.2989 350 84.5639C350.155 84.8239 350.362 85.0314 350.622 85.1864C350.887 85.3414 351.172 85.4189 351.477 85.4189Z" fill="#100F0F"/>
<path d="M450.8 86.4164C450.05 86.4164 449.373 86.2914 448.768 86.0414C448.163 85.7864 447.663 85.4264 447.268 84.9614C446.878 84.4914 446.623 83.9389 446.503 83.3039L447.628 83.1164C447.748 83.5764 447.958 83.9764 448.258 84.3164C448.563 84.6514 448.935 84.9089 449.375 85.0889C449.82 85.2689 450.31 85.3589 450.845 85.3589C451.375 85.3589 451.85 85.2739 452.27 85.1039C452.695 84.9339 453.025 84.6939 453.26 84.3839C453.5 84.0689 453.62 83.7039 453.62 83.2889C453.62 82.7939 453.465 82.4164 453.155 82.1564C452.845 81.8914 452.448 81.6864 451.963 81.5414L449.225 80.7239C447.69 80.2689 446.923 79.4064 446.923 78.1364C446.923 77.5414 447.08 77.0214 447.395 76.5764C447.71 76.1264 448.145 75.7814 448.7 75.5414C449.255 75.2964 449.885 75.1739 450.59 75.1739C451.305 75.1739 451.95 75.3014 452.525 75.5564C453.105 75.8064 453.58 76.1689 453.95 76.6439C454.325 77.1189 454.57 77.6789 454.685 78.3239L453.53 78.5339C453.46 78.0739 453.288 77.6689 453.013 77.3189C452.738 76.9689 452.39 76.6989 451.97 76.5089C451.55 76.3189 451.088 76.2239 450.583 76.2239C450.113 76.2239 449.688 76.3064 449.308 76.4714C448.928 76.6314 448.628 76.8539 448.408 77.1389C448.193 77.4239 448.085 77.7414 448.085 78.0914C448.085 78.4314 448.18 78.7139 448.37 78.9389C448.56 79.1589 448.788 79.3314 449.053 79.4564C449.323 79.5764 449.64 79.6889 450.005 79.7939L452.12 80.4164C452.56 80.5414 452.963 80.6939 453.328 80.8739C453.693 81.0539 454.02 81.3389 454.31 81.7289C454.6 82.1139 454.745 82.6189 454.745 83.2439C454.745 83.8989 454.575 84.4664 454.235 84.9464C453.895 85.4214 453.425 85.7864 452.825 86.0414C452.23 86.2914 451.555 86.4164 450.8 86.4164ZM457.021 82.4489C457.066 83.3789 457.318 84.0964 457.778 84.6014C458.238 85.1064 458.871 85.3589 459.676 85.3589C460.251 85.3589 460.756 85.2264 461.191 84.9614C461.626 84.6914 461.968 84.3039 462.218 83.7989L463.246 84.1964C462.926 84.9014 462.456 85.4489 461.836 85.8389C461.216 86.2239 460.511 86.4164 459.721 86.4164C458.941 86.4164 458.258 86.2414 457.673 85.8914C457.088 85.5414 456.636 85.0489 456.316 84.4139C456.001 83.7739 455.843 83.0289 455.843 82.1789C455.843 81.3039 455.998 80.5414 456.308 79.8914C456.623 79.2414 457.068 78.7414 457.643 78.3914C458.223 78.0414 458.901 77.8664 459.676 77.8664C460.451 77.8664 461.116 78.0414 461.671 78.3914C462.231 78.7364 462.658 79.2364 462.953 79.8914C463.253 80.5414 463.403 81.3164 463.403 82.2164V82.4489H457.021ZM459.706 78.8789C458.931 78.8789 458.313 79.1064 457.853 79.5614C457.398 80.0164 457.128 80.6714 457.043 81.5264H462.248C462.168 80.6514 461.913 79.9914 461.483 79.5464C461.053 79.1014 460.461 78.8789 459.706 78.8789ZM472.925 77.8739C473.465 77.8739 473.938 77.9889 474.343 78.2189C474.753 78.4439 475.068 78.7664 475.288 79.1864C475.508 79.6064 475.618 80.0989 475.618 80.6639L475.61 86.1914H474.508L474.515 80.8739C474.515 80.4639 474.435 80.1089 474.275 79.8089C474.12 79.5039 473.903 79.2714 473.623 79.1114C473.343 78.9464 473.025 78.8639 472.67 78.8639C472.34 78.8639 472.033 78.9389 471.748 79.0889C471.463 79.2339 471.23 79.4639 471.05 79.7789C470.87 80.0939 470.78 80.4889 470.78 80.9639L470.773 86.1914H469.685L469.693 80.9489C469.693 80.5239 469.615 80.1539 469.46 79.8389C469.305 79.5239 469.085 79.2839 468.8 79.1189C468.52 78.9489 468.195 78.8639 467.825 78.8639C467.455 78.8639 467.128 78.9514 466.843 79.1264C466.558 79.2964 466.338 79.5414 466.183 79.8614C466.028 80.1764 465.95 80.5439 465.95 80.9639V86.1914H464.84V78.0914H465.83V78.9464C466.085 78.6114 466.41 78.3489 466.805 78.1589C467.2 77.9689 467.635 77.8739 468.11 77.8739C468.645 77.8739 469.118 77.9914 469.528 78.2264C469.943 78.4614 470.258 78.7989 470.473 79.2389C470.708 78.8089 471.04 78.4739 471.47 78.2339C471.9 77.9939 472.385 77.8739 472.925 77.8739ZM478.815 86.1914H477.713V78.0914H478.815V86.1914ZM478.26 76.6964C478.045 76.6964 477.863 76.6239 477.713 76.4789C477.568 76.3339 477.495 76.1539 477.495 75.9389C477.495 75.7189 477.568 75.5364 477.713 75.3914C477.863 75.2464 478.045 75.1739 478.26 75.1739C478.48 75.1739 478.663 75.2489 478.808 75.3989C478.958 75.5439 479.033 75.7239 479.033 75.9389C479.033 76.1539 478.958 76.3339 478.808 76.4789C478.663 76.6239 478.48 76.6964 478.26 76.6964ZM486.974 80.4614C487.544 80.7064 487.984 81.0639 488.294 81.5339C488.609 81.9989 488.766 82.5414 488.766 83.1614C488.766 83.7764 488.634 84.3139 488.369 84.7739C488.104 85.2289 487.731 85.5789 487.251 85.8239C486.771 86.0689 486.214 86.1914 485.579 86.1914H481.064V75.3914H485.234C485.824 75.3914 486.346 75.5164 486.801 75.7664C487.256 76.0114 487.609 76.3464 487.859 76.7714C488.114 77.1964 488.241 77.6639 488.241 78.1739C488.241 78.6639 488.126 79.1114 487.896 79.5164C487.671 79.9214 487.364 80.2364 486.974 80.4614ZM482.174 76.4339V79.9964H485.226C485.571 79.9964 485.886 79.9189 486.171 79.7639C486.456 79.6039 486.681 79.3839 486.846 79.1039C487.016 78.8239 487.101 78.5089 487.101 78.1589C487.101 77.8239 487.021 77.5264 486.861 77.2664C486.701 77.0014 486.479 76.7964 486.194 76.6514C485.909 76.5064 485.586 76.4339 485.226 76.4339H482.174ZM485.309 85.1339C485.749 85.1339 486.144 85.0564 486.494 84.9014C486.844 84.7414 487.119 84.5139 487.319 84.2189C487.524 83.9239 487.626 83.5764 487.626 83.1764C487.626 82.7814 487.534 82.4214 487.349 82.0964C487.164 81.7714 486.911 81.5139 486.591 81.3239C486.271 81.1339 485.911 81.0389 485.511 81.0389H482.174V85.1339H485.309ZM493.645 86.4164C492.855 86.4164 492.17 86.2364 491.59 85.8764C491.015 85.5114 490.575 85.0064 490.27 84.3614C489.965 83.7164 489.813 82.9739 489.813 82.1339C489.813 81.2889 489.968 80.5439 490.278 79.8989C490.588 79.2539 491.03 78.7539 491.605 78.3989C492.185 78.0439 492.865 77.8664 493.645 77.8664C494.44 77.8664 495.125 78.0464 495.7 78.4064C496.28 78.7664 496.723 79.2689 497.028 79.9139C497.333 80.5589 497.485 81.2989 497.485 82.1339C497.485 82.9839 497.33 83.7314 497.02 84.3764C496.715 85.0214 496.273 85.5239 495.693 85.8839C495.118 86.2389 494.435 86.4164 493.645 86.4164ZM493.645 85.3589C494.23 85.3589 494.723 85.2264 495.123 84.9614C495.523 84.6914 495.82 84.3164 496.015 83.8364C496.215 83.3514 496.315 82.7839 496.315 82.1339C496.315 81.1339 496.088 80.3489 495.633 79.7789C495.183 79.2089 494.52 78.9239 493.645 78.9239C492.765 78.9239 492.1 79.2139 491.65 79.7939C491.205 80.3689 490.983 81.1489 490.983 82.1339C490.983 82.7889 491.083 83.3589 491.283 83.8439C491.488 84.3289 491.788 84.7039 492.183 84.9689C492.583 85.2289 493.07 85.3589 493.645 85.3589ZM500.392 86.1914H499.29V75.1664H500.392V86.1914ZM508.318 75.3914H509.428V86.1914H508.438V85.0589C508.138 85.4889 507.763 85.8239 507.313 86.0639C506.868 86.2989 506.358 86.4164 505.783 86.4164C505.043 86.4164 504.401 86.2314 503.856 85.8614C503.316 85.4914 502.903 84.9814 502.618 84.3314C502.333 83.6814 502.191 82.9489 502.191 82.1339C502.191 81.3239 502.333 80.5964 502.618 79.9514C502.903 79.3014 503.313 78.7914 503.848 78.4214C504.388 78.0514 505.018 77.8664 505.738 77.8664C506.288 77.8664 506.778 77.9689 507.208 78.1739C507.643 78.3789 508.013 78.6689 508.318 79.0439V75.3914ZM505.896 85.3889C506.456 85.3889 506.926 85.2514 507.306 84.9764C507.686 84.6964 507.968 84.3139 508.153 83.8289C508.343 83.3389 508.438 82.7739 508.438 82.1339C508.438 81.4889 508.343 80.9239 508.153 80.4389C507.968 79.9489 507.686 79.5689 507.306 79.2989C506.931 79.0289 506.468 78.8939 505.918 78.8939C505.358 78.8939 504.886 79.0339 504.501 79.3139C504.116 79.5939 503.828 79.9789 503.638 80.4689C503.453 80.9539 503.361 81.5089 503.361 82.1339C503.361 82.7589 503.456 83.3189 503.646 83.8139C503.841 84.3039 504.128 84.6889 504.508 84.9689C504.888 85.2489 505.351 85.3889 505.896 85.3889Z" fill="#100F0F"/>
<path d="M586.763 95.1914H576V77.1914H578.613V92.7289H586.763V95.1914ZM594.747 95.5664C590.697 95.5664 588.135 92.6164 588.135 88.4289C588.135 84.2039 590.772 81.3164 594.747 81.3164C598.797 81.3164 601.372 84.2539 601.372 88.4289C601.372 92.6539 598.772 95.5664 594.747 95.5664ZM594.747 93.1039C597.322 93.1039 598.597 91.1914 598.597 88.4289C598.597 85.6039 597.297 83.7789 594.747 83.7789C592.122 83.7789 590.91 85.6789 590.91 88.4289C590.91 91.2789 592.222 93.1039 594.747 93.1039ZM607.694 82.4539C608.707 81.7039 610.194 81.4664 611.407 81.6914V84.1414C610.532 83.9039 609.357 83.9789 608.457 84.5539C607.182 85.3664 606.757 86.7914 606.757 88.3789V95.1914H604.119V81.6914H606.444V83.8414C606.757 83.2789 607.182 82.7914 607.694 82.4539ZM625.655 89.1789H615.593C615.805 91.6914 617.13 93.1039 619.405 93.1039C621.03 93.1039 622.255 92.3414 622.918 90.9539L625.48 91.7664C624.43 94.1789 622.143 95.5664 619.53 95.5664C615.493 95.5664 612.793 92.7289 612.793 88.5539C612.793 84.1289 615.455 81.3164 619.405 81.3164C623.53 81.3164 625.93 84.3414 625.655 89.1789ZM619.505 83.6289C617.28 83.6289 615.993 84.8539 615.655 87.1414H622.98C622.705 84.7539 621.58 83.6289 619.505 83.6289ZM642.306 81.3539C645.206 81.3539 646.894 83.2539 646.894 86.1539L646.881 95.1914H644.269L644.281 86.7789C644.281 84.8414 643.181 83.6789 641.556 83.6789C640.069 83.6789 638.806 84.7164 638.806 86.7539L638.794 95.1914H636.181L636.194 86.8289C636.194 84.8789 635.119 83.6789 633.456 83.6789C631.806 83.6789 630.706 84.9164 630.706 86.7539V95.1914H628.081V81.6914H630.406V83.1414C631.269 82.0414 632.656 81.3539 634.281 81.3539C636.144 81.3539 637.494 82.1789 638.206 83.5414C639.031 82.1789 640.544 81.3539 642.306 81.3539ZM658.007 95.1914H655.395V77.1914H658.007V95.1914ZM668.048 81.3164C671.848 81.3164 674.211 84.3539 674.211 88.4289C674.211 92.4789 671.861 95.5664 668.098 95.5664C666.561 95.5664 665.323 95.0789 664.373 94.2414V101.191H661.748V81.6914H664.073V82.9039C665.036 81.9039 666.373 81.3164 668.048 81.3164ZM667.736 93.2039C670.248 93.2039 671.436 91.1039 671.436 88.4289C671.436 85.7789 670.248 83.6789 667.648 83.6789C665.186 83.6789 664.073 85.6289 664.073 88.4289C664.073 91.2289 665.161 93.2039 667.736 93.2039ZM681.889 95.5539C678.602 95.5539 676.439 94.0414 675.977 91.4039L678.652 90.9914C678.989 92.4039 680.264 93.2539 682.064 93.2539C683.689 93.2539 684.677 92.5539 684.677 91.3789C684.677 90.3539 684.227 90.0789 681.052 89.2289C677.564 88.3164 676.414 87.3539 676.414 85.3664C676.414 82.9164 678.489 81.3164 681.664 81.3164C684.764 81.3164 686.989 82.8789 687.289 85.2789L684.614 85.7664C684.427 84.4789 683.339 83.6789 681.689 83.6164C680.102 83.5539 679.027 84.2039 679.027 85.2289C679.027 86.1289 679.639 86.4789 682.802 87.2789C686.202 88.1539 687.364 89.1914 687.364 91.2789C687.364 93.9539 685.302 95.5539 681.889 95.5539ZM699.367 88.7164V81.6914H702.005V95.1914H699.68V93.5789C698.692 94.8289 697.167 95.5539 695.217 95.5539C690.567 95.5539 689.88 91.2789 689.88 89.1914V81.6914H692.53V88.3289C692.53 90.4289 693.067 93.0789 695.942 93.0789C697.817 93.0789 699.367 91.9164 699.367 88.7164ZM719.723 81.3539C722.623 81.3539 724.311 83.2539 724.311 86.1539L724.298 95.1914H721.686L721.698 86.7789C721.698 84.8414 720.598 83.6789 718.973 83.6789C717.486 83.6789 716.223 84.7164 716.223 86.7539L716.211 95.1914H713.598L713.611 86.8289C713.611 84.8789 712.536 83.6789 710.873 83.6789C709.223 83.6789 708.123 84.9164 708.123 86.7539V95.1914H705.498V81.6914H707.823V83.1414C708.686 82.0414 710.073 81.3539 711.698 81.3539C713.561 81.3539 714.911 82.1789 715.623 83.5414C716.448 82.1789 717.961 81.3539 719.723 81.3539Z" fill="#100F0F"/>
<mask id="path-10-inside-3_689_1936" fill="white">
<path d="M0 131.191H918V206.191H0V131.191Z"/>
</mask>
<path d="M0 131.191H918V206.191H0V131.191Z" fill="#F2F2F2"/>
<path d="M0 132.191H918V130.191H0V132.191Z" fill="#4A4A4A" mask="url(#path-10-inside-3_689_1936)"/>
<path d="M18.3025 161.191H17.2V153.091H18.3025V161.191ZM17.7475 151.696C17.5325 151.696 17.35 151.624 17.2 151.479C17.055 151.334 16.9825 151.154 16.9825 150.939C16.9825 150.719 17.055 150.536 17.2 150.391C17.35 150.246 17.5325 150.174 17.7475 150.174C17.9675 150.174 18.15 150.249 18.295 150.399C18.445 150.544 18.52 150.724 18.52 150.939C18.52 151.154 18.445 151.334 18.295 151.479C18.15 151.624 17.9675 151.696 17.7475 151.696ZM23.5735 161.409C22.9435 161.409 22.3835 161.316 21.8935 161.131C21.4035 160.946 21.0035 160.681 20.6935 160.336C20.3885 159.986 20.191 159.569 20.101 159.084L21.226 158.896C21.341 159.361 21.6135 159.729 22.0435 159.999C22.4735 160.269 23.0035 160.404 23.6335 160.404C24.2485 160.404 24.7335 160.276 25.0885 160.021C25.4435 159.761 25.621 159.409 25.621 158.964C25.621 158.704 25.561 158.499 25.441 158.349C25.326 158.194 25.106 158.051 24.781 157.921C24.456 157.791 23.936 157.629 23.221 157.434C22.476 157.234 21.8985 157.034 21.4885 156.834C21.0785 156.629 20.786 156.399 20.611 156.144C20.436 155.884 20.3485 155.561 20.3485 155.176C20.3485 154.721 20.476 154.319 20.731 153.969C20.991 153.619 21.3535 153.349 21.8185 153.159C22.2835 152.964 22.8185 152.866 23.4235 152.866C24.0285 152.866 24.5735 152.966 25.0585 153.166C25.5435 153.361 25.9335 153.639 26.2285 153.999C26.5235 154.354 26.6985 154.764 26.7535 155.229L25.6285 155.431C25.5485 154.946 25.3035 154.566 24.8935 154.291C24.4835 154.011 23.9635 153.871 23.3335 153.871C22.9685 153.871 22.6435 153.924 22.3585 154.029C22.0785 154.134 21.8585 154.281 21.6985 154.471C21.5435 154.661 21.466 154.879 21.466 155.124C21.466 155.349 21.531 155.536 21.661 155.686C21.796 155.831 22.0285 155.971 22.3585 156.106C22.6935 156.236 23.186 156.384 23.836 156.549C24.596 156.744 25.1835 156.946 25.5985 157.156C26.0185 157.361 26.3185 157.606 26.4985 157.891C26.6785 158.171 26.7685 158.524 26.7685 158.949C26.7685 159.454 26.641 159.891 26.386 160.261C26.131 160.631 25.7635 160.916 25.2835 161.116C24.8035 161.311 24.2335 161.409 23.5735 161.409ZM32.7818 156.939H28.2818V155.994H32.7818V156.939ZM36.6582 154.036V158.214V158.656C36.6582 158.906 36.6682 159.109 36.6882 159.264C36.7082 159.414 36.7532 159.549 36.8232 159.669C36.9432 159.899 37.1157 160.064 37.3407 160.164C37.5657 160.264 37.8482 160.314 38.1882 160.314C38.4732 160.314 38.7907 160.284 39.1407 160.224V161.191C38.7407 161.271 38.3682 161.311 38.0232 161.311C37.5082 161.311 37.0582 161.224 36.6732 161.049C36.2882 160.874 36.0032 160.599 35.8182 160.224C35.7132 160.009 35.6432 159.789 35.6082 159.564C35.5782 159.339 35.5632 159.059 35.5632 158.724V158.259V154.036H33.8307V153.091H35.5632V150.841H36.6582V153.091H39.1407V154.036H36.6582ZM41.164 161.191H39.8365L43.0015 157.096L39.904 153.091H41.224L43.6465 156.249L46.0465 153.091H47.3665L44.269 157.096L47.4415 161.191H46.114L43.6465 157.944L41.164 161.191ZM50.5742 154.036V158.214V158.656C50.5742 158.906 50.5842 159.109 50.6042 159.264C50.6242 159.414 50.6692 159.549 50.7392 159.669C50.8592 159.899 51.0317 160.064 51.2567 160.164C51.4817 160.264 51.7642 160.314 52.1042 160.314C52.3892 160.314 52.7067 160.284 53.0567 160.224V161.191C52.6567 161.271 52.2842 161.311 51.9392 161.311C51.4242 161.311 50.9742 161.224 50.5892 161.049C50.2042 160.874 49.9192 160.599 49.7342 160.224C49.6292 160.009 49.5592 159.789 49.5242 159.564C49.4942 159.339 49.4792 159.059 49.4792 158.724V158.259V154.036H47.7467V153.091H49.4792V150.841H50.5742V153.091H53.0567V154.036H50.5742ZM59.0025 156.939H54.5025V155.994H59.0025V156.939ZM69.0289 152.874C69.5689 152.874 70.0414 152.989 70.4464 153.219C70.8564 153.444 71.1714 153.766 71.3914 154.186C71.6114 154.606 71.7214 155.099 71.7214 155.664L71.7139 161.191H70.6114L70.6189 155.874C70.6189 155.464 70.5389 155.109 70.3789 154.809C70.2239 154.504 70.0064 154.271 69.7264 154.111C69.4464 153.946 69.1289 153.864 68.7739 153.864C68.4439 153.864 68.1364 153.939 67.8514 154.089C67.5664 154.234 67.3339 154.464 67.1539 154.779C66.9739 155.094 66.8839 155.489 66.8839 155.964L66.8764 161.191H65.7889L65.7964 155.949C65.7964 155.524 65.7189 155.154 65.5639 154.839C65.4089 154.524 65.1889 154.284 64.9039 154.119C64.6239 153.949 64.2989 153.864 63.9289 153.864C63.5589 153.864 63.2314 153.951 62.9464 154.126C62.6614 154.296 62.4414 154.541 62.2864 154.861C62.1314 155.176 62.0539 155.544 62.0539 155.964V161.191H60.9439V153.091H61.9339V153.946C62.1889 153.611 62.5139 153.349 62.9089 153.159C63.3039 152.969 63.7389 152.874 64.2139 152.874C64.7489 152.874 65.2214 152.991 65.6314 153.226C66.0464 153.461 66.3614 153.799 66.5764 154.239C66.8114 153.809 67.1439 153.474 67.5739 153.234C68.0039 152.994 68.4889 152.874 69.0289 152.874ZM74.3351 157.449C74.3801 158.379 74.6326 159.096 75.0926 159.601C75.5526 160.106 76.1851 160.359 76.9901 160.359C77.5651 160.359 78.0701 160.226 78.5051 159.961C78.9401 159.691 79.2826 159.304 79.5326 158.799L80.5601 159.196C80.2401 159.901 79.7701 160.449 79.1501 160.839C78.5301 161.224 77.8251 161.416 77.0351 161.416C76.2551 161.416 75.5726 161.241 74.9876 160.891C74.4026 160.541 73.9501 160.049 73.6301 159.414C73.3151 158.774 73.1576 158.029 73.1576 157.179C73.1576 156.304 73.3126 155.541 73.6226 154.891C73.9376 154.241 74.3826 153.741 74.9576 153.391C75.5376 153.041 76.2151 152.866 76.9901 152.866C77.7651 152.866 78.4301 153.041 78.9851 153.391C79.5451 153.736 79.9726 154.236 80.2676 154.891C80.5676 155.541 80.7176 156.316 80.7176 157.216V157.449H74.3351ZM77.0201 153.879C76.2451 153.879 75.6276 154.106 75.1676 154.561C74.7126 155.016 74.4426 155.671 74.3576 156.526H79.5626C79.4826 155.651 79.2276 154.991 78.7976 154.546C78.3676 154.101 77.7751 153.879 77.0201 153.879ZM88.0595 150.391H89.1695V161.191H88.1795V160.059C87.8795 160.489 87.5045 160.824 87.0545 161.064C86.6095 161.299 86.0995 161.416 85.5245 161.416C84.7845 161.416 84.142 161.231 83.597 160.861C83.057 160.491 82.6445 159.981 82.3595 159.331C82.0745 158.681 81.932 157.949 81.932 157.134C81.932 156.324 82.0745 155.596 82.3595 154.951C82.6445 154.301 83.0545 153.791 83.5895 153.421C84.1295 153.051 84.7595 152.866 85.4795 152.866C86.0295 152.866 86.5195 152.969 86.9495 153.174C87.3845 153.379 87.7545 153.669 88.0595 154.044V150.391ZM85.637 160.389C86.197 160.389 86.667 160.251 87.047 159.976C87.427 159.696 87.7095 159.314 87.8945 158.829C88.0845 158.339 88.1795 157.774 88.1795 157.134C88.1795 156.489 88.0845 155.924 87.8945 155.439C87.7095 154.949 87.427 154.569 87.047 154.299C86.672 154.029 86.2095 153.894 85.6595 153.894C85.0995 153.894 84.627 154.034 84.242 154.314C83.857 154.594 83.5695 154.979 83.3795 155.469C83.1945 155.954 83.102 156.509 83.102 157.134C83.102 157.759 83.197 158.319 83.387 158.814C83.582 159.304 83.8695 159.689 84.2495 159.969C84.6295 160.249 85.092 160.389 85.637 160.389ZM92.5261 161.191H91.4236V153.091H92.5261V161.191ZM91.9711 151.696C91.7561 151.696 91.5736 151.624 91.4236 151.479C91.2786 151.334 91.2061 151.154 91.2061 150.939C91.2061 150.719 91.2786 150.536 91.4236 150.391C91.5736 150.246 91.7561 150.174 91.9711 150.174C92.1911 150.174 92.3736 150.249 92.5186 150.399C92.6686 150.544 92.7436 150.724 92.7436 150.939C92.7436 151.154 92.6686 151.334 92.5186 151.479C92.3736 151.624 92.1911 151.696 91.9711 151.696ZM100.482 153.091H101.585V161.191H100.595V160.066C100.295 160.501 99.9121 160.831 99.4471 161.056C98.9821 161.281 98.4571 161.394 97.8721 161.394C97.1071 161.394 96.4821 161.209 95.9971 160.839C95.5121 160.469 95.1621 159.994 94.9471 159.414C94.7321 158.829 94.6246 158.206 94.6246 157.546V153.091H95.7346V157.224C95.7346 158.179 95.9246 158.939 96.3046 159.504C96.6846 160.064 97.2771 160.344 98.0821 160.344C98.8521 160.344 99.4446 160.086 99.8596 159.571C100.275 159.056 100.482 158.336 100.482 157.411V153.091ZM111.758 152.874C112.298 152.874 112.771 152.989 113.176 153.219C113.586 153.444 113.901 153.766 114.121 154.186C114.341 154.606 114.451 155.099 114.451 155.664L114.443 161.191H113.341L113.348 155.874C113.348 155.464 113.268 155.109 113.108 154.809C112.953 154.504 112.736 154.271 112.456 154.111C112.176 153.946 111.858 153.864 111.503 153.864C111.173 153.864 110.866 153.939 110.581 154.089C110.296 154.234 110.063 154.464 109.883 154.779C109.703 155.094 109.613 155.489 109.613 155.964L109.606 161.191H108.518L108.526 155.949C108.526 155.524 108.448 155.154 108.293 154.839C108.138 154.524 107.918 154.284 107.633 154.119C107.353 153.949 107.028 153.864 106.658 153.864C106.288 153.864 105.961 153.951 105.676 154.126C105.391 154.296 105.171 154.541 105.016 154.861C104.861 155.176 104.783 155.544 104.783 155.964V161.191H103.673V153.091H104.663V153.946C104.918 153.611 105.243 153.349 105.638 153.159C106.033 152.969 106.468 152.874 106.943 152.874C107.478 152.874 107.951 152.991 108.361 153.226C108.776 153.461 109.091 153.799 109.306 154.239C109.541 153.809 109.873 153.474 110.303 153.234C110.733 152.994 111.218 152.874 111.758 152.874Z" fill="#100F0F"/>
<path d="M192.05 161.191H190.933V151.621L188.9 152.844V151.606L190.933 150.391H192.05V161.191ZM200.13 155.416C200.625 155.706 201.002 156.089 201.262 156.564C201.522 157.039 201.652 157.571 201.652 158.161C201.652 158.811 201.505 159.381 201.21 159.871C200.92 160.361 200.512 160.741 199.987 161.011C199.462 161.281 198.862 161.416 198.187 161.416C197.517 161.416 196.92 161.281 196.395 161.011C195.875 160.741 195.47 160.361 195.18 159.871C194.89 159.381 194.745 158.811 194.745 158.161C194.745 157.561 194.87 157.024 195.12 156.549C195.375 156.074 195.755 155.694 196.26 155.409C195.85 155.164 195.537 154.836 195.322 154.426C195.107 154.016 195 153.564 195 153.069C195 152.479 195.135 151.966 195.405 151.531C195.675 151.091 196.05 150.754 196.53 150.519C197.015 150.284 197.567 150.166 198.187 150.166C198.807 150.166 199.357 150.284 199.837 150.519C200.322 150.754 200.7 151.091 200.97 151.531C201.245 151.966 201.382 152.479 201.382 153.069C201.382 153.569 201.275 154.026 201.06 154.441C200.85 154.851 200.54 155.176 200.13 155.416ZM198.187 151.254C197.567 151.254 197.075 151.409 196.71 151.719C196.35 152.029 196.17 152.479 196.17 153.069C196.17 153.659 196.352 154.111 196.717 154.426C197.082 154.741 197.572 154.899 198.187 154.899C198.807 154.899 199.3 154.741 199.665 154.426C200.03 154.111 200.212 153.659 200.212 153.069C200.212 152.479 200.03 152.029 199.665 151.719C199.3 151.409 198.807 151.254 198.187 151.254ZM198.187 160.359C198.647 160.359 199.05 160.274 199.395 160.104C199.74 159.934 200.007 159.684 200.197 159.354C200.387 159.024 200.482 158.626 200.482 158.161C200.482 157.456 200.275 156.914 199.86 156.534C199.45 156.154 198.892 155.964 198.187 155.964C197.482 155.964 196.925 156.154 196.515 156.534C196.11 156.914 195.907 157.456 195.907 158.161C195.907 158.626 196.002 159.024 196.192 159.354C196.382 159.684 196.647 159.934 196.987 160.104C197.332 160.274 197.732 160.359 198.187 160.359ZM207.278 152.866C207.998 152.866 208.626 153.051 209.161 153.421C209.701 153.791 210.113 154.301 210.398 154.951C210.683 155.596 210.826 156.324 210.826 157.134C210.826 157.949 210.683 158.681 210.398 159.331C210.113 159.981 209.698 160.491 209.153 160.861C208.613 161.231 207.973 161.416 207.233 161.416C206.698 161.416 206.216 161.314 205.786 161.109C205.361 160.899 204.998 160.604 204.698 160.224V164.791H203.588V153.091H204.578V154.209C204.883 153.779 205.263 153.449 205.718 153.219C206.173 152.984 206.693 152.866 207.278 152.866ZM207.121 160.389C207.666 160.389 208.128 160.249 208.508 159.969C208.888 159.689 209.173 159.304 209.363 158.814C209.558 158.319 209.656 157.759 209.656 157.134C209.656 156.509 209.561 155.954 209.371 155.469C209.186 154.979 208.901 154.594 208.516 154.314C208.131 154.034 207.658 153.894 207.098 153.894C206.548 153.894 206.083 154.029 205.703 154.299C205.328 154.569 205.046 154.949 204.856 155.439C204.671 155.924 204.578 156.489 204.578 157.134C204.578 157.774 204.671 158.339 204.856 158.829C205.046 159.314 205.331 159.696 205.711 159.976C206.091 160.251 206.561 160.389 207.121 160.389ZM212.754 161.191H211.426L214.591 157.096L211.494 153.091H212.814L215.236 156.249L217.636 153.091H218.956L215.859 157.096L219.031 161.191H217.704L215.236 157.944L212.754 161.191Z" fill="#100F0F"/>
<path d="M322.05 161.191H320.933V151.621L318.9 152.844V151.606L320.933 150.391H322.05V161.191ZM326.275 160.126H331.645V161.184H324.595L324.602 160.179L329.485 155.769C329.88 155.414 330.152 155.066 330.302 154.726C330.452 154.386 330.527 154.014 330.527 153.609C330.527 153.169 330.422 152.769 330.212 152.409C330.007 152.044 329.725 151.756 329.365 151.546C329.005 151.331 328.607 151.224 328.172 151.224C327.722 151.224 327.315 151.334 326.95 151.554C326.585 151.769 326.297 152.059 326.087 152.424C325.882 152.789 325.782 153.181 325.787 153.601H324.662C324.662 152.956 324.815 152.371 325.12 151.846C325.43 151.321 325.852 150.911 326.387 150.616C326.927 150.316 327.527 150.166 328.187 150.166C328.832 150.166 329.417 150.319 329.942 150.624C330.472 150.929 330.887 151.346 331.187 151.876C331.492 152.401 331.645 152.981 331.645 153.616C331.645 154.061 331.59 154.454 331.48 154.794C331.375 155.129 331.212 155.441 330.992 155.731C330.777 156.021 330.485 156.331 330.115 156.661L326.275 160.126ZM336.449 161.191H335.332V151.621L333.299 152.844V151.606L335.332 150.391H336.449V161.191ZM339.541 161.274C339.326 161.274 339.144 161.201 338.994 161.056C338.849 160.911 338.776 160.731 338.776 160.516C338.776 160.296 338.849 160.114 338.994 159.969C339.144 159.824 339.326 159.751 339.541 159.751C339.761 159.751 339.944 159.826 340.089 159.976C340.239 160.121 340.314 160.301 340.314 160.516C340.314 160.731 340.239 160.911 340.089 161.056C339.944 161.201 339.761 161.274 339.541 161.274ZM343.882 160.126H349.252V161.184H342.202L342.21 160.179L347.092 155.769C347.487 155.414 347.76 155.066 347.91 154.726C348.06 154.386 348.135 154.014 348.135 153.609C348.135 153.169 348.03 152.769 347.82 152.409C347.615 152.044 347.332 151.756 346.972 151.546C346.612 151.331 346.215 151.224 345.78 151.224C345.33 151.224 344.922 151.334 344.557 151.554C344.192 151.769 343.905 152.059 343.695 152.424C343.49 152.789 343.39 153.181 343.395 153.601H342.27C342.27 152.956 342.422 152.371 342.727 151.846C343.037 151.321 343.46 150.911 343.995 150.616C344.535 150.316 345.135 150.166 345.795 150.166C346.44 150.166 347.025 150.319 347.55 150.624C348.08 150.929 348.495 151.346 348.795 151.876C349.1 152.401 349.252 152.981 349.252 153.616C349.252 154.061 349.197 154.454 349.087 154.794C348.982 155.129 348.82 155.441 348.6 155.731C348.385 156.021 348.092 156.331 347.722 156.661L343.882 160.126ZM353.607 155.566C353.117 155.566 352.664 155.446 352.249 155.206C351.839 154.966 351.512 154.639 351.267 154.224C351.027 153.809 350.907 153.356 350.907 152.866C350.907 152.386 351.029 151.939 351.274 151.524C351.524 151.109 351.857 150.779 352.272 150.534C352.687 150.289 353.132 150.166 353.607 150.166C354.097 150.166 354.547 150.286 354.957 150.526C355.372 150.766 355.699 151.094 355.939 151.509C356.184 151.924 356.307 152.376 356.307 152.866C356.307 153.356 356.184 153.809 355.939 154.224C355.699 154.639 355.372 154.966 354.957 155.206C354.547 155.446 354.097 155.566 353.607 155.566ZM362.179 151.134L352.107 161.191L351.357 160.441L361.429 150.391L362.179 151.134ZM353.607 154.569C353.907 154.569 354.187 154.491 354.447 154.336C354.712 154.181 354.922 153.974 355.077 153.714C355.232 153.449 355.309 153.166 355.309 152.866C355.309 152.566 355.232 152.286 355.077 152.026C354.922 151.761 354.712 151.551 354.447 151.396C354.187 151.241 353.907 151.164 353.607 151.164C353.307 151.164 353.024 151.241 352.759 151.396C352.499 151.551 352.292 151.761 352.137 152.026C351.982 152.286 351.904 152.566 351.904 152.866C351.904 153.166 351.982 153.449 352.137 153.714C352.292 153.974 352.499 154.181 352.759 154.336C353.024 154.491 353.307 154.569 353.607 154.569ZM359.929 161.416C359.439 161.416 358.987 161.296 358.572 161.056C358.162 160.816 357.834 160.489 357.589 160.074C357.349 159.659 357.229 159.206 357.229 158.716C357.229 158.236 357.352 157.789 357.597 157.374C357.847 156.959 358.179 156.629 358.594 156.384C359.009 156.139 359.454 156.016 359.929 156.016C360.419 156.016 360.869 156.136 361.279 156.376C361.694 156.616 362.022 156.944 362.262 157.359C362.507 157.774 362.629 158.226 362.629 158.716C362.629 159.206 362.507 159.659 362.262 160.074C362.022 160.489 361.694 160.816 361.279 161.056C360.869 161.296 360.419 161.416 359.929 161.416ZM359.929 160.419C360.229 160.419 360.509 160.341 360.769 160.186C361.034 160.031 361.244 159.824 361.399 159.564C361.554 159.299 361.632 159.016 361.632 158.716C361.632 158.416 361.554 158.136 361.399 157.876C361.244 157.611 361.034 157.401 360.769 157.246C360.509 157.091 360.229 157.014 359.929 157.014C359.624 157.014 359.339 157.091 359.074 157.246C358.814 157.401 358.607 157.611 358.452 157.876C358.297 158.136 358.219 158.416 358.219 158.716C358.219 159.016 358.297 159.299 358.452 159.564C358.607 159.824 358.814 160.031 359.074 160.186C359.339 160.341 359.624 160.419 359.929 160.419Z" fill="#100F0F"/>
<path d="M448.108 161.191H447.05V150.391H448.063L452.308 159.474L456.53 150.391H457.558V161.184H456.508V152.851L452.66 161.191H451.948L448.108 152.851V161.191ZM460.39 157.449C460.435 158.379 460.687 159.096 461.147 159.601C461.607 160.106 462.24 160.359 463.045 160.359C463.62 160.359 464.125 160.226 464.56 159.961C464.995 159.691 465.337 159.304 465.587 158.799L466.615 159.196C466.295 159.901 465.825 160.449 465.205 160.839C464.585 161.224 463.88 161.416 463.09 161.416C462.31 161.416 461.627 161.241 461.042 160.891C460.457 160.541 460.005 160.049 459.685 159.414C459.37 158.774 459.212 158.029 459.212 157.179C459.212 156.304 459.367 155.541 459.677 154.891C459.992 154.241 460.437 153.741 461.012 153.391C461.592 153.041 462.27 152.866 463.045 152.866C463.82 152.866 464.485 153.041 465.04 153.391C465.6 153.736 466.027 154.236 466.322 154.891C466.622 155.541 466.772 156.316 466.772 157.216V157.449H460.39ZM463.075 153.879C462.3 153.879 461.682 154.106 461.222 154.561C460.767 155.016 460.497 155.671 460.412 156.526H465.617C465.537 155.651 465.282 154.991 464.852 154.546C464.422 154.101 463.83 153.879 463.075 153.879ZM474.114 150.391H475.224V161.191H474.234V160.059C473.934 160.489 473.559 160.824 473.109 161.064C472.664 161.299 472.154 161.416 471.579 161.416C470.839 161.416 470.197 161.231 469.652 160.861C469.112 160.491 468.699 159.981 468.414 159.331C468.129 158.681 467.987 157.949 467.987 157.134C467.987 156.324 468.129 155.596 468.414 154.951C468.699 154.301 469.109 153.791 469.644 153.421C470.184 153.051 470.814 152.866 471.534 152.866C472.084 152.866 472.574 152.969 473.004 153.174C473.439 153.379 473.809 153.669 474.114 154.044V150.391ZM471.692 160.389C472.252 160.389 472.722 160.251 473.102 159.976C473.482 159.696 473.764 159.314 473.949 158.829C474.139 158.339 474.234 157.774 474.234 157.134C474.234 156.489 474.139 155.924 473.949 155.439C473.764 154.949 473.482 154.569 473.102 154.299C472.727 154.029 472.264 153.894 471.714 153.894C471.154 153.894 470.682 154.034 470.297 154.314C469.912 154.594 469.624 154.979 469.434 155.469C469.249 155.954 469.157 156.509 469.157 157.134C469.157 157.759 469.252 158.319 469.442 158.814C469.637 159.304 469.924 159.689 470.304 159.969C470.684 160.249 471.147 160.389 471.692 160.389ZM478.581 161.191H477.478V153.091H478.581V161.191ZM478.026 151.696C477.811 151.696 477.628 151.624 477.478 151.479C477.333 151.334 477.261 151.154 477.261 150.939C477.261 150.719 477.333 150.536 477.478 150.391C477.628 150.246 477.811 150.174 478.026 150.174C478.246 150.174 478.428 150.249 478.573 150.399C478.723 150.544 478.798 150.724 478.798 150.939C478.798 151.154 478.723 151.334 478.573 151.479C478.428 151.624 478.246 151.696 478.026 151.696ZM486.537 153.091H487.639V161.191H486.649V160.066C486.349 160.501 485.967 160.831 485.502 161.056C485.037 161.281 484.512 161.394 483.927 161.394C483.162 161.394 482.537 161.209 482.052 160.839C481.567 160.469 481.217 159.994 481.002 159.414C480.787 158.829 480.679 158.206 480.679 157.546V153.091H481.789V157.224C481.789 158.179 481.979 158.939 482.359 159.504C482.739 160.064 483.332 160.344 484.137 160.344C484.907 160.344 485.499 160.086 485.914 159.571C486.329 159.056 486.537 158.336 486.537 157.411V153.091ZM497.813 152.874C498.353 152.874 498.826 152.989 499.231 153.219C499.641 153.444 499.956 153.766 500.176 154.186C500.396 154.606 500.506 155.099 500.506 155.664L500.498 161.191H499.396L499.403 155.874C499.403 155.464 499.323 155.109 499.163 154.809C499.008 154.504 498.791 154.271 498.511 154.111C498.231 153.946 497.913 153.864 497.558 153.864C497.228 153.864 496.921 153.939 496.636 154.089C496.351 154.234 496.118 154.464 495.938 154.779C495.758 155.094 495.668 155.489 495.668 155.964L495.661 161.191H494.573L494.581 155.949C494.581 155.524 494.503 155.154 494.348 154.839C494.193 154.524 493.973 154.284 493.688 154.119C493.408 153.949 493.083 153.864 492.713 153.864C492.343 153.864 492.016 153.951 491.731 154.126C491.446 154.296 491.226 154.541 491.071 154.861C490.916 155.176 490.838 155.544 490.838 155.964V161.191H489.728V153.091H490.718V153.946C490.973 153.611 491.298 153.349 491.693 153.159C492.088 152.969 492.523 152.874 492.998 152.874C493.533 152.874 494.006 152.991 494.416 153.226C494.831 153.461 495.146 153.799 495.361 154.239C495.596 153.809 495.928 153.474 496.358 153.234C496.788 152.994 497.273 152.874 497.813 152.874Z" fill="#100F0F"/>
<path d="M575.44 164.191V151.231H577.042V162.67H583.054V164.191H575.44ZM588.716 164.461C587.762 164.461 586.931 164.245 586.223 163.813C585.521 163.375 584.981 162.769 584.603 161.995C584.225 161.215 584.036 160.324 584.036 159.322C584.036 158.308 584.228 157.414 584.612 156.64C584.996 155.866 585.542 155.266 586.25 154.84C586.958 154.414 587.78 154.201 588.716 154.201C589.676 154.201 590.507 154.417 591.209 154.849C591.917 155.281 592.46 155.884 592.838 156.658C593.216 157.432 593.405 158.32 593.405 159.322C593.405 160.336 593.213 161.23 592.829 162.004C592.451 162.778 591.908 163.381 591.2 163.813C590.492 164.245 589.664 164.461 588.716 164.461ZM588.716 162.94C589.37 162.94 589.919 162.79 590.363 162.49C590.813 162.19 591.149 161.767 591.371 161.221C591.593 160.675 591.704 160.042 591.704 159.322C591.704 158.2 591.449 157.321 590.939 156.685C590.429 156.043 589.688 155.722 588.716 155.722C588.056 155.722 587.504 155.872 587.06 156.172C586.616 156.472 586.283 156.892 586.061 157.432C585.845 157.966 585.737 158.596 585.737 159.322C585.737 160.06 585.851 160.702 586.079 161.248C586.307 161.788 586.643 162.205 587.087 162.499C587.531 162.793 588.074 162.94 588.716 162.94ZM595.387 164.191V154.471H596.818V156.82L596.584 156.514C596.698 156.214 596.845 155.938 597.025 155.686C597.211 155.434 597.418 155.227 597.646 155.065C597.886 154.867 598.165 154.714 598.483 154.606C598.807 154.492 599.134 154.426 599.464 154.408C599.794 154.384 600.106 154.405 600.4 154.471V155.974C600.034 155.878 599.653 155.857 599.257 155.911C598.861 155.965 598.501 156.109 598.177 156.343C597.877 156.553 597.64 156.814 597.466 157.126C597.292 157.432 597.169 157.759 597.097 158.107C597.031 158.449 596.998 158.851 596.998 159.313V164.191H595.387ZM606.138 164.461C605.19 164.461 604.356 164.251 603.636 163.831C602.922 163.411 602.367 162.817 601.971 162.049C601.581 161.281 601.386 160.396 601.386 159.394C601.386 158.344 601.578 157.429 601.962 156.649C602.352 155.863 602.898 155.26 603.6 154.84C604.308 154.414 605.13 154.201 606.066 154.201C607.032 154.201 607.86 154.426 608.55 154.876C609.246 155.32 609.765 155.962 610.107 156.802C610.455 157.642 610.605 158.635 610.557 159.781H608.937V159.205C608.925 158.407 608.814 157.747 608.604 157.225C608.394 156.697 608.082 156.301 607.668 156.037C607.254 155.773 606.738 155.641 606.12 155.641C605.466 155.641 604.911 155.785 604.455 156.073C604.005 156.355 603.663 156.772 603.429 157.324C603.201 157.87 603.087 158.539 603.087 159.331C603.087 160.093 603.201 160.744 603.429 161.284C603.663 161.818 604.002 162.229 604.446 162.517C604.896 162.799 605.436 162.94 606.066 162.94C606.702 162.94 607.257 162.793 607.731 162.499C608.211 162.205 608.586 161.782 608.856 161.23L610.395 161.761C610.143 162.325 609.804 162.811 609.378 163.219C608.952 163.621 608.463 163.93 607.911 164.146C607.359 164.356 606.768 164.461 606.138 164.461ZM602.547 159.781V158.494H609.729V159.781H602.547ZM623.925 157.972C623.925 157.498 623.835 157.087 623.655 156.739C623.481 156.385 623.235 156.115 622.917 155.929C622.605 155.743 622.245 155.65 621.837 155.65C621.459 155.65 621.108 155.737 620.784 155.911C620.466 156.079 620.208 156.34 620.01 156.694C619.812 157.048 619.713 157.489 619.713 158.017L618.867 157.675C618.855 156.997 618.996 156.397 619.29 155.875C619.584 155.347 619.992 154.939 620.514 154.651C621.036 154.363 621.618 154.219 622.26 154.219C622.932 154.219 623.514 154.357 624.006 154.633C624.498 154.909 624.873 155.305 625.131 155.821C625.395 156.331 625.527 156.931 625.527 157.621L625.518 164.191H623.916L623.925 157.972ZM612.288 164.191V154.471H613.719V157.072H613.899V164.191H612.288ZM618.12 158.035C618.12 157.549 618.033 157.126 617.859 156.766C617.685 156.406 617.439 156.13 617.121 155.938C616.809 155.746 616.44 155.65 616.014 155.65C615.6 155.65 615.231 155.749 614.907 155.947C614.589 156.139 614.34 156.415 614.16 156.775C613.986 157.129 613.899 157.543 613.899 158.017L613.053 157.513C613.053 156.889 613.203 156.328 613.503 155.83C613.803 155.326 614.214 154.933 614.736 154.651C615.258 154.363 615.84 154.219 616.482 154.219C617.136 154.219 617.706 154.357 618.192 154.633C618.678 154.909 619.053 155.305 619.317 155.821C619.581 156.337 619.713 156.946 619.713 157.648L619.704 164.191H618.111L618.12 158.035ZM631.655 164.191V151.231H633.257V164.191H631.655ZM640.421 164.461C639.539 164.461 638.78 164.239 638.144 163.795C637.514 163.345 637.034 162.733 636.704 161.959C636.38 161.185 636.218 160.306 636.218 159.322C636.218 158.332 636.38 157.45 636.704 156.676C637.028 155.902 637.508 155.296 638.144 154.858C638.78 154.42 639.542 154.201 640.43 154.201C641.312 154.201 642.08 154.423 642.734 154.867C643.394 155.305 643.898 155.914 644.246 156.694C644.6 157.468 644.777 158.344 644.777 159.322C644.777 160.294 644.6 161.17 644.246 161.95C643.898 162.73 643.394 163.345 642.734 163.795C642.08 164.239 641.309 164.461 640.421 164.461ZM635.948 168.511V154.471H637.379V161.626H637.559V168.511H635.948ZM640.223 162.994C640.847 162.994 641.372 162.835 641.798 162.517C642.224 162.199 642.542 161.764 642.752 161.212C642.968 160.654 643.076 160.024 643.076 159.322C643.076 158.62 642.968 157.993 642.752 157.441C642.542 156.889 642.221 156.457 641.789 156.145C641.357 155.827 640.82 155.668 640.178 155.668C639.56 155.668 639.041 155.821 638.621 156.127C638.207 156.433 637.895 156.859 637.685 157.405C637.481 157.951 637.379 158.59 637.379 159.322C637.379 160.048 637.481 160.687 637.685 161.239C637.895 161.791 638.213 162.223 638.639 162.535C639.065 162.841 639.593 162.994 640.223 162.994ZM650.282 164.452C649.514 164.452 648.833 164.338 648.239 164.11C647.645 163.882 647.162 163.552 646.79 163.12C646.424 162.688 646.184 162.169 646.07 161.563L647.708 161.302C647.798 161.656 647.963 161.962 648.203 162.22C648.449 162.478 648.758 162.676 649.13 162.814C649.502 162.952 649.919 163.021 650.381 163.021C650.819 163.021 651.197 162.958 651.515 162.832C651.839 162.706 652.085 162.529 652.253 162.301C652.427 162.067 652.514 161.794 652.514 161.482C652.514 161.194 652.448 160.969 652.316 160.807C652.19 160.639 651.941 160.483 651.569 160.339C651.203 160.195 650.603 160.012 649.769 159.79C648.899 159.556 648.221 159.319 647.735 159.079C647.249 158.833 646.901 158.551 646.691 158.233C646.481 157.915 646.376 157.519 646.376 157.045C646.376 156.481 646.532 155.983 646.844 155.551C647.156 155.119 647.594 154.786 648.158 154.552C648.722 154.318 649.373 154.201 650.111 154.201C650.843 154.201 651.5 154.318 652.082 154.552C652.67 154.786 653.141 155.119 653.495 155.551C653.855 155.983 654.068 156.481 654.134 157.045L652.496 157.342C652.442 157 652.31 156.703 652.1 156.451C651.89 156.193 651.614 155.995 651.272 155.857C650.936 155.719 650.549 155.644 650.111 155.632C649.697 155.62 649.328 155.668 649.004 155.776C648.686 155.884 648.437 156.04 648.257 156.244C648.077 156.448 647.987 156.688 647.987 156.964C647.987 157.204 648.062 157.408 648.212 157.576C648.362 157.738 648.629 157.894 649.013 158.044C649.397 158.188 649.982 158.359 650.768 158.557C651.638 158.779 652.316 159.016 652.802 159.268C653.288 159.52 653.636 159.817 653.846 160.159C654.062 160.501 654.17 160.927 654.17 161.437C654.17 162.055 654.014 162.592 653.702 163.048C653.396 163.504 652.949 163.852 652.361 164.092C651.779 164.332 651.086 164.452 650.282 164.452ZM659.845 164.443C658.867 164.443 658.09 164.206 657.514 163.732C656.938 163.252 656.536 162.676 656.308 162.004C656.086 161.326 655.975 160.606 655.975 159.844V154.471H657.595V159.34C657.595 160.042 657.676 160.651 657.838 161.167C658 161.683 658.276 162.106 658.666 162.436C659.056 162.76 659.578 162.922 660.232 162.922C660.784 162.922 661.258 162.802 661.654 162.562C662.05 162.316 662.356 161.944 662.572 161.446C662.794 160.948 662.905 160.33 662.905 159.592L663.958 159.916C663.958 160.84 663.79 161.644 663.454 162.328C663.118 163.012 662.641 163.537 662.023 163.903C661.405 164.263 660.679 164.443 659.845 164.443ZM663.085 164.191V161.59H662.905V154.471H664.516V164.191H663.085ZM678.663 157.972C678.663 157.498 678.573 157.087 678.393 156.739C678.219 156.385 677.973 156.115 677.655 155.929C677.343 155.743 676.983 155.65 676.575 155.65C676.197 155.65 675.846 155.737 675.522 155.911C675.204 156.079 674.946 156.34 674.748 156.694C674.55 157.048 674.451 157.489 674.451 158.017L673.605 157.675C673.593 156.997 673.734 156.397 674.028 155.875C674.322 155.347 674.73 154.939 675.252 154.651C675.774 154.363 676.356 154.219 676.998 154.219C677.67 154.219 678.252 154.357 678.744 154.633C679.236 154.909 679.611 155.305 679.869 155.821C680.133 156.331 680.265 156.931 680.265 157.621L680.256 164.191H678.654L678.663 157.972ZM667.026 164.191V154.471H668.457V157.072H668.637V164.191H667.026ZM672.858 158.035C672.858 157.549 672.771 157.126 672.597 156.766C672.423 156.406 672.177 156.13 671.859 155.938C671.547 155.746 671.178 155.65 670.752 155.65C670.338 155.65 669.969 155.749 669.645 155.947C669.327 156.139 669.078 156.415 668.898 156.775C668.724 157.129 668.637 157.543 668.637 158.017L667.791 157.513C667.791 156.889 667.941 156.328 668.241 155.83C668.541 155.326 668.952 154.933 669.474 154.651C669.996 154.363 670.578 154.219 671.22 154.219C671.874 154.219 672.444 154.357 672.93 154.633C673.416 154.909 673.791 155.305 674.055 155.821C674.319 156.337 674.451 156.946 674.451 157.648L674.442 164.191H672.849L672.858 158.035Z" fill="#100F0F"/>
<rect width="918" height="56" transform="translate(0 0.191406)" fill="#F2F2F2"/>
<path d="M21.49 34.4164C20.435 34.4164 19.5275 34.1814 18.7675 33.7114C18.0125 33.2414 17.4375 32.5839 17.0425 31.7389C16.6475 30.8889 16.45 29.9064 16.45 28.7914C16.45 27.6764 16.6475 26.6964 17.0425 25.8514C17.4375 25.0014 18.0125 24.3414 18.7675 23.8714C19.5275 23.4014 20.435 23.1664 21.49 23.1664C22.31 23.1664 23.04 23.3089 23.68 23.5939C24.32 23.8789 24.855 24.2839 25.285 24.8089C25.72 25.3339 26.04 25.9589 26.245 26.6839L24.8875 27.0439C24.6625 26.2189 24.2625 25.5789 23.6875 25.1239C23.1125 24.6689 22.38 24.4414 21.49 24.4414C20.705 24.4414 20.04 24.6214 19.495 24.9814C18.955 25.3414 18.5475 25.8464 18.2725 26.4964C18.0025 27.1464 17.865 27.9114 17.86 28.7914C17.855 29.6614 17.99 30.4239 18.265 31.0789C18.54 31.7289 18.9475 32.2364 19.4875 32.6014C20.0325 32.9614 20.7 33.1414 21.49 33.1414C22.38 33.1414 23.1125 32.9139 23.6875 32.4589C24.2625 31.9989 24.6625 31.3589 24.8875 30.5389L26.245 30.8989C26.04 31.6189 25.72 32.2439 25.285 32.7739C24.855 33.2989 24.32 33.7039 23.68 33.9889C23.04 34.2739 22.31 34.4164 21.49 34.4164ZM28.0398 34.1914V23.1664H29.3748V34.1914H28.0398ZM33.9277 34.4164C33.3477 34.4164 32.8502 34.3089 32.4352 34.0939C32.0202 33.8739 31.7052 33.5814 31.4902 33.2164C31.2802 32.8514 31.1752 32.4464 31.1752 32.0014C31.1752 31.3764 31.3452 30.8689 31.6852 30.4789C32.0302 30.0889 32.5227 29.8039 33.1627 29.6239C33.5677 29.5089 34.0177 29.4139 34.5127 29.3389C35.0077 29.2589 35.6902 29.1614 36.5602 29.0464C36.6902 29.0264 36.8152 29.0089 36.9352 28.9939C37.0602 28.9789 37.1752 28.9639 37.2802 28.9489L36.8002 29.2264C36.8102 28.7364 36.7502 28.3364 36.6202 28.0264C36.4902 27.7164 36.2777 27.4864 35.9827 27.3364C35.6877 27.1864 35.2952 27.1114 34.8052 27.1114C34.2952 27.1114 33.8577 27.2264 33.4927 27.4564C33.1327 27.6864 32.8827 28.0439 32.7427 28.5289L31.4752 28.1464C31.6702 27.4214 32.0502 26.8614 32.6152 26.4664C33.1852 26.0664 33.9202 25.8664 34.8202 25.8664C35.5702 25.8664 36.2052 26.0014 36.7252 26.2714C37.2502 26.5364 37.6252 26.9289 37.8502 27.4489C37.9552 27.6789 38.0252 27.9339 38.0602 28.2139C38.0952 28.4939 38.1127 28.8164 38.1127 29.1814V34.1914H36.9277V32.2489L37.2052 32.4289C37.0002 32.8639 36.7402 33.2314 36.4252 33.5314C36.1152 33.8264 35.7502 34.0464 35.3302 34.1914C34.9152 34.3414 34.4477 34.4164 33.9277 34.4164ZM34.1302 33.2989C34.5952 33.2989 35.0052 33.2164 35.3602 33.0514C35.7152 32.8814 36.0002 32.6564 36.2152 32.3764C36.4352 32.0914 36.5802 31.7764 36.6502 31.4314C36.7102 31.2414 36.7477 31.0339 36.7627 30.8089C36.7777 30.5789 36.7852 30.3189 36.7852 30.0289V29.8864L37.2502 30.0889L36.6952 30.1639C35.9852 30.2539 35.4052 30.3339 34.9552 30.4039C34.5052 30.4739 34.1077 30.5589 33.7627 30.6589C33.3827 30.7739 33.0777 30.9364 32.8477 31.1464C32.6177 31.3564 32.5027 31.6389 32.5027 31.9939C32.5027 32.2289 32.5602 32.4464 32.6752 32.6464C32.7902 32.8414 32.9702 32.9989 33.2152 33.1189C33.4602 33.2389 33.7652 33.2989 34.1302 33.2989ZM43.1227 34.4089C42.4827 34.4089 41.9152 34.3139 41.4202 34.1239C40.9252 33.9339 40.5227 33.6589 40.2127 33.2989C39.9077 32.9389 39.7077 32.5064 39.6127 32.0014L40.9777 31.7839C41.0527 32.0789 41.1902 32.3339 41.3902 32.5489C41.5952 32.7639 41.8527 32.9289 42.1627 33.0439C42.4727 33.1589 42.8202 33.2164 43.2052 33.2164C43.5702 33.2164 43.8852 33.1639 44.1502 33.0589C44.4202 32.9539 44.6252 32.8064 44.7652 32.6164C44.9102 32.4214 44.9827 32.1939 44.9827 31.9339C44.9827 31.6939 44.9277 31.5064 44.8177 31.3714C44.7127 31.2314 44.5052 31.1014 44.1952 30.9814C43.8902 30.8614 43.3902 30.7089 42.6952 30.5239C41.9702 30.3289 41.4052 30.1314 41.0002 29.9314C40.5952 29.7264 40.3052 29.4914 40.1302 29.2264C39.9552 28.9614 39.8677 28.6314 39.8677 28.2364C39.8677 27.7664 39.9977 27.3514 40.2577 26.9914C40.5177 26.6314 40.8827 26.3539 41.3527 26.1589C41.8227 25.9639 42.3652 25.8664 42.9802 25.8664C43.5902 25.8664 44.1377 25.9639 44.6227 26.1589C45.1127 26.3539 45.5052 26.6314 45.8002 26.9914C46.1002 27.3514 46.2777 27.7664 46.3327 28.2364L44.9677 28.4839C44.9227 28.1989 44.8127 27.9514 44.6377 27.7414C44.4627 27.5264 44.2327 27.3614 43.9477 27.2464C43.6677 27.1314 43.3452 27.0689 42.9802 27.0589C42.6352 27.0489 42.3277 27.0889 42.0577 27.1789C41.7927 27.2689 41.5852 27.3989 41.4352 27.5689C41.2852 27.7389 41.2102 27.9389 41.2102 28.1689C41.2102 28.3689 41.2727 28.5389 41.3977 28.6789C41.5227 28.8139 41.7452 28.9439 42.0652 29.0689C42.3852 29.1889 42.8727 29.3314 43.5277 29.4964C44.2527 29.6814 44.8177 29.8789 45.2227 30.0889C45.6277 30.2989 45.9177 30.5464 46.0927 30.8314C46.2727 31.1164 46.3627 31.4714 46.3627 31.8964C46.3627 32.4114 46.2327 32.8589 45.9727 33.2389C45.7177 33.6189 45.3452 33.9089 44.8552 34.1089C44.3702 34.3089 43.7927 34.4089 43.1227 34.4089ZM51.0768 34.4089C50.4368 34.4089 49.8693 34.3139 49.3743 34.1239C48.8793 33.9339 48.4768 33.6589 48.1668 33.2989C47.8618 32.9389 47.6618 32.5064 47.5668 32.0014L48.9318 31.7839C49.0068 32.0789 49.1443 32.3339 49.3443 32.5489C49.5493 32.7639 49.8068 32.9289 50.1168 33.0439C50.4268 33.1589 50.7743 33.2164 51.1593 33.2164C51.5243 33.2164 51.8393 33.1639 52.1043 33.0589C52.3743 32.9539 52.5793 32.8064 52.7193 32.6164C52.8643 32.4214 52.9368 32.1939 52.9368 31.9339C52.9368 31.6939 52.8818 31.5064 52.7718 31.3714C52.6668 31.2314 52.4593 31.1014 52.1493 30.9814C51.8443 30.8614 51.3443 30.7089 50.6493 30.5239C49.9243 30.3289 49.3593 30.1314 48.9543 29.9314C48.5493 29.7264 48.2593 29.4914 48.0843 29.2264C47.9093 28.9614 47.8218 28.6314 47.8218 28.2364C47.8218 27.7664 47.9518 27.3514 48.2118 26.9914C48.4718 26.6314 48.8368 26.3539 49.3068 26.1589C49.7768 25.9639 50.3193 25.8664 50.9343 25.8664C51.5443 25.8664 52.0918 25.9639 52.5768 26.1589C53.0668 26.3539 53.4593 26.6314 53.7543 26.9914C54.0543 27.3514 54.2318 27.7664 54.2868 28.2364L52.9218 28.4839C52.8768 28.1989 52.7668 27.9514 52.5918 27.7414C52.4168 27.5264 52.1868 27.3614 51.9018 27.2464C51.6218 27.1314 51.2993 27.0689 50.9343 27.0589C50.5893 27.0489 50.2818 27.0889 50.0118 27.1789C49.7468 27.2689 49.5393 27.3989 49.3893 27.5689C49.2393 27.7389 49.1643 27.9389 49.1643 28.1689C49.1643 28.3689 49.2268 28.5389 49.3518 28.6789C49.4768 28.8139 49.6993 28.9439 50.0193 29.0689C50.3393 29.1889 50.8268 29.3314 51.4818 29.4964C52.2068 29.6814 52.7718 29.8789 53.1768 30.0889C53.5818 30.2989 53.8718 30.5464 54.0468 30.8314C54.2268 31.1164 54.3168 31.4714 54.3168 31.8964C54.3168 32.4114 54.1868 32.8589 53.9268 33.2389C53.6718 33.6189 53.2993 33.9089 52.8093 34.1089C52.3243 34.3089 51.7468 34.4089 51.0768 34.4089Z" fill="#4200FF"/>
<path d="M189.05 34.1914V23.3914H193.318C193.603 23.3914 193.868 23.4114 194.113 23.4514C194.683 23.5364 195.168 23.7339 195.568 24.0439C195.968 24.3539 196.27 24.7464 196.475 25.2214C196.68 25.6914 196.783 26.2164 196.783 26.7964C196.783 27.3764 196.68 27.9014 196.475 28.3714C196.27 28.8414 195.968 29.2314 195.568 29.5414C195.168 29.8514 194.683 30.0514 194.113 30.1414C193.868 30.1814 193.603 30.2014 193.318 30.2014H190.385V34.1914H189.05ZM193.273 28.9339C193.528 28.9339 193.753 28.9114 193.948 28.8664C194.278 28.7914 194.553 28.6489 194.773 28.4389C194.993 28.2289 195.155 27.9814 195.26 27.6964C195.365 27.4114 195.418 27.1114 195.418 26.7964C195.418 26.4814 195.365 26.1814 195.26 25.8964C195.155 25.6064 194.993 25.3589 194.773 25.1539C194.553 24.9439 194.278 24.8014 193.948 24.7264C193.753 24.6814 193.528 24.6589 193.273 24.6589H190.385V28.9339H193.273ZM200.581 34.4164C200.001 34.4164 199.504 34.3089 199.089 34.0939C198.674 33.8739 198.359 33.5814 198.144 33.2164C197.934 32.8514 197.829 32.4464 197.829 32.0014C197.829 31.3764 197.999 30.8689 198.339 30.4789C198.684 30.0889 199.176 29.8039 199.816 29.6239C200.221 29.5089 200.671 29.4139 201.166 29.3389C201.661 29.2589 202.344 29.1614 203.214 29.0464C203.344 29.0264 203.469 29.0089 203.589 28.9939C203.714 28.9789 203.829 28.9639 203.934 28.9489L203.454 29.2264C203.464 28.7364 203.404 28.3364 203.274 28.0264C203.144 27.7164 202.931 27.4864 202.636 27.3364C202.341 27.1864 201.949 27.1114 201.459 27.1114C200.949 27.1114 200.511 27.2264 200.146 27.4564C199.786 27.6864 199.536 28.0439 199.396 28.5289L198.129 28.1464C198.324 27.4214 198.704 26.8614 199.269 26.4664C199.839 26.0664 200.574 25.8664 201.474 25.8664C202.224 25.8664 202.859 26.0014 203.379 26.2714C203.904 26.5364 204.279 26.9289 204.504 27.4489C204.609 27.6789 204.679 27.9339 204.714 28.2139C204.749 28.4939 204.766 28.8164 204.766 29.1814V34.1914H203.581V32.2489L203.859 32.4289C203.654 32.8639 203.394 33.2314 203.079 33.5314C202.769 33.8264 202.404 34.0464 201.984 34.1914C201.569 34.3414 201.101 34.4164 200.581 34.4164ZM200.784 33.2989C201.249 33.2989 201.659 33.2164 202.014 33.0514C202.369 32.8814 202.654 32.6564 202.869 32.3764C203.089 32.0914 203.234 31.7764 203.304 31.4314C203.364 31.2414 203.401 31.0339 203.416 30.8089C203.431 30.5789 203.439 30.3189 203.439 30.0289V29.8864L203.904 30.0889L203.349 30.1639C202.639 30.2539 202.059 30.3339 201.609 30.4039C201.159 30.4739 200.761 30.5589 200.416 30.6589C200.036 30.7739 199.731 30.9364 199.501 31.1464C199.271 31.3564 199.156 31.6389 199.156 31.9939C199.156 32.2289 199.214 32.4464 199.329 32.6464C199.444 32.8414 199.624 32.9989 199.869 33.1189C200.114 33.2389 200.419 33.2989 200.784 33.2989ZM209.619 34.4164C208.824 34.4164 208.116 34.2464 207.496 33.9064C206.881 33.5614 206.396 33.0789 206.041 32.4589L207.106 31.7689C207.406 32.2189 207.761 32.5614 208.171 32.7964C208.581 33.0314 209.046 33.1489 209.566 33.1489C209.931 33.1489 210.249 33.0939 210.519 32.9839C210.789 32.8689 210.996 32.7064 211.141 32.4964C211.291 32.2814 211.366 32.0314 211.366 31.7464C211.366 31.4614 211.304 31.2364 211.179 31.0714C211.054 30.9064 210.874 30.7864 210.639 30.7114C210.409 30.6314 210.104 30.5839 209.724 30.5689C209.669 30.5639 209.609 30.5614 209.544 30.5614C209.484 30.5614 209.424 30.5614 209.364 30.5614H208.524V29.4589H209.356C209.736 29.4589 210.054 29.4214 210.309 29.3464C210.569 29.2714 210.771 29.1514 210.916 28.9864C211.061 28.8164 211.134 28.5989 211.134 28.3339C211.134 28.0639 211.064 27.8389 210.924 27.6589C210.789 27.4789 210.604 27.3464 210.369 27.2614C210.134 27.1714 209.869 27.1264 209.574 27.1264C209.144 27.1264 208.721 27.2164 208.306 27.3964C207.896 27.5764 207.536 27.8164 207.226 28.1164L206.416 27.2089C206.841 26.7739 207.326 26.4414 207.871 26.2114C208.421 25.9814 209.016 25.8664 209.656 25.8664C210.186 25.8664 210.666 25.9589 211.096 26.1439C211.531 26.3289 211.874 26.6014 212.124 26.9614C212.379 27.3164 212.506 27.7389 212.506 28.2289C212.506 28.6589 212.406 29.0439 212.206 29.3839C212.006 29.7189 211.711 30.0089 211.321 30.2539L211.269 29.7814C211.589 29.8614 211.856 30.0064 212.071 30.2164C212.291 30.4264 212.456 30.6764 212.566 30.9664C212.676 31.2564 212.731 31.5614 212.731 31.8814C212.731 32.3964 212.594 32.8464 212.319 33.2314C212.049 33.6114 211.676 33.9039 211.201 34.1089C210.731 34.3139 210.204 34.4164 209.619 34.4164ZM214.37 34.1914V26.0914H215.517L218.592 32.3764L221.667 26.0914H222.815V34.1914H221.525V28.8739L218.945 34.1914H218.24L215.66 28.8739V34.1914H214.37ZM228.419 34.4164C227.629 34.4164 226.934 34.2414 226.334 33.8914C225.739 33.5414 225.277 33.0464 224.947 32.4064C224.622 31.7664 224.459 31.0289 224.459 30.1939C224.459 29.3189 224.619 28.5564 224.939 27.9064C225.264 27.2514 225.719 26.7489 226.304 26.3989C226.894 26.0439 227.579 25.8664 228.359 25.8664C229.164 25.8664 229.854 26.0539 230.429 26.4289C231.009 26.7989 231.442 27.3339 231.727 28.0339C232.017 28.7339 232.142 29.5614 232.102 30.5164H230.752V30.0364C230.742 29.3714 230.649 28.8214 230.474 28.3864C230.299 27.9464 230.039 27.6164 229.694 27.3964C229.349 27.1764 228.919 27.0664 228.404 27.0664C227.859 27.0664 227.397 27.1864 227.017 27.4264C226.642 27.6614 226.357 28.0089 226.162 28.4689C225.972 28.9239 225.877 29.4814 225.877 30.1414C225.877 30.7764 225.972 31.3189 226.162 31.7689C226.357 32.2139 226.639 32.5564 227.009 32.7964C227.384 33.0314 227.834 33.1489 228.359 33.1489C228.889 33.1489 229.352 33.0264 229.747 32.7814C230.147 32.5364 230.459 32.1839 230.684 31.7239L231.967 32.1664C231.757 32.6364 231.474 33.0414 231.119 33.3814C230.764 33.7164 230.357 33.9739 229.897 34.1539C229.437 34.3289 228.944 34.4164 228.419 34.4164ZM225.427 30.5164V29.4439H231.412V30.5164H225.427ZM237.492 34.4164C236.757 34.4164 236.124 34.2314 235.594 33.8614C235.069 33.4864 234.669 32.9764 234.394 32.3314C234.124 31.6864 233.989 30.9539 233.989 30.1339C233.989 29.3089 234.124 28.5739 234.394 27.9289C234.664 27.2839 235.064 26.7789 235.594 26.4139C236.124 26.0489 236.759 25.8664 237.499 25.8664C238.234 25.8664 238.874 26.0514 239.419 26.4214C239.969 26.7864 240.389 27.2939 240.679 27.9439C240.974 28.5889 241.122 29.3189 241.122 30.1339C241.122 30.9439 240.974 31.6739 240.679 32.3239C240.389 32.9739 239.969 33.4864 239.419 33.8614C238.874 34.2314 238.232 34.4164 237.492 34.4164ZM233.764 37.7914V26.0914H234.957V32.0539H235.107V37.7914H233.764ZM237.327 33.1939C237.847 33.1939 238.284 33.0614 238.639 32.7964C238.994 32.5314 239.259 32.1689 239.434 31.7089C239.614 31.2439 239.704 30.7189 239.704 30.1339C239.704 29.5489 239.614 29.0264 239.434 28.5664C239.259 28.1064 238.992 27.7464 238.632 27.4864C238.272 27.2214 237.824 27.0889 237.289 27.0889C236.774 27.0889 236.342 27.2164 235.992 27.4714C235.647 27.7264 235.387 28.0814 235.212 28.5364C235.042 28.9914 234.957 29.5239 234.957 30.1339C234.957 30.7389 235.042 31.2714 235.212 31.7314C235.387 32.1914 235.652 32.5514 236.007 32.8114C236.362 33.0664 236.802 33.1939 237.327 33.1939Z" fill="#4200FF"/>
<path d="M320.2 34.1914V23.3914H321.535V32.9239H326.545V34.1914H320.2ZM327.964 34.1914V26.0914H329.299V34.1914H327.964ZM328.631 24.8389C328.466 24.8389 328.316 24.8014 328.181 24.7264C328.051 24.6464 327.949 24.5414 327.874 24.4114C327.799 24.2764 327.761 24.1289 327.761 23.9689C327.761 23.8089 327.799 23.6639 327.874 23.5339C327.949 23.3989 328.051 23.2939 328.181 23.2189C328.316 23.1389 328.466 23.0989 328.631 23.0989C328.796 23.0989 328.944 23.1389 329.074 23.2189C329.209 23.2939 329.314 23.3989 329.389 23.5339C329.469 23.6639 329.509 23.8089 329.509 23.9689C329.509 24.1289 329.469 24.2764 329.389 24.4114C329.314 24.5414 329.209 24.6464 329.074 24.7264C328.944 24.8014 328.796 24.8389 328.631 24.8389ZM337.317 30.1339C337.317 29.5489 337.249 29.0414 337.114 28.6114C336.984 28.1814 336.754 27.8314 336.424 27.5614C336.099 27.2864 335.664 27.1489 335.119 27.1489C334.659 27.1489 334.264 27.2514 333.934 27.4564C333.604 27.6564 333.347 27.9639 333.162 28.3789C332.982 28.7939 332.892 29.3089 332.892 29.9239L332.014 29.6539C332.014 28.8789 332.154 28.2089 332.434 27.6439C332.714 27.0739 333.112 26.6389 333.627 26.3389C334.142 26.0339 334.747 25.8814 335.442 25.8814C336.257 25.8814 336.904 26.0814 337.384 26.4814C337.864 26.8764 338.197 27.3539 338.382 27.9139C338.572 28.4739 338.667 29.0739 338.667 29.7139V34.1914H337.317V30.1339ZM331.542 34.1914V26.0914H332.742V28.2589H332.892V34.1914H331.542ZM344.053 34.4164C343.263 34.4164 342.568 34.2414 341.968 33.8914C341.373 33.5414 340.911 33.0464 340.581 32.4064C340.256 31.7664 340.093 31.0289 340.093 30.1939C340.093 29.3189 340.253 28.5564 340.573 27.9064C340.898 27.2514 341.353 26.7489 341.938 26.3989C342.528 26.0439 343.213 25.8664 343.993 25.8664C344.798 25.8664 345.488 26.0539 346.063 26.4289C346.643 26.7989 347.076 27.3339 347.361 28.0339C347.651 28.7339 347.776 29.5614 347.736 30.5164H346.386V30.0364C346.376 29.3714 346.283 28.8214 346.108 28.3864C345.933 27.9464 345.673 27.6164 345.328 27.3964C344.983 27.1764 344.553 27.0664 344.038 27.0664C343.493 27.0664 343.031 27.1864 342.651 27.4264C342.276 27.6614 341.991 28.0089 341.796 28.4689C341.606 28.9239 341.511 29.4814 341.511 30.1414C341.511 30.7764 341.606 31.3189 341.796 31.7689C341.991 32.2139 342.273 32.5564 342.643 32.7964C343.018 33.0314 343.468 33.1489 343.993 33.1489C344.523 33.1489 344.986 33.0264 345.381 32.7814C345.781 32.5364 346.093 32.1839 346.318 31.7239L347.601 32.1664C347.391 32.6364 347.108 33.0414 346.753 33.3814C346.398 33.7164 345.991 33.9739 345.531 34.1539C345.071 34.3289 344.578 34.4164 344.053 34.4164ZM341.061 30.5164V29.4439H347.046V30.5164H341.061ZM352.408 34.1914V23.3914H353.743V28.1539H359.428V23.3914H360.763V34.1914H359.428V29.4214H353.743V34.1914H352.408ZM366.377 34.4164C365.587 34.4164 364.892 34.2414 364.292 33.8914C363.697 33.5414 363.235 33.0464 362.905 32.4064C362.58 31.7664 362.417 31.0289 362.417 30.1939C362.417 29.3189 362.577 28.5564 362.897 27.9064C363.222 27.2514 363.677 26.7489 364.262 26.3989C364.852 26.0439 365.537 25.8664 366.317 25.8664C367.122 25.8664 367.812 26.0539 368.387 26.4289C368.967 26.7989 369.4 27.3339 369.685 28.0339C369.975 28.7339 370.1 29.5614 370.06 30.5164H368.71V30.0364C368.7 29.3714 368.607 28.8214 368.432 28.3864C368.257 27.9464 367.997 27.6164 367.652 27.3964C367.307 27.1764 366.877 27.0664 366.362 27.0664C365.817 27.0664 365.355 27.1864 364.975 27.4264C364.6 27.6614 364.315 28.0089 364.12 28.4689C363.93 28.9239 363.835 29.4814 363.835 30.1414C363.835 30.7764 363.93 31.3189 364.12 31.7689C364.315 32.2139 364.597 32.5564 364.967 32.7964C365.342 33.0314 365.792 33.1489 366.317 33.1489C366.847 33.1489 367.31 33.0264 367.705 32.7814C368.105 32.5364 368.417 32.1839 368.642 31.7239L369.925 32.1664C369.715 32.6364 369.432 33.0414 369.077 33.3814C368.722 33.7164 368.315 33.9739 367.855 34.1539C367.395 34.3289 366.902 34.4164 366.377 34.4164ZM363.385 30.5164V29.4439H369.37V30.5164H363.385ZM371.88 34.1914V26.0914H373.215V34.1914H371.88ZM372.547 24.8389C372.382 24.8389 372.232 24.8014 372.097 24.7264C371.967 24.6464 371.865 24.5414 371.79 24.4114C371.715 24.2764 371.677 24.1289 371.677 23.9689C371.677 23.8089 371.715 23.6639 371.79 23.5339C371.865 23.3989 371.967 23.2939 372.097 23.2189C372.232 23.1389 372.382 23.0989 372.547 23.0989C372.712 23.0989 372.86 23.1389 372.99 23.2189C373.125 23.2939 373.23 23.3989 373.305 23.5339C373.385 23.6639 373.425 23.8089 373.425 23.9689C373.425 24.1289 373.385 24.2764 373.305 24.4114C373.23 24.5414 373.125 24.6464 372.99 24.7264C372.86 24.8014 372.712 24.8389 372.547 24.8389ZM378.743 38.0164C378.078 38.0164 377.458 37.8639 376.883 37.5589C376.313 37.2589 375.865 36.8189 375.54 36.2389L376.763 35.5939C376.953 35.9689 377.225 36.2514 377.58 36.4414C377.94 36.6314 378.33 36.7264 378.75 36.7264C379.265 36.7264 379.69 36.6314 380.025 36.4414C380.365 36.2564 380.618 35.9814 380.783 35.6164C380.948 35.2514 381.028 34.7889 381.023 34.2289V32.0164H381.18V26.0914H382.365V34.2439C382.365 34.7339 382.333 35.1489 382.268 35.4889C382.113 36.3389 381.733 36.9714 381.128 37.3864C380.528 37.8064 379.733 38.0164 378.743 38.0164ZM378.645 34.4164C377.91 34.4164 377.268 34.2314 376.718 33.8614C376.168 33.4864 375.745 32.9739 375.45 32.3239C375.16 31.6739 375.015 30.9439 375.015 30.1339C375.015 29.3189 375.163 28.5889 375.458 27.9439C375.753 27.2939 376.173 26.7864 376.718 26.4214C377.268 26.0514 377.908 25.8664 378.638 25.8664C379.383 25.8664 380.018 26.0489 380.543 26.4139C381.073 26.7789 381.473 27.2839 381.743 27.9289C382.013 28.5739 382.148 29.3089 382.148 30.1339C382.148 30.9539 382.013 31.6864 381.743 32.3314C381.473 32.9764 381.073 33.4864 380.543 33.8614C380.018 34.2314 379.385 34.4164 378.645 34.4164ZM378.81 33.1939C379.34 33.1939 379.78 33.0664 380.13 32.8114C380.485 32.5514 380.748 32.1914 380.918 31.7314C381.093 31.2714 381.18 30.7389 381.18 30.1339C381.18 29.5239 381.095 28.9914 380.925 28.5364C380.755 28.0814 380.495 27.7264 380.145 27.4714C379.795 27.2164 379.363 27.0889 378.848 27.0889C378.318 27.0889 377.87 27.2214 377.505 27.4864C377.145 27.7464 376.875 28.1064 376.695 28.5664C376.52 29.0264 376.433 29.5489 376.433 30.1339C376.433 30.7189 376.52 31.2439 376.695 31.7089C376.875 32.1689 377.143 32.5314 377.498 32.7964C377.858 33.0614 378.295 33.1939 378.81 33.1939ZM390.227 30.1339C390.227 29.5489 390.159 29.0414 390.024 28.6114C389.894 28.1814 389.664 27.8314 389.334 27.5614C389.009 27.2864 388.574 27.1489 388.029 27.1489C387.569 27.1489 387.174 27.2514 386.844 27.4564C386.514 27.6564 386.257 27.9639 386.072 28.3789C385.892 28.7939 385.802 29.3089 385.802 29.9239L384.924 29.6539C384.924 28.8789 385.064 28.2089 385.344 27.6439C385.624 27.0739 386.022 26.6389 386.537 26.3389C387.052 26.0339 387.657 25.8814 388.352 25.8814C389.167 25.8814 389.814 26.0814 390.294 26.4814C390.774 26.8764 391.107 27.3539 391.292 27.9139C391.482 28.4739 391.577 29.0739 391.577 29.7139V34.1914H390.227V30.1339ZM384.452 34.1914V23.3914H385.652V29.3539H385.802V34.1914H384.452ZM398.049 34.1914C397.254 34.3514 396.537 34.3564 395.897 34.2064C395.262 34.0614 394.812 33.7314 394.547 33.2164C394.422 32.9614 394.342 32.7039 394.307 32.4439C394.277 32.1789 394.264 31.8264 394.269 31.3864V31.1314V23.8414H395.604V31.0714V31.3039C395.599 31.6289 395.604 31.8814 395.619 32.0614C395.639 32.2364 395.689 32.3914 395.769 32.5264C395.939 32.8314 396.209 33.0189 396.579 33.0889C396.949 33.1539 397.439 33.1389 398.049 33.0439V34.1914ZM392.627 27.1939V26.0914H398.049V27.1939H392.627Z" fill="#4200FF"/>
<path d="M447.05 34.1914V23.3914H448.385V28.1539H454.07V23.3914H455.405V34.1914H454.07V29.4214H448.385V34.1914H447.05ZM459.811 34.4164C459.231 34.4164 458.734 34.3089 458.319 34.0939C457.904 33.8739 457.589 33.5814 457.374 33.2164C457.164 32.8514 457.059 32.4464 457.059 32.0014C457.059 31.3764 457.229 30.8689 457.569 30.4789C457.914 30.0889 458.406 29.8039 459.046 29.6239C459.451 29.5089 459.901 29.4139 460.396 29.3389C460.891 29.2589 461.574 29.1614 462.444 29.0464C462.574 29.0264 462.699 29.0089 462.819 28.9939C462.944 28.9789 463.059 28.9639 463.164 28.9489L462.684 29.2264C462.694 28.7364 462.634 28.3364 462.504 28.0264C462.374 27.7164 462.161 27.4864 461.866 27.3364C461.571 27.1864 461.179 27.1114 460.689 27.1114C460.179 27.1114 459.741 27.2264 459.376 27.4564C459.016 27.6864 458.766 28.0439 458.626 28.5289L457.359 28.1464C457.554 27.4214 457.934 26.8614 458.499 26.4664C459.069 26.0664 459.804 25.8664 460.704 25.8664C461.454 25.8664 462.089 26.0014 462.609 26.2714C463.134 26.5364 463.509 26.9289 463.734 27.4489C463.839 27.6789 463.909 27.9339 463.944 28.2139C463.979 28.4939 463.996 28.8164 463.996 29.1814V34.1914H462.811V32.2489L463.089 32.4289C462.884 32.8639 462.624 33.2314 462.309 33.5314C461.999 33.8264 461.634 34.0464 461.214 34.1914C460.799 34.3414 460.331 34.4164 459.811 34.4164ZM460.014 33.2989C460.479 33.2989 460.889 33.2164 461.244 33.0514C461.599 32.8814 461.884 32.6564 462.099 32.3764C462.319 32.0914 462.464 31.7764 462.534 31.4314C462.594 31.2414 462.631 31.0339 462.646 30.8089C462.661 30.5789 462.669 30.3189 462.669 30.0289V29.8864L463.134 30.0889L462.579 30.1639C461.869 30.2539 461.289 30.3339 460.839 30.4039C460.389 30.4739 459.991 30.5589 459.646 30.6589C459.266 30.7739 458.961 30.9364 458.731 31.1464C458.501 31.3564 458.386 31.6389 458.386 31.9939C458.386 32.2289 458.444 32.4464 458.559 32.6464C458.674 32.8414 458.854 32.9989 459.099 33.1189C459.344 33.2389 459.649 33.2989 460.014 33.2989ZM470.821 31.2739C470.531 31.4189 470.194 31.5364 469.809 31.6264C469.429 31.7164 469.031 31.7614 468.616 31.7614C467.796 31.7614 467.131 31.5789 466.621 31.2139C466.111 30.8439 465.781 30.3089 465.631 29.6089C465.541 29.1939 465.496 28.6364 465.496 27.9364V26.0914H466.846V27.9364C466.846 28.4064 466.876 28.7914 466.936 29.0914C467.036 29.5914 467.246 29.9664 467.566 30.2164C467.886 30.4614 468.334 30.5839 468.909 30.5839C469.289 30.5839 469.644 30.5364 469.974 30.4414C470.304 30.3414 470.586 30.2064 470.821 30.0364V26.0914H472.164V34.1914H470.821V31.2739ZM477.777 34.4164C476.987 34.4164 476.292 34.2414 475.692 33.8914C475.097 33.5414 474.634 33.0464 474.304 32.4064C473.979 31.7664 473.817 31.0289 473.817 30.1939C473.817 29.3189 473.977 28.5564 474.297 27.9064C474.622 27.2514 475.077 26.7489 475.662 26.3989C476.252 26.0439 476.937 25.8664 477.717 25.8664C478.522 25.8664 479.212 26.0539 479.787 26.4289C480.367 26.7989 480.799 27.3339 481.084 28.0339C481.374 28.7339 481.499 29.5614 481.459 30.5164H480.109V30.0364C480.099 29.3714 480.007 28.8214 479.832 28.3864C479.657 27.9464 479.397 27.6164 479.052 27.3964C478.707 27.1764 478.277 27.0664 477.762 27.0664C477.217 27.0664 476.754 27.1864 476.374 27.4264C475.999 27.6614 475.714 28.0089 475.519 28.4689C475.329 28.9239 475.234 29.4814 475.234 30.1414C475.234 30.7764 475.329 31.3189 475.519 31.7689C475.714 32.2139 475.997 32.5564 476.367 32.7964C476.742 33.0314 477.192 33.1489 477.717 33.1489C478.247 33.1489 478.709 33.0264 479.104 32.7814C479.504 32.5364 479.817 32.1839 480.042 31.7239L481.324 32.1664C481.114 32.6364 480.832 33.0414 480.477 33.3814C480.122 33.7164 479.714 33.9739 479.254 34.1539C478.794 34.3289 478.302 34.4164 477.777 34.4164ZM474.784 30.5164V29.4439H480.769V30.5164H474.784ZM486.849 34.4164C486.114 34.4164 485.482 34.2314 484.952 33.8614C484.427 33.4864 484.027 32.9764 483.752 32.3314C483.482 31.6864 483.347 30.9539 483.347 30.1339C483.347 29.3089 483.482 28.5739 483.752 27.9289C484.022 27.2839 484.422 26.7789 484.952 26.4139C485.482 26.0489 486.117 25.8664 486.857 25.8664C487.592 25.8664 488.232 26.0514 488.777 26.4214C489.327 26.7864 489.747 27.2939 490.037 27.9439C490.332 28.5889 490.479 29.3189 490.479 30.1339C490.479 30.9439 490.332 31.6739 490.037 32.3239C489.747 32.9739 489.327 33.4864 488.777 33.8614C488.232 34.2314 487.589 34.4164 486.849 34.4164ZM483.122 37.7914V26.0914H484.314V32.0539H484.464V37.7914H483.122ZM486.684 33.1939C487.204 33.1939 487.642 33.0614 487.997 32.7964C488.352 32.5314 488.617 32.1689 488.792 31.7089C488.972 31.2439 489.062 30.7189 489.062 30.1339C489.062 29.5489 488.972 29.0264 488.792 28.5664C488.617 28.1064 488.349 27.7464 487.989 27.4864C487.629 27.2214 487.182 27.0889 486.647 27.0889C486.132 27.0889 485.699 27.2164 485.349 27.4714C485.004 27.7264 484.744 28.0814 484.569 28.5364C484.399 28.9914 484.314 29.5239 484.314 30.1339C484.314 30.7389 484.399 31.2714 484.569 31.7314C484.744 32.1914 485.009 32.5514 485.364 32.8114C485.719 33.0664 486.159 33.1939 486.684 33.1939ZM494.268 34.1914V27.3064H491.448V26.0914H498.423V27.3064H495.603V34.1914H494.268ZM501.882 34.4164C501.302 34.4164 500.804 34.3089 500.389 34.0939C499.974 33.8739 499.659 33.5814 499.444 33.2164C499.234 32.8514 499.129 32.4464 499.129 32.0014C499.129 31.3764 499.299 30.8689 499.639 30.4789C499.984 30.0889 500.477 29.8039 501.117 29.6239C501.522 29.5089 501.972 29.4139 502.467 29.3389C502.962 29.2589 503.644 29.1614 504.514 29.0464C504.644 29.0264 504.769 29.0089 504.889 28.9939C505.014 28.9789 505.129 28.9639 505.234 28.9489L504.754 29.2264C504.764 28.7364 504.704 28.3364 504.574 28.0264C504.444 27.7164 504.232 27.4864 503.937 27.3364C503.642 27.1864 503.249 27.1114 502.759 27.1114C502.249 27.1114 501.812 27.2264 501.447 27.4564C501.087 27.6864 500.837 28.0439 500.697 28.5289L499.429 28.1464C499.624 27.4214 500.004 26.8614 500.569 26.4664C501.139 26.0664 501.874 25.8664 502.774 25.8664C503.524 25.8664 504.159 26.0014 504.679 26.2714C505.204 26.5364 505.579 26.9289 505.804 27.4489C505.909 27.6789 505.979 27.9339 506.014 28.2139C506.049 28.4939 506.067 28.8164 506.067 29.1814V34.1914H504.882V32.2489L505.159 32.4289C504.954 32.8639 504.694 33.2314 504.379 33.5314C504.069 33.8264 503.704 34.0464 503.284 34.1914C502.869 34.3414 502.402 34.4164 501.882 34.4164ZM502.084 33.2989C502.549 33.2989 502.959 33.2164 503.314 33.0514C503.669 32.8814 503.954 32.6564 504.169 32.3764C504.389 32.0914 504.534 31.7764 504.604 31.4314C504.664 31.2414 504.702 31.0339 504.717 30.8089C504.732 30.5789 504.739 30.3189 504.739 30.0289V29.8864L505.204 30.0889L504.649 30.1639C503.939 30.2539 503.359 30.3339 502.909 30.4039C502.459 30.4739 502.062 30.5589 501.717 30.6589C501.337 30.7739 501.032 30.9364 500.802 31.1464C500.572 31.3564 500.457 31.6389 500.457 31.9939C500.457 32.2289 500.514 32.4464 500.629 32.6464C500.744 32.8414 500.924 32.9989 501.169 33.1189C501.414 33.2389 501.719 33.2989 502.084 33.2989ZM508.009 34.1914V26.0914H509.344V29.5039H513.604V26.0914H514.939V34.1914H513.604V30.7714H509.344V34.1914H508.009ZM523.67 26.0914V34.1914H522.38V28.2214L518.135 34.1914H517.033V26.0914H518.323V31.9789L522.575 26.0914H523.67ZM529.281 34.4164C528.491 34.4164 527.796 34.2414 527.196 33.8914C526.601 33.5414 526.138 33.0464 525.808 32.4064C525.483 31.7664 525.321 31.0289 525.321 30.1939C525.321 29.3189 525.481 28.5564 525.801 27.9064C526.126 27.2514 526.581 26.7489 527.166 26.3989C527.756 26.0439 528.441 25.8664 529.221 25.8664C530.026 25.8664 530.716 26.0539 531.291 26.4289C531.871 26.7989 532.303 27.3339 532.588 28.0339C532.878 28.7339 533.003 29.5614 532.963 30.5164H531.613V30.0364C531.603 29.3714 531.511 28.8214 531.336 28.3864C531.161 27.9464 530.901 27.6164 530.556 27.3964C530.211 27.1764 529.781 27.0664 529.266 27.0664C528.721 27.0664 528.258 27.1864 527.878 27.4264C527.503 27.6614 527.218 28.0089 527.023 28.4689C526.833 28.9239 526.738 29.4814 526.738 30.1414C526.738 30.7764 526.833 31.3189 527.023 31.7689C527.218 32.2139 527.501 32.5564 527.871 32.7964C528.246 33.0314 528.696 33.1489 529.221 33.1489C529.751 33.1489 530.213 33.0264 530.608 32.7814C531.008 32.5364 531.321 32.1839 531.546 31.7239L532.828 32.1664C532.618 32.6364 532.336 33.0414 531.981 33.3814C531.626 33.7164 531.218 33.9739 530.758 34.1539C530.298 34.3289 529.806 34.4164 529.281 34.4164ZM526.288 30.5164V29.4439H532.273V30.5164H526.288Z" fill="#4200FF"/>
<path d="M577.05 34.1914V23.3914H585.48V34.1914H584.145V24.6589H578.385V34.1914H577.05ZM591.302 34.4164C590.567 34.4164 589.935 34.2314 589.405 33.8614C588.88 33.4864 588.48 32.9764 588.205 32.3314C587.935 31.6864 587.8 30.9539 587.8 30.1339C587.8 29.3089 587.935 28.5739 588.205 27.9289C588.475 27.2839 588.875 26.7789 589.405 26.4139C589.935 26.0489 590.57 25.8664 591.31 25.8664C592.045 25.8664 592.685 26.0514 593.23 26.4214C593.78 26.7864 594.2 27.2939 594.49 27.9439C594.785 28.5889 594.932 29.3189 594.932 30.1339C594.932 30.9439 594.785 31.6739 594.49 32.3239C594.2 32.9739 593.78 33.4864 593.23 33.8614C592.685 34.2314 592.042 34.4164 591.302 34.4164ZM587.575 37.7914V26.0914H588.767V32.0539H588.917V37.7914H587.575ZM591.137 33.1939C591.657 33.1939 592.095 33.0614 592.45 32.7964C592.805 32.5314 593.07 32.1689 593.245 31.7089C593.425 31.2439 593.515 30.7189 593.515 30.1339C593.515 29.5489 593.425 29.0264 593.245 28.5664C593.07 28.1064 592.802 27.7464 592.442 27.4864C592.082 27.2214 591.635 27.0889 591.1 27.0889C590.585 27.0889 590.152 27.2164 589.802 27.4714C589.457 27.7264 589.197 28.0814 589.022 28.5364C588.852 28.9914 588.767 29.5239 588.767 30.1339C588.767 30.7389 588.852 31.2714 589.022 31.7314C589.197 32.1914 589.462 32.5514 589.817 32.8114C590.172 33.0664 590.612 33.1939 591.137 33.1939ZM603.206 26.0914V34.1914H601.916V28.2214L597.671 34.1914H596.569V26.0914H597.859V31.9789L602.111 26.0914H603.206ZM605.299 34.1914V26.0914H606.447L609.522 32.3764L612.597 26.0914H613.744V34.1914H612.454V28.8739L609.874 34.1914H609.169L606.589 28.8739V34.1914H605.299ZM619.349 34.4164C618.559 34.4164 617.864 34.2414 617.264 33.8914C616.669 33.5414 616.207 33.0464 615.877 32.4064C615.552 31.7664 615.389 31.0289 615.389 30.1939C615.389 29.3189 615.549 28.5564 615.869 27.9064C616.194 27.2514 616.649 26.7489 617.234 26.3989C617.824 26.0439 618.509 25.8664 619.289 25.8664C620.094 25.8664 620.784 26.0539 621.359 26.4289C621.939 26.7989 622.372 27.3339 622.657 28.0339C622.947 28.7339 623.072 29.5614 623.032 30.5164H621.682V30.0364C621.672 29.3714 621.579 28.8214 621.404 28.3864C621.229 27.9464 620.969 27.6164 620.624 27.3964C620.279 27.1764 619.849 27.0664 619.334 27.0664C618.789 27.0664 618.327 27.1864 617.947 27.4264C617.572 27.6614 617.287 28.0089 617.092 28.4689C616.902 28.9239 616.807 29.4814 616.807 30.1414C616.807 30.7764 616.902 31.3189 617.092 31.7689C617.287 32.2139 617.569 32.5564 617.939 32.7964C618.314 33.0314 618.764 33.1489 619.289 33.1489C619.819 33.1489 620.282 33.0264 620.677 32.7814C621.077 32.5364 621.389 32.1839 621.614 31.7239L622.897 32.1664C622.687 32.6364 622.404 33.0414 622.049 33.3814C621.694 33.7164 621.287 33.9739 620.827 34.1539C620.367 34.3289 619.874 34.4164 619.349 34.4164ZM616.357 30.5164V29.4439H622.342V30.5164H616.357ZM628.421 34.4164C627.686 34.4164 627.054 34.2314 626.524 33.8614C625.999 33.4864 625.599 32.9764 625.324 32.3314C625.054 31.6864 624.919 30.9539 624.919 30.1339C624.919 29.3089 625.054 28.5739 625.324 27.9289C625.594 27.2839 625.994 26.7789 626.524 26.4139C627.054 26.0489 627.689 25.8664 628.429 25.8664C629.164 25.8664 629.804 26.0514 630.349 26.4214C630.899 26.7864 631.319 27.2939 631.609 27.9439C631.904 28.5889 632.051 29.3189 632.051 30.1339C632.051 30.9439 631.904 31.6739 631.609 32.3239C631.319 32.9739 630.899 33.4864 630.349 33.8614C629.804 34.2314 629.161 34.4164 628.421 34.4164ZM624.694 37.7914V26.0914H625.886V32.0539H626.036V37.7914H624.694ZM628.256 33.1939C628.776 33.1939 629.214 33.0614 629.569 32.7964C629.924 32.5314 630.189 32.1689 630.364 31.7089C630.544 31.2439 630.634 30.7189 630.634 30.1339C630.634 29.5489 630.544 29.0264 630.364 28.5664C630.189 28.1064 629.921 27.7464 629.561 27.4864C629.201 27.2214 628.754 27.0889 628.219 27.0889C627.704 27.0889 627.271 27.2164 626.921 27.4714C626.576 27.7264 626.316 28.0814 626.141 28.5364C625.971 28.9914 625.886 29.5239 625.886 30.1339C625.886 30.7389 625.971 31.2714 626.141 31.7314C626.316 32.1914 626.581 32.5514 626.936 32.8114C627.291 33.0664 627.731 33.1939 628.256 33.1939Z" fill="#4200FF"/>
</g>
<defs>
<clipPath id="clip0_689_1936">
<rect width="922" height="206" fill="white" transform="translate(0 0.191406)"/>
</clipPath>
</defs>
</svg>
