<svg width="576" height="181" viewBox="0 0 576 181" fill="none" xmlns="http://www.w3.org/2000/svg">
<rect y="0.191406" width="576" height="180" rx="10" fill="#F2F2F2"/>
<rect x="337" y="86.1602" width="8.09414" height="22.9443" rx="4.04707" transform="rotate(90 337 86.1602)" fill="#9F9F9F"/>
<rect x="331.365" y="113.484" width="8.09414" height="22.9443" rx="4.04707" transform="rotate(122.678 331.365 113.484)" fill="#CDCDCD"/>
<rect x="311.814" y="133.467" width="8.09414" height="22.9443" rx="4.04707" transform="rotate(155.365 311.814 133.467)" fill="#DFDFDF"/>
<rect x="284.412" y="139.677" width="8.09414" height="22.9443" rx="4.04707" transform="rotate(-171.835 284.412 139.677)" fill="#100F0F"/>
<rect x="258.156" y="130.109" width="8.09414" height="22.9443" rx="4.04707" transform="rotate(-138.957 258.156 130.109)" fill="#100F0F"/>
<rect x="241.264" y="107.915" width="8.09414" height="22.9443" rx="4.04707" transform="rotate(-106.248 241.264 107.915)" fill="#100F0F"/>
<rect x="239.076" y="79.9038" width="8.09414" height="22.9443" rx="4.04707" transform="rotate(-73.3182 239.076 79.9038)" fill="#100F0F"/>
<rect x="252.297" y="55.377" width="8.09414" height="22.9443" rx="4.04707" transform="rotate(-40.6266 252.297 55.377)" fill="#100F0F"/>
<rect x="276.84" y="41.7939" width="8.09414" height="22.9443" rx="4.04707" transform="rotate(-7.72568 276.84 41.7939)" fill="#100F0F"/>
<rect x="304.723" y="43.6636" width="8.09414" height="22.9443" rx="4.04707" transform="rotate(25.0617 304.723 43.6636)" fill="#383838"/>
<rect x="327.207" y="60.394" width="8.09414" height="22.9443" rx="4.04707" transform="rotate(57.743 327.207 60.394)" fill="#6A6A6A"/>
</svg>
