<svg width="922" height="207" viewBox="0 0 922 207" fill="none" xmlns="http://www.w3.org/2000/svg">
<g clip-path="url(#clip0_689_1876)">
<mask id="path-1-outside-1_689_1876" maskUnits="userSpaceOnUse" x="0" y="56.1914" width="918" height="149" fill="black">
<rect fill="white" y="56.1914" width="918" height="149"/>
<path d="M0 56.1914H918V204.191H0V56.1914Z"/>
</mask>
<path d="M918 203.191H0V205.191H918V203.191Z" fill="#4A4A4A" mask="url(#path-1-outside-1_689_1876)"/>
<mask id="path-3-inside-2_689_1876" fill="white">
<path d="M0 56.1914H918V129.191H0V56.1914Z"/>
</mask>
<path d="M0 56.1914H918V129.191H0V56.1914Z" fill="#F2F2F2"/>
<path d="M0 57.1914H918V55.1914H0V57.1914Z" fill="#4A4A4A" mask="url(#path-3-inside-2_689_1876)"/>
<path d="M18.3025 86.1914H17.2V78.0914H18.3025V86.1914ZM17.7475 76.6964C17.5325 76.6964 17.35 76.6239 17.2 76.4789C17.055 76.3339 16.9825 76.1539 16.9825 75.9389C16.9825 75.7189 17.055 75.5364 17.2 75.3914C17.35 75.2464 17.5325 75.1739 17.7475 75.1739C17.9675 75.1739 18.15 75.2489 18.295 75.3989C18.445 75.5439 18.52 75.7239 18.52 75.9389C18.52 76.1539 18.445 76.3339 18.295 76.4789C18.15 76.6239 17.9675 76.6964 17.7475 76.6964ZM23.5735 86.4089C22.9435 86.4089 22.3835 86.3164 21.8935 86.1314C21.4035 85.9464 21.0035 85.6814 20.6935 85.3364C20.3885 84.9864 20.191 84.5689 20.101 84.0839L21.226 83.8964C21.341 84.3614 21.6135 84.7289 22.0435 84.9989C22.4735 85.2689 23.0035 85.4039 23.6335 85.4039C24.2485 85.4039 24.7335 85.2764 25.0885 85.0214C25.4435 84.7614 25.621 84.4089 25.621 83.9639C25.621 83.7039 25.561 83.4989 25.441 83.3489C25.326 83.1939 25.106 83.0514 24.781 82.9214C24.456 82.7914 23.936 82.6289 23.221 82.4339C22.476 82.2339 21.8985 82.0339 21.4885 81.8339C21.0785 81.6289 20.786 81.3989 20.611 81.1439C20.436 80.8839 20.3485 80.5614 20.3485 80.1764C20.3485 79.7214 20.476 79.3189 20.731 78.9689C20.991 78.6189 21.3535 78.3489 21.8185 78.1589C22.2835 77.9639 22.8185 77.8664 23.4235 77.8664C24.0285 77.8664 24.5735 77.9664 25.0585 78.1664C25.5435 78.3614 25.9335 78.6389 26.2285 78.9989C26.5235 79.3539 26.6985 79.7639 26.7535 80.2289L25.6285 80.4314C25.5485 79.9464 25.3035 79.5664 24.8935 79.2914C24.4835 79.0114 23.9635 78.8714 23.3335 78.8714C22.9685 78.8714 22.6435 78.9239 22.3585 79.0289C22.0785 79.1339 21.8585 79.2814 21.6985 79.4714C21.5435 79.6614 21.466 79.8789 21.466 80.1239C21.466 80.3489 21.531 80.5364 21.661 80.6864C21.796 80.8314 22.0285 80.9714 22.3585 81.1064C22.6935 81.2364 23.186 81.3839 23.836 81.5489C24.596 81.7439 25.1835 81.9464 25.5985 82.1564C26.0185 82.3614 26.3185 82.6064 26.4985 82.8914C26.6785 83.1714 26.7685 83.5239 26.7685 83.9489C26.7685 84.4539 26.641 84.8914 26.386 85.2614C26.131 85.6314 25.7635 85.9164 25.2835 86.1164C24.8035 86.3114 24.2335 86.4089 23.5735 86.4089ZM32.7818 81.9389H28.2818V80.9939H32.7818V81.9389ZM36.6582 79.0364V83.2139V83.6564C36.6582 83.9064 36.6682 84.1089 36.6882 84.2639C36.7082 84.4139 36.7532 84.5489 36.8232 84.6689C36.9432 84.8989 37.1157 85.0639 37.3407 85.1639C37.5657 85.2639 37.8482 85.3139 38.1882 85.3139C38.4732 85.3139 38.7907 85.2839 39.1407 85.2239V86.1914C38.7407 86.2714 38.3682 86.3114 38.0232 86.3114C37.5082 86.3114 37.0582 86.2239 36.6732 86.0489C36.2882 85.8739 36.0032 85.5989 35.8182 85.2239C35.7132 85.0089 35.6432 84.7889 35.6082 84.5639C35.5782 84.3389 35.5632 84.0589 35.5632 83.7239V83.2589V79.0364H33.8307V78.0914H35.5632V75.8414H36.6582V78.0914H39.1407V79.0364H36.6582ZM41.164 86.1914H39.8365L43.0015 82.0964L39.904 78.0914H41.224L43.6465 81.2489L46.0465 78.0914H47.3665L44.269 82.0964L47.4415 86.1914H46.114L43.6465 82.9439L41.164 86.1914ZM50.5742 79.0364V83.2139V83.6564C50.5742 83.9064 50.5842 84.1089 50.6042 84.2639C50.6242 84.4139 50.6692 84.5489 50.7392 84.6689C50.8592 84.8989 51.0317 85.0639 51.2567 85.1639C51.4817 85.2639 51.7642 85.3139 52.1042 85.3139C52.3892 85.3139 52.7067 85.2839 53.0567 85.2239V86.1914C52.6567 86.2714 52.2842 86.3114 51.9392 86.3114C51.4242 86.3114 50.9742 86.2239 50.5892 86.0489C50.2042 85.8739 49.9192 85.5989 49.7342 85.2239C49.6292 85.0089 49.5592 84.7889 49.5242 84.5639C49.4942 84.3389 49.4792 84.0589 49.4792 83.7239V83.2589V79.0364H47.7467V78.0914H49.4792V75.8414H50.5742V78.0914H53.0567V79.0364H50.5742ZM59.0025 81.9389H54.5025V80.9939H59.0025V81.9389ZM61.0859 86.1914H59.7584L62.9234 82.0964L59.8259 78.0914H61.1459L63.5684 81.2489L65.9684 78.0914H67.2884L64.1909 82.0964L67.3634 86.1914H66.0359L63.5684 82.9439L61.0859 86.1914ZM69.8211 86.1914H68.7186V75.1664H69.8211V86.1914ZM78.212 79.4864C78.372 79.8764 78.452 80.4339 78.452 81.1589V86.1914H77.4695V84.8489C77.1545 85.3639 76.7345 85.7539 76.2095 86.0189C75.6845 86.2839 75.077 86.4164 74.387 86.4164C73.797 86.4164 73.292 86.3089 72.872 86.0939C72.457 85.8789 72.1445 85.5889 71.9345 85.2239C71.7245 84.8589 71.6195 84.4564 71.6195 84.0164C71.6195 83.3864 71.802 82.8789 72.167 82.4939C72.532 82.1089 73.037 81.8314 73.682 81.6614C74.077 81.5664 74.517 81.4814 75.002 81.4064C75.492 81.3314 76.057 81.2514 76.697 81.1664L77.372 81.0764C77.362 80.3314 77.187 79.7839 76.847 79.4339C76.512 79.0839 75.967 78.9089 75.212 78.9089C74.642 78.9089 74.167 79.0364 73.787 79.2914C73.412 79.5464 73.1495 79.9389 72.9995 80.4689L71.927 80.1539C72.117 79.4239 72.492 78.8614 73.052 78.4664C73.617 78.0664 74.342 77.8664 75.227 77.8664C75.967 77.8664 76.5945 78.0064 77.1095 78.2864C77.6295 78.5664 77.997 78.9664 78.212 79.4864ZM74.5145 85.4639C75.0145 85.4639 75.4595 85.3739 75.8495 85.1939C76.2395 85.0089 76.552 84.7564 76.787 84.4364C77.027 84.1114 77.182 83.7439 77.252 83.3339C77.322 83.0239 77.357 82.5939 77.357 82.0439C77.162 82.0639 77.022 82.0814 76.937 82.0964C76.257 82.1764 75.7045 82.2489 75.2795 82.3139C74.8545 82.3739 74.4695 82.4514 74.1245 82.5464C73.1895 82.8214 72.722 83.3114 72.722 84.0164C72.722 84.2664 72.782 84.5014 72.902 84.7214C73.027 84.9414 73.2245 85.1214 73.4945 85.2614C73.7645 85.3964 74.1045 85.4639 74.5145 85.4639ZM82.0245 78.6239C82.2495 78.4239 82.517 78.2739 82.827 78.1739C83.142 78.0739 83.4595 78.0239 83.7795 78.0239C83.9945 78.0239 84.197 78.0464 84.387 78.0914V79.1264C84.172 79.0764 83.9645 79.0514 83.7645 79.0514C83.2445 79.0514 82.807 79.1989 82.452 79.4939C82.082 79.7839 81.832 80.1539 81.702 80.6039C81.572 81.0539 81.507 81.5689 81.507 82.1489V86.1914H80.4045V78.0914H81.3945V79.3739C81.5695 79.0639 81.7795 78.8139 82.0245 78.6239ZM91.3143 78.0914H92.2968V86.0789C92.2968 86.5739 92.2668 87.0039 92.2068 87.3689C91.9218 89.1339 90.7643 90.0164 88.7343 90.0164C88.0693 90.0164 87.4518 89.8689 86.8818 89.5739C86.3168 89.2789 85.8693 88.8314 85.5393 88.2314L86.5368 87.6764C86.7468 88.1014 87.0493 88.4189 87.4443 88.6289C87.8443 88.8389 88.2743 88.9439 88.7343 88.9439C89.5943 88.9439 90.2193 88.7064 90.6093 88.2314C90.9993 87.7564 91.1918 87.0339 91.1868 86.0639V85.2314C90.8868 85.6114 90.5243 85.9039 90.0993 86.1089C89.6743 86.3139 89.1943 86.4164 88.6593 86.4164C87.9193 86.4164 87.2768 86.2314 86.7318 85.8614C86.1918 85.4914 85.7793 84.9814 85.4943 84.3314C85.2093 83.6814 85.0668 82.9489 85.0668 82.1339C85.0668 81.3239 85.2093 80.5964 85.4943 79.9514C85.7793 79.3014 86.1893 78.7914 86.7243 78.4214C87.2643 78.0514 87.8943 77.8664 88.6143 77.8664C89.1993 77.8664 89.7193 77.9839 90.1743 78.2189C90.6293 78.4489 91.0093 78.7789 91.3143 79.2089V78.0914ZM88.7718 85.3889C89.3318 85.3889 89.8018 85.2514 90.1818 84.9764C90.5618 84.6964 90.8443 84.3139 91.0293 83.8289C91.2193 83.3389 91.3143 82.7739 91.3143 82.1339C91.3143 81.4889 91.2193 80.9239 91.0293 80.4389C90.8443 79.9489 90.5618 79.5689 90.1818 79.2989C89.8068 79.0289 89.3443 78.8939 88.7943 78.8939C88.2343 78.8939 87.7618 79.0339 87.3768 79.3139C86.9918 79.5939 86.7043 79.9789 86.5143 80.4689C86.3293 80.9539 86.2368 81.5089 86.2368 82.1339C86.2368 82.7589 86.3318 83.3189 86.5218 83.8139C86.7168 84.3039 87.0043 84.6889 87.3843 84.9689C87.7643 85.2489 88.2268 85.3889 88.7718 85.3889ZM95.1213 82.4489C95.1663 83.3789 95.4188 84.0964 95.8788 84.6014C96.3388 85.1064 96.9713 85.3589 97.7763 85.3589C98.3513 85.3589 98.8563 85.2264 99.2913 84.9614C99.7263 84.6914 100.069 84.3039 100.319 83.7989L101.346 84.1964C101.026 84.9014 100.556 85.4489 99.9363 85.8389C99.3163 86.2239 98.6113 86.4164 97.8213 86.4164C97.0413 86.4164 96.3588 86.2414 95.7738 85.8914C95.1888 85.5414 94.7363 85.0489 94.4163 84.4139C94.1013 83.7739 93.9438 83.0289 93.9438 82.1789C93.9438 81.3039 94.0988 80.5414 94.4088 79.8914C94.7238 79.2414 95.1688 78.7414 95.7438 78.3914C96.3238 78.0414 97.0013 77.8664 97.7763 77.8664C98.5513 77.8664 99.2163 78.0414 99.7713 78.3914C100.331 78.7364 100.759 79.2364 101.054 79.8914C101.354 80.5414 101.504 81.3164 101.504 82.2164V82.4489H95.1213ZM97.8063 78.8789C97.0313 78.8789 96.4138 79.1064 95.9538 79.5614C95.4988 80.0164 95.2288 80.6714 95.1438 81.5264H100.349C100.269 80.6514 100.014 79.9914 99.5838 79.5464C99.1538 79.1014 98.5613 78.8789 97.8063 78.8789Z" fill="#100F0F"/>
<path d="M190.43 85.1264H195.8V86.1839H188.75L188.758 85.1789L193.64 80.7689C194.035 80.4139 194.308 80.0664 194.458 79.7264C194.608 79.3864 194.683 79.0139 194.683 78.6089C194.683 78.1689 194.578 77.7689 194.368 77.4089C194.163 77.0439 193.88 76.7564 193.52 76.5464C193.16 76.3314 192.763 76.2239 192.328 76.2239C191.878 76.2239 191.47 76.3339 191.105 76.5539C190.74 76.7689 190.453 77.0589 190.243 77.4239C190.038 77.7889 189.938 78.1814 189.943 78.6014H188.818C188.818 77.9564 188.97 77.3714 189.275 76.8464C189.585 76.3214 190.008 75.9114 190.543 75.6164C191.083 75.3164 191.683 75.1664 192.343 75.1664C192.988 75.1664 193.573 75.3189 194.098 75.6239C194.628 75.9289 195.043 76.3464 195.343 76.8764C195.648 77.4014 195.8 77.9814 195.8 78.6164C195.8 79.0614 195.745 79.4539 195.635 79.7939C195.53 80.1289 195.368 80.4414 195.148 80.7314C194.933 81.0214 194.64 81.3314 194.27 81.6614L190.43 85.1264ZM201.13 86.4164C200.47 86.4164 199.87 86.2639 199.33 85.9589C198.795 85.6489 198.372 85.2264 198.062 84.6914C197.757 84.1514 197.605 83.5514 197.605 82.8914V78.6914C197.605 78.0314 197.757 77.4339 198.062 76.8989C198.372 76.3589 198.795 75.9364 199.33 75.6314C199.87 75.3214 200.47 75.1664 201.13 75.1664C201.79 75.1664 202.387 75.3214 202.922 75.6314C203.462 75.9364 203.885 76.3589 204.19 76.8989C204.5 77.4339 204.655 78.0314 204.655 78.6914V82.8914C204.655 83.5514 204.5 84.1514 204.19 84.6914C203.885 85.2264 203.462 85.6489 202.922 85.9589C202.387 86.2639 201.79 86.4164 201.13 86.4164ZM201.13 85.3514C201.565 85.3514 201.967 85.2439 202.337 85.0289C202.707 84.8139 203 84.5214 203.215 84.1514C203.43 83.7814 203.537 83.3789 203.537 82.9439V78.6389C203.537 78.1989 203.43 77.7964 203.215 77.4314C203 77.0614 202.707 76.7689 202.337 76.5539C201.967 76.3339 201.565 76.2239 201.13 76.2239C200.695 76.2239 200.292 76.3339 199.922 76.5539C199.552 76.7689 199.26 77.0614 199.045 77.4314C198.83 77.7964 198.722 78.1989 198.722 78.6389V82.9439C198.722 83.3789 198.83 83.7814 199.045 84.1514C199.26 84.5214 199.552 84.8139 199.922 85.0289C200.292 85.2439 200.695 85.3514 201.13 85.3514ZM210.442 77.8664C211.162 77.8664 211.79 78.0514 212.325 78.4214C212.865 78.7914 213.277 79.3014 213.562 79.9514C213.847 80.5964 213.99 81.3239 213.99 82.1339C213.99 82.9489 213.847 83.6814 213.562 84.3314C213.277 84.9814 212.862 85.4914 212.317 85.8614C211.777 86.2314 211.137 86.4164 210.397 86.4164C209.862 86.4164 209.38 86.3139 208.95 86.1089C208.525 85.8989 208.162 85.6039 207.862 85.2239V89.7914H206.752V78.0914H207.742V79.2089C208.047 78.7789 208.427 78.4489 208.882 78.2189C209.337 77.9839 209.857 77.8664 210.442 77.8664ZM210.285 85.3889C210.83 85.3889 211.292 85.2489 211.672 84.9689C212.052 84.6889 212.337 84.3039 212.527 83.8139C212.722 83.3189 212.82 82.7589 212.82 82.1339C212.82 81.5089 212.725 80.9539 212.535 80.4689C212.35 79.9789 212.065 79.5939 211.68 79.3139C211.295 79.0339 210.822 78.8939 210.262 78.8939C209.712 78.8939 209.247 79.0289 208.867 79.2989C208.492 79.5689 208.21 79.9489 208.02 80.4389C207.835 80.9239 207.742 81.4889 207.742 82.1339C207.742 82.7739 207.835 83.3389 208.02 83.8289C208.21 84.3139 208.495 84.6964 208.875 84.9764C209.255 85.2514 209.725 85.3889 210.285 85.3889ZM215.918 86.1914H214.59L217.755 82.0964L214.658 78.0914H215.978L218.4 81.2489L220.8 78.0914H222.12L219.023 82.0964L222.195 86.1914H220.868L218.4 82.9439L215.918 86.1914Z" fill="#100F0F"/>
<path d="M322.05 86.1914H320.933V76.6214L318.9 77.8439V76.6064L320.933 75.3914H322.05V86.1914ZM326.275 85.1264H331.645V86.1839H324.595L324.602 85.1789L329.485 80.7689C329.88 80.4139 330.152 80.0664 330.302 79.7264C330.452 79.3864 330.527 79.0139 330.527 78.6089C330.527 78.1689 330.422 77.7689 330.212 77.4089C330.007 77.0439 329.725 76.7564 329.365 76.5464C329.005 76.3314 328.607 76.2239 328.172 76.2239C327.722 76.2239 327.315 76.3339 326.95 76.5539C326.585 76.7689 326.297 77.0589 326.087 77.4239C325.882 77.7889 325.782 78.1814 325.787 78.6014H324.662C324.662 77.9564 324.815 77.3714 325.12 76.8464C325.43 76.3214 325.852 75.9114 326.387 75.6164C326.927 75.3164 327.527 75.1664 328.187 75.1664C328.832 75.1664 329.417 75.3189 329.942 75.6239C330.472 75.9289 330.887 76.3464 331.187 76.8764C331.492 77.4014 331.645 77.9814 331.645 78.6164C331.645 79.0614 331.59 79.4539 331.48 79.7939C331.375 80.1289 331.212 80.4414 330.992 80.7314C330.777 81.0214 330.485 81.3314 330.115 81.6614L326.275 85.1264ZM336.974 86.4164C336.314 86.4164 335.714 86.2639 335.174 85.9589C334.639 85.6489 334.217 85.2264 333.907 84.6914C333.602 84.1514 333.449 83.5514 333.449 82.8914V78.6914C333.449 78.0314 333.602 77.4339 333.907 76.8989C334.217 76.3589 334.639 75.9364 335.174 75.6314C335.714 75.3214 336.314 75.1664 336.974 75.1664C337.634 75.1664 338.232 75.3214 338.767 75.6314C339.307 75.9364 339.729 76.3589 340.034 76.8989C340.344 77.4339 340.499 78.0314 340.499 78.6914V82.8914C340.499 83.5514 340.344 84.1514 340.034 84.6914C339.729 85.2264 339.307 85.6489 338.767 85.9589C338.232 86.2639 337.634 86.4164 336.974 86.4164ZM336.974 85.3514C337.409 85.3514 337.812 85.2439 338.182 85.0289C338.552 84.8139 338.844 84.5214 339.059 84.1514C339.274 83.7814 339.382 83.3789 339.382 82.9439V78.6389C339.382 78.1989 339.274 77.7964 339.059 77.4314C338.844 77.0614 338.552 76.7689 338.182 76.5539C337.812 76.3339 337.409 76.2239 336.974 76.2239C336.539 76.2239 336.137 76.3339 335.767 76.5539C335.397 76.7689 335.104 77.0614 334.889 77.4314C334.674 77.7964 334.567 78.1989 334.567 78.6389V82.9439C334.567 83.3789 334.674 83.7814 334.889 84.1514C335.104 84.5214 335.397 84.8139 335.767 85.0289C336.137 85.2439 336.539 85.3514 336.974 85.3514ZM345.155 80.5664C344.665 80.5664 344.212 80.4464 343.797 80.2064C343.387 79.9664 343.06 79.6389 342.815 79.2239C342.575 78.8089 342.455 78.3564 342.455 77.8664C342.455 77.3864 342.577 76.9389 342.822 76.5239C343.072 76.1089 343.405 75.7789 343.82 75.5339C344.235 75.2889 344.68 75.1664 345.155 75.1664C345.645 75.1664 346.095 75.2864 346.505 75.5264C346.92 75.7664 347.247 76.0939 347.487 76.5089C347.732 76.9239 347.855 77.3764 347.855 77.8664C347.855 78.3564 347.732 78.8089 347.487 79.2239C347.247 79.6389 346.92 79.9664 346.505 80.2064C346.095 80.4464 345.645 80.5664 345.155 80.5664ZM353.727 76.1339L343.655 86.1914L342.905 85.4414L352.977 75.3914L353.727 76.1339ZM345.155 79.5689C345.455 79.5689 345.735 79.4914 345.995 79.3364C346.26 79.1814 346.47 78.9739 346.625 78.7139C346.78 78.4489 346.857 78.1664 346.857 77.8664C346.857 77.5664 346.78 77.2864 346.625 77.0264C346.47 76.7614 346.26 76.5514 345.995 76.3964C345.735 76.2414 345.455 76.1639 345.155 76.1639C344.855 76.1639 344.572 76.2414 344.307 76.3964C344.047 76.5514 343.84 76.7614 343.685 77.0264C343.53 77.2864 343.452 77.5664 343.452 77.8664C343.452 78.1664 343.53 78.4489 343.685 78.7139C343.84 78.9739 344.047 79.1814 344.307 79.3364C344.572 79.4914 344.855 79.5689 345.155 79.5689ZM351.477 86.4164C350.987 86.4164 350.535 86.2964 350.12 86.0564C349.71 85.8164 349.382 85.4889 349.137 85.0739C348.897 84.6589 348.777 84.2064 348.777 83.7164C348.777 83.2364 348.9 82.7889 349.145 82.3739C349.395 81.9589 349.727 81.6289 350.142 81.3839C350.557 81.1389 351.002 81.0164 351.477 81.0164C351.967 81.0164 352.417 81.1364 352.827 81.3764C353.242 81.6164 353.57 81.9439 353.81 82.3589C354.055 82.7739 354.177 83.2264 354.177 83.7164C354.177 84.2064 354.055 84.6589 353.81 85.0739C353.57 85.4889 353.242 85.8164 352.827 86.0564C352.417 86.2964 351.967 86.4164 351.477 86.4164ZM351.477 85.4189C351.777 85.4189 352.057 85.3414 352.317 85.1864C352.582 85.0314 352.792 84.8239 352.947 84.5639C353.102 84.2989 353.18 84.0164 353.18 83.7164C353.18 83.4164 353.102 83.1364 352.947 82.8764C352.792 82.6114 352.582 82.4014 352.317 82.2464C352.057 82.0914 351.777 82.0139 351.477 82.0139C351.172 82.0139 350.887 82.0914 350.622 82.2464C350.362 82.4014 350.155 82.6114 350 82.8764C349.845 83.1364 349.767 83.4164 349.767 83.7164C349.767 84.0164 349.845 84.2989 350 84.5639C350.155 84.8239 350.362 85.0314 350.622 85.1864C350.887 85.3414 351.172 85.4189 351.477 85.4189Z" fill="#100F0F"/>
<path d="M448.108 86.1914H447.05V75.3914H448.063L452.308 84.4739L456.53 75.3914H457.558V86.1839H456.508V77.8514L452.66 86.1914H451.948L448.108 77.8514V86.1914ZM460.39 82.4489C460.435 83.3789 460.687 84.0964 461.147 84.6014C461.607 85.1064 462.24 85.3589 463.045 85.3589C463.62 85.3589 464.125 85.2264 464.56 84.9614C464.995 84.6914 465.337 84.3039 465.587 83.7989L466.615 84.1964C466.295 84.9014 465.825 85.4489 465.205 85.8389C464.585 86.2239 463.88 86.4164 463.09 86.4164C462.31 86.4164 461.627 86.2414 461.042 85.8914C460.457 85.5414 460.005 85.0489 459.685 84.4139C459.37 83.7739 459.212 83.0289 459.212 82.1789C459.212 81.3039 459.367 80.5414 459.677 79.8914C459.992 79.2414 460.437 78.7414 461.012 78.3914C461.592 78.0414 462.27 77.8664 463.045 77.8664C463.82 77.8664 464.485 78.0414 465.04 78.3914C465.6 78.7364 466.027 79.2364 466.322 79.8914C466.622 80.5414 466.772 81.3164 466.772 82.2164V82.4489H460.39ZM463.075 78.8789C462.3 78.8789 461.682 79.1064 461.222 79.5614C460.767 80.0164 460.497 80.6714 460.412 81.5264H465.617C465.537 80.6514 465.282 79.9914 464.852 79.5464C464.422 79.1014 463.83 78.8789 463.075 78.8789ZM474.114 75.3914H475.224V86.1914H474.234V85.0589C473.934 85.4889 473.559 85.8239 473.109 86.0639C472.664 86.2989 472.154 86.4164 471.579 86.4164C470.839 86.4164 470.197 86.2314 469.652 85.8614C469.112 85.4914 468.699 84.9814 468.414 84.3314C468.129 83.6814 467.987 82.9489 467.987 82.1339C467.987 81.3239 468.129 80.5964 468.414 79.9514C468.699 79.3014 469.109 78.7914 469.644 78.4214C470.184 78.0514 470.814 77.8664 471.534 77.8664C472.084 77.8664 472.574 77.9689 473.004 78.1739C473.439 78.3789 473.809 78.6689 474.114 79.0439V75.3914ZM471.692 85.3889C472.252 85.3889 472.722 85.2514 473.102 84.9764C473.482 84.6964 473.764 84.3139 473.949 83.8289C474.139 83.3389 474.234 82.7739 474.234 82.1339C474.234 81.4889 474.139 80.9239 473.949 80.4389C473.764 79.9489 473.482 79.5689 473.102 79.2989C472.727 79.0289 472.264 78.8939 471.714 78.8939C471.154 78.8939 470.682 79.0339 470.297 79.3139C469.912 79.5939 469.624 79.9789 469.434 80.4689C469.249 80.9539 469.157 81.5089 469.157 82.1339C469.157 82.7589 469.252 83.3189 469.442 83.8139C469.637 84.3039 469.924 84.6889 470.304 84.9689C470.684 85.2489 471.147 85.3889 471.692 85.3889ZM478.581 86.1914H477.478V78.0914H478.581V86.1914ZM478.026 76.6964C477.811 76.6964 477.628 76.6239 477.478 76.4789C477.333 76.3339 477.261 76.1539 477.261 75.9389C477.261 75.7189 477.333 75.5364 477.478 75.3914C477.628 75.2464 477.811 75.1739 478.026 75.1739C478.246 75.1739 478.428 75.2489 478.573 75.3989C478.723 75.5439 478.798 75.7239 478.798 75.9389C478.798 76.1539 478.723 76.3339 478.573 76.4789C478.428 76.6239 478.246 76.6964 478.026 76.6964ZM486.537 78.0914H487.639V86.1914H486.649V85.0664C486.349 85.5014 485.967 85.8314 485.502 86.0564C485.037 86.2814 484.512 86.3939 483.927 86.3939C483.162 86.3939 482.537 86.2089 482.052 85.8389C481.567 85.4689 481.217 84.9939 481.002 84.4139C480.787 83.8289 480.679 83.2064 480.679 82.5464V78.0914H481.789V82.2239C481.789 83.1789 481.979 83.9389 482.359 84.5039C482.739 85.0639 483.332 85.3439 484.137 85.3439C484.907 85.3439 485.499 85.0864 485.914 84.5714C486.329 84.0564 486.537 83.3364 486.537 82.4114V78.0914ZM497.813 77.8739C498.353 77.8739 498.826 77.9889 499.231 78.2189C499.641 78.4439 499.956 78.7664 500.176 79.1864C500.396 79.6064 500.506 80.0989 500.506 80.6639L500.498 86.1914H499.396L499.403 80.8739C499.403 80.4639 499.323 80.1089 499.163 79.8089C499.008 79.5039 498.791 79.2714 498.511 79.1114C498.231 78.9464 497.913 78.8639 497.558 78.8639C497.228 78.8639 496.921 78.9389 496.636 79.0889C496.351 79.2339 496.118 79.4639 495.938 79.7789C495.758 80.0939 495.668 80.4889 495.668 80.9639L495.661 86.1914H494.573L494.581 80.9489C494.581 80.5239 494.503 80.1539 494.348 79.8389C494.193 79.5239 493.973 79.2839 493.688 79.1189C493.408 78.9489 493.083 78.8639 492.713 78.8639C492.343 78.8639 492.016 78.9514 491.731 79.1264C491.446 79.2964 491.226 79.5414 491.071 79.8614C490.916 80.1764 490.838 80.5439 490.838 80.9639V86.1914H489.728V78.0914H490.718V78.9464C490.973 78.6114 491.298 78.3489 491.693 78.1589C492.088 77.9689 492.523 77.8739 492.998 77.8739C493.533 77.8739 494.006 77.9914 494.416 78.2264C494.831 78.4614 495.146 78.7989 495.361 79.2389C495.596 78.8089 495.928 78.4739 496.358 78.2339C496.788 77.9939 497.273 77.8739 497.813 77.8739Z" fill="#100F0F"/>
<path d="M576.051 105.191V79.7275H579.896V101.893H591.432V105.191H576.051ZM602.079 105.584C600.29 105.584 598.723 105.174 597.379 104.354C596.046 103.534 595.009 102.383 594.269 100.902C593.539 99.4207 593.175 97.7004 593.175 95.7407C593.175 93.7583 593.539 92.0265 594.269 90.5454C595.009 89.0529 596.046 87.8965 597.379 87.0762C598.723 86.2559 600.29 85.8457 602.079 85.8457C603.879 85.8457 605.445 86.2559 606.778 87.0762C608.111 87.8965 609.148 89.0529 609.889 90.5454C610.629 92.0265 611 93.7583 611 95.7407C611 97.7004 610.629 99.4207 609.889 100.902C609.148 102.383 608.111 103.534 606.778 104.354C605.445 105.174 603.879 105.584 602.079 105.584ZM602.079 102.457C603.252 102.457 604.221 102.149 604.984 101.534C605.747 100.919 606.311 100.104 606.676 99.0903C607.052 98.0649 607.24 96.9484 607.24 95.7407C607.24 94.5103 607.052 93.3823 606.676 92.3569C606.311 91.3315 605.747 90.5112 604.984 89.896C604.221 89.2808 603.252 88.9731 602.079 88.9731C600.917 88.9731 599.954 89.2808 599.19 89.896C598.438 90.5112 597.875 91.3315 597.499 92.3569C597.123 93.3823 596.935 94.5103 596.935 95.7407C596.935 96.9484 597.123 98.0649 597.499 99.0903C597.875 100.104 598.438 100.919 599.19 101.534C599.954 102.149 600.917 102.457 602.079 102.457ZM613.683 105.191V86.085H617.254V89.144H617.459C617.813 88.1187 618.428 87.3097 619.305 86.7173C620.194 86.1134 621.196 85.8115 622.313 85.8115C622.541 85.8115 622.809 85.8229 623.116 85.8457C623.435 85.8571 623.692 85.8742 623.885 85.897V89.4517C623.737 89.4061 623.469 89.3605 623.082 89.3149C622.706 89.2694 622.324 89.2466 621.937 89.2466C621.06 89.2466 620.274 89.4346 619.579 89.8105C618.895 90.1751 618.354 90.6821 617.955 91.3315C617.568 91.9696 617.374 92.7101 617.374 93.5532V105.191H613.683ZM633.216 105.584C631.348 105.584 629.73 105.18 628.363 104.371C626.996 103.562 625.942 102.423 625.201 100.953C624.472 99.472 624.107 97.7459 624.107 95.7749C624.107 93.8153 624.466 92.0892 625.184 90.5967C625.913 89.1042 626.933 87.9421 628.243 87.1104C629.565 86.2673 631.114 85.8457 632.892 85.8457C633.974 85.8457 635.022 86.0223 636.036 86.3755C637.05 86.7287 637.962 87.2869 638.771 88.0503C639.579 88.8136 640.217 89.8049 640.685 91.0239C641.163 92.243 641.402 93.7127 641.402 95.4331V96.7661H626.209V93.9805H639.488L637.762 94.9033C637.762 93.7298 637.58 92.693 637.215 91.793C636.851 90.8929 636.304 90.1922 635.575 89.6909C634.857 89.1782 633.963 88.9219 632.892 88.9219C631.821 88.9219 630.903 89.1782 630.14 89.6909C629.388 90.2036 628.813 90.8815 628.414 91.7246C628.015 92.5677 627.816 93.4906 627.816 94.4932V96.3901C627.816 97.7004 628.044 98.8112 628.5 99.7227C628.955 100.634 629.588 101.329 630.396 101.808C631.217 102.286 632.168 102.525 633.25 102.525C633.957 102.525 634.595 102.423 635.165 102.218C635.746 102.013 636.247 101.705 636.668 101.295C637.09 100.885 637.409 100.378 637.625 99.7739L641.146 100.44C640.861 101.466 640.36 102.366 639.642 103.141C638.924 103.915 638.019 104.519 636.925 104.952C635.842 105.374 634.606 105.584 633.216 105.584ZM644 105.191V86.085H647.538V89.2295H647.794C648.193 88.1699 648.842 87.3439 649.742 86.7515C650.654 86.1476 651.736 85.8457 652.989 85.8457C654.265 85.8457 655.331 86.1476 656.185 86.7515C657.051 87.3439 657.695 88.1699 658.116 89.2295H658.321C658.777 88.1927 659.5 87.3724 660.492 86.7686C661.483 86.1533 662.662 85.8457 664.029 85.8457C665.761 85.8457 667.18 86.3926 668.285 87.4863C669.39 88.5687 669.942 90.2036 669.942 92.3911V105.191H666.217V92.7329C666.217 91.4341 665.864 90.4998 665.157 89.9302C664.451 89.3491 663.608 89.0586 662.628 89.0586C661.42 89.0586 660.48 89.4346 659.808 90.1865C659.147 90.9271 658.817 91.867 658.817 93.0063V105.191H655.091V92.4937C655.091 91.4569 654.772 90.6252 654.134 89.9985C653.496 89.3719 652.659 89.0586 651.622 89.0586C650.916 89.0586 650.261 89.2466 649.657 89.6226C649.064 89.9871 648.586 90.4998 648.221 91.1606C647.868 91.8101 647.691 92.562 647.691 93.4165V105.191H644ZM685.409 79.7275V105.191H681.563V79.7275H685.409ZM689.254 112.335V86.085H692.843V89.1953H693.15C693.378 88.7965 693.692 88.3351 694.09 87.811C694.5 87.2869 695.07 86.8312 695.799 86.4438C696.528 86.0451 697.48 85.8457 698.653 85.8457C700.191 85.8457 701.559 86.2331 702.755 87.0078C703.963 87.7826 704.914 88.9048 705.609 90.3745C706.304 91.8442 706.651 93.6159 706.651 95.6895C706.651 97.7402 706.31 99.5062 705.626 100.987C704.942 102.457 703.997 103.591 702.789 104.388C701.593 105.174 700.22 105.567 698.67 105.567C697.52 105.567 696.574 105.374 695.833 104.986C695.104 104.588 694.529 104.126 694.107 103.602C693.697 103.078 693.378 102.617 693.15 102.218H692.945V112.335H689.254ZM697.867 102.406C698.972 102.406 699.895 102.11 700.636 101.517C701.376 100.925 701.935 100.121 702.311 99.1074C702.698 98.082 702.892 96.9313 702.892 95.6553C702.892 94.3906 702.704 93.257 702.328 92.2544C701.952 91.2518 701.393 90.46 700.653 89.8789C699.912 89.2979 698.984 89.0073 697.867 89.0073C696.785 89.0073 695.873 89.2865 695.133 89.8447C694.392 90.3916 693.828 91.1663 693.441 92.1689C693.065 93.1602 692.877 94.3223 692.877 95.6553C692.877 96.9883 693.071 98.1618 693.458 99.1758C693.845 100.19 694.409 100.982 695.15 101.551C695.902 102.121 696.808 102.406 697.867 102.406ZM723.639 90.7676L720.272 91.3486C720.056 90.7106 719.651 90.1239 719.059 89.5884C718.478 89.0529 717.606 88.7852 716.444 88.7852C715.396 88.7852 714.518 89.0244 713.812 89.5029C713.117 89.9701 712.77 90.5682 712.77 91.2974C712.77 91.9354 713.003 92.4538 713.47 92.8525C713.949 93.2513 714.706 93.5703 715.743 93.8096L718.802 94.4932C720.545 94.8919 721.85 95.5186 722.716 96.373C723.582 97.2275 724.015 98.3213 724.015 99.6543C724.015 100.805 723.684 101.83 723.023 102.73C722.363 103.619 721.445 104.32 720.272 104.833C719.098 105.334 717.743 105.584 716.205 105.584C714.063 105.584 712.319 105.123 710.975 104.2C709.631 103.277 708.805 101.979 708.497 100.304L712.069 99.7568C712.297 100.691 712.758 101.397 713.453 101.876C714.16 102.354 715.071 102.594 716.188 102.594C717.395 102.594 718.364 102.337 719.093 101.825C719.833 101.312 720.204 100.691 720.204 99.9619C720.204 98.7542 719.304 97.9396 717.503 97.5181L714.273 96.8003C712.485 96.3901 711.163 95.7464 710.309 94.8691C709.465 93.9805 709.044 92.8639 709.044 91.5195C709.044 90.3916 709.357 89.4004 709.984 88.5459C710.622 87.6914 711.493 87.0306 712.599 86.5635C713.715 86.085 714.986 85.8457 716.41 85.8457C718.483 85.8457 720.107 86.2957 721.28 87.1958C722.465 88.0959 723.251 89.2865 723.639 90.7676ZM738.712 97.2959V86.085H742.403V105.191H738.78V101.876H738.575C738.119 102.89 737.413 103.739 736.456 104.422C735.499 105.106 734.303 105.442 732.867 105.431C731.637 105.431 730.549 105.163 729.603 104.627C728.669 104.092 727.934 103.289 727.398 102.218C726.874 101.147 726.612 99.8195 726.612 98.2358V86.085H730.304V97.8086C730.304 99.096 730.668 100.127 731.397 100.902C732.127 101.677 733.067 102.058 734.217 102.047C734.912 102.047 735.602 101.876 736.285 101.534C736.98 101.192 737.556 100.668 738.011 99.9619C738.478 99.2555 738.712 98.3669 738.712 97.2959ZM745.958 105.191V86.085H749.496V89.2295H749.752C750.151 88.1699 750.8 87.3439 751.7 86.7515C752.612 86.1476 753.694 85.8457 754.947 85.8457C756.223 85.8457 757.289 86.1476 758.143 86.7515C759.009 87.3439 759.653 88.1699 760.074 89.2295H760.279C760.735 88.1927 761.458 87.3724 762.45 86.7686C763.441 86.1533 764.62 85.8457 765.987 85.8457C767.719 85.8457 769.138 86.3926 770.243 87.4863C771.348 88.5687 771.9 90.2036 771.9 92.3911V105.191H768.175V92.7329C768.175 91.4341 767.822 90.4998 767.115 89.9302C766.409 89.3491 765.566 89.0586 764.586 89.0586C763.378 89.0586 762.438 89.4346 761.766 90.1865C761.105 90.9271 760.775 91.867 760.775 93.0063V105.191H757.049V92.4937C757.049 91.4569 756.73 90.6252 756.092 89.9985C755.454 89.3719 754.617 89.0586 753.58 89.0586C752.874 89.0586 752.219 89.2466 751.615 89.6226C751.022 89.9871 750.544 90.4998 750.179 91.1606C749.826 91.8101 749.649 92.562 749.649 93.4165V105.191H745.958Z" fill="#100F0F"/>
<mask id="path-10-inside-3_689_1876" fill="white">
<path d="M0 129.191H918V204.191H0V129.191Z"/>
</mask>
<path d="M0 129.191H918V204.191H0V129.191Z" fill="#F2F2F2"/>
<path d="M0 130.191H918V128.191H0V130.191Z" fill="#4A4A4A" mask="url(#path-10-inside-3_689_1876)"/>
<path d="M18.3025 159.191H17.2V151.091H18.3025V159.191ZM17.7475 149.696C17.5325 149.696 17.35 149.624 17.2 149.479C17.055 149.334 16.9825 149.154 16.9825 148.939C16.9825 148.719 17.055 148.536 17.2 148.391C17.35 148.246 17.5325 148.174 17.7475 148.174C17.9675 148.174 18.15 148.249 18.295 148.399C18.445 148.544 18.52 148.724 18.52 148.939C18.52 149.154 18.445 149.334 18.295 149.479C18.15 149.624 17.9675 149.696 17.7475 149.696ZM23.5735 159.409C22.9435 159.409 22.3835 159.316 21.8935 159.131C21.4035 158.946 21.0035 158.681 20.6935 158.336C20.3885 157.986 20.191 157.569 20.101 157.084L21.226 156.896C21.341 157.361 21.6135 157.729 22.0435 157.999C22.4735 158.269 23.0035 158.404 23.6335 158.404C24.2485 158.404 24.7335 158.276 25.0885 158.021C25.4435 157.761 25.621 157.409 25.621 156.964C25.621 156.704 25.561 156.499 25.441 156.349C25.326 156.194 25.106 156.051 24.781 155.921C24.456 155.791 23.936 155.629 23.221 155.434C22.476 155.234 21.8985 155.034 21.4885 154.834C21.0785 154.629 20.786 154.399 20.611 154.144C20.436 153.884 20.3485 153.561 20.3485 153.176C20.3485 152.721 20.476 152.319 20.731 151.969C20.991 151.619 21.3535 151.349 21.8185 151.159C22.2835 150.964 22.8185 150.866 23.4235 150.866C24.0285 150.866 24.5735 150.966 25.0585 151.166C25.5435 151.361 25.9335 151.639 26.2285 151.999C26.5235 152.354 26.6985 152.764 26.7535 153.229L25.6285 153.431C25.5485 152.946 25.3035 152.566 24.8935 152.291C24.4835 152.011 23.9635 151.871 23.3335 151.871C22.9685 151.871 22.6435 151.924 22.3585 152.029C22.0785 152.134 21.8585 152.281 21.6985 152.471C21.5435 152.661 21.466 152.879 21.466 153.124C21.466 153.349 21.531 153.536 21.661 153.686C21.796 153.831 22.0285 153.971 22.3585 154.106C22.6935 154.236 23.186 154.384 23.836 154.549C24.596 154.744 25.1835 154.946 25.5985 155.156C26.0185 155.361 26.3185 155.606 26.4985 155.891C26.6785 156.171 26.7685 156.524 26.7685 156.949C26.7685 157.454 26.641 157.891 26.386 158.261C26.131 158.631 25.7635 158.916 25.2835 159.116C24.8035 159.311 24.2335 159.409 23.5735 159.409ZM32.7818 154.939H28.2818V153.994H32.7818V154.939ZM36.6582 152.036V156.214V156.656C36.6582 156.906 36.6682 157.109 36.6882 157.264C36.7082 157.414 36.7532 157.549 36.8232 157.669C36.9432 157.899 37.1157 158.064 37.3407 158.164C37.5657 158.264 37.8482 158.314 38.1882 158.314C38.4732 158.314 38.7907 158.284 39.1407 158.224V159.191C38.7407 159.271 38.3682 159.311 38.0232 159.311C37.5082 159.311 37.0582 159.224 36.6732 159.049C36.2882 158.874 36.0032 158.599 35.8182 158.224C35.7132 158.009 35.6432 157.789 35.6082 157.564C35.5782 157.339 35.5632 157.059 35.5632 156.724V156.259V152.036H33.8307V151.091H35.5632V148.841H36.6582V151.091H39.1407V152.036H36.6582ZM41.164 159.191H39.8365L43.0015 155.096L39.904 151.091H41.224L43.6465 154.249L46.0465 151.091H47.3665L44.269 155.096L47.4415 159.191H46.114L43.6465 155.944L41.164 159.191ZM50.5742 152.036V156.214V156.656C50.5742 156.906 50.5842 157.109 50.6042 157.264C50.6242 157.414 50.6692 157.549 50.7392 157.669C50.8592 157.899 51.0317 158.064 51.2567 158.164C51.4817 158.264 51.7642 158.314 52.1042 158.314C52.3892 158.314 52.7067 158.284 53.0567 158.224V159.191C52.6567 159.271 52.2842 159.311 51.9392 159.311C51.4242 159.311 50.9742 159.224 50.5892 159.049C50.2042 158.874 49.9192 158.599 49.7342 158.224C49.6292 158.009 49.5592 157.789 49.5242 157.564C49.4942 157.339 49.4792 157.059 49.4792 156.724V156.259V152.036H47.7467V151.091H49.4792V148.841H50.5742V151.091H53.0567V152.036H50.5742ZM59.0025 154.939H54.5025V153.994H59.0025V154.939ZM62.2039 159.191H61.1014V148.166H62.2039V159.191ZM70.5948 152.486C70.7548 152.876 70.8348 153.434 70.8348 154.159V159.191H69.8523V157.849C69.5373 158.364 69.1173 158.754 68.5923 159.019C68.0673 159.284 67.4598 159.416 66.7698 159.416C66.1798 159.416 65.6748 159.309 65.2548 159.094C64.8398 158.879 64.5273 158.589 64.3173 158.224C64.1073 157.859 64.0023 157.456 64.0023 157.016C64.0023 156.386 64.1848 155.879 64.5498 155.494C64.9148 155.109 65.4198 154.831 66.0648 154.661C66.4598 154.566 66.8998 154.481 67.3848 154.406C67.8748 154.331 68.4398 154.251 69.0798 154.166L69.7548 154.076C69.7448 153.331 69.5698 152.784 69.2298 152.434C68.8948 152.084 68.3498 151.909 67.5948 151.909C67.0248 151.909 66.5498 152.036 66.1698 152.291C65.7948 152.546 65.5323 152.939 65.3823 153.469L64.3098 153.154C64.4998 152.424 64.8748 151.861 65.4348 151.466C65.9998 151.066 66.7248 150.866 67.6098 150.866C68.3498 150.866 68.9773 151.006 69.4923 151.286C70.0123 151.566 70.3798 151.966 70.5948 152.486ZM66.8973 158.464C67.3973 158.464 67.8423 158.374 68.2323 158.194C68.6223 158.009 68.9348 157.756 69.1698 157.436C69.4098 157.111 69.5648 156.744 69.6348 156.334C69.7048 156.024 69.7398 155.594 69.7398 155.044C69.5448 155.064 69.4048 155.081 69.3198 155.096C68.6398 155.176 68.0873 155.249 67.6623 155.314C67.2373 155.374 66.8523 155.451 66.5073 155.546C65.5723 155.821 65.1048 156.311 65.1048 157.016C65.1048 157.266 65.1648 157.501 65.2848 157.721C65.4098 157.941 65.6073 158.121 65.8773 158.261C66.1473 158.396 66.4873 158.464 66.8973 158.464ZM74.4073 151.624C74.6323 151.424 74.8998 151.274 75.2098 151.174C75.5248 151.074 75.8423 151.024 76.1623 151.024C76.3773 151.024 76.5798 151.046 76.7698 151.091V152.126C76.5548 152.076 76.3473 152.051 76.1473 152.051C75.6273 152.051 75.1898 152.199 74.8348 152.494C74.4648 152.784 74.2148 153.154 74.0848 153.604C73.9548 154.054 73.8898 154.569 73.8898 155.149V159.191H72.7873V151.091H73.7773V152.374C73.9523 152.064 74.1623 151.814 74.4073 151.624ZM83.6971 151.091H84.6796V159.079C84.6796 159.574 84.6496 160.004 84.5896 160.369C84.3046 162.134 83.1471 163.016 81.1171 163.016C80.4521 163.016 79.8346 162.869 79.2646 162.574C78.6996 162.279 78.2521 161.831 77.9221 161.231L78.9196 160.676C79.1296 161.101 79.4321 161.419 79.8271 161.629C80.2271 161.839 80.6571 161.944 81.1171 161.944C81.9771 161.944 82.6021 161.706 82.9921 161.231C83.3821 160.756 83.5746 160.034 83.5696 159.064V158.231C83.2696 158.611 82.9071 158.904 82.4821 159.109C82.0571 159.314 81.5771 159.416 81.0421 159.416C80.3021 159.416 79.6596 159.231 79.1146 158.861C78.5746 158.491 78.1621 157.981 77.8771 157.331C77.5921 156.681 77.4496 155.949 77.4496 155.134C77.4496 154.324 77.5921 153.596 77.8771 152.951C78.1621 152.301 78.5721 151.791 79.1071 151.421C79.6471 151.051 80.2771 150.866 80.9971 150.866C81.5821 150.866 82.1021 150.984 82.5571 151.219C83.0121 151.449 83.3921 151.779 83.6971 152.209V151.091ZM81.1546 158.389C81.7146 158.389 82.1846 158.251 82.5646 157.976C82.9446 157.696 83.2271 157.314 83.4121 156.829C83.6021 156.339 83.6971 155.774 83.6971 155.134C83.6971 154.489 83.6021 153.924 83.4121 153.439C83.2271 152.949 82.9446 152.569 82.5646 152.299C82.1896 152.029 81.7271 151.894 81.1771 151.894C80.6171 151.894 80.1446 152.034 79.7596 152.314C79.3746 152.594 79.0871 152.979 78.8971 153.469C78.7121 153.954 78.6196 154.509 78.6196 155.134C78.6196 155.759 78.7146 156.319 78.9046 156.814C79.0996 157.304 79.3871 157.689 79.7671 157.969C80.1471 158.249 80.6096 158.389 81.1546 158.389ZM87.5041 155.449C87.5491 156.379 87.8016 157.096 88.2616 157.601C88.7216 158.106 89.3541 158.359 90.1591 158.359C90.7341 158.359 91.2391 158.226 91.6741 157.961C92.1091 157.691 92.4516 157.304 92.7016 156.799L93.7291 157.196C93.4091 157.901 92.9391 158.449 92.3191 158.839C91.6991 159.224 90.9941 159.416 90.2041 159.416C89.4241 159.416 88.7416 159.241 88.1566 158.891C87.5716 158.541 87.1191 158.049 86.7991 157.414C86.4841 156.774 86.3266 156.029 86.3266 155.179C86.3266 154.304 86.4816 153.541 86.7916 152.891C87.1066 152.241 87.5516 151.741 88.1266 151.391C88.7066 151.041 89.3841 150.866 90.1591 150.866C90.9341 150.866 91.5991 151.041 92.1541 151.391C92.7141 151.736 93.1416 152.236 93.4366 152.891C93.7366 153.541 93.8866 154.316 93.8866 155.216V155.449H87.5041ZM90.1891 151.879C89.4141 151.879 88.7966 152.106 88.3366 152.561C87.8816 153.016 87.6116 153.671 87.5266 154.526H92.7316C92.6516 153.651 92.3966 152.991 91.9666 152.546C91.5366 152.101 90.9441 151.879 90.1891 151.879Z" fill="#100F0F"/>
<path d="M192.05 159.191H190.933V149.621L188.9 150.844V149.606L190.933 148.391H192.05V159.191ZM200.13 153.416C200.625 153.706 201.002 154.089 201.262 154.564C201.522 155.039 201.652 155.571 201.652 156.161C201.652 156.811 201.505 157.381 201.21 157.871C200.92 158.361 200.512 158.741 199.987 159.011C199.462 159.281 198.862 159.416 198.187 159.416C197.517 159.416 196.92 159.281 196.395 159.011C195.875 158.741 195.47 158.361 195.18 157.871C194.89 157.381 194.745 156.811 194.745 156.161C194.745 155.561 194.87 155.024 195.12 154.549C195.375 154.074 195.755 153.694 196.26 153.409C195.85 153.164 195.537 152.836 195.322 152.426C195.107 152.016 195 151.564 195 151.069C195 150.479 195.135 149.966 195.405 149.531C195.675 149.091 196.05 148.754 196.53 148.519C197.015 148.284 197.567 148.166 198.187 148.166C198.807 148.166 199.357 148.284 199.837 148.519C200.322 148.754 200.7 149.091 200.97 149.531C201.245 149.966 201.382 150.479 201.382 151.069C201.382 151.569 201.275 152.026 201.06 152.441C200.85 152.851 200.54 153.176 200.13 153.416ZM198.187 149.254C197.567 149.254 197.075 149.409 196.71 149.719C196.35 150.029 196.17 150.479 196.17 151.069C196.17 151.659 196.352 152.111 196.717 152.426C197.082 152.741 197.572 152.899 198.187 152.899C198.807 152.899 199.3 152.741 199.665 152.426C200.03 152.111 200.212 151.659 200.212 151.069C200.212 150.479 200.03 150.029 199.665 149.719C199.3 149.409 198.807 149.254 198.187 149.254ZM198.187 158.359C198.647 158.359 199.05 158.274 199.395 158.104C199.74 157.934 200.007 157.684 200.197 157.354C200.387 157.024 200.482 156.626 200.482 156.161C200.482 155.456 200.275 154.914 199.86 154.534C199.45 154.154 198.892 153.964 198.187 153.964C197.482 153.964 196.925 154.154 196.515 154.534C196.11 154.914 195.907 155.456 195.907 156.161C195.907 156.626 196.002 157.024 196.192 157.354C196.382 157.684 196.647 157.934 196.987 158.104C197.332 158.274 197.732 158.359 198.187 158.359ZM207.278 150.866C207.998 150.866 208.626 151.051 209.161 151.421C209.701 151.791 210.113 152.301 210.398 152.951C210.683 153.596 210.826 154.324 210.826 155.134C210.826 155.949 210.683 156.681 210.398 157.331C210.113 157.981 209.698 158.491 209.153 158.861C208.613 159.231 207.973 159.416 207.233 159.416C206.698 159.416 206.216 159.314 205.786 159.109C205.361 158.899 204.998 158.604 204.698 158.224V162.791H203.588V151.091H204.578V152.209C204.883 151.779 205.263 151.449 205.718 151.219C206.173 150.984 206.693 150.866 207.278 150.866ZM207.121 158.389C207.666 158.389 208.128 158.249 208.508 157.969C208.888 157.689 209.173 157.304 209.363 156.814C209.558 156.319 209.656 155.759 209.656 155.134C209.656 154.509 209.561 153.954 209.371 153.469C209.186 152.979 208.901 152.594 208.516 152.314C208.131 152.034 207.658 151.894 207.098 151.894C206.548 151.894 206.083 152.029 205.703 152.299C205.328 152.569 205.046 152.949 204.856 153.439C204.671 153.924 204.578 154.489 204.578 155.134C204.578 155.774 204.671 156.339 204.856 156.829C205.046 157.314 205.331 157.696 205.711 157.976C206.091 158.251 206.561 158.389 207.121 158.389ZM212.754 159.191H211.426L214.591 155.096L211.494 151.091H212.814L215.236 154.249L217.636 151.091H218.956L215.859 155.096L219.031 159.191H217.704L215.236 155.944L212.754 159.191Z" fill="#100F0F"/>
<path d="M322.05 159.191H320.933V149.621L318.9 150.844V149.606L320.933 148.391H322.05V159.191ZM326.275 158.126H331.645V159.184H324.595L324.602 158.179L329.485 153.769C329.88 153.414 330.152 153.066 330.302 152.726C330.452 152.386 330.527 152.014 330.527 151.609C330.527 151.169 330.422 150.769 330.212 150.409C330.007 150.044 329.725 149.756 329.365 149.546C329.005 149.331 328.607 149.224 328.172 149.224C327.722 149.224 327.315 149.334 326.95 149.554C326.585 149.769 326.297 150.059 326.087 150.424C325.882 150.789 325.782 151.181 325.787 151.601H324.662C324.662 150.956 324.815 150.371 325.12 149.846C325.43 149.321 325.852 148.911 326.387 148.616C326.927 148.316 327.527 148.166 328.187 148.166C328.832 148.166 329.417 148.319 329.942 148.624C330.472 148.929 330.887 149.346 331.187 149.876C331.492 150.401 331.645 150.981 331.645 151.616C331.645 152.061 331.59 152.454 331.48 152.794C331.375 153.129 331.212 153.441 330.992 153.731C330.777 154.021 330.485 154.331 330.115 154.661L326.275 158.126ZM336.974 159.416C336.314 159.416 335.714 159.264 335.174 158.959C334.639 158.649 334.217 158.226 333.907 157.691C333.602 157.151 333.449 156.551 333.449 155.891V151.691C333.449 151.031 333.602 150.434 333.907 149.899C334.217 149.359 334.639 148.936 335.174 148.631C335.714 148.321 336.314 148.166 336.974 148.166C337.634 148.166 338.232 148.321 338.767 148.631C339.307 148.936 339.729 149.359 340.034 149.899C340.344 150.434 340.499 151.031 340.499 151.691V155.891C340.499 156.551 340.344 157.151 340.034 157.691C339.729 158.226 339.307 158.649 338.767 158.959C338.232 159.264 337.634 159.416 336.974 159.416ZM336.974 158.351C337.409 158.351 337.812 158.244 338.182 158.029C338.552 157.814 338.844 157.521 339.059 157.151C339.274 156.781 339.382 156.379 339.382 155.944V151.639C339.382 151.199 339.274 150.796 339.059 150.431C338.844 150.061 338.552 149.769 338.182 149.554C337.812 149.334 337.409 149.224 336.974 149.224C336.539 149.224 336.137 149.334 335.767 149.554C335.397 149.769 335.104 150.061 334.889 150.431C334.674 150.796 334.567 151.199 334.567 151.639V155.944C334.567 156.379 334.674 156.781 334.889 157.151C335.104 157.521 335.397 157.814 335.767 158.029C336.137 158.244 336.539 158.351 336.974 158.351ZM345.155 153.566C344.665 153.566 344.212 153.446 343.797 153.206C343.387 152.966 343.06 152.639 342.815 152.224C342.575 151.809 342.455 151.356 342.455 150.866C342.455 150.386 342.577 149.939 342.822 149.524C343.072 149.109 343.405 148.779 343.82 148.534C344.235 148.289 344.68 148.166 345.155 148.166C345.645 148.166 346.095 148.286 346.505 148.526C346.92 148.766 347.247 149.094 347.487 149.509C347.732 149.924 347.855 150.376 347.855 150.866C347.855 151.356 347.732 151.809 347.487 152.224C347.247 152.639 346.92 152.966 346.505 153.206C346.095 153.446 345.645 153.566 345.155 153.566ZM353.727 149.134L343.655 159.191L342.905 158.441L352.977 148.391L353.727 149.134ZM345.155 152.569C345.455 152.569 345.735 152.491 345.995 152.336C346.26 152.181 346.47 151.974 346.625 151.714C346.78 151.449 346.857 151.166 346.857 150.866C346.857 150.566 346.78 150.286 346.625 150.026C346.47 149.761 346.26 149.551 345.995 149.396C345.735 149.241 345.455 149.164 345.155 149.164C344.855 149.164 344.572 149.241 344.307 149.396C344.047 149.551 343.84 149.761 343.685 150.026C343.53 150.286 343.452 150.566 343.452 150.866C343.452 151.166 343.53 151.449 343.685 151.714C343.84 151.974 344.047 152.181 344.307 152.336C344.572 152.491 344.855 152.569 345.155 152.569ZM351.477 159.416C350.987 159.416 350.535 159.296 350.12 159.056C349.71 158.816 349.382 158.489 349.137 158.074C348.897 157.659 348.777 157.206 348.777 156.716C348.777 156.236 348.9 155.789 349.145 155.374C349.395 154.959 349.727 154.629 350.142 154.384C350.557 154.139 351.002 154.016 351.477 154.016C351.967 154.016 352.417 154.136 352.827 154.376C353.242 154.616 353.57 154.944 353.81 155.359C354.055 155.774 354.177 156.226 354.177 156.716C354.177 157.206 354.055 157.659 353.81 158.074C353.57 158.489 353.242 158.816 352.827 159.056C352.417 159.296 351.967 159.416 351.477 159.416ZM351.477 158.419C351.777 158.419 352.057 158.341 352.317 158.186C352.582 158.031 352.792 157.824 352.947 157.564C353.102 157.299 353.18 157.016 353.18 156.716C353.18 156.416 353.102 156.136 352.947 155.876C352.792 155.611 352.582 155.401 352.317 155.246C352.057 155.091 351.777 155.014 351.477 155.014C351.172 155.014 350.887 155.091 350.622 155.246C350.362 155.401 350.155 155.611 350 155.876C349.845 156.136 349.767 156.416 349.767 156.716C349.767 157.016 349.845 157.299 350 157.564C350.155 157.824 350.362 158.031 350.622 158.186C350.887 158.341 351.172 158.419 351.477 158.419Z" fill="#100F0F"/>
<path d="M448.108 159.191H447.05V148.391H448.063L452.308 157.474L456.53 148.391H457.558V159.184H456.508V150.851L452.66 159.191H451.948L448.108 150.851V159.191ZM460.39 155.449C460.435 156.379 460.687 157.096 461.147 157.601C461.607 158.106 462.24 158.359 463.045 158.359C463.62 158.359 464.125 158.226 464.56 157.961C464.995 157.691 465.337 157.304 465.587 156.799L466.615 157.196C466.295 157.901 465.825 158.449 465.205 158.839C464.585 159.224 463.88 159.416 463.09 159.416C462.31 159.416 461.627 159.241 461.042 158.891C460.457 158.541 460.005 158.049 459.685 157.414C459.37 156.774 459.212 156.029 459.212 155.179C459.212 154.304 459.367 153.541 459.677 152.891C459.992 152.241 460.437 151.741 461.012 151.391C461.592 151.041 462.27 150.866 463.045 150.866C463.82 150.866 464.485 151.041 465.04 151.391C465.6 151.736 466.027 152.236 466.322 152.891C466.622 153.541 466.772 154.316 466.772 155.216V155.449H460.39ZM463.075 151.879C462.3 151.879 461.682 152.106 461.222 152.561C460.767 153.016 460.497 153.671 460.412 154.526H465.617C465.537 153.651 465.282 152.991 464.852 152.546C464.422 152.101 463.83 151.879 463.075 151.879ZM474.114 148.391H475.224V159.191H474.234V158.059C473.934 158.489 473.559 158.824 473.109 159.064C472.664 159.299 472.154 159.416 471.579 159.416C470.839 159.416 470.197 159.231 469.652 158.861C469.112 158.491 468.699 157.981 468.414 157.331C468.129 156.681 467.987 155.949 467.987 155.134C467.987 154.324 468.129 153.596 468.414 152.951C468.699 152.301 469.109 151.791 469.644 151.421C470.184 151.051 470.814 150.866 471.534 150.866C472.084 150.866 472.574 150.969 473.004 151.174C473.439 151.379 473.809 151.669 474.114 152.044V148.391ZM471.692 158.389C472.252 158.389 472.722 158.251 473.102 157.976C473.482 157.696 473.764 157.314 473.949 156.829C474.139 156.339 474.234 155.774 474.234 155.134C474.234 154.489 474.139 153.924 473.949 153.439C473.764 152.949 473.482 152.569 473.102 152.299C472.727 152.029 472.264 151.894 471.714 151.894C471.154 151.894 470.682 152.034 470.297 152.314C469.912 152.594 469.624 152.979 469.434 153.469C469.249 153.954 469.157 154.509 469.157 155.134C469.157 155.759 469.252 156.319 469.442 156.814C469.637 157.304 469.924 157.689 470.304 157.969C470.684 158.249 471.147 158.389 471.692 158.389ZM478.581 159.191H477.478V151.091H478.581V159.191ZM478.026 149.696C477.811 149.696 477.628 149.624 477.478 149.479C477.333 149.334 477.261 149.154 477.261 148.939C477.261 148.719 477.333 148.536 477.478 148.391C477.628 148.246 477.811 148.174 478.026 148.174C478.246 148.174 478.428 148.249 478.573 148.399C478.723 148.544 478.798 148.724 478.798 148.939C478.798 149.154 478.723 149.334 478.573 149.479C478.428 149.624 478.246 149.696 478.026 149.696ZM486.537 151.091H487.639V159.191H486.649V158.066C486.349 158.501 485.967 158.831 485.502 159.056C485.037 159.281 484.512 159.394 483.927 159.394C483.162 159.394 482.537 159.209 482.052 158.839C481.567 158.469 481.217 157.994 481.002 157.414C480.787 156.829 480.679 156.206 480.679 155.546V151.091H481.789V155.224C481.789 156.179 481.979 156.939 482.359 157.504C482.739 158.064 483.332 158.344 484.137 158.344C484.907 158.344 485.499 158.086 485.914 157.571C486.329 157.056 486.537 156.336 486.537 155.411V151.091ZM497.813 150.874C498.353 150.874 498.826 150.989 499.231 151.219C499.641 151.444 499.956 151.766 500.176 152.186C500.396 152.606 500.506 153.099 500.506 153.664L500.498 159.191H499.396L499.403 153.874C499.403 153.464 499.323 153.109 499.163 152.809C499.008 152.504 498.791 152.271 498.511 152.111C498.231 151.946 497.913 151.864 497.558 151.864C497.228 151.864 496.921 151.939 496.636 152.089C496.351 152.234 496.118 152.464 495.938 152.779C495.758 153.094 495.668 153.489 495.668 153.964L495.661 159.191H494.573L494.581 153.949C494.581 153.524 494.503 153.154 494.348 152.839C494.193 152.524 493.973 152.284 493.688 152.119C493.408 151.949 493.083 151.864 492.713 151.864C492.343 151.864 492.016 151.951 491.731 152.126C491.446 152.296 491.226 152.541 491.071 152.861C490.916 153.176 490.838 153.544 490.838 153.964V159.191H489.728V151.091H490.718V151.946C490.973 151.611 491.298 151.349 491.693 151.159C492.088 150.969 492.523 150.874 492.998 150.874C493.533 150.874 494.006 150.991 494.416 151.226C494.831 151.461 495.146 151.799 495.361 152.239C495.596 151.809 495.928 151.474 496.358 151.234C496.788 150.994 497.273 150.874 497.813 150.874Z" fill="#100F0F"/>
<path d="M575.465 170.191V152.003H578.211V167.835H586.451V170.191H575.465ZM594.056 170.472C592.778 170.472 591.66 170.179 590.699 169.593C589.747 169.007 589.007 168.185 588.478 167.127C587.957 166.069 587.696 164.841 587.696 163.441C587.696 162.025 587.957 160.788 588.478 159.73C589.007 158.664 589.747 157.838 590.699 157.252C591.66 156.666 592.778 156.373 594.056 156.373C595.342 156.373 596.461 156.666 597.413 157.252C598.365 157.838 599.106 158.664 599.635 159.73C600.164 160.788 600.428 162.025 600.428 163.441C600.428 164.841 600.164 166.069 599.635 167.127C599.106 168.185 598.365 169.007 597.413 169.593C596.461 170.179 595.342 170.472 594.056 170.472ZM594.056 168.238C594.894 168.238 595.586 168.019 596.131 167.579C596.677 167.14 597.079 166.558 597.34 165.833C597.608 165.101 597.743 164.304 597.743 163.441C597.743 162.562 597.608 161.756 597.34 161.024C597.079 160.292 596.677 159.706 596.131 159.266C595.586 158.827 594.894 158.607 594.056 158.607C593.226 158.607 592.538 158.827 591.993 159.266C591.456 159.706 591.053 160.292 590.785 161.024C590.516 161.756 590.382 162.562 590.382 163.441C590.382 164.304 590.516 165.101 590.785 165.833C591.053 166.558 591.456 167.14 591.993 167.579C592.538 168.019 593.226 168.238 594.056 168.238ZM602.345 170.191V156.544H604.896V158.729H605.042C605.295 157.997 605.734 157.419 606.361 156.996C606.996 156.564 607.712 156.349 608.509 156.349C608.672 156.349 608.863 156.357 609.083 156.373C609.311 156.381 609.494 156.393 609.632 156.41V158.949C609.527 158.916 609.335 158.884 609.059 158.851C608.79 158.819 608.517 158.802 608.241 158.802C607.614 158.802 607.053 158.937 606.556 159.205C606.068 159.465 605.681 159.828 605.396 160.292C605.12 160.747 604.981 161.276 604.981 161.878V170.191H602.345ZM616.297 170.472C614.963 170.472 613.807 170.183 612.831 169.605C611.854 169.028 611.101 168.214 610.572 167.164C610.051 166.106 609.791 164.873 609.791 163.465C609.791 162.066 610.047 160.833 610.56 159.767C611.081 158.701 611.809 157.87 612.745 157.276C613.689 156.674 614.796 156.373 616.065 156.373C616.839 156.373 617.587 156.499 618.312 156.751C619.036 157.004 619.687 157.403 620.265 157.948C620.842 158.493 621.298 159.201 621.632 160.072C621.974 160.943 622.145 161.992 622.145 163.221V164.173H611.292V162.184H620.777L619.544 162.843C619.544 162.005 619.414 161.264 619.154 160.621C618.893 159.978 618.503 159.478 617.982 159.12C617.469 158.753 616.83 158.57 616.065 158.57C615.3 158.57 614.645 158.753 614.1 159.12C613.563 159.486 613.152 159.97 612.867 160.572C612.582 161.174 612.44 161.834 612.44 162.55V163.905C612.44 164.841 612.603 165.634 612.928 166.285C613.254 166.936 613.705 167.433 614.283 167.774C614.869 168.116 615.549 168.287 616.322 168.287C616.826 168.287 617.282 168.214 617.689 168.067C618.104 167.921 618.462 167.701 618.763 167.408C619.064 167.115 619.292 166.753 619.447 166.322L621.961 166.798C621.758 167.53 621.4 168.173 620.887 168.727C620.375 169.28 619.728 169.711 618.946 170.021C618.173 170.322 617.29 170.472 616.297 170.472ZM624 170.191V156.544H626.527V158.79H626.71C626.995 158.033 627.459 157.443 628.102 157.02C628.753 156.589 629.526 156.373 630.421 156.373C631.332 156.373 632.093 156.589 632.704 157.02C633.322 157.443 633.782 158.033 634.083 158.79H634.229C634.555 158.049 635.072 157.464 635.78 157.032C636.488 156.593 637.33 156.373 638.307 156.373C639.544 156.373 640.557 156.764 641.346 157.545C642.136 158.318 642.53 159.486 642.53 161.048V170.191H639.869V161.292C639.869 160.365 639.617 159.697 639.112 159.291C638.608 158.875 638.006 158.668 637.306 158.668C636.443 158.668 635.772 158.937 635.292 159.474C634.819 160.003 634.583 160.674 634.583 161.488V170.191H631.922V161.122C631.922 160.381 631.694 159.787 631.239 159.339C630.783 158.892 630.185 158.668 629.444 158.668C628.94 158.668 628.472 158.802 628.041 159.071C627.617 159.331 627.276 159.697 627.015 160.169C626.763 160.633 626.637 161.17 626.637 161.781V170.191H624ZM653.578 152.003V170.191H650.831V152.003H653.578ZM656.324 175.294V156.544H658.888V158.766H659.107C659.27 158.481 659.494 158.151 659.779 157.777C660.072 157.403 660.479 157.077 661 156.8C661.52 156.515 662.2 156.373 663.038 156.373C664.137 156.373 665.113 156.65 665.968 157.203C666.83 157.757 667.51 158.558 668.006 159.608C668.503 160.658 668.751 161.923 668.751 163.404C668.751 164.869 668.507 166.131 668.019 167.188C667.53 168.238 666.855 169.048 665.992 169.618C665.138 170.179 664.157 170.46 663.05 170.46C662.228 170.46 661.553 170.322 661.024 170.045C660.503 169.76 660.092 169.431 659.791 169.056C659.498 168.682 659.27 168.352 659.107 168.067H658.961V175.294H656.324ZM662.477 168.202C663.266 168.202 663.925 167.99 664.454 167.567C664.983 167.144 665.382 166.57 665.65 165.846C665.927 165.113 666.065 164.291 666.065 163.38C666.065 162.477 665.931 161.667 665.663 160.951C665.394 160.235 664.995 159.669 664.466 159.254C663.937 158.839 663.274 158.631 662.477 158.631C661.703 158.631 661.052 158.831 660.523 159.229C659.994 159.62 659.592 160.174 659.315 160.89C659.046 161.598 658.912 162.428 658.912 163.38C658.912 164.332 659.05 165.17 659.327 165.895C659.604 166.619 660.007 167.184 660.536 167.591C661.073 167.998 661.72 168.202 662.477 168.202ZM680.885 159.889L678.48 160.304C678.325 159.848 678.036 159.429 677.613 159.046C677.198 158.664 676.576 158.473 675.746 158.473C674.997 158.473 674.37 158.644 673.866 158.985C673.369 159.319 673.121 159.746 673.121 160.267C673.121 160.723 673.288 161.093 673.622 161.378C673.963 161.663 674.505 161.891 675.245 162.062L677.43 162.55C678.675 162.835 679.607 163.282 680.226 163.893C680.844 164.503 681.153 165.284 681.153 166.236C681.153 167.058 680.917 167.791 680.445 168.434C679.973 169.068 679.318 169.569 678.48 169.935C677.642 170.293 676.673 170.472 675.575 170.472C674.045 170.472 672.8 170.143 671.839 169.483C670.879 168.824 670.289 167.896 670.069 166.7L672.621 166.31C672.783 166.977 673.113 167.481 673.609 167.823C674.114 168.165 674.765 168.336 675.562 168.336C676.425 168.336 677.117 168.153 677.638 167.787C678.167 167.42 678.431 166.977 678.431 166.456C678.431 165.593 677.788 165.012 676.502 164.71L674.195 164.198C672.918 163.905 671.974 163.445 671.363 162.818C670.761 162.184 670.46 161.386 670.46 160.426C670.46 159.62 670.684 158.912 671.131 158.302C671.587 157.691 672.21 157.219 672.999 156.886C673.797 156.544 674.704 156.373 675.721 156.373C677.202 156.373 678.362 156.694 679.2 157.337C680.047 157.98 680.608 158.831 680.885 159.889ZM691.651 164.552V156.544H694.288V170.191H691.7V167.823H691.554C691.228 168.548 690.724 169.154 690.04 169.642C689.356 170.13 688.502 170.37 687.477 170.362C686.598 170.362 685.82 170.171 685.145 169.789C684.478 169.406 683.953 168.832 683.57 168.067C683.196 167.302 683.009 166.354 683.009 165.223V156.544H685.646V164.918C685.646 165.838 685.906 166.574 686.427 167.127C686.948 167.681 687.619 167.953 688.441 167.945C688.937 167.945 689.43 167.823 689.918 167.579C690.414 167.335 690.825 166.961 691.151 166.456C691.485 165.951 691.651 165.317 691.651 164.552ZM696.827 170.191V156.544H699.354V158.79H699.537C699.822 158.033 700.286 157.443 700.929 157.02C701.58 156.589 702.353 156.373 703.248 156.373C704.16 156.373 704.92 156.589 705.531 157.02C706.149 157.443 706.609 158.033 706.91 158.79H707.057C707.382 158.049 707.899 157.464 708.607 157.032C709.315 156.593 710.157 156.373 711.134 156.373C712.371 156.373 713.384 156.764 714.173 157.545C714.963 158.318 715.357 159.486 715.357 161.048V170.191H712.696V161.292C712.696 160.365 712.444 159.697 711.939 159.291C711.435 158.875 710.833 158.668 710.133 158.668C709.27 158.668 708.599 158.937 708.119 159.474C707.647 160.003 707.411 160.674 707.411 161.488V170.191H704.75V161.122C704.75 160.381 704.522 159.787 704.066 159.339C703.61 158.892 703.012 158.668 702.271 158.668C701.767 158.668 701.299 158.802 700.868 159.071C700.444 159.331 700.103 159.697 699.842 160.169C699.59 160.633 699.464 161.17 699.464 161.781V170.191H696.827Z" fill="#100F0F"/>
<rect width="918" height="56" transform="translate(0 0.191406)" fill="#F2F2F2"/>
<path d="M21.49 34.4164C20.435 34.4164 19.5275 34.1814 18.7675 33.7114C18.0125 33.2414 17.4375 32.5839 17.0425 31.7389C16.6475 30.8889 16.45 29.9064 16.45 28.7914C16.45 27.6764 16.6475 26.6964 17.0425 25.8514C17.4375 25.0014 18.0125 24.3414 18.7675 23.8714C19.5275 23.4014 20.435 23.1664 21.49 23.1664C22.31 23.1664 23.04 23.3089 23.68 23.5939C24.32 23.8789 24.855 24.2839 25.285 24.8089C25.72 25.3339 26.04 25.9589 26.245 26.6839L24.8875 27.0439C24.6625 26.2189 24.2625 25.5789 23.6875 25.1239C23.1125 24.6689 22.38 24.4414 21.49 24.4414C20.705 24.4414 20.04 24.6214 19.495 24.9814C18.955 25.3414 18.5475 25.8464 18.2725 26.4964C18.0025 27.1464 17.865 27.9114 17.86 28.7914C17.855 29.6614 17.99 30.4239 18.265 31.0789C18.54 31.7289 18.9475 32.2364 19.4875 32.6014C20.0325 32.9614 20.7 33.1414 21.49 33.1414C22.38 33.1414 23.1125 32.9139 23.6875 32.4589C24.2625 31.9989 24.6625 31.3589 24.8875 30.5389L26.245 30.8989C26.04 31.6189 25.72 32.2439 25.285 32.7739C24.855 33.2989 24.32 33.7039 23.68 33.9889C23.04 34.2739 22.31 34.4164 21.49 34.4164ZM28.0398 34.1914V23.1664H29.3748V34.1914H28.0398ZM33.9277 34.4164C33.3477 34.4164 32.8502 34.3089 32.4352 34.0939C32.0202 33.8739 31.7052 33.5814 31.4902 33.2164C31.2802 32.8514 31.1752 32.4464 31.1752 32.0014C31.1752 31.3764 31.3452 30.8689 31.6852 30.4789C32.0302 30.0889 32.5227 29.8039 33.1627 29.6239C33.5677 29.5089 34.0177 29.4139 34.5127 29.3389C35.0077 29.2589 35.6902 29.1614 36.5602 29.0464C36.6902 29.0264 36.8152 29.0089 36.9352 28.9939C37.0602 28.9789 37.1752 28.9639 37.2802 28.9489L36.8002 29.2264C36.8102 28.7364 36.7502 28.3364 36.6202 28.0264C36.4902 27.7164 36.2777 27.4864 35.9827 27.3364C35.6877 27.1864 35.2952 27.1114 34.8052 27.1114C34.2952 27.1114 33.8577 27.2264 33.4927 27.4564C33.1327 27.6864 32.8827 28.0439 32.7427 28.5289L31.4752 28.1464C31.6702 27.4214 32.0502 26.8614 32.6152 26.4664C33.1852 26.0664 33.9202 25.8664 34.8202 25.8664C35.5702 25.8664 36.2052 26.0014 36.7252 26.2714C37.2502 26.5364 37.6252 26.9289 37.8502 27.4489C37.9552 27.6789 38.0252 27.9339 38.0602 28.2139C38.0952 28.4939 38.1127 28.8164 38.1127 29.1814V34.1914H36.9277V32.2489L37.2052 32.4289C37.0002 32.8639 36.7402 33.2314 36.4252 33.5314C36.1152 33.8264 35.7502 34.0464 35.3302 34.1914C34.9152 34.3414 34.4477 34.4164 33.9277 34.4164ZM34.1302 33.2989C34.5952 33.2989 35.0052 33.2164 35.3602 33.0514C35.7152 32.8814 36.0002 32.6564 36.2152 32.3764C36.4352 32.0914 36.5802 31.7764 36.6502 31.4314C36.7102 31.2414 36.7477 31.0339 36.7627 30.8089C36.7777 30.5789 36.7852 30.3189 36.7852 30.0289V29.8864L37.2502 30.0889L36.6952 30.1639C35.9852 30.2539 35.4052 30.3339 34.9552 30.4039C34.5052 30.4739 34.1077 30.5589 33.7627 30.6589C33.3827 30.7739 33.0777 30.9364 32.8477 31.1464C32.6177 31.3564 32.5027 31.6389 32.5027 31.9939C32.5027 32.2289 32.5602 32.4464 32.6752 32.6464C32.7902 32.8414 32.9702 32.9989 33.2152 33.1189C33.4602 33.2389 33.7652 33.2989 34.1302 33.2989ZM43.1227 34.4089C42.4827 34.4089 41.9152 34.3139 41.4202 34.1239C40.9252 33.9339 40.5227 33.6589 40.2127 33.2989C39.9077 32.9389 39.7077 32.5064 39.6127 32.0014L40.9777 31.7839C41.0527 32.0789 41.1902 32.3339 41.3902 32.5489C41.5952 32.7639 41.8527 32.9289 42.1627 33.0439C42.4727 33.1589 42.8202 33.2164 43.2052 33.2164C43.5702 33.2164 43.8852 33.1639 44.1502 33.0589C44.4202 32.9539 44.6252 32.8064 44.7652 32.6164C44.9102 32.4214 44.9827 32.1939 44.9827 31.9339C44.9827 31.6939 44.9277 31.5064 44.8177 31.3714C44.7127 31.2314 44.5052 31.1014 44.1952 30.9814C43.8902 30.8614 43.3902 30.7089 42.6952 30.5239C41.9702 30.3289 41.4052 30.1314 41.0002 29.9314C40.5952 29.7264 40.3052 29.4914 40.1302 29.2264C39.9552 28.9614 39.8677 28.6314 39.8677 28.2364C39.8677 27.7664 39.9977 27.3514 40.2577 26.9914C40.5177 26.6314 40.8827 26.3539 41.3527 26.1589C41.8227 25.9639 42.3652 25.8664 42.9802 25.8664C43.5902 25.8664 44.1377 25.9639 44.6227 26.1589C45.1127 26.3539 45.5052 26.6314 45.8002 26.9914C46.1002 27.3514 46.2777 27.7664 46.3327 28.2364L44.9677 28.4839C44.9227 28.1989 44.8127 27.9514 44.6377 27.7414C44.4627 27.5264 44.2327 27.3614 43.9477 27.2464C43.6677 27.1314 43.3452 27.0689 42.9802 27.0589C42.6352 27.0489 42.3277 27.0889 42.0577 27.1789C41.7927 27.2689 41.5852 27.3989 41.4352 27.5689C41.2852 27.7389 41.2102 27.9389 41.2102 28.1689C41.2102 28.3689 41.2727 28.5389 41.3977 28.6789C41.5227 28.8139 41.7452 28.9439 42.0652 29.0689C42.3852 29.1889 42.8727 29.3314 43.5277 29.4964C44.2527 29.6814 44.8177 29.8789 45.2227 30.0889C45.6277 30.2989 45.9177 30.5464 46.0927 30.8314C46.2727 31.1164 46.3627 31.4714 46.3627 31.8964C46.3627 32.4114 46.2327 32.8589 45.9727 33.2389C45.7177 33.6189 45.3452 33.9089 44.8552 34.1089C44.3702 34.3089 43.7927 34.4089 43.1227 34.4089ZM51.0768 34.4089C50.4368 34.4089 49.8693 34.3139 49.3743 34.1239C48.8793 33.9339 48.4768 33.6589 48.1668 33.2989C47.8618 32.9389 47.6618 32.5064 47.5668 32.0014L48.9318 31.7839C49.0068 32.0789 49.1443 32.3339 49.3443 32.5489C49.5493 32.7639 49.8068 32.9289 50.1168 33.0439C50.4268 33.1589 50.7743 33.2164 51.1593 33.2164C51.5243 33.2164 51.8393 33.1639 52.1043 33.0589C52.3743 32.9539 52.5793 32.8064 52.7193 32.6164C52.8643 32.4214 52.9368 32.1939 52.9368 31.9339C52.9368 31.6939 52.8818 31.5064 52.7718 31.3714C52.6668 31.2314 52.4593 31.1014 52.1493 30.9814C51.8443 30.8614 51.3443 30.7089 50.6493 30.5239C49.9243 30.3289 49.3593 30.1314 48.9543 29.9314C48.5493 29.7264 48.2593 29.4914 48.0843 29.2264C47.9093 28.9614 47.8218 28.6314 47.8218 28.2364C47.8218 27.7664 47.9518 27.3514 48.2118 26.9914C48.4718 26.6314 48.8368 26.3539 49.3068 26.1589C49.7768 25.9639 50.3193 25.8664 50.9343 25.8664C51.5443 25.8664 52.0918 25.9639 52.5768 26.1589C53.0668 26.3539 53.4593 26.6314 53.7543 26.9914C54.0543 27.3514 54.2318 27.7664 54.2868 28.2364L52.9218 28.4839C52.8768 28.1989 52.7668 27.9514 52.5918 27.7414C52.4168 27.5264 52.1868 27.3614 51.9018 27.2464C51.6218 27.1314 51.2993 27.0689 50.9343 27.0589C50.5893 27.0489 50.2818 27.0889 50.0118 27.1789C49.7468 27.2689 49.5393 27.3989 49.3893 27.5689C49.2393 27.7389 49.1643 27.9389 49.1643 28.1689C49.1643 28.3689 49.2268 28.5389 49.3518 28.6789C49.4768 28.8139 49.6993 28.9439 50.0193 29.0689C50.3393 29.1889 50.8268 29.3314 51.4818 29.4964C52.2068 29.6814 52.7718 29.8789 53.1768 30.0889C53.5818 30.2989 53.8718 30.5464 54.0468 30.8314C54.2268 31.1164 54.3168 31.4714 54.3168 31.8964C54.3168 32.4114 54.1868 32.8589 53.9268 33.2389C53.6718 33.6189 53.2993 33.9089 52.8093 34.1089C52.3243 34.3089 51.7468 34.4089 51.0768 34.4089Z" fill="#4200FF"/>
<path d="M189.05 34.1914V23.3914H193.318C193.603 23.3914 193.868 23.4114 194.113 23.4514C194.683 23.5364 195.168 23.7339 195.568 24.0439C195.968 24.3539 196.27 24.7464 196.475 25.2214C196.68 25.6914 196.783 26.2164 196.783 26.7964C196.783 27.3764 196.68 27.9014 196.475 28.3714C196.27 28.8414 195.968 29.2314 195.568 29.5414C195.168 29.8514 194.683 30.0514 194.113 30.1414C193.868 30.1814 193.603 30.2014 193.318 30.2014H190.385V34.1914H189.05ZM193.273 28.9339C193.528 28.9339 193.753 28.9114 193.948 28.8664C194.278 28.7914 194.553 28.6489 194.773 28.4389C194.993 28.2289 195.155 27.9814 195.26 27.6964C195.365 27.4114 195.418 27.1114 195.418 26.7964C195.418 26.4814 195.365 26.1814 195.26 25.8964C195.155 25.6064 194.993 25.3589 194.773 25.1539C194.553 24.9439 194.278 24.8014 193.948 24.7264C193.753 24.6814 193.528 24.6589 193.273 24.6589H190.385V28.9339H193.273ZM200.581 34.4164C200.001 34.4164 199.504 34.3089 199.089 34.0939C198.674 33.8739 198.359 33.5814 198.144 33.2164C197.934 32.8514 197.829 32.4464 197.829 32.0014C197.829 31.3764 197.999 30.8689 198.339 30.4789C198.684 30.0889 199.176 29.8039 199.816 29.6239C200.221 29.5089 200.671 29.4139 201.166 29.3389C201.661 29.2589 202.344 29.1614 203.214 29.0464C203.344 29.0264 203.469 29.0089 203.589 28.9939C203.714 28.9789 203.829 28.9639 203.934 28.9489L203.454 29.2264C203.464 28.7364 203.404 28.3364 203.274 28.0264C203.144 27.7164 202.931 27.4864 202.636 27.3364C202.341 27.1864 201.949 27.1114 201.459 27.1114C200.949 27.1114 200.511 27.2264 200.146 27.4564C199.786 27.6864 199.536 28.0439 199.396 28.5289L198.129 28.1464C198.324 27.4214 198.704 26.8614 199.269 26.4664C199.839 26.0664 200.574 25.8664 201.474 25.8664C202.224 25.8664 202.859 26.0014 203.379 26.2714C203.904 26.5364 204.279 26.9289 204.504 27.4489C204.609 27.6789 204.679 27.9339 204.714 28.2139C204.749 28.4939 204.766 28.8164 204.766 29.1814V34.1914H203.581V32.2489L203.859 32.4289C203.654 32.8639 203.394 33.2314 203.079 33.5314C202.769 33.8264 202.404 34.0464 201.984 34.1914C201.569 34.3414 201.101 34.4164 200.581 34.4164ZM200.784 33.2989C201.249 33.2989 201.659 33.2164 202.014 33.0514C202.369 32.8814 202.654 32.6564 202.869 32.3764C203.089 32.0914 203.234 31.7764 203.304 31.4314C203.364 31.2414 203.401 31.0339 203.416 30.8089C203.431 30.5789 203.439 30.3189 203.439 30.0289V29.8864L203.904 30.0889L203.349 30.1639C202.639 30.2539 202.059 30.3339 201.609 30.4039C201.159 30.4739 200.761 30.5589 200.416 30.6589C200.036 30.7739 199.731 30.9364 199.501 31.1464C199.271 31.3564 199.156 31.6389 199.156 31.9939C199.156 32.2289 199.214 32.4464 199.329 32.6464C199.444 32.8414 199.624 32.9989 199.869 33.1189C200.114 33.2389 200.419 33.2989 200.784 33.2989ZM209.619 34.4164C208.824 34.4164 208.116 34.2464 207.496 33.9064C206.881 33.5614 206.396 33.0789 206.041 32.4589L207.106 31.7689C207.406 32.2189 207.761 32.5614 208.171 32.7964C208.581 33.0314 209.046 33.1489 209.566 33.1489C209.931 33.1489 210.249 33.0939 210.519 32.9839C210.789 32.8689 210.996 32.7064 211.141 32.4964C211.291 32.2814 211.366 32.0314 211.366 31.7464C211.366 31.4614 211.304 31.2364 211.179 31.0714C211.054 30.9064 210.874 30.7864 210.639 30.7114C210.409 30.6314 210.104 30.5839 209.724 30.5689C209.669 30.5639 209.609 30.5614 209.544 30.5614C209.484 30.5614 209.424 30.5614 209.364 30.5614H208.524V29.4589H209.356C209.736 29.4589 210.054 29.4214 210.309 29.3464C210.569 29.2714 210.771 29.1514 210.916 28.9864C211.061 28.8164 211.134 28.5989 211.134 28.3339C211.134 28.0639 211.064 27.8389 210.924 27.6589C210.789 27.4789 210.604 27.3464 210.369 27.2614C210.134 27.1714 209.869 27.1264 209.574 27.1264C209.144 27.1264 208.721 27.2164 208.306 27.3964C207.896 27.5764 207.536 27.8164 207.226 28.1164L206.416 27.2089C206.841 26.7739 207.326 26.4414 207.871 26.2114C208.421 25.9814 209.016 25.8664 209.656 25.8664C210.186 25.8664 210.666 25.9589 211.096 26.1439C211.531 26.3289 211.874 26.6014 212.124 26.9614C212.379 27.3164 212.506 27.7389 212.506 28.2289C212.506 28.6589 212.406 29.0439 212.206 29.3839C212.006 29.7189 211.711 30.0089 211.321 30.2539L211.269 29.7814C211.589 29.8614 211.856 30.0064 212.071 30.2164C212.291 30.4264 212.456 30.6764 212.566 30.9664C212.676 31.2564 212.731 31.5614 212.731 31.8814C212.731 32.3964 212.594 32.8464 212.319 33.2314C212.049 33.6114 211.676 33.9039 211.201 34.1089C210.731 34.3139 210.204 34.4164 209.619 34.4164ZM214.37 34.1914V26.0914H215.517L218.592 32.3764L221.667 26.0914H222.815V34.1914H221.525V28.8739L218.945 34.1914H218.24L215.66 28.8739V34.1914H214.37ZM228.419 34.4164C227.629 34.4164 226.934 34.2414 226.334 33.8914C225.739 33.5414 225.277 33.0464 224.947 32.4064C224.622 31.7664 224.459 31.0289 224.459 30.1939C224.459 29.3189 224.619 28.5564 224.939 27.9064C225.264 27.2514 225.719 26.7489 226.304 26.3989C226.894 26.0439 227.579 25.8664 228.359 25.8664C229.164 25.8664 229.854 26.0539 230.429 26.4289C231.009 26.7989 231.442 27.3339 231.727 28.0339C232.017 28.7339 232.142 29.5614 232.102 30.5164H230.752V30.0364C230.742 29.3714 230.649 28.8214 230.474 28.3864C230.299 27.9464 230.039 27.6164 229.694 27.3964C229.349 27.1764 228.919 27.0664 228.404 27.0664C227.859 27.0664 227.397 27.1864 227.017 27.4264C226.642 27.6614 226.357 28.0089 226.162 28.4689C225.972 28.9239 225.877 29.4814 225.877 30.1414C225.877 30.7764 225.972 31.3189 226.162 31.7689C226.357 32.2139 226.639 32.5564 227.009 32.7964C227.384 33.0314 227.834 33.1489 228.359 33.1489C228.889 33.1489 229.352 33.0264 229.747 32.7814C230.147 32.5364 230.459 32.1839 230.684 31.7239L231.967 32.1664C231.757 32.6364 231.474 33.0414 231.119 33.3814C230.764 33.7164 230.357 33.9739 229.897 34.1539C229.437 34.3289 228.944 34.4164 228.419 34.4164ZM225.427 30.5164V29.4439H231.412V30.5164H225.427ZM237.492 34.4164C236.757 34.4164 236.124 34.2314 235.594 33.8614C235.069 33.4864 234.669 32.9764 234.394 32.3314C234.124 31.6864 233.989 30.9539 233.989 30.1339C233.989 29.3089 234.124 28.5739 234.394 27.9289C234.664 27.2839 235.064 26.7789 235.594 26.4139C236.124 26.0489 236.759 25.8664 237.499 25.8664C238.234 25.8664 238.874 26.0514 239.419 26.4214C239.969 26.7864 240.389 27.2939 240.679 27.9439C240.974 28.5889 241.122 29.3189 241.122 30.1339C241.122 30.9439 240.974 31.6739 240.679 32.3239C240.389 32.9739 239.969 33.4864 239.419 33.8614C238.874 34.2314 238.232 34.4164 237.492 34.4164ZM233.764 37.7914V26.0914H234.957V32.0539H235.107V37.7914H233.764ZM237.327 33.1939C237.847 33.1939 238.284 33.0614 238.639 32.7964C238.994 32.5314 239.259 32.1689 239.434 31.7089C239.614 31.2439 239.704 30.7189 239.704 30.1339C239.704 29.5489 239.614 29.0264 239.434 28.5664C239.259 28.1064 238.992 27.7464 238.632 27.4864C238.272 27.2214 237.824 27.0889 237.289 27.0889C236.774 27.0889 236.342 27.2164 235.992 27.4714C235.647 27.7264 235.387 28.0814 235.212 28.5364C235.042 28.9914 234.957 29.5239 234.957 30.1339C234.957 30.7389 235.042 31.2714 235.212 31.7314C235.387 32.1914 235.652 32.5514 236.007 32.8114C236.362 33.0664 236.802 33.1939 237.327 33.1939Z" fill="#4200FF"/>
<path d="M320.2 34.1914V23.3914H321.535V32.9239H326.545V34.1914H320.2ZM327.964 34.1914V26.0914H329.299V34.1914H327.964ZM328.631 24.8389C328.466 24.8389 328.316 24.8014 328.181 24.7264C328.051 24.6464 327.949 24.5414 327.874 24.4114C327.799 24.2764 327.761 24.1289 327.761 23.9689C327.761 23.8089 327.799 23.6639 327.874 23.5339C327.949 23.3989 328.051 23.2939 328.181 23.2189C328.316 23.1389 328.466 23.0989 328.631 23.0989C328.796 23.0989 328.944 23.1389 329.074 23.2189C329.209 23.2939 329.314 23.3989 329.389 23.5339C329.469 23.6639 329.509 23.8089 329.509 23.9689C329.509 24.1289 329.469 24.2764 329.389 24.4114C329.314 24.5414 329.209 24.6464 329.074 24.7264C328.944 24.8014 328.796 24.8389 328.631 24.8389ZM337.317 30.1339C337.317 29.5489 337.249 29.0414 337.114 28.6114C336.984 28.1814 336.754 27.8314 336.424 27.5614C336.099 27.2864 335.664 27.1489 335.119 27.1489C334.659 27.1489 334.264 27.2514 333.934 27.4564C333.604 27.6564 333.347 27.9639 333.162 28.3789C332.982 28.7939 332.892 29.3089 332.892 29.9239L332.014 29.6539C332.014 28.8789 332.154 28.2089 332.434 27.6439C332.714 27.0739 333.112 26.6389 333.627 26.3389C334.142 26.0339 334.747 25.8814 335.442 25.8814C336.257 25.8814 336.904 26.0814 337.384 26.4814C337.864 26.8764 338.197 27.3539 338.382 27.9139C338.572 28.4739 338.667 29.0739 338.667 29.7139V34.1914H337.317V30.1339ZM331.542 34.1914V26.0914H332.742V28.2589H332.892V34.1914H331.542ZM344.053 34.4164C343.263 34.4164 342.568 34.2414 341.968 33.8914C341.373 33.5414 340.911 33.0464 340.581 32.4064C340.256 31.7664 340.093 31.0289 340.093 30.1939C340.093 29.3189 340.253 28.5564 340.573 27.9064C340.898 27.2514 341.353 26.7489 341.938 26.3989C342.528 26.0439 343.213 25.8664 343.993 25.8664C344.798 25.8664 345.488 26.0539 346.063 26.4289C346.643 26.7989 347.076 27.3339 347.361 28.0339C347.651 28.7339 347.776 29.5614 347.736 30.5164H346.386V30.0364C346.376 29.3714 346.283 28.8214 346.108 28.3864C345.933 27.9464 345.673 27.6164 345.328 27.3964C344.983 27.1764 344.553 27.0664 344.038 27.0664C343.493 27.0664 343.031 27.1864 342.651 27.4264C342.276 27.6614 341.991 28.0089 341.796 28.4689C341.606 28.9239 341.511 29.4814 341.511 30.1414C341.511 30.7764 341.606 31.3189 341.796 31.7689C341.991 32.2139 342.273 32.5564 342.643 32.7964C343.018 33.0314 343.468 33.1489 343.993 33.1489C344.523 33.1489 344.986 33.0264 345.381 32.7814C345.781 32.5364 346.093 32.1839 346.318 31.7239L347.601 32.1664C347.391 32.6364 347.108 33.0414 346.753 33.3814C346.398 33.7164 345.991 33.9739 345.531 34.1539C345.071 34.3289 344.578 34.4164 344.053 34.4164ZM341.061 30.5164V29.4439H347.046V30.5164H341.061ZM352.408 34.1914V23.3914H353.743V28.1539H359.428V23.3914H360.763V34.1914H359.428V29.4214H353.743V34.1914H352.408ZM366.377 34.4164C365.587 34.4164 364.892 34.2414 364.292 33.8914C363.697 33.5414 363.235 33.0464 362.905 32.4064C362.58 31.7664 362.417 31.0289 362.417 30.1939C362.417 29.3189 362.577 28.5564 362.897 27.9064C363.222 27.2514 363.677 26.7489 364.262 26.3989C364.852 26.0439 365.537 25.8664 366.317 25.8664C367.122 25.8664 367.812 26.0539 368.387 26.4289C368.967 26.7989 369.4 27.3339 369.685 28.0339C369.975 28.7339 370.1 29.5614 370.06 30.5164H368.71V30.0364C368.7 29.3714 368.607 28.8214 368.432 28.3864C368.257 27.9464 367.997 27.6164 367.652 27.3964C367.307 27.1764 366.877 27.0664 366.362 27.0664C365.817 27.0664 365.355 27.1864 364.975 27.4264C364.6 27.6614 364.315 28.0089 364.12 28.4689C363.93 28.9239 363.835 29.4814 363.835 30.1414C363.835 30.7764 363.93 31.3189 364.12 31.7689C364.315 32.2139 364.597 32.5564 364.967 32.7964C365.342 33.0314 365.792 33.1489 366.317 33.1489C366.847 33.1489 367.31 33.0264 367.705 32.7814C368.105 32.5364 368.417 32.1839 368.642 31.7239L369.925 32.1664C369.715 32.6364 369.432 33.0414 369.077 33.3814C368.722 33.7164 368.315 33.9739 367.855 34.1539C367.395 34.3289 366.902 34.4164 366.377 34.4164ZM363.385 30.5164V29.4439H369.37V30.5164H363.385ZM371.88 34.1914V26.0914H373.215V34.1914H371.88ZM372.547 24.8389C372.382 24.8389 372.232 24.8014 372.097 24.7264C371.967 24.6464 371.865 24.5414 371.79 24.4114C371.715 24.2764 371.677 24.1289 371.677 23.9689C371.677 23.8089 371.715 23.6639 371.79 23.5339C371.865 23.3989 371.967 23.2939 372.097 23.2189C372.232 23.1389 372.382 23.0989 372.547 23.0989C372.712 23.0989 372.86 23.1389 372.99 23.2189C373.125 23.2939 373.23 23.3989 373.305 23.5339C373.385 23.6639 373.425 23.8089 373.425 23.9689C373.425 24.1289 373.385 24.2764 373.305 24.4114C373.23 24.5414 373.125 24.6464 372.99 24.7264C372.86 24.8014 372.712 24.8389 372.547 24.8389ZM378.743 38.0164C378.078 38.0164 377.458 37.8639 376.883 37.5589C376.313 37.2589 375.865 36.8189 375.54 36.2389L376.763 35.5939C376.953 35.9689 377.225 36.2514 377.58 36.4414C377.94 36.6314 378.33 36.7264 378.75 36.7264C379.265 36.7264 379.69 36.6314 380.025 36.4414C380.365 36.2564 380.618 35.9814 380.783 35.6164C380.948 35.2514 381.028 34.7889 381.023 34.2289V32.0164H381.18V26.0914H382.365V34.2439C382.365 34.7339 382.333 35.1489 382.268 35.4889C382.113 36.3389 381.733 36.9714 381.128 37.3864C380.528 37.8064 379.733 38.0164 378.743 38.0164ZM378.645 34.4164C377.91 34.4164 377.268 34.2314 376.718 33.8614C376.168 33.4864 375.745 32.9739 375.45 32.3239C375.16 31.6739 375.015 30.9439 375.015 30.1339C375.015 29.3189 375.163 28.5889 375.458 27.9439C375.753 27.2939 376.173 26.7864 376.718 26.4214C377.268 26.0514 377.908 25.8664 378.638 25.8664C379.383 25.8664 380.018 26.0489 380.543 26.4139C381.073 26.7789 381.473 27.2839 381.743 27.9289C382.013 28.5739 382.148 29.3089 382.148 30.1339C382.148 30.9539 382.013 31.6864 381.743 32.3314C381.473 32.9764 381.073 33.4864 380.543 33.8614C380.018 34.2314 379.385 34.4164 378.645 34.4164ZM378.81 33.1939C379.34 33.1939 379.78 33.0664 380.13 32.8114C380.485 32.5514 380.748 32.1914 380.918 31.7314C381.093 31.2714 381.18 30.7389 381.18 30.1339C381.18 29.5239 381.095 28.9914 380.925 28.5364C380.755 28.0814 380.495 27.7264 380.145 27.4714C379.795 27.2164 379.363 27.0889 378.848 27.0889C378.318 27.0889 377.87 27.2214 377.505 27.4864C377.145 27.7464 376.875 28.1064 376.695 28.5664C376.52 29.0264 376.433 29.5489 376.433 30.1339C376.433 30.7189 376.52 31.2439 376.695 31.7089C376.875 32.1689 377.143 32.5314 377.498 32.7964C377.858 33.0614 378.295 33.1939 378.81 33.1939ZM390.227 30.1339C390.227 29.5489 390.159 29.0414 390.024 28.6114C389.894 28.1814 389.664 27.8314 389.334 27.5614C389.009 27.2864 388.574 27.1489 388.029 27.1489C387.569 27.1489 387.174 27.2514 386.844 27.4564C386.514 27.6564 386.257 27.9639 386.072 28.3789C385.892 28.7939 385.802 29.3089 385.802 29.9239L384.924 29.6539C384.924 28.8789 385.064 28.2089 385.344 27.6439C385.624 27.0739 386.022 26.6389 386.537 26.3389C387.052 26.0339 387.657 25.8814 388.352 25.8814C389.167 25.8814 389.814 26.0814 390.294 26.4814C390.774 26.8764 391.107 27.3539 391.292 27.9139C391.482 28.4739 391.577 29.0739 391.577 29.7139V34.1914H390.227V30.1339ZM384.452 34.1914V23.3914H385.652V29.3539H385.802V34.1914H384.452ZM398.049 34.1914C397.254 34.3514 396.537 34.3564 395.897 34.2064C395.262 34.0614 394.812 33.7314 394.547 33.2164C394.422 32.9614 394.342 32.7039 394.307 32.4439C394.277 32.1789 394.264 31.8264 394.269 31.3864V31.1314V23.8414H395.604V31.0714V31.3039C395.599 31.6289 395.604 31.8814 395.619 32.0614C395.639 32.2364 395.689 32.3914 395.769 32.5264C395.939 32.8314 396.209 33.0189 396.579 33.0889C396.949 33.1539 397.439 33.1389 398.049 33.0439V34.1914ZM392.627 27.1939V26.0914H398.049V27.1939H392.627Z" fill="#4200FF"/>
<path d="M447.05 34.1914V23.3914H448.385V28.1539H454.07V23.3914H455.405V34.1914H454.07V29.4214H448.385V34.1914H447.05ZM459.811 34.4164C459.231 34.4164 458.734 34.3089 458.319 34.0939C457.904 33.8739 457.589 33.5814 457.374 33.2164C457.164 32.8514 457.059 32.4464 457.059 32.0014C457.059 31.3764 457.229 30.8689 457.569 30.4789C457.914 30.0889 458.406 29.8039 459.046 29.6239C459.451 29.5089 459.901 29.4139 460.396 29.3389C460.891 29.2589 461.574 29.1614 462.444 29.0464C462.574 29.0264 462.699 29.0089 462.819 28.9939C462.944 28.9789 463.059 28.9639 463.164 28.9489L462.684 29.2264C462.694 28.7364 462.634 28.3364 462.504 28.0264C462.374 27.7164 462.161 27.4864 461.866 27.3364C461.571 27.1864 461.179 27.1114 460.689 27.1114C460.179 27.1114 459.741 27.2264 459.376 27.4564C459.016 27.6864 458.766 28.0439 458.626 28.5289L457.359 28.1464C457.554 27.4214 457.934 26.8614 458.499 26.4664C459.069 26.0664 459.804 25.8664 460.704 25.8664C461.454 25.8664 462.089 26.0014 462.609 26.2714C463.134 26.5364 463.509 26.9289 463.734 27.4489C463.839 27.6789 463.909 27.9339 463.944 28.2139C463.979 28.4939 463.996 28.8164 463.996 29.1814V34.1914H462.811V32.2489L463.089 32.4289C462.884 32.8639 462.624 33.2314 462.309 33.5314C461.999 33.8264 461.634 34.0464 461.214 34.1914C460.799 34.3414 460.331 34.4164 459.811 34.4164ZM460.014 33.2989C460.479 33.2989 460.889 33.2164 461.244 33.0514C461.599 32.8814 461.884 32.6564 462.099 32.3764C462.319 32.0914 462.464 31.7764 462.534 31.4314C462.594 31.2414 462.631 31.0339 462.646 30.8089C462.661 30.5789 462.669 30.3189 462.669 30.0289V29.8864L463.134 30.0889L462.579 30.1639C461.869 30.2539 461.289 30.3339 460.839 30.4039C460.389 30.4739 459.991 30.5589 459.646 30.6589C459.266 30.7739 458.961 30.9364 458.731 31.1464C458.501 31.3564 458.386 31.6389 458.386 31.9939C458.386 32.2289 458.444 32.4464 458.559 32.6464C458.674 32.8414 458.854 32.9989 459.099 33.1189C459.344 33.2389 459.649 33.2989 460.014 33.2989ZM470.821 31.2739C470.531 31.4189 470.194 31.5364 469.809 31.6264C469.429 31.7164 469.031 31.7614 468.616 31.7614C467.796 31.7614 467.131 31.5789 466.621 31.2139C466.111 30.8439 465.781 30.3089 465.631 29.6089C465.541 29.1939 465.496 28.6364 465.496 27.9364V26.0914H466.846V27.9364C466.846 28.4064 466.876 28.7914 466.936 29.0914C467.036 29.5914 467.246 29.9664 467.566 30.2164C467.886 30.4614 468.334 30.5839 468.909 30.5839C469.289 30.5839 469.644 30.5364 469.974 30.4414C470.304 30.3414 470.586 30.2064 470.821 30.0364V26.0914H472.164V34.1914H470.821V31.2739ZM477.777 34.4164C476.987 34.4164 476.292 34.2414 475.692 33.8914C475.097 33.5414 474.634 33.0464 474.304 32.4064C473.979 31.7664 473.817 31.0289 473.817 30.1939C473.817 29.3189 473.977 28.5564 474.297 27.9064C474.622 27.2514 475.077 26.7489 475.662 26.3989C476.252 26.0439 476.937 25.8664 477.717 25.8664C478.522 25.8664 479.212 26.0539 479.787 26.4289C480.367 26.7989 480.799 27.3339 481.084 28.0339C481.374 28.7339 481.499 29.5614 481.459 30.5164H480.109V30.0364C480.099 29.3714 480.007 28.8214 479.832 28.3864C479.657 27.9464 479.397 27.6164 479.052 27.3964C478.707 27.1764 478.277 27.0664 477.762 27.0664C477.217 27.0664 476.754 27.1864 476.374 27.4264C475.999 27.6614 475.714 28.0089 475.519 28.4689C475.329 28.9239 475.234 29.4814 475.234 30.1414C475.234 30.7764 475.329 31.3189 475.519 31.7689C475.714 32.2139 475.997 32.5564 476.367 32.7964C476.742 33.0314 477.192 33.1489 477.717 33.1489C478.247 33.1489 478.709 33.0264 479.104 32.7814C479.504 32.5364 479.817 32.1839 480.042 31.7239L481.324 32.1664C481.114 32.6364 480.832 33.0414 480.477 33.3814C480.122 33.7164 479.714 33.9739 479.254 34.1539C478.794 34.3289 478.302 34.4164 477.777 34.4164ZM474.784 30.5164V29.4439H480.769V30.5164H474.784ZM486.849 34.4164C486.114 34.4164 485.482 34.2314 484.952 33.8614C484.427 33.4864 484.027 32.9764 483.752 32.3314C483.482 31.6864 483.347 30.9539 483.347 30.1339C483.347 29.3089 483.482 28.5739 483.752 27.9289C484.022 27.2839 484.422 26.7789 484.952 26.4139C485.482 26.0489 486.117 25.8664 486.857 25.8664C487.592 25.8664 488.232 26.0514 488.777 26.4214C489.327 26.7864 489.747 27.2939 490.037 27.9439C490.332 28.5889 490.479 29.3189 490.479 30.1339C490.479 30.9439 490.332 31.6739 490.037 32.3239C489.747 32.9739 489.327 33.4864 488.777 33.8614C488.232 34.2314 487.589 34.4164 486.849 34.4164ZM483.122 37.7914V26.0914H484.314V32.0539H484.464V37.7914H483.122ZM486.684 33.1939C487.204 33.1939 487.642 33.0614 487.997 32.7964C488.352 32.5314 488.617 32.1689 488.792 31.7089C488.972 31.2439 489.062 30.7189 489.062 30.1339C489.062 29.5489 488.972 29.0264 488.792 28.5664C488.617 28.1064 488.349 27.7464 487.989 27.4864C487.629 27.2214 487.182 27.0889 486.647 27.0889C486.132 27.0889 485.699 27.2164 485.349 27.4714C485.004 27.7264 484.744 28.0814 484.569 28.5364C484.399 28.9914 484.314 29.5239 484.314 30.1339C484.314 30.7389 484.399 31.2714 484.569 31.7314C484.744 32.1914 485.009 32.5514 485.364 32.8114C485.719 33.0664 486.159 33.1939 486.684 33.1939ZM494.268 34.1914V27.3064H491.448V26.0914H498.423V27.3064H495.603V34.1914H494.268ZM501.882 34.4164C501.302 34.4164 500.804 34.3089 500.389 34.0939C499.974 33.8739 499.659 33.5814 499.444 33.2164C499.234 32.8514 499.129 32.4464 499.129 32.0014C499.129 31.3764 499.299 30.8689 499.639 30.4789C499.984 30.0889 500.477 29.8039 501.117 29.6239C501.522 29.5089 501.972 29.4139 502.467 29.3389C502.962 29.2589 503.644 29.1614 504.514 29.0464C504.644 29.0264 504.769 29.0089 504.889 28.9939C505.014 28.9789 505.129 28.9639 505.234 28.9489L504.754 29.2264C504.764 28.7364 504.704 28.3364 504.574 28.0264C504.444 27.7164 504.232 27.4864 503.937 27.3364C503.642 27.1864 503.249 27.1114 502.759 27.1114C502.249 27.1114 501.812 27.2264 501.447 27.4564C501.087 27.6864 500.837 28.0439 500.697 28.5289L499.429 28.1464C499.624 27.4214 500.004 26.8614 500.569 26.4664C501.139 26.0664 501.874 25.8664 502.774 25.8664C503.524 25.8664 504.159 26.0014 504.679 26.2714C505.204 26.5364 505.579 26.9289 505.804 27.4489C505.909 27.6789 505.979 27.9339 506.014 28.2139C506.049 28.4939 506.067 28.8164 506.067 29.1814V34.1914H504.882V32.2489L505.159 32.4289C504.954 32.8639 504.694 33.2314 504.379 33.5314C504.069 33.8264 503.704 34.0464 503.284 34.1914C502.869 34.3414 502.402 34.4164 501.882 34.4164ZM502.084 33.2989C502.549 33.2989 502.959 33.2164 503.314 33.0514C503.669 32.8814 503.954 32.6564 504.169 32.3764C504.389 32.0914 504.534 31.7764 504.604 31.4314C504.664 31.2414 504.702 31.0339 504.717 30.8089C504.732 30.5789 504.739 30.3189 504.739 30.0289V29.8864L505.204 30.0889L504.649 30.1639C503.939 30.2539 503.359 30.3339 502.909 30.4039C502.459 30.4739 502.062 30.5589 501.717 30.6589C501.337 30.7739 501.032 30.9364 500.802 31.1464C500.572 31.3564 500.457 31.6389 500.457 31.9939C500.457 32.2289 500.514 32.4464 500.629 32.6464C500.744 32.8414 500.924 32.9989 501.169 33.1189C501.414 33.2389 501.719 33.2989 502.084 33.2989ZM508.009 34.1914V26.0914H509.344V29.5039H513.604V26.0914H514.939V34.1914H513.604V30.7714H509.344V34.1914H508.009ZM523.67 26.0914V34.1914H522.38V28.2214L518.135 34.1914H517.033V26.0914H518.323V31.9789L522.575 26.0914H523.67ZM529.281 34.4164C528.491 34.4164 527.796 34.2414 527.196 33.8914C526.601 33.5414 526.138 33.0464 525.808 32.4064C525.483 31.7664 525.321 31.0289 525.321 30.1939C525.321 29.3189 525.481 28.5564 525.801 27.9064C526.126 27.2514 526.581 26.7489 527.166 26.3989C527.756 26.0439 528.441 25.8664 529.221 25.8664C530.026 25.8664 530.716 26.0539 531.291 26.4289C531.871 26.7989 532.303 27.3339 532.588 28.0339C532.878 28.7339 533.003 29.5614 532.963 30.5164H531.613V30.0364C531.603 29.3714 531.511 28.8214 531.336 28.3864C531.161 27.9464 530.901 27.6164 530.556 27.3964C530.211 27.1764 529.781 27.0664 529.266 27.0664C528.721 27.0664 528.258 27.1864 527.878 27.4264C527.503 27.6614 527.218 28.0089 527.023 28.4689C526.833 28.9239 526.738 29.4814 526.738 30.1414C526.738 30.7764 526.833 31.3189 527.023 31.7689C527.218 32.2139 527.501 32.5564 527.871 32.7964C528.246 33.0314 528.696 33.1489 529.221 33.1489C529.751 33.1489 530.213 33.0264 530.608 32.7814C531.008 32.5364 531.321 32.1839 531.546 31.7239L532.828 32.1664C532.618 32.6364 532.336 33.0414 531.981 33.3814C531.626 33.7164 531.218 33.9739 530.758 34.1539C530.298 34.3289 529.806 34.4164 529.281 34.4164ZM526.288 30.5164V29.4439H532.273V30.5164H526.288Z" fill="#4200FF"/>
<path d="M577.05 34.1914V23.3914H585.48V34.1914H584.145V24.6589H578.385V34.1914H577.05ZM591.302 34.4164C590.567 34.4164 589.935 34.2314 589.405 33.8614C588.88 33.4864 588.48 32.9764 588.205 32.3314C587.935 31.6864 587.8 30.9539 587.8 30.1339C587.8 29.3089 587.935 28.5739 588.205 27.9289C588.475 27.2839 588.875 26.7789 589.405 26.4139C589.935 26.0489 590.57 25.8664 591.31 25.8664C592.045 25.8664 592.685 26.0514 593.23 26.4214C593.78 26.7864 594.2 27.2939 594.49 27.9439C594.785 28.5889 594.932 29.3189 594.932 30.1339C594.932 30.9439 594.785 31.6739 594.49 32.3239C594.2 32.9739 593.78 33.4864 593.23 33.8614C592.685 34.2314 592.042 34.4164 591.302 34.4164ZM587.575 37.7914V26.0914H588.767V32.0539H588.917V37.7914H587.575ZM591.137 33.1939C591.657 33.1939 592.095 33.0614 592.45 32.7964C592.805 32.5314 593.07 32.1689 593.245 31.7089C593.425 31.2439 593.515 30.7189 593.515 30.1339C593.515 29.5489 593.425 29.0264 593.245 28.5664C593.07 28.1064 592.802 27.7464 592.442 27.4864C592.082 27.2214 591.635 27.0889 591.1 27.0889C590.585 27.0889 590.152 27.2164 589.802 27.4714C589.457 27.7264 589.197 28.0814 589.022 28.5364C588.852 28.9914 588.767 29.5239 588.767 30.1339C588.767 30.7389 588.852 31.2714 589.022 31.7314C589.197 32.1914 589.462 32.5514 589.817 32.8114C590.172 33.0664 590.612 33.1939 591.137 33.1939ZM603.206 26.0914V34.1914H601.916V28.2214L597.671 34.1914H596.569V26.0914H597.859V31.9789L602.111 26.0914H603.206ZM605.299 34.1914V26.0914H606.447L609.522 32.3764L612.597 26.0914H613.744V34.1914H612.454V28.8739L609.874 34.1914H609.169L606.589 28.8739V34.1914H605.299ZM619.349 34.4164C618.559 34.4164 617.864 34.2414 617.264 33.8914C616.669 33.5414 616.207 33.0464 615.877 32.4064C615.552 31.7664 615.389 31.0289 615.389 30.1939C615.389 29.3189 615.549 28.5564 615.869 27.9064C616.194 27.2514 616.649 26.7489 617.234 26.3989C617.824 26.0439 618.509 25.8664 619.289 25.8664C620.094 25.8664 620.784 26.0539 621.359 26.4289C621.939 26.7989 622.372 27.3339 622.657 28.0339C622.947 28.7339 623.072 29.5614 623.032 30.5164H621.682V30.0364C621.672 29.3714 621.579 28.8214 621.404 28.3864C621.229 27.9464 620.969 27.6164 620.624 27.3964C620.279 27.1764 619.849 27.0664 619.334 27.0664C618.789 27.0664 618.327 27.1864 617.947 27.4264C617.572 27.6614 617.287 28.0089 617.092 28.4689C616.902 28.9239 616.807 29.4814 616.807 30.1414C616.807 30.7764 616.902 31.3189 617.092 31.7689C617.287 32.2139 617.569 32.5564 617.939 32.7964C618.314 33.0314 618.764 33.1489 619.289 33.1489C619.819 33.1489 620.282 33.0264 620.677 32.7814C621.077 32.5364 621.389 32.1839 621.614 31.7239L622.897 32.1664C622.687 32.6364 622.404 33.0414 622.049 33.3814C621.694 33.7164 621.287 33.9739 620.827 34.1539C620.367 34.3289 619.874 34.4164 619.349 34.4164ZM616.357 30.5164V29.4439H622.342V30.5164H616.357ZM628.421 34.4164C627.686 34.4164 627.054 34.2314 626.524 33.8614C625.999 33.4864 625.599 32.9764 625.324 32.3314C625.054 31.6864 624.919 30.9539 624.919 30.1339C624.919 29.3089 625.054 28.5739 625.324 27.9289C625.594 27.2839 625.994 26.7789 626.524 26.4139C627.054 26.0489 627.689 25.8664 628.429 25.8664C629.164 25.8664 629.804 26.0514 630.349 26.4214C630.899 26.7864 631.319 27.2939 631.609 27.9439C631.904 28.5889 632.051 29.3189 632.051 30.1339C632.051 30.9439 631.904 31.6739 631.609 32.3239C631.319 32.9739 630.899 33.4864 630.349 33.8614C629.804 34.2314 629.161 34.4164 628.421 34.4164ZM624.694 37.7914V26.0914H625.886V32.0539H626.036V37.7914H624.694ZM628.256 33.1939C628.776 33.1939 629.214 33.0614 629.569 32.7964C629.924 32.5314 630.189 32.1689 630.364 31.7089C630.544 31.2439 630.634 30.7189 630.634 30.1339C630.634 29.5489 630.544 29.0264 630.364 28.5664C630.189 28.1064 629.921 27.7464 629.561 27.4864C629.201 27.2214 628.754 27.0889 628.219 27.0889C627.704 27.0889 627.271 27.2164 626.921 27.4714C626.576 27.7264 626.316 28.0814 626.141 28.5364C625.971 28.9914 625.886 29.5239 625.886 30.1339C625.886 30.7389 625.971 31.2714 626.141 31.7314C626.316 32.1914 626.581 32.5514 626.936 32.8114C627.291 33.0664 627.731 33.1939 628.256 33.1939Z" fill="#4200FF"/>
</g>
<defs>
<clipPath id="clip0_689_1876">
<rect width="922" height="206" fill="white" transform="translate(0 0.191406)"/>
</clipPath>
</defs>
</svg>
